<svg xmlns="http://www.w3.org/2000/svg" xmlns:xlink="http://www.w3.org/1999/xlink" width="56" height="56.189" viewBox="0 0 56 56.189">
  <defs>
    <linearGradient id="linear-gradient" x1="0.5" y1="1" x2="0.5" gradientUnits="objectBoundingBox">
      <stop offset="0" stop-color="#113462"/>
      <stop offset="0.489" stop-color="#014099"/>
      <stop offset="1" stop-color="#113462"/>
    </linearGradient>
    <filter id="패스_7478" x="0" y="0" width="56" height="56.189" filterUnits="userSpaceOnUse">
      <feOffset dx="1" dy="1" input="SourceAlpha"/>
      <feGaussianBlur stdDeviation="1" result="blur"/>
      <feFlood flood-opacity="0.2"/>
      <feComposite operator="in" in2="blur"/>
      <feComposite in="SourceGraphic"/>
    </filter>
    <linearGradient id="linear-gradient-2" x1="0.056" y1="0.111" x2="0.944" y2="0.889" gradientUnits="objectBoundingBox">
      <stop offset="0" stop-color="#b47e42"/>
      <stop offset="0.049" stop-color="#bb8747"/>
      <stop offset="0.13" stop-color="#d1a056"/>
      <stop offset="0.199" stop-color="#e8bc67"/>
      <stop offset="0.259" stop-color="#ebc572"/>
      <stop offset="0.422" stop-color="#f3dc8e"/>
      <stop offset="0.516" stop-color="#f7e599"/>
      <stop offset="0.688" stop-color="#edca79"/>
      <stop offset="0.812" stop-color="#e8bc67"/>
      <stop offset="0.839" stop-color="#dcad5e"/>
      <stop offset="0.901" stop-color="#c6934e"/>
      <stop offset="0.957" stop-color="#b88345"/>
      <stop offset="1" stop-color="#b47e42"/>
    </linearGradient>
    <linearGradient id="linear-gradient-3" x1="0.975" y1="0.087" x2="0.114" y2="0.836" xlink:href="#linear-gradient-2"/>
    <linearGradient id="linear-gradient-5" x1="0" y1="0.5" x2="1" y2="0.5" xlink:href="#linear-gradient-2"/>
    <linearGradient id="linear-gradient-9" x1="0" y1="0.5" x2="1" y2="0.5" xlink:href="#linear-gradient-2"/>
    <linearGradient id="linear-gradient-12" y1="0.5" x2="1" y2="0.5" gradientUnits="objectBoundingBox">
      <stop offset="0" stop-color="#b47026"/>
      <stop offset="0.047" stop-color="#bb792a"/>
      <stop offset="0.125" stop-color="#cf9237"/>
      <stop offset="0.199" stop-color="#e8b147"/>
      <stop offset="0.29" stop-color="#edc25b"/>
      <stop offset="0.433" stop-color="#f4d877"/>
      <stop offset="0.516" stop-color="#f7e182"/>
      <stop offset="0.704" stop-color="#ecbf59"/>
      <stop offset="0.812" stop-color="#e8b147"/>
      <stop offset="0.844" stop-color="#da9f3e"/>
      <stop offset="0.904" stop-color="#c58530"/>
      <stop offset="0.958" stop-color="#b87528"/>
      <stop offset="1" stop-color="#b47026"/>
    </linearGradient>
  </defs>
  <g id="그룹_6984" data-name="그룹 6984" transform="translate(-428 -805)">
    <g transform="matrix(1, 0, 0, 1, 428, 805)" filter="url(#패스_7478)">
      <path id="패스_7478-2" data-name="패스 7478" d="M576.548,280.607V321.02l25,9.776,25-9.776V280.607Z" transform="translate(-574.55 -278.61)" fill="url(#linear-gradient)"/>
    </g>
    <g id="그룹_6958" data-name="그룹 6958" transform="translate(-1904.714 289.968)">
      <path id="패스_7479" data-name="패스 7479" d="M2378.93,553.032a2,2,0,1,1-2-2A2,2,0,0,1,2378.93,553.032Z" transform="translate(-17.216)" fill="url(#linear-gradient-2)"/>
      <path id="패스_7480" data-name="패스 7480" d="M2354.322,554.544a1,1,0,1,1-1-1A1,1,0,0,1,2354.322,554.544Z" transform="translate(0.392 -1.512)" fill="url(#linear-gradient-3)"/>
      <path id="패스_7481" data-name="패스 7481" d="M2354.322,554.544a1,1,0,1,1-1-1A1,1,0,0,1,2354.322,554.544Z" transform="translate(12.392 -1.512)" fill="url(#linear-gradient-3)"/>
    </g>
    <g id="그룹_6964" data-name="그룹 6964" transform="translate(-1973.511 487.282)">
      <path id="패스_7492" data-name="패스 7492" d="M2406.511,347.612v-6.894h3.17a2.88,2.88,0,0,1,1.286.264,1.882,1.882,0,0,1,.819.758,2.616,2.616,0,0,1,0,2.371,1.932,1.932,0,0,1-.819.772,2.794,2.794,0,0,1-1.286.274h-1.648v2.454Zm1.522-3.677h1.378a1.318,1.318,0,0,0,.872-.249,1.106,1.106,0,0,0,0-1.5,1.337,1.337,0,0,0-.872-.244h-1.378Z" fill="url(#linear-gradient-5)"/>
      <path id="패스_7493" data-name="패스 7493" d="M2440.961,347.612v-6.894h3.141a2.61,2.61,0,0,1,1.783.553,1.959,1.959,0,0,1,.626,1.55,2.053,2.053,0,0,1-.25,1.041,1.784,1.784,0,0,1-.708.685,2.594,2.594,0,0,1-1.094.288l.058-.088.279.01a1.068,1.068,0,0,1,.574.205,1.633,1.633,0,0,1,.458.567l1.108,2.083h-1.676l-1.137-2.142a1.007,1.007,0,0,0-.222-.284.729.729,0,0,0-.284-.152,1.355,1.355,0,0,0-.361-.044h-.771v2.621Zm1.522-3.765h1.388a1.335,1.335,0,0,0,.867-.24.879.879,0,0,0,.289-.719.865.865,0,0,0-.289-.714,1.373,1.373,0,0,0-.877-.235h-1.378Z" transform="translate(-27.811)" fill="url(#linear-gradient-5)"/>
      <path id="패스_7494" data-name="패스 7494" d="M2476.91,347.612v-6.894h4.731v1.232h-3.257V343.5h3.045v1.232h-3.045v1.653h3.257v1.232Z" transform="translate(-57.145)" fill="url(#linear-gradient-5)"/>
      <path id="패스_7495" data-name="패스 7495" d="M2508.56,347.612v-6.894h1.416l2.293,4.361h-.193l2.284-4.361h1.387v6.894h-1.407v-4.557h.116l-1.86,3.481h-.9l-1.869-3.481h.125v4.557Z" transform="translate(-82.866)" fill="url(#linear-gradient-5)"/>
      <path id="패스_7496" data-name="패스 7496" d="M2553.81,347.612v-6.894h1.522v6.894Z" transform="translate(-119.521)" fill="url(#linear-gradient-9)"/>
      <path id="패스_7497" data-name="패스 7497" d="M2572.236,347.718a3.05,3.05,0,0,1-2.211-.743,2.93,2.93,0,0,1-.766-2.2v-4.057h1.532v4.028a1.749,1.749,0,0,0,.371,1.222,1.392,1.392,0,0,0,1.074.4,1.367,1.367,0,0,0,1.07-.406,1.767,1.767,0,0,0,.366-1.217v-4.028h1.513v4.057a2.953,2.953,0,0,1-.756,2.2A3,3,0,0,1,2572.236,347.718Z" transform="translate(-132.13 0)" fill="url(#linear-gradient-5)"/>
      <path id="패스_7498" data-name="패스 7498" d="M2607.658,347.612v-6.894h1.417l2.293,4.361h-.193l2.284-4.361h1.387v6.894h-1.407v-4.557h.116l-1.86,3.481h-.9l-1.869-3.481h.125v4.557Z" transform="translate(-163.335)" fill="url(#linear-gradient-5)"/>
    </g>
    <g id="그룹_6967" data-name="그룹 6967" transform="translate(-134.031 772.489)">
      <g id="그룹_6965" data-name="그룹 6965" transform="translate(583.746 49.156)">
        <path id="패스_7499" data-name="패스 7499" d="M585.019,67.554h10.745V66.2H584.989Z" transform="translate(-584.989 -66.199)" fill="url(#linear-gradient-12)"/>
      </g>
      <g id="그룹_6966" data-name="그룹 6966" transform="translate(583.031 40.511)">
        <path id="패스_7500" data-name="패스 7500" d="M583.517,43.185a.533.533,0,0,0,.066-.006l.126,5.292h10.829V43.08h.007a.46.46,0,1,0-.486-.46.447.447,0,0,0,.168.345l-3.107,3.165L589.063,41.4a.462.462,0,0,0,.311-.428.487.487,0,0,0-.972,0,.46.46,0,0,0,.32.43l-1.8,4.814L583.8,43.1a.451.451,0,0,0,.2-.372.487.487,0,1,0-.486.46Z" transform="translate(-583.031 -40.511)" fill="url(#linear-gradient-12)"/>
      </g>
    </g>
  </g>
</svg>
