<svg xmlns="http://www.w3.org/2000/svg" width="22.023" height="21.003" viewBox="0 0 22.023 21.003">
  <g id="그룹_7964" data-name="그룹 7964" transform="translate(0.523 0.503)">
    <g id="그룹_7962" data-name="그룹 7962" transform="translate(2.355 6.204)">
      <path id="패스_8407" data-name="패스 8407" d="M678.127,872.242H660.768a.652.652,0,0,1-.643-.657V859.1a.652.652,0,0,1,.643-.657h17.359a.652.652,0,0,1,.643.657v12.482A.652.652,0,0,1,678.127,872.242Z" transform="translate(-660.125 -858.446)" fill="#fff" stroke="#000" stroke-linecap="round" stroke-linejoin="round" stroke-width="1"/>
      <line id="선_1094" data-name="선 1094" x2="8.412" transform="translate(7.877 11.104)" fill="none" stroke="#000" stroke-linecap="round" stroke-linejoin="round" stroke-width="1"/>
      <line id="선_1095" data-name="선 1095" x2="3.365" transform="translate(2.355 11.104)" fill="none" stroke="#000" stroke-linecap="round" stroke-linejoin="round" stroke-width="1"/>
      <line id="선_1096" data-name="선 1096" x2="3.365" transform="translate(2.355 9.422)" fill="none" stroke="#000" stroke-linecap="round" stroke-linejoin="round" stroke-width="1"/>
      <g id="그룹_7960" data-name="그룹 7960" transform="translate(11.017 2.966)">
        <path id="패스_8408" data-name="패스 8408" d="M696.284,868.092a1.595,1.595,0,1,1-2.163-.636A1.595,1.595,0,0,1,696.284,868.092Z" transform="translate(-693.289 -867.26)" fill="none" stroke="#000" stroke-linecap="round" stroke-linejoin="round" stroke-width="1"/>
      </g>
      <g id="그룹_7961" data-name="그룹 7961" transform="translate(14.016 2.966)">
        <path id="패스_8409" data-name="패스 8409" d="M702.4,867.46l.415-.162a1.595,1.595,0,1,1-.034,3.107,1.531,1.531,0,0,1-.412-.164" transform="translate(-702.371 -867.26)" fill="none" stroke="#000" stroke-linecap="round" stroke-linejoin="round" stroke-width="1"/>
      </g>
    </g>
    <g id="그룹_7963" data-name="그룹 7963">
      <path id="패스_8411" data-name="패스 8411" d="M2.078,2.017,10.107,0" transform="translate(8.844 4.147)" fill="none" stroke="#000" stroke-linecap="round" stroke-width="1"/>
      <path id="패스_8410" data-name="패스 8410" d="M655.415,852.231l-2.268-8.836a.655.655,0,0,1,.454-.8l16.741-4.462a.647.647,0,0,1,.786.469l1.5,5.536" transform="translate(-653.125 -838.112)" fill="none" stroke="#000" stroke-linecap="round" stroke-linejoin="round" stroke-width="1"/>
    </g>
  </g>
</svg>
