<svg xmlns="http://www.w3.org/2000/svg" width="21.014" height="17.001" viewBox="0 0 21.014 17.001">
  <g id="그룹_7950" data-name="그룹 7950" transform="translate(0.507 0.5)">
    <path id="사각형_3537" data-name="사각형 3537" d="M1,0H15a1,1,0,0,1,1,1V12a0,0,0,0,1,0,0H0a0,0,0,0,1,0,0V1A1,1,0,0,1,1,0Z" transform="translate(1.936)" fill="none" stroke="#000" stroke-linecap="round" stroke-linejoin="round" stroke-width="1"/>
    <path id="패스_8405" data-name="패스 8405" d="M164.579,728.355l1.824,3.581a.3.3,0,0,1-.287.419h-19.37a.3.3,0,0,1-.287-.419l1.824-3.581" transform="translate(-146.43 -716.354)" fill="none" stroke="#000" stroke-linecap="round" stroke-linejoin="round" stroke-width="1"/>
    <line id="선_1092" data-name="선 1092" x2="7.101" transform="translate(4.46 5.499)" fill="none" stroke="#000" stroke-linecap="round" stroke-linejoin="round" stroke-width="1"/>
    <line id="선_1093" data-name="선 1093" x2="3.55" transform="translate(4.525 8.201)" fill="none" stroke="#000" stroke-linecap="round" stroke-linejoin="round" stroke-width="1"/>
  </g>
</svg>
