<svg xmlns="http://www.w3.org/2000/svg" width="21.016" height="19.009" viewBox="0 0 21.016 19.009">
  <g id="그룹_7341" data-name="그룹 7341" transform="translate(0.506 0.5)">
    <g id="그룹_7339" data-name="그룹 7339" transform="translate(11 9)">
      <g id="그룹_7337" data-name="그룹 7337" transform="translate(0)">
        <circle id="타원_320" data-name="타원 320" cx="4.416" cy="4.416" r="4.416" transform="translate(0 0.169) rotate(-1.097)" fill="none" stroke="#000" stroke-linecap="round" stroke-linejoin="round" stroke-width="1"/>
      </g>
      <g id="그룹_7338" data-name="그룹 7338" transform="translate(1.853 3.706)">
        <path id="패스_7771" data-name="패스 7771" d="M695.339,729.806l1.194,2.647,1.083-2.647,1.16,2.647,1.066-2.647" transform="translate(-694.944 -729.806)" fill="none" stroke="#000" stroke-linecap="round" stroke-linejoin="round" stroke-width="1"/>
        <line id="선_853" data-name="선 853" x2="5.294" transform="translate(0 1.138)" fill="none" stroke="#000" stroke-linecap="round" stroke-linejoin="round" stroke-width="1"/>
      </g>
    </g>
    <g id="그룹_7340" data-name="그룹 7340">
      <path id="패스_7772" data-name="패스 7772" d="M667.087,702.941h-9.065V690.993a.319.319,0,0,1,.312-.326h15.532a.319.319,0,0,1,.312.326v9.471" transform="translate(-656.106 -690.667)" fill="none" stroke="#000" stroke-linecap="round" stroke-linejoin="round" stroke-width="1"/>
      <path id="패스_7773" data-name="패스 7773" d="M664.124,732.727H652.465a.326.326,0,0,1-.3-.458l1.888-3.914" transform="translate(-652.139 -716.201)" fill="none" stroke="#000" stroke-linecap="round" stroke-linejoin="round" stroke-width="1"/>
      <line id="선_854" data-name="선 854" x2="7.028" transform="translate(4.476 3.798)" fill="none" stroke="#000" stroke-linecap="round" stroke-linejoin="round" stroke-width="1"/>
      <line id="선_855" data-name="선 855" x2="3.514" transform="translate(4.542 6.589)" fill="none" stroke="#000" stroke-linecap="round" stroke-linejoin="round" stroke-width="1"/>
    </g>
  </g>
</svg>
