<svg xmlns="http://www.w3.org/2000/svg" width="43.058" height="35.058" viewBox="0 0 43.058 35.058">
  <g id="그룹_7503" data-name="그룹 7503" transform="translate(-816.135 -405.26)">
    <g id="그룹_7500" data-name="그룹 7500" transform="translate(823.663 411.877)">
      <g id="그룹_7499" data-name="그룹 7499" transform="translate(0 0)">
        <g id="그룹_7487" data-name="그룹 7487" transform="translate(15.905 5.362)">
          <path id="패스_7942" data-name="패스 7942" d="M875.221,440.661a.453.453,0,0,1-.321-.133l-7.813-7.814a.455.455,0,1,1,.643-.643l7.813,7.814a.454.454,0,0,1-.321.776Z" transform="translate(-866.953 -431.938)" fill="none" stroke="#222" stroke-width="1"/>
        </g>
        <g id="그룹_7488" data-name="그룹 7488" transform="translate(0 0.598)">
          <path id="패스_7943" data-name="패스 7943" d="M836.025,436.828a.452.452,0,0,1-.321-.133l-.527-.525c-2.145-1.932-3.169-3.488-3.206-4.881a2.882,2.882,0,0,1,.925-2.162l5.969-6.577c2.233-2.235,4.427-.532,6.028.711l.172.134a.454.454,0,1,1-.556.719l-.174-.135c-1.851-1.437-3.281-2.335-4.813-.8l-5.969,6.578a2,2,0,0,0-.674,1.512c.029,1.112.985,2.5,2.922,4.245l.543.541a.455.455,0,0,1-.321.777Z" transform="translate(-831.971 -421.461)" fill="none" stroke="#222" stroke-width="1"/>
        </g>
        <g id="그룹_7489" data-name="그룹 7489" transform="translate(20.869 13.082)">
          <path id="패스_7944" data-name="패스 7944" d="M881.964,455.531a2.358,2.358,0,0,1-1.658-.787l-2.3-2.3a.455.455,0,0,1,.643-.643l2.3,2.3a1.28,1.28,0,0,0,2.077-.03c.394-.394,1.053-1.053-.633-2.739l-1.638-1.638a.455.455,0,0,1,.643-.643l1.638,1.638c1.567,1.567,1.774,2.884.633,4.026A2.437,2.437,0,0,1,881.964,455.531Z" transform="translate(-877.872 -448.918)" fill="none" stroke="#222" stroke-width="1"/>
        </g>
        <g id="그룹_7490" data-name="그룹 7490" transform="translate(18.121 15.832)">
          <path id="패스_7945" data-name="패스 7945" d="M875.917,461.58a2.361,2.361,0,0,1-1.658-.786l-2.3-2.3a.455.455,0,1,1,.643-.643l2.3,2.3a1.282,1.282,0,0,0,2.077-.031c.393-.394,1.053-1.054-.632-2.74l-1.639-1.637a.455.455,0,0,1,.643-.643l1.639,1.637c1.588,1.589,1.789,2.868.633,4.026A2.436,2.436,0,0,1,875.917,461.58Z" transform="translate(-871.826 -454.967)" fill="none" stroke="#222" stroke-width="1"/>
        </g>
        <g id="그룹_7491" data-name="그룹 7491" transform="translate(15.37 18.582)">
          <path id="패스_7946" data-name="패스 7946" d="M869.862,467.623a2.335,2.335,0,0,1-1.652-.783l-2.3-2.3a.455.455,0,0,1,.643-.643l2.3,2.3a1.407,1.407,0,0,0,1.093.513,1.636,1.636,0,0,0,.983-.542c.394-.395,1.053-1.054-.631-2.74l-1.638-1.637a.455.455,0,1,1,.643-.643l1.638,1.637c1.588,1.589,1.788,2.868.631,4.026a2.5,2.5,0,0,1-1.551.806C869.968,467.621,869.915,467.623,869.862,467.623Z" transform="translate(-865.776 -461.015)" fill="none" stroke="#222" stroke-width="1"/>
        </g>
        <g id="그룹_7492" data-name="그룹 7492" transform="translate(13.355 21.332)">
          <path id="패스_7947" data-name="패스 7947" d="M864.7,473.671a2.338,2.338,0,0,1-1.652-.782l-1.566-1.566a.455.455,0,0,1,.643-.643l1.566,1.566a1.418,1.418,0,0,0,1.093.512,1.631,1.631,0,0,0,.983-.542,1.233,1.233,0,0,0,.461-.992,3.212,3.212,0,0,0-1.092-1.747l-1.638-1.638a.455.455,0,0,1,.643-.643l1.638,1.638a3.951,3.951,0,0,1,1.355,2.316,2.11,2.11,0,0,1-.723,1.709,2.5,2.5,0,0,1-1.552.806C864.8,473.669,864.748,473.671,864.7,473.671Z" transform="translate(-861.344 -467.063)" fill="none" stroke="#222" stroke-width="1"/>
        </g>
        <g id="그룹_7493" data-name="그룹 7493" transform="translate(9.269)">
          <path id="패스_7948" data-name="패스 7948" d="M868.537,435.51a.455.455,0,0,1-.321-.777l1.357-1.356a5.315,5.315,0,0,0,1.611-2.719,2.837,2.837,0,0,0-.917-2.568l-6.057-6.005a3.566,3.566,0,0,0-2.583-1.03h-.012a7.644,7.644,0,0,0-5.13,2.612l-3.339,3.618a.455.455,0,1,1-.668-.617l3.35-3.629a8.534,8.534,0,0,1,5.785-2.893h.015a4.453,4.453,0,0,1,3.224,1.3l6.057,6.005a3.744,3.744,0,0,1,1.172,3.365,6.2,6.2,0,0,1-1.865,3.211l-1.357,1.356A.455.455,0,0,1,868.537,435.51Z" transform="translate(-852.357 -420.145)" fill="none" stroke="#222" stroke-width="1"/>
        </g>
        <g id="그룹_7494" data-name="그룹 7494" transform="translate(8.081 4.604)">
          <path id="패스_7949" data-name="패스 7949" d="M852.123,436.843a2.183,2.183,0,0,1-1.5-.679,2.541,2.541,0,0,1-.863-1.529,2.256,2.256,0,0,1,.709-1.846l2.225-2.373a.455.455,0,1,1,.663.622l-2.225,2.373a1.4,1.4,0,0,0-.47,1.113,1.744,1.744,0,0,0,.582.977c.4.376,1.071,1,2.7-.734l3.763-3.61a.455.455,0,1,1,.629.656l-3.746,3.593A3.648,3.648,0,0,1,852.123,436.843Z" transform="translate(-849.744 -430.272)" fill="none" stroke="#222" stroke-width="1"/>
        </g>
        <g id="그룹_7495" data-name="그룹 7495" transform="translate(2.704 13.233)">
          <path id="패스_7950" data-name="패스 7950" d="M840.132,455.98a2.229,2.229,0,0,1-1.655-.613c-1.045-1.088-.309-2.9-.277-2.976a.451.451,0,0,1,.1-.147l1.169-1.168a5.914,5.914,0,0,1,2.681-1.771,1.969,1.969,0,0,1,1.909.575,2.2,2.2,0,0,1,.685,1.741,3.249,3.249,0,0,1-1.069,2.035l-1.982,1.982a.463.463,0,0,1-.166.106A4.516,4.516,0,0,1,840.132,455.98Zm1.238-.665h0Zm-2.358-2.5c-.1.294-.415,1.363.121,1.92s1.669.276,1.994.18l1.9-1.9a2.424,2.424,0,0,0,.8-1.454,1.3,1.3,0,0,0-.42-1.036,1.073,1.073,0,0,0-1.074-.329,5.2,5.2,0,0,0-2.231,1.526Z" transform="translate(-837.918 -449.25)" fill="none" stroke="#222" stroke-width="1"/>
        </g>
        <g id="그룹_7496" data-name="그룹 7496" transform="translate(5.363 16.401)">
          <path id="패스_7951" data-name="패스 7951" d="M845.808,462.348a2.055,2.055,0,0,1-1.526-.567c-.964-1-.287-2.663-.258-2.733a.446.446,0,0,1,.1-.147l1.055-1.054a5.208,5.208,0,0,1,2.425-1.589,1.829,1.829,0,0,1,1.734.556c.977.978.865,2.258-.3,3.424l-1.788,1.788a.462.462,0,0,1-.166.106A4.112,4.112,0,0,1,845.808,462.348Zm1.117-.644h0Zm-2.089-2.231c-.092.271-.359,1.2.1,1.678.423.441,1.342.277,1.742.156l1.712-1.712c.81-.809.911-1.529.3-2.139a.921.921,0,0,0-.912-.306,4.5,4.5,0,0,0-1.961,1.34Z" transform="translate(-843.766 -456.218)" fill="none" stroke="#222" stroke-width="1"/>
        </g>
        <g id="그룹_7497" data-name="그룹 7497" transform="translate(7.762 19.268)">
          <path id="패스_7952" data-name="패스 7952" d="M850.925,468.1a1.894,1.894,0,0,1-1.406-.523,2.538,2.538,0,0,1-.242-2.511.45.45,0,0,1,.1-.147l.95-.949c1-1,2.469-2.172,3.761-.883.432.433,1.275,1.6-.222,3.1l-1.611,1.61a.448.448,0,0,1-.166.105A3.735,3.735,0,0,1,850.925,468.1Zm1.005-.625h0Zm-1.841-1.984c-.084.248-.308,1.046.085,1.455.363.376,1.156.237,1.511.13l1.534-1.533c.912-.913.564-1.472.223-1.814-.279-.277-.8-.8-2.475.883Z" transform="translate(-849.042 -462.524)" fill="none" stroke="#222" stroke-width="1"/>
        </g>
        <g id="그룹_7498" data-name="그룹 7498" transform="translate(9.824 21.993)">
          <path id="패스_7953" data-name="패스 7953" d="M855.235,473.325a1.661,1.661,0,0,1-1.236-.469,2.211,2.211,0,0,1-.219-2.193.447.447,0,0,1,.1-.146l.8-.8c1.336-1.337,2.322-1.545,3.2-.671a1.748,1.748,0,0,1,.586,1.182,2,2,0,0,1-.7,1.459l-1.358,1.359a.464.464,0,0,1-.166.106A3.183,3.183,0,0,1,855.235,473.325Zm.85-.6h0Zm-1.493-1.633c-.091.269-.211.853.062,1.137s.912.175,1.187.1l1.28-1.28a1.17,1.17,0,0,0,.435-.782.905.905,0,0,0-.321-.572c-.276-.277-.62-.622-1.912.67Z" transform="translate(-853.578 -468.517)" fill="none" stroke="#222" stroke-width="1"/>
        </g>
      </g>
    </g>
    <g id="그룹_7501" data-name="그룹 7501" transform="translate(842.649 405.818)">
      <path id="패스_7954" data-name="패스 7954" d="M884.435,422.861a.455.455,0,0,1-.321-.134l-10.252-10.253a.455.455,0,0,1,0-.643l4.881-4.881a.455.455,0,0,1,.643,0L889.638,417.2a.454.454,0,0,1,0,.643l-4.882,4.882A.453.453,0,0,1,884.435,422.861Zm-9.608-10.708,9.608,9.61,4.239-4.239-9.61-9.609Z" transform="translate(-873.728 -406.818)" fill="none" stroke="#014099" stroke-width="1"/>
    </g>
    <g id="그룹_7502" data-name="그룹 7502" transform="translate(816.692 407.579)">
      <path id="패스_7955" data-name="패스 7955" d="M823.46,424.961a.454.454,0,0,1-.307-.12l-5.313-4.875a.455.455,0,0,1-.028-.642l9.8-10.685a.454.454,0,0,1,.642-.028l5.313,4.874a.455.455,0,0,1,.028.642l-9.8,10.685a.454.454,0,0,1-.316.147Zm-4.671-5.357,4.643,4.26,9.187-10.015-4.643-4.259Z" transform="translate(-817.692 -409.492)" fill="none" stroke="#222" stroke-width="1"/>
    </g>
  </g>
</svg>
