<svg xmlns="http://www.w3.org/2000/svg" width="42.481" height="41.34" viewBox="0 0 42.481 41.34">
  <g id="그룹_7479" data-name="그룹 7479" transform="translate(-313.166 -837.449)">
    <g id="그룹_7478" data-name="그룹 7478" transform="translate(326.508 838.449)">
      <g id="그룹_7476" data-name="그룹 7476">
        <path id="패스_7913" data-name="패스 7913" d="M337.121,859.8a12.947,12.947,0,1,1,12.595,4.248" transform="translate(-334.021 -838.449)" fill="none" stroke="#000" stroke-linecap="round" stroke-linejoin="round" stroke-width="2"/>
      </g>
      <g id="그룹_7477" data-name="그룹 7477" transform="translate(6.379 9.616)">
        <path id="패스_7914" data-name="패스 7914" d="M345.794,854.083l3.053,7.329,2.77-7.329,2.967,7.329,2.726-7.329" transform="translate(-344.932 -854.083)" fill="none" stroke="#014099" stroke-linecap="round" stroke-linejoin="round" stroke-width="1.5"/>
        <line id="선_877" data-name="선 877" x2="13.572" transform="translate(0 2.961)" fill="none" stroke="#014099" stroke-linecap="round" stroke-linejoin="round" stroke-width="1.5"/>
      </g>
    </g>
    <path id="패스_7915" data-name="패스 7915" d="M337.292,879.966l6.959,2.289a2.46,2.46,0,0,0,3.153-1.47h0a2.46,2.46,0,0,0-1.471-3.153l-11.5-3.91a7.378,7.378,0,0,0-5.292.24l-5.2,2.314" transform="translate(-3.635 -13.783)" fill="none" stroke="#000" stroke-linecap="round" stroke-linejoin="round" stroke-width="2"/>
    <path id="패스_7916" data-name="패스 7916" d="M349.67,883.992l7.315-2.977a2.46,2.46,0,0,1,3.27,1.19h0a2.46,2.46,0,0,1-1.189,3.27l-11.148,5.2-.464.2a7.381,7.381,0,0,1-6.476-.323l-4.42-2.442a7.382,7.382,0,0,0-6.518-.306" transform="translate(-5.979 -16.794)" fill="none" stroke="#000" stroke-linecap="round" stroke-linejoin="round" stroke-width="2"/>
    <path id="패스_7917" data-name="패스 7917" d="M314.506,877.916l3.868-1.776a1.23,1.23,0,0,1,1.638.586l4.069,9.587a1.231,1.231,0,0,1-.586,1.638l-8.989,4.458" transform="translate(0 -14.96)" fill="none" stroke="#000" stroke-linecap="round" stroke-linejoin="round" stroke-width="2"/>
    <circle id="타원_333" data-name="타원 333" cx="0.615" cy="0.615" r="0.615" transform="translate(316.732 866.101)" fill="none" stroke="#000" stroke-linecap="round" stroke-linejoin="round" stroke-width="2"/>
  </g>
</svg>
