<svg xmlns="http://www.w3.org/2000/svg" width="38.389" height="39.146" viewBox="0 0 38.389 39.146">
  <g id="그룹_7349" data-name="그룹 7349" transform="translate(-822.578 -683.51)">
    <ellipse id="타원_322" data-name="타원 322" cx="12.766" cy="5.234" rx="12.766" ry="5.234" transform="translate(823.328 684.26)" fill="none" stroke="#000" stroke-linecap="round" stroke-linejoin="round" stroke-width="1.5"/>
    <path id="패스_7780" data-name="패스 7780" d="M848.86,702.815c0,2.333-3.726,4.311-8.872,4.986a30.131,30.131,0,0,1-3.894.248c-7.05,0-12.766-2.343-12.766-5.234" transform="translate(0 -7.742)" fill="none" stroke="#000" stroke-linecap="round" stroke-linejoin="round" stroke-width="1.5"/>
    <path id="패스_7781" data-name="패스 7781" d="M839.139,717.523c-.976.1-2,.15-3.046.15-7.05,0-12.766-2.344-12.766-5.234" transform="translate(0 -11.758)" fill="none" stroke="#000" stroke-linecap="round" stroke-linejoin="round" stroke-width="1.5"/>
    <path id="패스_7782" data-name="패스 7782" d="M840.485,737.6a29.792,29.792,0,0,1-4.392.318c-7.05,0-12.766-2.343-12.766-5.234" transform="translate(0 -20.227)" fill="none" stroke="#000" stroke-linecap="round" stroke-linejoin="round" stroke-width="1.5"/>
    <path id="패스_7783" data-name="패스 7783" d="M838.128,727.231c-.662.043-1.342.066-2.034.066-7.05,0-12.766-2.344-12.766-5.234" transform="translate(0 -15.774)" fill="none" stroke="#000" stroke-linecap="round" stroke-linejoin="round" stroke-width="1.5"/>
    <line id="선_867" data-name="선 867" y2="23.145" transform="translate(823.328 689.494)" fill="none" stroke="#000" stroke-linecap="round" stroke-linejoin="round" stroke-width="1.5"/>
    <line id="선_868" data-name="선 868" y2="10.18" transform="translate(848.86 689.637)" fill="none" stroke="#000" stroke-linecap="round" stroke-linejoin="round" stroke-width="1.5"/>
    <g id="그룹_7348" data-name="그룹 7348" transform="translate(838.128 699.817)">
      <g id="그룹_7346" data-name="그룹 7346" transform="translate(0 0)">
        <circle id="타원_321" data-name="타원 321" cx="10.732" cy="10.732" r="10.732" transform="translate(0 0.613) rotate(-1.636)" fill="none" stroke="#222" stroke-linecap="round" stroke-linejoin="round" stroke-width="1.5"/>
      </g>
      <g id="그룹_7347" data-name="그룹 7347" transform="translate(3.679 8.286)">
        <path id="패스_7779" data-name="패스 7779" d="M856.255,724.187l3.1,7.433,2.809-7.433,3.009,7.433,2.764-7.433" transform="translate(-855.135 -724.187)" fill="none" stroke="#222" stroke-linecap="round" stroke-linejoin="round" stroke-width="1.5"/>
        <line id="선_866" data-name="선 866" x2="13.916" transform="translate(0 3.197)" fill="none" stroke="#222" stroke-linecap="round" stroke-linejoin="round" stroke-width="1.5"/>
      </g>
    </g>
  </g>
</svg>
