<svg xmlns="http://www.w3.org/2000/svg" width="43.5" height="29.5" viewBox="0 0 43.5 29.5">
  <g id="그룹_7344" data-name="그룹 7344" transform="translate(-1064.342 -582.366)">
    <g id="Isolation_Mode" data-name="Isolation Mode" transform="translate(1065.092 583.116)">
      <rect id="사각형_3077" data-name="사각형 3077" width="42" height="28" rx="1" fill="none" stroke="#000" stroke-linecap="round" stroke-linejoin="round" stroke-width="1.5"/>
      <line id="선_862" data-name="선 862" x2="11.667" transform="translate(22.686 9.819)" fill="none" stroke="#000" stroke-linecap="round" stroke-linejoin="round" stroke-width="1.5"/>
      <line id="선_863" data-name="선 863" x2="11.667" transform="translate(22.686 14.485)" fill="none" stroke="#000" stroke-linecap="round" stroke-linejoin="round" stroke-width="1.5"/>
      <line id="선_864" data-name="선 864" x2="11.667" transform="translate(22.686 19.152)" fill="none" stroke="#000" stroke-linecap="round" stroke-linejoin="round" stroke-width="1.5"/>
    </g>
    <g id="레이어_1" data-name="레이어 1" transform="translate(1072.739 590.634)">
      <path id="패스_7777" data-name="패스 7777" d="M1089.244,608.673c0-1.495-1.755-4.726-4.144-5.385a.345.345,0,0,1-.033-.654,3.58,3.58,0,0,0,2.19-3.284,3.685,3.685,0,1,0-5.265,3.284c.374.175.36.57.038.654-2.381.664-4.129,3.94-4.129,5.385" transform="translate(-1077.901 -595.71)" fill="none" stroke="#000" stroke-linecap="round" stroke-linejoin="round" stroke-width="1.5"/>
    </g>
  </g>
</svg>
