<svg xmlns="http://www.w3.org/2000/svg" width="38.672" height="32.517" viewBox="0 0 38.672 32.517">
  <g id="그룹_7352" data-name="그룹 7352" transform="translate(-740.459 -813.233)">
    <g id="그룹_7351" data-name="그룹 7351" transform="translate(741.381 814)">
      <path id="패스_7785" data-name="패스 7785" d="M351.995,395.7a8.2,8.2,0,1,1-2.437-11.341A8.2,8.2,0,0,1,351.995,395.7Z" transform="translate(-323.723 -383.04)" fill="none" stroke="#000" stroke-linecap="round" stroke-linejoin="round" stroke-width="1.5"/>
      <path id="패스_7786" data-name="패스 7786" d="M339.669,426.135A4.132,4.132,0,1,1,335.537,422,4.132,4.132,0,0,1,339.669,426.135Z" transform="translate(-321.41 -399.267)" fill="none" stroke="#000" stroke-linecap="round" stroke-linejoin="round" stroke-width="1.5"/>
      <path id="패스_7787" data-name="패스 7787" d="M362.258,426.135A4.132,4.132,0,1,1,358.126,422,4.132,4.132,0,0,1,362.258,426.135Z" transform="translate(-330.785 -399.267)" fill="none" stroke="#000" stroke-linecap="round" stroke-linejoin="round" stroke-width="1.5"/>
      <path id="패스_7788" data-name="패스 7788" d="M314.377,386.046l4.044,1.11,7.388,19.713H344.67l6.707-12.693H343.8" transform="translate(-314.377 -384.267)" fill="none" stroke="#000" stroke-linecap="round" stroke-linejoin="round" stroke-width="1.5"/>
      <g id="그룹_7350" data-name="그룹 7350" transform="translate(17.291 4.102)">
        <line id="선_869" data-name="선 869" x2="8.203" transform="translate(0 4.102)" fill="none" stroke="#000" stroke-linecap="round" stroke-linejoin="round" stroke-width="1.5"/>
        <line id="선_870" data-name="선 870" y1="8.203" transform="translate(4.102 0)" fill="none" stroke="#000" stroke-linecap="round" stroke-linejoin="round" stroke-width="1.5"/>
      </g>
      <line id="선_871" data-name="선 871" x2="2.234" transform="translate(10.833 9.806)" fill="none" stroke="#000" stroke-linecap="round" stroke-linejoin="round" stroke-width="1.5"/>
    </g>
  </g>
</svg>
