<svg xmlns="http://www.w3.org/2000/svg" width="16" height="16" viewBox="0 0 16 16">
  <g id="그룹_7521" data-name="그룹 7521" transform="translate(-12 -12)">
    <path id="패스_7956" data-name="패스 7956" d="M57.111,20H50V32.444h7.111A.444.444,0,0,0,57.556,32V20.444A.444.444,0,0,0,57.111,20Z" transform="translate(-29.556 -6.222)" fill="#4caf50"/>
    <path id="패스_7957" data-name="패스 7957" d="M50,32.222h2.222v1.333H50Zm0,4.444h2.222V38H50Zm0-2.222h2.222v1.333H50ZM50,30h2.222v1.333H50Zm3.111,2.222h3.111v1.333H53.111Zm0,4.444h3.111V38H53.111Zm0-2.222h3.111v1.333H53.111Zm0-4.444h3.111v1.333H53.111Z" transform="translate(-29.556 -14)" fill="#fff"/>
    <path id="패스_7958" data-name="패스 7958" d="M21.333,28,12,26.222V13.778L21.333,12Z" fill="#2e7d32"/>
    <path id="패스_7959" data-name="패스 7959" d="M23.894,40.222,22.822,38.2a1.784,1.784,0,0,1-.126-.417H22.68a3.2,3.2,0,0,1-.144.435L21.46,40.222H19.79l1.983-3.112L19.958,34h1.705l.889,1.865a3.242,3.242,0,0,1,.187.524h.018c.035-.12.1-.3.2-.542L23.942,34H25.5l-1.866,3.084,1.918,3.137H23.894Z" transform="translate(-6.059 -17.111)" fill="#fff"/>
  </g>
</svg>
