<svg xmlns="http://www.w3.org/2000/svg" width="42.031" height="36.019" viewBox="0 0 42.031 36.019">
  <g id="그룹_7484" data-name="그룹 7484" transform="translate(-651.126 -689.667)">
    <g id="그룹_7482" data-name="그룹 7482" transform="translate(674.42 706.948)">
      <g id="그룹_7480" data-name="그룹 7480" transform="translate(0 0)">
        <circle id="타원_334" data-name="타원 334" cx="8.695" cy="8.695" r="8.695" transform="translate(0 0.333) rotate(-1.097)" fill="none" stroke="#000" stroke-linecap="round" stroke-linejoin="round" stroke-width="2"/>
      </g>
      <g id="그룹_7481" data-name="그룹 7481" transform="translate(3.79 7.109)">
        <path id="패스_7932" data-name="패스 7932" d="M695.339,729.806l2.113,5.072,1.917-5.072,2.053,5.072,1.886-5.072" transform="translate(-694.576 -729.806)" fill="none" stroke="#014099" stroke-linecap="round" stroke-linejoin="round" stroke-width="1"/>
        <line id="선_878" data-name="선 878" x2="9.496" transform="translate(0 2.181)" fill="none" stroke="#014099" stroke-linecap="round" stroke-linejoin="round" stroke-width="1"/>
      </g>
    </g>
    <g id="그룹_7483" data-name="그룹 7483" transform="translate(652.139 690.667)">
      <path id="패스_7933" data-name="패스 7933" d="M676.1,714.382H658.022V691.3a.626.626,0,0,1,.622-.629h31a.626.626,0,0,1,.622.629v17.3" transform="translate(-654.32 -690.667)" fill="none" stroke="#000" stroke-linecap="round" stroke-linejoin="round" stroke-width="2"/>
      <path id="패스_7934" data-name="패스 7934" d="M676.221,736.8H652.769a.629.629,0,0,1-.575-.885l3.647-7.563" transform="translate(-652.139 -705.878)" fill="none" stroke="#000" stroke-linecap="round" stroke-linejoin="round" stroke-width="2"/>
      <line id="선_879" data-name="선 879" x2="13.58" transform="translate(8.994 7.834)" fill="none" stroke="#000" stroke-linecap="round" stroke-linejoin="round" stroke-width="2"/>
      <line id="선_880" data-name="선 880" x2="6.79" transform="translate(9.026 13.057)" fill="none" stroke="#000" stroke-linecap="round" stroke-linejoin="round" stroke-width="2"/>
    </g>
  </g>
</svg>
