<svg xmlns="http://www.w3.org/2000/svg" width="69.028" height="70.028" viewBox="0 0 69.028 70.028">
  <g id="그룹_7216" data-name="그룹 7216" transform="translate(-149.766 -529.625)">
    <g id="그룹_7214" data-name="그룹 7214" transform="translate(150.766 530.625)">
      <path id="패스_7688" data-name="패스 7688" d="M167.886,547.379a1.979,1.979,0,1,1-1.978-1.978A1.979,1.979,0,0,1,167.886,547.379Z" transform="translate(-150.766 -530.658)" fill="none" stroke="#000" stroke-linecap="round" stroke-linejoin="round" stroke-width="2"/>
      <path id="패스_7689" data-name="패스 7689" d="M191.619,547.379a1.979,1.979,0,1,1-1.979-1.978A1.979,1.979,0,0,1,191.619,547.379Z" transform="translate(-150.766 -530.658)" fill="none" stroke="#000" stroke-linecap="round" stroke-linejoin="round" stroke-width="2"/>
      <path id="패스_7690" data-name="패스 7690" d="M202.7,594.24a2.081,2.081,0,0,0,2.077-2.073V542.433a2.081,2.081,0,0,0-2.077-2.073h-49.86a2.081,2.081,0,0,0-2.078,2.073v48.809s.15,3,2.892,3Z" transform="translate(-150.766 -530.625)" fill="none" stroke="#000" stroke-linecap="round" stroke-linejoin="round" stroke-width="2"/>
      <path id="패스_7691" data-name="패스 7691" d="M165.908,546.047v-7.112a8.334,8.334,0,0,1,8.31-8.31h7.112a8.334,8.334,0,0,1,8.31,8.31v7.112" transform="translate(-150.766 -530.625)" fill="none" stroke="#000" stroke-linecap="round" stroke-linejoin="round" stroke-width="2"/>
      <line id="선_837" data-name="선 837" x1="52.382" transform="translate(0.96 53.276)" fill="none" stroke="#000" stroke-linecap="round" stroke-linejoin="round" stroke-width="2"/>
    </g>
    <g id="그룹_7215" data-name="그룹 7215" transform="translate(190.046 570.905)">
      <path id="패스_7692" data-name="패스 7692" d="M701.327,404.422a13.858,13.858,0,1,1-4.116-19.161A13.858,13.858,0,0,1,701.327,404.422Z" transform="translate(-675.828 -383.04)" fill="#014099" stroke="#014099" stroke-linecap="round" stroke-linejoin="round" stroke-width="2"/>
      <path id="패스_7696" data-name="패스 7696" d="M682.886,395.252l5.624,5.624h0l8.6-8.6" transform="translate(-675.828 -382.04)" fill="none" stroke="#fff" stroke-linecap="round" stroke-linejoin="round" stroke-width="2"/>
    </g>
  </g>
</svg>
