<svg xmlns="http://www.w3.org/2000/svg" width="33.524" height="29.514" viewBox="0 0 33.524 29.514">
  <g id="그룹_7341" data-name="그룹 7341" transform="translate(-651.379 -689.917)">
    <g id="그룹_7339" data-name="그룹 7339" transform="translate(670.139 704.667)">
      <g id="그룹_7337" data-name="그룹 7337" transform="translate(0)">
        <circle id="타원_320" data-name="타원 320" cx="6.87" cy="6.87" r="6.87" transform="translate(0 0.263) rotate(-1.097)" fill="none" stroke="#000" stroke-linecap="round" stroke-linejoin="round" stroke-width="1.5"/>
      </g>
      <g id="그룹_7338" data-name="그룹 7338" transform="translate(2.882 5.764)">
        <path id="패스_7771" data-name="패스 7771" d="M695.339,729.806l1.857,4.118,1.685-4.118,1.805,4.118,1.658-4.118" transform="translate(-694.724 -729.806)" fill="none" stroke="#000" stroke-linecap="round" stroke-linejoin="round" stroke-width="1"/>
        <line id="선_853" data-name="선 853" x2="8.235" transform="translate(0 1.771)" fill="none" stroke="#000" stroke-linecap="round" stroke-linejoin="round" stroke-width="1"/>
      </g>
    </g>
    <g id="그룹_7340" data-name="그룹 7340" transform="translate(652.139 690.667)">
      <path id="패스_7772" data-name="패스 7772" d="M673.417,709.76h-15.4V691.174a.5.5,0,0,1,.5-.507H683.54a.5.5,0,0,1,.5.507v14.733" transform="translate(-655.042 -690.667)" fill="none" stroke="#000" stroke-linecap="round" stroke-linejoin="round" stroke-width="1.5"/>
      <path id="패스_7773" data-name="패스 7773" d="M672.332,735.156H652.646a.507.507,0,0,1-.463-.712l2.936-6.089" transform="translate(-652.139 -709.449)" fill="none" stroke="#000" stroke-linecap="round" stroke-linejoin="round" stroke-width="1.5"/>
      <line id="선_854" data-name="선 854" x2="10.933" transform="translate(7.323 5.908)" fill="none" stroke="#000" stroke-linecap="round" stroke-linejoin="round" stroke-width="1.5"/>
      <line id="선_855" data-name="선 855" x2="5.467" transform="translate(7.343 10.25)" fill="none" stroke="#000" stroke-linecap="round" stroke-linejoin="round" stroke-width="1.5"/>
    </g>
  </g>
</svg>
