<svg xmlns="http://www.w3.org/2000/svg" width="45.203" height="42.002" viewBox="0 0 45.203 42.002">
  <g id="그룹_7475" data-name="그룹 7475" transform="translate(-482.608 -533.375)">
    <g id="그룹_7474" data-name="그룹 7474" transform="translate(492.999 544.807)">
      <path id="패스_7906" data-name="패스 7906" d="M504.289,576.335a3.329,3.329,0,0,1-2.5,1.194l-.428-1.327a2.436,2.436,0,0,0,1.811-.8.726.726,0,0,0-.017-1.1l-.017-.013c-.326-.263-.62-.237-1.486.327-1.044.683-1.849,1.016-3.007.083l-.016-.012a2.062,2.062,0,0,1-.466-3.022,2.973,2.973,0,0,1,2.112-1.1l.546,1.3a2.446,2.446,0,0,0-1.537.729.664.664,0,0,0,.035,1l.018.015c.384.308.666.212,1.561-.372,1.058-.682,1.905-.862,2.922-.043l.016.013A2.086,2.086,0,0,1,504.289,576.335Z" transform="translate(-497.696 -556.416)" fill="#014099"/>
      <path id="패스_7907" data-name="패스 7907" d="M510.683,568.6l-1.645-.633-1.56,1.937.97,1.472-.828,1.029-4.293-6.7.748-.93,7.458,2.765Zm-5.45-2.1,1.4,2.131.981-1.218Z" transform="translate(-499.443 -554.623)" fill="#014099"/>
      <path id="패스_7908" data-name="패스 7908" d="M513.429,565.192l-5.833-4.7.813-1.01,4.666,3.757,1.84-2.285,1.166.939Z" transform="translate(-500.767 -552.981)" fill="#014099"/>
      <path id="패스_7909" data-name="패스 7909" d="M518.164,558.209l-5.833-4.7,2.784-3.458,1.142.919-1.978,2.457,1.182.952,1.741-2.162,1.142.919L516.6,555.3l1.226.986,2-2.49,1.142.919Z" transform="translate(-502.236 -550.055)" fill="#014099"/>
    </g>
    <path id="패스_7910" data-name="패스 7910" d="M541,534.441a20.479,20.479,0,0,0-14.446,7.1" transform="translate(-14.252 0.98)" fill="none" stroke="#000" stroke-linecap="round" stroke-linejoin="round" stroke-width="2"/>
    <path id="패스_7911" data-name="패스 7911" d="M527.56,546.29a2.987,2.987,0,1,1-.5-4.2A2.987,2.987,0,0,1,527.56,546.29Z" transform="translate(-12.616 -2.196)" fill="none" stroke="#000" stroke-linecap="round" stroke-linejoin="round" stroke-width="2"/>
    <path id="패스_7912" data-name="패스 7912" d="M498.448,574.066,484.3,562.815a1.462,1.462,0,0,1-.239-2.034l18.153-23.267a4.377,4.377,0,0,1,3.153-1.943l12.588-1.2,1.883,13.233s.231,1.094-1.217,2.949l-18.153,23.268A1.43,1.43,0,0,1,498.448,574.066Z" transform="translate(0)" fill="none" stroke="#000" stroke-linecap="round" stroke-linejoin="round" stroke-width="2"/>
  </g>
</svg>
