<svg xmlns="http://www.w3.org/2000/svg" width="22" height="19.009" viewBox="0 0 22 19.009">
  <g id="그룹_7463" data-name="그룹 7463" transform="translate(0.5 -11.5)">
    <g id="그룹_7464" data-name="그룹 7464" transform="translate(0 12)">
      <path id="패스_136" data-name="패스 136" d="M340.416,707.206c0-4.509,4.7-8.164,10.5-8.164s10.5,3.655,10.5,8.164-4.7,8.165-10.5,8.165a13.56,13.56,0,0,1-1.672-.1c-.279.453-1.5,2.091-4.508,1.722a5.057,5.057,0,0,0,1.378-2.522C342.732,713.11,340.416,710.369,340.416,707.206Z" transform="translate(-340.416 -699.042)" fill="none" stroke="#014099" stroke-linecap="round" stroke-linejoin="round" stroke-width="1"/>
      <circle id="타원_4" data-name="타원 4" cx="0.9" cy="0.9" r="0.9" transform="translate(6.498 7.15)" fill="#014099"/>
      <circle id="타원_5" data-name="타원 5" cx="0.9" cy="0.9" r="0.9" transform="translate(9.989 7.15)" fill="#014099"/>
      <circle id="타원_6" data-name="타원 6" cx="0.9" cy="0.9" r="0.9" transform="translate(13.48 7.15)" fill="#014099"/>
    </g>
  </g>
</svg>
