<svg xmlns="http://www.w3.org/2000/svg" width="42.481" height="42.502" viewBox="0 0 42.481 42.502">
  <g id="그룹_7486" data-name="그룹 7486" transform="translate(-481.166 -837.003)">
    <path id="패스_7940" data-name="패스 7940" d="M519.75,852.375s2.636,2.248,3.876,7.519" transform="translate(-14.358 -5.398)" fill="none" stroke="#014099" stroke-linecap="round" stroke-linejoin="round" stroke-width="2"/>
    <path id="패스_7941" data-name="패스 7941" d="M514.589,852.667a7.525,7.525,0,0,0-1.964,4.7" transform="translate(-11.603 -5.509)" fill="none" stroke="#014099" stroke-linecap="round" stroke-linejoin="round" stroke-width="2"/>
    <path id="패스_7935" data-name="패스 7935" d="M505.4,880.021l7.016,2.308a2.48,2.48,0,0,0,3.179-1.483h0a2.48,2.48,0,0,0-1.483-3.179l-11.591-3.942a7.44,7.44,0,0,0-5.336.242l-5.24,2.333" transform="translate(-3.587 -13.363)" fill="none" stroke="#000" stroke-linecap="round" stroke-linejoin="round" stroke-width="2"/>
    <path id="패스_7936" data-name="패스 7936" d="M518.832,884.019l6.375-3a2.481,2.481,0,0,1,3.3,1.2h0a2.481,2.481,0,0,1-1.2,3.3l-11.24,5.243-.468.2a7.442,7.442,0,0,1-6.53-.325l-4.457-2.462a7.444,7.444,0,0,0-6.572-.308" transform="translate(-6.231 -16.19)" fill="none" stroke="#000" stroke-linecap="round" stroke-linejoin="round" stroke-width="2"/>
    <path id="패스_7937" data-name="패스 7937" d="M482.506,877.931l3.9-1.79a1.24,1.24,0,0,1,1.651.591l4.1,9.666a1.241,1.241,0,0,1-.591,1.652l-9.063,4.5" transform="translate(0 -14.381)" fill="none" stroke="#000" stroke-linecap="round" stroke-linejoin="round" stroke-width="2"/>
    <circle id="타원_335" data-name="타원 335" cx="0.62" cy="0.62" r="0.62" transform="translate(484.75 866.589)" fill="none" stroke="#000" stroke-linecap="round" stroke-linejoin="round" stroke-width="2"/>
    <g id="그룹_7485" data-name="그룹 7485" transform="translate(491.654 838.165)">
      <path id="패스_7938" data-name="패스 7938" d="M521.814,871.257a8.494,8.494,0,0,0,1.4-5.252c0-6.369-5.39-11.82-9.716-14.005h-6.789c-4.326,2.185-8.921,7.636-8.921,14.005" transform="translate(-497.792 -843.42)" fill="none" stroke="#000" stroke-linecap="round" stroke-linejoin="round" stroke-width="2"/>
      <path id="패스_7939" data-name="패스 7939" d="M510.121,846.744l-.034-2.471-3.164-4.151a.561.561,0,0,1,.17-.742l.53-.366a4.784,4.784,0,0,1,5.878.339l.431.378a2.4,2.4,0,0,0,2.312.482l1.632-.521a1.139,1.139,0,0,1,1.387,1.579l-2.321,3v2.471" transform="translate(-501.232 -838.165)" fill="none" stroke="#000" stroke-linecap="round" stroke-linejoin="round" stroke-width="2"/>
    </g>
    <line id="선_881" data-name="선 881" x2="6.821" transform="translate(500.692 844.264)" fill="none" stroke="#000" stroke-linecap="round" stroke-linejoin="round" stroke-width="2"/>
  </g>
</svg>
