<svg xmlns="http://www.w3.org/2000/svg" width="20" height="17" viewBox="0 0 20 17">
  <g id="그룹_8043" data-name="그룹 8043" transform="translate(-439.5 -1041.5)">
    <path id="패스_8440" data-name="패스 8440" d="M453.377,1053.552h2.811a3.068,3.068,0,0,0,3.146-2.983,3.033,3.033,0,0,0-2.731-2.944c.007-.088.028-.172.028-.261a3.551,3.551,0,0,0-3.641-3.453,3.75,3.75,0,0,0-1.812.475,4.035,4.035,0,0,0-3.419-1.848,3.91,3.91,0,0,0-3.977,3.539,3.738,3.738,0,0,0,.391,7.463v.012h2.157" transform="translate(-0.333 -0.538)" fill="none" stroke="#222" stroke-linecap="round" stroke-linejoin="round" stroke-width="1"/>
    <g id="그룹_8042" data-name="그룹 8042" transform="translate(446.746 1046.986)">
      <g id="그룹_8041" data-name="그룹 8041">
        <line id="선_1124" data-name="선 1124" y1="10.337" transform="translate(2.641 0.678)" fill="none" stroke="#222" stroke-linecap="round" stroke-linejoin="round" stroke-width="1"/>
        <path id="패스_8441" data-name="패스 8441" d="M468.789,1070.821l2.641-3.009,2.866,3.009" transform="translate(-468.789 -1067.812)" fill="none" stroke="#222" stroke-linecap="round" stroke-linejoin="round" stroke-width="1"/>
      </g>
    </g>
  </g>
</svg>
