<svg xmlns="http://www.w3.org/2000/svg" width="13" height="22" viewBox="0 0 13 22">
  <g id="그룹_7932" data-name="그룹 7932" transform="translate(-1004.252 -528.511)">
    <path id="패스_8402" data-name="패스 8402" d="M1017.62,588.811a1.7,1.7,0,0,0,3.4,0" transform="translate(-8.567 -40.499)" fill="none" stroke="#113462" stroke-linecap="round" stroke-linejoin="round" stroke-width="1"/>
    <path id="패스_8403" data-name="패스 8403" d="M1013.2,552.456a.711.711,0,0,0,.7-.712v-1.425a.684.684,0,0,0-.035-.176,6,6,0,1,0-6.229,0,.691.691,0,0,0-.035.176v1.425a.711.711,0,0,0,.7.712" transform="translate(0 -6.811)" fill="none" stroke="#113462" stroke-linecap="round" stroke-linejoin="round" stroke-width="1"/>
    <path id="패스_8404" data-name="패스 8404" d="M1018.3,579.981v-.422a.654.654,0,0,0-.566-.713h-3.924a.654.654,0,0,0-.566.713v.422a.792.792,0,0,1,0,1.112v.423a.654.654,0,0,0,.566.713h3.924a.654.654,0,0,0,.566-.713v-.423a.792.792,0,0,1,0-1.112Z" transform="translate(-5.019 -33.917)" fill="none" stroke="#113462" stroke-linecap="round" stroke-linejoin="round" stroke-width="1"/>
    <line id="선_1087" data-name="선 1087" x2="4.235" transform="translate(1008.635 546.62)" fill="none" stroke="#113462" stroke-linecap="round" stroke-linejoin="round" stroke-width="1"/>
    <g id="그룹_7931" data-name="그룹 7931" transform="translate(1006.32 529.011)">
      <line id="선_1088" data-name="선 1088" y2="1.681" transform="translate(4.432)" fill="none" stroke="#113462" stroke-linecap="round" stroke-linejoin="round" stroke-width="1"/>
      <line id="선_1089" data-name="선 1089" x1="0.84" y2="1.455" transform="translate(8.025 1.206)" fill="none" stroke="#113462" stroke-linecap="round" stroke-linejoin="round" stroke-width="1"/>
      <line id="선_1090" data-name="선 1090" x2="0.84" y2="1.455" transform="translate(0 1.206)" fill="none" stroke="#113462" stroke-linecap="round" stroke-linejoin="round" stroke-width="1"/>
    </g>
  </g>
</svg>
