<svg xmlns="http://www.w3.org/2000/svg" width="26.211" height="29.187" viewBox="0 0 26.211 29.187">
  <g id="구성_요소_24_1" data-name="구성 요소 24 – 1" transform="translate(1.01 1)">
    <path id="패스_7674" data-name="패스 7674" d="M848.107,894.28H825.631a.857.857,0,0,1-.813-1.128l.557-1.67a3.428,3.428,0,0,1,3.252-2.344h16.484a3.428,3.428,0,0,1,3.252,2.344l.557,1.67A.857.857,0,0,1,848.107,894.28Z" transform="translate(-824.773 -867.093)" fill="none" stroke="#222" stroke-linecap="round" stroke-linejoin="round" stroke-width="2"/>
    <path id="패스_7675" data-name="패스 7675" d="M833,865.993v-8.785a8.571,8.571,0,0,1,8.57-8.57h0a8.571,8.571,0,0,1,8.57,8.57v8.785" transform="translate(-829.474 -843.948)" fill="none" stroke="#222" stroke-linecap="round" stroke-linejoin="round" stroke-width="2"/>
    <path id="패스_7676" data-name="패스 7676" d="M859.238,861.126a5.327,5.327,0,0,0-5.321-5.321" transform="translate(-841.427 -848.044)" fill="none" stroke="#222" stroke-linecap="round" stroke-linejoin="round" stroke-width="2"/>
    <line id="선_829" data-name="선 829" y2="2.198" transform="translate(11.975)" fill="none" stroke="#222" stroke-linecap="round" stroke-linejoin="round" stroke-width="2"/>
    <line id="선_830" data-name="선 830" x2="1.178" y2="1.606" transform="translate(4.736 1.932)" fill="none" stroke="#222" stroke-linecap="round" stroke-linejoin="round" stroke-width="2"/>
    <line id="선_831" data-name="선 831" x1="1.178" y2="1.606" transform="translate(17.746 1.932)" fill="none" stroke="#222" stroke-linecap="round" stroke-linejoin="round" stroke-width="2"/>
  </g>
</svg>
