<svg xmlns="http://www.w3.org/2000/svg" width="32.381" height="28.173" viewBox="0 0 32.381 28.173">
  <g id="구성_요소_23_1" data-name="구성 요소 23 – 1" transform="translate(1 1)">
    <path id="패스_7677" data-name="패스 7677" d="M178.855,855.12c0-4.389-3.556-7.479-7.945-7.479a7.94,7.94,0,0,0-7.246,4.694,7.937,7.937,0,0,0-7.246-4.694c-4.387,0-7.945,3.09-7.945,7.479a11.167,11.167,0,0,0,1.987,5.608c4.114,6.029,12.2,13.086,13.2,13.086,1.155,0,9.042-7.1,12.97-13.086A16.36,16.36,0,0,0,178.855,855.12Z" transform="translate(-148.474 -847.641)" fill="none" stroke="#222" stroke-linecap="round" stroke-linejoin="round" stroke-width="2"/>
  </g>
</svg>
