<svg xmlns="http://www.w3.org/2000/svg" xmlns:xlink="http://www.w3.org/1999/xlink" width="456" height="468" viewBox="0 0 456 468">
  <defs>
    <clipPath id="clip-path">
      <rect id="사각형_3030" data-name="사각형 3030" width="456" height="468" transform="translate(0 70)" fill="#203a91"/>
    </clipPath>
    <clipPath id="clip-path-2">
      <rect id="사각형_5" data-name="사각형 5" width="23.699" height="61.491" fill="#fff"/>
    </clipPath>
    <clipPath id="clip-path-3">
      <path id="패스_3" data-name="패스 3" d="M38.023,26.8A13.384,13.384,0,1,0,51.4,13.189,13.508,13.508,0,0,0,38.023,26.8" transform="translate(-38.023 -13.189)" fill="#fff"/>
    </clipPath>
    <clipPath id="clip-path-4">
      <path id="패스_5" data-name="패스 5" d="M18.44,41.238c-.4,18.77,13.027,25.217,25.633,29.8,12.17,4.41,18.767,7.9,18.767,13.718,0,6.072-5.631,9.543-15.443,9.543a45.075,45.075,0,0,1-23.951-7.233l-1-.713a1.055,1.055,0,0,0-1.565.9v16.448l.748.491a59.531,59.531,0,0,0,30.7,8.557c25.38,0,34.383-17.3,34.383-32.109,0-12.574-6.659-21.614-20.352-27.623-2.67-1.175-5.453-2.2-8.162-3.209l-.184-.069c-8.327-3.071-16.19-5.961-15.893-11.218.182-3.368,3.1-6.967,10.761-6.967a52.257,52.257,0,0,1,26.179,6.758l1.1.735a1.168,1.168,0,0,0,.366.054,1.052,1.052,0,0,0,1.042-.945V22.087l-.694-.494a53.134,53.134,0,0,0-28.512-8.419c-13.4,0-33.5,7.472-33.927,28.064" transform="translate(-18.431 -13.174)" fill="#fff"/>
    </clipPath>
    <clipPath id="clip-path-5">
      <path id="패스_7" data-name="패스 7" d="M191.061,125.728v0ZM125.707,0C68.549.228,14.024,38.418,1.964,70.123a25.033,25.033,0,0,0-.914,2.663l-.01.029,0-.006A28.933,28.933,0,0,0,0,80.054q0,.1,0,.209V80.6c0,.18,0,.359,0,.538H.01c.133,17.793,13.267,24.045,25.633,28.5,12.17,4.375,18.767,7.84,18.767,13.606,0,6.022-5.629,9.466-15.445,9.466A45.351,45.351,0,0,1,5.014,125.53l-.993-.707a1.09,1.09,0,0,0-.505-.13,1.059,1.059,0,0,0-1.062,1.019v16.315l.749.487A59.89,59.89,0,0,0,33.9,151c25.379,0,34.385-17.156,34.385-31.848,0-12.473-6.659-21.439-20.349-27.4-2.672-1.166-5.458-2.187-8.163-3.183l-.187-.068C31.257,85.456,23.4,82.589,23.69,77.374c.182-3.341,3.1-6.911,10.765-6.911a52.5,52.5,0,0,1,26.171,6.7l1.108.729a1.156,1.156,0,0,0,.361.053,1.05,1.05,0,0,0,1.047-.938V61.08l-.69-.49a53.443,53.443,0,0,0-28.515-8.351c-.62,0-1.264.022-1.91.054l.051-.044c71.845-37.523,144.184-27.06,196.118.3l0,0a48.689,48.689,0,0,0-5.655-.315c-13.405,0-33.5,7.412-33.933,27.837-.386,18.618,13.032,25.012,25.64,29.555,12.172,4.375,18.767,7.84,18.767,13.606,0,6.022-5.628,9.466-15.443,9.466a45.335,45.335,0,0,1-23.952-7.174l-1.006-.715a1.075,1.075,0,0,0-.488-.123,1.06,1.06,0,0,0-1.068,1.036v16.3l.751.487A59.872,59.872,0,0,0,222.507,151c25.376,0,34.383-17.156,34.383-31.848,0-12.473-6.659-21.439-20.352-27.4-2.672-1.166-5.455-2.187-8.163-3.183l-.185-.068C219.873,85.456,212,82.589,212.3,77.374c.18-3.341,3.1-6.911,10.761-6.911a52.548,52.548,0,0,1,26.178,6.7l1.084.718a1.11,1.11,0,0,0,.385.065,1.05,1.05,0,0,0,1.045-.926v-11.9c0-.266-1.55-7.123-12.689-18.738C207.966,13.957,165.491.14,126.821,0Z" transform="translate(0)" fill="#fff"/>
    </clipPath>
  </defs>
  <g id="마스크_그룹_3" data-name="마스크 그룹 3" transform="translate(0 -70)" clip-path="url(#clip-path)">
    <g id="logo" transform="translate(225.645 396.5)" opacity="0.18">
      <g id="그룹_4" data-name="그룹 4" transform="translate(153.731 87.546)">
        <rect id="사각형_3" data-name="사각형 3" width="23.699" height="61.491" fill="#fff"/>
        <g id="그룹_3" data-name="그룹 3" clip-path="url(#clip-path-2)">
          <rect id="사각형_4" data-name="사각형 4" width="23.699" height="61.491" fill="#fff"/>
        </g>
      </g>
      <g id="그룹_6" data-name="그룹 6" transform="translate(152.204 52.204)">
        <path id="패스_2" data-name="패스 2" d="M38.023,26.8A13.384,13.384,0,1,0,51.4,13.189,13.508,13.508,0,0,0,38.023,26.8" transform="translate(-38.023 -13.189)" fill="#fff"/>
        <g id="그룹_5" data-name="그룹 5" clip-path="url(#clip-path-3)">
          <rect id="사각형_6" data-name="사각형 6" width="26.763" height="27.217" transform="translate(0 0)" fill="#fff"/>
        </g>
      </g>
      <g id="그룹_8" data-name="그룹 8" transform="translate(73.883 51.432)">
        <path id="패스_4" data-name="패스 4" d="M18.44,41.238c-.4,18.77,13.027,25.217,25.633,29.8,12.17,4.41,18.767,7.9,18.767,13.718,0,6.072-5.631,9.543-15.443,9.543a45.075,45.075,0,0,1-23.951-7.233l-1-.713a1.055,1.055,0,0,0-1.565.9v16.448l.748.491a59.531,59.531,0,0,0,30.7,8.557c25.38,0,34.383-17.3,34.383-32.109,0-12.574-6.659-21.614-20.352-27.623-2.67-1.175-5.453-2.2-8.162-3.209l-.184-.069c-8.327-3.071-16.19-5.961-15.893-11.218.182-3.368,3.1-6.967,10.761-6.967a52.257,52.257,0,0,1,26.179,6.758l1.1.735a1.168,1.168,0,0,0,.366.054,1.052,1.052,0,0,0,1.042-.945V22.087l-.694-.494a53.134,53.134,0,0,0-28.512-8.419c-13.4,0-33.5,7.472-33.927,28.064" transform="translate(-18.431 -13.174)" fill="#fff"/>
        <g id="그룹_7" data-name="그룹 7" clip-path="url(#clip-path-4)">
          <rect id="사각형_7" data-name="사각형 7" width="68.668" height="99.568" transform="translate(-0.387 0)" fill="#fff"/>
        </g>
      </g>
      <g id="그룹_10" data-name="그룹 10" transform="translate(-0.645)">
        <path id="패스_6" data-name="패스 6" d="M191.061,125.728v0ZM125.707,0C68.549.228,14.024,38.418,1.964,70.123a25.033,25.033,0,0,0-.914,2.663l-.01.029,0-.006A28.933,28.933,0,0,0,0,80.054q0,.1,0,.209V80.6c0,.18,0,.359,0,.538H.01c.133,17.793,13.267,24.045,25.633,28.5,12.17,4.375,18.767,7.84,18.767,13.606,0,6.022-5.629,9.466-15.445,9.466A45.351,45.351,0,0,1,5.014,125.53l-.993-.707a1.09,1.09,0,0,0-.505-.13,1.059,1.059,0,0,0-1.062,1.019v16.315l.749.487A59.89,59.89,0,0,0,33.9,151c25.379,0,34.385-17.156,34.385-31.848,0-12.473-6.659-21.439-20.349-27.4-2.672-1.166-5.458-2.187-8.163-3.183l-.187-.068C31.257,85.456,23.4,82.589,23.69,77.374c.182-3.341,3.1-6.911,10.765-6.911a52.5,52.5,0,0,1,26.171,6.7l1.108.729a1.156,1.156,0,0,0,.361.053,1.05,1.05,0,0,0,1.047-.938V61.08l-.69-.49a53.443,53.443,0,0,0-28.515-8.351c-.62,0-1.264.022-1.91.054l.051-.044c71.845-37.523,144.184-27.06,196.118.3l0,0a48.689,48.689,0,0,0-5.655-.315c-13.405,0-33.5,7.412-33.933,27.837-.386,18.618,13.032,25.012,25.64,29.555,12.172,4.375,18.767,7.84,18.767,13.606,0,6.022-5.628,9.466-15.443,9.466a45.335,45.335,0,0,1-23.952-7.174l-1.006-.715a1.075,1.075,0,0,0-.488-.123,1.06,1.06,0,0,0-1.068,1.036v16.3l.751.487A59.872,59.872,0,0,0,222.507,151c25.376,0,34.383-17.156,34.383-31.848,0-12.473-6.659-21.439-20.352-27.4-2.672-1.166-5.455-2.187-8.163-3.183l-.185-.068C219.873,85.456,212,82.589,212.3,77.374c.18-3.341,3.1-6.911,10.761-6.911a52.548,52.548,0,0,1,26.178,6.7l1.084.718a1.11,1.11,0,0,0,.385.065,1.05,1.05,0,0,0,1.045-.926v-11.9c0-.266-1.55-7.123-12.689-18.738C207.966,13.957,165.491.14,126.821,0Z" transform="translate(0)" fill="#fff"/>
        <g id="그룹_9" data-name="그룹 9" transform="translate(0)" clip-path="url(#clip-path-5)">
          <rect id="사각형_8" data-name="사각형 8" width="256.89" height="151" transform="translate(0 0)" fill="#fff"/>
        </g>
      </g>
    </g>
  </g>
</svg>
