<svg xmlns="http://www.w3.org/2000/svg" width="220" height="46" viewBox="0 0 220 46">
  <g id="그룹_181" data-name="그룹 181" transform="translate(-868 -2568)">
    <rect id="사각형_40" data-name="사각형 40" width="220" height="46" transform="translate(868 2568)" fill="none"/>
    <g id="Vector_Smart_Object" data-name="Vector Smart Object" transform="translate(859.767 2544.74)">
      <g id="그룹_59" data-name="그룹 59">
        <g id="그룹_56" data-name="그룹 56">
          <g id="그룹_55" data-name="그룹 55">
            <g id="그룹_54" data-name="그룹 54">
              <g id="그룹_53" data-name="그룹 53">
                <g id="그룹_52" data-name="그룹 52">
                  <g id="그룹_50" data-name="그룹 50">
                    <path id="패스_182" data-name="패스 182" d="M67.16,45.918a6.805,6.805,0,0,0-9.609,1.992,6.795,6.795,0,0,1-12.224-1.836h0c-.007-.025-.012-.045-.019-.069s-.016-.056-.022-.085a8.468,8.468,0,0,1-.346-2.653c0-5.984,6.216-12.646,15.171-12.646A17.059,17.059,0,0,1,75.878,41.345c-.023-.068-.045-.134-.068-.2a19.345,19.345,0,0,0-37.577,6.186c0,9.412,6.875,17.47,16.411,17.47A15.5,15.5,0,0,0,69.705,54.782,7.294,7.294,0,0,0,67.16,45.918Z" fill="#1a2559"/>
                  </g>
                  <g id="그룹_51" data-name="그룹 51">
                    <path id="패스_183" data-name="패스 183" d="M76,41.717a16.994,16.994,0,0,0-15.888-11.1c-8.955,0-15.171,6.662-15.171,12.646a8.468,8.468,0,0,0,.346,2.653,5.543,5.543,0,0,1-.178-1.36c0-6.231,6.319-10.55,12.814-10.55a15.822,15.822,0,0,1,15.921,15.72,17.311,17.311,0,0,1-9.73,15.527l0,0A19.088,19.088,0,0,0,76.847,47.327,18.618,18.618,0,0,0,76,41.717Z" fill="#ff2926"/>
                  </g>
                </g>
              </g>
            </g>
          </g>
        </g>
        <g id="그룹_57" data-name="그룹 57">
          <path id="패스_184" data-name="패스 184" d="M94.575,34.488V32.926h1.263v5.8H92.509v2.051h4.084V41.9H87.151V40.782h4.072V38.731H87.906v-5.8H89.17v1.562Zm0,3.135v-2.04H89.17v2.04Z" fill="#565757"/>
          <path id="패스_185" data-name="패스 185" d="M103.073,38.078H101.8V33.917H98.092V32.786h4.981Zm-4.485,4.371V38.731h1.274v2.6h7.153v1.119Zm7.058-9.953h1.275V39h-1.275V35.992h-1.688V34.884h1.688Z" fill="#565757"/>
          <path id="패스_186" data-name="패스 186" d="M116.1,33.509v-.967h1.263v4.126h-3.329v.863h4.084v1.107h-9.442V37.53h4.072v-.863h-3.317V32.542H110.7v.967Zm-6.786,5.944h8.05V42.67h-1.275V40.549h-6.775Zm6.786-3.881v-.979H110.7v.979Z" fill="#565757"/>
          <path id="패스_187" data-name="패스 187" d="M119.313,34.232V33.125H125.5v1.107h-2.585l2.832,6.643-1.121.478-2.16-5.186-2.148,5.268-1.169-.49,2.845-6.713Zm7.86-1.737h1.275V42.647h-1.275Z" fill="#565757"/>
          <path id="패스_188" data-name="패스 188" d="M130.207,38.917h9.442v1.119h-4.084v2.611h-1.287V40.036h-4.072Zm2.018-4.965h5.406V32.67h1.263v4.884h-7.932V32.67h1.263Zm5.406,1.1h-5.406v1.4h5.406Z" fill="#565757"/>
        </g>
        <g id="그룹_58" data-name="그룹 58">
          <path id="패스_189" data-name="패스 189" d="M96.927,49.76V47.7h1.663v7.643H94.207v2.7h5.378v1.473H87.151V58.048h5.362v-2.7H88.146V47.7h1.663V49.76Zm0,4.128V51.2H89.809v2.686Z" fill="#565757"/>
          <path id="패스_190" data-name="패스 190" d="M108.118,54.488h-1.679v-5.48h-4.88V47.519h6.559Zm-5.906,5.756v-4.9h1.679V58.77h9.419v1.474Zm9.294-13.108h1.679V55.7h-1.679V51.74h-2.223V50.282h2.223Z" fill="#565757"/>
          <path id="패스_191" data-name="패스 191" d="M125.277,48.471V47.2h1.664V52.63h-4.384v1.136h5.378v1.458H115.5V53.766h5.362V52.63H116.5V47.2h1.663v1.274ZM116.34,56.3h10.6v4.236h-1.679V57.741H116.34Zm8.937-5.111V49.9h-7.119v1.289Z" fill="#565757"/>
          <path id="패스_192" data-name="패스 192" d="M129.5,49.423V47.964h8.144v1.458h-3.4l3.73,8.748L136.5,58.8l-2.844-6.83-2.829,6.938-1.539-.645,3.746-8.841Zm10.351-2.287h1.679V60.5h-1.679Z" fill="#565757"/>
          <path id="패스_193" data-name="패스 193" d="M147.534,47.059l4.165,5.909-1.336.905-2.829-4.052-2.8,4.159-1.368-.906Zm6.606,10.606a2.921,2.921,0,0,1-.28,1.266,3.481,3.481,0,0,1-.746,1.036,3.674,3.674,0,0,1-1.127.706,3.6,3.6,0,0,1-1.36.261,3.731,3.731,0,0,1-2.5-.967,3.485,3.485,0,0,1-.746-1.036,2.913,2.913,0,0,1-.28-1.266,2.968,2.968,0,0,1,.28-1.274,3.449,3.449,0,0,1,.746-1.043,3.729,3.729,0,0,1,2.5-.967,3.6,3.6,0,0,1,1.36.261,3.674,3.674,0,0,1,1.127.706,3.445,3.445,0,0,1,.746,1.043A2.976,2.976,0,0,1,154.139,57.665Zm-1.648-.015a1.749,1.749,0,0,0-.559-1.3,1.832,1.832,0,0,0-1.321-.545,1.806,1.806,0,0,0-1.313.545,1.762,1.762,0,0,0-.552,1.3,1.736,1.736,0,0,0,.552,1.289,1.818,1.818,0,0,0,1.313.537,1.845,1.845,0,0,0,1.321-.537A1.723,1.723,0,0,0,152.492,57.649Zm2.331-3.423h-1.678V47.136h1.678V49.73h1.943v1.642h-1.943Z" fill="#565757"/>
          <path id="패스_194" data-name="패스 194" d="M165.3,52.354V53.8h-7.15V47.519h7.026v1.458h-5.347v3.377ZM158.553,54.9H169v5.341H158.553Zm8.782,1.412h-7.118v2.5h7.118Zm1.663-2.1h-1.678V47.136H169V49.76h1.943V51.4H169Z" fill="#565757"/>
          <path id="패스_195" data-name="패스 195" d="M178.96,54.042l-1.383.675-2.114-4.39-2.1,4.5-1.4-.675,3.5-7.091Zm-5.953,6.2V55.777h1.679V58.77h9.652v1.474Zm7.01-13.092H181.6v8.472h-1.585V51.495h-1.741V50.036h1.741Zm2.58-.015h1.617V55.7H182.6Z" fill="#565757"/>
          <path id="패스_196" data-name="패스 196" d="M194.083,58.662h-7.212v-10.7h7.057v1.458h-5.393v3.131h4.9V54h-4.9V57.2h5.549Zm2.471-11.527h1.679V60.5h-1.679V54.027h-2.238V52.553h2.238Z" fill="#565757"/>
        </g>
      </g>
    </g>
  </g>
</svg>
