<svg xmlns="http://www.w3.org/2000/svg" width="220" height="46" viewBox="0 0 220 46">
  <g id="그룹_183" data-name="그룹 183" transform="translate(-1442 -2568)">
    <rect id="사각형_42" data-name="사각형 42" width="220" height="46" transform="translate(1442 2568)" fill="none"/>
    <g id="Vector_Smart_Object" data-name="Vector Smart Object" transform="translate(1474.688 2570.164)">
      <g id="그룹_70" data-name="그룹 70">
        <g id="그룹_62" data-name="그룹 62">
          <path id="패스_205" data-name="패스 205" d="M77.3,26.754v1.674H63.406V26.754h6V23.679H64.525V14.967h1.847V17.2h7.945V14.967H76.18v8.712h-4.9v3.075Zm-2.982-4.715V18.844H66.372v3.194Z" fill="#464545"/>
          <path id="패스_206" data-name="패스 206" d="M86.214,22.739H84.333V16.453h-5.54V14.761h7.421Zm-6.421,6.508V23.679h1.881v3.895h10.5v1.674Zm10.2-14.93h1.881v9.754H89.991V19.613H87.518V17.956h2.473Z" fill="#464545"/>
          <path id="패스_207" data-name="패스 207" d="M108.219,21.8v1.624H94.326V21.8h6V20.467h-4.88V14.505h1.847v1.418h7.946V14.505H107.1v5.962h-4.9V21.8ZM107.1,24.67v4.919H105.22V26.276H95.089V24.67ZM105.237,17.5H97.291v1.383h7.946Z" fill="#464545"/>
          <path id="패스_208" data-name="패스 208" d="M110.094,16.931V15.257h9.014v1.674h-3.795l4.2,9.959-1.66.717-3.219-7.79-3.2,7.909-1.695-.717,4.219-10.079Zm11.216-2.614h1.881V29.556H121.31Z" fill="#464545"/>
          <path id="패스_209" data-name="패스 209" d="M125.419,23.942h13.893v1.674H133.3v3.929h-1.881V25.616h-6Zm2.965-7.448h7.946V14.563h1.863v7.329H126.537V14.563h1.847Zm7.946,1.64h-7.946v2.1h7.946Z" fill="#464545"/>
        </g>
        <g id="그룹_69" data-name="그룹 69">
          <g id="그룹_68" data-name="그룹 68">
            <g id="그룹_67" data-name="그룹 67">
              <g id="그룹_66" data-name="그룹 66">
                <g id="그룹_65" data-name="그룹 65">
                  <g id="그룹_63" data-name="그룹 63">
                    <path id="패스_210" data-name="패스 210" d="M44.643,20.493a6.583,6.583,0,0,0-9.411,1.991A6.6,6.6,0,0,1,23.26,20.649h0c-.006-.025-.011-.046-.018-.069s-.016-.056-.022-.086a8.631,8.631,0,0,1-.339-2.652C22.88,11.857,28.967,5.2,37.738,5.2A16.74,16.74,0,0,1,53.18,15.92c-.023-.068-.044-.134-.067-.2a18.892,18.892,0,0,0-36.8,6.186c0,9.412,6.733,17.47,16.073,17.47A15.193,15.193,0,0,0,47.135,29.357,7.384,7.384,0,0,0,44.643,20.493Z" fill="#002b51"/>
                  </g>
                  <g id="그룹_64" data-name="그룹 64">
                    <path id="패스_211" data-name="패스 211" d="M53.3,16.292A16.691,16.691,0,0,0,37.738,5.2c-8.771,0-14.858,6.662-14.858,12.646a8.631,8.631,0,0,0,.339,2.652,5.632,5.632,0,0,1-.175-1.36c0-6.231,6.189-10.55,12.55-10.55A15.657,15.657,0,0,1,51.186,24.3a17.344,17.344,0,0,1-9.529,15.528l0,0A19.166,19.166,0,0,0,53.3,16.292Z" fill="#da0021"/>
                  </g>
                </g>
              </g>
            </g>
          </g>
        </g>
      </g>
    </g>
  </g>
</svg>
