<svg xmlns="http://www.w3.org/2000/svg" width="26" height="26" viewBox="0 0 26 26">
  <g id="그룹_4602" data-name="그룹 4602" transform="translate(-66.856 -340.856)">
    <rect id="사각형_85" data-name="사각형 85" width="26" height="26" transform="translate(66.856 340.856)" fill="none"/>
    <g id="그룹_5717" data-name="그룹 5717" transform="translate(-62.747 113.603)">
      <path id="패스_10096" data-name="패스 10096" d="M153.143,235.6A2.721,2.721,0,0,0,151.2,233.7c-1.716-.448-8.6-.448-8.6-.448s-6.88,0-8.6.448a2.72,2.72,0,0,0-1.945,1.894,29.171,29.171,0,0,0,0,10.315,2.721,2.721,0,0,0,1.945,1.895c1.716.448,8.6.448,8.6.448s6.879,0,8.6-.448a2.721,2.721,0,0,0,1.945-1.895,29.156,29.156,0,0,0,0-10.315" transform="translate(0 0)" fill="#e60019"/>
      <path id="패스_10097" data-name="패스 10097" d="M205.186,276.174l5.307-3.064-5.307-3.064Z" transform="translate(-64.563 -32.356)" fill="#fff"/>
    </g>
  </g>
</svg>
