<svg id="logo" xmlns="http://www.w3.org/2000/svg" xmlns:xlink="http://www.w3.org/1999/xlink" width="236" height="38" viewBox="0 0 236 38">
  <defs>
    <clipPath id="clip-path">
      <rect id="사각형_5" data-name="사각형 5" width="5.928" height="15.381" fill="#fff"/>
    </clipPath>
    <clipPath id="clip-path-2">
      <path id="패스_3" data-name="패스 3" d="M38.023,16.593a3.348,3.348,0,1,0,3.346-3.4,3.379,3.379,0,0,0-3.346,3.4" transform="translate(-38.023 -13.189)" fill="#fff"/>
    </clipPath>
    <clipPath id="clip-path-3">
      <path id="패스_5" data-name="패스 5" d="M18.433,20.194c-.1,4.7,3.259,6.308,6.412,7.453,3.044,1.1,4.695,1.977,4.695,3.431,0,1.519-1.408,2.387-3.863,2.387a11.275,11.275,0,0,1-5.991-1.809l-.249-.178a.264.264,0,0,0-.391.224v4.114l.187.123a14.891,14.891,0,0,0,7.679,2.14c6.349,0,8.6-4.327,8.6-8.032,0-3.145-1.666-5.406-5.091-6.91-.668-.294-1.364-.551-2.042-.8l-.046-.017c-2.083-.768-4.05-1.491-3.976-2.806.045-.843.776-1.743,2.692-1.743A13.072,13.072,0,0,1,33.6,19.46l.276.184a.292.292,0,0,0,.091.013.263.263,0,0,0,.261-.236V15.4l-.174-.124a13.291,13.291,0,0,0-7.132-2.106c-3.353,0-8.379,1.869-8.487,7.02" transform="translate(-18.431 -13.174)" fill="#fff"/>
    </clipPath>
    <clipPath id="clip-path-4">
      <path id="패스_7" data-name="패스 7" d="M47.792,31.64v0ZM31.445,0C17.147.057,3.508,9.668.491,17.647a6.326,6.326,0,0,0-.229.67l0,.007v0A7.322,7.322,0,0,0,0,20.146q0,.026,0,.053v.084c0,.045,0,.09,0,.135H0c.033,4.478,3.319,6.051,6.412,7.172,3.044,1.1,4.695,1.973,4.695,3.424,0,1.516-1.408,2.382-3.863,2.382A11.3,11.3,0,0,1,1.254,31.59l-.248-.178a.271.271,0,0,0-.126-.033.266.266,0,0,0-.266.256v4.106l.187.123A14.918,14.918,0,0,0,8.48,38c6.348,0,8.6-4.317,8.6-8.015,0-3.139-1.666-5.4-5.09-6.9-.668-.293-1.365-.55-2.042-.8L9.9,22.272c-2.083-.767-4.049-1.488-3.976-2.8.045-.841.776-1.739,2.693-1.739a13.074,13.074,0,0,1,6.547,1.687l.277.183a.287.287,0,0,0,.09.013.263.263,0,0,0,.262-.236V15.371l-.173-.123a13.315,13.315,0,0,0-7.133-2.1c-.155,0-.316.005-.478.014l.013-.011a51.921,51.921,0,0,1,49.057.076h0a12.107,12.107,0,0,0-1.415-.079c-3.353,0-8.38,1.865-8.488,7.005-.1,4.685,3.26,6.294,6.414,7.438,3.045,1.1,4.695,1.973,4.695,3.424,0,1.516-1.408,2.382-3.863,2.382a11.3,11.3,0,0,1-5.991-1.805l-.252-.18a.265.265,0,0,0-.389.23v4.1l.188.123A14.913,14.913,0,0,0,55.658,38c6.348,0,8.6-4.317,8.6-8.015,0-3.139-1.666-5.4-5.091-6.9-.668-.293-1.365-.55-2.042-.8l-.046-.017c-2.08-.767-4.049-1.488-3.975-2.8.045-.841.776-1.739,2.692-1.739a13.087,13.087,0,0,1,6.548,1.687l.271.181a.276.276,0,0,0,.1.016.263.263,0,0,0,.261-.233V16.389c0-.067-.388-1.793-3.174-4.716A38.949,38.949,0,0,0,31.723,0Z" fill="#fff"/>
    </clipPath>
    <clipPath id="clip-path-5">
      <rect id="사각형_9" data-name="사각형 9" width="236" height="38" fill="none"/>
    </clipPath>
  </defs>
  <g id="그룹_4" data-name="그룹 4" transform="translate(38.405 22.127)">
    <rect id="사각형_3" data-name="사각형 3" width="5.928" height="15.381" fill="#fff"/>
    <g id="그룹_3" data-name="그룹 3" clip-path="url(#clip-path)">
      <rect id="사각형_4" data-name="사각형 4" width="5.928" height="15.381" fill="#fff"/>
    </g>
  </g>
  <g id="그룹_6" data-name="그룹 6" transform="translate(38.023 13.155)">
    <path id="패스_2" data-name="패스 2" d="M38.023,16.593a3.348,3.348,0,1,0,3.346-3.4,3.379,3.379,0,0,0-3.346,3.4" transform="translate(-38.023 -13.189)" fill="#fff"/>
    <g id="그룹_5" data-name="그룹 5" clip-path="url(#clip-path-2)">
      <rect id="사각형_6" data-name="사각형 6" width="6.695" height="6.808" transform="translate(0 0)" fill="#fff"/>
    </g>
  </g>
  <g id="그룹_8" data-name="그룹 8" transform="translate(18.431 13.094)">
    <path id="패스_4" data-name="패스 4" d="M18.433,20.194c-.1,4.7,3.259,6.308,6.412,7.453,3.044,1.1,4.695,1.977,4.695,3.431,0,1.519-1.408,2.387-3.863,2.387a11.275,11.275,0,0,1-5.991-1.809l-.249-.178a.264.264,0,0,0-.391.224v4.114l.187.123a14.891,14.891,0,0,0,7.679,2.14c6.349,0,8.6-4.327,8.6-8.032,0-3.145-1.666-5.406-5.091-6.91-.668-.294-1.364-.551-2.042-.8l-.046-.017c-2.083-.768-4.05-1.491-3.976-2.806.045-.843.776-1.743,2.692-1.743A13.072,13.072,0,0,1,33.6,19.46l.276.184a.292.292,0,0,0,.091.013.263.263,0,0,0,.261-.236V15.4l-.174-.124a13.291,13.291,0,0,0-7.132-2.106c-3.353,0-8.379,1.869-8.487,7.02" transform="translate(-18.431 -13.174)" fill="#fff"/>
    <g id="그룹_7" data-name="그룹 7" clip-path="url(#clip-path-3)">
      <rect id="사각형_7" data-name="사각형 7" width="17.177" height="24.906" transform="translate(-0.097 0)" fill="#fff"/>
    </g>
  </g>
  <g id="그룹_10" data-name="그룹 10">
    <path id="패스_6" data-name="패스 6" d="M47.792,31.64v0ZM31.445,0C17.147.057,3.508,9.668.491,17.647a6.326,6.326,0,0,0-.229.67l0,.007v0A7.322,7.322,0,0,0,0,20.146q0,.026,0,.053v.084c0,.045,0,.09,0,.135H0c.033,4.478,3.319,6.051,6.412,7.172,3.044,1.1,4.695,1.973,4.695,3.424,0,1.516-1.408,2.382-3.863,2.382A11.3,11.3,0,0,1,1.254,31.59l-.248-.178a.271.271,0,0,0-.126-.033.266.266,0,0,0-.266.256v4.106l.187.123A14.918,14.918,0,0,0,8.48,38c6.348,0,8.6-4.317,8.6-8.015,0-3.139-1.666-5.4-5.09-6.9-.668-.293-1.365-.55-2.042-.8L9.9,22.272c-2.083-.767-4.049-1.488-3.976-2.8.045-.841.776-1.739,2.693-1.739a13.074,13.074,0,0,1,6.547,1.687l.277.183a.287.287,0,0,0,.09.013.263.263,0,0,0,.262-.236V15.371l-.173-.123a13.315,13.315,0,0,0-7.133-2.1c-.155,0-.316.005-.478.014l.013-.011a51.921,51.921,0,0,1,49.057.076h0a12.107,12.107,0,0,0-1.415-.079c-3.353,0-8.38,1.865-8.488,7.005-.1,4.685,3.26,6.294,6.414,7.438,3.045,1.1,4.695,1.973,4.695,3.424,0,1.516-1.408,2.382-3.863,2.382a11.3,11.3,0,0,1-5.991-1.805l-.252-.18a.265.265,0,0,0-.389.23v4.1l.188.123A14.913,14.913,0,0,0,55.658,38c6.348,0,8.6-4.317,8.6-8.015,0-3.139-1.666-5.4-5.091-6.9-.668-.293-1.365-.55-2.042-.8l-.046-.017c-2.08-.767-4.049-1.488-3.975-2.8.045-.841.776-1.739,2.692-1.739a13.087,13.087,0,0,1,6.548,1.687l.271.181a.276.276,0,0,0,.1.016.263.263,0,0,0,.261-.233V16.389c0-.067-.388-1.793-3.174-4.716A38.949,38.949,0,0,0,31.723,0Z" fill="#fff"/>
    <g id="그룹_9" data-name="그룹 9" clip-path="url(#clip-path-4)">
      <rect id="사각형_8" data-name="사각형 8" width="64.259" height="38" transform="translate(0 0)" fill="#fff"/>
    </g>
  </g>
  <g id="그룹_12" data-name="그룹 12" transform="translate(0 0)">
    <g id="그룹_11" data-name="그룹 11" clip-path="url(#clip-path-5)">
      <path id="패스_8" data-name="패스 8" d="M223.81,35.8V30.822h2.807v3.088h9.535V35.8Z" transform="translate(-0.152 -0.065)" fill="#fff"/>
      <path id="패스_9" data-name="패스 9" d="M233.074,31.741V29.489H229.33V27.753h3.744V26.107l-.145.089c-.3.187-.75.536-3.279.536h-3.036v2.875h-2.807V26.731h-4.878V24.845h11.236A5.233,5.233,0,0,0,233,24.2l.077-.043V17.107H235.7V29.923a1.874,1.874,0,0,1-1.774,1.818Z" transform="translate(-0.148 -0.036)" fill="#fff"/>
      <path id="패스_10" data-name="패스 10" d="M139.706,35.771V29.806l-.079.036a5.7,5.7,0,0,1-1.556.332c-.557.053-1.312.079-2.246.079h-9.891V28.365h5.29V26.356l-.04-.011a4.038,4.038,0,0,1-3.1-3.8,3.693,3.693,0,0,1,.932-2.435l.074-.085H126.81V18.238h4.4v-1.82h2.606v1.82h4.363v1.791h-2.25l.074.085a3.7,3.7,0,0,1,.932,2.435,4.037,4.037,0,0,1-3.072,3.788l-.039.011v2.017h2.833a9.037,9.037,0,0,0,1.733-.139,5.712,5.712,0,0,0,1.288-.352l.027-.015V17.106h2.583V33.956a1.873,1.873,0,0,1-1.921,1.816Zm-7.2-15.322a1.984,1.984,0,0,0-1.835,2.1,1.856,1.856,0,1,0,3.68,0,1.989,1.989,0,0,0-1.845-2.1" transform="translate(-0.085 -0.034)" fill="#fff"/>
      <path id="패스_11" data-name="패스 11" d="M119.737,35.773V17.108h2.606v6.234h2.705v1.89h-2.705v8.725a1.873,1.873,0,0,1-1.92,1.816Z" transform="translate(-0.081 -0.036)" fill="#fff"/>
      <path id="패스_12" data-name="패스 12" d="M117.038,29.268a10.638,10.638,0,0,1-4.766-3.659l-.047-.068-.047.068a10.232,10.232,0,0,1-4.769,3.661l-.043.015-1.373-1.592.081-.032c.2-.079,4.787-1.954,4.787-6.491V17.206h2.73V21.17c0,4.293,4.734,6.471,4.783,6.493l.074.032-1.364,1.593Z" transform="translate(-0.072 -0.036)" fill="#fff"/>
      <path id="패스_13" data-name="패스 13" d="M101.7,28.074H98.231V25.687h7.345V23.759H102.8a13.13,13.13,0,0,0,.25-2.607V17.108H91.539v1.965h9.052l-.02,2.483a17.767,17.767,0,0,1-.115,2.2H89.084v1.928h6.6v2.387H91.174v1.983h9.3v5.714h.843a1.747,1.747,0,0,0,1.784-1.708V29.415a1.371,1.371,0,0,0-1.4-1.34" transform="translate(-0.06 -0.036)" fill="#fff"/>
      <path id="패스_14" data-name="패스 14" d="M76.328,29.313H73.521V35.8H85.863V33.67H76.328Z" transform="translate(-0.05 -0.062)" fill="#fff"/>
      <path id="패스_15" data-name="패스 15" d="M85.646,22.3V17.108H83.064V31.741h.661a1.873,1.873,0,0,0,1.922-1.816V24.192h2.707V22.3Z" transform="translate(-0.056 -0.036)" fill="#fff"/>
      <path id="패스_16" data-name="패스 16" d="M80.438,23.113a4.029,4.029,0,0,0-1.491-3.085h2.582V18.238H77.166v-1.82H74.561v1.82h-4.4v1.791h2.583a4.028,4.028,0,0,0-1.492,3.085,4.613,4.613,0,0,0,9.188,0m-6.7,0a2.108,2.108,0,1,1,2.1,2.261,2.189,2.189,0,0,1-2.1-2.261" transform="translate(-0.048 -0.034)" fill="#fff"/>
      <path id="패스_17" data-name="패스 17" d="M144.718,31.593V29.7h7.743V26.881h-5.538V17.108h2.606v3.072h8.193V17.108h2.606v7.959a1.874,1.874,0,0,1-1.922,1.814H155.07V29.7H162.8v1.888Zm4.811-6.6h8.193V22.07h-8.193Z" transform="translate(-0.098 -0.036)" fill="#fff"/>
      <path id="패스_18" data-name="패스 18" d="M173.252,26.825a9.871,9.871,0,0,1-4.35-3.651l-.047-.073-.049.073a9.352,9.352,0,0,1-4.349,3.652l-.043.012-1.326-1.43.09-.03a6.463,6.463,0,0,0,4.179-6.006l0-.393h-3.354V17.108h9.745v1.871h-3.41l0,.393a6.755,6.755,0,0,0,4.081,6l.077.032-1.2,1.437Z" transform="translate(-0.11 -0.036)" fill="#fff"/>
      <path id="패스_19" data-name="패스 19" d="M176.419,27.482V17.108h2.6v3.521h2.708v1.89h-2.708v3.147a1.871,1.871,0,0,1-1.921,1.815Z" transform="translate(-0.12 -0.036)" fill="#fff"/>
      <path id="패스_20" data-name="패스 20" d="M173.91,35.794c-2.749,0-4.985-1.882-4.985-4.2s2.237-4.2,4.985-4.2,4.983,1.882,4.983,4.2-2.235,4.2-4.983,4.2m0-6.457A2.261,2.261,0,1,0,176.19,31.6a2.273,2.273,0,0,0-2.281-2.262" transform="translate(-0.114 -0.058)" fill="#fff"/>
      <path id="패스_21" data-name="패스 21" d="M196.259,27.482V22.456H193.02V20.548h3.238v-3.44h2.627v8.626l-.008.029a1.874,1.874,0,0,1-1.919,1.72Z" transform="translate(-0.131 -0.036)" fill="#fff"/>
      <path id="패스_22" data-name="패스 22" d="M200.895,31.8v-1.89h7.74V26.881H203.1V17.108h2.606v3.072H213.9V17.108H216.5v7.959a1.872,1.872,0,0,1-1.921,1.814h-3.334v3.031h7.727V31.8Zm4.812-6.81h8.189V22.07h-8.189Z" transform="translate(-0.136 -0.036)" fill="#fff"/>
      <path id="패스_23" data-name="패스 23" d="M193.538,35.794c-2.751,0-4.988-1.882-4.988-4.2s2.237-4.2,4.988-4.2,4.981,1.882,4.981,4.2-2.23,4.2-4.981,4.2m0-6.457a2.261,2.261,0,1,0,2.278,2.262,2.276,2.276,0,0,0-2.278-2.262" transform="translate(-0.128 -0.058)" fill="#fff"/>
      <path id="패스_24" data-name="패스 24" d="M192.323,26.825a10.017,10.017,0,0,1-4.35-3.425l-.046-.073-.05.073a9.325,9.325,0,0,1-4.35,3.426l-.038.012-1.33-1.43.091-.03a6.465,6.465,0,0,0,4.179-6.006v-.393h-3.353V17.108h9.745v1.871h-3.411l0,.393a6.756,6.756,0,0,0,4.081,6l.077.032-1.2,1.437Z" transform="translate(-0.123 -0.036)" fill="#fff"/>
      <path id="패스_25" data-name="패스 25" d="M225.211,24.241c-2.518,0-4.566-1.756-4.566-3.912s2.048-3.912,4.566-3.912,4.564,1.756,4.564,3.912-2.048,3.912-4.564,3.912m0-5.9a1.994,1.994,0,1,0,1.826,1.987,1.917,1.917,0,0,0-1.826-1.987" transform="translate(-0.149 -0.034)" fill="#fff"/>
    </g>
  </g>
</svg>
