<svg xmlns="http://www.w3.org/2000/svg" width="237" height="43" viewBox="0 0 237 43">
  <g id="logo_f" transform="translate(-39.601 -357.446)">
    <g id="그룹_5669" data-name="그룹 5669" transform="translate(39.601 357.446)">
      <rect id="사각형_3092" data-name="사각형 3092" width="6.893" height="17.922" transform="translate(44.653 24.506)" fill="#dedee0"/>
      <path id="패스_10041" data-name="패스 10041" d="M178.236,412.216a3.967,3.967,0,1,1,3.894-3.966A3.933,3.933,0,0,1,178.236,412.216Z" transform="translate(-130.136 -389.494)" fill="#dedee0"/>
      <path id="패스_10042" data-name="패스 10042" d="M118.857,415.841c-.776-.342-1.586-.642-2.374-.935l-.053-.02c-2.422-.895-4.709-1.737-4.623-3.27.053-.982.9-2.03,3.13-2.03a15.183,15.183,0,0,1,7.614,1.969l.321.214a.326.326,0,0,0,.106.016.306.306,0,0,0,.3-.275v-4.681l-.2-.144a15.434,15.434,0,0,0-8.292-2.454c-3.9,0-9.743,2.178-9.868,8.179-.115,5.471,3.789,7.349,7.456,8.684,3.54,1.286,5.458,2.3,5.458,4,0,1.769-1.638,2.781-4.492,2.781a13.1,13.1,0,0,1-6.966-2.108l-.29-.208a.307.307,0,0,0-.455.261v4.794l.218.143a17.29,17.29,0,0,0,8.928,2.494c7.382,0,10-5.041,10-9.358C124.776,420.227,122.84,417.593,118.857,415.841Z" transform="translate(-83.487 -390.251)" fill="#dedee0"/>
      <path id="패스_10043" data-name="패스 10043" d="M108.4,383.574c-.777-.332-1.587-.623-2.374-.906l-.054-.02c-2.419-.867-4.707-1.684-4.621-3.169.052-.951.9-1.968,3.13-1.968a15.529,15.529,0,0,1,7.614,1.908l.316.2a.33.33,0,0,0,.112.018.3.3,0,0,0,.3-.264v-3.388c0-.076-.45-2.028-3.69-5.336-9.091-9.283-21.526-13.21-32.819-13.21-16.678,0-32.621,10.913-36.139,19.969a7.071,7.071,0,0,0-.266.758l0,.008v0a8.08,8.08,0,0,0-.3,2.063c0,.1,0,.205,0,.307h0c.038,5.067,3.859,6.847,7.455,8.115,3.54,1.246,5.458,2.233,5.458,3.875,0,1.715-1.637,2.7-4.492,2.7a13.385,13.385,0,0,1-6.966-2.043l-.289-.2a.325.325,0,0,0-.147-.037.305.305,0,0,0-.309.29v4.646l.218.139a17.685,17.685,0,0,0,8.928,2.417c7.381,0,10-4.885,10-9.069,0-3.552-1.936-6.105-5.918-7.8-.778-.332-1.588-.623-2.374-.906l-.054-.02c-2.422-.867-4.707-1.684-4.623-3.169.053-.951.9-1.968,3.131-1.968a15.517,15.517,0,0,1,7.612,1.908l.322.207a.332.332,0,0,0,.1.015.3.3,0,0,0,.3-.266V374.84l-.2-.14a15.771,15.771,0,0,0-8.294-2.378c-.18,0-.367.006-.555.015l.015-.012a61.835,61.835,0,0,1,57.039.086h0a14.571,14.571,0,0,0-1.645-.089c-3.9,0-9.744,2.111-9.869,7.927-.112,5.3,3.79,7.123,7.457,8.416,3.54,1.246,5.458,2.233,5.458,3.875,0,1.715-1.637,2.7-4.492,2.7a13.379,13.379,0,0,1-6.966-2.043l-.292-.2a.323.323,0,0,0-.142-.035.305.305,0,0,0-.31.294v4.641l.218.139a17.677,17.677,0,0,0,8.927,2.417c7.381,0,10-4.885,10-9.069C114.316,387.825,112.379,385.272,108.4,383.574Z" transform="translate(-39.601 -357.446)" fill="#dedee0"/>
    </g>
    <g id="그룹_5676" data-name="그룹 5676" transform="translate(122.623 390.065)">
      <g id="그룹_5674" data-name="그룹 5674" transform="translate(0 0)">
        <path id="패스_10058" data-name="패스 10058" d="M295.885,458.389h1.336v9.185h-1.336Z" transform="translate(-295.885 -458.232)" fill="#dedee0"/>
        <path id="패스_10059" data-name="패스 10059" d="M306.105,458.389h1.817l4.1,7.392h.025v-7.392h1.333v9.185h-1.7l-4.216-7.551h-.019v7.551h-1.34Z" transform="translate(-302.409 -458.232)" fill="#dedee0"/>
        <path id="패스_10060" data-name="패스 10060" d="M332.532,458.389h4.947v1.159h-3.617v2.682h3.46v1.162h-3.46v4.182h-1.33Z" transform="translate(-319.279 -458.232)" fill="#dedee0"/>
        <path id="패스_10061" data-name="패스 10061" d="M350.164,460.816a4.286,4.286,0,0,1,.888-1.509,4.032,4.032,0,0,1,1.421-1,4.746,4.746,0,0,1,1.87-.356,4.829,4.829,0,0,1,1.882.356,4.016,4.016,0,0,1,1.418,1,4.174,4.174,0,0,1,.878,1.509,5.754,5.754,0,0,1,.3,1.885,5.857,5.857,0,0,1-.3,1.925,4.248,4.248,0,0,1-.878,1.5,3.843,3.843,0,0,1-1.415.98,5.367,5.367,0,0,1-3.771,0,3.81,3.81,0,0,1-1.412-.98,4.312,4.312,0,0,1-.881-1.5,5.945,5.945,0,0,1-.3-1.925A5.841,5.841,0,0,1,350.164,460.816Zm1.292,3.241a3.447,3.447,0,0,0,.562,1.155,2.643,2.643,0,0,0,.966.8,3.314,3.314,0,0,0,2.719,0,2.624,2.624,0,0,0,.967-.806,3.654,3.654,0,0,0,.562-1.148,4.983,4.983,0,0,0,.179-1.352,4.7,4.7,0,0,0-.191-1.352,3.475,3.475,0,0,0-.583-1.151,2.812,2.812,0,0,0-.966-.8,3.166,3.166,0,0,0-2.654,0,2.739,2.739,0,0,0-.963.8,3.575,3.575,0,0,0-.58,1.151,4.7,4.7,0,0,0-.192,1.352A4.9,4.9,0,0,0,351.456,464.056Z" transform="translate(-330.346 -457.955)" fill="#dedee0"/>
        <path id="패스_10062" data-name="패스 10062" d="M379.659,458.389h2.274a10.161,10.161,0,0,1,1.415.091,3.585,3.585,0,0,1,1.114.351,1.933,1.933,0,0,1,.794.759,2.517,2.517,0,0,1,.292,1.285,1.926,1.926,0,0,1-.543,1.382,2.4,2.4,0,0,1-1.38.712v.025a1.415,1.415,0,0,1,.5.311,2.345,2.345,0,0,1,.4.612l1.76,3.658h-1.518l-1.424-3.186a1.41,1.41,0,0,0-.6-.745,2.344,2.344,0,0,0-.967-.147h-.8v4.078h-1.33Zm1.33,3.946h1.132a2.5,2.5,0,0,0,1.475-.383,1.229,1.229,0,0,0,.539-1.051,1.177,1.177,0,0,0-.483-.993,2.287,2.287,0,0,0-1.38-.361h-1.283Z" transform="translate(-349.367 -458.232)" fill="#dedee0"/>
        <path id="패스_10063" data-name="패스 10063" d="M402.432,458.389h2.2l2.918,7.632,2.864-7.632h2.2v9.185h-1.327v-7.949h-.031l-3.075,7.949h-1.311l-3.074-7.949h-.028v7.949h-1.33Z" transform="translate(-363.906 -458.232)" fill="#dedee0"/>
        <path id="패스_10064" data-name="패스 10064" d="M438.318,458.389h1.4l3.934,9.185H442.2l-.948-2.315h-4.561l-.941,2.315h-1.4Zm.655,1.236-1.851,4.554h3.7Z" transform="translate(-384.283 -458.232)" fill="#dedee0"/>
        <path id="패스_10065" data-name="패스 10065" d="M461.1,459.548h-2.889v-1.159h7.118v1.159h-2.9v8.026H461.1Z" transform="translate(-399.514 -458.232)" fill="#dedee0"/>
        <path id="패스_10066" data-name="패스 10066" d="M481.572,458.389h1.333v9.185h-1.333Z" transform="translate(-414.431 -458.232)" fill="#dedee0"/>
        <path id="패스_10067" data-name="패스 10067" d="M490.794,460.816a4.252,4.252,0,0,1,.888-1.509,4.118,4.118,0,0,1,1.421-1,4.743,4.743,0,0,1,1.869-.356,4.82,4.82,0,0,1,1.882.356,3.992,3.992,0,0,1,1.418,1,4.234,4.234,0,0,1,.885,1.509,5.931,5.931,0,0,1,.3,1.885,6.035,6.035,0,0,1-.3,1.925,4.311,4.311,0,0,1-.885,1.5,3.873,3.873,0,0,1-1.408.98,4.919,4.919,0,0,1-1.892.342,4.868,4.868,0,0,1-1.882-.342,3.857,3.857,0,0,1-1.412-.98,4.318,4.318,0,0,1-.885-1.5,5.938,5.938,0,0,1-.295-1.925A5.832,5.832,0,0,1,490.794,460.816Zm1.3,3.241a3.5,3.5,0,0,0,.558,1.155,2.645,2.645,0,0,0,.966.8,3.321,3.321,0,0,0,2.723,0,2.672,2.672,0,0,0,.966-.806,3.579,3.579,0,0,0,.562-1.148,4.965,4.965,0,0,0,.176-1.352,4.819,4.819,0,0,0-.191-1.352,3.534,3.534,0,0,0-.584-1.151,2.739,2.739,0,0,0-.963-.8,3.166,3.166,0,0,0-2.654,0,2.778,2.778,0,0,0-.966.8,3.47,3.47,0,0,0-.584,1.151,4.814,4.814,0,0,0-.188,1.352A5.012,5.012,0,0,0,492.09,464.056Z" transform="translate(-420.128 -457.955)" fill="#dedee0"/>
        <path id="패스_10068" data-name="패스 10068" d="M520.474,458.389h1.81l4.1,7.392h.028v-7.392h1.334v9.185h-1.71l-4.2-7.551H521.8v7.551h-1.327Z" transform="translate(-439.267 -458.232)" fill="#dedee0"/>
      </g>
      <g id="그룹_5675" data-name="그룹 5675" transform="translate(93.988 0)">
        <path id="패스_10069" data-name="패스 10069" d="M560.6,459.5c-.376-.141-.678-.24-.906-.3a3.57,3.57,0,0,0-.841-.088,2.9,2.9,0,0,0-.58.059,1.765,1.765,0,0,0-.524.2.981.981,0,0,0-.383.381,1.135,1.135,0,0,0-.141.587.988.988,0,0,0,.386.82,6.784,6.784,0,0,0,1.214.7c.38.174.7.331.945.474a3.876,3.876,0,0,1,.7.53,2.5,2.5,0,0,1,.549.778,2.621,2.621,0,0,1,.207,1.07,2.8,2.8,0,0,1-.26,1.236,2.161,2.161,0,0,1-.731.857,3.211,3.211,0,0,1-1.07.489,5.288,5.288,0,0,1-1.34.156,4.077,4.077,0,0,1-.891-.1,8.27,8.27,0,0,1-1.016-.285l.135-1.219a8.4,8.4,0,0,0,.953.308,3.79,3.79,0,0,0,.982.141,2.347,2.347,0,0,0,.624-.088,1.948,1.948,0,0,0,.59-.271,1.382,1.382,0,0,0,.443-.475,1.343,1.343,0,0,0,.166-.668,1.239,1.239,0,0,0-.138-.6,2.008,2.008,0,0,0-.392-.477,6.535,6.535,0,0,0-1.214-.671c-.364-.179-.665-.333-.894-.458a3.74,3.74,0,0,1-.668-.477,2.293,2.293,0,0,1-.508-.7,2.33,2.33,0,0,1-.182-.963,2.195,2.195,0,0,1,.838-1.838,3.343,3.343,0,0,1,2.142-.659,6.8,6.8,0,0,1,1,.081,4.556,4.556,0,0,1,.985.251Z" transform="translate(-555.819 -457.955)" fill="#dedee0"/>
        <path id="패스_10070" data-name="패스 10070" d="M575.973,458.389h5.214v1.159h-3.877v2.682h3.533v1.162h-3.533v3.023h3.877v1.159h-5.214Z" transform="translate(-568.685 -458.232)" fill="#dedee0"/>
        <path id="패스_10071" data-name="패스 10071" d="M596.066,458.389h2.281a10.077,10.077,0,0,1,1.411.091,3.633,3.633,0,0,1,1.117.351,1.921,1.921,0,0,1,.787.759,2.487,2.487,0,0,1,.295,1.285,1.923,1.923,0,0,1-.54,1.382,2.4,2.4,0,0,1-1.381.712v.025a1.423,1.423,0,0,1,.5.311,2.257,2.257,0,0,1,.408.612l1.76,3.658h-1.518l-1.427-3.186a1.391,1.391,0,0,0-.605-.745,2.26,2.26,0,0,0-.951-.147h-.8v4.078h-1.336Zm1.336,3.946h1.129a2.532,2.532,0,0,0,1.484-.383,1.25,1.25,0,0,0,.53-1.051,1.184,1.184,0,0,0-.48-.993,2.288,2.288,0,0,0-1.387-.361H597.4Z" transform="translate(-581.513 -458.232)" fill="#dedee0"/>
        <path id="패스_10072" data-name="패스 10072" d="M620.262,467.574H618.6l-3.5-9.185h1.493l2.861,8.026h.032l2.945-8.026h1.4Z" transform="translate(-593.658 -458.232)" fill="#dedee0"/>
        <path id="패스_10073" data-name="패스 10073" d="M642.741,458.389h1.33v9.185h-1.33Z" transform="translate(-611.312 -458.232)" fill="#dedee0"/>
        <path id="패스_10074" data-name="패스 10074" d="M658.561,459.625a3.753,3.753,0,0,0-1.917-.516,3.947,3.947,0,0,0-1.459.269,3.164,3.164,0,0,0-1.132.747,3.28,3.28,0,0,0-.725,1.151,4.1,4.1,0,0,0,.01,2.883,3.3,3.3,0,0,0,.756,1.145,3.416,3.416,0,0,0,1.12.735,3.653,3.653,0,0,0,1.361.259,5.025,5.025,0,0,0,1.108-.129,3.182,3.182,0,0,0,.922-.32l.078,1.275a3.793,3.793,0,0,1-1.02.264,9.689,9.689,0,0,1-1.1.063,5.742,5.742,0,0,1-2-.334,4.476,4.476,0,0,1-1.562-.967,4.233,4.233,0,0,1-1-1.518,5.423,5.423,0,0,1-.345-1.967,5.024,5.024,0,0,1,.361-1.917,4.3,4.3,0,0,1,1.026-1.5,4.555,4.555,0,0,1,1.575-.96,5.609,5.609,0,0,1,1.954-.336,5.162,5.162,0,0,1,2.1.4Z" transform="translate(-617.006 -457.955)" fill="#dedee0"/>
        <path id="패스_10075" data-name="패스 10075" d="M675.692,458.389h5.21v1.159h-3.877v2.682h3.529v1.162h-3.529v3.023H680.9v1.159h-5.21Z" transform="translate(-632.349 -458.232)" fill="#dedee0"/>
      </g>
    </g>
    <g id="그룹_5677" data-name="그룹 5677" transform="translate(122.568 375.15)">
      <g id="그룹_5672" data-name="그룹 5672" transform="translate(45.941 0)">
        <path id="패스_10044" data-name="패스 10044" d="M427.58,419.517c-.38-.141-.681-.24-.911-.3a3.585,3.585,0,0,0-.841-.088,2.853,2.853,0,0,0-.577.059,1.753,1.753,0,0,0-.529.2,1.045,1.045,0,0,0-.383.381,1.218,1.218,0,0,0-.136.587.99.99,0,0,0,.389.82,6.5,6.5,0,0,0,1.211.7c.381.174.695.331.941.474a3.852,3.852,0,0,1,.706.53,2.527,2.527,0,0,1,.547.778,2.646,2.646,0,0,1,.205,1.07,2.752,2.752,0,0,1-.26,1.236,2.17,2.17,0,0,1-.728.857,3.2,3.2,0,0,1-1.072.489,5.251,5.251,0,0,1-1.338.156,4.134,4.134,0,0,1-.895-.1,7.963,7.963,0,0,1-1.015-.285l.135-1.219a8.574,8.574,0,0,0,.952.308,3.793,3.793,0,0,0,.977.141,2.309,2.309,0,0,0,.627-.088,2.035,2.035,0,0,0,.6-.271,1.362,1.362,0,0,0,.436-.475,1.307,1.307,0,0,0,.169-.668,1.22,1.22,0,0,0-.141-.6,1.739,1.739,0,0,0-.394-.477,6.27,6.27,0,0,0-1.211-.671c-.365-.179-.663-.333-.894-.458a3.929,3.929,0,0,1-.67-.477,2.167,2.167,0,0,1-.505-.7,2.33,2.33,0,0,1-.185-.963,2.2,2.2,0,0,1,.841-1.838,3.346,3.346,0,0,1,2.144-.659,6.777,6.777,0,0,1,1,.081,4.632,4.632,0,0,1,.986.251Z" transform="translate(-422.79 -417.975)" fill="#dedee0"/>
        <path id="패스_10045" data-name="패스 10045" d="M441.738,420.836a4.267,4.267,0,0,1,.888-1.509,4.046,4.046,0,0,1,1.421-1,5.109,5.109,0,0,1,3.747,0,3.939,3.939,0,0,1,1.426,1,4.24,4.24,0,0,1,.875,1.509,5.792,5.792,0,0,1,.3,1.885,5.9,5.9,0,0,1-.3,1.925,4.316,4.316,0,0,1-.875,1.5,3.837,3.837,0,0,1-1.416.98,5.366,5.366,0,0,1-3.771,0,3.87,3.87,0,0,1-1.412-.98,4.385,4.385,0,0,1-.883-1.5,5.9,5.9,0,0,1-.3-1.925A5.792,5.792,0,0,1,441.738,420.836Zm1.3,3.24a3.378,3.378,0,0,0,.558,1.155,2.583,2.583,0,0,0,.963.8,3.31,3.31,0,0,0,2.718,0,2.638,2.638,0,0,0,.971-.806,3.472,3.472,0,0,0,.555-1.148,4.859,4.859,0,0,0,.18-1.352,4.7,4.7,0,0,0-.192-1.352,3.581,3.581,0,0,0-.58-1.151,2.781,2.781,0,0,0-.965-.8,2.962,2.962,0,0,0-1.33-.292,2.923,2.923,0,0,0-1.322.292,2.743,2.743,0,0,0-.968.8,3.543,3.543,0,0,0-.579,1.151,4.938,4.938,0,0,0-.011,2.707Z" transform="translate(-434.694 -417.975)" fill="#dedee0"/>
        <path id="패스_10046" data-name="패스 10046" d="M477.026,419.645a3.778,3.778,0,0,0-1.921-.516,3.89,3.89,0,0,0-1.452.27,3.172,3.172,0,0,0-1.137.747,3.307,3.307,0,0,0-.726,1.151,3.959,3.959,0,0,0-.254,1.424,3.907,3.907,0,0,0,.267,1.459,3.374,3.374,0,0,0,.75,1.145,3.466,3.466,0,0,0,1.128.735,3.623,3.623,0,0,0,1.36.259,4.987,4.987,0,0,0,1.1-.129,3.136,3.136,0,0,0,.923-.32l.078,1.275a3.771,3.771,0,0,1-1.018.264,9.635,9.635,0,0,1-1.1.063,5.782,5.782,0,0,1-2-.334,4.376,4.376,0,0,1-1.553-.966,4.168,4.168,0,0,1-1-1.518,5.363,5.363,0,0,1-.348-1.967,4.942,4.942,0,0,1,.362-1.917,4.282,4.282,0,0,1,1.023-1.5,4.615,4.615,0,0,1,1.578-.96,5.573,5.573,0,0,1,1.956-.336,5.139,5.139,0,0,1,2.094.4Z" transform="translate(-453.005 -417.975)" fill="#dedee0"/>
        <path id="패스_10047" data-name="패스 10047" d="M493.97,418.409H495.3v9.185H493.97Z" transform="translate(-468.231 -418.252)" fill="#dedee0"/>
        <path id="패스_10048" data-name="패스 10048" d="M505.347,418.409h1.4l3.929,9.185h-1.451l-.946-2.315h-4.558l-.946,2.315h-1.4Zm.655,1.236-1.849,4.554h3.7Z" transform="translate(-472.961 -418.252)" fill="#dedee0"/>
        <path id="패스_10049" data-name="패스 10049" d="M530.781,418.409h1.339v8.026h3.893v1.159h-5.232Z" transform="translate(-491.732 -418.252)" fill="#dedee0"/>
      </g>
      <g id="그룹_5673" data-name="그룹 5673" transform="translate(94.812 0)">
        <path id="패스_10050" data-name="패스 10050" d="M562.734,419.517a9.333,9.333,0,0,0-.908-.3,3.59,3.59,0,0,0-.839-.088,2.907,2.907,0,0,0-.582.059,1.7,1.7,0,0,0-.524.2.945.945,0,0,0-.38.381,1.106,1.106,0,0,0-.142.587,1,1,0,0,0,.384.82,6.854,6.854,0,0,0,1.212.7,10.073,10.073,0,0,1,.944.474,3.8,3.8,0,0,1,.706.53,2.416,2.416,0,0,1,.546.778,2.57,2.57,0,0,1,.207,1.07,2.672,2.672,0,0,1-.26,1.236,2.182,2.182,0,0,1-.723.857,3.282,3.282,0,0,1-1.076.489,5.241,5.241,0,0,1-1.339.156,4.114,4.114,0,0,1-.891-.1,7.7,7.7,0,0,1-1.013-.285l.135-1.219a8.736,8.736,0,0,0,.949.308,3.815,3.815,0,0,0,.979.141,2.366,2.366,0,0,0,.629-.088,2.052,2.052,0,0,0,.592-.271,1.375,1.375,0,0,0,.439-.475,1.292,1.292,0,0,0,.168-.668,1.221,1.221,0,0,0-.143-.6,1.761,1.761,0,0,0-.39-.477,6.479,6.479,0,0,0-1.214-.671c-.367-.179-.662-.333-.893-.458a3.55,3.55,0,0,1-.668-.477,2.1,2.1,0,0,1-.5-.7,2.284,2.284,0,0,1-.188-.963,2.207,2.207,0,0,1,.837-1.838,3.373,3.373,0,0,1,2.149-.659,6.842,6.842,0,0,1,1,.081,4.543,4.543,0,0,1,.987.251Z" transform="translate(-557.945 -417.975)" fill="#dedee0"/>
        <path id="패스_10051" data-name="패스 10051" d="M578.116,418.409h5.209v1.159h-3.873v2.682h3.528v1.162h-3.528v3.023h3.873v1.159h-5.209Z" transform="translate(-570.821 -418.252)" fill="#dedee0"/>
        <path id="패스_10052" data-name="패스 10052" d="M604,419.645a3.735,3.735,0,0,0-1.918-.516,3.864,3.864,0,0,0-1.45.27,3.162,3.162,0,0,0-1.145.747,3.322,3.322,0,0,0-.722,1.151,3.969,3.969,0,0,0-.255,1.424,3.81,3.81,0,0,0,.27,1.459,3.257,3.257,0,0,0,.748,1.145,3.427,3.427,0,0,0,1.131.735,3.6,3.6,0,0,0,1.36.259,5.047,5.047,0,0,0,1.106-.129,3.147,3.147,0,0,0,.918-.32l.077,1.275a3.759,3.759,0,0,1-1.016.264,9.627,9.627,0,0,1-1.1.063,5.722,5.722,0,0,1-2-.334,4.425,4.425,0,0,1-1.564-.966,4.25,4.25,0,0,1-1-1.518,5.4,5.4,0,0,1-.348-1.967,4.967,4.967,0,0,1,.359-1.917,4.31,4.31,0,0,1,1.029-1.5,4.63,4.63,0,0,1,1.572-.96,5.643,5.643,0,0,1,1.964-.336,5.136,5.136,0,0,1,2.091.4Z" transform="translate(-582.942 -417.975)" fill="#dedee0"/>
        <path id="패스_10053" data-name="패스 10053" d="M628.226,423.793a4.2,4.2,0,0,1-.941,2.936,4.013,4.013,0,0,1-5.346,0,4.2,4.2,0,0,1-.935-2.936v-5.384h1.329v5.209a3.92,3.92,0,0,0,.527,2.2,2.366,2.366,0,0,0,3.51,0,3.913,3.913,0,0,0,.521-2.2v-5.209h1.335Z" transform="translate(-598.203 -418.252)" fill="#dedee0"/>
        <path id="패스_10054" data-name="패스 10054" d="M647.353,418.409h2.276a10.267,10.267,0,0,1,1.42.091,3.614,3.614,0,0,1,1.109.352,1.969,1.969,0,0,1,.8.759,2.538,2.538,0,0,1,.287,1.285,1.931,1.931,0,0,1-.535,1.382,2.438,2.438,0,0,1-1.385.712v.025a1.417,1.417,0,0,1,.5.311,2.35,2.35,0,0,1,.411.612l1.757,3.658h-1.518l-1.423-3.186a1.448,1.448,0,0,0-.6-.745,2.3,2.3,0,0,0-.959-.147h-.8v4.078h-1.332Zm1.332,3.946h1.134a2.528,2.528,0,0,0,1.479-.383,1.234,1.234,0,0,0,.532-1.051,1.16,1.16,0,0,0-.48-.993,2.3,2.3,0,0,0-1.387-.361h-1.278Z" transform="translate(-615.024 -418.252)" fill="#dedee0"/>
        <path id="패스_10055" data-name="패스 10055" d="M670.1,418.409h1.331v9.185H670.1Z" transform="translate(-629.543 -418.252)" fill="#dedee0"/>
        <path id="패스_10056" data-name="패스 10056" d="M680.363,419.568h-2.888v-1.159h7.115v1.159h-2.9v8.026h-1.332Z" transform="translate(-634.254 -418.252)" fill="#dedee0"/>
        <path id="패스_10057" data-name="패스 10057" d="M701.6,423.754l-3.641-5.345h1.562l2.769,4.118L705,418.409h1.556l-3.623,5.345v3.84H701.6Z" transform="translate(-647.335 -418.252)" fill="#dedee0"/>
      </g>
      <g id="그룹_5670" data-name="그룹 5670" transform="translate(0 0.008)">
        <path id="패스_10076" data-name="패스 10076" d="M295.731,418.433h1.319v4.048l3.929-4.048h1.754l-4.325,4.352,4.667,4.852h-1.925l-4.1-4.509v4.509h-1.319Z" transform="translate(-295.731 -418.275)" fill="#dedee0"/>
        <path id="패스_10077" data-name="패스 10077" d="M316.85,420.864a4.277,4.277,0,0,1,.877-1.516,4.019,4.019,0,0,1,1.4-1,4.619,4.619,0,0,1,1.852-.356,4.666,4.666,0,0,1,1.859.356,3.94,3.94,0,0,1,1.4,1,4.315,4.315,0,0,1,.87,1.516,5.851,5.851,0,0,1,.3,1.893,5.917,5.917,0,0,1-.3,1.925,4.319,4.319,0,0,1-.87,1.51,3.828,3.828,0,0,1-1.4.983,5.25,5.25,0,0,1-3.732,0,3.831,3.831,0,0,1-1.4-.983,4.324,4.324,0,0,1-.871-1.51,5.948,5.948,0,0,1-.3-1.925A5.883,5.883,0,0,1,316.85,420.864Zm1.279,3.251a3.471,3.471,0,0,0,.554,1.153,2.636,2.636,0,0,0,.956.8,3.26,3.26,0,0,0,2.69,0,2.607,2.607,0,0,0,.956-.8,3.544,3.544,0,0,0,.554-1.154,5.011,5.011,0,0,0,.178-1.352,4.787,4.787,0,0,0-.191-1.358,3.611,3.611,0,0,0-.574-1.153,2.718,2.718,0,0,0-.956-.8,3.113,3.113,0,0,0-2.624,0,2.728,2.728,0,0,0-.956.8,3.587,3.587,0,0,0-.573,1.153,4.75,4.75,0,0,0-.192,1.358A5.1,5.1,0,0,0,318.13,424.115Z" transform="translate(-309.025 -417.997)" fill="#dedee0"/>
        <path id="패스_10078" data-name="패스 10078" d="M345.473,418.433h2.255a9.4,9.4,0,0,1,1.4.093,3.521,3.521,0,0,1,1.1.35,1.913,1.913,0,0,1,.784.758,2.555,2.555,0,0,1,.29,1.293,1.942,1.942,0,0,1-.534,1.384,2.377,2.377,0,0,1-1.364.712v.027a1.427,1.427,0,0,1,.494.31,2.4,2.4,0,0,1,.4.613l1.741,3.665h-1.5l-1.411-3.191a1.447,1.447,0,0,0-.594-.751,2.389,2.389,0,0,0-.949-.145h-.791v4.087h-1.318Zm1.318,3.956h1.121a2.42,2.42,0,0,0,1.464-.389,1.235,1.235,0,0,0,.528-1.047,1.185,1.185,0,0,0-.475-1,2.225,2.225,0,0,0-1.371-.362h-1.266Z" transform="translate(-327.487 -418.275)" fill="#dedee0"/>
        <path id="패스_10079" data-name="패스 10079" d="M367.607,418.433h5.156v1.161h-3.837v2.69h3.494v1.16h-3.494v3.033h3.837v1.16h-5.156Z" transform="translate(-341.618 -418.275)" fill="#dedee0"/>
        <path id="패스_10080" data-name="패스 10080" d="M388.275,418.433h1.385l3.889,9.2h-1.437l-.936-2.32h-4.51l-.936,2.32h-1.384Zm.647,1.24-1.833,4.562h3.666Z" transform="translate(-352.305 -418.275)" fill="#dedee0"/>
      </g>
    </g>
  </g>
</svg>
