<svg xmlns="http://www.w3.org/2000/svg" width="206.179" height="38.486" viewBox="0 0 206.179 38.486">
  <g id="EN_logo" transform="translate(-39.601 -357.446)">
    <g id="그룹_5669" data-name="그룹 5669" transform="translate(39.601 357.446)">
      <rect id="사각형_3092" data-name="사각형 3092" width="5.979" height="15.546" transform="translate(38.732 22.444)" fill="#fff"/>
      <path id="패스_10041" data-name="패스 10041" d="M177.72,411.164a3.441,3.441,0,1,1,3.378-3.44A3.411,3.411,0,0,1,177.72,411.164Z" transform="translate(-135.999 -390.954)" fill="#fff"/>
      <path id="패스_10042" data-name="패스 10042" d="M117.008,414.3c-.673-.3-1.376-.557-2.059-.811l-.046-.018c-2.1-.776-4.084-1.507-4.01-2.836.046-.852.783-1.761,2.715-1.761a13.17,13.17,0,0,1,6.6,1.708l.278.186a.283.283,0,0,0,.092.014.265.265,0,0,0,.263-.238v-4.061l-.175-.125a13.387,13.387,0,0,0-7.193-2.128c-3.381,0-8.451,1.889-8.559,7.095-.1,4.745,3.286,6.375,6.467,7.533,3.07,1.115,4.734,2,4.734,3.468,0,1.535-1.421,2.412-3.9,2.412a11.362,11.362,0,0,1-6.042-1.828l-.252-.18a.266.266,0,0,0-.395.226v4.158l.189.124a15,15,0,0,0,7.744,2.163c6.4,0,8.674-4.372,8.674-8.117C122.143,418.106,120.463,415.821,117.008,414.3Z" transform="translate(-86.328 -390.916)" fill="#fff"/>
      <path id="패스_10043" data-name="패스 10043" d="M99.274,380.831c-.674-.3-1.377-.557-2.059-.811L97.168,380c-2.1-.776-4.083-1.507-4.008-2.836.046-.852.783-1.761,2.715-1.761a13.163,13.163,0,0,1,6.6,1.708l.274.183a.279.279,0,0,0,.1.016.265.265,0,0,0,.263-.236v-3.032c0-.068-.391-1.815-3.2-4.776a39.215,39.215,0,0,0-28.467-11.823c-14.466,0-28.3,9.768-31.347,17.873a6.466,6.466,0,0,0-.231.679l0,.007h0a7.445,7.445,0,0,0-.262,1.847c0,.093,0,.184,0,.275h0c.033,4.535,3.347,6.129,6.466,7.264,3.07,1.115,4.734,2,4.734,3.468,0,1.535-1.42,2.412-3.9,2.412a11.37,11.37,0,0,1-6.042-1.828l-.25-.18a.274.274,0,0,0-.127-.033.269.269,0,0,0-.268.26v4.158l.189.124a15.006,15.006,0,0,0,7.744,2.163c6.4,0,8.674-4.372,8.674-8.117,0-3.179-1.68-5.464-5.133-6.984-.674-.3-1.377-.557-2.059-.811L49.588,380c-2.1-.776-4.083-1.507-4.01-2.836.046-.852.783-1.761,2.716-1.761a13.154,13.154,0,0,1,6.6,1.708l.279.186a.279.279,0,0,0,.091.014.266.266,0,0,0,.264-.238v-4.061l-.174-.125a13.394,13.394,0,0,0-7.194-2.128c-.157,0-.318.005-.482.013l.013-.011a52.17,52.17,0,0,1,49.476.077h0a12.241,12.241,0,0,0-1.427-.08c-3.381,0-8.451,1.889-8.56,7.095-.1,4.745,3.288,6.375,6.468,7.533,3.07,1.115,4.734,2,4.734,3.468,0,1.535-1.42,2.412-3.9,2.412a11.366,11.366,0,0,1-6.042-1.828l-.254-.182a.273.273,0,0,0-.124-.031.268.268,0,0,0-.269.264v4.154l.189.124a15,15,0,0,0,7.743,2.163c6.4,0,8.674-4.372,8.674-8.117C104.408,384.636,102.728,382.351,99.274,380.831Z" transform="translate(-39.601 -357.446)" fill="#fff"/>
    </g>
    <g id="그룹_5676" data-name="그룹 5676" transform="translate(112.22 386.928)">
      <g id="그룹_5674" data-name="그룹 5674" transform="translate(0 0)">
        <path id="패스_10058" data-name="패스 10058" d="M295.885,458.389h1.159v7.967h-1.159Z" transform="translate(-295.885 -458.253)" fill="#fff"/>
        <path id="패스_10059" data-name="패스 10059" d="M306.105,458.389h1.576l3.559,6.412h.022v-6.412h1.156v7.967H310.94l-3.657-6.55h-.016v6.55h-1.162Z" transform="translate(-302.899 -458.253)" fill="#fff"/>
        <path id="패스_10060" data-name="패스 10060" d="M332.532,458.389h4.291v1.005h-3.137v2.327h3v1.008h-3v3.627h-1.153Z" transform="translate(-321.037 -458.253)" fill="#fff"/>
        <path id="패스_10061" data-name="패스 10061" d="M350.124,460.436a3.717,3.717,0,0,1,.77-1.309,3.5,3.5,0,0,1,1.233-.864,4.117,4.117,0,0,1,1.622-.309,4.189,4.189,0,0,1,1.633.309,3.483,3.483,0,0,1,1.23.864,3.619,3.619,0,0,1,.762,1.309,4.991,4.991,0,0,1,.261,1.635,5.081,5.081,0,0,1-.261,1.669,3.684,3.684,0,0,1-.762,1.3,3.333,3.333,0,0,1-1.227.85,4.655,4.655,0,0,1-3.271,0,3.305,3.305,0,0,1-1.225-.85,3.741,3.741,0,0,1-.764-1.3,5.158,5.158,0,0,1-.258-1.669A5.067,5.067,0,0,1,350.124,460.436Zm1.121,2.811a2.99,2.99,0,0,0,.487,1,2.292,2.292,0,0,0,.838.691,2.875,2.875,0,0,0,2.359,0,2.275,2.275,0,0,0,.838-.7,3.17,3.17,0,0,0,.487-1,4.323,4.323,0,0,0,.155-1.173,4.077,4.077,0,0,0-.166-1.173,3.014,3.014,0,0,0-.506-1,2.439,2.439,0,0,0-.838-.691,2.747,2.747,0,0,0-2.3,0,2.376,2.376,0,0,0-.835.691,3.1,3.1,0,0,0-.5,1,4.075,4.075,0,0,0-.166,1.173A4.249,4.249,0,0,0,351.245,463.247Z" transform="translate(-332.935 -457.955)" fill="#fff"/>
        <path id="패스_10062" data-name="패스 10062" d="M379.659,458.389h1.972a8.814,8.814,0,0,1,1.227.079,3.111,3.111,0,0,1,.966.3,1.677,1.677,0,0,1,.688.658,2.183,2.183,0,0,1,.253,1.114,1.67,1.67,0,0,1-.471,1.2,2.084,2.084,0,0,1-1.2.618v.022a1.227,1.227,0,0,1,.436.269,2.033,2.033,0,0,1,.351.531l1.526,3.173h-1.317l-1.235-2.763a1.224,1.224,0,0,0-.517-.646,2.034,2.034,0,0,0-.838-.128h-.691v3.537h-1.154Zm1.154,3.423h.982a2.165,2.165,0,0,0,1.279-.332,1.066,1.066,0,0,0,.468-.911,1.021,1.021,0,0,0-.419-.861,1.983,1.983,0,0,0-1.2-.313h-1.113Z" transform="translate(-353.384 -458.253)" fill="#fff"/>
        <path id="패스_10063" data-name="패스 10063" d="M402.432,458.389h1.908l2.531,6.62,2.484-6.62h1.9v7.967h-1.151v-6.9h-.027l-2.667,6.9h-1.137l-2.667-6.9h-.025v6.9h-1.154Z" transform="translate(-369.015 -458.253)" fill="#fff"/>
        <path id="패스_10064" data-name="패스 10064" d="M437.792,458.389h1.216l3.412,7.967h-1.26l-.822-2.008h-3.956l-.816,2.008H434.35Zm.569,1.072-1.605,3.95h3.213Z" transform="translate(-390.922 -458.253)" fill="#fff"/>
        <path id="패스_10065" data-name="패스 10065" d="M460.715,459.394h-2.506v-1.005h6.174v1.005h-2.512v6.962h-1.156Z" transform="translate(-407.297 -458.253)" fill="#fff"/>
        <path id="패스_10066" data-name="패스 10066" d="M481.572,458.389h1.156v7.967h-1.156Z" transform="translate(-423.335 -458.253)" fill="#fff"/>
        <path id="패스_10067" data-name="패스 10067" d="M490.755,460.436a3.688,3.688,0,0,1,.77-1.309,3.571,3.571,0,0,1,1.233-.864,4.114,4.114,0,0,1,1.621-.309,4.181,4.181,0,0,1,1.633.309,3.462,3.462,0,0,1,1.23.864,3.672,3.672,0,0,1,.768,1.309,5.144,5.144,0,0,1,.258,1.635,5.234,5.234,0,0,1-.258,1.669,3.739,3.739,0,0,1-.768,1.3,3.359,3.359,0,0,1-1.221.85,4.266,4.266,0,0,1-1.641.3,4.222,4.222,0,0,1-1.632-.3,3.346,3.346,0,0,1-1.224-.85,3.745,3.745,0,0,1-.768-1.3,5.15,5.15,0,0,1-.256-1.669A5.058,5.058,0,0,1,490.755,460.436Zm1.124,2.811a3.035,3.035,0,0,0,.484,1,2.294,2.294,0,0,0,.838.691,2.881,2.881,0,0,0,2.362,0,2.318,2.318,0,0,0,.838-.7,3.1,3.1,0,0,0,.487-1,4.307,4.307,0,0,0,.152-1.173,4.179,4.179,0,0,0-.166-1.173,3.064,3.064,0,0,0-.506-1,2.376,2.376,0,0,0-.835-.691,2.747,2.747,0,0,0-2.3,0,2.41,2.41,0,0,0-.838.691,3.009,3.009,0,0,0-.506,1,4.176,4.176,0,0,0-.163,1.173A4.347,4.347,0,0,0,491.879,463.247Z" transform="translate(-429.46 -457.955)" fill="#fff"/>
        <path id="패스_10068" data-name="패스 10068" d="M520.474,458.389h1.57L525.6,464.8h.024v-6.412h1.157v7.967H525.3l-3.646-6.55h-.03v6.55h-1.151Z" transform="translate(-450.035 -458.253)" fill="#fff"/>
      </g>
      <g id="그룹_5675" data-name="그룹 5675" transform="translate(81.525 0)">
        <path id="패스_10069" data-name="패스 10069" d="M559.969,459.292c-.326-.122-.588-.208-.786-.26a3.1,3.1,0,0,0-.73-.076,2.517,2.517,0,0,0-.5.051,1.532,1.532,0,0,0-.455.176.85.85,0,0,0-.332.331.984.984,0,0,0-.122.509.857.857,0,0,0,.335.712,5.884,5.884,0,0,0,1.053.611c.329.151.607.287.819.411a3.365,3.365,0,0,1,.609.46,2.166,2.166,0,0,1,.476.675,2.273,2.273,0,0,1,.18.928,2.424,2.424,0,0,1-.226,1.072,1.874,1.874,0,0,1-.634.743,2.785,2.785,0,0,1-.928.424,4.586,4.586,0,0,1-1.162.135,3.539,3.539,0,0,1-.772-.085,7.181,7.181,0,0,1-.882-.247l.117-1.057a7.277,7.277,0,0,0,.827.267,3.286,3.286,0,0,0,.852.122,2.038,2.038,0,0,0,.541-.076,1.691,1.691,0,0,0,.512-.235,1.2,1.2,0,0,0,.384-.412,1.165,1.165,0,0,0,.144-.58,1.074,1.074,0,0,0-.12-.52,1.74,1.74,0,0,0-.34-.413,5.665,5.665,0,0,0-1.053-.582c-.315-.155-.577-.289-.775-.4a3.245,3.245,0,0,1-.58-.413,1.99,1.99,0,0,1-.441-.607,2.021,2.021,0,0,1-.158-.835,1.9,1.9,0,0,1,.727-1.595,2.9,2.9,0,0,1,1.858-.571,5.9,5.9,0,0,1,.871.071,3.953,3.953,0,0,1,.854.218Z" transform="translate(-555.819 -457.955)" fill="#fff"/>
        <path id="패스_10070" data-name="패스 10070" d="M575.973,458.389H580.5v1.005h-3.363v2.327H580.2v1.008h-3.064v2.622H580.5v1.005h-4.522Z" transform="translate(-569.651 -458.253)" fill="#fff"/>
        <path id="패스_10071" data-name="패스 10071" d="M596.066,458.389h1.978a8.74,8.74,0,0,1,1.224.079,3.153,3.153,0,0,1,.969.3,1.666,1.666,0,0,1,.683.658,2.158,2.158,0,0,1,.256,1.114,1.668,1.668,0,0,1-.468,1.2,2.083,2.083,0,0,1-1.2.618v.022a1.234,1.234,0,0,1,.433.269,1.957,1.957,0,0,1,.354.531l1.526,3.173h-1.317l-1.238-2.763a1.206,1.206,0,0,0-.525-.646,1.961,1.961,0,0,0-.825-.128h-.694v3.537h-1.159Zm1.159,3.423h.979a2.2,2.2,0,0,0,1.287-.332,1.085,1.085,0,0,0,.46-.911,1.027,1.027,0,0,0-.416-.861,1.985,1.985,0,0,0-1.2-.313h-1.107Z" transform="translate(-583.443 -458.253)" fill="#fff"/>
        <path id="패스_10072" data-name="패스 10072" d="M619.576,466.356h-1.445l-3.039-7.967h1.3l2.481,6.962h.027l2.555-6.962h1.211Z" transform="translate(-596.501 -458.253)" fill="#fff"/>
        <path id="패스_10073" data-name="패스 10073" d="M642.741,458.389h1.154v7.967h-1.154Z" transform="translate(-615.48 -458.253)" fill="#fff"/>
        <path id="패스_10074" data-name="패스 10074" d="M657.646,459.4a3.255,3.255,0,0,0-1.662-.447,3.423,3.423,0,0,0-1.265.234,2.744,2.744,0,0,0-.982.648,2.844,2.844,0,0,0-.629,1,3.555,3.555,0,0,0,.008,2.5,2.862,2.862,0,0,0,.656.993,2.963,2.963,0,0,0,.971.638,3.169,3.169,0,0,0,1.181.225,4.359,4.359,0,0,0,.961-.112,2.759,2.759,0,0,0,.8-.278l.068,1.106a3.29,3.29,0,0,1-.884.229,8.4,8.4,0,0,1-.958.055,4.981,4.981,0,0,1-1.731-.29,3.881,3.881,0,0,1-1.355-.838,3.672,3.672,0,0,1-.865-1.317,4.7,4.7,0,0,1-.3-1.706,4.357,4.357,0,0,1,.313-1.663,3.728,3.728,0,0,1,.89-1.3,3.95,3.95,0,0,1,1.366-.833,4.865,4.865,0,0,1,1.7-.291,4.477,4.477,0,0,1,1.82.346Z" transform="translate(-621.601 -457.955)" fill="#fff"/>
        <path id="패스_10075" data-name="패스 10075" d="M675.692,458.389h4.519v1.005h-3.363v2.327h3.061v1.008h-3.061v2.622h3.363v1.005h-4.519Z" transform="translate(-638.096 -458.253)" fill="#fff"/>
      </g>
    </g>
    <g id="그룹_5677" data-name="그룹 5677" transform="translate(112.172 373.431)">
      <g id="그룹_5672" data-name="그룹 5672" transform="translate(39.849 0)">
        <path id="패스_10044" data-name="패스 10044" d="M426.945,419.312c-.329-.122-.59-.208-.79-.26a3.108,3.108,0,0,0-.729-.076,2.472,2.472,0,0,0-.5.052,1.522,1.522,0,0,0-.458.176.906.906,0,0,0-.332.331,1.057,1.057,0,0,0-.118.509.859.859,0,0,0,.337.712,5.643,5.643,0,0,0,1.05.611c.331.151.6.287.816.411a3.344,3.344,0,0,1,.612.46,2.193,2.193,0,0,1,.475.675,2.3,2.3,0,0,1,.178.928,2.387,2.387,0,0,1-.226,1.072,1.882,1.882,0,0,1-.631.743,2.78,2.78,0,0,1-.93.424,4.555,4.555,0,0,1-1.16.135,3.584,3.584,0,0,1-.776-.085,6.911,6.911,0,0,1-.88-.247l.117-1.057a7.441,7.441,0,0,0,.826.267,3.291,3.291,0,0,0,.848.122,2,2,0,0,0,.544-.076,1.766,1.766,0,0,0,.517-.235,1.181,1.181,0,0,0,.378-.412,1.133,1.133,0,0,0,.147-.58,1.058,1.058,0,0,0-.122-.52,1.508,1.508,0,0,0-.342-.413,5.439,5.439,0,0,0-1.05-.582c-.317-.155-.575-.289-.775-.4a3.41,3.41,0,0,1-.581-.413,1.88,1.88,0,0,1-.438-.607,2.021,2.021,0,0,1-.161-.835,1.905,1.905,0,0,1,.729-1.595,2.9,2.9,0,0,1,1.86-.571,5.879,5.879,0,0,1,.868.071,4.018,4.018,0,0,1,.856.218Z" transform="translate(-422.79 -417.975)" fill="#fff"/>
        <path id="패스_10045" data-name="패스 10045" d="M441.7,420.457a3.7,3.7,0,0,1,.77-1.309,3.509,3.509,0,0,1,1.233-.864,4.432,4.432,0,0,1,3.25,0,3.417,3.417,0,0,1,1.237.864,3.677,3.677,0,0,1,.759,1.309,5.023,5.023,0,0,1,.264,1.635,5.112,5.112,0,0,1-.264,1.669,3.744,3.744,0,0,1-.759,1.3,3.329,3.329,0,0,1-1.228.85,4.655,4.655,0,0,1-3.271,0,3.357,3.357,0,0,1-1.225-.85,3.8,3.8,0,0,1-.766-1.3,5.115,5.115,0,0,1-.26-1.669A5.024,5.024,0,0,1,441.7,420.457Zm1.127,2.811a2.93,2.93,0,0,0,.484,1,2.241,2.241,0,0,0,.836.691,2.871,2.871,0,0,0,2.358,0,2.288,2.288,0,0,0,.842-.7,3.011,3.011,0,0,0,.482-1,4.214,4.214,0,0,0,.156-1.173,4.075,4.075,0,0,0-.166-1.173,3.107,3.107,0,0,0-.5-1,2.413,2.413,0,0,0-.837-.691,2.569,2.569,0,0,0-1.154-.253,2.536,2.536,0,0,0-1.147.253,2.379,2.379,0,0,0-.84.691,3.073,3.073,0,0,0-.5,1,4.284,4.284,0,0,0-.009,2.348Z" transform="translate(-435.588 -417.975)" fill="#fff"/>
        <path id="패스_10046" data-name="패스 10046" d="M476.11,419.424a3.277,3.277,0,0,0-1.667-.447,3.376,3.376,0,0,0-1.26.234,2.753,2.753,0,0,0-.986.648,2.87,2.87,0,0,0-.63,1,3.434,3.434,0,0,0-.22,1.235,3.389,3.389,0,0,0,.231,1.265,2.927,2.927,0,0,0,.65.993,3.005,3.005,0,0,0,.978.638,3.142,3.142,0,0,0,1.18.225,4.324,4.324,0,0,0,.957-.112,2.719,2.719,0,0,0,.8-.278l.068,1.106a3.269,3.269,0,0,1-.883.229,8.358,8.358,0,0,1-.953.055,5.015,5.015,0,0,1-1.738-.29,3.8,3.8,0,0,1-1.347-.838,3.615,3.615,0,0,1-.87-1.317,4.651,4.651,0,0,1-.3-1.706,4.287,4.287,0,0,1,.314-1.663,3.714,3.714,0,0,1,.887-1.3,4,4,0,0,1,1.369-.833,4.834,4.834,0,0,1,1.7-.291,4.458,4.458,0,0,1,1.816.346Z" transform="translate(-455.275 -417.975)" fill="#fff"/>
        <path id="패스_10047" data-name="패스 10047" d="M493.97,418.409h1.156v7.967H493.97Z" transform="translate(-471.644 -418.273)" fill="#fff"/>
        <path id="패스_10048" data-name="패스 10048" d="M504.821,418.409h1.217l3.408,7.967h-1.259l-.82-2.008h-3.953l-.82,2.008h-1.215Zm.569,1.072-1.6,3.95H507Z" transform="translate(-476.73 -418.273)" fill="#fff"/>
        <path id="패스_10049" data-name="패스 10049" d="M530.781,418.409h1.162v6.961h3.377v1.006h-4.539Z" transform="translate(-496.91 -418.273)" fill="#fff"/>
      </g>
      <g id="그룹_5673" data-name="그룹 5673" transform="translate(82.239 0)">
        <path id="패스_10050" data-name="패스 10050" d="M562.1,419.312a8.1,8.1,0,0,0-.787-.26,3.113,3.113,0,0,0-.728-.076,2.521,2.521,0,0,0-.5.052,1.472,1.472,0,0,0-.454.176.819.819,0,0,0-.329.331.959.959,0,0,0-.124.509.871.871,0,0,0,.333.712,5.945,5.945,0,0,0,1.052.611,8.761,8.761,0,0,1,.819.411,3.3,3.3,0,0,1,.612.46,2.1,2.1,0,0,1,.473.675,2.23,2.23,0,0,1,.18.928,2.318,2.318,0,0,1-.226,1.072,1.893,1.893,0,0,1-.627.743,2.846,2.846,0,0,1-.933.424,4.548,4.548,0,0,1-1.162.135,3.566,3.566,0,0,1-.773-.085,6.681,6.681,0,0,1-.879-.247l.117-1.057a7.582,7.582,0,0,0,.823.267,3.31,3.31,0,0,0,.849.122,2.052,2.052,0,0,0,.546-.076,1.778,1.778,0,0,0,.514-.235,1.191,1.191,0,0,0,.381-.412,1.12,1.12,0,0,0,.145-.58,1.06,1.06,0,0,0-.124-.52,1.527,1.527,0,0,0-.339-.413,5.614,5.614,0,0,0-1.053-.582c-.319-.155-.574-.289-.774-.4a3.082,3.082,0,0,1-.58-.413,1.82,1.82,0,0,1-.438-.607,1.98,1.98,0,0,1-.163-.835,1.914,1.914,0,0,1,.726-1.595,2.926,2.926,0,0,1,1.864-.571,5.936,5.936,0,0,1,.869.071,3.939,3.939,0,0,1,.856.218Z" transform="translate(-557.945 -417.975)" fill="#fff"/>
        <path id="패스_10051" data-name="패스 10051" d="M578.116,418.409h4.518v1.005h-3.359v2.327h3.06v1.008h-3.06v2.622h3.359v1.006h-4.518Z" transform="translate(-571.789 -418.273)" fill="#fff"/>
        <path id="패스_10052" data-name="패스 10052" d="M603.088,419.424a3.24,3.24,0,0,0-1.664-.447,3.352,3.352,0,0,0-1.257.234,2.743,2.743,0,0,0-.993.648,2.881,2.881,0,0,0-.626,1,3.441,3.441,0,0,0-.222,1.235,3.3,3.3,0,0,0,.234,1.265,2.825,2.825,0,0,0,.649.993,2.973,2.973,0,0,0,.981.638,3.126,3.126,0,0,0,1.18.225,4.376,4.376,0,0,0,.959-.112,2.728,2.728,0,0,0,.8-.278l.067,1.106a3.258,3.258,0,0,1-.882.229,8.351,8.351,0,0,1-.954.055,4.964,4.964,0,0,1-1.733-.29,3.84,3.84,0,0,1-1.356-.838,3.686,3.686,0,0,1-.865-1.317,4.679,4.679,0,0,1-.3-1.706,4.307,4.307,0,0,1,.312-1.663,3.739,3.739,0,0,1,.892-1.3,4.015,4.015,0,0,1,1.363-.833,4.895,4.895,0,0,1,1.7-.291,4.455,4.455,0,0,1,1.814.346Z" transform="translate(-584.82 -417.975)" fill="#fff"/>
        <path id="패스_10053" data-name="패스 10053" d="M627.268,423.079a3.642,3.642,0,0,1-.816,2.547,3.481,3.481,0,0,1-4.637,0,3.641,3.641,0,0,1-.811-2.547v-4.67h1.153v4.518a3.4,3.4,0,0,0,.457,1.908,2.052,2.052,0,0,0,3.045,0,3.394,3.394,0,0,0,.452-1.908v-4.518h1.158Z" transform="translate(-601.227 -418.273)" fill="#fff"/>
        <path id="패스_10054" data-name="패스 10054" d="M647.353,418.409h1.974a8.9,8.9,0,0,1,1.231.079,3.134,3.134,0,0,1,.962.3,1.708,1.708,0,0,1,.691.658,2.2,2.2,0,0,1,.249,1.114,1.675,1.675,0,0,1-.464,1.2,2.115,2.115,0,0,1-1.2.618v.022a1.229,1.229,0,0,1,.434.269,2.041,2.041,0,0,1,.357.531l1.524,3.173h-1.317l-1.234-2.763a1.257,1.257,0,0,0-.524-.646,1.993,1.993,0,0,0-.831-.128h-.695v3.537h-1.155Zm1.155,3.423h.984a2.193,2.193,0,0,0,1.283-.332,1.07,1.07,0,0,0,.461-.911,1.006,1.006,0,0,0-.416-.861,1.994,1.994,0,0,0-1.2-.313h-1.109Z" transform="translate(-619.311 -418.273)" fill="#fff"/>
        <path id="패스_10055" data-name="패스 10055" d="M670.1,418.409h1.155v7.967H670.1Z" transform="translate(-634.921 -418.273)" fill="#fff"/>
        <path id="패스_10056" data-name="패스 10056" d="M679.98,419.414h-2.5v-1.005h6.171v1.005h-2.512v6.962H679.98Z" transform="translate(-639.986 -418.273)" fill="#fff"/>
        <path id="패스_10057" data-name="패스 10057" d="M701.121,423.045l-3.158-4.636h1.355l2.4,3.572,2.348-3.572h1.35l-3.143,4.636v3.331h-1.154Z" transform="translate(-654.049 -418.273)" fill="#fff"/>
      </g>
      <g id="그룹_5670" data-name="그룹 5670" transform="translate(0 0.007)">
        <path id="패스_10076" data-name="패스 10076" d="M295.731,418.433h1.144v3.511l3.408-3.511H301.8l-3.751,3.775,4.048,4.209h-1.669l-3.557-3.911v3.911h-1.144Z" transform="translate(-295.731 -418.296)" fill="#fff"/>
        <path id="패스_10077" data-name="패스 10077" d="M316.811,420.484a3.71,3.71,0,0,1,.761-1.315,3.486,3.486,0,0,1,1.218-.863A4.007,4.007,0,0,1,320.4,418a4.047,4.047,0,0,1,1.613.309,3.417,3.417,0,0,1,1.219.863,3.743,3.743,0,0,1,.754,1.315,5.076,5.076,0,0,1,.258,1.642,5.132,5.132,0,0,1-.258,1.67,3.747,3.747,0,0,1-.754,1.309,3.32,3.32,0,0,1-1.213.852,4.554,4.554,0,0,1-3.237,0,3.323,3.323,0,0,1-1.212-.852,3.751,3.751,0,0,1-.755-1.309,5.16,5.16,0,0,1-.257-1.67A5.1,5.1,0,0,1,316.811,420.484Zm1.11,2.82a3.011,3.011,0,0,0,.48,1,2.286,2.286,0,0,0,.829.692,2.828,2.828,0,0,0,2.333,0,2.261,2.261,0,0,0,.829-.7,3.074,3.074,0,0,0,.48-1,4.346,4.346,0,0,0,.154-1.173,4.152,4.152,0,0,0-.165-1.178,3.134,3.134,0,0,0-.5-1,2.359,2.359,0,0,0-.829-.692,2.7,2.7,0,0,0-2.276,0,2.367,2.367,0,0,0-.829.692,3.112,3.112,0,0,0-.5,1,4.12,4.12,0,0,0-.166,1.178A4.423,4.423,0,0,0,317.921,423.3Z" transform="translate(-310.023 -417.997)" fill="#fff"/>
        <path id="패스_10078" data-name="패스 10078" d="M345.473,418.433h1.956a8.149,8.149,0,0,1,1.212.08,3.054,3.054,0,0,1,.955.3,1.659,1.659,0,0,1,.68.657,2.216,2.216,0,0,1,.252,1.121,1.685,1.685,0,0,1-.463,1.2,2.062,2.062,0,0,1-1.183.618v.023a1.238,1.238,0,0,1,.428.269,2.079,2.079,0,0,1,.349.532l1.51,3.179h-1.3l-1.224-2.768a1.255,1.255,0,0,0-.515-.652,2.073,2.073,0,0,0-.823-.126h-.686v3.545h-1.143Zm1.143,3.431h.972a2.1,2.1,0,0,0,1.27-.337,1.072,1.072,0,0,0,.458-.909,1.028,1.028,0,0,0-.412-.864,1.93,1.93,0,0,0-1.189-.314h-1.1Z" transform="translate(-329.872 -418.296)" fill="#fff"/>
        <path id="패스_10079" data-name="패스 10079" d="M367.607,418.433h4.472v1.007h-3.328v2.333h3.031v1.006h-3.031v2.631h3.328v1.007h-4.472Z" transform="translate(-345.064 -418.296)" fill="#fff"/>
        <path id="패스_10080" data-name="패스 10080" d="M387.754,418.433h1.2l3.373,7.983h-1.246l-.812-2.013h-3.912l-.812,2.013h-1.2Zm.561,1.075-1.59,3.957h3.18Z" transform="translate(-356.553 -418.296)" fill="#fff"/>
      </g>
    </g>
  </g>
</svg>
