<svg xmlns="http://www.w3.org/2000/svg" width="274" height="44" viewBox="0 0 274 44">
  <g id="logo_b" transform="translate(-20.772 -134.791)" opacity="0.6">
    <g id="그룹_33" data-name="그룹 33">
      <g id="그룹_28" data-name="그룹 28">
        <rect id="사각형_12" data-name="사각형 12" width="6.878" height="17.773" transform="translate(65.33 160.451)" fill="#6c6c6c"/>
        <path id="패스_107" data-name="패스 107" d="M68.769,157.9a3.934,3.934,0,1,1,3.886-3.933A3.912,3.912,0,0,1,68.769,157.9Z" fill="#6c6c6c"/>
        <path id="패스_108" data-name="패스 108" d="M56.067,161.527c-.775-.34-1.583-.637-2.369-.927l-.053-.02c-2.417-.887-4.7-1.723-4.613-3.243.053-.973.9-2.013,3.124-2.013a15.224,15.224,0,0,1,7.6,1.953l.32.212a.327.327,0,0,0,.106.015.3.3,0,0,0,.3-.273v-4.643l-.2-.142a15.455,15.455,0,0,0-8.275-2.434c-3.89,0-9.722,2.16-9.847,8.111-.114,5.425,3.781,7.288,7.44,8.612,3.532,1.275,5.447,2.284,5.447,3.965,0,1.755-1.635,2.758-4.482,2.758a13.124,13.124,0,0,1-6.951-2.09l-.289-.206a.307.307,0,0,0-.455.259v4.754l.217.142a17.325,17.325,0,0,0,8.909,2.473c7.366,0,9.979-5,9.979-9.28C61.973,165.876,60.041,163.264,56.067,161.527Z" fill="#6c6c6c"/>
        <path id="패스_109" data-name="패스 109" d="M89.421,161.527c-.776-.34-1.584-.637-2.369-.927l-.054-.02c-2.414-.887-4.7-1.723-4.612-3.243.053-.973.9-2.013,3.124-2.013a15.215,15.215,0,0,1,7.6,1.953l.315.209a.321.321,0,0,0,.112.018.3.3,0,0,0,.3-.27v-3.467c0-.077-.449-2.076-3.683-5.46-9.072-9.5-21.48-13.517-32.749-13.517-16.642,0-32.551,11.167-36.062,20.433a7.344,7.344,0,0,0-.265.776l0,.008h0a8.457,8.457,0,0,0-.3,2.111c0,.106,0,.21,0,.315h0c.038,5.185,3.85,7.007,7.439,8.3,3.532,1.275,5.447,2.284,5.447,3.965,0,1.755-1.634,2.758-4.482,2.758a13.134,13.134,0,0,1-6.951-2.09l-.288-.206a.318.318,0,0,0-.147-.038.307.307,0,0,0-.308.3v4.754l.217.142a17.335,17.335,0,0,0,8.909,2.473c7.365,0,9.979-5,9.979-9.28,0-3.635-1.932-6.247-5.905-7.984-.776-.34-1.584-.637-2.369-.927l-.054-.02c-2.417-.887-4.7-1.723-4.613-3.243.053-.973.9-2.013,3.124-2.013a15.2,15.2,0,0,1,7.6,1.953l.321.212a.326.326,0,0,0,.105.015.3.3,0,0,0,.3-.273v-4.643l-.2-.142a15.462,15.462,0,0,0-8.276-2.434c-.18,0-.366.006-.554.015l.015-.013A60.348,60.348,0,0,1,87,150.1h0a14.168,14.168,0,0,0-1.642-.091c-3.89,0-9.723,2.16-9.848,8.111-.112,5.425,3.782,7.288,7.441,8.612,3.532,1.275,5.446,2.284,5.446,3.965,0,1.755-1.633,2.758-4.482,2.758a13.131,13.131,0,0,1-6.952-2.09l-.292-.209a.311.311,0,0,0-.142-.035.308.308,0,0,0-.31.3v4.749l.218.142a17.324,17.324,0,0,0,8.908,2.473c7.365,0,9.979-5,9.979-9.28C95.327,165.876,93.395,163.264,89.421,161.527Z" fill="#6c6c6c"/>
      </g>
      <g id="그룹_32" data-name="그룹 32">
        <g id="그룹_31" data-name="그룹 31">
          <g id="그룹_29" data-name="그룹 29">
            <path id="패스_110" data-name="패스 110" d="M280.443,176.169V170.4H283.7v3.576h11.071v2.188Z" fill="#6c6c6c"/>
            <path id="패스_111" data-name="패스 111" d="M291.2,171.5v-2.607h-4.347v-2.01H291.2v-1.906l-.168.1c-.351.216-.87.621-3.807.621H283.7v3.329h-3.259V165.7h-5.663v-2.185h13.046a6.089,6.089,0,0,0,3.288-.742l.089-.051v-8.167h3.049V169.4a2.173,2.173,0,0,1-2.059,2.105Z" fill="#6c6c6c"/>
          </g>
          <path id="패스_112" data-name="패스 112" d="M182.874,176.171v-6.908l-.091.042a6.666,6.666,0,0,1-1.807.385c-.647.061-1.523.092-2.607.092H166.886V167.6h6.142v-2.326l-.047-.013a4.677,4.677,0,0,1-3.594-4.4,4.27,4.27,0,0,1,1.082-2.819l.086-.1H167.9v-2.073h5.111v-2.108h3.026v2.108H181.1v2.073h-2.612l.086.1a4.284,4.284,0,0,1,1.082,2.819,4.678,4.678,0,0,1-3.567,4.387l-.046.013V167.6h3.29a10.514,10.514,0,0,0,2.012-.161,6.667,6.667,0,0,0,1.495-.407l.031-.018V154.559h3v19.51a2.172,2.172,0,0,1-2.231,2.1Zm-8.357-17.741a2.45,2.45,0,1,0,2.142,2.433A2.3,2.3,0,0,0,174.517,158.43Z" fill="#6c6c6c"/>
          <path id="패스_113" data-name="패스 113" d="M159.694,176.171V154.559h3.026v7.219h3.141v2.188H162.72v10.1a2.172,2.172,0,0,1-2.23,2.1Z" fill="#6c6c6c"/>
          <path id="패스_114" data-name="패스 114" d="M156.572,168.638a12.342,12.342,0,0,1-5.534-4.236l-.054-.08-.055.08a11.873,11.873,0,0,1-5.537,4.239l-.05.017-1.594-1.843.094-.037c.227-.091,5.558-2.262,5.558-7.516v-4.59h3.169v4.59c0,4.97,5.5,7.492,5.553,7.517l.086.037-1.584,1.844Z" fill="#6c6c6c"/>
          <path id="패스_115" data-name="패스 115" d="M138.78,167.256h-4.03v-2.764h8.527V162.26h-3.229a15.171,15.171,0,0,0,.29-3.019v-4.682H126.98v2.275h10.509l-.023,2.875a20.449,20.449,0,0,1-.134,2.551h-13.2v2.232h7.659v2.764h-5.233v2.3h10.8v6.616h.98a2.026,2.026,0,0,0,2.071-1.978v-5.383A1.59,1.59,0,0,0,138.78,167.256Z" fill="#6c6c6c"/>
          <g id="그룹_30" data-name="그룹 30">
            <path id="패스_116" data-name="패스 116" d="M109.332,168.66h-3.259v7.509H120.4v-2.463H109.332Z" fill="#6c6c6c"/>
            <path id="패스_117" data-name="패스 117" d="M120.143,160.572v-6.013h-3V171.5h.767a2.172,2.172,0,0,0,2.231-2.1v-6.639h3.144v-2.189Z" fill="#6c6c6c"/>
            <path id="패스_118" data-name="패스 118" d="M114.106,161.513a4.658,4.658,0,0,0-1.731-3.571h3v-2.074h-5.065v-2.107h-3.026v2.107h-5.111v2.074h3a4.658,4.658,0,0,0-1.731,3.571,5.357,5.357,0,0,0,10.667,0Zm-7.773,0a2.446,2.446,0,1,1,2.44,2.617A2.537,2.537,0,0,1,106.333,161.513Z" fill="#6c6c6c"/>
          </g>
          <path id="패스_119" data-name="패스 119" d="M188.678,171.33v-2.186h8.99v-3.269h-6.429V154.559h3.026v3.556h9.512v-3.556H206.8v9.215a2.173,2.173,0,0,1-2.231,2.1H200.7v3.269h8.969v2.186Zm5.586-7.643h9.512V160.3h-9.512Z" fill="#6c6c6c"/>
          <path id="패스_120" data-name="패스 120" d="M221.792,165.809a11.453,11.453,0,0,1-5.051-4.227l-.055-.085-.056.085a10.849,10.849,0,0,1-5.049,4.228l-.05.014-1.54-1.656.1-.035a7.487,7.487,0,0,0,4.852-6.954l0-.455h-3.894v-2.166H222.37v2.166h-3.959l0,.455a7.826,7.826,0,0,0,4.738,6.949l.089.037-1.4,1.664Z" fill="#6c6c6c"/>
          <path id="패스_121" data-name="패스 121" d="M225.459,166.57V154.559h3.025v4.077h3.143v2.189h-3.143v3.644a2.17,2.17,0,0,1-2.231,2.1Z" fill="#6c6c6c"/>
          <path id="패스_122" data-name="패스 122" d="M222.551,176.171c-3.191,0-5.788-2.179-5.788-4.858s2.6-4.858,5.788-4.858,5.786,2.18,5.786,4.858S225.742,176.171,222.551,176.171Zm0-7.477a2.618,2.618,0,1,0,2.648,2.619A2.636,2.636,0,0,0,222.551,168.694Z" fill="#6c6c6c"/>
          <path id="패스_123" data-name="패스 123" d="M248.48,166.57v-5.82h-3.76v-2.209h3.76v-3.983h3.05v9.988l-.009.033a2.174,2.174,0,0,1-2.227,1.991Z" fill="#6c6c6c"/>
          <path id="패스_124" data-name="패스 124" d="M253.856,171.573v-2.189h8.986v-3.509h-6.426V154.559h3.027v3.556h9.507v-3.556h3.024v9.215a2.171,2.171,0,0,1-2.231,2.1h-3.871v3.509h8.971v2.189Zm5.587-7.885h9.507V160.3h-9.507Z" fill="#6c6c6c"/>
          <path id="패스_125" data-name="패스 125" d="M245.325,176.171c-3.195,0-5.791-2.179-5.791-4.858s2.6-4.858,5.791-4.858,5.782,2.18,5.782,4.858S248.518,176.171,245.325,176.171Zm0-7.477a2.618,2.618,0,1,0,2.644,2.619A2.639,2.639,0,0,0,245.325,168.694Z" fill="#6c6c6c"/>
          <path id="패스_126" data-name="패스 126" d="M243.919,165.809a11.622,11.622,0,0,1-5.051-3.966l-.053-.084-.059.084a10.817,10.817,0,0,1-5.05,3.967l-.044.014-1.543-1.656.106-.035a7.49,7.49,0,0,0,4.851-6.954l0-.455h-3.893v-2.166H244.5v2.166h-3.961l0,.455a7.827,7.827,0,0,0,4.738,6.949l.09.037-1.4,1.664Z" fill="#6c6c6c"/>
          <path id="패스_127" data-name="패스 127" d="M282.072,162.82c-2.924,0-5.3-2.034-5.3-4.53s2.377-4.529,5.3-4.529,5.3,2.033,5.3,4.529S284.994,162.82,282.072,162.82Zm0-6.831a2.309,2.309,0,1,0,2.119,2.3A2.222,2.222,0,0,0,282.072,155.989Z" fill="#6c6c6c"/>
        </g>
      </g>
    </g>
  </g>
</svg>
