<svg xmlns="http://www.w3.org/2000/svg" width="48" height="48" viewBox="0 0 48 48">
  <g id="그룹_329" data-name="그룹 329" transform="translate(-1802 -2335)">
    <rect id="사각형_102" data-name="사각형 102" width="48" height="48" transform="translate(1802 2335)" fill="none"/>
    <g id="그룹_4391" data-name="그룹 4391" transform="translate(-2.666 -0.423)">
      <g id="그룹_317" data-name="그룹 317" transform="translate(1810 2342)">
        <path id="패스_549" data-name="패스 549" d="M637.46,1422.455a1.358,1.358,0,0,1-1.358-1.358v-3.559a1.358,1.358,0,1,1,2.716,0v3.559A1.358,1.358,0,0,1,637.46,1422.455Z" transform="translate(-618.794 -1416.179)" fill="#71bf45"/>
        <path id="패스_550" data-name="패스 550" d="M613.3,1430.609a1.352,1.352,0,0,1-.96-.4l-2.444-2.444a1.358,1.358,0,0,1,1.92-1.921l2.444,2.444a1.358,1.358,0,0,1-.96,2.318Z" transform="translate(-604.132 -1421.252)" fill="#71bf45"/>
        <path id="패스_551" data-name="패스 551" d="M602.568,1451.535h-3.56a1.358,1.358,0,1,1,0-2.716h3.56a1.358,1.358,0,1,1,0,2.716Z" transform="translate(-597.65 -1434.041)" fill="#71bf45"/>
        <path id="패스_552" data-name="패스 552" d="M658.669,1430.609a1.358,1.358,0,0,1-.96-2.318l2.443-2.444a1.358,1.358,0,1,1,1.921,1.921l-2.444,2.444A1.352,1.352,0,0,1,658.669,1430.609Z" transform="translate(-630.501 -1421.252)" fill="#71bf45"/>
        <path id="패스_553" data-name="패스 553" d="M671.608,1451.535h-3.56a1.358,1.358,0,1,1,0-2.716h3.56a1.358,1.358,0,1,1,0,2.716Z" transform="translate(-635.634 -1434.041)" fill="#71bf45"/>
      </g>
      <g id="그룹_4382" data-name="그룹 4382" transform="translate(1818.375 2353.998)">
        <g id="그룹_4381" data-name="그룹 4381" transform="translate(2.362)">
          <path id="패스_958" data-name="패스 958" d="M72.781,338.229v-8.774a7.93,7.93,0,0,1,7.93-7.93h0a7.93,7.93,0,0,1,7.93,7.93v8.774" transform="translate(-72.781 -321.525)" fill="none" stroke="#284a72" stroke-linecap="round" stroke-linejoin="round" stroke-width="2"/>
          <path id="패스_959" data-name="패스 959" d="M90.58,331.717a4.56,4.56,0,0,0-4.556-4.556" transform="translate(-78.094 -323.786)" fill="none" stroke="#71bf45" stroke-linecap="round" stroke-linejoin="round" stroke-width="2"/>
        </g>
        <path id="패스_960" data-name="패스 960" d="M89.421,353.418a2.024,2.024,0,0,1-2.025,2.025H70.861a2.024,2.024,0,0,1-2.025-2.025h0a2.024,2.024,0,0,1,2.025-2.025H87.4a2.025,2.025,0,0,1,2.025,2.025Z" transform="translate(-68.836 -333.508)" fill="none" stroke="#284a72" stroke-linecap="round" stroke-linejoin="round" stroke-width="2"/>
      </g>
    </g>
  </g>
</svg>
