<svg xmlns="http://www.w3.org/2000/svg" width="48" height="48" viewBox="0 0 48 48">
  <g id="그룹_330" data-name="그룹 330" transform="translate(-1802 -2422)">
    <rect id="사각형_103" data-name="사각형 103" width="48" height="48" transform="translate(1802 2422)" fill="none"/>
    <g id="그룹_323" data-name="그룹 323" transform="translate(1209.132 1528.997)">
      <g id="그룹_321" data-name="그룹 321" transform="translate(600.868 901.003)">
        <g id="그룹_320" data-name="그룹 320" transform="translate(0 0)">
          <path id="패스_555" data-name="패스 555" d="M631.637,933H602.1l-1.231-1.231V902.234L602.1,901h21.333l.87.361,8.205,8.205.361.87v21.333Zm-28.308-2.461h27.077V910.948l-7.484-7.484H603.33Z" transform="translate(-600.868 -901.003)" fill="#284a72"/>
          <path id="패스_556" data-name="패스 556" d="M663.173,913.137h-8.961l-1.344-1.344v-8.961l2.294-.95,8.961,8.961Zm-7.617-2.688h4.372l-4.372-4.372Z" transform="translate(-632.517 -901.488)" fill="#284a72"/>
        </g>
      </g>
      <g id="그룹_322" data-name="그룹 322" transform="translate(608.038 908.477)">
        <rect id="사각형_95" data-name="사각형 95" width="8.699" height="2.688" transform="translate(0 0)" fill="#71bf45"/>
        <rect id="사각형_96" data-name="사각형 96" width="17.661" height="2.688" transform="translate(0 7.246)" fill="#71bf45"/>
        <rect id="사각형_97" data-name="사각형 97" width="17.661" height="2.688" transform="translate(0 14.492)" fill="#71bf45"/>
      </g>
    </g>
  </g>
</svg>
