<svg xmlns="http://www.w3.org/2000/svg" width="26" height="26" viewBox="0 0 26 26">
  <g id="그룹_4602" data-name="그룹 4602" transform="translate(-66.856 -340.856)">
    <rect id="사각형_85" data-name="사각형 85" width="26" height="26" transform="translate(66.856 340.856)" fill="none"/>
    <path id="패스_10019" data-name="패스 10019" d="M421.922,38.918c-4.971,0-9,3.274-9,7.315a7.145,7.145,0,0,0,4.27,6.223c-.188.722-.682,2.617-.78,3.022-.122.5.179.5.377.362.155-.106,2.466-1.722,3.463-2.419a11.069,11.069,0,0,0,1.671.126c4.971,0,9-3.274,9-7.314s-4.029-7.315-9-7.315" transform="translate(-342.066 306.938)" fill="none" stroke="#2e6bd7" stroke-width="1"/>
  </g>
</svg>
