<svg xmlns="http://www.w3.org/2000/svg" width="26" height="26" viewBox="0 0 26 26">
  <g id="그룹_5559" data-name="그룹 5559" transform="translate(-660.868 -1090.257)">
    <rect id="사각형_3054" data-name="사각형 3054" width="26" height="26" transform="translate(660.868 1090.257)" fill="none"/>
    <path id="패스_10011" data-name="패스 10011" d="M690.29,1105.049l-.432-.273a4.267,4.267,0,0,1-.738-6.625l3.718-3.718a4.267,4.267,0,0,1,6.035,6.035l-2.363,2.363-.722-.722,2.363-2.363a3.246,3.246,0,0,0-4.59-4.59l-3.718,3.718a3.245,3.245,0,0,0,.561,5.038l.432.272Z" transform="translate(-17.056 0.856)" fill="#2e6bd7"/>
    <path id="패스_10012" data-name="패스 10012" d="M668.083,1130.757a4.267,4.267,0,0,1-3.017-7.28l2.363-2.363.722.722-2.363,2.363a3.246,3.246,0,0,0,4.59,4.59l3.718-3.718a3.244,3.244,0,0,0-.571-5.044l-.433-.271.542-.866.433.271a4.266,4.266,0,0,1,.751,6.633l-3.718,3.718A4.238,4.238,0,0,1,668.083,1130.757Z" transform="translate(0.854 -18.285)" fill="#2e6bd7"/>
  </g>
</svg>
