<svg xmlns="http://www.w3.org/2000/svg" width="20.5" height="16.507" viewBox="0 0 20.5 16.507">
  <g id="구성_요소_2_1" data-name="구성 요소 2 – 1" transform="translate(0.5)">
    <path id="패스_136" data-name="패스 136" d="M340.416,705.845c0-3.757,4.029-6.8,9-6.8s9,3.046,9,6.8-4.029,6.8-9,6.8a11.954,11.954,0,0,1-1.433-.087c-.239.377-1.289,1.742-3.864,1.435a4.191,4.191,0,0,0,1.181-2.1C342.4,710.766,340.416,708.481,340.416,705.845Z" transform="translate(-340.416 -698.042)" fill="none" stroke="#fff" stroke-linecap="round" stroke-linejoin="round" stroke-width="1"/>
    <circle id="타원_4" data-name="타원 4" cx="0.75" cy="0.75" r="0.75" transform="translate(5.584 6.958)" fill="#fff"/>
    <circle id="타원_5" data-name="타원 5" cx="0.75" cy="0.75" r="0.75" transform="translate(8.584 6.958)" fill="#fff"/>
    <circle id="타원_6" data-name="타원 6" cx="0.75" cy="0.75" r="0.75" transform="translate(11.584 6.958)" fill="#fff"/>
    <path id="Ellipse_4" data-name="Ellipse 4" d="M3,0A3,3,0,1,1,0,3,3,3,0,0,1,3,0Z" transform="translate(14)" fill="#fff447"/>
  </g>
</svg>
