<svg xmlns="http://www.w3.org/2000/svg" width="56" height="30" viewBox="0 0 56 30">
  <g id="그룹_6682" data-name="그룹 6682" transform="translate(-192.195 -326.176)">
    <path id="패스_7356" data-name="패스 7356" d="M244.327,326.343a.541.541,0,0,0-.393-.167H223.4a.542.542,0,0,0-.393.167l-3.193,3.384-.258.273a.548.548,0,0,1-.786,0l-3.451-3.657a.541.541,0,0,0-.393-.167H196.456a.542.542,0,0,0-.393.167l-3.735,3.957a.482.482,0,0,0-.134.331v14.2a.513.513,0,0,0,.527.5h17.784a.513.513,0,0,1,.527.5V346.9a.513.513,0,0,1-.527.5H196.457a.541.541,0,0,0-.393.167l-3.735,3.957a.483.483,0,0,0-.134.331v3.823a.513.513,0,0,0,.527.5H219.29a.513.513,0,0,0,.527-.5V337.525a.513.513,0,0,0-.527-.5H201.506a.513.513,0,0,1-.527-.5V335.45a.513.513,0,0,1,.527-.5h27.2a.513.513,0,0,1,.527.5v20.229a.513.513,0,0,0,.527.5h8.488a.513.513,0,0,0,.527-.5V335.45a.513.513,0,0,1,.527-.5h8.365a.513.513,0,0,0,.527-.5v-3.823a.482.482,0,0,0-.133-.331Z" transform="translate(0 0)" fill="#a7a7a7"/>
  </g>
</svg>
