<svg xmlns="http://www.w3.org/2000/svg" width="140" height="75.6" viewBox="0 0 140 75.6">
  <g id="그룹_6682" data-name="그룹 6682" transform="translate(-192.195 -326.176)">
    <path id="패스_7356" data-name="패스 7356" d="M322.525,326.6a1.347,1.347,0,0,0-.983-.42H270.214a1.349,1.349,0,0,0-.983.42l-7.983,8.527-.644.688a1.361,1.361,0,0,1-1.966,0L250.01,326.6a1.347,1.347,0,0,0-.983-.42H202.848a1.349,1.349,0,0,0-.983.42l-9.336,9.973a1.221,1.221,0,0,0-.334.835v35.775a1.287,1.287,0,0,0,1.317,1.255h44.459a1.286,1.286,0,0,1,1.317,1.254v2.72a1.287,1.287,0,0,1-1.317,1.254H202.849a1.347,1.347,0,0,0-.983.42l-9.337,9.973a1.221,1.221,0,0,0-.334.834v9.634a1.287,1.287,0,0,0,1.317,1.254h66.42a1.287,1.287,0,0,0,1.317-1.254V354.774a1.287,1.287,0,0,0-1.317-1.255H215.472a1.286,1.286,0,0,1-1.317-1.254v-2.72a1.287,1.287,0,0,1,1.317-1.254h68.005a1.287,1.287,0,0,1,1.317,1.254v50.976a1.287,1.287,0,0,0,1.317,1.254h21.221a1.287,1.287,0,0,0,1.317-1.254V349.546a1.287,1.287,0,0,1,1.317-1.254h20.913a1.286,1.286,0,0,0,1.316-1.254V337.4a1.22,1.22,0,0,0-.334-.835Z" transform="translate(0 0)" fill="#003368"/>
  </g>
</svg>
