<svg xmlns="http://www.w3.org/2000/svg" width="49.5" height="49.5" viewBox="0 0 49.5 49.5">
  <g id="그룹_6995" data-name="그룹 6995" transform="translate(-387.302 -371.879)">
    <path id="패스_7520" data-name="패스 7520" d="M388.052,462.716v-5.662a5.924,5.924,0,0,1,3.367-5.344l4.775-2.286,4.775,2.286a5.925,5.925,0,0,1,3.367,5.344v5.662" transform="translate(0 -42.088)" fill="#fff" stroke="#014099" stroke-linecap="round" stroke-linejoin="round" stroke-width="1.5"/>
    <line id="선_822" data-name="선 822" y2="5.828" transform="translate(391.193 414.801)" fill="#fff" stroke="#014099" stroke-linecap="round" stroke-linejoin="round" stroke-width="1.5"/>
    <line id="선_823" data-name="선 823" y2="5.828" transform="translate(400.715 414.801)" fill="#fff" stroke="#014099" stroke-linecap="round" stroke-linejoin="round" stroke-width="1.5"/>
    <rect id="사각형_2965" data-name="사각형 2965" width="6.717" height="8.836" rx="3.359" transform="translate(392.835 400.464)" fill="#fff" stroke="#014099" stroke-linecap="round" stroke-linejoin="round" stroke-width="1.5"/>
    <path id="패스_7521" data-name="패스 7521" d="M432.869,374.027a16.921,16.921,0,0,0-13.682,26.883l-2.085,5.809,5.809-2.085a16.924,16.924,0,1,0,9.958-30.607Z" transform="translate(-13.742 -1.399)" fill="#eef3f9" stroke="#014099" stroke-linecap="round" stroke-linejoin="round" stroke-width="1.5"/>
    <g id="그룹_6994" data-name="그룹 6994" transform="translate(413.978 382.259)">
      <path id="패스_7522" data-name="패스 7522" d="M443.883,397.283c.9-.574,1.591-1.065,1.591-1.862a1.252,1.252,0,0,0-1.348-1.218,1.427,1.427,0,0,0-1.483,1.406H439.1c.028-3.006,2.311-4.286,5.056-4.286,3.017,0,5.242,1.315,5.242,3.9a3.827,3.827,0,0,1-2.319,3.455,2.437,2.437,0,0,0-1.582,2.3v.318h-3.274v-.318C442.222,398.675,442.8,397.962,443.883,397.283Zm.03,4.854a1.888,1.888,0,1,1,0,3.774,1.888,1.888,0,1,1,0-3.774Z" transform="translate(-439.099 -391.322)" fill="#014099"/>
    </g>
  </g>
</svg>
