<svg xmlns="http://www.w3.org/2000/svg" width="65.5" height="68.5" viewBox="0 0 65.5 68.5">
  <g id="그룹_6995" data-name="그룹 6995" transform="translate(0.75 0.75)">
    <path id="패스_7520" data-name="패스 7520" d="M388.052,467.609v-7.746a8.105,8.105,0,0,1,4.606-7.311l6.533-3.127,6.533,3.127a8.106,8.106,0,0,1,4.606,7.311v7.746" transform="translate(-388.052 -400.609)" fill="#fff" stroke="#014099" stroke-linecap="round" stroke-linejoin="round" stroke-width="1.5"/>
    <line id="선_822" data-name="선 822" y2="7.973" transform="translate(4.298 59.027)" fill="#fff" stroke="#014099" stroke-linecap="round" stroke-linejoin="round" stroke-width="1.5"/>
    <line id="선_823" data-name="선 823" y2="7.973" transform="translate(17.617 59.027)" fill="#fff" stroke="#014099" stroke-linecap="round" stroke-linejoin="round" stroke-width="1.5"/>
    <rect id="사각형_2965" data-name="사각형 2965" width="9.19" height="12.088" rx="4.595" transform="translate(6.544 38.866)" fill="#fff" stroke="#014099" stroke-linecap="round" stroke-linejoin="round" stroke-width="1.5"/>
    <path id="패스_7521" data-name="패스 7521" d="M439.1,374.027a23.151,23.151,0,0,0-18.719,36.779l-2.852,7.947,7.947-2.852A23.154,23.154,0,1,0,439.1,374.027Z" transform="translate(-398.255 -374.027)" fill="#eef3f9" stroke="#014099" stroke-linecap="round" stroke-linejoin="round" stroke-width="1.5"/>
    <g id="그룹_6994" data-name="그룹 6994" transform="translate(33.021 10.943)">
      <path id="패스_7522" data-name="패스 7522" d="M446.743,401.133c1.437-.945,2.542-1.754,2.542-3.065a2.024,2.024,0,0,0-2.153-2.005,2.311,2.311,0,0,0-2.37,2.314H439.1c.045-4.947,3.692-7.054,8.079-7.054,4.821,0,8.376,2.165,8.376,6.416,0,2.746-1.493,4.387-3.705,5.686-1.674.98-2.529,1.915-2.529,3.783v.524h-5.231v-.524C444.089,403.424,445.011,402.251,446.743,401.133Zm.048,7.989a3.106,3.106,0,1,1,0,6.211,3.106,3.106,0,1,1,0-6.211Z" transform="translate(-439.099 -391.322)" fill="#014099"/>
    </g>
  </g>
</svg>
