<svg xmlns="http://www.w3.org/2000/svg" xmlns:xlink="http://www.w3.org/1999/xlink" width="17" height="14" viewBox="0 0 17 14">
  <defs>
    <linearGradient id="linear-gradient" y1="0.5" x2="1" y2="0.5" gradientUnits="objectBoundingBox">
      <stop offset="0" stop-color="#b47026"/>
      <stop offset="0.047" stop-color="#bb792a"/>
      <stop offset="0.125" stop-color="#cf9237"/>
      <stop offset="0.199" stop-color="#e8b147"/>
      <stop offset="0.29" stop-color="#edc25b"/>
      <stop offset="0.433" stop-color="#f4d877"/>
      <stop offset="0.516" stop-color="#f7e182"/>
      <stop offset="0.704" stop-color="#ecbf59"/>
      <stop offset="0.812" stop-color="#e8b147"/>
      <stop offset="0.844" stop-color="#da9f3e"/>
      <stop offset="0.904" stop-color="#c58530"/>
      <stop offset="0.958" stop-color="#b87528"/>
      <stop offset="1" stop-color="#b47026"/>
    </linearGradient>
  </defs>
  <g id="crown_ic" transform="translate(-583.031 -40.511)">
    <g id="그룹_6718" data-name="그룹 6718" transform="translate(584.046 52.589)">
      <path id="패스_7404" data-name="패스 7404" d="M585.031,68.121h15.22V66.2H584.989Z" transform="translate(-584.989 -66.199)" fill="url(#linear-gradient)"/>
    </g>
    <g id="그룹_6719" data-name="그룹 6719" transform="translate(583.031 40.511)">
      <path id="패스_7405" data-name="패스 7405" d="M583.72,44.242a.766.766,0,0,0,.094-.008l.178,7.384h15.34V44.1h.01a.643.643,0,1,0-.689-.641.62.62,0,0,0,.238.481l-4.4,4.416-2.914-6.6a.645.645,0,0,0,.441-.6.691.691,0,0,0-1.378,0,.643.643,0,0,0,.454.6l-2.552,6.717-4.418-4.35a.627.627,0,0,0,.286-.519.691.691,0,1,0-.689.641Z" transform="translate(-583.031 -40.511)" fill="url(#linear-gradient)"/>
    </g>
  </g>
</svg>
