<svg xmlns="http://www.w3.org/2000/svg" width="41" height="41" viewBox="0 0 41 41">
  <g id="그룹_5027" data-name="그룹 5027" transform="translate(743.24 -396.952)">
    <path id="패스_1037" data-name="패스 1037" d="M-708.238,431.948a20.516,20.516,0,0,0,0-28.991,20.379,20.379,0,0,0-14.5-6,20.378,20.378,0,0,0-14.5,6,20.516,20.516,0,0,0,0,28.991,20.38,20.38,0,0,0,14.5,6A20.381,20.381,0,0,0-708.238,431.948Zm-1.656-4.755-22.591-22.581a15.889,15.889,0,0,1,9.745-3.275,16.022,16.022,0,0,1,11.4,4.72,16.006,16.006,0,0,1,4.723,11.4A15.874,15.874,0,0,1-709.894,427.192Zm-3.1,3.1a15.9,15.9,0,0,1-9.745,3.275,16.021,16.021,0,0,1-11.4-4.72,16,16,0,0,1-4.722-11.4,15.877,15.877,0,0,1,3.276-9.74Z" transform="translate(0 0)" fill="#e50717"/>
    <g id="그룹_5026" data-name="그룹 5026" transform="translate(-734.02 408.595)">
      <path id="패스_1038" data-name="패스 1038" d="M-719.866,436.564h-3.874V422.351l-3.083,1.184.007-3.671,3.076-1.666h3.874Z" transform="translate(726.823 -417.771)" fill="#282828"/>
      <path id="패스_1039" data-name="패스 1039" d="M-702.753,430.05a1.258,1.258,0,0,1-.492.09,6.308,6.308,0,0,1-3.115-.789,5.889,5.889,0,0,1-2.259-2.208,6.238,6.238,0,0,1-.835-3.222,6.387,6.387,0,0,1,.888-3.38,6.094,6.094,0,0,1,2.4-2.265,7.006,7.006,0,0,1,3.329-.8,7.007,7.007,0,0,1,3.329.8,6.125,6.125,0,0,1,2.4,2.254,6.333,6.333,0,0,1,.888,3.369,7.231,7.231,0,0,1-.385,2.377,13.907,13.907,0,0,1-1.2,2.49l-4.5,7.5h-4.41Zm1.969-4.079a2.967,2.967,0,0,0,.771-2.1,2.969,2.969,0,0,0-.771-2.1,2.666,2.666,0,0,0-2.055-.834,2.665,2.665,0,0,0-2.055.834,2.969,2.969,0,0,0-.771,2.1,2.967,2.967,0,0,0,.771,2.1,2.661,2.661,0,0,0,2.055.834A2.662,2.662,0,0,0-700.784,425.971Z" transform="translate(719.733 -417.476)" fill="#282828"/>
    </g>
  </g>
</svg>
