<svg xmlns="http://www.w3.org/2000/svg" width="96" height="61.5" viewBox="0 0 96 61.5">
  <g id="그룹_14242" data-name="그룹 14242" transform="translate(-88.825 -328.614)">
    <rect id="사각형_2917" data-name="사각형 2917" width="49.243" height="30.586" transform="translate(113.969 358.777)" fill="#fff" stroke="#000" stroke-linejoin="round" stroke-width="1.5"/>
    <rect id="사각형_2918" data-name="사각형 2918" width="54.523" height="10.077" transform="translate(111.317 350.359)" fill="#fff" stroke="#000" stroke-linejoin="round" stroke-width="1.5"/>
    <rect id="사각형_2919" data-name="사각형 2919" width="49.243" height="7.121" transform="translate(113.969 359.983)" fill="#e3e3e3" style="mix-blend-mode: multiply;isolation: isolate"/>
    <rect id="사각형_2920" data-name="사각형 2920" width="8.743" height="10.077" transform="translate(156.506 350.359)" fill="#e3e3e3" style="mix-blend-mode: multiply;isolation: isolate"/>
    <rect id="사각형_2921" data-name="사각형 2921" width="10.236" height="40.664" transform="translate(133.514 348.7)" fill="#fff" stroke="#000" stroke-linejoin="round" stroke-width="1.5"/>
    <rect id="사각형_2922" data-name="사각형 2922" width="6.344" height="40.664" transform="translate(137.355 348.7)" fill="#56cbf9" style="mix-blend-mode: multiply;isolation: isolate"/>
    <path id="패스_7447" data-name="패스 7447" d="M121.84,349.86h13.422l-9.491-9.492A13.377,13.377,0,0,0,121.84,349.86Z" transform="translate(3.977 1.022)" fill="#fff" stroke="#000" stroke-linejoin="round" stroke-width="1.5"/>
    <path id="패스_7448" data-name="패스 7448" d="M142.953,340.368l-9.491,9.492h13.423A13.38,13.38,0,0,0,142.953,340.368Z" transform="translate(5.377 1.022)" fill="#fff" stroke="#000" stroke-linejoin="round" stroke-width="1.5"/>
    <path id="패스_7449" data-name="패스 7449" d="M124.84,349.606H134.8l-7.6-7.6A13.357,13.357,0,0,0,124.84,349.606Z" transform="translate(4.387 1.201)" fill="#56cbf9" style="mix-blend-mode: multiply;isolation: isolate"/>
    <path id="패스_7450" data-name="패스 7450" d="M136.462,349.606h9.958a13.349,13.349,0,0,0-2.362-7.6Z" transform="translate(5.803 1.201)" fill="#56cbf9" style="mix-blend-mode: multiply;isolation: isolate"/>
    <circle id="타원_315" data-name="타원 315" cx="3.021" cy="3.021" r="3.021" transform="translate(167.414 329.364)" fill="none" stroke="#56cbf9" stroke-width="1.5"/>
    <g id="그룹_6880" data-name="그룹 6880" transform="translate(177.007 344.66)">
      <line id="선_809" data-name="선 809" y2="7.818" transform="translate(3.909)" fill="#fff" stroke="#000" stroke-linejoin="round" stroke-width="1.5"/>
      <line id="선_810" data-name="선 810" x2="7.818" transform="translate(0 3.909)" fill="#fff" stroke="#000" stroke-linejoin="round" stroke-width="1.5"/>
    </g>
    <circle id="타원_316" data-name="타원 316" cx="3.021" cy="3.021" r="3.021" transform="translate(102.72 333.732)" fill="#fff" stroke="#000" stroke-linejoin="round" stroke-width="1.5"/>
    <circle id="타원_317" data-name="타원 317" cx="3.021" cy="3.021" r="3.021" transform="translate(99.592 371.668)" fill="#fff" stroke="#000" stroke-linejoin="round" stroke-width="1.5"/>
    <g id="그룹_6884" data-name="그룹 6884" transform="translate(88.825 350.408)">
      <g id="그룹_6883" data-name="그룹 6883">
        <g id="그룹_6881" data-name="그룹 6881" transform="translate(3.909)">
          <line id="선_811" data-name="선 811" y2="7.818" fill="none" stroke="#56cbf9" stroke-width="1.5"/>
        </g>
        <g id="그룹_6882" data-name="그룹 6882" transform="translate(0 3.909)">
          <line id="선_812" data-name="선 812" x2="7.818" fill="none" stroke="#56cbf9" stroke-width="1.5"/>
        </g>
      </g>
    </g>
    <g id="그룹_6888" data-name="그룹 6888" transform="translate(173.012 368.271)">
      <g id="그룹_6887" data-name="그룹 6887">
        <g id="그룹_6885" data-name="그룹 6885" transform="translate(3.909)">
          <line id="선_813" data-name="선 813" y2="7.818" fill="none" stroke="#56cbf9" stroke-width="1.5"/>
        </g>
        <g id="그룹_6886" data-name="그룹 6886" transform="translate(0 3.909)">
          <line id="선_814" data-name="선 814" x2="7.818" fill="none" stroke="#56cbf9" stroke-width="1.5"/>
        </g>
      </g>
    </g>
  </g>
</svg>
