<svg xmlns="http://www.w3.org/2000/svg" xmlns:xlink="http://www.w3.org/1999/xlink" width="635" height="200" viewBox="0 0 635 200">
  <defs>
    <clipPath id="clip-path">
      <rect id="사각형_2986" data-name="사각형 2986" width="635" height="200" rx="20" fill="#f5eff9"/>
    </clipPath>
    <clipPath id="clip-path-2">
      <path id="SVGID" d="M154.907,362.975a59.532,59.532,0,1,1,0-84.19A59.534,59.534,0,0,1,154.907,362.975Z" transform="translate(-53.281 -261.348)" fill="#ffd9ee"/>
    </clipPath>
  </defs>
  <g id="bg" transform="translate(-970 -1508)">
    <rect id="사각형_3007" data-name="사각형 3007" width="635" height="200" rx="16" transform="translate(970 1508)" fill="#fff0f5"/>
    <g id="마스크_그룹_5" data-name="마스크 그룹 5" transform="translate(970 1508)" clip-path="url(#clip-path)">
      <path id="패스_1673" data-name="패스 1673" d="M378.749,189.1a29.428,29.428,0,1,1-29.427-29.661A29.544,29.544,0,0,1,378.749,189.1Z" transform="translate(71.036 -182.626)" fill="#ffd9ee"/>
      <path id="패스_1676" data-name="패스 1676" d="M335.894,167.435a8,8,0,1,1-8-8A8,8,0,0,1,335.894,167.435Z" transform="translate(56.105 -37.435)" fill="#ffd9ee"/>
      <path id="패스_1674" data-name="패스 1674" d="M359.582,179.28a19.844,19.844,0,1,1-19.844-19.845A19.844,19.844,0,0,1,359.582,179.28Z" transform="translate(286.227 -99)" fill="none" stroke="#ffd9ee" stroke-width="10"/>
      <g id="그룹_465" data-name="그룹 465" transform="translate(304.937 -59.531)" clip-path="url(#clip-path-2)">
        <g id="그룹_464" data-name="그룹 464" transform="translate(-53.853 -49.428)">
          <g id="그룹_450" data-name="그룹 450" transform="translate(0)">
            <g id="그룹_443" data-name="그룹 443" transform="translate(57.78 57.779)">
              <g id="그룹_438" data-name="그룹 438" transform="translate(0 0)">
                <rect id="사각형_2987" data-name="사각형 2987" width="145.683" height="2.926" transform="translate(0 103.014) rotate(-45)" fill="#ffd9ee"/>
              </g>
              <g id="그룹_439" data-name="그룹 439" transform="translate(11.507 11.504)">
                <rect id="사각형_2988" data-name="사각형 2988" width="145.683" height="2.926" transform="translate(0 103.015) rotate(-45.001)" fill="#ffd9ee"/>
              </g>
              <g id="그룹_440" data-name="그룹 440" transform="translate(22.864 22.864)">
                <rect id="사각형_2989" data-name="사각형 2989" width="145.683" height="2.926" transform="translate(0 103.012) rotate(-44.999)" fill="#ffd9ee"/>
              </g>
              <g id="그룹_441" data-name="그룹 441" transform="translate(34.37 34.368)">
                <rect id="사각형_2990" data-name="사각형 2990" width="145.683" height="2.926" transform="matrix(0.707, -0.707, 0.707, 0.707, 0, 103.015)" fill="#ffd9ee"/>
              </g>
              <g id="그룹_442" data-name="그룹 442" transform="translate(46.34 46.339)">
                <rect id="사각형_2991" data-name="사각형 2991" width="145.684" height="2.926" transform="matrix(0.707, -0.707, 0.707, 0.707, 0, 103.015)" fill="#ffd9ee"/>
              </g>
            </g>
            <g id="그룹_449" data-name="그룹 449">
              <g id="그룹_444" data-name="그룹 444">
                <rect id="사각형_2992" data-name="사각형 2992" width="145.682" height="2.926" transform="translate(0 103.013) rotate(-45)" fill="#ffd9ee"/>
              </g>
              <g id="그룹_445" data-name="그룹 445" transform="translate(11.972 11.97)">
                <rect id="사각형_2993" data-name="사각형 2993" width="145.683" height="2.926" transform="translate(0 103.014) rotate(-45)" fill="#ffd9ee"/>
              </g>
              <g id="그룹_446" data-name="그룹 446" transform="translate(23.475 23.475)">
                <rect id="사각형_2994" data-name="사각형 2994" width="145.683" height="2.926" transform="matrix(0.707, -0.707, 0.707, 0.707, 0, 103.013)" fill="#ffd9ee"/>
              </g>
              <g id="그룹_447" data-name="그룹 447" transform="translate(34.836 34.833)">
                <rect id="사각형_2995" data-name="사각형 2995" width="145.683" height="2.926" transform="translate(0 103.015) rotate(-45.001)" fill="#ffd9ee"/>
              </g>
              <g id="그룹_448" data-name="그룹 448" transform="translate(46.34 46.339)">
                <rect id="사각형_2996" data-name="사각형 2996" width="145.683" height="2.926" transform="translate(0 103.014) rotate(-45)" fill="#ffd9ee"/>
              </g>
            </g>
          </g>
          <g id="그룹_463" data-name="그룹 463" transform="translate(5.721 5.721)">
            <g id="그룹_456" data-name="그룹 456" transform="translate(57.781 57.778)">
              <g id="그룹_451" data-name="그룹 451" transform="translate(0 0)">
                <rect id="사각형_2997" data-name="사각형 2997" width="145.682" height="2.926" transform="translate(0 103.015) rotate(-45.001)" fill="#ffd9ee"/>
              </g>
              <g id="그룹_452" data-name="그룹 452" transform="translate(11.504 11.505)">
                <rect id="사각형_2998" data-name="사각형 2998" width="145.683" height="2.926" transform="translate(0 103.014) rotate(-45)" fill="#ffd9ee"/>
              </g>
              <g id="그룹_453" data-name="그룹 453" transform="translate(22.863 22.865)">
                <rect id="사각형_2999" data-name="사각형 2999" width="145.683" height="2.926" transform="translate(0 103.013) rotate(-45)" fill="#ffd9ee"/>
              </g>
              <g id="그룹_454" data-name="그룹 454" transform="translate(34.369 34.368)">
                <rect id="사각형_3000" data-name="사각형 3000" width="145.683" height="2.926" transform="matrix(0.707, -0.707, 0.707, 0.707, 0, 103.015)" fill="#ffd9ee"/>
              </g>
              <g id="그룹_455" data-name="그룹 455" transform="translate(46.34 46.339)">
                <rect id="사각형_3001" data-name="사각형 3001" width="145.683" height="2.926" transform="matrix(0.707, -0.707, 0.707, 0.707, 0, 103.015)" fill="#ffd9ee"/>
              </g>
            </g>
            <g id="그룹_462" data-name="그룹 462" transform="translate(0 0)">
              <g id="그룹_457" data-name="그룹 457">
                <rect id="사각형_3002" data-name="사각형 3002" width="145.682" height="2.926" transform="translate(0 103.012) rotate(-44.999)" fill="#ffd9ee"/>
              </g>
              <g id="그룹_458" data-name="그룹 458" transform="translate(11.971 11.97)">
                <rect id="사각형_3003" data-name="사각형 3003" width="145.683" height="2.926" transform="translate(0 103.013) rotate(-45)" fill="#ffd9ee"/>
              </g>
              <g id="그룹_459" data-name="그룹 459" transform="translate(23.476 23.474)">
                <rect id="사각형_3004" data-name="사각형 3004" width="145.683" height="2.926" transform="translate(0 103.014) rotate(-45)" fill="#ffd9ee"/>
              </g>
              <g id="그룹_460" data-name="그룹 460" transform="translate(34.836 34.832)">
                <rect id="사각형_3005" data-name="사각형 3005" width="145.683" height="2.926" transform="translate(0 103.015) rotate(-45.001)" fill="#ffd9ee"/>
              </g>
              <g id="그룹_461" data-name="그룹 461" transform="translate(46.34 46.339)">
                <rect id="사각형_3006" data-name="사각형 3006" width="145.683" height="2.926" transform="translate(0 103.014) rotate(-45)" fill="#ffd9ee"/>
              </g>
            </g>
          </g>
        </g>
      </g>
    </g>
    <g id="마스크_그룹_6" data-name="마스크 그룹 6" transform="translate(970 1508)" clip-path="url(#clip-path)">
      <g id="그룹_437" data-name="그룹 437" transform="translate(396.112 15.166)">
        <g id="그룹_432" data-name="그룹 432">
          <path id="패스_1650" data-name="패스 1650" d="M627.99,530.007l-9.6-17.185s-2.9-15.145-6.338-17.484-12.279-9.03-12.279-9.03-4.414,1.195-3.414,4.677a23.277,23.277,0,0,0,2.834,6.134s-7.588-5.466-10.444-8.253-10.489-7.415-10.45-3.746,8.189,11.465,10.261,17.079,15.236,19.484,17.24,23.773,15.323,28.772,15.323,28.772Z" transform="translate(-578.303 -413.866)" fill="#efa2a0"/>
          <path id="패스_1651" data-name="패스 1651" d="M646.415,683.319H744.94a142.77,142.77,0,0,0-1.615-29.007c-3.932-22.969-18.073-49.111-18.073-49.111l1.569-15.052H661.59C656.015,609.8,649.655,657.317,646.415,683.319Z" transform="translate(-583.545 -421.28)" fill="#473e47"/>
          <path id="패스_1652" data-name="패스 1652" d="M609.23,506.01a39.965,39.965,0,0,0-9.591-4.983c-5.589-1.983-6.305-1.677-7.634-4.795s-7.4-9.233-8.828-5.3a4.393,4.393,0,0,0,1.2,3.875,80.3,80.3,0,0,1,4.205,6.97c.77,1.792,2.151,5.607,10.333,14.874s15.453,26.3,15.453,26.3" transform="translate(-578.672 -414.277)" fill="rgba(0,0,0,0)" stroke="#e27171" stroke-linecap="round" stroke-linejoin="round" stroke-width="1"/>
          <path id="패스_1653" data-name="패스 1653" d="M710.661,478.6s29.08-.792,35.368,9.506,29.08,77.631,25.937,89.512-44.8,36.438-44.8,36.438l-16.951-35.118,27.169-18.748-3.93-11.089-5.593,17.66-17.646,12.177-52.153,3.433L654.2,578.15l1.506-5.876-2.292-13.4s-7.2,33.006-22.919,23.5S602.2,544.352,600.627,536.43l22.007-20.6,13.754,21.784s11-32.478,19.649-40.4S688.261,479,710.661,478.6Z" transform="translate(-580.021 -413.505)" fill="#f2e2c8"/>
          <path id="패스_1654" data-name="패스 1654" d="M660.768,508.406s-2.62,23.765,0,33.271" transform="translate(-584.56 -415.583)" fill="rgba(0,0,0,0)" stroke="#e5c698" stroke-linecap="round" stroke-linejoin="round" stroke-width="1"/>
          <path id="패스_1655" data-name="패스 1655" d="M718.268,477.145l-15.692,33.491L693.469,480.7l-1.562-26.448,24.742-1.549Z" transform="translate(-587.046 -411.701)" fill="#efa2a0"/>
          <path id="패스_1656" data-name="패스 1656" d="M691.907,454.369l19.253,3.64-17.691,22.808Z" transform="translate(-587.046 -411.818)" fill="#e27171"/>
          <rect id="사각형_2983" data-name="사각형 2983" width="18.922" height="27.036" transform="translate(123.002 165.436) rotate(180)" fill="#7c81bb"/>
          <g id="그룹_431" data-name="그룹 431" transform="translate(92.544)">
            <path id="패스_1657" data-name="패스 1657" d="M681.039,425.35c3.395-4.419,8.857-7.692,17.618-6.084,0,0,1.331-2.961,6.339-2.148s13.843,5.763,15.347,19.805l-34.5,9.028C678.36,446.536,676.442,431.336,681.039,425.35Z" transform="translate(-678.563 -409.212)" fill="#231b3e"/>
            <ellipse id="타원_344" data-name="타원 344" cx="16.987" cy="19.84" rx="16.987" ry="19.84" transform="translate(3.575 15.936) rotate(-3.555)" fill="#efa2a0"/>
            <path id="패스_1658" data-name="패스 1658" d="M693.17,443.012l.128,3.088s-.251,2.792,1.421,3.184" transform="translate(-679.687 -411.026)" fill="rgba(0,0,0,0)" stroke="#231b3e" stroke-linecap="round" stroke-linejoin="round" stroke-width="1"/>
            <path id="패스_1659" data-name="패스 1659" d="M702.018,443.037a.84.84,0,1,1-.874-.809A.844.844,0,0,1,702.018,443.037Z" transform="translate(-680.239 -410.971)" fill="#231b3e" stroke="#231b3e" stroke-width="1"/>
            <path id="패스_1660" data-name="패스 1660" d="M689.657,445.079a.84.84,0,1,1-.874-.81A.843.843,0,0,1,689.657,445.079Z" transform="translate(-679.288 -411.114)" fill="#231b3e" stroke="#231b3e" stroke-width="1"/>
            <path id="패스_1661" data-name="패스 1661" d="M693.913,426.279s4.512-1.088,4.5,5.539c-.019,8.716,14.875,11.863,18.559,11.14s-2.341-13.578-2.341-13.578l-6.2-7.485-6.984.437-8.56,1.017Z" transform="translate(-679.665 -409.554)" fill="#231b3e"/>
            <path id="패스_1675" data-name="패스 1675" d="M6.508-.018A6.484,6.484,0,0,1,13,6.51a6.57,6.57,0,0,1-6.526,6.563A6.484,6.484,0,0,1-.018,6.545,6.57,6.57,0,0,1,6.508-.018Z" transform="translate(30.222 29.194) rotate(-21.883)" fill="#efa2a0"/>
            <path id="패스_1662" data-name="패스 1662" d="M722.563,441.458s.12,2.334-3.09,3.286" transform="translate(-681.712 -410.918)" fill="rgba(0,0,0,0)" stroke="#231b3e" stroke-linecap="round" stroke-linejoin="round" stroke-width="1"/>
            <path id="패스_1663" data-name="패스 1663" d="M700.43,451.124l-7.223,2.207a5.737,5.737,0,0,0,4.944,3.611C702.2,457.507,700.43,451.124,700.43,451.124Z" transform="translate(-679.69 -411.591)" fill="#e27171"/>
            <path id="패스_1664" data-name="패스 1664" d="M706.827,424.99c-.766-1.724.355-3.664,1.468-5.184a34.486,34.486,0,0,1,7.843-8.25,14.546,14.546,0,0,1,10.761-2.73,3.879,3.879,0,0,1,2.63,1.441c.583.892.547,2.158,1.336,2.872s2.106.594,2.81,1.385a3,3,0,0,1,.54,1.125c.544,1.738,1,3.668.27,5.336-.927,2.124-3.432,3.042-5.721,3.289a1.652,1.652,0,0,0-.988.321c-.36.34-.324.911-.41,1.4a3.261,3.261,0,0,1-2.162,2.338,7.908,7.908,0,0,1-3.281.3,31.778,31.778,0,0,1-12.543-3.516" transform="translate(-680.719 -408.63)" fill="#231b3e"/>
          </g>
          <path id="패스_1665" data-name="패스 1665" d="M651.1,625.3h48.44a6.686,6.686,0,0,0,6.472-8.222l-16.345-70.57a6.659,6.659,0,0,0-6.472-5.176h-48.44a6.686,6.686,0,0,0-6.472,8.222l16.345,70.569A6.657,6.657,0,0,0,651.1,625.3Z" transform="translate(-582.136 -417.878)" fill="#242329"/>
          <path id="패스_1666" data-name="패스 1666" d="M716.118,585.633s-4.99.859-8.788-4.687-8.122-6.337-8.122-6.337l2.358,9.374s-.524,2.64-4.585,1.584-12.444-4.489-13.493-1.584,5.371,5.149,5.371,5.149-11.658-2.64-11.527,0,6.68,4.753,6.68,4.753-5.37-1.584-4.978,1.584,5.371,3.7,5.371,3.7-4.978.661-1.834,3.7,27.634,4.819,27.634,4.819h16.555Z" transform="translate(-585.924 -420.197)" fill="#efa2a0"/>
          <path id="패스_1667" data-name="패스 1667" d="M744.27,551.182s-5.637-23.17-1.708-42.776" transform="translate(-590.837 -415.583)" fill="rgba(0,0,0,0)" stroke="#e5c698" stroke-linecap="round" stroke-linejoin="round" stroke-width="1"/>
          <line id="선_735" data-name="선 735" y1="12.177" x2="17.646" transform="translate(130.194 153.26)" fill="none" stroke="#e5c698" stroke-linecap="round" stroke-linejoin="round" stroke-width="1"/>
          <path id="패스_1668" data-name="패스 1668" d="M748.786,565.938s14.732-11.089,22.854,0" transform="translate(-591.423 -419.249)" fill="rgba(0,0,0,0)" stroke="#e5c698" stroke-linecap="round" stroke-linejoin="round" stroke-width="1"/>
          <path id="패스_1669" data-name="패스 1669" d="M750.584,564.374s2.985-7.215,14.644-9.987" transform="translate(-591.562 -418.788)" fill="rgba(0,0,0,0)" stroke="#e5c698" stroke-linecap="round" stroke-linejoin="round" stroke-width="1"/>
          <line id="선_736" data-name="선 736" x2="10.605" y2="2.013" transform="translate(102.936 168.935)" fill="none" stroke="#e27171" stroke-linecap="round" stroke-linejoin="round" stroke-width="1"/>
          <line id="선_737" data-name="선 737" x2="13.405" y2="1.914" transform="translate(98.089 173.688)" fill="none" stroke="#e27171" stroke-linecap="round" stroke-linejoin="round" stroke-width="1"/>
          <line id="선_738" data-name="선 738" x2="13.994" y2="1.337" transform="translate(98.482 178.969)" fill="none" stroke="#e27171" stroke-linecap="round" stroke-linejoin="round" stroke-width="1"/>
          <path id="패스_1670" data-name="패스 1670" d="M721.143,478.976s-7.909,40.185-20.156,74.087c0,0-16.08-45.18-11.076-69.635" transform="translate(-586.818 -413.532)" fill="rgba(0,0,0,0)" stroke="#7c81bb" stroke-linecap="round" stroke-linejoin="round" stroke-width="1"/>
        </g>
        <path id="패스_1671" data-name="패스 1671" d="M665.215,522.838a1.692,1.692,0,1,1-1.692-1.706A1.7,1.7,0,0,1,665.215,522.838Z" transform="translate(-584.731 -416.47)" fill="rgba(0,0,0,0)" stroke="#e5c698" stroke-linecap="round" stroke-linejoin="round" stroke-width="1"/>
        <path id="패스_1672" data-name="패스 1672" d="M667.394,539.369a1.692,1.692,0,1,1-1.692-1.705A1.7,1.7,0,0,1,667.394,539.369Z" transform="translate(-584.899 -417.622)" fill="rgba(0,0,0,0)" stroke="#e5c698" stroke-linecap="round" stroke-linejoin="round" stroke-width="1"/>
      </g>
    </g>
  </g>
</svg>
