<svg xmlns="http://www.w3.org/2000/svg" xmlns:xlink="http://www.w3.org/1999/xlink" width="40" height="40" viewBox="0 0 40 40">
  <defs>
    <clipPath id="clip-path">
      <rect id="사각형_4698" data-name="사각형 4698" width="40" height="40" transform="translate(1053 1747)" fill="#ff6464"/>
    </clipPath>
  </defs>
  <g id="마스크_그룹_33" data-name="마스크 그룹 33" transform="translate(-1053 -1747)" clip-path="url(#clip-path)">
    <g id="그룹_480" data-name="그룹 480" transform="translate(-2279.637 286.221)">
      <g id="그룹_476" data-name="그룹 476" transform="translate(3333.136 1475.355)">
        <g id="그룹_475" data-name="그룹 475" transform="translate(0 0)">
          <circle id="타원_345" data-name="타원 345" cx="8.137" cy="8.137" r="8.137" fill="none" stroke="#ff4410" stroke-linecap="round" stroke-linejoin="round" stroke-width="1"/>
        </g>
        <path id="패스_1680" data-name="패스 1680" d="M3371.275,1596.919l2.554,2.586,3.709-4.721" transform="translate(-3366.27 -1589.007)" fill="none" stroke="#ff4410" stroke-linecap="round" stroke-linejoin="round" stroke-width="1"/>
      </g>
      <path id="패스_1681" data-name="패스 1681" d="M3344.565,1474.988v-7.643a2.068,2.068,0,0,1,2.071-2.066h33.359a2.068,2.068,0,0,1,2.071,2.066v26.869a2.068,2.068,0,0,1-2.071,2.065h-33.359a2.068,2.068,0,0,1-2.071-2.065v-2.036" transform="translate(-9.929)" fill="none" stroke="#231f20" stroke-linecap="round" stroke-linejoin="round" stroke-width="1"/>
      <line id="선_740" data-name="선 740" x2="37.5" transform="translate(3334.636 1471.35)" fill="none" stroke="#231f20" stroke-linecap="round" stroke-linejoin="round" stroke-width="1"/>
      <g id="그룹_479" data-name="그룹 479" transform="translate(3352.92 1480.944)">
        <line id="선_741" data-name="선 741" x1="13.287" transform="translate(0 4.743)" fill="none" stroke="#231f20" stroke-linecap="round" stroke-linejoin="round" stroke-width="1"/>
        <line id="선_742" data-name="선 742" x1="8.978" transform="translate(0 0)" fill="none" stroke="#231f20" stroke-linecap="round" stroke-linejoin="round" stroke-width="1"/>
      </g>
      <g id="타원_423" data-name="타원 423" transform="translate(3361.637 1467.779)" fill="none" stroke="#231f20" stroke-width="0.5">
        <circle cx="1" cy="1" r="1" stroke="none"/>
        <circle cx="1" cy="1" r="0.75" fill="none"/>
      </g>
      <g id="타원_424" data-name="타원 424" transform="translate(3364.637 1467.779)" fill="none" stroke="#231f20" stroke-width="0.5">
        <circle cx="1" cy="1" r="1" stroke="none"/>
        <circle cx="1" cy="1" r="0.75" fill="none"/>
      </g>
      <g id="타원_425" data-name="타원 425" transform="translate(3367.637 1467.779)" fill="none" stroke="#231f20" stroke-width="0.5">
        <circle cx="1" cy="1" r="1" stroke="none"/>
        <circle cx="1" cy="1" r="0.75" fill="none"/>
      </g>
    </g>
  </g>
</svg>
