<svg xmlns="http://www.w3.org/2000/svg" width="72" height="72" viewBox="0 0 72 72">
  <g id="그룹_266" data-name="그룹 266" transform="translate(-769 -1992)">
    <rect id="사각형_71" data-name="사각형 71" width="72" height="72" transform="translate(769 1992)" fill="none"/>
    <g id="그룹_223" data-name="그룹 223" transform="translate(774.625 2001)">
      <g id="그룹_212" data-name="그룹 212" transform="translate(17.661 42.681)">
        <path id="패스_480" data-name="패스 480" d="M1474.074,1172.825l-1.508-4.785a5.534,5.534,0,0,0-5.3-3.885h-7.885a5.533,5.533,0,0,0-5.3,3.885l-1.509,4.785-2.527-.8,1.508-4.785a8.174,8.174,0,0,1,7.825-5.737h7.885a8.173,8.173,0,0,1,7.825,5.737l1.509,4.785Z" transform="translate(-1450.048 -1161.506)" fill="#828f97"/>
      </g>
      <g id="그룹_213" data-name="그룹 213" transform="translate(23.877 25.983)">
        <path id="패스_481" data-name="패스 481" d="M1480.753,1113.581a7.068,7.068,0,0,1-7.06-7.06v-1.778a7.06,7.06,0,0,1,14.12,0v1.778A7.068,7.068,0,0,1,1480.753,1113.581Zm0-13.249a4.416,4.416,0,0,0-4.412,4.411v1.778a4.411,4.411,0,0,0,8.822,0v-1.778A4.415,4.415,0,0,0,1480.753,1100.332Z" transform="translate(-1473.693 -1097.683)" fill="#828f97"/>
      </g>
      <g id="그룹_214" data-name="그룹 214" transform="translate(0.574 44.071)">
        <path id="패스_482" data-name="패스 482" d="M1386.222,1176.724l-2.527-.8,1.29-4.092a7.178,7.178,0,0,1,6.873-5.04h6.743a7.218,7.218,0,0,1,3.555.938l-1.308,2.3a4.558,4.558,0,0,0-2.247-.593h-6.743a4.54,4.54,0,0,0-4.346,3.188Z" transform="translate(-1383.695 -1166.795)" fill="#828f97"/>
      </g>
      <g id="그룹_215" data-name="그룹 215" transform="translate(5.88 29.789)">
        <path id="패스_483" data-name="패스 483" d="M1410.106,1126.2a6.237,6.237,0,0,1-6.23-6.229v-1.52a6.229,6.229,0,1,1,12.458,0v1.52A6.236,6.236,0,0,1,1410.106,1126.2Zm0-11.329a3.586,3.586,0,0,0-3.581,3.581v1.52a3.58,3.58,0,0,0,7.161,0v-1.52A3.585,3.585,0,0,0,1410.106,1114.87Z" transform="translate(-1403.876 -1112.221)" fill="#828f97"/>
      </g>
      <g id="그룹_216" data-name="그룹 216" transform="translate(42.839 44.071)">
        <path id="패스_484" data-name="패스 484" d="M1563.112,1176.724l-1.29-4.092a4.539,4.539,0,0,0-4.346-3.188h-6.743a4.56,4.56,0,0,0-2.247.593l-1.308-2.3a7.219,7.219,0,0,1,3.555-.938h6.743a7.179,7.179,0,0,1,6.873,5.04l1.29,4.092Z" transform="translate(-1547.177 -1166.795)" fill="#828f97"/>
      </g>
      <g id="그룹_217" data-name="그룹 217" transform="translate(43.537 29.789)">
        <path id="패스_485" data-name="패스 485" d="M1556.059,1126.2a6.236,6.236,0,0,1-6.229-6.229v-1.52a6.229,6.229,0,1,1,12.458,0v1.52A6.237,6.237,0,0,1,1556.059,1126.2Zm0-11.329a3.585,3.585,0,0,0-3.58,3.581v1.52a3.58,3.58,0,0,0,7.161,0v-1.52A3.586,3.586,0,0,0,1556.059,1114.87Z" transform="translate(-1549.83 -1112.221)" fill="#828f97"/>
      </g>
      <g id="그룹_218" data-name="그룹 218" transform="translate(16.567)">
        <path id="패스_486" data-name="패스 486" d="M1461.581,1022.528h-2.649v-3.336c-7.306-.49-13.047-5-13.047-10.479,0-5.8,6.447-10.524,14.371-10.524s14.371,4.721,14.371,10.524c0,4.445-3.656,8.315-9.313,9.859l-.7-2.556c4.4-1.2,7.361-4.136,7.361-7.3,0-4.343-5.258-7.876-11.722-7.876s-11.722,3.533-11.722,7.876,5.259,7.875,11.722,7.875h1.325Z" transform="translate(-1445.885 -998.189)" fill="#f9a63d"/>
      </g>
      <g id="그룹_219" data-name="그룹 219" transform="translate(0 7.507)">
        <path id="패스_487" data-name="패스 487" d="M1394.945,1047.094H1392.3v-2.543c-6.057-.489-10.785-4.282-10.785-8.876,0-4.924,5.432-8.929,12.11-8.929a16.4,16.4,0,0,1,2.945.264l-.476,2.605a13.8,13.8,0,0,0-2.469-.22c-5.129,0-9.461,2.876-9.461,6.28s4.332,6.28,9.461,6.28h1.324Z" transform="translate(-1381.511 -1026.745)" fill="#f9a63d"/>
      </g>
      <g id="그룹_220" data-name="그룹 220" transform="translate(15.456 19.898)">
        <path id="패스_488" data-name="패스 488" d="M1441.749,1079.074l-.7-2.556a9.867,9.867,0,0,0,4.213-2.251l1.825,1.918A12.5,12.5,0,0,1,1441.749,1079.074Z" transform="translate(-1441.052 -1074.267)" fill="#f9a63d"/>
      </g>
      <g id="그룹_221" data-name="그룹 221" transform="translate(40.328 19.888)">
        <path id="패스_489" data-name="패스 489" d="M1547.969,1082.113h-2.649v-2.542a13.518,13.518,0,0,1-8.262-3.4l1.827-1.918a11.437,11.437,0,0,0,7.759,2.719h1.324Z" transform="translate(-1537.059 -1074.255)" fill="#f9a63d"/>
      </g>
      <g id="그룹_222" data-name="그룹 222" transform="translate(46.854 7.507)">
        <path id="패스_490" data-name="패스 490" d="M1569.6,1044.045l-.7-2.556c3.539-.966,5.916-3.3,5.916-5.816,0-3.4-4.332-6.28-9.461-6.28a13.821,13.821,0,0,0-2.442.215l-.47-2.607a16.551,16.551,0,0,1,2.912-.256c6.678,0,12.11,4.005,12.11,8.929C1577.468,1039.455,1574.38,1042.741,1569.6,1044.045Z" transform="translate(-1562.447 -1026.745)" fill="#f9a63d"/>
      </g>
    </g>
  </g>
</svg>
