<svg xmlns="http://www.w3.org/2000/svg" width="72" height="72" viewBox="0 0 72 72">
  <g id="그룹_265" data-name="그룹 265" transform="translate(-648 -1992)">
    <rect id="사각형_70" data-name="사각형 70" width="72" height="72" transform="translate(648 1992)" fill="none"/>
    <g id="그룹_254" data-name="그룹 254" transform="translate(654.75 1998.75)">
      <g id="그룹_249" data-name="그룹 249">
        <g id="그룹_242" data-name="그룹 242" transform="translate(0 24.804)">
          <path id="패스_496" data-name="패스 496" d="M351.466,377.523a5.162,5.162,0,1,1,5.16-5.161A5.168,5.168,0,0,1,351.466,377.523Zm0-7.512a2.35,2.35,0,1,0,2.348,2.35A2.353,2.353,0,0,0,351.466,370.012Z" transform="translate(-346.303 -367.199)" fill="#f9a63d"/>
        </g>
        <g id="그룹_243" data-name="그룹 243" transform="translate(16.058 14.272)">
          <path id="패스_497" data-name="패스 497" d="M365.767,368.162A5.163,5.163,0,1,1,370.929,363,5.169,5.169,0,0,1,365.767,368.162Zm0-7.513a2.35,2.35,0,1,0,2.35,2.35A2.353,2.353,0,0,0,365.767,360.65Z" transform="translate(-360.604 -357.837)" fill="#f9a63d"/>
        </g>
        <g id="그룹_244" data-name="그룹 244" transform="translate(32.116)">
          <path id="패스_498" data-name="패스 498" d="M380.069,355.475a5.162,5.162,0,1,1,5.163-5.163A5.168,5.168,0,0,1,380.069,355.475Zm0-7.512a2.35,2.35,0,1,0,2.35,2.349A2.353,2.353,0,0,0,380.069,347.964Z" transform="translate(-374.906 -345.151)" fill="#f9a63d"/>
        </g>
        <g id="그룹_245" data-name="그룹 245" transform="translate(48.176 10.696)">
          <path id="패스_499" data-name="패스 499" d="M394.37,364.983a5.162,5.162,0,1,1,5.163-5.161A5.169,5.169,0,0,1,394.37,364.983Zm0-7.512a2.35,2.35,0,1,0,2.35,2.35A2.352,2.352,0,0,0,394.37,357.471Z" transform="translate(-389.209 -354.659)" fill="#f9a63d"/>
        </g>
        <g id="그룹_246" data-name="그룹 246" transform="translate(7.401 20.55)">
          <rect id="사각형_63" data-name="사각형 63" width="11.775" height="2.812" transform="matrix(0.867, -0.498, 0.498, 0.867, 0, 5.861)" fill="#f9a63d"/>
        </g>
        <g id="그룹_247" data-name="그룹 247" transform="translate(23.23 6.401)">
          <rect id="사각형_64" data-name="사각형 64" width="14.043" height="2.813" transform="matrix(0.718, -0.696, 0.696, 0.718, 0, 9.775)" fill="#f9a63d"/>
        </g>
        <g id="그룹_248" data-name="그룹 248" transform="translate(39.597 6.07)">
          <rect id="사각형_65" data-name="사각형 65" width="2.813" height="11.81" transform="matrix(0.554, -0.833, 0.833, 0.554, 0, 2.343)" fill="#f9a63d"/>
        </g>
      </g>
      <g id="그룹_250" data-name="그룹 250" transform="translate(0 37.84)">
        <path id="패스_500" data-name="패스 500" d="M356.626,399.529H346.3v-20.66h10.323Zm-7.51-2.812h4.7V381.681h-4.7Z" transform="translate(-346.303 -378.869)" fill="#828f97"/>
      </g>
      <g id="그룹_251" data-name="그룹 251" transform="translate(16.058 27.437)">
        <path id="패스_501" data-name="패스 501" d="M370.929,400.684H360.6V369.621h10.325Zm-7.513-2.812h4.7V372.434h-4.7Z" transform="translate(-360.604 -369.621)" fill="#828f97"/>
      </g>
      <g id="그룹_252" data-name="그룹 252" transform="translate(32.116 14.361)">
        <path id="패스_502" data-name="패스 502" d="M385.231,402.137H374.906V358h10.325Zm-7.513-2.812h4.7V360.81h-4.7Z" transform="translate(-374.906 -357.998)" fill="#828f97"/>
      </g>
      <g id="그룹_253" data-name="그룹 253" transform="translate(48.176 24.17)">
        <path id="패스_503" data-name="패스 503" d="M399.533,401.047H389.209v-34.33h10.324Zm-7.512-2.812h4.7V369.53h-4.7Z" transform="translate(-389.209 -366.717)" fill="#828f97"/>
      </g>
    </g>
  </g>
</svg>
