<svg xmlns="http://www.w3.org/2000/svg" width="72" height="72" viewBox="0 0 72 72">
  <g id="그룹_269" data-name="그룹 269" transform="translate(-1132 -1992)">
    <rect id="사각형_74" data-name="사각형 74" width="72" height="72" transform="translate(1132 1992)" fill="none"/>
    <g id="그룹_241" data-name="그룹 241" transform="translate(1134.25 2002.125)">
      <g id="그룹_233" data-name="그룹 233" transform="translate(14.242 18.962)">
        <g id="그룹_232" data-name="그룹 232">
          <g id="그룹_229" data-name="그룹 229" transform="translate(0 7.738)">
            <path id="패스_493" data-name="패스 493" d="M167.329,391.637a5.088,5.088,0,0,1-4.716-3.178l-1.808-4.476a5.079,5.079,0,0,1,2.808-6.612l7.873-3.18A5.082,5.082,0,0,1,178.1,377l-2.4.969a2.493,2.493,0,0,0-3.245-1.378l-7.873,3.179a2.494,2.494,0,0,0-1.378,3.245l1.807,4.476a2.5,2.5,0,0,0,3.246,1.377l7.873-3.179a2.489,2.489,0,0,0,1.377-3.245l2.4-.969a5.081,5.081,0,0,1-2.808,6.613l-7.873,3.179A5.058,5.058,0,0,1,167.329,391.637Z" transform="translate(-160.433 -373.819)" fill="#f9a63d"/>
          </g>
          <g id="그룹_230" data-name="그룹 230" transform="translate(19.169)">
            <path id="패스_494" data-name="패스 494" d="M184.369,384.755a5.087,5.087,0,0,1-4.718-3.178l2.4-.969a2.5,2.5,0,0,0,3.246,1.378l7.872-3.179a2.493,2.493,0,0,0,1.378-3.246l-1.808-4.475a2.492,2.492,0,0,0-3.245-1.378l-7.873,3.18a2.494,2.494,0,0,0-1.378,3.243l-2.4.97a5.078,5.078,0,0,1,2.808-6.613l7.873-3.179a5.085,5.085,0,0,1,6.613,2.808l1.808,4.475a5.087,5.087,0,0,1-2.808,6.614l-7.873,3.179A5.055,5.055,0,0,1,184.369,384.755Z" transform="translate(-177.472 -366.94)" fill="#f9a63d"/>
          </g>
          <g id="그룹_231" data-name="그룹 231" transform="translate(10.532 8.149)">
            <rect id="사각형_58" data-name="사각형 58" width="18.314" height="2.588" transform="translate(0 6.858) rotate(-21.993)" fill="#f9a63d"/>
          </g>
        </g>
      </g>
      <g id="그룹_235" data-name="그룹 235">
        <g id="그룹_234" data-name="그룹 234">
          <path id="패스_495" data-name="패스 495" d="M208.246,402.624h-53.8A6.842,6.842,0,0,1,147.6,395.8V349.749h67.5V395.8A6.842,6.842,0,0,1,208.246,402.624Zm-57.855-50.091V395.8a4.049,4.049,0,0,0,4.053,4.035h53.8A4.049,4.049,0,0,0,212.3,395.8V352.533Z" transform="translate(-147.595 -349.749)" fill="#828f97"/>
        </g>
      </g>
      <g id="그룹_236" data-name="그룹 236" transform="translate(1.406 9.08)">
        <rect id="사각형_59" data-name="사각형 59" width="64.687" height="2.813" fill="#828f97"/>
      </g>
      <g id="그룹_240" data-name="그룹 240" transform="translate(45.197 4.545)">
        <g id="그룹_237" data-name="그룹 237" transform="translate(12.038)">
          <rect id="사각형_60" data-name="사각형 60" width="3.354" height="2.813" fill="#f9a63d"/>
        </g>
        <g id="그룹_238" data-name="그룹 238" transform="translate(6.019)">
          <rect id="사각형_61" data-name="사각형 61" width="3.353" height="2.813" fill="#f9a63d"/>
        </g>
        <g id="그룹_239" data-name="그룹 239">
          <rect id="사각형_62" data-name="사각형 62" width="3.354" height="2.813" fill="#f9a63d"/>
        </g>
      </g>
    </g>
  </g>
</svg>
