<svg xmlns="http://www.w3.org/2000/svg" width="72" height="72" viewBox="0 0 72 72">
  <g id="그룹_270" data-name="그룹 270" transform="translate(-1247 -1992)">
    <rect id="사각형_75" data-name="사각형 75" width="72" height="72" transform="translate(1247 1992)" fill="none"/>
    <g id="그룹_291" data-name="그룹 291" transform="translate(1257.125 2002.125)">
      <g id="그룹_287" data-name="그룹 287">
        <g id="그룹_284" data-name="그룹 284" transform="translate(7.912 4.363)">
          <rect id="사각형_82" data-name="사각형 82" width="12.207" height="2.484" fill="#838f97"/>
        </g>
        <g id="그룹_285" data-name="그룹 285">
          <path id="패스_516" data-name="패스 516" d="M243.964,264.4h-19.4a5.867,5.867,0,0,1-5.861-5.861V218.51a5.868,5.868,0,0,1,5.861-5.861h14.243v2.484H224.569a3.381,3.381,0,0,0-3.377,3.377v40.028a3.38,3.38,0,0,0,3.377,3.377h19.4a3.38,3.38,0,0,0,3.377-3.377V244.759h2.484v13.779A5.867,5.867,0,0,1,243.964,264.4Z" transform="translate(-218.708 -212.649)" fill="#838f97"/>
        </g>
        <g id="그룹_286" data-name="그룹 286" transform="translate(22.045)">
          <path id="패스_517" data-name="패스 517" d="M310.185,245.383l5.2-9.163h-5.825V212.649h29.7V236.22H325.893Zm1.855-11.647h7.605l-2.757,4.861,8.333-4.861h11.554v-18.6H312.04Z" transform="translate(-309.556 -212.649)" fill="#838f97"/>
        </g>
      </g>
      <g id="그룹_290" data-name="그룹 290" transform="translate(32.994 5.398)">
        <g id="그룹_288" data-name="그룹 288">
          <path id="패스_518" data-name="패스 518" d="M358.843,243.36h-2.484v-3.321H357.6a1.506,1.506,0,1,0-1.506-1.506h-2.484a3.99,3.99,0,1,1,5.232,3.792Z" transform="translate(-353.611 -234.543)" fill="#f9a63d"/>
        </g>
        <g id="그룹_289" data-name="그룹 289" transform="translate(2.748 10.27)">
          <rect id="사각형_83" data-name="사각형 83" width="2.484" height="2.364" fill="#f9a63d"/>
        </g>
      </g>
    </g>
  </g>
</svg>
