<svg xmlns="http://www.w3.org/2000/svg" width="130" height="20" viewBox="0 0 130 20">
  <g id="Vector_Smart_Object3_copy_3" data-name="Vector Smart Object3 copy 3" transform="translate(-151.533 -58.837)">
    <g id="그룹_294" data-name="그룹 294">
      <path id="패스_7316" data-name="패스 7316" d="M162.69,59.369l2.459,5.055a.941.941,0,0,0,.708.522l5.5.811a.958.958,0,0,1,.521,1.627L167.9,71.319a.962.962,0,0,0-.27.844l.939,5.556a.943.943,0,0,1-1.364,1.006L162.284,76.1a.928.928,0,0,0-.875,0l-4.918,2.623a.943.943,0,0,1-1.364-1.006l.939-5.556a.963.963,0,0,0-.27-.844l-3.979-3.935a.958.958,0,0,1,.521-1.627l5.5-.811a.941.941,0,0,0,.708-.522L161,59.369A.934.934,0,0,1,162.69,59.369Z" fill="#459729"/>
      <path id="패스_7317" data-name="패스 7317" d="M190.033,59.369l2.459,5.055a.941.941,0,0,0,.708.522l5.5.811a.958.958,0,0,1,.521,1.627l-3.979,3.935a.963.963,0,0,0-.27.844l.939,5.556a.943.943,0,0,1-1.364,1.006L189.627,76.1a.928.928,0,0,0-.875,0l-4.918,2.623a.943.943,0,0,1-1.364-1.006l.939-5.556a.962.962,0,0,0-.27-.844l-3.979-3.935a.958.958,0,0,1,.521-1.627l5.5-.811a.941.941,0,0,0,.708-.522l2.459-5.055A.934.934,0,0,1,190.033,59.369Z" fill="#459729"/>
      <path id="패스_7318" data-name="패스 7318" d="M217.376,59.369l2.459,5.055a.941.941,0,0,0,.708.522l5.5.811a.958.958,0,0,1,.521,1.627l-3.979,3.935a.962.962,0,0,0-.27.844l.939,5.556a.943.943,0,0,1-1.364,1.006L216.97,76.1a.928.928,0,0,0-.875,0l-4.918,2.623a.943.943,0,0,1-1.364-1.006l.939-5.556a.963.963,0,0,0-.27-.844L206.5,67.384a.958.958,0,0,1,.521-1.627l5.5-.811a.941.941,0,0,0,.708-.522l2.459-5.055A.934.934,0,0,1,217.376,59.369Z" fill="#459729"/>
      <path id="패스_7319" data-name="패스 7319" d="M244.719,59.369l2.459,5.055a.941.941,0,0,0,.708.522l5.5.811a.958.958,0,0,1,.521,1.627l-3.979,3.935a.963.963,0,0,0-.27.844l.939,5.556a.943.943,0,0,1-1.364,1.006L244.313,76.1a.928.928,0,0,0-.875,0l-4.918,2.623a.943.943,0,0,1-1.364-1.006l.939-5.556a.963.963,0,0,0-.27-.844l-3.979-3.935a.958.958,0,0,1,.521-1.627l5.5-.811a.941.941,0,0,0,.708-.522l2.459-5.055A.934.934,0,0,1,244.719,59.369Z" fill="#459729"/>
      <path id="패스_7320" data-name="패스 7320" d="M272.062,59.369l2.459,5.055a.941.941,0,0,0,.708.522l5.5.811a.958.958,0,0,1,.521,1.627l-3.979,3.935a.963.963,0,0,0-.27.844l.939,5.556a.943.943,0,0,1-1.364,1.006L271.656,76.1a.928.928,0,0,0-.875,0l-4.918,2.623A.943.943,0,0,1,264.5,77.72l.939-5.556a.963.963,0,0,0-.27-.844l-3.979-3.935a.958.958,0,0,1,.521-1.627l5.5-.811a.941.941,0,0,0,.708-.522l2.459-5.055A.934.934,0,0,1,272.062,59.369Z" fill="#459729"/>
    </g>
  </g>
</svg>
