<svg xmlns="http://www.w3.org/2000/svg" width="30.803" height="22.832" viewBox="0 0 30.803 22.832">
  <g id="Vector_Smart_Object3" data-name="Vector Smart Object3" transform="translate(-60.878 -747.798)">
    <g id="그룹_31" data-name="그룹 31">
      <path id="패스_20" data-name="패스 20" d="M78.906,748.446a1.126,1.126,0,0,0-1.118,0L68.2,753.923H61.378v10.456h6.637l9.773,5.585a1.122,1.122,0,0,0,1.118,0,1.1,1.1,0,0,0,.561-.96v-19.6A1.1,1.1,0,0,0,78.906,748.446Z" fill="none" stroke="#222" stroke-linecap="round" stroke-linejoin="round" stroke-width="1"/>
      <line id="선_9" data-name="선 9" y1="10.456" transform="translate(68.015 753.923)" fill="none" stroke="#222" stroke-linecap="round" stroke-linejoin="round" stroke-width="1"/>
      <g id="그룹_30" data-name="그룹 30">
        <path id="패스_21" data-name="패스 21" d="M85.682,764.519a9.124,9.124,0,0,0-.153-11.021" fill="none" stroke="#222" stroke-linecap="round" stroke-linejoin="round" stroke-width="1"/>
        <path id="패스_22" data-name="패스 22" d="M82.592,755.564a6.061,6.061,0,0,1,.143,6.883" fill="none" stroke="#222" stroke-linecap="round" stroke-linejoin="round" stroke-width="1"/>
        <path id="패스_23" data-name="패스 23" d="M88.628,766.59a12.222,12.222,0,0,0-.162-15.157" fill="none" stroke="#222" stroke-linecap="round" stroke-linejoin="round" stroke-width="1"/>
        <path id="패스_24" data-name="패스 24" d="M85.529,753.5a9.124,9.124,0,0,1,.153,11.021" fill="none" stroke="#222" stroke-linecap="round" stroke-linejoin="round" stroke-width="1"/>
      </g>
    </g>
  </g>
</svg>
