<svg xmlns="http://www.w3.org/2000/svg" width="25" height="25" viewBox="0 0 25 25">
  <g id="Vector_Smart_Object" data-name="Vector Smart Object" transform="translate(-59.198 -213.98)">
    <g id="그룹_32" data-name="그룹 32" transform="translate(59.698 214.48)">
      <path id="패스_25" data-name="패스 25" d="M81.142,223.221c.111-.01.22-.028.335-.028a2.8,2.8,0,0,1,3.016,2.513v4.356a2.8,2.8,0,0,1-3.016,2.513c-.115,0-.335-.028-.335-.028" transform="translate(-60.493 -214.929)" fill="none" stroke="#222" stroke-linecap="round" stroke-linejoin="round" stroke-width="1"/>
      <path id="패스_26" data-name="패스 26" d="M63.049,223.221c-.111-.01-.22-.028-.335-.028a2.8,2.8,0,0,0-3.016,2.513v4.356a2.8,2.8,0,0,0,3.016,2.513c.115,0,.224-.019.335-.028l.515-.073" transform="translate(-59.698 -214.929)" fill="none" stroke="#222" stroke-linecap="round" stroke-linejoin="round" stroke-width="1"/>
      <path id="패스_27" data-name="패스 27" d="M76.451,237.6a1.675,1.675,0,0,1-1.675,1.675H70.085A1.675,1.675,0,0,1,68.41,237.6h0a1.676,1.676,0,0,1,1.676-1.676h4.691a1.675,1.675,0,0,1,1.675,1.676Z" transform="translate(-60.111 -215.275)" fill="none" stroke="#222" stroke-linecap="round" stroke-linejoin="round" stroke-width="1"/>
      <path id="패스_28" data-name="패스 28" d="M68.547,235.733a6.444,6.444,0,0,1-5.5-6.4v-8.4a6.433,6.433,0,0,1,6.407-6.46h4.485a6.433,6.433,0,0,1,6.407,6.46v10.982" transform="translate(-59.698 -214.48)" fill="none" stroke="#222" stroke-linecap="round" stroke-linejoin="round" stroke-width="1"/>
    </g>
  </g>
</svg>
