<svg xmlns="http://www.w3.org/2000/svg" width="28.519" height="27.171" viewBox="0 0 28.519 27.171">
  <g id="Vector_Smart_Object" data-name="Vector Smart Object" transform="translate(-241.386 -342.837)">
    <g id="그룹_34" data-name="그룹 34" transform="translate(242.056 343.337)">
      <path id="패스_32" data-name="패스 32" d="M255.869,364.169l4.742,1.564a1.675,1.675,0,0,0,2.149-1h0a1.682,1.682,0,0,0-1-2.154l-7.834-2.671a5.02,5.02,0,0,0-3.607.164l-3.542,1.581" transform="translate(-242.817 -345.967)" fill="none" stroke="#000" stroke-linecap="round" stroke-linejoin="round" stroke-width="1.001"/>
      <path id="패스_33" data-name="패스 33" d="M263.2,365.564l4.985-2.034a1.675,1.675,0,0,1,2.228.813h0a1.683,1.683,0,0,1-.811,2.234L262,370.13l-.317.136a5.018,5.018,0,0,1-4.414-.221l-3.012-1.668a5.017,5.017,0,0,0-4.442-.209" transform="translate(-243.308 -346.568)" fill="none" stroke="#000" stroke-linecap="round" stroke-linejoin="round" stroke-width="1.001"/>
      <path id="패스_34" data-name="패스 34" d="M242.056,362.28l2.636-1.213a.837.837,0,0,1,1.116.4l2.773,6.55a.842.842,0,0,1-.4,1.119l-6.126,3.046" transform="translate(-242.056 -346.183)" fill="none" stroke="#000" stroke-linecap="round" stroke-linejoin="round" stroke-width="1.001"/>
      <ellipse id="타원_1" data-name="타원 1" cx="0.419" cy="0.42" rx="0.419" ry="0.42" transform="translate(1.517 18.156)" fill="none" stroke="#000" stroke-linecap="round" stroke-linejoin="round" stroke-width="1.001"/>
      <path id="패스_35" data-name="패스 35" d="M258.906,344.529a1.188,1.188,0,1,1-1.188-1.191A1.19,1.19,0,0,1,258.906,344.529Z" transform="translate(-244.39 -343.337)" fill="none" stroke="#000" stroke-linecap="round" stroke-linejoin="round" stroke-width="1.001"/>
      <path id="패스_36" data-name="패스 36" d="M248.972,351.358a1.188,1.188,0,1,1-1.188-1.191A1.19,1.19,0,0,1,248.972,351.358Z" transform="translate(-242.788 -344.439)" fill="none" stroke="#000" stroke-linecap="round" stroke-linejoin="round" stroke-width="1.001"/>
      <path id="패스_37" data-name="패스 37" d="M268.688,351.358a1.188,1.188,0,1,1-1.188-1.191A1.19,1.19,0,0,1,268.688,351.358Z" transform="translate(-245.967 -344.439)" fill="none" stroke="#000" stroke-linecap="round" stroke-linejoin="round" stroke-width="1.001"/>
      <path id="패스_38" data-name="패스 38" d="M262.908,360.936l1.19-8.673a.3.3,0,0,0-.419-.4l-3.974,2.417a.292.292,0,0,1-.423-.148l-2.534-7.556a.293.293,0,0,0-.548,0l-2.534,7.556a.292.292,0,0,1-.423.148l-3.974-2.417a.3.3,0,0,0-.419.4l.959,5.942" transform="translate(-243.147 -343.829)" fill="none" stroke="#000" stroke-linecap="round" stroke-linejoin="round" stroke-width="1.001"/>
    </g>
  </g>
</svg>
