<svg xmlns="http://www.w3.org/2000/svg" width="29.027" height="29" viewBox="0 0 29.027 29">
  <g id="Vector_Smart_Object5" data-name="Vector Smart Object5" transform="translate(-227.719 -193.424)">
    <g id="그룹_36" data-name="그룹 36" transform="translate(228.247 193.924)">
      <path id="패스_39" data-name="패스 39" d="M246.9,221.638a.927.927,0,0,1-.359-.072,34.349,34.349,0,0,1-10.967-7.528,34.973,34.973,0,0,1-7.217-10.532l-.013-.021a.956.956,0,0,1,.176-1.093c.014-.015.03-.03.045-.043l.038-.034c2.409-2.137,4.164-3.709,4.416-3.956a.931.931,0,0,1,1.5.118l3.4,5.433a.955.955,0,0,1,.1.782.944.944,0,0,1-.518.59l-1.624.724a30.941,30.941,0,0,0,8.067,8.023l.76-1.739a.933.933,0,0,1,1.358-.419l5.377,3.431a.954.954,0,0,1,.117,1.514c-.312.323-2.57,2.912-3.949,4.5A.932.932,0,0,1,246.9,221.638Z" transform="translate(-228.247 -193.638)" fill="none" stroke="#222" stroke-linecap="round" stroke-linejoin="round" stroke-width="1"/>
      <g id="그룹_35" data-name="그룹 35" transform="translate(15.186)">
        <path id="패스_40" data-name="패스 40" d="M241.592,193.924a12.9,12.9,0,0,1,12.814,12.948" transform="translate(-241.592 -193.924)" fill="none" stroke="#222" stroke-linecap="round" stroke-linejoin="round" stroke-width="1"/>
        <path id="패스_41" data-name="패스 41" d="M241.592,198.647a7.38,7.38,0,0,1,7.342,7.418" transform="translate(-241.592 -193.117)" fill="none" stroke="#222" stroke-linecap="round" stroke-linejoin="round" stroke-width="1"/>
      </g>
    </g>
  </g>
</svg>
