<svg xmlns="http://www.w3.org/2000/svg" width="64" height="33" viewBox="0 0 64 33">
  <g id="그룹_6686" data-name="그룹 6686" transform="translate(-192.195 -326.176)">
    <path id="패스_7356" data-name="패스 7356" d="M251.774,326.359a.629.629,0,0,0-.449-.183H227.861a.63.63,0,0,0-.449.183l-3.649,3.722-.295.3a.643.643,0,0,1-.9,0l-3.944-4.023a.63.63,0,0,0-.449-.183h-21.11a.63.63,0,0,0-.449.183l-4.268,4.353a.52.52,0,0,0-.153.364v15.616a.577.577,0,0,0,.6.547h20.324a.577.577,0,0,1,.6.547v1.187a.577.577,0,0,1-.6.547H197.065a.63.63,0,0,0-.449.183l-4.268,4.353a.52.52,0,0,0-.153.364v4.205a.577.577,0,0,0,.6.547H223.16a.577.577,0,0,0,.6-.547V338.659a.577.577,0,0,0-.6-.547H202.836a.577.577,0,0,1-.6-.547v-1.187a.577.577,0,0,1,.6-.547h31.088a.577.577,0,0,1,.6.547v22.252a.577.577,0,0,0,.6.547h9.7a.577.577,0,0,0,.6-.547V336.377a.577.577,0,0,1,.6-.547h9.56a.577.577,0,0,0,.6-.547v-4.206a.52.52,0,0,0-.153-.364Z" transform="translate(0 0)" fill="#003368"/>
  </g>
</svg>
