<svg xmlns="http://www.w3.org/2000/svg" width="90.709" height="27.742" viewBox="0 0 90.709 27.742">
  <g id="Vector_Smart_Object" data-name="Vector Smart Object" transform="translate(-123.024 -105.185)">
    <g id="kakao_CI_BI" data-name="kakao CI/BI">
      <path id="패스_11" data-name="패스 11" d="M126.186,132.444h-3.162V105.873l3.162-.688Zm8.457-19.283,2.475,1.787-6.085,7.631,7.048,8.456-2.442,1.891-8.319-10.176Z" fill="#391b1b"/>
      <path id="패스_12" data-name="패스 12" d="M140.881,127.392a5.189,5.189,0,0,1,1.909-4.348,8.85,8.85,0,0,1,5.55-1.5h3.646v-1.2q0-4.366-3.851-4.365a10.547,10.547,0,0,0-2.594.344,14.774,14.774,0,0,0-2.493.859l-.929-2.234a12.935,12.935,0,0,1,3.044-1.221,12.5,12.5,0,0,1,3.178-.43q6.67,0,6.669,7.116v12.031h-2.336l-.378-2.062a11.292,11.292,0,0,1-3.008,1.753,8.42,8.42,0,0,1-3.044.619,4.94,4.94,0,0,1-5.362-5.362Zm5.935,2.819a5.644,5.644,0,0,0,1.352-.172,11.054,11.054,0,0,0,1.4-.446,7.54,7.54,0,0,0,1.318-.67,7.739,7.739,0,0,0,1.1-.842v-4.4H148.7a6.134,6.134,0,0,0-3.646.859,3.176,3.176,0,0,0-1.146,2.716Q143.906,130.21,146.815,130.211Z" fill="#391b1b"/>
      <path id="패스_13" data-name="패스 13" d="M163.8,132.444h-3.162V105.873l3.162-.688Zm8.455-19.283,2.475,1.787-6.083,7.631,7.045,8.456-2.44,1.891-8.318-10.176Z" fill="#391b1b"/>
      <path id="패스_14" data-name="패스 14" d="M178.494,127.392a5.194,5.194,0,0,1,1.906-4.348,8.858,8.858,0,0,1,5.552-1.5H189.6v-1.2q0-4.366-3.849-4.365a10.558,10.558,0,0,0-2.6.344,14.693,14.693,0,0,0-2.491.859l-.928-2.234a12.951,12.951,0,0,1,3.041-1.221,12.5,12.5,0,0,1,3.18-.43q6.667,0,6.669,7.116v12.031h-2.339l-.378-2.062a11.255,11.255,0,0,1-3.008,1.753,8.416,8.416,0,0,1-3.041.619,4.938,4.938,0,0,1-5.362-5.362Zm5.935,2.819a5.659,5.659,0,0,0,1.352-.172,11.055,11.055,0,0,0,1.4-.446,7.625,7.625,0,0,0,1.318-.67,7.833,7.833,0,0,0,1.094-.842v-4.4h-3.285a6.127,6.127,0,0,0-3.646.859,3.17,3.17,0,0,0-1.146,2.716Q181.52,130.21,184.429,130.211Z" fill="#391b1b"/>
      <path id="패스_15" data-name="패스 15" d="M205.345,113.332a7.763,7.763,0,0,1,6.152,2.544q2.236,2.545,2.236,7.288,0,4.675-2.218,7.185a8.819,8.819,0,0,1-12.322,0q-2.236-2.509-2.236-7.185,0-4.743,2.251-7.288A7.78,7.78,0,0,1,205.345,113.332Zm0,2.544a4.38,4.38,0,0,0-3.8,1.856,9.3,9.3,0,0,0-1.325,5.431,8.977,8.977,0,0,0,1.325,5.346,4.936,4.936,0,0,0,7.631,0,8.992,8.992,0,0,0,1.323-5.346,9.315,9.315,0,0,0-1.323-5.431A4.42,4.42,0,0,0,205.345,115.876Z" fill="#391b1b"/>
    </g>
  </g>
</svg>
