<svg xmlns="http://www.w3.org/2000/svg" xmlns:xlink="http://www.w3.org/1999/xlink" width="61" height="61" viewBox="0 0 61 61">
  <defs>
    <linearGradient id="linear-gradient" x1="0.202" y1="0.658" x2="0.571" y2="-0.117" gradientUnits="objectBoundingBox">
      <stop offset="0" stop-color="#5276fb"/>
      <stop offset="1" stop-color="#67b6fc"/>
    </linearGradient>
    <linearGradient id="linear-gradient-2" x1="0.033" y1="0.503" x2="0.966" y2="0.503" gradientUnits="objectBoundingBox">
      <stop offset="0.002" stop-color="#bee5fa"/>
      <stop offset="0.423" stop-color="#c1e6fa"/>
      <stop offset="1" stop-color="#91d1fa"/>
    </linearGradient>
    <linearGradient id="linear-gradient-3" x1="0.011" y1="0.487" x2="0.948" y2="0.487" xlink:href="#linear-gradient-2"/>
    <linearGradient id="linear-gradient-4" x1="-0.065" y1="0.427" x2="0.898" y2="0.427" xlink:href="#linear-gradient-2"/>
  </defs>
  <g id="그룹_7109" data-name="그룹 7109" transform="translate(-142.619 -806.142)">
    <g id="타이틀" transform="translate(142.619 809.836)">
      <g id="그룹_7109-2" data-name="그룹 7109">
        <path id="패스_7639" data-name="패스 7639" d="M154.8,831.952s4.829-4.185,5.266-4.811,2.673-2.6-.107-6.779-5.709-11.051-8.362-10.495-8.352,5.989-8.937,13.643,5.273,21.4,14.309,30.61,24.941,14.663,32.886,12.578,10.045-9.72,8.173-11.451-11.57-10.672-13.185-8.767-4.887,11.747-11.573,6.833S154.562,835.995,154.8,831.952Z" transform="translate(-142.619 -809.836)" fill="url(#linear-gradient)"/>
      </g>
    </g>
    <g id="Layer_4" data-name="Layer 4" transform="translate(172.333 806.142)">
      <g id="그룹_7110" data-name="그룹 7110">
        <path id="패스_7640" data-name="패스 7640" d="M196.747,816.1a30.29,30.29,0,0,0-20.68-9.951,2.625,2.625,0,0,0-2.771,2.722v.016a2.608,2.608,0,0,0,2.429,2.518,25.077,25.077,0,0,1,23.568,26.082,2.609,2.609,0,0,0,2.26,2.671l.016,0a2.623,2.623,0,0,0,2.987-2.481A30.285,30.285,0,0,0,196.747,816.1Z" transform="translate(-173.294 -806.142)" opacity="0.6" fill="url(#linear-gradient-2)"/>
        <path id="패스_7641" data-name="패스 7641" d="M188.944,823.148a19.8,19.8,0,0,0-12.284-6.386,2.637,2.637,0,0,0-2.975,2.7h0a2.65,2.65,0,0,0,2.351,2.513,14.6,14.6,0,0,1,12.768,14.13,2.65,2.65,0,0,0,2.263,2.593h0a2.635,2.635,0,0,0,2.989-2.686A19.8,19.8,0,0,0,188.944,823.148Z" transform="translate(-173.294 -806.142)" opacity="0.6" fill="url(#linear-gradient-3)"/>
        <path id="패스_7642" data-name="패스 7642" d="M181.14,830.2a9.287,9.287,0,0,0-3.492-2.421,2.623,2.623,0,0,0-3.564,2.551v.007a2.561,2.561,0,0,0,1.592,2.316,4.083,4.083,0,0,1,2.473,2.737,2.559,2.559,0,0,0,2.143,1.817h.007a2.623,2.623,0,0,0,2.9-3.288A9.279,9.279,0,0,0,181.14,830.2Z" transform="translate(-173.294 -806.142)" opacity="0.6" fill="url(#linear-gradient-4)"/>
      </g>
    </g>
  </g>
</svg>
