<svg xmlns="http://www.w3.org/2000/svg" width="67.411" height="36.132" viewBox="0 0 67.411 36.132">
  <path id="패스_7587" data-name="패스 7587" d="M144.854,640.747H162.5a.819.819,0,0,0,.819-.819v-9.837a.819.819,0,0,0-.819-.819H139.42a1.309,1.309,0,0,0-.948.406l-6.442,6.768-6.442-6.768a1.309,1.309,0,0,0-.948-.406H103.289a1.309,1.309,0,0,0-.949.408l-6.077,6.405a1.307,1.307,0,0,0-.359.9v27.6a.819.819,0,0,0,.819.819h9.837a.819.819,0,0,0,.819-.819V642.255a1.351,1.351,0,0,1,1.351-1.351h10.48a1.351,1.351,0,0,1,1.351,1.351v22.329a.819.819,0,0,0,.819.819h9.837a.819.819,0,0,0,.819-.819v-6.34L138.472,665a1.309,1.309,0,0,0,.947.406H162.5a.819.819,0,0,0,.819-.819v-9.837a.819.819,0,0,0-.819-.819H144.854a1.351,1.351,0,0,1-1.351-1.351V642.1A1.351,1.351,0,0,1,144.854,640.747Z" transform="translate(-95.904 -629.272)" fill="#003569"/>
</svg>
