<svg xmlns="http://www.w3.org/2000/svg" width="55.377" height="56.442" viewBox="0 0 55.377 56.442">
  <g id="그룹_330" data-name="그룹 330" transform="translate(-53.842 -34.779)">
    <path id="패스_960" data-name="패스 960" d="M187.121,127.409a32.456,32.456,0,0,0-.514-5.781H159.991V132.56H175.2a13,13,0,0,1-5.639,8.53v7.091h9.133c5.344-4.92,8.427-12.165,8.427-20.771" transform="translate(-77.902 -63.806)" fill="#4285f4" fill-rule="evenodd"/>
    <path id="패스_961" data-name="패스 961" d="M90.388,183.986c7.63,0,14.028-2.531,18.7-6.847l-9.133-7.091A17.049,17.049,0,0,1,74.575,161.1H65.133v7.322a28.25,28.25,0,0,0,25.255,15.569" transform="translate(-8.285 -92.765)" fill="#34a853" fill-rule="evenodd"/>
    <path id="패스_962" data-name="패스 962" d="M66.29,111.318a16.7,16.7,0,0,1,0-10.739V93.257H56.848a28.295,28.295,0,0,0,0,25.383Z" transform="translate(0 -42.949)" fill="#fbbc05" fill-rule="evenodd"/>
    <path id="패스_963" data-name="패스 963" d="M90.38,46.019a15.259,15.259,0,0,1,10.8,4.226l8.1-8.106a27.146,27.146,0,0,0-18.9-7.361A28.24,28.24,0,0,0,65.133,50.348l9.439,7.322A16.837,16.837,0,0,1,90.38,46.019" transform="translate(-8.285)" fill="#ea4335" fill-rule="evenodd"/>
  </g>
</svg>
