<svg xmlns="http://www.w3.org/2000/svg" xmlns:xlink="http://www.w3.org/1999/xlink" width="107.785" height="90.432" viewBox="0 0 107.785 90.432">
  <defs>
    <clipPath id="clip-path">
      <path id="SVGID" d="M2124.066,429.139c-.052,4.053-.13,7.392-.227,9.006-1.276,12.707-8.174,16.07-18.139,21.84,7.066-4.107,9.917-12.605,9.822-20.421-.067-1.346-.064-3.393-.033-5.859.127-10.133.732-27.364-1.067-32.419-3.939-17.049-26.756-25.83-41.292-17.674,4.185-2.371,10.554-7.1,15.358-7.655,10.741-1.88,22.87,1.833,29.674,10.6a28.958,28.958,0,0,1,5.779,14.984C2124.174,405.43,2124.194,419.362,2124.066,429.139Z" transform="translate(-2073.13 -375.481)" fill="none"/>
    </clipPath>
    <linearGradient id="linear-gradient" x1="0.626" y1="0.615" x2="0.226" y2="0.251" gradientUnits="objectBoundingBox">
      <stop offset="0.292" stop-color="#d0d7e3"/>
      <stop offset="1" stop-color="#d0d7e3" stop-opacity="0"/>
    </linearGradient>
    <linearGradient id="linear-gradient-2" x1="0.46" y1="0.1" x2="0.528" y2="0.636" gradientUnits="objectBoundingBox">
      <stop offset="0.337" stop-color="#d0d7e3"/>
      <stop offset="1" stop-color="#d0d7e3" stop-opacity="0"/>
    </linearGradient>
    <clipPath id="clip-path-2">
      <path id="SVGID-2" data-name="SVGID" d="M2136.568,542.568l-.035-.009c-.1-.027-.193-.056-.289-.087l-.061-.021q-.116-.038-.231-.079l-.093-.034c-.071-.026-.141-.053-.212-.082l-.085-.034c-.1-.04-.193-.081-.288-.125l-.026-.013c-.087-.04-.174-.082-.26-.126l-.089-.046c-.068-.035-.136-.072-.2-.109l-.089-.05q-.123-.07-.245-.146l-.035-.021c-.092-.058-.184-.118-.274-.18l-.077-.054c-.066-.047-.132-.094-.2-.143l-.086-.065c-.08-.061-.159-.124-.238-.189l-.018-.015c-.085-.071-.168-.145-.251-.22l-.064-.06q-.106-.1-.209-.2l-.04-.039q-.118-.121-.233-.249l-.057-.064q-.094-.108-.186-.221l-.048-.058q-.109-.137-.213-.28l-.046-.065q-.086-.121-.168-.246l-.049-.074c-.065-.1-.129-.206-.191-.313l-.032-.058c-.052-.092-.1-.186-.152-.282l-.045-.088c-.057-.114-.113-.23-.166-.349l-.016-.037c-.048-.109-.094-.22-.138-.333-.013-.033-.026-.066-.038-.1-.031-.081-.059-.164-.088-.247-.023-.066-.046-.132-.068-.2s-.049-.16-.073-.241-.041-.136-.059-.206-.042-.169-.063-.255-.034-.141-.05-.213c-.019-.089-.036-.18-.053-.27-.014-.072-.029-.143-.042-.217-.016-.095-.029-.192-.043-.289-.01-.073-.022-.145-.031-.219-.013-.1-.022-.21-.033-.316-.007-.071-.015-.14-.021-.212-.01-.12-.015-.243-.022-.366,0-.061-.008-.121-.01-.183-.007-.187-.01-.377-.01-.571l.1-31.747c0-.193.007-.381.016-.565,0-.04,0-.08.006-.119.01-.178.023-.353.041-.523,0-.027.007-.053.009-.08.015-.137.034-.27.053-.4.01-.065.02-.13.031-.194.008-.045.017-.088.025-.132a8.057,8.057,0,0,0-1.254-.259,6.889,6.889,0,0,0-4.373.855q-.148.089-.29.188l-.093.067c-.066.048-.132.1-.2.147l-.08.066-.041.034c-.054.045-.108.091-.16.138l-.059.054-.07.066q-.074.072-.147.146l-.031.032-.092.1q-.077.085-.152.173c-.035.041-.069.082-.1.125-.049.062-.1.127-.145.192-.029.039-.057.078-.085.118l-.029.044c-.042.062-.083.125-.123.189-.017.027-.034.053-.051.08l-.061.1c-.044.076-.088.154-.13.233q-.037.071-.073.143c-.04.081-.079.165-.117.249l-.058.13-.028.069c-.033.08-.064.16-.095.242l-.028.075c-.017.049-.033.1-.05.148-.031.092-.061.185-.089.28-.018.062-.035.126-.052.19-.025.094-.05.189-.073.287-.014.06-.027.122-.04.184l-.008.037c-.02.094-.037.19-.055.288-.008.049-.017.1-.024.148,0,.03-.01.06-.014.09s-.012.079-.019.119c-.018.13-.033.264-.047.4s-.021.253-.03.382c0,.05-.007.1-.01.15,0,.025,0,.049,0,.074s0,.076,0,.113c-.006.148-.011.3-.011.452l-.1,31.747c0,.194,0,.384.01.571,0,.063.008.123.011.184.006.123.012.245.022.365.006.072.014.142.021.213.01.106.02.212.033.315.009.074.021.146.031.219.014.1.027.194.043.288.013.074.028.146.042.218.017.09.034.181.053.269.016.072.033.143.051.214s.028.116.043.173l.02.081c.019.07.04.138.06.207l.015.048c.019.064.037.129.058.192s.045.133.068.2c.029.083.058.167.088.248l.038.1c.045.113.09.224.138.333l.016.037c.053.119.109.235.166.349l.045.088q.074.144.152.282l.032.058c.026.045.053.087.08.131.037.061.073.123.111.182.016.025.033.05.049.075.055.083.11.165.167.245l.046.065q.1.144.213.28l.047.057q.081.1.163.193l.023.028.056.064c.076.085.154.169.233.249l.039.039q.1.1.209.2l.064.06c.083.075.166.149.251.22l.018.015h0c.078.065.157.127.237.189h0l.086.065q.095.071.191.138l.007,0,.076.054c.066.045.132.087.2.13l.077.05.035.022q.122.075.245.146l.089.05q.1.056.2.11l.088.046c.086.044.174.086.261.126l.025.012.1.042c.064.028.128.057.192.083l.085.034c.07.028.141.056.212.082l.093.034c.072.026.144.05.216.074l.015.005.061.021.083.025c.069.021.137.042.206.062l.074.02c.073.02.146.039.219.057l.094.022q.106.025.213.047l.077.016q.141.028.281.051c.108.017.215.033.321.046s.2.022.294.031l.1.007c.067.005.134.01.2.013l.116,0c.062,0,.123,0,.185.005h.124l.18,0,.126,0,.182-.01.124-.009.189-.018.116-.012c.071-.009.141-.019.212-.03l.093-.014c.1-.017.2-.036.3-.057l.045-.01c.085-.019.171-.039.256-.061l.1-.029c.065-.018.13-.036.195-.057l.116-.038c.06-.02.12-.04.179-.062l.119-.046q.087-.034.173-.07l.119-.052c.057-.026.114-.053.17-.081l.114-.057c.059-.031.117-.063.174-.1.034-.019.069-.038.1-.058A6.24,6.24,0,0,0,2136.568,542.568Z" transform="translate(-2121.914 -499.521)" fill="#314cd9"/>
    </clipPath>
    <linearGradient id="linear-gradient-3" x1="1.191" y1="0.96" x2="-0.191" y2="0.04" xlink:href="#linear-gradient"/>
    <clipPath id="clip-path-3">
      <path id="SVGID-3" data-name="SVGID" d="M2358.417,757.947l-.106-.013,1.51-.909.054-16.554a2.723,2.723,0,0,0-2.408-2.766,2.279,2.279,0,0,0-1.459.272l-3.188,1.919a4.67,4.67,0,0,0-4.074-2.727l-5.605-.688a4.614,4.614,0,0,0-2.981.454L2335.072,740a4.615,4.615,0,0,1,2.981-.454l5.263.646-4.979,3a.625.625,0,0,0-.249.591c0,.508.239.844.988.936l3.5.43a1.144,1.144,0,0,0,.725-.085l4.218-2.538a5.023,5.023,0,0,1,.592,2.488,4.861,4.861,0,0,1-.262,1.631l-7.835-.962a2.006,2.006,0,0,0-1.3.2l-5.087,3.062a2.006,2.006,0,0,1,1.3-.2l12.225,1.5a2.077,2.077,0,0,1,2,2.182c0,.015,0,.029,0,.043l-1.184.713.009-2.7-5.087,3.062,0,1.447-3.487,2.1a2.992,2.992,0,0,1,.141.96l0,.611c0,.56.119.676.65.742l13.143,1.614a2.073,2.073,0,0,1,2.024,2.134,1.616,1.616,0,0,1-.713,1.451l5.087-3.061a1.617,1.617,0,0,0,.713-1.451A2.073,2.073,0,0,0,2358.417,757.947Zm-14.254-16.3c-.749-.092-.99-.428-.988-.936a.708.708,0,0,1,.164-.523l.319.039a5.03,5.03,0,0,1,3.535,1.792Zm4.816,5.126,2.707-1.629a3.5,3.5,0,0,0,1.514-3.2,5.849,5.849,0,0,0-.077-.976,2.7,2.7,0,0,1,1.665,2.564l-.028,8.616-2.88-.354,1.667-1a1.582,1.582,0,0,0,.692-1.432,2.077,2.077,0,0,0-2-2.182Zm-3.7,9.557a1.664,1.664,0,0,1-.333-.068l2.259-1.359,2.741.337,4.818-2.9-.017,5.153Z" transform="translate(-2333.628 -736.424)" fill="none"/>
    </clipPath>
    <linearGradient id="linear-gradient-4" x1="-7.822" y1="10.721" x2="-7.502" y2="10.721" gradientUnits="objectBoundingBox">
      <stop offset="0" stop-color="#0f3ec6"/>
      <stop offset="1" stop-color="#314cd9"/>
    </linearGradient>
    <linearGradient id="linear-gradient-5" x1="0.905" y1="0.868" x2="0.128" y2="0.163" gradientUnits="objectBoundingBox">
      <stop offset="0.006" stop-color="#d0d7e3" stop-opacity="0"/>
      <stop offset="0.027" stop-color="#d0d7e3" stop-opacity="0.086"/>
      <stop offset="0.069" stop-color="#d0d7e3" stop-opacity="0.302"/>
      <stop offset="0.128" stop-color="#d0d7e3" stop-opacity="0.651"/>
      <stop offset="0.183" stop-color="#d0d7e3"/>
      <stop offset="0.225" stop-color="#d0d7e3" stop-opacity="0.886"/>
      <stop offset="0.303" stop-color="#d0d7e3" stop-opacity="0.702"/>
      <stop offset="0.382" stop-color="#d0d7e3" stop-opacity="0.545"/>
      <stop offset="0.462" stop-color="#d0d7e3" stop-opacity="0.427"/>
      <stop offset="0.542" stop-color="#d0d7e3" stop-opacity="0.341"/>
      <stop offset="0.625" stop-color="#d0d7e3" stop-opacity="0.29"/>
      <stop offset="0.71" stop-color="#d0d7e3" stop-opacity="0.275"/>
      <stop offset="0.782" stop-color="#d0d7e3" stop-opacity="0.745"/>
      <stop offset="0.975" stop-color="#d0d7e3" stop-opacity="0"/>
    </linearGradient>
    <linearGradient id="linear-gradient-6" x1="0" y1="0.5" x2="1" y2="0.5" xlink:href="#linear-gradient-5"/>
  </defs>
  <g id="그룹_280" data-name="그룹 280" transform="translate(-1956.658 -380.782)">
    <path id="패스_925" data-name="패스 925" d="M2137.812,523.4q-.159-.02-.321-.046c-.093-.015-.187-.032-.281-.051l-.077-.016q-.107-.022-.213-.047l-.094-.022-.218-.056-.073-.02c-.1-.027-.193-.056-.289-.087l-.061-.021q-.116-.038-.231-.079l-.093-.034c-.071-.026-.141-.053-.212-.082l-.085-.034c-.1-.04-.193-.081-.288-.125l-.026-.012c-.087-.04-.174-.082-.26-.126l-.089-.046c-.068-.035-.136-.072-.2-.109l-.089-.05q-.123-.07-.245-.146l-.035-.021c-.092-.058-.184-.118-.274-.18l-.077-.054c-.066-.047-.132-.094-.2-.143l-.086-.065c-.08-.061-.159-.124-.238-.189l-.018-.015c-.085-.071-.168-.145-.251-.22l-.064-.06q-.106-.1-.209-.2l-.04-.039q-.118-.121-.233-.249l-.057-.064q-.094-.108-.186-.221l-.048-.058q-.109-.137-.213-.28l-.046-.065q-.086-.121-.168-.246l-.049-.074c-.065-.1-.129-.206-.191-.313l-.032-.058c-.052-.092-.1-.186-.152-.282l-.045-.088c-.057-.114-.113-.23-.166-.349l-.016-.037c-.048-.109-.094-.22-.138-.333-.013-.033-.026-.066-.038-.1-.031-.081-.059-.164-.088-.247-.023-.066-.046-.132-.068-.2s-.049-.16-.073-.241-.041-.137-.059-.206-.042-.169-.063-.255-.034-.141-.05-.213c-.019-.088-.036-.18-.053-.27-.014-.072-.029-.143-.042-.217-.016-.095-.029-.192-.043-.289-.01-.073-.022-.145-.031-.219-.013-.1-.022-.21-.033-.316-.007-.071-.015-.14-.021-.212-.01-.12-.015-.243-.022-.366,0-.061-.008-.121-.01-.183-.007-.187-.01-.377-.01-.571l.1-31.747c0-.193.007-.381.016-.565,0-.04,0-.08.006-.119.01-.178.023-.353.041-.523,0-.027.007-.053.009-.08.015-.137.034-.27.053-.4.01-.065.02-.13.031-.194.019-.113.04-.222.063-.331.011-.056.022-.113.035-.168.03-.133.063-.262.1-.389.008-.026.014-.054.021-.08.043-.152.091-.3.14-.442.015-.041.031-.08.045-.12.037-.1.076-.2.116-.3.021-.049.042-.1.064-.145.038-.085.077-.168.118-.25q.036-.072.073-.143c.042-.08.085-.157.13-.234.025-.043.049-.086.075-.127.052-.084.106-.166.16-.245.02-.029.039-.06.06-.089q.114-.161.235-.31c.016-.02.034-.039.051-.059.065-.078.132-.154.2-.228.03-.032.061-.063.091-.094.057-.059.115-.116.173-.172l.1-.095c.058-.052.117-.1.177-.153.035-.029.07-.058.1-.085.064-.051.131-.1.2-.148l.093-.067c.1-.067.2-.132.3-.193l-8.514,5.124c-.1.061-.2.126-.3.193l-.093.067c-.066.048-.132.1-.2.147-.035.028-.07.057-.1.086q-.09.074-.177.152l-.1.095c-.059.055-.116.113-.173.172-.031.031-.062.062-.091.094-.068.073-.134.15-.2.228-.017.02-.034.039-.051.059q-.121.149-.234.31c-.021.029-.04.06-.06.09-.054.08-.108.161-.159.245-.026.042-.05.085-.075.128-.044.076-.088.154-.13.233q-.037.071-.073.143c-.04.081-.079.165-.117.249-.021.048-.044.1-.064.145-.04.1-.078.2-.116.3-.015.041-.031.08-.046.121-.05.143-.1.29-.141.442-.007.026-.013.054-.021.08-.035.127-.068.256-.1.388-.012.055-.023.112-.035.169-.022.108-.043.218-.062.33-.011.064-.021.13-.031.2s-.018.105-.025.159c-.01.079-.019.16-.028.241,0,.027-.007.054-.009.081-.017.17-.031.345-.041.523,0,.04,0,.08-.006.12-.009.184-.015.372-.015.565l-.1,31.747q0,.291.01.571c0,.063.008.123.011.185.006.123.012.245.022.365.006.072.014.142.021.213.01.106.02.212.033.315.009.074.021.146.031.219.014.1.027.194.043.288.013.074.028.146.042.218.017.09.034.181.053.269.016.072.033.143.051.214s.041.17.063.253.04.138.06.207.047.161.072.24.045.134.068.2.034.105.053.156c.011.031.024.06.035.091l.038.1c.045.113.09.224.138.333.005.012.01.025.016.037.053.119.109.235.166.349l.045.088q.074.143.152.282l.032.058q.093.16.191.313l.049.075c.055.083.11.165.167.245l.046.065q.1.144.213.28l.047.058q.092.113.187.221l.056.064c.076.085.154.169.233.249l.039.039c.069.069.139.136.209.2l.064.06c.083.075.166.149.251.22l.018.015c.058.048.116.1.175.142l.062.047.086.065q.1.073.2.143l.077.054c.091.062.182.122.274.18l.035.022q.122.075.245.146l.089.05c.068.038.136.074.2.109l.088.046c.086.044.174.086.261.126l.025.012c.1.044.192.085.289.125l.085.034q.105.043.211.082l.093.034q.116.041.231.079l.061.021q.145.046.289.086l.074.02q.109.03.219.056l.094.022q.106.025.213.047l.077.016c.091.018.181.034.271.049l.01,0c.108.017.215.033.321.046a6.992,6.992,0,0,0,4.435-.828l8.514-5.124A6.992,6.992,0,0,1,2137.812,523.4Z" transform="translate(-131.901 -77.188)" fill="#e0e5ef"/>
    <path id="패스_926" data-name="패스 926" d="M2124.066,429.139c-.052,4.053-.13,7.392-.227,9.006-1.276,12.707-8.174,16.07-18.139,21.84,7.066-4.107,9.917-12.605,9.822-20.421-.067-1.346-.064-3.393-.033-5.859.127-10.133.732-27.364-1.067-32.419-3.939-17.049-26.756-25.83-41.292-17.674,4.185-2.371,10.554-7.1,15.358-7.655,10.741-1.88,22.87,1.833,29.674,10.6a28.958,28.958,0,0,1,5.779,14.984C2124.174,405.43,2124.194,419.362,2124.066,429.139Z" transform="translate(-91.821 5.301)" fill="#314cd9"/>
    <g id="그룹_272" data-name="그룹 272" transform="translate(1981.309 380.782)">
      <g id="그룹_271" data-name="그룹 271" transform="translate(0 0)" clip-path="url(#clip-path)">
        <path id="패스_927" data-name="패스 927" d="M2225.256,544.557l25.932-14.713-7.23,54.853-27.855,14.04Z" transform="translate(-2190.595 -502.305)" fill="url(#linear-gradient)" style="mix-blend-mode: multiply;isolation: isolate"/>
        <path id="패스_928" data-name="패스 928" d="M2004.42,366.193l35.83-20.518h-44.562l-9.526,16.988Z" transform="translate(-2001.678 -350.993)" fill="url(#linear-gradient-2)" style="mix-blend-mode: multiply;isolation: isolate"/>
      </g>
    </g>
    <g id="그룹_275" data-name="그룹 275" transform="translate(1990.012 402.912)">
      <g id="그룹_274" data-name="그룹 274" transform="translate(0 0)">
        <path id="SVGID-4" data-name="SVGID" d="M2136.568,542.568l-.035-.009c-.1-.027-.193-.056-.289-.087l-.061-.021q-.116-.038-.231-.079l-.093-.034c-.071-.026-.141-.053-.212-.082l-.085-.034c-.1-.04-.193-.081-.288-.125l-.026-.013c-.087-.04-.174-.082-.26-.126l-.089-.046c-.068-.035-.136-.072-.2-.109l-.089-.05q-.123-.07-.245-.146l-.035-.021c-.092-.058-.184-.118-.274-.18l-.077-.054c-.066-.047-.132-.094-.2-.143l-.086-.065c-.08-.061-.159-.124-.238-.189l-.018-.015c-.085-.071-.168-.145-.251-.22l-.064-.06q-.106-.1-.209-.2l-.04-.039q-.118-.121-.233-.249l-.057-.064q-.094-.108-.186-.221l-.048-.058q-.109-.137-.213-.28l-.046-.065q-.086-.121-.168-.246l-.049-.074c-.065-.1-.129-.206-.191-.313l-.032-.058c-.052-.092-.1-.186-.152-.282l-.045-.088c-.057-.114-.113-.23-.166-.349l-.016-.037c-.048-.109-.094-.22-.138-.333-.013-.033-.026-.066-.038-.1-.031-.081-.059-.164-.088-.247-.023-.066-.046-.132-.068-.2s-.049-.16-.073-.241-.041-.136-.059-.206-.042-.169-.063-.255-.034-.141-.05-.213c-.019-.089-.036-.18-.053-.27-.014-.072-.029-.143-.042-.217-.016-.095-.029-.192-.043-.289-.01-.073-.022-.145-.031-.219-.013-.1-.022-.21-.033-.316-.007-.071-.015-.14-.021-.212-.01-.12-.015-.243-.022-.366,0-.061-.008-.121-.01-.183-.007-.187-.01-.377-.01-.571l.1-31.747c0-.193.007-.381.016-.565,0-.04,0-.08.006-.119.01-.178.023-.353.041-.523,0-.027.007-.053.009-.08.015-.137.034-.27.053-.4.01-.065.02-.13.031-.194.008-.045.017-.088.025-.132a8.057,8.057,0,0,0-1.254-.259,6.889,6.889,0,0,0-4.373.855q-.148.089-.29.188l-.093.067c-.066.048-.132.1-.2.147l-.08.066-.041.034c-.054.045-.108.091-.16.138l-.059.054-.07.066q-.074.072-.147.146l-.031.032-.092.1q-.077.085-.152.173c-.035.041-.069.082-.1.125-.049.062-.1.127-.145.192-.029.039-.057.078-.085.118l-.029.044c-.042.062-.083.125-.123.189-.017.027-.034.053-.051.08l-.061.1c-.044.076-.088.154-.13.233q-.037.071-.073.143c-.04.081-.079.165-.117.249l-.058.13-.028.069c-.033.08-.064.16-.095.242l-.028.075c-.017.049-.033.1-.05.148-.031.092-.061.185-.089.28-.018.062-.035.126-.052.19-.025.094-.05.189-.073.287-.014.06-.027.122-.04.184l-.008.037c-.02.094-.037.19-.055.288-.008.049-.017.1-.024.148,0,.03-.01.06-.014.09s-.012.079-.019.119c-.018.13-.033.264-.047.4s-.021.253-.03.382c0,.05-.007.1-.01.15,0,.025,0,.049,0,.074s0,.076,0,.113c-.006.148-.011.3-.011.452l-.1,31.747c0,.194,0,.384.01.571,0,.063.008.123.011.184.006.123.012.245.022.365.006.072.014.142.021.213.01.106.02.212.033.315.009.074.021.146.031.219.014.1.027.194.043.288.013.074.028.146.042.218.017.09.034.181.053.269.016.072.033.143.051.214s.028.116.043.173l.02.081c.019.07.04.138.06.207l.015.048c.019.064.037.129.058.192s.045.133.068.2c.029.083.058.167.088.248l.038.1c.045.113.09.224.138.333l.016.037c.053.119.109.235.166.349l.045.088q.074.144.152.282l.032.058c.026.045.053.087.08.131.037.061.073.123.111.182.016.025.033.05.049.075.055.083.11.165.167.245l.046.065q.1.144.213.28l.047.057q.081.1.163.193l.023.028.056.064c.076.085.154.169.233.249l.039.039q.1.1.209.2l.064.06c.083.075.166.149.251.22l.018.015h0c.078.065.157.127.237.189h0l.086.065q.095.071.191.138l.007,0,.076.054c.066.045.132.087.2.13l.077.05.035.022q.122.075.245.146l.089.05q.1.056.2.11l.088.046c.086.044.174.086.261.126l.025.012.1.042c.064.028.128.057.192.083l.085.034c.07.028.141.056.212.082l.093.034c.072.026.144.05.216.074l.015.005.061.021.083.025c.069.021.137.042.206.062l.074.02c.073.02.146.039.219.057l.094.022q.106.025.213.047l.077.016q.141.028.281.051c.108.017.215.033.321.046s.2.022.294.031l.1.007c.067.005.134.01.2.013l.116,0c.062,0,.123,0,.185.005h.124l.18,0,.126,0,.182-.01.124-.009.189-.018.116-.012c.071-.009.141-.019.212-.03l.093-.014c.1-.017.2-.036.3-.057l.045-.01c.085-.019.171-.039.256-.061l.1-.029c.065-.018.13-.036.195-.057l.116-.038c.06-.02.12-.04.179-.062l.119-.046q.087-.034.173-.07l.119-.052c.057-.026.114-.053.17-.081l.114-.057c.059-.031.117-.063.174-.1.034-.019.069-.038.1-.058A6.24,6.24,0,0,0,2136.568,542.568Z" transform="translate(-2121.914 -499.521)" fill="#314cd9"/>
        <g id="그룹_273" data-name="그룹 273" clip-path="url(#clip-path-2)">
          <rect id="사각형_94" data-name="사각형 94" width="22.334" height="59.833" transform="translate(-1.001 -4.821)" fill="url(#linear-gradient-3)" style="mix-blend-mode: multiply;isolation: isolate"/>
        </g>
      </g>
    </g>
    <g id="그룹_279" data-name="그룹 279" transform="translate(2026.268 442.811)">
      <path id="패스_929" data-name="패스 929" d="M2358.417,757.947l-.106-.013,1.51-.909.054-16.554a2.723,2.723,0,0,0-2.408-2.766,2.279,2.279,0,0,0-1.459.272l-3.188,1.919a4.67,4.67,0,0,0-4.074-2.727l-5.605-.688a4.614,4.614,0,0,0-2.981.454L2335.072,740a4.615,4.615,0,0,1,2.981-.454l5.263.646-4.979,3a.625.625,0,0,0-.249.591c0,.508.239.844.988.936l3.5.43a1.144,1.144,0,0,0,.725-.085l4.218-2.538a5.023,5.023,0,0,1,.592,2.488,4.861,4.861,0,0,1-.262,1.631l-7.835-.962a2.006,2.006,0,0,0-1.3.2l-5.087,3.062a2.006,2.006,0,0,1,1.3-.2l12.225,1.5a2.077,2.077,0,0,1,2,2.182c0,.015,0,.029,0,.043l-1.184.713.009-2.7-5.087,3.062,0,1.447-3.487,2.1a2.992,2.992,0,0,1,.141.96l0,.611c0,.56.119.676.65.742l13.143,1.614a2.073,2.073,0,0,1,2.024,2.134,1.616,1.616,0,0,1-.713,1.451l5.087-3.061a1.617,1.617,0,0,0,.713-1.451A2.073,2.073,0,0,0,2358.417,757.947Zm-14.254-16.3c-.749-.092-.99-.428-.988-.936a.708.708,0,0,1,.164-.523l.319.039a5.03,5.03,0,0,1,3.535,1.792Zm4.816,5.126,2.707-1.629a3.5,3.5,0,0,0,1.514-3.2,5.849,5.849,0,0,0-.077-.976,2.7,2.7,0,0,1,1.665,2.564l-.028,8.616-2.88-.354,1.667-1a1.582,1.582,0,0,0,.692-1.432,2.077,2.077,0,0,0-2-2.182Zm-3.7,9.557a1.664,1.664,0,0,1-.333-.068l2.259-1.359,2.741.337,4.818-2.9-.017,5.153Z" transform="translate(-2332.918 -736.424)" fill="#e0e5ef"/>
      <g id="그룹_277" data-name="그룹 277" transform="translate(0.71)">
        <g id="그룹_276" data-name="그룹 276" clip-path="url(#clip-path-3)">
          <rect id="사각형_95" data-name="사각형 95" width="33.702" height="31.65" transform="translate(-1.674 28.951) rotate(-90)" fill="url(#linear-gradient-4)" style="mix-blend-mode: multiply;isolation: isolate"/>
        </g>
      </g>
      <g id="그룹_278" data-name="그룹 278" transform="translate(0 3.062)">
        <path id="패스_930" data-name="패스 930" d="M2350.233,814.6l-13.143-1.614c-.531-.065-.652-.182-.65-.742l0-.611a3.005,3.005,0,0,0-.141-.96l3.478.427.013-3.973,4.252.522c1.425.175,2.008-.619,2.011-1.637a2.077,2.077,0,0,0-2-2.182l-12.224-1.5a1.585,1.585,0,0,0-2.011,1.69,2.05,2.05,0,0,0,2,2.13l3.286.4-.009,2.624a3.094,3.094,0,0,0-1.063-.334,2,2,0,0,0-2.472,2.192l0,1.35c-.009,2.724.713,3.807,3.418,4.139l15.245,1.872a1.6,1.6,0,0,0,2.036-1.661A2.073,2.073,0,0,0,2350.233,814.6Z" transform="translate(-2329.821 -793.077)" fill="#6f86ea"/>
        <path id="패스_931" data-name="패스 931" d="M2337.669,761.323l5.605.688c3.092.38,4.474-1.208,4.482-3.653s-1.362-4.4-4.455-4.776l-5.6-.688c-3.117-.383-4.5,1.231-4.507,3.676S2334.552,760.94,2337.669,761.323Zm1.056-4.863,3.5.43c.75.092.989.375.988.911,0,.508-.243.785-.993.693l-3.5-.43c-.749-.092-.989-.428-.988-.936C2337.733,756.591,2337.976,756.367,2338.725,756.459Z" transform="translate(-2332.562 -752.837)" fill="#6f86ea"/>
        <path id="패스_932" data-name="패스 932" d="M2391,775.158a1.914,1.914,0,0,0,1.927,1.969l3.672.451,0,.765,4.807.59.054-16.554a2.723,2.723,0,0,0-2.408-2.766,2.018,2.018,0,0,0-2.4,2.175l-.041,12.3-3.672-.451C2391.536,773.466,2391,774.19,2391,775.158Z" transform="translate(-2379.587 -758.332)" fill="#6f86ea"/>
      </g>
    </g>
    <path id="패스_933" data-name="패스 933" d="M2045.344,402.622c14.826,1.82,26.241,12.325,26.184,29.732l-.095,28.978c-.057,17.506-11.532,25.1-26.358,23.281s-26.24-12.226-26.183-29.732l.1-28.978C2019.044,408.5,2030.52,400.8,2045.344,402.622Zm7.226,57.779.1-31.747c.02-6.132-4.1-8.815-7.385-9.218s-7.419,1.266-7.439,7.4l-.1,31.747c-.021,6.329,4.1,8.815,7.385,9.218s7.419-1.069,7.44-7.4" transform="translate(-47.259 -16.783)" fill="#314cd9"/>
    <path id="패스_934" data-name="패스 934" d="M2040.915,406.166c14.826,1.82,26.241,12.325,26.184,29.732L2067,464.877c-.058,17.506-11.532,25.1-26.358,23.281s-26.24-12.226-26.183-29.732l.095-28.978C2014.615,412.04,2026.092,404.346,2040.915,406.166Zm7.226,57.779.1-31.747c.02-6.132-4.1-8.815-7.385-9.219s-7.419,1.266-7.439,7.4l-.1,31.747c-.021,6.329,4.1,8.815,7.385,9.218s7.42-1.069,7.44-7.4" transform="translate(-43.621 -19.695)" fill="#6f86ea"/>
    <path id="패스_935" data-name="패스 935" d="M2051.385,493.549a33.107,33.107,0,0,1-4.015-.253c-7.247-.89-13.4-3.844-17.807-8.544-4.688-5.005-7.153-11.842-7.127-19.771l.095-28.978c.023-7.09,2.069-12.854,5.916-16.67,3.6-3.568,8.739-5.455,14.867-5.455a32.751,32.751,0,0,1,3.977.25,28.676,28.676,0,0,1,17.807,8.58c4.689,5.018,7.154,11.842,7.128,19.735l-.095,28.978c-.024,7.22-2.01,12.838-5.9,16.7C2062.646,491.672,2057.513,493.549,2051.385,493.549Zm-4.9-65.5c-3.646,0-7.912,2.324-7.934,8.873l-.1,31.747c-.023,7.064,4.636,10.144,8.634,10.635a9.684,9.684,0,0,0,1.176.072c3.786,0,7.839-2.332,7.86-8.878l.1-31.747c.021-6.612-4.322-10.105-8.635-10.635A9.089,9.089,0,0,0,2046.483,428.051Z" transform="translate(-50.171 -26.245)" opacity="0.5" fill="url(#linear-gradient-5)" style="mix-blend-mode: multiply;isolation: isolate"/>
    <path id="패스_936" data-name="패스 936" d="M1961.677,437.5l.237,1.523a2.291,2.291,0,0,0,1.912,1.912l1.523.237a.477.477,0,0,1,0,.943l-1.523.237a2.292,2.292,0,0,0-1.912,1.912l-.237,1.523a.477.477,0,0,1-.943,0l-.237-1.523a2.292,2.292,0,0,0-1.912-1.912l-1.523-.237a.477.477,0,0,1,0-.943l1.523-.237a2.291,2.291,0,0,0,1.912-1.912l.237-1.523A.477.477,0,0,1,1961.677,437.5Z" transform="translate(0 -50.121)" fill="#2a43c6"/>
    <path id="패스_937" data-name="패스 937" d="M2404.257,666.337l.248,1.591a2.393,2.393,0,0,0,2,2l1.591.248a.5.5,0,0,1,0,.984l-1.591.248a2.393,2.393,0,0,0-2,2l-.248,1.591a.5.5,0,0,1-.984,0l-.248-1.591a2.394,2.394,0,0,0-2-2l-1.591-.248a.5.5,0,0,1,0-.984l1.591-.248a2.393,2.393,0,0,0,2-2l.248-1.591A.5.5,0,0,1,2404.257,666.337Z" transform="translate(-359.841 -236.257)" fill="#314cd9"/>
    <path id="패스_938" data-name="패스 938" d="M2504.77,804.435l.161,1.035a1.557,1.557,0,0,0,1.3,1.3l1.034.161a.324.324,0,0,1,0,.64l-1.034.161a1.556,1.556,0,0,0-1.3,1.3l-.161,1.034a.324.324,0,0,1-.64,0l-.161-1.034a1.556,1.556,0,0,0-1.3-1.3l-1.034-.161a.324.324,0,0,1,0-.64l1.034-.161a1.556,1.556,0,0,0,1.3-1.3l.161-1.035A.324.324,0,0,1,2504.77,804.435Z" transform="translate(-443.094 -348.714)" fill="#314cd9"/>
    <circle id="타원_13" data-name="타원 13" cx="0.943" cy="0.943" r="0.943" transform="translate(1965.895 384.397)" fill="#2a43c6"/>
    <circle id="타원_14" data-name="타원 14" cx="0.943" cy="0.943" r="0.943" transform="translate(2036.737 426.876)" fill="#314cd9"/>
    <circle id="타원_15" data-name="타원 15" cx="1.232" cy="1.232" r="1.232" transform="translate(1958.924 434.449)" fill="#2a43c6"/>
    <circle id="타원_16" data-name="타원 16" cx="0.471" cy="0.471" r="0.471" transform="translate(1962.01 440.834)" fill="#fff"/>
    <path id="패스_939" data-name="패스 939" d="M2353.475,820.64a2.409,2.409,0,0,1-.292-.019l-15.245-1.872c-2.262-.278-2.846-.993-2.838-3.481l0-1.35c0-1.049.463-1.559,1.4-1.559a2.741,2.741,0,0,1,.328.021,2.449,2.449,0,0,1,.835.263l.627.331.257.787a2.334,2.334,0,0,1,.108.753l0,.612a1.206,1.206,0,0,0,1.23,1.4l13.143,1.614a1.419,1.419,0,0,1,1.443,1.476c0,1.024-.751,1.026-1,1.026Zm-14.837-7.817.013-3.973-3.869-.475a1.392,1.392,0,0,1-1.418-1.471c0-1.055.713-1.055.98-1.055a2.394,2.394,0,0,1,.29.019l12.224,1.5a1.421,1.421,0,0,1,1.419,1.524c0,.889-.521,1-.972,1a2.5,2.5,0,0,1-.3-.019l-4.991-.613-.013,3.973Z" transform="translate(-306.435 -350.087)" fill="#6f86ea"/>
    <path id="패스_940" data-name="패스 940" d="M2347.027,764.289a6.542,6.542,0,0,1-.79-.051l-5.605-.688c-2.522-.31-3.906-1.764-3.9-4.1.007-2.039,1.007-3.073,2.973-3.073a6.537,6.537,0,0,1,.792.051l5.605.688c2.506.308,3.882,1.77,3.874,4.118-.007,2.024-1,3.05-2.95,3.05Zm-5.716-5.628a1.234,1.234,0,0,0-1.358,1.346c0,.524.2,1.427,1.568,1.595l3.5.43a2.847,2.847,0,0,0,.344.023,1.271,1.271,0,0,0,1.391-1.369c0-.913-.525-1.441-1.568-1.569l-3.5-.43A3.046,3.046,0,0,0,2341.311,758.661Z" transform="translate(-309.175 -309.847)" opacity="0.5" fill="url(#linear-gradient-6)" style="mix-blend-mode: multiply;isolation: isolate"/>
    <path id="패스_941" data-name="패스 941" d="M2400.142,780.64l0-.765-4.255-.523c-.9-.11-1.35-.551-1.347-1.31,0-.63.258-.887.884-.887a2.629,2.629,0,0,1,.313.021l4.411.542.043-13.045c0-1.388.982-1.537,1.4-1.537a2.128,2.128,0,0,1,.255.016,2.055,2.055,0,0,1,1.827,2.108l-.052,15.809Z" transform="translate(-356.202 -315.342)" fill="#6f86ea"/>
  </g>
</svg>
