<svg xmlns="http://www.w3.org/2000/svg" width="25" height="17" viewBox="0 0 25 17">
  <g id="그룹_6671" data-name="그룹 6671" transform="translate(-652 -539.5)">
    <g id="그룹_6668" data-name="그룹 6668" transform="translate(664.061 544.431)">
      <path id="패스_7383" data-name="패스 7383" d="M686.1,553.625a1.456,1.456,0,1,1-1.025-1.785A1.455,1.455,0,0,1,686.1,553.625Z" transform="translate(-683.238 -551.789)" fill="none" stroke="#113462" stroke-linecap="round" stroke-linejoin="round" stroke-width="1"/>
      <path id="패스_7384" data-name="패스 7384" d="M698.905,565.567a1.476,1.476,0,1,1-1.039-1.81A1.476,1.476,0,0,1,698.905,565.567Z" transform="translate(-691.189 -559.21)" fill="none" stroke="#113462" stroke-linecap="round" stroke-linejoin="round" stroke-width="1"/>
      <line id="선_776" data-name="선 776" y1="6.125" x2="6.032" transform="translate(0.802 0.548)" fill="none" stroke="#113462" stroke-linecap="round" stroke-linejoin="round" stroke-width="1"/>
    </g>
    <path id="패스_7385" data-name="패스 7385" d="M652.5,540v3.849c.063,0,.124-.009.188-.009a4.16,4.16,0,0,1,0,8.32c-.064,0-.125-.007-.188-.009V556h24V540Z" transform="translate(0)" fill="none" stroke="#000" stroke-linecap="round" stroke-linejoin="round" stroke-width="1"/>
    <g id="그룹_6670" data-name="그룹 6670" transform="translate(659.536 540)">
      <g id="그룹_6669" data-name="그룹 6669" transform="translate(0 0)">
        <line id="선_777" data-name="선 777" y2="1.202" fill="none" stroke="#000" stroke-linecap="round" stroke-linejoin="round" stroke-width="1"/>
        <line id="선_778" data-name="선 778" y2="10.621" transform="translate(0 2.724)" fill="none" stroke="#000" stroke-linecap="round" stroke-linejoin="round" stroke-width="1" stroke-dasharray="2.848 1.898"/>
        <line id="선_779" data-name="선 779" y2="1.202" transform="translate(0 14.106)" fill="none" stroke="#000" stroke-linecap="round" stroke-linejoin="round" stroke-width="1"/>
      </g>
    </g>
  </g>
</svg>
