<svg xmlns="http://www.w3.org/2000/svg" width="25.176" height="25.261" viewBox="0 0 25.176 25.261">
  <g id="그룹_6673" data-name="그룹 6673" transform="translate(-481.836 -837.574)">
    <path id="패스_7367" data-name="패스 7367" d="M499.608,877.145l3.995,1.314a1.412,1.412,0,0,0,1.81-.844h0a1.412,1.412,0,0,0-.844-1.81l-6.6-2.245a4.236,4.236,0,0,0-3.038.138l-2.983,1.328" transform="translate(-6.108 -21.891)" fill="none" stroke="#000" stroke-linecap="round" stroke-linejoin="round" stroke-width="1"/>
    <path id="패스_7368" data-name="패스 7368" d="M509.307,882.626l4.2-1.709a1.412,1.412,0,0,1,1.877.683h0a1.412,1.412,0,0,1-.683,1.877l-6.4,2.985-.267.114a4.237,4.237,0,0,1-3.718-.185l-2.538-1.4a4.238,4.238,0,0,0-3.742-.175" transform="translate(-9.01 -26.346)" fill="none" stroke="#000" stroke-linecap="round" stroke-linejoin="round" stroke-width="1"/>
    <path id="패스_7369" data-name="패스 7369" d="M482.506,877.109l2.22-1.019a.706.706,0,0,1,.94.337l2.336,5.5a.707.707,0,0,1-.336.941l-5.16,2.559" transform="translate(0 -23.265)" fill="none" stroke="#000" stroke-linecap="round" stroke-linejoin="round" stroke-width="1"/>
    <circle id="타원_304" data-name="타원 304" cx="0.353" cy="0.353" r="0.353" transform="translate(483.784 855.247)" fill="none" stroke="#000" stroke-linecap="round" stroke-linejoin="round" stroke-width="1"/>
    <g id="그룹_6660" data-name="그룹 6660" transform="translate(488.94 838.165)">
      <path id="패스_7370" data-name="패스 7370" d="M511.469,862.964a4.836,4.836,0,0,0,.8-2.99c0-3.626-3.069-6.73-5.532-7.974h-3.865a9.481,9.481,0,0,0-5.079,7.974" transform="translate(-497.792 -847.115)" fill="none" stroke="#113462" stroke-linecap="round" stroke-linejoin="round" stroke-width="1"/>
      <path id="패스_7371" data-name="패스 7371" d="M508.712,843.05l-.019-1.407-1.8-2.363a.32.32,0,0,1,.1-.423l.3-.208a2.724,2.724,0,0,1,3.346.193l.245.215a1.365,1.365,0,0,0,1.317.274l.929-.3a.649.649,0,0,1,.79.9l-1.321,1.71v1.407" transform="translate(-503.651 -838.165)" fill="none" stroke="#113462" stroke-linecap="round" stroke-linejoin="round" stroke-width="1"/>
    </g>
    <path id="패스_7391" data-name="패스 7391" d="M0,0H4" transform="translate(494.006 841.637)" fill="none" stroke="#113462" stroke-linecap="round" stroke-width="1"/>
    <path id="패스_7372" data-name="패스 7372" d="M519.75,852.375a8.317,8.317,0,0,1,2.207,4.281" transform="translate(-23.437 -8.86)" fill="none" stroke="#113462" stroke-linecap="round" stroke-linejoin="round" stroke-width="1"/>
    <path id="패스_7373" data-name="패스 7373" d="M513.743,852.667a4.285,4.285,0,0,0-1.118,2.677" transform="translate(-18.98 -9.07)" fill="none" stroke="#113462" stroke-linecap="round" stroke-linejoin="round" stroke-width="1"/>
  </g>
</svg>
