<svg xmlns="http://www.w3.org/2000/svg" width="25" height="22.413" viewBox="0 0 25 22.413">
  <g id="그룹_6676" data-name="그룹 6676" transform="translate(-140.423 -312.65)">
    <path id="패스_7392" data-name="패스 7392" d="M159.865,330.5H145.982a5.058,5.058,0,1,0,4.293,7.724h5.3a5.056,5.056,0,1,0,4.294-7.724Z" transform="translate(0 -6.057)" fill="#fff" stroke="#1d1d1b" stroke-linejoin="round" stroke-width="1"/>
    <path id="패스_7393" data-name="패스 7393" d="M155.522,324.372v-2.551a1.772,1.772,0,0,1,1.772-1.773h2.355a1.773,1.773,0,0,0,1.773-1.773h0a1.772,1.772,0,0,0-1.773-1.772H149.99a1.773,1.773,0,0,1-1.773-1.773V312.65" transform="translate(-2.537 0)" fill="none" stroke="#1d1d1b" stroke-linejoin="round" stroke-width="1"/>
    <g id="그룹_6674" data-name="그룹 6674" transform="translate(143.337 326.812)">
      <line id="선_780" data-name="선 780" x2="5.085" transform="translate(0 2.543)" fill="#fff" stroke="#113462" stroke-linejoin="round" stroke-width="1"/>
      <line id="선_781" data-name="선 781" y1="5.085" transform="translate(2.543 0)" fill="#fff" stroke="#113462" stroke-linejoin="round" stroke-width="1"/>
    </g>
    <g id="그룹_6675" data-name="그룹 6675" transform="translate(157.392 326.812)">
      <line id="선_782" data-name="선 782" x2="5.085" transform="translate(0 2.543)" fill="#fff" stroke="#113462" stroke-linejoin="round" stroke-width="1"/>
      <line id="선_783" data-name="선 783" y1="5.085" transform="translate(2.543 0)" fill="#fff" stroke="#113462" stroke-linejoin="round" stroke-width="1"/>
    </g>
  </g>
</svg>
