<svg xmlns="http://www.w3.org/2000/svg" width="25.116" height="21.439" viewBox="0 0 25.116 21.439">
  <g id="그룹_6663" data-name="그룹 6663" transform="translate(-483.786 -382.529)">
    <path id="패스_7374" data-name="패스 7374" d="M516.917,391.416a5.429,5.429,0,1,1-1.612-7.506A5.429,5.429,0,0,1,516.917,391.416Z" transform="translate(-14.115)" fill="none" stroke="#000" stroke-linecap="round" stroke-linejoin="round" stroke-width="1"/>
    <path id="패스_7375" data-name="패스 7375" d="M506.9,424.738A2.735,2.735,0,1,1,504.165,422,2.735,2.735,0,0,1,506.9,424.738Z" transform="translate(-10.582 -24.004)" fill="none" stroke="#000" stroke-linecap="round" stroke-linejoin="round" stroke-width="1"/>
    <path id="패스_7376" data-name="패스 7376" d="M529.489,424.738A2.735,2.735,0,1,1,526.754,422,2.735,2.735,0,0,1,529.489,424.738Z" transform="translate(-24.744 -24.004)" fill="none" stroke="#000" stroke-linecap="round" stroke-linejoin="round" stroke-width="1"/>
    <path id="패스_7377" data-name="패스 7377" d="M484.4,386.046l2.623.734,4.792,13.047h12.234l4.351-8.4h-4.917" transform="translate(0 -1.829)" fill="none" stroke="#000" stroke-linecap="round" stroke-linejoin="round" stroke-width="1"/>
    <g id="그룹_6662" data-name="그룹 6662" transform="translate(495.553 388.277)">
      <line id="선_771" data-name="선 771" x2="5.429" fill="none" stroke="#113462" stroke-linecap="round" stroke-linejoin="round" stroke-width="1"/>
    </g>
    <line id="선_772" data-name="선 772" x2="1.479" transform="translate(491.42 389.366)" fill="none" stroke="#000" stroke-linecap="round" stroke-linejoin="round" stroke-width="1"/>
  </g>
</svg>
