<svg xmlns="http://www.w3.org/2000/svg" width="25.176" height="25.17" viewBox="0 0 25.176 25.17">
  <g id="그룹_6659" data-name="그룹 6659" transform="translate(-313.836 -837.949)">
    <g id="그룹_6658" data-name="그룹 6658" transform="translate(321.843 838.449)">
      <g id="그룹_6656" data-name="그룹 6656" transform="translate(0)">
        <path id="패스_7362" data-name="패스 7362" d="M335.866,851.158a7.705,7.705,0,1,1,7.5,2.528" transform="translate(-334.021 -838.449)" fill="none" stroke="#113462" stroke-linecap="round" stroke-linejoin="round" stroke-width="1"/>
      </g>
      <g id="그룹_6657" data-name="그룹 6657" transform="translate(3.796 5.723)">
        <path id="패스_7363" data-name="패스 7363" d="M345.794,854.083l1.817,4.362,1.648-4.362,1.766,4.362,1.622-4.362" transform="translate(-345.281 -854.083)" fill="none" stroke="#113462" stroke-linecap="round" stroke-linejoin="round" stroke-width="1"/>
        <line id="선_769" data-name="선 769" x2="8.077" transform="translate(0 1.762)" fill="none" stroke="#113462" stroke-linecap="round" stroke-linejoin="round" stroke-width="1"/>
      </g>
    </g>
    <path id="패스_7364" data-name="패스 7364" d="M331.89,877.285l4.141,1.362a1.464,1.464,0,0,0,1.877-.875h0a1.464,1.464,0,0,0-.875-1.876l-6.842-2.327a4.391,4.391,0,0,0-3.149.143l-3.093,1.377" transform="translate(-5.6 -21.774)" fill="none" stroke="#000" stroke-linecap="round" stroke-linejoin="round" stroke-width="1"/>
    <path id="패스_7365" data-name="패스 7365" d="M341.722,882.693l4.353-1.772a1.464,1.464,0,0,1,1.946.708h0a1.464,1.464,0,0,1-.708,1.946l-6.635,3.095-.276.119a4.392,4.392,0,0,1-3.854-.192l-2.631-1.453a4.394,4.394,0,0,0-3.879-.182" transform="translate(-9.652 -26.345)" fill="none" stroke="#000" stroke-linecap="round" stroke-linejoin="round" stroke-width="1"/>
    <path id="패스_7366" data-name="패스 7366" d="M314.506,877.149l2.3-1.057a.732.732,0,0,1,.975.349l2.422,5.706a.733.733,0,0,1-.349.975l-5.35,2.653" transform="translate(0 -23.326)" fill="none" stroke="#000" stroke-linecap="round" stroke-linejoin="round" stroke-width="1"/>
    <circle id="타원_303" data-name="타원 303" cx="0.366" cy="0.366" r="0.366" transform="translate(315.831 855.484)" fill="none" stroke="#000" stroke-linecap="round" stroke-linejoin="round" stroke-width="1"/>
  </g>
</svg>
