<svg xmlns="http://www.w3.org/2000/svg" width="25" height="25" viewBox="0 0 25 25">
  <g id="그룹_6672" data-name="그룹 6672" transform="translate(-147.679 -531.869)">
    <path id="패스_7386" data-name="패스 7386" d="M201.405,554.022c.113-.01.224-.029.341-.029a2.846,2.846,0,0,1,3.067,2.555v4.429a2.846,2.846,0,0,1-3.067,2.556c-.117,0-.341-.029-.341-.029" transform="translate(-32.633 -13.451)" fill="none" stroke="#000" stroke-linecap="round" stroke-linejoin="round" stroke-width="1"/>
    <path id="패스_7387" data-name="패스 7387" d="M151.586,554.022c-.113-.01-.224-.029-.341-.029a2.846,2.846,0,0,0-3.067,2.555v4.429a2.846,2.846,0,0,0,3.067,2.556c.117,0,.228-.019.341-.029l.524-.074" transform="translate(0 -13.451)" fill="none" stroke="#000" stroke-linecap="round" stroke-linejoin="round" stroke-width="1"/>
    <path id="패스_7389" data-name="패스 7389" d="M161.831,553.421a6.158,6.158,0,0,1-5.335-6.227v-8.38a6.406,6.406,0,0,1,6.365-6.446h4.455a6.406,6.406,0,0,1,6.365,6.446v10.958" transform="translate(-4.91)" fill="none" stroke="#000" stroke-linecap="round" stroke-linejoin="round" stroke-width="1"/>
    <path id="패스_7388" data-name="패스 7388" d="M177.979,587.3a1.7,1.7,0,0,1-1.7,1.7h-4.77a1.7,1.7,0,0,1-1.7-1.7h0a1.7,1.7,0,0,1,1.7-1.7h4.77a1.7,1.7,0,0,1,1.7,1.7Z" transform="translate(-13.395 -32.633)" fill="none" stroke="#113462" stroke-linecap="round" stroke-linejoin="round" stroke-width="1"/>
  </g>
</svg>
