<svg xmlns="http://www.w3.org/2000/svg" width="25.114" height="21.011" viewBox="0 0 25.114 21.011">
  <g id="그룹_6653" data-name="그룹 6653" transform="translate(-313.763 -382.529)">
    <path id="패스_7357" data-name="패스 7357" d="M346.63,391.2a5.286,5.286,0,1,1-1.57-7.309A5.287,5.287,0,0,1,346.63,391.2Z" transform="translate(-13.933 0)" fill="none" stroke="#000" stroke-linecap="round" stroke-linejoin="round" stroke-width="1"/>
    <path id="패스_7358" data-name="패스 7358" d="M336.731,424.666A2.663,2.663,0,1,1,334.068,422,2.663,2.663,0,0,1,336.731,424.666Z" transform="translate(-10.532 -24.29)" fill="none" stroke="#000" stroke-linecap="round" stroke-linejoin="round" stroke-width="1"/>
    <path id="패스_7359" data-name="패스 7359" d="M359.32,424.666A2.663,2.663,0,1,1,356.657,422,2.663,2.663,0,0,1,359.32,424.666Z" transform="translate(-24.505 -24.29)" fill="none" stroke="#000" stroke-linecap="round" stroke-linejoin="round" stroke-width="1"/>
    <path id="패스_7360" data-name="패스 7360" d="M314.377,386.046l2.623.715,4.792,12.7h12.234l4.351-8.181H333.46" transform="translate(0 -1.859)" fill="none" stroke="#000" stroke-linecap="round" stroke-linejoin="round" stroke-width="1"/>
    <g id="그룹_6652" data-name="그룹 6652" transform="translate(325.613 385.683)">
      <line id="선_763" data-name="선 763" x2="5.287" transform="translate(0 2.643)" fill="none" stroke="#113462" stroke-linecap="round" stroke-linejoin="round" stroke-width="1"/>
      <line id="선_764" data-name="선 764" y1="5.287" transform="translate(2.643)" fill="none" stroke="#113462" stroke-linecap="round" stroke-linejoin="round" stroke-width="1"/>
    </g>
    <line id="선_765" data-name="선 765" x2="1.44" transform="translate(321.407 389.366)" fill="none" stroke="#000" stroke-linecap="round" stroke-linejoin="round" stroke-width="1"/>
  </g>
</svg>
