<svg xmlns="http://www.w3.org/2000/svg" width="71.5" height="62.5" viewBox="0 0 71.5 62.5">
  <g id="그룹_6983" data-name="그룹 6983" transform="translate(-253.25 117.75)">
    <g id="그룹_6894" data-name="그룹 6894" transform="translate(254 -117)">
      <g id="그룹_6739" data-name="그룹 6739">
        <path id="패스_7417" data-name="패스 7417" d="M313.541,803.983h-18.07l1.553-12.886h14.963Z" transform="translate(-270.87 -748.075)" fill="#fff" stroke="#000" stroke-linejoin="round" stroke-width="1.5"/>
        <rect id="사각형_2883" data-name="사각형 2883" width="67.273" height="43.022" rx="2.824" fill="#fff" stroke="#000" stroke-linejoin="round" stroke-width="1.5"/>
        <rect id="사각형_2884" data-name="사각형 2884" width="34.068" height="57.598" transform="translate(62.435 4.499) rotate(90)" fill="#fff" stroke="#000" stroke-linejoin="round" stroke-width="1.5"/>
        <path id="사각형_2885" data-name="사각형 2885" d="M2.3,0H30.878a2.3,2.3,0,0,1,2.3,2.3V4.536a0,0,0,0,1,0,0H0a0,0,0,0,1,0,0V2.3A2.3,2.3,0,0,1,2.3,0Z" transform="translate(17.047 55.908)" fill="#fff" stroke="#000" stroke-linejoin="round" stroke-width="1.5"/>
        <rect id="사각형_2886" data-name="사각형 2886" width="34.068" height="54.377" transform="translate(62.435 4.499) rotate(90)" fill="#eef3f9" style="mix-blend-mode: multiply;isolation: isolate"/>
        <path id="패스_7418" data-name="패스 7418" d="M311.914,791.1H296.95l-.5,4.107h15.954Z" transform="translate(-270.795 -748.065)" fill="#e3e3e3" style="mix-blend-mode: multiply;isolation: isolate"/>
        <path id="사각형_2887" data-name="사각형 2887" d="M0,0H10.342a2.9,2.9,0,0,1,2.9,2.9V4.536a0,0,0,0,1,0,0H0a0,0,0,0,1,0,0V0A0,0,0,0,1,0,0Z" transform="translate(37.267 55.908)" fill="#e3e3e3" style="mix-blend-mode: multiply;isolation: isolate"/>
        <text id="ipin" transform="translate(21.119 26)" font-size="12" font-family="NunitoSans10pt-Medium, 'Nunito Sans \31 0pt Normal'" font-weight="500"><tspan x="0" y="0">IPIN</tspan></text>
      </g>
      <g id="그룹_6740" data-name="그룹 6740" transform="translate(50.685 35.258)">
        <path id="패스_7419" data-name="패스 7419" d="M338.862,796.2v-8.749a22.446,22.446,0,0,1-9.657-4.122V796.2Z" transform="translate(-319.547 -783.333)" fill="#fff" stroke="#000" stroke-linejoin="round" stroke-width="1.5"/>
        <path id="패스_7420" data-name="패스 7420" d="M329.881,783.333a22.468,22.468,0,0,1-9.658,4.122V796.2h9.658Z" transform="translate(-320.223 -783.333)" fill="#fff" stroke="#000" stroke-linejoin="round" stroke-width="1.5"/>
        <path id="패스_7421" data-name="패스 7421" d="M320.223,796.2v.773c0,4.509,3.176,9.562,6.936,11.033l2.723,1.065V796.2Z" transform="translate(-320.223 -783.333)" fill="#fff" stroke="#000" stroke-linejoin="round" stroke-width="1.5"/>
        <path id="패스_7422" data-name="패스 7422" d="M329.205,796.2v12.871l2.72-1.065c3.759-1.471,6.937-6.524,6.937-11.033V796.2Z" transform="translate(-319.547 -783.333)" fill="#fff" stroke="#000" stroke-linejoin="round" stroke-width="1.5"/>
        <path id="패스_7423" data-name="패스 7423" d="M329.737,786.62a22.9,22.9,0,0,1-7.595,2.753V796.2h7.595Z" transform="translate(-320.079 -783.333)" fill="#d3d3d3" style="mix-blend-mode: multiply;isolation: isolate"/>
        <path id="패스_7424" data-name="패스 7424" d="M338.643,798.123h-7.519v10.144l.657-.257C335.225,806.662,338.171,802.31,338.643,798.123Z" transform="translate(-319.403 -783.333)" fill="#d3d3d3" style="mix-blend-mode: multiply;isolation: isolate"/>
      </g>
    </g>
  </g>
</svg>
