<svg xmlns="http://www.w3.org/2000/svg" width="61.263" height="58.75" viewBox="0 0 61.263 58.75">
  <g id="그룹_6890" data-name="그룹 6890" transform="translate(-461.799 -551.987)">
    <path id="패스_7427" data-name="패스 7427" d="M493.627,582.595v-.057a4.187,4.187,0,0,1,1.5-3.082,6.589,6.589,0,0,0,2.194-4.911v-7.57a6.664,6.664,0,0,0-6.664-6.663h-5.274a6.663,6.663,0,0,0-6.663,6.663v7.57a6.59,6.59,0,0,0,2.193,4.911,4.186,4.186,0,0,1,1.5,3.081v.058a3.922,3.922,0,0,1-2.853,3.774l-5.848,1.656a6.557,6.557,0,0,0-4.771,6.309v11.091H507.1V594.334a6.558,6.558,0,0,0-4.772-6.309l-5.848-1.656A3.922,3.922,0,0,1,493.627,582.595Z" fill="#fff" stroke="#000" stroke-linejoin="round" stroke-width="1.5"/>
    <path id="패스_7428" data-name="패스 7428" d="M476.718,588.243a3.9,3.9,0,0,0,2.252-1.71l-5.266,1.492A6.517,6.517,0,0,0,470.6,590c.094-.031.18-.076.275-.1Z" fill="#e3e3e3" style="mix-blend-mode: multiply;isolation: isolate"/>
    <path id="패스_7429" data-name="패스 7429" d="M507.1,594.334a6.558,6.558,0,0,0-4.772-6.309l-5.848-1.656a3.922,3.922,0,0,1-2.853-3.774v-.057a4.187,4.187,0,0,1,1.5-3.082,6.589,6.589,0,0,0,2.194-4.911v-7.57a6.665,6.665,0,0,0-6.664-6.664h-5.274a6.638,6.638,0,0,0-4.963,2.229,6.646,6.646,0,0,1,2.13-.354h5.273a6.663,6.663,0,0,1,6.664,6.663v7.57a6.584,6.584,0,0,1-2.194,4.911,4.188,4.188,0,0,0-1.5,3.082v.058a3.922,3.922,0,0,0,2.854,3.773l5.848,1.656a6.557,6.557,0,0,1,4.771,6.31v9.216H507.1Z" fill="#e3e3e3" style="mix-blend-mode: multiply;isolation: isolate"/>
    <circle id="타원_313" data-name="타원 313" cx="2.616" cy="2.616" r="2.616" transform="translate(470.834 552.737)" fill="#fff" stroke="#000" stroke-linejoin="round" stroke-width="1.5"/>
    <g id="그룹_6766" data-name="그룹 6766">
      <g id="그룹_6765" data-name="그룹 6765">
        <g id="그룹_6763" data-name="그룹 6763">
          <line id="선_804" data-name="선 804" y2="6.77" transform="translate(465.184 566.145)" fill="none" stroke="#56cbf9" stroke-width="1.5"/>
        </g>
        <g id="그룹_6764" data-name="그룹 6764">
          <line id="선_805" data-name="선 805" x2="6.77" transform="translate(461.799 569.53)" fill="none" stroke="#56cbf9" stroke-width="1.5"/>
        </g>
      </g>
    </g>
    <circle id="타원_314" data-name="타원 314" cx="2.616" cy="2.616" r="2.616" transform="translate(517.079 569.529)" fill="#fff" stroke="#000" stroke-linejoin="round" stroke-width="1.5"/>
    <g id="그룹_6770" data-name="그룹 6770" transform="translate(-10 -6.758)">
      <g id="그룹_6769" data-name="그룹 6769">
        <g id="그룹_6767" data-name="그룹 6767">
          <line id="선_806" data-name="선 806" x1="6.77" transform="translate(515.112 586.533)" fill="none" stroke="#56cbf9" stroke-width="1.5"/>
        </g>
        <g id="그룹_6768" data-name="그룹 6768">
          <line id="선_807" data-name="선 807" y2="6.77" transform="translate(518.497 583.148)" fill="none" stroke="#56cbf9" stroke-width="1.5"/>
        </g>
      </g>
    </g>
    <g id="그룹_6772" data-name="그룹 6772" transform="translate(495.186 589.688)">
      <g id="그룹_6755" data-name="그룹 6755" transform="translate(0 0.429)">
        <circle id="타원_310" data-name="타원 310" cx="10.5" cy="10.5" r="10.5" transform="translate(-0.387 -0.379)" fill="#014099"/>
        <path id="패스_7426" data-name="패스 7426" d="M673.223,341.464c-.027,0-.055,0-.083,0a1,1,0,0,1-.746-.395l-3.2-4.473a.769.769,0,0,1,.32-1.146,1.07,1.07,0,0,1,1.337.274l2.514,3.511,6.86-6.683a1.088,1.088,0,0,1,1.372-.075.754.754,0,0,1,.088,1.177l-7.73,7.529A1.046,1.046,0,0,1,673.223,341.464Z" transform="translate(-665.37 -326.747)" fill="#fff"/>
      </g>
    </g>
  </g>
</svg>
