<svg xmlns="http://www.w3.org/2000/svg" width="16" height="16" viewBox="0 0 16 16">
  <g id="그룹_6951" data-name="그룹 6951" transform="translate(-1485 -267)">
    <rect id="사각형_2953" data-name="사각형 2953" width="16" height="16" rx="5" transform="translate(1485 267)" fill="#d3d3d3"/>
    <g id="그룹_6950" data-name="그룹 6950" transform="translate(1491.715 270.31)">
      <g id="그룹_6949" data-name="그룹 6949" transform="translate(0 0)">
        <path id="패스_7475" data-name="패스 7475" d="M1686.546,569.979H1686a.81.81,0,0,0-.59.25.843.843,0,0,0-.25.583v.5a.824.824,0,0,0,.826.826h.575a.824.824,0,0,0,.826-.826v-.506a.8.8,0,0,0-.25-.583A.818.818,0,0,0,1686.546,569.979Z" transform="translate(-1685.158 -563.124)" fill="#fff"/>
        <path id="패스_7476" data-name="패스 7476" d="M1687.534,365.913a.811.811,0,0,0-.6-.259h-.575a.818.818,0,0,0-.59.243.756.756,0,0,0-.236.6l.281,4.468a.875.875,0,0,0,.242.561.8.8,0,0,0,.6.25.789.789,0,0,0,.568-.238.884.884,0,0,0,.258-.568l.281-4.46h0A.779.779,0,0,0,1687.534,365.913Z" transform="translate(-1685.524 -365.654)" fill="#fff"/>
      </g>
    </g>
  </g>
</svg>
