<svg xmlns="http://www.w3.org/2000/svg" width="22.759" height="24.975" viewBox="0 0 22.759 24.975">
  <g id="그룹_6757" data-name="그룹 6757" transform="translate(-636.123 -293.697)">
    <circle id="타원_309" data-name="타원 309" cx="4.5" cy="4.5" r="4.5" transform="translate(640 303) rotate(-67.65)" fill="none" stroke="#a7a7a7" stroke-linecap="round" stroke-linejoin="round" stroke-width="1.5"/>
    <path id="패스_7425" data-name="패스 7425" d="M655.453,330.75c0-4.982-3.27-11-9-11-5.516,0-9,6.018-9,11Z" transform="translate(-0.58 -14)" fill="none" stroke="#a7a7a7" stroke-linecap="round" stroke-linejoin="round" stroke-width="1.5"/>
    <g id="그룹_6756" data-name="그룹 6756" transform="translate(647.881 307.244)">
      <g id="그룹_6755" data-name="그룹 6755" transform="translate(0 0)">
        <circle id="타원_310" data-name="타원 310" cx="5.5" cy="5.5" r="5.5" transform="translate(0 0.429)" fill="#014099"/>
        <path id="패스_7426" data-name="패스 7426" d="M671.318,337.266l-.045,0a.545.545,0,0,1-.406-.215l-1.741-2.431a.418.418,0,0,1,.174-.623.582.582,0,0,1,.727.149l1.367,1.909,3.729-3.633a.592.592,0,0,1,.746-.041.41.41,0,0,1,.048.64l-4.2,4.093A.569.569,0,0,1,671.318,337.266Z" transform="translate(-667.048 -328.837)" fill="#fff"/>
      </g>
    </g>
  </g>
</svg>
