<svg xmlns="http://www.w3.org/2000/svg" width="41.21" height="68.5" viewBox="0 0 41.21 68.5">
  <g id="그룹_6982" data-name="그룹 6982" transform="translate(0.75 0.75)">
    <rect id="사각형_2876" data-name="사각형 2876" width="39.71" height="67" rx="4.154" fill="#fff" stroke="#000" stroke-linejoin="round" stroke-width="1.5"/>
    <path id="패스_7416" data-name="패스 7416" d="M681.089,163.895a4.362,4.362,0,0,0,4.541-4.157V101.05a3.792,3.792,0,0,0-.153-1.018,4.884,4.884,0,0,0-1.112-.14H652.9a4.361,4.361,0,0,0-4.541,4.157v58.687a3.787,3.787,0,0,0,.153,1.018,4.884,4.884,0,0,0,1.112.141Z" transform="translate(-645.63 -96.895)" fill="rgba(1,64,153,0.19)" style="mix-blend-mode: multiply;isolation: isolate"/>
    <rect id="사각형_2877" data-name="사각형 2877" width="31.752" height="46.549" transform="translate(3.877 9.907)" fill="#fff" stroke="#000" stroke-linejoin="round" stroke-width="1.5"/>
    <rect id="사각형_2878" data-name="사각형 2878" width="7.434" height="46.549" transform="translate(28.194 9.907)" fill="#eef3f9" style="mix-blend-mode: multiply;isolation: isolate"/>
    <line id="선_795" data-name="선 795" x2="8.673" transform="translate(15.41 61.258)" fill="#fff" stroke="#000" stroke-linejoin="round" stroke-width="1.5"/>
    <line id="선_796" data-name="선 796" x2="3.565" transform="translate(17.966 5.65)" fill="#fff" stroke="#000" stroke-linejoin="round" stroke-width="1.5"/>
    <rect id="사각형_2879" data-name="사각형 2879" width="17.204" height="15.686" transform="translate(11.143 28.308)" fill="#fff" stroke="#000" stroke-linejoin="round" stroke-width="1.5"/>
    <path id="사각형_2880" data-name="사각형 2880" d="M4.168,0H5.393A4.168,4.168,0,0,1,9.561,4.168V8.314a0,0,0,0,1,0,0H0a0,0,0,0,1,0,0V4.168A4.168,4.168,0,0,1,4.168,0Z" transform="translate(14.966 19.984)" fill="none" stroke="#000" stroke-linejoin="round" stroke-width="1.5"/>
    <rect id="사각형_2881" data-name="사각형 2881" width="4.813" height="15.686" transform="translate(23.646 28.308)" fill="#eef3f9" style="mix-blend-mode: multiply;isolation: isolate"/>
    <ellipse id="타원_308" data-name="타원 308" cx="3.403" cy="3.102" rx="3.403" ry="3.102" transform="translate(16.345 33.049)" fill="none" stroke="#000" stroke-linejoin="round" stroke-width="1.5"/>
  </g>
</svg>
