<svg xmlns="http://www.w3.org/2000/svg" xmlns:xlink="http://www.w3.org/1999/xlink" width="203" height="142" viewBox="0 0 203 142">
  <defs>
    <clipPath id="clip-path">
      <rect id="사각형_3709" data-name="사각형 3709" width="203" height="142" transform="translate(1657 618)" fill="#fff" stroke="#707070" stroke-width="1"/>
    </clipPath>
    <clipPath id="clip-path-2">
      <path id="SVGID" d="M226.945,427.536c-39.727,38.015-104.141,38.015-143.869,0s-39.727-99.656,0-137.674,104.142-38.018,143.869,0S266.673,389.517,226.945,427.536Z" transform="translate(-53.281 -261.348)" fill="#00b780" opacity="0.2"/>
    </clipPath>
  </defs>
  <g id="마스크_그룹_11" data-name="마스크 그룹 11" transform="translate(-1657 -618)" clip-path="url(#clip-path)">
    <g id="그룹_826" data-name="그룹 826" transform="translate(1657 618.134)">
      <g id="그룹_825" data-name="그룹 825" transform="translate(0 0)" clip-path="url(#clip-path-2)">
        <g id="그룹_824" data-name="그룹 824" transform="translate(-92.027 -80.828)" opacity="0.2">
          <g id="그룹_810" data-name="그룹 810">
            <g id="그룹_803" data-name="그룹 803" transform="translate(98.738 94.484)">
              <g id="그룹_798" data-name="그룹 798">
                <path id="패스_2722" data-name="패스 2722" d="M0,0,243.591,5.36l.108,4.892L.108,4.892Z" transform="translate(0 168.455) rotate(-45)" fill="#00b780"/>
              </g>
              <g id="그룹_799" data-name="그룹 799" transform="translate(19.663 18.812)">
                <path id="패스_2723" data-name="패스 2723" d="M0,0,243.591,5.36l.108,4.892L.108,4.892Z" transform="translate(0 168.457) rotate(-45.001)" fill="#00b780"/>
              </g>
              <g id="그룹_800" data-name="그룹 800" transform="translate(39.071 37.389)">
                <path id="패스_2724" data-name="패스 2724" d="M0,0,243.591,5.36l.108,4.892L.108,4.892Z" transform="translate(0 168.452) rotate(-44.999)" fill="#00b780"/>
              </g>
              <g id="그룹_801" data-name="그룹 801" transform="translate(58.734 56.2)">
                <path id="패스_2725" data-name="패스 2725" d="M0,0,243.591,5.36l.108,4.892L.108,4.892Z" transform="matrix(0.707, -0.707, 0.707, 0.707, 0, 168.457)" fill="#00b780"/>
              </g>
              <g id="그룹_802" data-name="그룹 802" transform="translate(79.188 75.777)">
                <path id="패스_2726" data-name="패스 2726" d="M0,0,243.592,5.36l.108,4.892L.108,4.892Z" transform="matrix(0.707, -0.707, 0.707, 0.707, 0, 168.458)" fill="#00b780"/>
              </g>
            </g>
            <g id="그룹_809" data-name="그룹 809">
              <g id="그룹_804" data-name="그룹 804">
                <path id="패스_2727" data-name="패스 2727" d="M0,0,243.589,5.36l.108,4.892L.108,4.892Z" transform="translate(0 168.453) rotate(-45)" fill="#00b780"/>
              </g>
              <g id="그룹_805" data-name="그룹 805" transform="translate(20.458 19.574)">
                <path id="패스_2728" data-name="패스 2728" d="M0,0,243.591,5.36l.108,4.892L.108,4.892Z" transform="translate(0 168.455) rotate(-45)" fill="#00b780"/>
              </g>
              <g id="그룹_806" data-name="그룹 806" transform="translate(40.116 38.388)">
                <path id="패스_2729" data-name="패스 2729" d="M0,0,243.591,5.36l.108,4.892L.108,4.892Z" transform="matrix(0.707, -0.707, 0.707, 0.707, 0, 168.454)" fill="#00b780"/>
              </g>
              <g id="그룹_807" data-name="그룹 807" transform="translate(59.53 56.961)">
                <path id="패스_2730" data-name="패스 2730" d="M0,0,243.591,5.36l.108,4.892L.108,4.892Z" transform="translate(0 168.457) rotate(-45.001)" fill="#00b780"/>
              </g>
              <g id="그룹_808" data-name="그룹 808" transform="translate(79.189 75.777)">
                <path id="패스_2731" data-name="패스 2731" d="M0,0,243.591,5.36l.108,4.892L.108,4.892Z" transform="translate(0 168.455) rotate(-45)" fill="#00b780"/>
              </g>
            </g>
          </g>
          <g id="그룹_823" data-name="그룹 823" transform="translate(9.776 9.355)">
            <g id="그룹_816" data-name="그룹 816" transform="translate(98.74 94.483)">
              <g id="그룹_811" data-name="그룹 811">
                <path id="패스_2732" data-name="패스 2732" d="M0,0,243.59,5.36l.108,4.892L.108,4.892Z" transform="translate(0 168.456) rotate(-45.001)" fill="#00b780"/>
              </g>
              <g id="그룹_812" data-name="그룹 812" transform="translate(19.659 18.814)">
                <path id="패스_2733" data-name="패스 2733" d="M0,0,243.591,5.36l.108,4.892L.108,4.892Z" transform="translate(0 168.455) rotate(-45)" fill="#00b780"/>
              </g>
              <g id="그룹_813" data-name="그룹 813" transform="translate(39.07 37.391)">
                <path id="패스_2734" data-name="패스 2734" d="M0,0,243.59,5.36l.108,4.892L.108,4.892Z" transform="translate(0 168.454) rotate(-45)" fill="#00b780"/>
              </g>
              <g id="그룹_814" data-name="그룹 814" transform="translate(58.731 56.201)">
                <path id="패스_2735" data-name="패스 2735" d="M0,0,243.591,5.36l.108,4.892L.108,4.892Z" transform="matrix(0.707, -0.707, 0.707, 0.707, 0, 168.457)" fill="#00b780"/>
              </g>
              <g id="그룹_815" data-name="그룹 815" transform="translate(79.188 75.777)">
                <path id="패스_2736" data-name="패스 2736" d="M0,0,243.591,5.36l.108,4.892L.108,4.892Z" transform="matrix(0.707, -0.707, 0.707, 0.707, 0, 168.457)" fill="#00b780"/>
              </g>
            </g>
            <g id="그룹_822" data-name="그룹 822">
              <g id="그룹_817" data-name="그룹 817">
                <path id="패스_2737" data-name="패스 2737" d="M0,0,243.59,5.36l.108,4.892L.108,4.892Z" transform="translate(0 168.451) rotate(-44.999)" fill="#00b780"/>
              </g>
              <g id="그룹_818" data-name="그룹 818" transform="translate(20.457 19.574)">
                <path id="패스_2738" data-name="패스 2738" d="M0,0,243.591,5.36l.108,4.892L.108,4.892Z" transform="translate(0 168.454) rotate(-45)" fill="#00b780"/>
              </g>
              <g id="그룹_819" data-name="그룹 819" transform="translate(40.118 38.387)">
                <path id="패스_2739" data-name="패스 2739" d="M0,0,243.591,5.36l.108,4.892L.108,4.892Z" transform="translate(0 168.455) rotate(-45)" fill="#00b780"/>
              </g>
              <g id="그룹_820" data-name="그룹 820" transform="translate(59.529 56.96)">
                <path id="패스_2740" data-name="패스 2740" d="M0,0,243.591,5.36l.108,4.892L.108,4.892Z" transform="translate(0 168.457) rotate(-45.001)" fill="#00b780"/>
              </g>
              <g id="그룹_821" data-name="그룹 821" transform="translate(79.188 75.777)">
                <path id="패스_2741" data-name="패스 2741" d="M0,0,243.591,5.36l.108,4.892L.108,4.892Z" transform="translate(0 168.455) rotate(-45)" fill="#00b780"/>
              </g>
            </g>
          </g>
        </g>
      </g>
    </g>
  </g>
</svg>
