<svg xmlns="http://www.w3.org/2000/svg" xmlns:xlink="http://www.w3.org/1999/xlink" width="112" height="106" viewBox="0 0 112 106">
  <defs>
    <clipPath id="clip-path">
      <rect id="사각형_3710" data-name="사각형 3710" width="112" height="106" transform="translate(912 654)" fill="#fff" stroke="#707070" stroke-width="1"/>
    </clipPath>
  </defs>
  <g id="마스크_그룹_12" data-name="마스크 그룹 12" transform="translate(-912 -654)" clip-path="url(#clip-path)">
    <g id="그룹_845" data-name="그룹 845" transform="translate(911.746 653.997)" opacity="0.4">
      <g id="그룹_844" data-name="그룹 844" transform="translate(0 0)">
        <g id="그룹_828" data-name="그룹 828" transform="translate(33.418 98.632)">
          <path id="패스_2705" data-name="패스 2705" d="M471.588,968.133a7.111,7.111,0,0,1-4.942-1.957,6.49,6.49,0,0,1,0-9.459,7.115,7.115,0,0,1,4.941-1.959,6.694,6.694,0,1,1,0,13.375Zm0-10.5a4.06,4.06,0,0,0-2.82,1.119,3.7,3.7,0,0,0,0,5.4,4.053,4.053,0,0,0,2.82,1.118,3.82,3.82,0,1,0,0-7.633Z" transform="translate(-464.6 -954.758)" fill="#5cd6a4"/>
        </g>
        <g id="그룹_829" data-name="그룹 829" transform="translate(0 98.632)">
          <path id="패스_2706" data-name="패스 2706" d="M438.171,968.133h0a6.694,6.694,0,1,1,6.988-6.686A6.849,6.849,0,0,1,438.17,968.133Zm0-10.5a3.82,3.82,0,1,0,3.99,3.818A3.909,3.909,0,0,0,438.168,957.629Z" transform="translate(-431.182 -954.758)" fill="#5cd6a4"/>
        </g>
        <g id="그룹_830" data-name="그룹 830" transform="translate(66.837 98.632)">
          <path id="패스_2707" data-name="패스 2707" d="M505.006,968.133a6.694,6.694,0,1,1,6.988-6.686A6.849,6.849,0,0,1,505.006,968.133Zm0-10.5a3.82,3.82,0,1,0,3.988,3.818A3.91,3.91,0,0,0,505.006,957.629Z" transform="translate(-498.019 -954.758)" fill="#5cd6a4"/>
        </g>
        <g id="그룹_831" data-name="그룹 831" transform="translate(33.416 65.755)">
          <path id="패스_2708" data-name="패스 2708" d="M471.589,933.779h0a6.695,6.695,0,1,1,6.989-6.689A6.855,6.855,0,0,1,471.587,933.779Zm0-10.506a3.821,3.821,0,1,0,3.988,3.817A3.911,3.911,0,0,0,471.588,923.273Z" transform="translate(-464.598 -920.402)" fill="#5cd6a4"/>
        </g>
        <g id="그룹_832" data-name="그룹 832" transform="translate(66.836 65.755)">
          <path id="패스_2709" data-name="패스 2709" d="M505.007,933.777h0a6.694,6.694,0,1,1,0-13.375,7.1,7.1,0,0,1,4.942,1.96,6.49,6.49,0,0,1,0,9.455A7.11,7.11,0,0,1,505.007,933.777Zm0-10.5a3.82,3.82,0,1,0,0,7.634,4.061,4.061,0,0,0,2.821-1.119,3.706,3.706,0,0,0,0-5.4A4.053,4.053,0,0,0,505.006,923.273Z" transform="translate(-498.018 -920.402)" fill="#5cd6a4"/>
        </g>
        <g id="그룹_833" data-name="그룹 833" transform="translate(33.418 32.878)">
          <path id="패스_2710" data-name="패스 2710" d="M471.59,899.42a6.851,6.851,0,0,1-6.99-6.688A6.5,6.5,0,0,1,466.646,888a7.112,7.112,0,0,1,4.942-1.958,6.694,6.694,0,1,1,0,13.375Zm0-10.5a4.052,4.052,0,0,0-2.82,1.118,3.7,3.7,0,0,0-1.168,2.7,3.992,3.992,0,1,0,3.988-3.815Z" transform="translate(-464.6 -886.045)" fill="#5cd6a4"/>
        </g>
        <g id="그룹_834" data-name="그룹 834" transform="translate(66.837 32.878)">
          <path id="패스_2711" data-name="패스 2711" d="M505.006,899.42a6.694,6.694,0,1,1,6.988-6.686A6.849,6.849,0,0,1,505.006,899.42Zm0-10.5a3.82,3.82,0,1,0,3.988,3.818A3.91,3.91,0,0,0,505.006,888.916Z" transform="translate(-498.019 -886.045)" fill="#5cd6a4"/>
        </g>
        <g id="그룹_835" data-name="그룹 835" transform="translate(0 65.755)">
          <path id="패스_2712" data-name="패스 2712" d="M438.17,933.775h0a6.693,6.693,0,1,1,6.992-6.687A6.848,6.848,0,0,1,438.166,933.775Zm0-10.5a3.819,3.819,0,1,0,0,7.632v1.435l0-1.435a3.82,3.82,0,1,0,0-7.632Z" transform="translate(-431.182 -920.402)" fill="#5cd6a4"/>
        </g>
        <g id="그룹_836" data-name="그룹 836" transform="translate(0 32.878)">
          <path id="패스_2713" data-name="패스 2713" d="M438.17,899.42a6.694,6.694,0,1,1,6.988-6.686A6.849,6.849,0,0,1,438.17,899.42Zm0-10.5a3.82,3.82,0,1,0,3.988,3.818A3.91,3.91,0,0,0,438.17,888.916Z" transform="translate(-431.182 -886.045)" fill="#5cd6a4"/>
        </g>
        <g id="그룹_837" data-name="그룹 837" transform="translate(33.418)">
          <path id="패스_2714" data-name="패스 2714" d="M471.588,865.064a6.851,6.851,0,0,1-6.988-6.689,6.5,6.5,0,0,1,2.046-4.729,7.118,7.118,0,0,1,4.944-1.958,6.694,6.694,0,1,1,0,13.376Zm0-10.505a4.057,4.057,0,0,0-2.821,1.118,3.7,3.7,0,0,0-1.168,2.7,3.992,3.992,0,1,0,3.989-3.815Z" transform="translate(-464.6 -851.688)" fill="#5cd6a4"/>
        </g>
        <g id="그룹_838" data-name="그룹 838" transform="translate(66.837 0.002)">
          <path id="패스_2715" data-name="패스 2715" d="M505.008,865.064h0a6.855,6.855,0,0,1-6.988-6.689,6.5,6.5,0,0,1,2.044-4.727A7.1,7.1,0,0,1,505,851.69a6.694,6.694,0,1,1,.006,13.374Zm0-10.5a4.051,4.051,0,0,0-2.821,1.117,3.711,3.711,0,0,0-1.166,2.7,3.991,3.991,0,1,0,3.987-3.813Z" transform="translate(-498.019 -851.69)" fill="#5cd6a4"/>
        </g>
        <g id="그룹_839" data-name="그룹 839" transform="translate(98.531 98.632)">
          <path id="패스_2716" data-name="패스 2716" d="M536.7,968.133a6.694,6.694,0,1,1,6.986-6.686A6.851,6.851,0,0,1,536.7,968.133Zm0-10.5a3.82,3.82,0,1,0,3.986,3.818A3.913,3.913,0,0,0,536.7,957.629Z" transform="translate(-529.713 -954.758)" fill="#5cd6a4"/>
        </g>
        <g id="그룹_840" data-name="그룹 840" transform="translate(98.531 65.755)">
          <path id="패스_2717" data-name="패스 2717" d="M536.7,933.777h0a6.694,6.694,0,1,1,6.987-6.687A6.858,6.858,0,0,1,536.7,933.777Zm0-10.5a3.82,3.82,0,1,0,3.986,3.817A3.911,3.911,0,0,0,536.7,923.273Z" transform="translate(-529.713 -920.402)" fill="#5cd6a4"/>
        </g>
        <g id="그룹_841" data-name="그룹 841" transform="translate(98.531 32.878)">
          <path id="패스_2718" data-name="패스 2718" d="M536.7,899.42a6.694,6.694,0,1,1,6.986-6.688A6.851,6.851,0,0,1,536.7,899.42Zm0-10.5a3.82,3.82,0,1,0,3.986,3.816A3.911,3.911,0,0,0,536.7,888.916Z" transform="translate(-529.713 -886.045)" fill="#5cd6a4"/>
        </g>
        <g id="그룹_842" data-name="그룹 842" transform="translate(98.531 0.002)">
          <path id="패스_2719" data-name="패스 2719" d="M536.7,865.064h0a6.694,6.694,0,1,1,6.988-6.689A6.851,6.851,0,0,1,536.7,865.064Zm0-10.5a3.82,3.82,0,1,0,3.986,3.814A3.909,3.909,0,0,0,536.7,854.561Z" transform="translate(-529.713 -851.69)" fill="#5cd6a4"/>
        </g>
        <g id="그룹_843" data-name="그룹 843" transform="translate(0 0.002)">
          <path id="패스_2720" data-name="패스 2720" d="M438.174,865.062h-.005a6.993,6.993,0,1,1,.005,0Zm0-10.5a3.819,3.819,0,1,0-.008,7.631l.008,1.435v-1.435a3.819,3.819,0,1,0,0-7.631Z" transform="translate(-431.182 -851.69)" fill="#5cd6a4"/>
        </g>
      </g>
    </g>
  </g>
</svg>
