<svg xmlns="http://www.w3.org/2000/svg" width="24.705" height="24.704" viewBox="0 0 24.705 24.704">
  <g id="그룹_8268" data-name="그룹 8268" transform="translate(-160.951 -169.684)">
    <path id="패스_2703" data-name="패스 2703" d="M164.583,173.316a12.4,12.4,0,0,0,0,17.538h0a2.552,2.552,0,1,0,3.608-3.61h0a7.3,7.3,0,0,1,10.321-10.32h0a2.552,2.552,0,0,0,3.609-3.608h0A12.4,12.4,0,0,0,164.583,173.316Z" fill="#27bd34" opacity="0.5"/>
    <path id="패스_2704" data-name="패스 2704" d="M182.023,190.756a12.4,12.4,0,0,0,0-17.537h0a2.551,2.551,0,0,0-3.608,3.607h0a7.3,7.3,0,1,1-10.322,10.32h0a2.552,2.552,0,1,0-3.608,3.61h0A12.4,12.4,0,0,0,182.023,190.756Z" fill="#27bd34" opacity="0.5"/>
  </g>
</svg>
