<svg xmlns="http://www.w3.org/2000/svg" width="27" height="20" viewBox="0 0 27 20">
  <path id="패스_27872" data-name="패스 27872" d="M576.908,798.73s-.006-.009-.008-.014a1.065,1.065,0,0,1,.1-1.008c.013-.018.028-.033.042-.051a1.039,1.039,0,0,1,.091-.108l.007-.008,9.243-8.962a1.042,1.042,0,0,1,1.48.03,1.062,1.062,0,0,1-.029,1.493l-7.369,7.144H602.77a1.056,1.056,0,0,1,0,2.112H580.464l7.334,7.11a1.062,1.062,0,0,1,.03,1.493,1.04,1.04,0,0,1-1.48.03l-9.209-8.927-.007-.008a1.009,1.009,0,0,1-.087-.1c-.015-.019-.032-.036-.045-.056A1.051,1.051,0,0,1,576.908,798.73Z" transform="translate(-576.817 -788.285)"/>
</svg>
