<svg id="그룹_6983" data-name="그룹 6983" xmlns="http://www.w3.org/2000/svg" width="111" height="111" viewBox="0 0 111 111">
  <rect id="사각형_4846" data-name="사각형 4846" width="111" height="111" fill="#fff"/>
  <g id="그룹_6894" data-name="그룹 6894" transform="translate(1 15)">
    <g id="그룹_6739" data-name="그룹 6739">
      <path id="패스_7417" data-name="패스 7417" d="M323.613,811.165H295.471L297.89,791.1h23.3Z" transform="translate(-257.157 -724.095)" fill="#fff" stroke="#000" stroke-linejoin="round" stroke-width="1.5"/>
      <rect id="사각형_2883" data-name="사각형 2883" width="104.77" height="67.002" rx="2.824" fill="#fff" stroke="#000" stroke-linejoin="round" stroke-width="1.5"/>
      <rect id="사각형_2884" data-name="사각형 2884" width="53.057" height="89.701" transform="translate(97.235 7.007) rotate(90)" fill="#fff" stroke="#000" stroke-linejoin="round" stroke-width="1.5"/>
      <path id="사각형_2885" data-name="사각형 2885" d="M2.3,0h47.07a2.3,2.3,0,0,1,2.3,2.3V7.065a0,0,0,0,1,0,0H0a0,0,0,0,1,0,0V2.3A2.3,2.3,0,0,1,2.3,0Z" transform="translate(26.549 87.07)" fill="#fff" stroke="#000" stroke-linejoin="round" stroke-width="1.5"/>
      <rect id="사각형_2886" data-name="사각형 2886" width="53.057" height="84.686" transform="translate(97.235 7.007) rotate(90)" fill="rgba(120,181,58,0.15)" style="mix-blend-mode: multiply;isolation: isolate"/>
      <path id="패스_7418" data-name="패스 7418" d="M320.53,791.1h-23.3l-.771,6.4H321.3Z" transform="translate(-256.493 -724.079)" fill="#e3e3e3" style="mix-blend-mode: multiply;isolation: isolate"/>
      <path id="사각형_2887" data-name="사각형 2887" d="M0,0H17.723a2.9,2.9,0,0,1,2.9,2.9V7.065a0,0,0,0,1,0,0H0a0,0,0,0,1,0,0V0A0,0,0,0,1,0,0Z" transform="translate(58.039 87.07)" fill="#e3e3e3" style="mix-blend-mode: multiply;isolation: isolate"/>
      <text id="ipin" transform="translate(32.89 39.804)" font-size="18" font-family="NunitoSans10pt-Medium, 'Nunito Sans \31 0pt Normal'" font-weight="500"><tspan x="0" y="0">IPIN</tspan></text>
    </g>
    <g id="그룹_6740" data-name="그룹 6740" transform="translate(78.936 54.91)">
      <path id="패스_7419" data-name="패스 7419" d="M344.245,803.378V789.753a34.958,34.958,0,0,1-15.04-6.419v20.045Z" transform="translate(-314.164 -783.333)" fill="#fff" stroke="#000" stroke-linejoin="round" stroke-width="1.5"/>
      <path id="패스_7420" data-name="패스 7420" d="M335.264,783.333a34.991,34.991,0,0,1-15.041,6.419v13.625h15.041Z" transform="translate(-320.223 -783.333)" fill="#fff" stroke="#000" stroke-linejoin="round" stroke-width="1.5"/>
      <path id="패스_7421" data-name="패스 7421" d="M320.223,796.2v1.2c0,7.022,4.947,14.892,10.8,17.183l4.24,1.659V796.2Z" transform="translate(-320.223 -776.159)" fill="#fff" stroke="#000" stroke-linejoin="round" stroke-width="1.5"/>
      <path id="패스_7422" data-name="패스 7422" d="M329.205,796.2v20.045l4.237-1.659c5.854-2.291,10.8-10.16,10.8-17.183v-1.2Z" transform="translate(-314.164 -776.159)" fill="#fff" stroke="#000" stroke-linejoin="round" stroke-width="1.5"/>
      <path id="패스_7423" data-name="패스 7423" d="M333.97,786.62a35.671,35.671,0,0,1-11.828,4.287v10.638H333.97Z" transform="translate(-318.928 -781.501)" fill="#f9f9f9" style="mix-blend-mode: multiply;isolation: isolate"/>
      <path id="패스_7424" data-name="패스 7424" d="M342.835,798.123h-11.71v15.8l1.023-.4C337.511,811.421,342.1,804.644,342.835,798.123Z" transform="translate(-312.869 -775.089)" fill="#f9f9f9" style="mix-blend-mode: multiply;isolation: isolate"/>
    </g>
  </g>
</svg>
