<svg id="그룹_6982" data-name="그룹 6982" xmlns="http://www.w3.org/2000/svg" width="111" height="111" viewBox="0 0 111 111">
  <rect id="사각형_4845" data-name="사각형 4845" width="111" height="111" fill="#fff"/>
  <rect id="사각형_2876" data-name="사각형 2876" width="64.602" height="109" rx="4.154" transform="translate(23 1)" fill="#fff" stroke="#000" stroke-linejoin="round" stroke-width="1.5"/>
  <path id="패스_7416" data-name="패스 7416" d="M701.608,204.016c4.079,0,7.387-3.028,7.387-6.763V101.776a6.167,6.167,0,0,0-.249-1.656,7.944,7.944,0,0,0-1.808-.228H655.745c-4.08,0-7.388,3.027-7.388,6.763v95.475a6.163,6.163,0,0,0,.249,1.656,7.945,7.945,0,0,0,1.808.23Z" transform="translate(-620.92 -94.016)" fill="#f9f9f9" style="mix-blend-mode: multiply;isolation: isolate"/>
  <rect id="사각형_2877" data-name="사각형 2877" width="51.656" height="75.728" transform="translate(29.307 17.118)" fill="#fff" stroke="#000" stroke-linejoin="round" stroke-width="1.5"/>
  <rect id="사각형_2878" data-name="사각형 2878" width="12.095" height="75.728" transform="translate(68.868 17.118)" fill="rgba(120,181,58,0.15)" style="mix-blend-mode: multiply;isolation: isolate"/>
  <line id="선_795" data-name="선 795" x2="14.11" transform="translate(48.071 100.659)" fill="#fff" stroke="#000" stroke-linejoin="round" stroke-width="1.5"/>
  <line id="선_796" data-name="선 796" x2="5.799" transform="translate(52.228 10.191)" fill="#fff" stroke="#000" stroke-linejoin="round" stroke-width="1.5"/>
  <rect id="사각형_2879" data-name="사각형 2879" width="27.989" height="25.519" transform="translate(41.127 47.054)" fill="#fff" stroke="#000" stroke-linejoin="round" stroke-width="1.5"/>
  <path id="사각형_2880" data-name="사각형 2880" d="M4.168,0h7.218a4.168,4.168,0,0,1,4.168,4.168v9.358a0,0,0,0,1,0,0H0a0,0,0,0,1,0,0V4.168A4.168,4.168,0,0,1,4.168,0Z" transform="translate(47.348 33.511)" fill="none" stroke="#000" stroke-linejoin="round" stroke-width="1.5"/>
  <rect id="사각형_2881" data-name="사각형 2881" width="7.83" height="25.519" transform="translate(61.469 47.054)" fill="#eef3f9" style="mix-blend-mode: multiply;isolation: isolate"/>
  <ellipse id="타원_308" data-name="타원 308" cx="5.535" cy="5.047" rx="5.535" ry="5.047" transform="translate(49.591 54.766)" fill="none" stroke="#000" stroke-linejoin="round" stroke-width="1.5"/>
</svg>
