<svg xmlns="http://www.w3.org/2000/svg" width="21" height="23.5" viewBox="0 0 21 23.5">
  <g id="그룹_30826" data-name="그룹 30826" transform="translate(-403.538 -840.717)">
    <path id="패스_27870" data-name="패스 27870" d="M422.677,872.683h-7.424a3.039,3.039,0,0,1-2.958-2.813l-1.524-15.341h16.387l-1.524,15.341A3.039,3.039,0,0,1,422.677,872.683Z" transform="translate(-4.927 -9.216)" fill="#fff" stroke="#222" stroke-width="1.5"/>
    <line id="선_1474" data-name="선 1474" x2="21" transform="translate(403.538 845.313)" fill="#fff" stroke="#222" stroke-width="1.5"/>
    <path id="사각형_4862" data-name="사각형 4862" d="M3.351,0h0A3.351,3.351,0,0,1,6.7,3.351v.495a0,0,0,0,1,0,0H0a0,0,0,0,1,0,0V3.351A3.351,3.351,0,0,1,3.351,0Z" transform="translate(410.686 841.467)" fill="none" stroke="#222" stroke-width="1.5"/>
    <line id="선_1475" data-name="선 1475" x1="0.372" y2="9.252" transform="translate(416.226 849.972)" fill="none" stroke="#459729" stroke-width="1.5" style="mix-blend-mode: darken;isolation: isolate"/>
    <line id="선_1476" data-name="선 1476" x1="0.372" y1="9.252" transform="translate(411.477 849.972)" fill="none" stroke="#459729" stroke-width="1.5" style="mix-blend-mode: darken;isolation: isolate"/>
  </g>
</svg>
