<svg xmlns="http://www.w3.org/2000/svg" width="52" height="52" viewBox="0 0 52 52">
  <g id="그룹_17209" data-name="그룹 17209" transform="translate(-926.998 -340.001)">
    <g id="합치기_2" data-name="합치기 2" transform="translate(-11216.438 398)" fill="none">
      <path d="M12156.823-9.258l-10.132,2.714a2,2,0,0,1-2.454-2.424l2.579-10.2a25.878,25.878,0,0,1-3.381-12.83,26,26,0,0,1,26-26,26,26,0,0,1,26,26,26,26,0,0,1-26,26A25.877,25.877,0,0,1,12156.823-9.258Z" stroke="none"/>
      <path d="M 12169.435546875 -8.998872756958008 C 12172.5419921875 -8.998872756958008 12175.5537109375 -9.606662750244141 12178.3876953125 -10.80535316467285 C 12181.1259765625 -11.96374320983887 12183.5859375 -13.62270355224609 12185.69921875 -15.73615264892578 C 12187.8125 -17.84951400756836 12189.4716796875 -20.30961227416992 12190.6298828125 -23.04812240600586 C 12191.828125 -25.88165283203125 12192.435546875 -28.89320373535156 12192.435546875 -31.99911308288574 C 12192.435546875 -35.10574340820312 12191.828125 -38.11774444580078 12190.6298828125 -40.95144271850586 C 12189.4716796875 -43.6899528503418 12187.8125 -46.14995193481445 12185.69921875 -48.26313400268555 C 12183.5859375 -50.37629318237305 12181.1259765625 -52.03501129150391 12178.3876953125 -53.19322204589844 C 12175.5537109375 -54.39167404174805 12172.5419921875 -54.99934387207031 12169.435546875 -54.99934387207031 C 12166.3291015625 -54.99934387207031 12163.3173828125 -54.39167404174805 12160.4833984375 -53.19322204589844 C 12157.7451171875 -52.03501129150391 12155.28515625 -50.37629318237305 12153.171875 -48.26313400268555 C 12151.05859375 -46.14995193481445 12149.3994140625 -43.6899528503418 12148.2412109375 -40.95144271850586 C 12147.04296875 -38.11774444580078 12146.435546875 -35.10574340820312 12146.435546875 -31.99911308288574 C 12146.435546875 -28.01484298706055 12147.46875 -24.09096336364746 12149.4248046875 -20.65168380737305 L 12150.0205078125 -19.60307312011719 L 12147.5634765625 -9.882930755615234 L 12157.2197265625 -12.46960353851318 L 12158.28125 -11.87975311279297 C 12161.6708984375 -9.995062828063965 12165.5283203125 -8.998872756958008 12169.435546875 -8.998872756958008 M 12169.435546875 -5.998873233795166 C 12164.8583984375 -5.998873233795166 12160.55859375 -7.181242942810059 12156.8232421875 -9.25764274597168 L 12146.69140625 -6.543673038482666 C 12146.513671875 -6.496055603027344 12146.3369140625 -6.473636150360107 12146.166015625 -6.47362756729126 C 12144.9150390625 -6.473565101623535 12143.90625 -7.665013313293457 12144.2373046875 -8.967713356018066 L 12146.81640625 -19.16897392272949 C 12144.6640625 -22.95480346679688 12143.435546875 -27.3336238861084 12143.435546875 -31.99911308288574 C 12143.435546875 -46.35968399047852 12155.0751953125 -57.99934387207031 12169.435546875 -57.99934387207031 C 12183.7958984375 -57.99934387207031 12195.435546875 -46.35968399047852 12195.435546875 -31.99911308288574 C 12195.435546875 -17.64159393310547 12183.7958984375 -5.998873233795166 12169.435546875 -5.998873233795166 Z" stroke="none" fill="#d3d3d3"/>
    </g>
    <line id="선_1066" data-name="선 1066" y2="14" transform="translate(953.5 354)" fill="none" stroke="#d3d3d3" stroke-linecap="round" stroke-width="5"/>
    <circle id="타원_421" data-name="타원 421" cx="2.5" cy="2.5" r="2.5" transform="translate(951 375)" fill="#d3d3d3"/>
  </g>
</svg>
