<svg xmlns="http://www.w3.org/2000/svg" width="16.821" height="16.141" viewBox="0 0 16.821 16.141">
  <g id="그룹_16076" data-name="그룹 16076" transform="translate(-991.407 -379.208)">
    <path id="패스_9283" data-name="패스 9283" d="M1027.55,425.179l-2.059.386.386-2.059" transform="translate(-24.936 -32.52)" fill="none" stroke="#000" stroke-linecap="round" stroke-linejoin="round" stroke-width="1"/>
    <path id="패스_9284" data-name="패스 9284" d="M1028.721,410.492l4.981-4.96a.257.257,0,0,0,0-.364l-1.368-1.368a.258.258,0,0,0-.364,0l-4.981,4.96Z" transform="translate(-26.049 -17.832)" fill="none" stroke="#000" stroke-linecap="round" stroke-linejoin="round" stroke-width="1"/>
    <path id="패스_9285" data-name="패스 9285" d="M998.745,379.708v12.727s-.222,2.079-1.532,2.079" transform="translate(-3.94)" fill="none" stroke="#000" stroke-linecap="round" stroke-linejoin="round" stroke-width="1"/>
    <line id="선_789" data-name="선 789" x2="6.514" transform="translate(996.979 383.618)" fill="none" stroke="#000" stroke-linecap="round" stroke-linejoin="round" stroke-width="1"/>
    <line id="선_790" data-name="선 790" x2="6.514" transform="translate(996.979 385.728)" fill="none" stroke="#000" stroke-linecap="round" stroke-linejoin="round" stroke-width="1"/>
    <line id="선_791" data-name="선 791" x2="3.34" transform="translate(996.979 387.838)" fill="none" stroke="#000" stroke-linecap="round" stroke-linejoin="round" stroke-width="1"/>
    <line id="선_792" data-name="선 792" x2="3.34" transform="translate(996.979 389.947)" fill="none" stroke="#000" stroke-linecap="round" stroke-linejoin="round" stroke-width="1"/>
    <path id="패스_9286" data-name="패스 9286" d="M1005.426,386.461v-6.753H994.853l-.047,10.317h-2.9v2.41a2.5,2.5,0,0,0,2.676,2.414h8.167a2.5,2.5,0,0,0,2.676-2.414v-2.273" fill="none" stroke="#000" stroke-linecap="round" stroke-linejoin="round" stroke-width="1"/>
  </g>
</svg>
