<svg id="Vector_Smart_Object" data-name="Vector Smart Object" xmlns="http://www.w3.org/2000/svg" width="16" height="16" viewBox="0 0 16 16">
  <path id="패스_3" data-name="패스 3" d="M159.921,112.5a.727.727,0,0,1-.728-.726v-3.615a2.621,2.621,0,0,0-5.242,0v3.615a.728.728,0,0,1-1.456,0v-3.615a4.077,4.077,0,0,1,8.153,0v3.615A.727.727,0,0,1,159.921,112.5Z" transform="translate(-148.572 -104.095)"/>
  <path id="패스_4" data-name="패스 4" d="M164.373,109.516H149.707a.7.7,0,0,0-.667.726v8.71a.7.7,0,0,0,.667.726h14.667a.7.7,0,0,0,.667-.726v-8.71A.7.7,0,0,0,164.373,109.516Zm-7.333,6.509a1.457,1.457,0,1,1,1.333-1.452A1.4,1.4,0,0,1,157.04,116.025Z" transform="translate(-149.04 -103.678)"/>
</svg>
