<svg xmlns="http://www.w3.org/2000/svg" width="17" height="17" viewBox="0 0 17 17">
  <path id="패스_27517" data-name="패스 27517" d="M448.792,446.271v-2.521l-2.66-.528a6.033,6.033,0,0,0-.446-1.075l1.508-2.256-1.782-1.782-2.256,1.508a6.082,6.082,0,0,0-1.075-.447l-.528-2.66h-2.521l-.528,2.66a6.079,6.079,0,0,0-1.075.447l-2.256-1.508-1.782,1.782,1.508,2.256a6.033,6.033,0,0,0-.446,1.075l-2.66.528v2.521l2.66.528a6.042,6.042,0,0,0,.446,1.075l-1.508,2.256,1.782,1.782,2.256-1.508a6.079,6.079,0,0,0,1.075.447l.528,2.66h2.521l.528-2.66a6.083,6.083,0,0,0,1.075-.447l2.256,1.508,1.782-1.782-1.508-2.256a6.042,6.042,0,0,0,.446-1.075Zm-8.5.753a2.013,2.013,0,1,1,2.013-2.013A2.013,2.013,0,0,1,440.292,447.024Z" transform="translate(-431.792 -436.511)" fill="#333"/>
</svg>
