<svg xmlns="http://www.w3.org/2000/svg" width="83.067" height="89.534" viewBox="0 0 83.067 89.534">
  <g id="그룹_30884" data-name="그룹 30884" transform="translate(-918 -667.466)">
    <g id="그룹_30882" data-name="그룹 30882" transform="translate(483.727 127)">
      <path id="패스_27874" data-name="패스 27874" d="M41.534,0A41.534,41.534,0,1,1,0,41.534,41.534,41.534,0,0,1,41.534,0Z" transform="translate(434.273 540.466)" fill="#f9f9f9"/>
      <rect id="사각형_4865" data-name="사각형 4865" width="60" height="50" rx="6" transform="translate(500.773 559) rotate(90)" fill="#fff" stroke="#222" stroke-linecap="round" stroke-linejoin="round" stroke-width="2"/>
      <path id="패스_27873" data-name="패스 27873" d="M16,0A16,16,0,1,1,0,16,16,16,0,0,1,16,0Z" transform="translate(460.273 567)" fill="#eee"/>
      <g id="그룹_30881" data-name="그룹 30881" transform="translate(464.273 608)">
        <line id="선_1485" data-name="선 1485" x2="24" transform="translate(0 0)" fill="none" stroke="#222" stroke-linecap="round" stroke-linejoin="round" stroke-width="2"/>
      </g>
      <g id="Vector_Smart_Object" data-name="Vector Smart Object" transform="translate(464.273 575)">
        <circle id="타원_1" data-name="타원 1" cx="7" cy="7" r="7" transform="translate(5)" fill="#fff" stroke="#000" stroke-linecap="round" stroke-linejoin="round" stroke-width="2"/>
        <path id="패스_2" data-name="패스 2" d="M33.489,122.924c.505-5.6,5.689-10,12.009-10,6.25,0,11.389,4.3,11.991,9.814" transform="translate(-33.489 -98.924)" fill="#fff" stroke="#000" stroke-linecap="round" stroke-linejoin="round" stroke-width="2"/>
      </g>
    </g>
    <g id="그룹_30883" data-name="그룹 30883" transform="translate(-4 -3)">
      <circle id="타원_482" data-name="타원 482" cx="15" cy="15" r="15" transform="translate(973 730)" fill="#459729"/>
      <path id="패스_13803" data-name="패스 13803" d="M-21173.518-211.249l5.35,5.487,7.545-7.736" transform="translate(22155.018 954.999)" fill="none" stroke="#fff" stroke-linecap="round" stroke-linejoin="round" stroke-width="2"/>
    </g>
  </g>
</svg>
