<svg xmlns="http://www.w3.org/2000/svg" width="52" height="51.999" viewBox="0 0 52 51.999">
  <g id="그룹_17209" data-name="그룹 17209" transform="translate(0 -0.001)">
    <g id="합치기_2" data-name="합치기 2" transform="translate(0 0.001)" fill="none">
      <path d="M13.389,48.741,3.257,51.456A2,2,0,0,1,.8,49.034l2.581-10.2a25.986,25.986,0,1,1,10.007,9.911Z" stroke="none"/>
      <path d="M 26.00010108947754 48.99930191040039 C 29.10642051696777 48.99930191040039 32.11824035644531 48.3916015625 34.9518928527832 47.19308090209961 C 37.69036102294922 46.03482055664062 40.1504020690918 44.37605285644531 42.263671875 42.26283264160156 C 44.37692260742188 40.14963150024414 46.03572082519531 37.68968200683594 47.19399261474609 34.95132064819336 C 48.39250183105469 32.11782073974609 49.00020217895508 29.106201171875 49.00020217895508 26.00010108947754 C 49.00020217895508 22.89377021789551 48.39250183105469 19.88196182250977 47.1939697265625 17.04832077026367 C 46.03570175170898 14.30984115600586 44.37689971923828 11.84981060028076 42.26364135742188 9.736560821533203 C 40.150390625 7.623301029205322 37.69036102294922 5.964500904083252 34.95188140869141 4.806231021881104 C 32.11824035644531 3.607701063156128 29.10643196105957 3.000000953674316 26.00010108947754 3.000000953674316 C 22.89377021789551 3.000000953674316 19.88196182250977 3.607701063156128 17.04832077026367 4.806231021881104 C 14.30984115600586 5.964500904083252 11.84981155395508 7.623301029205322 9.736560821533203 9.736560821533203 C 7.623301029205322 11.84981060028076 5.964500904083252 14.30984115600586 4.806231021881104 17.04832077026367 C 3.607701063156128 19.88196182250977 3.000001192092896 22.89377021789551 3.000001192092896 26.00010108947754 C 3.000001192092896 29.98382186889648 4.033730983734131 33.90781021118164 5.989450931549072 37.34786224365234 L 6.585731029510498 38.39670181274414 L 4.126575946807861 48.1169548034668 L 13.78473091125488 45.52938079833984 L 14.84577083587646 46.11897277832031 C 18.23687171936035 48.00329971313477 22.09397125244141 48.99930191040039 26.00010108947754 48.99930191040039 M 26.00010108947754 51.99930191040039 C 21.42424201965332 51.99930191040039 17.12358093261719 50.81671905517578 13.38861083984375 48.74131011962891 L 3.257101058959961 51.4556999206543 C 1.782002091407776 51.85078811645508 0.4257010817527771 50.51430130004883 0.800101101398468 49.0338020324707 L 3.38145112991333 38.83053970336914 C 1.229241132736206 35.04486083984375 1.089477564164554e-06 30.66594123840332 1.089477564164554e-06 26.00010108947754 C 1.089477564164554e-06 11.64060115814209 11.64060115814209 9.552002211421495e-07 26.00010108947754 9.552002211421495e-07 C 40.35960006713867 9.552002211421495e-07 52.00020217895508 11.64060115814209 52.00020217895508 26.00010108947754 C 52.00020217895508 40.35869979858398 40.35960006713867 51.99930191040039 26.00010108947754 51.99930191040039 Z" stroke="none" fill="#d3d3d3"/>
    </g>
    <line id="선_1066" data-name="선 1066" y2="14" transform="translate(26.502 14.001)" fill="none" stroke="#d3d3d3" stroke-linecap="round" stroke-width="5"/>
    <circle id="타원_421" data-name="타원 421" cx="2.5" cy="2.5" r="2.5" transform="translate(24 35.001)" fill="#d3d3d3"/>
  </g>
</svg>
