<svg xmlns="http://www.w3.org/2000/svg" width="18" height="20.5" viewBox="0 0 18 20.5">
  <g id="그룹_17263" data-name="그룹 17263" transform="translate(0 0.5)">
    <path id="제외_1" data-name="제외 1" d="M17,13.978H1a1,1,0,0,1-1-1V1A1,1,0,0,1,1,0H17a1,1,0,0,1,1,1V12.977A1,1,0,0,1,17,13.978ZM9,3.535A2.209,2.209,0,0,0,6.7,5.64,2.123,2.123,0,0,0,8.271,7.627v2.69H9.727V7.627A2.123,2.123,0,0,0,11.3,5.64,2.21,2.21,0,0,0,9,3.535Z" transform="translate(0 6.023)" fill="#d3d3d3"/>
    <path id="패스_13802" data-name="패스 13802" d="M1681.325,473.551a7.339,7.339,0,0,1,1.32-4.5,4.064,4.064,0,0,1,6.347,0,7.343,7.343,0,0,1,1.32,4.5" transform="translate(-1676.819 -467.529)" fill="none" stroke="#d3d3d3" stroke-linecap="round" stroke-linejoin="round" stroke-width="1"/>
  </g>
</svg>
