<svg xmlns="http://www.w3.org/2000/svg" xmlns:xlink="http://www.w3.org/1999/xlink" width="40" height="40" viewBox="0 0 40 40">
  <defs>
    <clipPath id="clip-path">
      <rect id="사각형_4696" data-name="사각형 4696" width="40" height="40" transform="translate(1052 1741)" fill="#aa7991"/>
    </clipPath>
  </defs>
  <g id="마스크_그룹_31" data-name="마스크 그룹 31" transform="translate(-1052 -1741)" clip-path="url(#clip-path)">
    <g id="그룹_484" data-name="그룹 484" transform="translate(-1649 318)">
      <g id="그룹_482" data-name="그룹 482" transform="translate(2701.872 1426.234)">
        <g id="그룹_481" data-name="그룹 481" transform="translate(0 0)">
          <circle id="타원_346" data-name="타원 346" cx="7.088" cy="7.088" r="7.088" fill="none" stroke="#ff4410" stroke-linecap="round" stroke-linejoin="round" stroke-width="1"/>
        </g>
        <path id="패스_1685" data-name="패스 1685" d="M2739.953,1471.725l2.265,2.293,3.289-4.185" transform="translate(-2735.584 -1465.203)" fill="none" stroke="#ff4410" stroke-linecap="round" stroke-linejoin="round" stroke-width="1"/>
      </g>
      <path id="패스_1686" data-name="패스 1686" d="M3001.527,1688.979a1,1,0,1,1-1-1A1,1,0,0,1,3001.527,1688.979Z" transform="translate(-264.027 -234)" fill="none" stroke="#231f20" stroke-linecap="round" stroke-linejoin="round" stroke-width="0.5"/>
      <g id="그룹_483" data-name="그룹 483" transform="translate(2709.514 1432)">
        <path id="패스_1687" data-name="패스 1687" d="M2790.714,1535.1h11.005a11.177,11.177,0,0,0,4.2-.822l2.354-.954v-12.335c-6.059-.048-8.239-10.345-8.239-10.345a2.149,2.149,0,0,0-2.376-1.923h0a2.2,2.2,0,0,0-1.852,2.466l.067,8.505h-7.247a2.919,2.919,0,0,0-2.767,3.6l2.083,9.518A2.862,2.862,0,0,0,2790.714,1535.1Z" transform="translate(-2785.792 -1508.703)" fill="none" stroke="#231f20" stroke-linecap="round" stroke-linejoin="round" stroke-width="1"/>
      </g>
      <rect id="사각형_3011" data-name="사각형 3011" width="8" height="17" transform="translate(2732 1442)" fill="none" stroke="#231f20" stroke-linecap="round" stroke-linejoin="round" stroke-width="1"/>
      <line id="선_743" data-name="선 743" x2="3" transform="translate(2719 1443)" fill="none" stroke="#231f20" stroke-linecap="round" stroke-linejoin="round" stroke-width="1"/>
    </g>
  </g>
</svg>
