<svg xmlns="http://www.w3.org/2000/svg" xmlns:xlink="http://www.w3.org/1999/xlink" width="210" height="42" viewBox="0 0 210 42">
  <defs>
    <linearGradient id="linear-gradient" y1="0.5" x2="1" y2="0.5" gradientUnits="objectBoundingBox">
      <stop offset="0.12" stop-color="#fff"/>
      <stop offset="0.183" stop-color="#fafbfd"/>
      <stop offset="0.25" stop-color="#eef2f9"/>
      <stop offset="0.318" stop-color="#d9e3f2"/>
      <stop offset="0.386" stop-color="#bccee9"/>
      <stop offset="0.455" stop-color="#96b3dc"/>
      <stop offset="0.483" stop-color="#85a7d7"/>
      <stop offset="0.516" stop-color="#7fa5d6"/>
      <stop offset="0.556" stop-color="#70a0d4"/>
      <stop offset="0.6" stop-color="#5798d0"/>
      <stop offset="0.646" stop-color="#338dcb"/>
      <stop offset="0.695" stop-color="#077fc5"/>
      <stop offset="0.702" stop-color="#007dc4"/>
      <stop offset="0.707" stop-color="#007bc2"/>
      <stop offset="0.832" stop-color="#0357a2"/>
      <stop offset="0.934" stop-color="#06428f"/>
      <stop offset="1" stop-color="#073a88"/>
    </linearGradient>
    <linearGradient id="linear-gradient-16" x1="-6.818" y1="0.5" x2="-5.818" y2="0.5" xlink:href="#linear-gradient"/>
  </defs>
  <g id="그룹_5724" data-name="그룹 5724" transform="translate(-285.037 -118.094)">
    <g id="그룹_5719" data-name="그룹 5719" transform="translate(285.038 118.093)">
      <g id="그룹_5717" data-name="그룹 5717" transform="translate(22.671)">
        <path id="패스_10096" data-name="패스 10096" d="M341.625,119.349,318.8,124.778v-.818l22.821-5.867Z" transform="translate(-318.805 -118.093)" fill="url(#linear-gradient)"/>
        <path id="패스_10097" data-name="패스 10097" d="M341.625,122.576,318.8,127.225v-.809l22.821-5.1Z" transform="translate(-318.805 -119.153)" fill="url(#linear-gradient)"/>
        <path id="패스_10098" data-name="패스 10098" d="M341.625,125.807,318.8,129.681v-.811l22.821-4.315Z" transform="translate(-318.805 -120.217)" fill="url(#linear-gradient)"/>
        <path id="패스_10099" data-name="패스 10099" d="M341.625,129.032l-22.821,3.1v-.814l22.821-3.548Z" transform="translate(-318.805 -121.274)" fill="url(#linear-gradient)"/>
        <path id="패스_10100" data-name="패스 10100" d="M341.625,132.268,318.8,134.591v-.807l22.821-2.772Z" transform="translate(-318.805 -122.338)" fill="url(#linear-gradient)"/>
        <path id="패스_10101" data-name="패스 10101" d="M341.625,135.491,318.8,137.042v-.809l22.821-1.994Z" transform="translate(-318.805 -123.399)" fill="url(#linear-gradient)"/>
        <path id="패스_10102" data-name="패스 10102" d="M341.625,138.718l-22.821.78v-.812l22.821-1.22Z" transform="translate(-318.805 -124.459)" fill="url(#linear-gradient)"/>
        <path id="패스_10103" data-name="패스 10103" d="M341.625,141.946l-22.821,0v-.8l22.821-.454Z" transform="translate(-318.805 -125.52)" fill="url(#linear-gradient)"/>
        <path id="패스_10104" data-name="패스 10104" d="M341.625,145.022l-22.821-.77v-.809l22.821.322Z" transform="translate(-318.805 -126.423)" fill="url(#linear-gradient)"/>
        <path id="패스_10105" data-name="패스 10105" d="M341.625,147.874,318.8,146.326v-.812l22.821,1.1Z" transform="translate(-318.805 -127.104)" fill="url(#linear-gradient)"/>
        <path id="패스_10106" data-name="패스 10106" d="M341.625,150.72,318.8,148.4v-.805l22.821,1.871Z" transform="translate(-318.805 -127.787)" fill="url(#linear-gradient)"/>
        <path id="패스_10107" data-name="패스 10107" d="M341.625,153.575l-22.821-3.1v-.805l22.821,2.647Z" transform="translate(-318.805 -128.47)" fill="url(#linear-gradient)"/>
        <path id="패스_10108" data-name="패스 10108" d="M341.625,156.422,318.8,152.548v-.806l22.821,3.423Z" transform="translate(-318.805 -129.15)" fill="url(#linear-gradient)"/>
        <path id="패스_10109" data-name="패스 10109" d="M341.625,159.271,318.8,154.628v-.811l22.821,4.2Z" transform="translate(-318.805 -129.832)" fill="url(#linear-gradient)"/>
        <path id="패스_10110" data-name="패스 10110" d="M341.625,162.122,318.8,156.7V155.9l22.821,4.967Z" transform="translate(-318.805 -130.516)" fill="url(#linear-gradient)"/>
      </g>
      <g id="그룹_5718" data-name="그룹 5718">
        <path id="패스_10111" data-name="패스 10111" d="M285.038,119.349l22.819,5.429v-.818l-22.819-5.867Z" transform="translate(-285.038 -118.093)" fill="url(#linear-gradient-16)"/>
        <path id="패스_10112" data-name="패스 10112" d="M285.038,122.576l22.819,4.649v-.809l-22.819-5.1Z" transform="translate(-285.038 -119.153)" fill="url(#linear-gradient-16)"/>
        <path id="패스_10113" data-name="패스 10113" d="M285.038,125.807l22.819,3.875v-.811l-22.819-4.315Z" transform="translate(-285.038 -120.217)" fill="url(#linear-gradient-16)"/>
        <path id="패스_10114" data-name="패스 10114" d="M285.038,129.032l22.819,3.1v-.814l-22.819-3.548Z" transform="translate(-285.038 -121.274)" fill="url(#linear-gradient-16)"/>
        <path id="패스_10115" data-name="패스 10115" d="M285.038,132.268l22.819,2.322v-.807l-22.819-2.772Z" transform="translate(-285.038 -122.338)" fill="url(#linear-gradient-16)"/>
        <path id="패스_10116" data-name="패스 10116" d="M285.038,135.491l22.819,1.552v-.809l-22.819-1.994Z" transform="translate(-285.038 -123.399)" fill="url(#linear-gradient-16)"/>
        <path id="패스_10117" data-name="패스 10117" d="M285.038,138.718l22.819.78v-.812l-22.819-1.22Z" transform="translate(-285.038 -124.459)" fill="url(#linear-gradient-16)"/>
        <path id="패스_10118" data-name="패스 10118" d="M285.038,141.946l22.819,0v-.8l-22.819-.454Z" transform="translate(-285.038 -125.52)" fill="url(#linear-gradient-16)"/>
        <path id="패스_10119" data-name="패스 10119" d="M285.038,145.022l22.819-.77v-.809l-22.819.322Z" transform="translate(-285.038 -126.423)" fill="url(#linear-gradient-16)"/>
        <path id="패스_10120" data-name="패스 10120" d="M285.038,147.874l22.819-1.548v-.812l-22.819,1.1Z" transform="translate(-285.038 -127.104)" fill="url(#linear-gradient-16)"/>
        <path id="패스_10121" data-name="패스 10121" d="M285.038,150.72l22.819-2.322v-.805l-22.819,1.871Z" transform="translate(-285.038 -127.787)" fill="url(#linear-gradient-16)"/>
        <path id="패스_10122" data-name="패스 10122" d="M285.038,153.575l22.819-3.1v-.805l-22.819,2.647Z" transform="translate(-285.038 -128.47)" fill="url(#linear-gradient-16)"/>
        <path id="패스_10123" data-name="패스 10123" d="M285.038,156.422l22.819-3.875v-.806l-22.819,3.423Z" transform="translate(-285.038 -129.15)" fill="url(#linear-gradient-16)"/>
        <path id="패스_10124" data-name="패스 10124" d="M285.038,159.271l22.819-4.643v-.811l-22.819,4.2Z" transform="translate(-285.038 -129.832)" fill="url(#linear-gradient-16)"/>
        <path id="패스_10125" data-name="패스 10125" d="M285.038,162.122l22.819-5.419V155.9l-22.819,4.967Z" transform="translate(-285.038 -130.516)" fill="url(#linear-gradient-16)"/>
      </g>
    </g>
    <g id="그룹_5720" data-name="그룹 5720" transform="translate(371.86 120.683)">
      <path id="패스_10126" data-name="패스 10126" d="M415.524,128.1c.055-.25.15-.582.285-.987.081-.243.136-.42.161-.53a1.927,1.927,0,0,0,.081-.481l-.1-.58c-.04-.181-.067-.322-.08-.436-.013-.177-.019-.326-.019-.46a.858.858,0,0,1,.344-.719,1.834,1.834,0,0,1,1.311-.436,3.2,3.2,0,0,0,1.495-.315,3.062,3.062,0,0,0,.845-.624,3.913,3.913,0,0,1,.5-.409,1.333,1.333,0,0,1,.689-.169,1.512,1.512,0,0,1,.7.169c.149.083.355.218.626.409a6.2,6.2,0,0,0,.969.648,3.688,3.688,0,0,0,1.572.319,1.606,1.606,0,0,1,1.149.381.856.856,0,0,1,.322.629,3.027,3.027,0,0,1-.041.46,3.357,3.357,0,0,0-.078.432,3.02,3.02,0,0,0-.1.436c-.014.173-.018.338-.018.479a1.521,1.521,0,0,0,.058.393,3.386,3.386,0,0,0,.181.4,7.748,7.748,0,0,1,.325.845,4.426,4.426,0,0,1,.179,1.285,4.88,4.88,0,0,1-1.835,3.742,5.863,5.863,0,0,1-7.847.164,4.655,4.655,0,0,1-1.814-3.714A6.146,6.146,0,0,1,415.524,128.1Zm3.356-1.871a4.789,4.789,0,0,0-.727,2.7,4.16,4.16,0,0,0,.727,2.527,2.61,2.61,0,0,0,2.235,1.112,2.642,2.642,0,0,0,2.233-1.112,4.07,4.07,0,0,0,.767-2.527,4.671,4.671,0,0,0-.746-2.7,2.6,2.6,0,0,0-2.255-1.175A2.551,2.551,0,0,0,418.879,126.225Zm0,10.111a1.3,1.3,0,0,1,1.09-.53,1.153,1.153,0,0,1,1,.487,2.292,2.292,0,0,1,.365,1.37v2.359a1.545,1.545,0,0,0,.563,1.3,2.239,2.239,0,0,0,1.411.383h7.4a1.534,1.534,0,0,1,.805.191.772.772,0,0,1,.366.715.91.91,0,0,1-.3.751,1.274,1.274,0,0,1-.808.216H420.4a1.793,1.793,0,0,1-1.392-.53,2.143,2.143,0,0,1-.5-1.533v-3.808A2.322,2.322,0,0,1,418.883,136.337Zm9.972-11.974a1.876,1.876,0,0,1,.326-1.183,1.185,1.185,0,0,1,1.013-.455,1.311,1.311,0,0,1,1.031.455,1.474,1.474,0,0,1,.4,1.034,1.828,1.828,0,0,0,.282.97,1.581,1.581,0,0,0,.809.692l.118.032a3.691,3.691,0,0,1,.869.381.881.881,0,0,1,.422.747.931.931,0,0,1-.422.77,3.3,3.3,0,0,1-.787.365l-.12.044a1.538,1.538,0,0,0-.831.625,1.759,1.759,0,0,0-.341,1.037v5.833a1.832,1.832,0,0,1-.343,1.179,1.235,1.235,0,0,1-1.053.478,1.212,1.212,0,0,1-1.03-.478,1.947,1.947,0,0,1-.347-1.179Z" transform="translate(-415.386 -121.95)" fill="#1a1818"/>
      <path id="패스_10127" data-name="패스 10127" d="M447.87,138a.864.864,0,0,1-.26-.646.962.962,0,0,1,.243-.688.887.887,0,0,1,.667-.242h3.4a1.76,1.76,0,0,0,1.248-.432,1.23,1.23,0,0,0,.428-.943v-.6a1,1,0,0,0-.446-.8,2.4,2.4,0,0,0-1.448-.383h-4.3a1.185,1.185,0,0,1-.867-.291.79.79,0,0,1-.259-.62.81.81,0,0,1,.32-.692,1.361,1.361,0,0,1,.886-.267h9.8a1.927,1.927,0,0,0,1.433-.528,1.615,1.615,0,0,0,.522-1.234v-2.367a2.163,2.163,0,0,0-.443-1.379,1.629,1.629,0,0,0-1.351-.6l-8.712.047a1.322,1.322,0,0,1-.868-.244.893.893,0,0,1-.3-.719.8.8,0,0,1,.3-.641,1.347,1.347,0,0,1,.868-.269h10.991a2.39,2.39,0,0,1,1.751.608,2.293,2.293,0,0,1,.608,1.705v3.93a2.141,2.141,0,0,0,.223,1.061,2.046,2.046,0,0,0,.519.528l.062.046a2.179,2.179,0,0,1,.524.408.9.9,0,0,1,.242.552.829.829,0,0,1-.322.674,1.235,1.235,0,0,1-.848.291H458.2a2.3,2.3,0,0,0-1.426.383,1.027,1.027,0,0,0-.4.8v.653a1.135,1.135,0,0,0,.424.91,1.883,1.883,0,0,0,1.288.414h1.952a2.3,2.3,0,0,1,1.51.428,1.827,1.827,0,0,1,.546,1.438v4.171a2.458,2.458,0,0,1-.323,1.421,1.3,1.3,0,0,1-1.09.408,1.231,1.231,0,0,1-1.047-.391,2.173,2.173,0,0,1-.284-1.272V140a1.743,1.743,0,0,0-.385-1.2,1.657,1.657,0,0,0-1.329-.511h-9.014A.955.955,0,0,1,447.87,138Z" transform="translate(-425.538 -122.449)" fill="#1a1818"/>
      <path id="패스_10128" data-name="패스 10128" d="M486.46,137.522a5.1,5.1,0,0,1-8.867,0,10.9,10.9,0,0,1-1.471-5.918,11.151,11.151,0,0,1,1.471-5.969,5.1,5.1,0,0,1,8.867,0,10.948,10.948,0,0,1,1.509,5.969A10.769,10.769,0,0,1,486.46,137.522Zm-2.028-10.559c-.577-1.384-1.38-2.071-2.4-2.071s-1.812.688-2.377,2.071a12.86,12.86,0,0,0-.726,4.666,12.586,12.586,0,0,0,.726,4.611c.565,1.4,1.358,2.087,2.377,2.087s1.824-.688,2.4-2.087a12.158,12.158,0,0,0,.767-4.611A12.3,12.3,0,0,0,484.432,126.963Zm8.846,16.611a1.266,1.266,0,0,1-1.2.6,1.069,1.069,0,0,1-1.009-.6,2.68,2.68,0,0,1-.266-1.293V125.024a2.485,2.485,0,0,1,.285-1.275,1.148,1.148,0,0,1,1.073-.6,1.173,1.173,0,0,1,1.029.532,2.5,2.5,0,0,1,.385,1.49v16.86A3.09,3.09,0,0,1,493.278,143.574Z" transform="translate(-435.344 -122.314)" fill="#1a1818"/>
      <path id="패스_10129" data-name="패스 10129" d="M508.334,123.975a1.988,1.988,0,0,1,1.433-.506h6.817a1.758,1.758,0,0,1,1.293.506,1.986,1.986,0,0,1,.526,1.466v7.175a1.91,1.91,0,0,1-.547,1.442,1.954,1.954,0,0,1-1.454.528h-6.7a1.847,1.847,0,0,1-1.373-.528,1.728,1.728,0,0,1-.529-1.3v-7.34A1.962,1.962,0,0,1,508.334,123.975Zm2.778,8.141a1.64,1.64,0,0,0,1.352.6h1.247a1.621,1.621,0,0,0,1.373-.6,2.39,2.39,0,0,0,.446-1.542v-3.113a2.355,2.355,0,0,0-.446-1.521,1.622,1.622,0,0,0-1.373-.606H512.5a1.688,1.688,0,0,0-1.368.606,2.278,2.278,0,0,0-.487,1.521v3.14A2.3,2.3,0,0,0,511.112,132.116Zm.4,5.012a1.3,1.3,0,0,1,1.086-.526,1.2,1.2,0,0,1,1.03.5,2.373,2.373,0,0,1,.34,1.376v1.969a1.542,1.542,0,0,0,.564,1.3,2.283,2.283,0,0,0,1.433.385h8.106a1.516,1.516,0,0,1,.788.188.835.835,0,0,1,.383.72.859.859,0,0,1-.4.747,1.893,1.893,0,0,1-.99.216H512.965a1.751,1.751,0,0,1-1.37-.529,2.251,2.251,0,0,1-.461-1.53v-3.423A2.332,2.332,0,0,1,511.515,137.128Zm12.741-13.444a2.564,2.564,0,0,1,.385,1.515v10.286a3.042,3.042,0,0,1-.3,1.538,1.24,1.24,0,0,1-1.2.627,1.076,1.076,0,0,1-1.01-.6,2.75,2.75,0,0,1-.265-1.307V125.031a2.529,2.529,0,0,1,.285-1.275,1.189,1.189,0,0,1,1.091-.606A1.168,1.168,0,0,1,524.255,123.684Z" transform="translate(-445.754 -122.344)" fill="#1a1818"/>
      <path id="패스_10130" data-name="패스 10130" d="M549.3,139.232a2.23,2.23,0,0,1-.968.169,1.589,1.589,0,0,1-1.008-.269,1.186,1.186,0,0,1-.463-.914l-.322-2.888q-.366-3.46-.526-4.719c-.161-1.305-.3-2.287-.423-2.962a5.149,5.149,0,0,0-.485-1.521.71.71,0,0,0-.624-.432.8.8,0,0,0-.7.432,4.718,4.718,0,0,0-.526,1.543q-.221,1.013-.468,3.01-.176,1.279-.581,4.773l-.3,2.693a1.339,1.339,0,0,1-.547.939,1.649,1.649,0,0,1-1.009.314,2.011,2.011,0,0,1-.927-.145.709.709,0,0,1-.283-.674c0-.19.07-.752.2-1.689.079-.578.235-1.617.463-3.129.322-2.112.55-3.646.686-4.576a28.1,28.1,0,0,0,.344-2.939.539.539,0,0,0-.182-.407,2.287,2.287,0,0,0-.382-.265,1.639,1.639,0,0,1-.428-.318.678.678,0,0,1-.181-.477,1.2,1.2,0,0,1,.2-.774.835.835,0,0,1,.626-.215h7.925a.675.675,0,0,1,.566.236,1.416,1.416,0,0,1,.179.774.605.605,0,0,1-.2.456,2.492,2.492,0,0,1-.421.318,1.881,1.881,0,0,0-.381.265.555.555,0,0,0-.163.407c0,.308.1,1.19.3,2.653.13.848.358,2.3.684,4.357q.38,2.506.522,3.446c.161,1.061.244,1.687.244,1.877A.665.665,0,0,1,549.3,139.232Zm7.691,4.445a1.1,1.1,0,0,1-1.008.532,1.128,1.128,0,0,1-1.022-.509,2.262,2.262,0,0,1-.3-1.3V130.263a1.294,1.294,0,0,0-.306-.892.852.852,0,0,0-.649-.32.881.881,0,0,0-.672.32,1.3,1.3,0,0,0-.279.866v12.068a2.674,2.674,0,0,1-.283,1.372,1.037,1.037,0,0,1-.971.532,1.126,1.126,0,0,1-1.047-.509,2.483,2.483,0,0,1-.261-1.3V125a2.531,2.531,0,0,1,.279-1.273,1.294,1.294,0,0,1,2-.146,1.825,1.825,0,0,1,.283,1.083v.774a1.145,1.145,0,0,0,.342.894.827.827,0,0,0,.59.264.885.885,0,0,0,.589-.242,1.156,1.156,0,0,0,.385-.937v-.629a1.962,1.962,0,0,1,.3-1.183,1.192,1.192,0,0,1,1.022-.428,1.093,1.093,0,0,1,.988.5,2.488,2.488,0,0,1,.319,1.375v17.252A2.547,2.547,0,0,1,556.987,143.677Z" transform="translate(-456.048 -122.354)" fill="#1a1818"/>
      <path id="패스_10131" data-name="패스 10131" d="M584.915,123.62a1.1,1.1,0,0,1,.951-.481,1.425,1.425,0,0,1,1.033.408,1.485,1.485,0,0,1,.44,1.106,1.849,1.849,0,0,0,.3,1.016,1.663,1.663,0,0,0,.766.624l.2.067a3.516,3.516,0,0,1,.847.387.788.788,0,0,1,.383.7.873.873,0,0,1-.4.723,2.67,2.67,0,0,1-.782.383l-.144.068a1.934,1.934,0,0,0-.829.581,1.968,1.968,0,0,0-.344,1.179V136.6a1.864,1.864,0,0,1-.422,1.3,1.213,1.213,0,0,1-.972.457,1.24,1.24,0,0,1-1.006-.433,1.866,1.866,0,0,1-.369-1.254v-.646a1.188,1.188,0,0,0-.723-1.066,3.944,3.944,0,0,0-1.693-.332h-8.471a2.473,2.473,0,0,1-1.676-.483,2.022,2.022,0,0,1-.562-1.584V125.8a2.8,2.8,0,0,1,.422-1.607,1.579,1.579,0,0,1,1.39-.724H581.4a1.255,1.255,0,0,1,.731.241.775.775,0,0,1,.342.623.994.994,0,0,1-.261.694.845.845,0,0,1-.69.308H576.3a2.085,2.085,0,0,0-1.531.539,1.782,1.782,0,0,0-.485,1.292v3.851a1.57,1.57,0,0,0,.548,1.23,2.178,2.178,0,0,0,1.515.511h6.026a2.625,2.625,0,0,0,1.536-.417,1.568,1.568,0,0,0,.662-1.345V124.94A2.221,2.221,0,0,1,584.915,123.62ZM574.6,137a1.3,1.3,0,0,1,1.09-.528,1.154,1.154,0,0,1,1,.528,2.152,2.152,0,0,1,.363,1.279v2.163a1.54,1.54,0,0,0,.564,1.3,2.236,2.236,0,0,0,1.411.385h7.406a1.545,1.545,0,0,1,.8.188.777.777,0,0,1,.366.72.882.882,0,0,1-.307.747,1.262,1.262,0,0,1-.806.216H576.109a1.767,1.767,0,0,1-1.39-.529,2.129,2.129,0,0,1-.5-1.53V138.26A1.952,1.952,0,0,1,574.6,137Z" transform="translate(-466.666 -122.341)" fill="#1a1818"/>
    </g>
    <g id="그룹_5721" data-name="그룹 5721" transform="translate(345.709 151.377)">
      <path id="패스_10132" data-name="패스 10132" d="M376.435,173.584v-5.118h.68v2.546l2.551-2.546.865-.008-2.125,2.059,2.218,3.067h-.851l-1.827-2.6-.832.8v1.794Z" transform="translate(-376.435 -168.324)" fill="#1a1818"/>
      <path id="패스_10133" data-name="패스 10133" d="M382.942,170.961a2.873,2.873,0,0,1,.608-1.873,2.389,2.389,0,0,1,3.619,0,3.189,3.189,0,0,1,0,3.745,2.411,2.411,0,0,1-3.619,0A2.885,2.885,0,0,1,382.942,170.961Zm.677,0a2.413,2.413,0,0,0,.408,1.444,1.664,1.664,0,0,0,2.665,0,2.431,2.431,0,0,0,.408-1.444,2.47,2.47,0,0,0-.408-1.452,1.669,1.669,0,0,0-2.665,0A2.451,2.451,0,0,0,383.619,170.961Z" transform="translate(-378.573 -168.259)" fill="#1a1818"/>
      <path id="패스_10134" data-name="패스 10134" d="M391.261,173.6v-5.118h2.38a1.636,1.636,0,0,1,1.125.359,1.23,1.23,0,0,1,.412.978,1.521,1.521,0,0,1-.2.816,1.168,1.168,0,0,1-.673.481.818.818,0,0,1,.581.4,1.568,1.568,0,0,1,.171.637c.023.275.042.542.064.8a1.357,1.357,0,0,0,.234.653H394.6a1.07,1.07,0,0,1-.13-.611,4.968,4.968,0,0,0-.055-.655,1.187,1.187,0,0,0-.287-.747.807.807,0,0,0-.55-.179H391.94V173.6Zm.679-2.759h1.4a1.562,1.562,0,0,0,.816-.175.81.81,0,0,0,.348-.741.86.86,0,0,0-.214-.616.886.886,0,0,0-.682-.25H391.94Z" transform="translate(-381.307 -168.331)" fill="#1a1818"/>
      <path id="패스_10135" data-name="패스 10135" d="M398.377,173.6v-5.118h3.491v.577h-2.813v1.613h2.62v.574h-2.62v1.781h2.83v.573Z" transform="translate(-383.645 -168.331)" fill="#1a1818"/>
      <path id="패스_10136" data-name="패스 10136" d="M403.81,173.6l1.975-5.118h.741L408.5,173.6l-.753,0-.545-1.552h-2.138l-.568,1.542Zm1.482-2.122h1.691l-.832-2.377Z" transform="translate(-385.43 -168.331)" fill="#1a1818"/>
      <path id="패스_10137" data-name="패스 10137" d="M414.29,173.6v-5.118h.68V173.6Z" transform="translate(-388.874 -168.331)" fill="#1a1818"/>
      <path id="패스_10138" data-name="패스 10138" d="M416.9,173.6v-5.118h.92l1.591,4.3,1.6-4.3h.918V173.6h-.638v-4.254l-1.594,4.248-.567.006-1.575-4.258-.014,4.258Z" transform="translate(-389.731 -168.331)" fill="#1a1818"/>
      <path id="패스_10139" data-name="패스 10139" d="M425.971,173.6v-5.118h.919l1.593,4.3,1.6-4.3H431V173.6h-.641v-4.254l-1.593,4.248-.565.006-1.578-4.258-.011,4.258Z" transform="translate(-392.712 -168.331)" fill="#1a1818"/>
      <path id="패스_10140" data-name="패스 10140" d="M435.061,173.6v-5.118h.68V173.6Z" transform="translate(-395.699 -168.331)" fill="#1a1818"/>
      <path id="패스_10141" data-name="패스 10141" d="M441.493,173.525l-.175-.639a1.719,1.719,0,0,1-.708.579,2.318,2.318,0,0,1-.916.185,2.236,2.236,0,0,1-1.771-.786,2.7,2.7,0,0,1-.636-1.8,3.053,3.053,0,0,1,.6-1.957,2.16,2.16,0,0,1,1.8-.845,2.378,2.378,0,0,1,1.43.407,1.914,1.914,0,0,1,.742,1.314h-.67a1.272,1.272,0,0,0-.5-.855,1.7,1.7,0,0,0-.994-.281,1.512,1.512,0,0,0-1.324.676,2.621,2.621,0,0,0-.408,1.5,2.237,2.237,0,0,0,.447,1.419,1.686,1.686,0,0,0,2.478.16,1.727,1.727,0,0,0,.43-1.2H439.7v-.577h2.221v2.7Z" transform="translate(-396.431 -168.259)" fill="#1a1818"/>
      <path id="패스_10142" data-name="패스 10142" d="M445.538,173.6v-5.118h2.381a1.644,1.644,0,0,1,1.127.359,1.231,1.231,0,0,1,.409.978,1.5,1.5,0,0,1-.2.816,1.171,1.171,0,0,1-.672.481.826.826,0,0,1,.58.4,1.511,1.511,0,0,1,.168.637c.026.275.046.542.062.8a1.386,1.386,0,0,0,.239.653h-.749a1.1,1.1,0,0,1-.132-.611,4.413,4.413,0,0,0-.053-.655,1.2,1.2,0,0,0-.284-.747.819.819,0,0,0-.555-.179h-1.638V173.6Zm.679-2.759h1.4a1.581,1.581,0,0,0,.819-.175.816.816,0,0,0,.343-.741.864.864,0,0,0-.211-.616.886.886,0,0,0-.685-.25h-1.663Z" transform="translate(-399.142 -168.331)" fill="#1a1818"/>
      <path id="패스_10143" data-name="패스 10143" d="M451.757,173.6l1.973-5.118h.744l1.973,5.118-.751,0-.544-1.552h-2.138l-.569,1.542Zm1.478-2.122h1.693l-.833-2.377Z" transform="translate(-401.185 -168.331)" fill="#1a1818"/>
      <path id="패스_10144" data-name="패스 10144" d="M460.265,173.6v-4.541h-1.691v-.577h4.059v.577h-1.691V173.6Z" transform="translate(-403.426 -168.331)" fill="#1a1818"/>
      <path id="패스_10145" data-name="패스 10145" d="M465.358,173.6v-5.118h.679V173.6Z" transform="translate(-405.655 -168.331)" fill="#1a1818"/>
      <path id="패스_10146" data-name="패스 10146" d="M467.52,170.961a2.871,2.871,0,0,1,.61-1.873,2.39,2.39,0,0,1,3.62,0,3.181,3.181,0,0,1,0,3.745,2.412,2.412,0,0,1-3.62,0A2.882,2.882,0,0,1,467.52,170.961Zm.681,0a2.436,2.436,0,0,0,.407,1.444,1.662,1.662,0,0,0,2.663,0,2.409,2.409,0,0,0,.41-1.444,2.447,2.447,0,0,0-.41-1.452,1.667,1.667,0,0,0-2.663,0A2.475,2.475,0,0,0,468.2,170.961Z" transform="translate(-406.365 -168.259)" fill="#1a1818"/>
      <path id="패스_10147" data-name="패스 10147" d="M475.829,173.6v-5.118h.714l2.661,4.143.013-4.143h.639V173.6l-.743,0-2.633-4.107-.016,4.1Z" transform="translate(-409.095 -168.331)" fill="#1a1818"/>
      <path id="패스_10148" data-name="패스 10148" d="M489.584,169.894h-.636a1.108,1.108,0,0,0-.382-.79,1.338,1.338,0,0,0-.868-.259,1.428,1.428,0,0,0-.78.185.755.755,0,0,0-.349.692.671.671,0,0,0,.5.625,9.309,9.309,0,0,0,1.118.295,2.457,2.457,0,0,1,1.307.608,1.256,1.256,0,0,1,.3.869,1.325,1.325,0,0,1-.636,1.175,2.39,2.39,0,0,1-1.336.359,2.3,2.3,0,0,1-1.462-.433,1.637,1.637,0,0,1-.621-1.379h.639a1.112,1.112,0,0,0,.442.943,2.012,2.012,0,0,0,1.886.1.8.8,0,0,0,.41-.747q0-.545-.741-.792c-.14-.046-.428-.117-.867-.22a2.667,2.667,0,0,1-1.314-.559,1.073,1.073,0,0,1-.3-.8,1.31,1.31,0,0,1,.566-1.143,2.123,2.123,0,0,1,1.269-.369,2.046,2.046,0,0,1,1.313.4A1.477,1.477,0,0,1,489.584,169.894Z" transform="translate(-412.351 -168.259)" fill="#1a1818"/>
      <path id="패스_10149" data-name="패스 10149" d="M492.894,173.6v-5.118h3.492v.577h-2.814v1.613h2.62v.574h-2.62v1.781h2.833v.573Z" transform="translate(-414.703 -168.331)" fill="#1a1818"/>
      <path id="패스_10150" data-name="패스 10150" d="M499.227,173.6v-5.118h2.379a1.644,1.644,0,0,1,1.126.359,1.222,1.222,0,0,1,.41.978,1.485,1.485,0,0,1-.2.816,1.15,1.15,0,0,1-.674.481.815.815,0,0,1,.583.4,1.549,1.549,0,0,1,.169.637c.024.275.044.542.063.8a1.357,1.357,0,0,0,.237.653h-.749a1.074,1.074,0,0,1-.129-.611,4.622,4.622,0,0,0-.055-.655,1.2,1.2,0,0,0-.285-.747.817.817,0,0,0-.552-.179h-1.641V173.6Zm.678-2.759h1.4a1.578,1.578,0,0,0,.817-.175.814.814,0,0,0,.346-.741.869.869,0,0,0-.213-.616.883.883,0,0,0-.683-.25h-1.664Z" transform="translate(-416.784 -168.331)" fill="#1a1818"/>
      <path id="패스_10151" data-name="패스 10151" d="M509.863,168.479l-1.794,5.118H507.3l-1.783-5.118h.729l1.436,4.431,1.472-4.431Z" transform="translate(-418.852 -168.331)" fill="#1a1818"/>
      <path id="패스_10152" data-name="패스 10152" d="M512.713,173.6v-5.118h.676V173.6Z" transform="translate(-421.215 -168.331)" fill="#1a1818"/>
      <path id="패스_10153" data-name="패스 10153" d="M519.407,169.937h-.672a1.293,1.293,0,0,0-.483-.817,1.552,1.552,0,0,0-.93-.275,1.492,1.492,0,0,0-1.3.632,2.4,2.4,0,0,0-.406,1.446,2.6,2.6,0,0,0,.4,1.517,1.492,1.492,0,0,0,1.308.632,1.4,1.4,0,0,0,1.057-.412,1.475,1.475,0,0,0,.395-1.067h.68a2.357,2.357,0,0,1-.666,1.511,2.075,2.075,0,0,1-1.521.547,2.105,2.105,0,0,1-1.75-.779,3.362,3.362,0,0,1,.028-3.816,2.192,2.192,0,0,1,1.782-.8,2.26,2.26,0,0,1,1.4.438A1.817,1.817,0,0,1,519.407,169.937Z" transform="translate(-421.946 -168.259)" fill="#1a1818"/>
      <path id="패스_10154" data-name="패스 10154" d="M522.8,173.6v-5.118h3.491v.577h-2.814v1.613H526.1v.574h-2.625v1.781h2.833v.573Z" transform="translate(-424.529 -168.331)" fill="#1a1818"/>
      <path id="패스_10155" data-name="패스 10155" d="M531.957,173.6v-5.118h3.321v.577h-2.643v1.613h2.316v.574h-2.316V173.6Z" transform="translate(-427.539 -168.331)" fill="#1a1818"/>
      <path id="패스_10156" data-name="패스 10156" d="M537.479,170.961a2.9,2.9,0,0,1,.606-1.873,2.393,2.393,0,0,1,3.623,0,3.18,3.18,0,0,1,0,3.745,2.415,2.415,0,0,1-3.623,0A2.91,2.91,0,0,1,537.479,170.961Zm.676,0a2.4,2.4,0,0,0,.413,1.444,1.659,1.659,0,0,0,2.66,0,2.39,2.39,0,0,0,.409-1.444,2.427,2.427,0,0,0-.409-1.452,1.664,1.664,0,0,0-2.66,0A2.443,2.443,0,0,0,538.155,170.961Z" transform="translate(-429.353 -168.259)" fill="#1a1818"/>
      <path id="패스_10157" data-name="패스 10157" d="M549.823,168.479v3.267a1.946,1.946,0,0,1-.515,1.472,2,2,0,0,1-1.47.506,2.173,2.173,0,0,1-1.521-.472,1.926,1.926,0,0,1-.55-1.505v-3.267h.675v3.267a1.248,1.248,0,0,0,1.4,1.4,1.271,1.271,0,0,0,.967-.353,1.487,1.487,0,0,0,.338-1.045v-3.267Z" transform="translate(-432.077 -168.331)" fill="#1a1818"/>
      <path id="패스_10158" data-name="패스 10158" d="M553.288,173.6v-5.118H554l2.66,4.143.02-4.143h.64V173.6l-.75,0-2.629-4.107-.014,4.1Z" transform="translate(-434.548 -168.331)" fill="#1a1818"/>
      <path id="패스_10159" data-name="패스 10159" d="M560.81,173.6v-5.118h1.733a2.159,2.159,0,0,1,2.424,2.434,2.93,2.93,0,0,1-.581,1.987,2.3,2.3,0,0,1-1.843.7Zm.677-4.541v3.967H562.6a1.672,1.672,0,0,0,1.013-.3,1.968,1.968,0,0,0,.68-1.715,2.287,2.287,0,0,0-.375-1.435,1.557,1.557,0,0,0-1.3-.52Z" transform="translate(-437.02 -168.331)" fill="#1a1818"/>
      <path id="패스_10160" data-name="패스 10160" d="M567.225,173.6l1.972-5.118h.747l1.973,5.118-.757,0-.54-1.552h-2.142l-.57,1.542Zm1.477-2.122H570.4l-.831-2.377Z" transform="translate(-439.128 -168.331)" fill="#1a1818"/>
      <path id="패스_10161" data-name="패스 10161" d="M575.731,173.6v-4.541h-1.688v-.577H578.1v.577h-1.69V173.6Z" transform="translate(-441.368 -168.331)" fill="#1a1818"/>
      <path id="패스_10162" data-name="패스 10162" d="M580.826,173.6v-5.118h.676V173.6Z" transform="translate(-443.597 -168.331)" fill="#1a1818"/>
      <path id="패스_10163" data-name="패스 10163" d="M582.992,170.961a2.878,2.878,0,0,1,.609-1.873,2.39,2.39,0,0,1,3.62,0,3.2,3.2,0,0,1,0,3.745,2.412,2.412,0,0,1-3.62,0A2.889,2.889,0,0,1,582.992,170.961Zm.678,0a2.43,2.43,0,0,0,.406,1.444,1.664,1.664,0,0,0,2.665,0,2.422,2.422,0,0,0,.409-1.444,2.461,2.461,0,0,0-.409-1.452,1.669,1.669,0,0,0-2.665,0A2.469,2.469,0,0,0,583.67,170.961Z" transform="translate(-444.309 -168.259)" fill="#1a1818"/>
      <path id="패스_10164" data-name="패스 10164" d="M591.3,173.6v-5.118h.713l2.661,4.143.014-4.143h.641V173.6l-.745,0-2.631-4.107-.016,4.1Z" transform="translate(-447.038 -168.331)" fill="#1a1818"/>
    </g>
    <g id="그룹_5722" data-name="그룹 5722" transform="translate(344.467 121.441)">
      <path id="패스_10165" data-name="패스 10165" d="M374.552,125.208v-.957h4.628v.957h-1.711v.348a7.7,7.7,0,0,0,.451,2.545,4.924,4.924,0,0,0,1.745,2.286l-.8.71a5.6,5.6,0,0,1-1.16-1.2,4.7,4.7,0,0,1-.833-1.532,4.931,4.931,0,0,1-.817,1.594,8.368,8.368,0,0,1-1.267,1.4l-.912-.676a5.422,5.422,0,0,0,1.96-2.506,8.232,8.232,0,0,0,.451-2.618v-.348Zm7.771,7.781V128h-1.16v4.538h-1.092V123.3h1.092V126.9h1.16V123.08h1.092v9.909Z" transform="translate(-373.877 -123.08)" fill="#1a1818"/>
      <path id="패스_10166" data-name="패스 10166" d="M394.931,128.344q-1,.074-2.02.1l-2.512.022v-4.719h5.011v.946h-3.885v2.815l1.847-.011q.7-.022,1.633-.09t1.419-.146v.935Q395.928,128.27,394.931,128.344Zm-3.5,4.421v-3.322h1.115v2.376h6.059v.946Zm6.87-9.684V126h1.419v.946H398.3v3.311h-1.126V123.08Z" transform="translate(-379.306 -123.08)" fill="#1a1818"/>
      <path id="패스_10167" data-name="패스 10167" d="M382.23,142.037v-2.184h1.126v5.315H382.23v-2.151h-2.275v1.9h-4.819v-4.639h1.125v1.441h2.579v-1.441h1.115v1.756Zm-5.98,7.612v-3.93h1.126v1.059H382.2V145.72h1.127v3.93Zm2.589-7.015H376.26v1.373h2.579ZM382.2,147.7h-4.819v1.014H382.2Z" transform="translate(-374.29 -128.592)" fill="#1a1818"/>
      <path id="패스_10168" data-name="패스 10168" d="M394.86,144.5a3,3,0,0,1-3.942,0,2.458,2.458,0,0,1,0-3.576,2.987,2.987,0,0,1,3.942,0,2.459,2.459,0,0,1,0,3.576Zm-.8-2.883a1.506,1.506,0,0,0-1.177-.456,1.49,1.49,0,0,0-1.166.456,1.584,1.584,0,0,0-.412,1.1,1.567,1.567,0,0,0,.412,1.086,1.486,1.486,0,0,0,1.166.456,1.5,1.5,0,0,0,1.177-.456,1.566,1.566,0,0,0,.41-1.086A1.583,1.583,0,0,0,394.061,141.615Zm-2.371,7.923V146.4h1.148v2.2h6.205v.946Zm6-2.512v-7.173h1.125v7.173Z" transform="translate(-379.223 -128.592)" fill="#1a1818"/>
    </g>
    <g id="그룹_5723" data-name="그룹 5723" transform="translate(285.242 152.592)">
      <path id="패스_10169" data-name="패스 10169" d="M285.69,177.438h-.348l.019-1.139v-5.912h.329Zm6.9-.109c0,.04-.029.078-.085.115a.4.4,0,0,1-.216.055q-.14,0-.8-1.388-.34-.69-.669-1.388l-.679-1.378q-.159-.319-.7-1.368a11.33,11.33,0,0,0-.968.6V176.3l.03,1.139H286.1v-7.051h2.407l-.03,1.139v.619q.778-.406,1.7-.944.529-.317,1.059-.634a1.443,1.443,0,0,1,.479-.229q.39,0,.389.149,0,.121-.619.42a19.167,19.167,0,0,0-1.728.917q.769,1.587,1.5,2.972c.087.158.416.765.989,1.814A3.92,3.92,0,0,1,292.592,177.328Z" transform="translate(-285.342 -170.157)" fill="#0060a6"/>
      <path id="패스_10170" data-name="패스 10170" d="M307.38,177.471h-.35l.02-1.139v-5.921h.33Zm2.817,0h-2.407v-7.06H310.2l-.03,1.14v4.781Z" transform="translate(-292.469 -170.181)" fill="#0060a6"/>
      <path id="패스_10171" data-name="패스 10171" d="M326.84,176.74q0,.829-1.049.83a2.638,2.638,0,0,1-.938-.2,4.431,4.431,0,0,1-1.059-.6c-.287-.212-.429-.369-.429-.468a.15.15,0,0,1,.17-.171.437.437,0,0,1,.24.12l.309.25a4.863,4.863,0,0,0,.9.549,1.981,1.981,0,0,0,.814.181q.709,0,.709-.471a.761.761,0,0,0-.148-.406,5.232,5.232,0,0,0-.466-.576l-1.041-1.146a8.391,8.391,0,0,1-1-1.268,2.305,2.305,0,0,1-.35-1.167,1.937,1.937,0,0,1,.6-1.4,1.7,1.7,0,0,0-.35,1.059,2.407,2.407,0,0,0,.261,1.1,5.394,5.394,0,0,0,.818,1.133l1.288,1.4A2.183,2.183,0,0,1,326.84,176.74Zm2.316-1.28a1.9,1.9,0,0,1-.659,1.479,2.684,2.684,0,0,1-1.868.631.864.864,0,0,0,.579-.905,1.381,1.381,0,0,0-.209-.7,5.284,5.284,0,0,0-.636-.829l-1.171-1.257a5.61,5.61,0,0,1-.816-1.078,2,2,0,0,1-.275-.969,1.587,1.587,0,0,1,.575-1.292,2.465,2.465,0,0,1,1.613-.475,3.919,3.919,0,0,1,1.738.379c.44.213.659.4.659.56,0,.093-.05.139-.15.139a.443.443,0,0,1-.244-.134c-.1-.091-.179-.151-.225-.185a2.22,2.22,0,0,0-.649-.33,2.386,2.386,0,0,0-.719-.11.878.878,0,0,0-.489.12.363.363,0,0,0-.18.311q0,.35.7,1.08l1.338,1.411A3.271,3.271,0,0,1,329.156,175.46Z" transform="translate(-297.836 -170.069)" fill="#0060a6"/>
      <path id="패스_10172" data-name="패스 10172" d="M344.032,177.471h-.348l.019-1.139v-5.921h.329Zm5.933-4.953c0,.12-.077.18-.23.18q-.328,0-1.019-.007c-.459,0-.909-.008-1.348-.013h-.55v3.654l.03,1.14h-2.407v-7.06h4.974c.193,0,.289.06.289.18s-.1.19-.289.19q-.06,0-.869-.025t-1.389-.026h-.339v1.627h.44q2.186-.05,2.357-.05a.708.708,0,0,1,.28.036C349.942,172.367,349.966,172.425,349.966,172.519Z" transform="translate(-304.513 -170.181)" fill="#0060a6"/>
    </g>
  </g>
</svg>
