<svg id="그룹_5680" data-name="그룹 5680" xmlns="http://www.w3.org/2000/svg" width="72" height="72" viewBox="0 0 72 72">
  <rect id="사각형_3095" data-name="사각형 3095" width="72" height="72" fill="none"/>
  <g id="그룹_5695" data-name="그룹 5695" transform="translate(9 7.989)">
    <g id="그룹_5685" data-name="그룹 5685" transform="translate(24.803)">
      <g id="그룹_5681" data-name="그룹 5681" transform="translate(0 23.533)">
        <path id="패스_10083" data-name="패스 10083" d="M449.119,202.31a5.472,5.472,0,1,1,5.473-5.472A5.478,5.478,0,0,1,449.119,202.31Zm0-8.444a2.972,2.972,0,1,0,2.973,2.972A2.975,2.975,0,0,0,449.119,193.866Z" transform="translate(-443.647 -191.366)" fill="#fff"/>
      </g>
      <g id="그룹_5682" data-name="그룹 5682" transform="translate(13.712 23.533)">
        <path id="패스_10084" data-name="패스 10084" d="M462.832,202.31a5.472,5.472,0,1,1,5.473-5.472A5.478,5.478,0,0,1,462.832,202.31Zm0-8.444a2.972,2.972,0,1,0,2.973,2.972A2.976,2.976,0,0,0,462.832,193.866Z" transform="translate(-457.359 -191.366)" fill="#fff"/>
      </g>
      <g id="그룹_5683" data-name="그룹 5683" transform="translate(1.597)">
        <path id="패스_10085" data-name="패스 10085" d="M453,188.7h-2.5V170.333h-2.751V188.7h-2.5V167.833H453Z" transform="translate(-445.244 -167.833)" fill="#fff"/>
      </g>
      <g id="그룹_5684" data-name="그룹 5684" transform="translate(15.31 7.72)">
        <path id="패스_10086" data-name="패스 10086" d="M466.708,188.7h-2.5V178.053h-2.751V188.7h-2.5V175.553h7.751Z" transform="translate(-458.957 -175.553)" fill="#fff"/>
      </g>
    </g>
    <g id="그룹_5694" data-name="그룹 5694" transform="translate(0 33.641)">
      <g id="그룹_5693" data-name="그룹 5693">
        <g id="그룹_5692" data-name="그룹 5692">
          <g id="그룹_5691" data-name="그룹 5691">
            <g id="그룹_5690" data-name="그룹 5690">
              <g id="그룹_5686" data-name="그룹 5686">
                <path id="패스_10087" data-name="패스 10087" d="M430.413,221.49H418.844V201.474h11.569Zm-9.069-2.5h6.569V203.974h-6.569Z" transform="translate(-418.844 -201.474)" fill="#fff"/>
              </g>
              <g id="그룹_5687" data-name="그룹 5687" transform="translate(9.913 5.388)">
                <path id="패스_10088" data-name="패스 10088" d="M449.5,223.854l-20.741-7.122.812-2.365,19.7,6.767,18.621-10.066c-.874-1.027-2.7-2.348-5.975-1.357-3.159.956-12.681,4.588-12.776,4.625L448.25,212c.394-.15,9.7-3.7,12.944-4.682,5.555-1.682,8.723,1.685,9.623,3.7l.473,1.057Z" transform="translate(-428.757 -206.862)" fill="#fff"/>
              </g>
              <g id="그룹_5688" data-name="그룹 5688" transform="translate(9.352)">
                <path id="패스_10089" data-name="패스 10089" d="M447.436,214.673a4.647,4.647,0,0,1-1.968-.438l-7.9-3.686,1.056-2.266,7.9,3.687a2.161,2.161,0,0,0,2.985-2.576,2.133,2.133,0,0,0-1.152-1.337l-8.686-4.083H428.2v-2.5H440.23l9.19,4.32a4.661,4.661,0,0,1-1.984,8.879Z" transform="translate(-428.196 -201.474)" fill="#fff"/>
              </g>
              <g id="그룹_5689" data-name="그룹 5689" transform="translate(4.534 12.271)">
                <rect id="사각형_3096" data-name="사각형 3096" width="2.5" height="3.223" fill="#fff"/>
              </g>
            </g>
          </g>
        </g>
      </g>
    </g>
  </g>
</svg>
