<svg xmlns="http://www.w3.org/2000/svg" width="72" height="72" viewBox="0 0 72 72">
  <g id="그룹_263" data-name="그룹 263" transform="translate(-345 -1992)">
    <rect id="사각형_68" data-name="사각형 68" width="72" height="72" transform="translate(345 1992)" fill="none"/>
    <g id="그룹_176" data-name="그룹 176" transform="translate(349.5 1998.75)">
      <g id="그룹_155" data-name="그룹 155" transform="translate(33.483 4.329)">
        <path id="패스_464" data-name="패스 464" d="M192.079,75.42h-2.812V59.427h-9.345V56.615h12.158Z" transform="translate(-179.921 -56.615)" fill="#fff"/>
      </g>
      <g id="그룹_156" data-name="그룹 156" transform="translate(0 4.329)">
        <path id="패스_465" data-name="패스 465" d="M185.12,110.786h-35.3V56.615H162.27v2.808h-9.633v48.556H185.12Z" transform="translate(-149.824 -56.615)" fill="#fff"/>
      </g>
      <g id="그룹_157" data-name="그룹 157" transform="translate(20.295 30.216)">
        <rect id="사각형_27" data-name="사각형 27" width="9.221" height="2.813" fill="#fff"/>
      </g>
      <g id="그룹_158" data-name="그룹 158" transform="translate(20.295 38.74)">
        <rect id="사각형_28" data-name="사각형 28" width="9.221" height="2.813" fill="#fff"/>
      </g>
      <g id="그룹_159" data-name="그룹 159" transform="translate(10.88)">
        <path id="패스_466" data-name="패스 466" d="M183.863,64.238H159.637V52.767h24.226Zm-21.413-2.813h18.6V55.579h-18.6Z" transform="translate(-159.637 -52.767)" fill="#fff"/>
      </g>
      <g id="그룹_160" data-name="그룹 160" transform="translate(7.283 17.117)">
        <path id="패스_467" data-name="패스 467" d="M160.568,75.984l-4.27-4.27,1.989-1.988,2.281,2.281,4-4L166.554,70Z" transform="translate(-156.298 -68.01)" fill="#fff"/>
      </g>
      <g id="그룹_161" data-name="그룹 161" transform="translate(7.283 25.64)">
        <path id="패스_468" data-name="패스 468" d="M160.568,83.573,156.3,79.3l1.989-1.989,2.281,2.281,4-4,1.989,1.989Z" transform="translate(-156.298 -75.6)" fill="#fff"/>
      </g>
      <g id="그룹_162" data-name="그룹 162" transform="translate(7.283 34.163)">
        <path id="패스_469" data-name="패스 469" d="M160.568,91.163l-4.27-4.269,1.989-1.989,2.281,2.281,4-4,1.989,1.988Z" transform="translate(-156.298 -83.189)" fill="#fff"/>
      </g>
      <g id="그룹_163" data-name="그룹 163" transform="translate(20.258 21.692)">
        <rect id="사각형_29" data-name="사각형 29" width="17.284" height="2.813" fill="#fff"/>
      </g>
      <g id="그룹_165" data-name="그룹 165" transform="translate(33.306 27.682)">
        <g id="그룹_164" data-name="그룹 164">
          <path id="패스_470" data-name="패스 470" d="M195.357,108.273a15.41,15.41,0,0,1-15.409-15.409V77.455h15.409a15.409,15.409,0,1,1,0,30.818Zm-12.6-28.006v12.6a12.6,12.6,0,1,0,12.6-12.6Z" transform="translate(-179.948 -77.455)" fill="#fff"/>
        </g>
      </g>
      <g id="그룹_175" data-name="그룹 175" transform="translate(40.187 34.562)">
        <g id="그룹_166" data-name="그룹 166" transform="translate(1.784 1.785)">
          <path id="패스_471" data-name="패스 471" d="M194.394,98.645a6.745,6.745,0,1,1,4.769-1.976A6.7,6.7,0,0,1,194.394,98.645Zm0-10.674a3.931,3.931,0,0,0-2.779,6.711,4.025,4.025,0,0,0,5.559,0,3.931,3.931,0,0,0-2.78-6.711Z" transform="translate(-187.651 -85.158)" fill="#fff"/>
        </g>
        <g id="그룹_167" data-name="그룹 167" transform="translate(7.122)">
          <rect id="사각형_30" data-name="사각형 30" width="2.813" height="3.191" fill="#fff"/>
        </g>
        <g id="그룹_168" data-name="그룹 168" transform="translate(1.504 1.503)">
          <rect id="사각형_31" data-name="사각형 31" width="2.812" height="3.191" transform="matrix(0.707, -0.707, 0.707, 0.707, 0, 1.988)" fill="#fff"/>
        </g>
        <g id="그룹_169" data-name="그룹 169" transform="translate(0 7.122)">
          <rect id="사각형_32" data-name="사각형 32" width="3.191" height="2.813" fill="#fff"/>
        </g>
        <g id="그룹_170" data-name="그룹 170" transform="translate(1.504 11.308)">
          <rect id="사각형_33" data-name="사각형 33" width="3.191" height="2.812" transform="matrix(0.707, -0.707, 0.707, 0.707, 0, 2.257)" fill="#fff"/>
        </g>
        <g id="그룹_171" data-name="그룹 171" transform="translate(7.122 13.865)">
          <rect id="사각형_34" data-name="사각형 34" width="2.813" height="3.191" fill="#fff"/>
        </g>
        <g id="그룹_172" data-name="그룹 172" transform="translate(11.308 11.308)">
          <rect id="사각형_35" data-name="사각형 35" width="2.812" height="3.191" transform="translate(0 1.988) rotate(-45)" fill="#fff"/>
        </g>
        <g id="그룹_173" data-name="그룹 173" transform="translate(13.865 7.122)">
          <rect id="사각형_36" data-name="사각형 36" width="3.191" height="2.813" fill="#fff"/>
        </g>
        <g id="그룹_174" data-name="그룹 174" transform="translate(11.308 1.503)">
          <rect id="사각형_37" data-name="사각형 37" width="3.191" height="2.812" transform="translate(0 2.257) rotate(-45)" fill="#fff"/>
        </g>
      </g>
    </g>
  </g>
</svg>
