<svg xmlns="http://www.w3.org/2000/svg" width="72" height="72" viewBox="0 0 72 72">
  <g id="그룹_264" data-name="그룹 264" transform="translate(-523 -1992)">
    <rect id="사각형_69" data-name="사각형 69" width="72" height="72" transform="translate(523 1992)" fill="none"/>
    <g id="그룹_197" data-name="그룹 197" transform="translate(525.25 2001)">
      <g id="그룹_189" data-name="그룹 189">
        <g id="그룹_184" data-name="그룹 184">
          <path id="패스_472" data-name="패스 472" d="M305.474,110.24h-53.8a6.841,6.841,0,0,1-6.849-6.818V57.365h67.5v46.057A6.841,6.841,0,0,1,305.474,110.24ZM247.618,60.149v43.273a4.048,4.048,0,0,0,4.053,4.034h53.8a4.047,4.047,0,0,0,4.052-4.034V60.149Z" transform="translate(-244.822 -57.365)" fill="#fff"/>
        </g>
        <g id="그룹_188" data-name="그룹 188" transform="translate(41.875 5.215)">
          <g id="그룹_185" data-name="그룹 185" transform="translate(15.54)">
            <rect id="사각형_43" data-name="사각형 43" width="4.782" height="2.813" fill="#fff"/>
          </g>
          <g id="그룹_186" data-name="그룹 186" transform="translate(7.771)">
            <rect id="사각형_44" data-name="사각형 44" width="4.781" height="2.813" fill="#fff"/>
          </g>
          <g id="그룹_187" data-name="그룹 187">
            <rect id="사각형_45" data-name="사각형 45" width="4.781" height="2.813" fill="#fff"/>
          </g>
        </g>
      </g>
      <g id="그룹_190" data-name="그룹 190" transform="translate(9.034 12.808)">
        <path id="패스_473" data-name="패스 473" d="M302.285,102.972H299.5V72.046H255.642v30.925h-2.79V69.234h49.433Z" transform="translate(-252.852 -69.234)" fill="#fff"/>
      </g>
      <g id="그룹_191" data-name="그룹 191" transform="translate(17.534 21.375)">
        <rect id="사각형_46" data-name="사각형 46" width="6.277" height="2.813" fill="#fff"/>
      </g>
      <g id="그룹_192" data-name="그룹 192" transform="translate(29.144 21.375)">
        <rect id="사각형_47" data-name="사각형 47" width="8.739" height="2.813" fill="#fff"/>
      </g>
      <g id="그룹_193" data-name="그룹 193" transform="translate(17.5 27.585)">
        <rect id="사각형_48" data-name="사각형 48" width="20.432" height="2.813" fill="#fff"/>
      </g>
      <g id="그룹_194" data-name="그룹 194" transform="translate(17.446 33.794)">
        <rect id="사각형_49" data-name="사각형 49" width="33.105" height="2.813" fill="#fff"/>
      </g>
      <g id="그룹_195" data-name="그룹 195" transform="translate(17.508 40.004)">
        <rect id="사각형_50" data-name="사각형 50" width="17.541" height="2.813" fill="#fff"/>
      </g>
      <g id="그룹_196" data-name="그룹 196" transform="translate(41.432 21.342)">
        <path id="패스_474" data-name="패스 474" d="M290.992,85.661H281.9V76.572h9.089Zm-6.276-2.812h3.464V79.384h-3.464Z" transform="translate(-281.903 -76.572)" fill="#fff"/>
      </g>
    </g>
  </g>
</svg>
