<svg xmlns="http://www.w3.org/2000/svg" width="72" height="72" viewBox="0 0 72 72">
  <g id="그룹_5679" data-name="그룹 5679" transform="translate(-1508 -293)">
    <g id="그룹_5678" data-name="그룹 5678" transform="translate(1234 103)">
      <path id="패스_10081" data-name="패스 10081" d="M342.24,238.316v-34.21A4.128,4.128,0,0,0,338.1,200H282.9a4.128,4.128,0,0,0-4.14,4.105v34.21H276v6.842A6.879,6.879,0,0,0,282.9,252h55.2a6.879,6.879,0,0,0,6.9-6.842v-6.842Zm-2.76-5.474H281.52V208.211h57.96Zm-57.96-28.737a1.375,1.375,0,0,1,1.38-1.368h55.2a1.375,1.375,0,0,1,1.38,1.368v1.368H281.52Zm0,31.474h57.96v2.737H281.52Zm17.94,5.474h22.08v1.368a1.375,1.375,0,0,1-1.38,1.368H300.84a1.375,1.375,0,0,1-1.38-1.368Zm42.78,4.105a4.128,4.128,0,0,1-4.14,4.105H282.9a4.128,4.128,0,0,1-4.14-4.105v-4.105H296.7v1.368a4.128,4.128,0,0,0,4.14,4.105h19.32a4.128,4.128,0,0,0,4.14-4.105v-1.368h17.94Z" transform="translate(0 0)" fill="#303030"/>
      <rect id="사각형_3093" data-name="사각형 3093" width="13.622" height="3.405" transform="translate(311.561 214.812)" fill="#303030"/>
      <rect id="사각형_3094" data-name="사각형 3094" width="13.622" height="2.27" transform="translate(311.561 223.748)" fill="#303030"/>
      <path id="패스_10082" data-name="패스 10082" d="M301.124,211H290v11.124h11.124Zm-2.781,8.343h-5.562v-5.562h5.562Z" transform="translate(5.292 3.988)" fill="#303030"/>
    </g>
    <rect id="사각형_3095" data-name="사각형 3095" width="72" height="72" transform="translate(1508 293)" fill="none"/>
  </g>
</svg>
