<svg xmlns="http://www.w3.org/2000/svg" width="72" height="72" viewBox="0 0 72 72">
  <g id="그룹_267" data-name="그룹 267" transform="translate(-855 -1992)">
    <rect id="사각형_72" data-name="사각형 72" width="72" height="72" transform="translate(855 1992)" fill="none"/>
    <g id="그룹_305" data-name="그룹 305" transform="translate(859.5 2001)">
      <g id="그룹_298" data-name="그룹 298">
        <g id="그룹_292" data-name="그룹 292" transform="translate(0 8.866)">
          <path id="패스_519" data-name="패스 519" d="M1059.693,700.5h-63V655.361h63Zm-60.155-2.843h57.31V658.2h-57.31Z" transform="translate(-996.693 -655.361)" fill="#a1aab0"/>
        </g>
        <g id="그룹_293" data-name="그룹 293" transform="translate(0)">
          <path id="패스_520" data-name="패스 520" d="M1059.693,636.02h-63V624.28h63Zm-60.155-2.874h57.31v-5.992h-57.31Z" transform="translate(-996.693 -624.28)" fill="#a1aab0"/>
        </g>
        <g id="그룹_297" data-name="그룹 297" transform="translate(42.678 4.433)">
          <g id="그룹_294" data-name="그룹 294">
            <rect id="사각형_84" data-name="사각형 84" width="3.285" height="2.874" fill="#f9a63d"/>
          </g>
          <g id="그룹_295" data-name="그룹 295" transform="translate(6.189)">
            <rect id="사각형_85" data-name="사각형 85" width="3.285" height="2.874" fill="#f9a63d"/>
          </g>
          <g id="그룹_296" data-name="그룹 296" transform="translate(12.378)">
            <rect id="사각형_86" data-name="사각형 86" width="3.284" height="2.874" fill="#f9a63d"/>
          </g>
        </g>
      </g>
      <g id="그룹_299" data-name="그룹 299" transform="translate(9.69 15.6)">
        <path id="패스_521" data-name="패스 521" d="M1036.786,691a5.7,5.7,0,1,1,5.7-5.7A5.7,5.7,0,0,1,1036.786,691Zm0-8.523a2.825,2.825,0,1,0,2.824,2.825A2.827,2.827,0,0,0,1036.786,682.474Z" transform="translate(-1031.088 -679.6)" fill="#f9a63d"/>
      </g>
      <g id="그룹_300" data-name="그룹 300" transform="translate(9.69 28.629)">
        <path id="패스_522" data-name="패스 522" d="M1036.786,737.2a5.7,5.7,0,1,1,5.7-5.7A5.7,5.7,0,0,1,1036.786,737.2Zm0-8.523a2.825,2.825,0,1,0,2.824,2.824A2.827,2.827,0,0,0,1036.786,728.677Z" transform="translate(-1031.088 -725.803)" fill="#f9a63d"/>
      </g>
      <g id="그룹_301" data-name="그룹 301" transform="translate(9.69 41.648)">
        <path id="패스_523" data-name="패스 523" d="M1042.485,777.707h-2.874a2.824,2.824,0,0,0-5.649,0h-2.874a5.7,5.7,0,0,1,11.4,0Z" transform="translate(-1031.088 -772.009)" fill="#f9a63d"/>
      </g>
      <g id="그룹_302" data-name="그룹 302" transform="translate(23.982 19.851)">
        <rect id="사각형_87" data-name="사각형 87" width="28.805" height="2.874" transform="translate(0)" fill="#a1aab0"/>
      </g>
      <g id="그룹_303" data-name="그룹 303" transform="translate(23.982 32.905)">
        <rect id="사각형_88" data-name="사각형 88" width="28.805" height="2.874" transform="translate(0 0)" fill="#a1aab0"/>
      </g>
      <g id="그룹_304" data-name="그룹 304" transform="translate(23.982 44.943)">
        <rect id="사각형_89" data-name="사각형 89" width="28.805" height="2.874" transform="translate(0 0)" fill="#a1aab0"/>
      </g>
    </g>
  </g>
</svg>
