<svg xmlns="http://www.w3.org/2000/svg" width="72" height="72" viewBox="0 0 72 72">
  <g id="그룹_268" data-name="그룹 268" transform="translate(-953 -1992)">
    <rect id="사각형_73" data-name="사각형 73" width="72" height="72" transform="translate(953 1992)" fill="none"/>
    <g id="그룹_228" data-name="그룹 228" transform="translate(963.125 2002.125)">
      <g id="그룹_225" data-name="그룹 225">
        <g id="그룹_224" data-name="그룹 224" transform="translate(0)">
          <path id="패스_491" data-name="패스 491" d="M222.418,1062.354l4.731-13.534h-3.856a4.586,4.586,0,0,1-4.584-4.577v-30.185a4.586,4.586,0,0,1,4.584-4.578H267a4.586,4.586,0,0,1,4.584,4.578v30.185A4.586,4.586,0,0,1,267,1048.82H242.561Zm.874-50.312a2.019,2.019,0,0,0-2.018,2.015v30.185a2.018,2.018,0,0,0,2.018,2.014h7.47l-3.381,9.674,14.4-9.674H267a2.019,2.019,0,0,0,2.018-2.014v-30.185a2.019,2.019,0,0,0-2.018-2.015Z" transform="translate(-218.708 -1009.479)" fill="#828f97"/>
        </g>
      </g>
    </g>
    <g id="그룹_4399" data-name="그룹 4399" transform="translate(522.383 750.661)">
      <path id="패스_961" data-name="패스 961" d="M472.664,1279.339l-16.383-8.5,16.383-8.5Z" transform="translate(-0.349)" fill="none" stroke="#f9a63d" stroke-linecap="round" stroke-linejoin="round" stroke-width="2"/>
      <rect id="사각형_3039" data-name="사각형 3039" width="4.98" height="5.631" transform="translate(455.617 1268.024)" fill="#fff" stroke="#f9a63d" stroke-linecap="round" stroke-linejoin="round" stroke-width="2"/>
      <path id="패스_962" data-name="패스 962" d="M461.094,1289.493a2.942,2.942,0,0,0,1.183,3.076,3.159,3.159,0,0,0,4.615-1.42" transform="translate(-2.849 -15.221)" fill="none" stroke="#f9a63d" stroke-linecap="round" stroke-linejoin="round" stroke-width="2"/>
      <line id="선_1558" data-name="선 1558" x2="3.037" transform="translate(474.581 1270.614)" fill="none" stroke="#f9a63d" stroke-linecap="round" stroke-linejoin="round" stroke-width="2"/>
      <line id="선_1559" data-name="선 1559" y1="2.483" x2="2.482" transform="translate(474.489 1264.866)" fill="none" stroke="#f9a63d" stroke-linecap="round" stroke-linejoin="round" stroke-width="2"/>
      <line id="선_1560" data-name="선 1560" x2="2.482" y2="2.482" transform="translate(474.489 1273.92)" fill="none" stroke="#f9a63d" stroke-linecap="round" stroke-linejoin="round" stroke-width="2"/>
    </g>
  </g>
</svg>
