<svg xmlns="http://www.w3.org/2000/svg" width="72" height="72" viewBox="0 0 72 72">
  <g id="photo_news_icon" data-name="photo news icon" transform="translate(-1677 -1994)">
    <rect id="사각형_3100" data-name="사각형 3100" width="72" height="72" transform="translate(1677 1994)" fill="none"/>
    <g id="그룹_5711" data-name="그룹 5711" transform="translate(1335.446 1847.521)">
      <g id="그룹_5706" data-name="그룹 5706" transform="translate(347.553 194.469)">
        <g id="그룹_5704" data-name="그룹 5704" transform="translate(6.032)">
          <rect id="사각형_3098" data-name="사각형 3098" width="2.952" height="15.017" fill="#828f97"/>
        </g>
        <g id="그룹_5705" data-name="그룹 5705" transform="translate(0 6.032)">
          <rect id="사각형_3099" data-name="사각형 3099" width="15.017" height="2.952" fill="#828f97"/>
        </g>
      </g>
      <g id="그룹_5707" data-name="그룹 5707" transform="translate(353.585 164.055)">
        <path id="패스_10090" data-name="패스 10090" d="M397.809,201.987h-33.18v-2.952h30.228V165.54H355.613v23.943h-2.952v-26.9h45.148Z" transform="translate(-352.661 -162.588)" fill="#828f97"/>
      </g>
      <g id="그룹_5708" data-name="그룹 5708" transform="translate(363.161 154.479)">
        <path id="패스_10091" data-name="패스 10091" d="M405.917,193.878H399.74v-2.952h3.226v-33.5H363.723v2.786H360.77v-5.738h45.147Z" transform="translate(-360.77 -154.479)" fill="#828f97"/>
      </g>
      <g id="그룹_5709" data-name="그룹 5709" transform="translate(362.876 171.941)">
        <path id="패스_10092" data-name="패스 10092" d="M387.094,190.586H360.529V173.328h6.21l2.362-4.062h9.422l2.362,4.062h6.209Zm-23.613-2.952h20.661V176.28h-4.955l-2.362-4.062H370.8l-2.362,4.062h-4.956Z" transform="translate(-360.529 -169.266)" fill="#f9a63d"/>
      </g>
      <g id="그룹_5710" data-name="그룹 5710" transform="translate(370.96 178.555)">
        <path id="패스_10093" data-name="패스 10093" d="M372.573,185.266a5.2,5.2,0,1,1,5.2-5.2A5.2,5.2,0,0,1,372.573,185.266Zm0-7.447a2.247,2.247,0,1,0,2.247,2.247A2.249,2.249,0,0,0,372.573,177.819Z" transform="translate(-367.375 -174.867)" fill="#f9a63d"/>
      </g>
    </g>
  </g>
</svg>
