<svg xmlns="http://www.w3.org/2000/svg" width="100" height="80" viewBox="0 0 100 80">
  <g id="그룹_276" data-name="그룹 276" transform="translate(-200.636 -117.866)">
    <g id="그룹_273" data-name="그룹 273" transform="translate(207.789 117.866)">
      <path id="패스_507" data-name="패스 507" d="M257.169,153.718a6.075,6.075,0,0,0-2.235-1.207,24.5,24.5,0,0,0-3.892-.387,25.793,25.793,0,0,0-2.847-.052c-.911.039-1.732.088-2.474.149s-1.257.093-1.551.1q.435-.958,1.162-2.423a19.526,19.526,0,0,0,1.249-3.252,15.277,15.277,0,0,0,.583-3.721c0-.039,0-.079,0-.12,1.02-.129,1.779-.242,1.965-.265,4.506-.534,5.065-3.7,5.461-7.917a34.764,34.764,0,0,0,.108-5.285c-.094-1.76-.28-3.505-.544-5.24s-.554-3.392-.865-4.98a1.957,1.957,0,0,0-.594-.969,1.26,1.26,0,0,0-1.161-.238,2.9,2.9,0,0,0-.9.34,4.378,4.378,0,0,0-.862.625,4.878,4.878,0,0,0-.641.734.827.827,0,0,0-.172.654c.264,1.395.523,2.806.785,4.223a42.014,42.014,0,0,1,.567,4.429,30.861,30.861,0,0,0-10.874,1.805c.1-.871.223-1.727.377-2.557.259-1.415.518-2.826.786-4.221a.832.832,0,0,0-.176-.657,4.688,4.688,0,0,0-.641-.731,4.285,4.285,0,0,0-.862-.625,2.892,2.892,0,0,0-.9-.342,1.268,1.268,0,0,0-1.159.238,1.961,1.961,0,0,0-.6.969c-.309,1.585-.6,3.25-.865,4.982s-.448,3.478-.544,5.24a35.354,35.354,0,0,0,.105,5.283,25.679,25.679,0,0,0,1.012,5.113,1.649,1.649,0,0,0,1.507,1.218,4.132,4.132,0,0,0,1.737-.086,1.4,1.4,0,0,0,.931-1.359,14.485,14.485,0,0,0,2.14.052c-.486,1.61-.674,3.456-1.025,4.488a15.09,15.09,0,0,1-2.765,4.858,5.782,5.782,0,0,1-2.343,1.519,8.736,8.736,0,0,0-2.293,1.164q-1.561,1.159-1.218,2.308a1.972,1.972,0,0,0,1.426,1.232,6.054,6.054,0,0,0,3.316-.17,39.709,39.709,0,0,1,4.153-.888q2.244-.364,4.589-.6t4.544-.317c1.47-.052,3.965-.193,5.179-.159a6.861,6.861,0,0,0,1.527.077c.445-.03.7-.308.779-.831A3.026,3.026,0,0,0,257.169,153.718Zm-17.339-12.181a24.338,24.338,0,0,1-.618-4.122c-.058-.978-.066-1.929-.047-2.865,3.812-.263,9.662-.489,11.272-2.736-.006,2.564-.426,5.351-2.309,6.88C247.071,139.553,242,140.439,239.831,141.537Z" transform="translate(-232.586 -117.866)" fill="#fff"/>
      <path id="패스_508" data-name="패스 508" d="M267.95,303.378c-1.89-1.995-5.635-.6-7.81.116a28.443,28.443,0,0,0-4.918,2.092,1.767,1.767,0,0,0-.671.854,1.169,1.169,0,0,0,.284,1.284,2.242,2.242,0,0,0,1.146.682,3.651,3.651,0,0,0,2.138-.127q1.844-.6,4.083-1.153c2.266-.559,2.858.956,3.052,2.874.288,2.862-.906,5.077-2.079,7.654a2.749,2.749,0,0,0-.257,1.755,1.44,1.44,0,0,0,1.053,1.289,2.879,2.879,0,0,0,2.109-.421,17.949,17.949,0,0,0,1.375-2.135c2.143-3.6,3.92-10.593.8-14.418C268.157,303.6,268.055,303.489,267.95,303.378Z" transform="translate(-249.562 -261.043)" fill="#fff"/>
    </g>
    <g id="그룹_274" data-name="그룹 274" transform="translate(236.425 133.855)">
      <path id="패스_509" data-name="패스 509" d="M380.735,225.324c-1.31-1.438-2.6-2.964-3.834-4.536a31.446,31.446,0,0,1-3.3-5.263,2.42,2.42,0,0,0-.688-.788,42.263,42.263,0,0,1,3.365-3.406,10.15,10.15,0,0,0,1.936-2.271,4.4,4.4,0,0,0,.632-2.129,2.9,2.9,0,0,0-1.085-2.351,4.453,4.453,0,0,0-2.178-.926,18.905,18.905,0,0,0-7.607.539l-.273.079c-1.184.342-3.167.91-3.828,2.2a2.081,2.081,0,0,0-.069,1.708,2.291,2.291,0,0,0,2.432,1.334,6.671,6.671,0,0,0,2.22-.4,15.609,15.609,0,0,1,2.594-.743,13.81,13.81,0,0,1,2.017-.238c-.782.731-1.588,1.524-2.4,2.366a44,44,0,0,0-2.979,3.383,35.785,35.785,0,0,0-2.476,3.515,13.665,13.665,0,0,0-1.516,3.241,9.054,9.054,0,0,0-.314,1.538,1.778,1.778,0,0,0,.812,1.821c1.089.706,2.126.294,2.94-1.2a38.493,38.493,0,0,1,3.129-4.819c.011.02.022.043.033.063a28.626,28.626,0,0,0,1.514,2.754c.6.976,1.252,1.945,1.949,2.88a32.31,32.31,0,0,0,2.206,2.656,14.965,14.965,0,0,0,2.282,2.049,3.8,3.8,0,0,0,1.476.437c.082.007.161.011.238.011a1.758,1.758,0,0,0,1.309-.555,1.447,1.447,0,0,0,.273-1.424A3.456,3.456,0,0,0,380.735,225.324Z" transform="translate(-363.359 -200.799)" fill="#fff"/>
      <path id="패스_510" data-name="패스 510" d="M458.68,215.73a102.152,102.152,0,0,1-.627-10.557c-.025-3.519-.029-7.287-.012-11.194a2.747,2.747,0,0,0-.59-1.916,2.043,2.043,0,0,0-1.88-.6,1.769,1.769,0,0,0-1.579,1.413,13.929,13.929,0,0,0-.416,2.736,86.237,86.237,0,0,0-.1,8.886c.119,2.98.366,6.121.731,9.33a12.587,12.587,0,0,0,.276,1.676,14.04,14.04,0,0,0,.493,1.73,5.265,5.265,0,0,0,.706,1.366,1.24,1.24,0,0,0,1,.573,1.2,1.2,0,0,0,.127-.007,2.242,2.242,0,0,0,1.535-.8A3.6,3.6,0,0,0,458.68,215.73Z" transform="translate(-433.244 -191.443)" fill="#fff"/>
    </g>
    <g id="그룹_275" data-name="그룹 275" transform="translate(200.636 172.22)">
      <path id="패스_511" data-name="패스 511" d="M247.922,393.314a82.993,82.993,0,0,1-16.559-1.669c-17.217-3.505-28.111-11.25-28.565-11.579a5.252,5.252,0,0,1-1.211-7.26,5.1,5.1,0,0,1,7.156-1.234h0a70.924,70.924,0,0,0,25.078,9.95c20.168,3.983,39.97-.392,58.849-13a5.1,5.1,0,0,1,7.117,1.483,5.247,5.247,0,0,1-1.464,7.213C279.754,389.623,262.214,393.314,247.922,393.314Z" transform="translate(-200.636 -367.668)" fill="#fff"/>
    </g>
    <path id="패스_512" data-name="패스 512" d="M522.041,204.4a1.829,1.829,0,0,0-.592-1.019,2.627,2.627,0,0,0-1.544-.31l-.27,0c-.565.052-1.677.174-2.829.3-1.42.156-2.888.319-3.487.365-1.069.084-2.155.15-3.228.195-.7.032-1.436.05-2.185.063l-2.177.077a23.052,23.052,0,0,1-2.642-.025,21.589,21.589,0,0,1,2.157-4.935c.757-1.2,1.427-2.375,1.992-3.49a4.444,4.444,0,0,0,.5-3.059c-.162-.7-.694-1.551-2.316-1.631-.437-.007-.908-.007-1.407,0-.27,0-.521.013-.752.032q.684-1.185,1.342-2.316c.512-.877.974-1.71,1.376-2.48a4.575,4.575,0,0,0,.358-3.358,5.014,5.014,0,0,0-2.2-2.787,8.848,8.848,0,0,0-2.833-1.273c-.99-.245-6.484-1.1-7.305-1.11a2.116,2.116,0,0,0-1.572.771,2.871,2.871,0,0,0-.666,1.665,2.628,2.628,0,0,0,.51,1.518,1.763,1.763,0,0,0,1.124.831c.653.09,5.958.94,6.826,1.085a5.187,5.187,0,0,1,1.652.528,32.385,32.385,0,0,1-1.776,3.293c-.744,1.214-1.635,2.581-2.649,4.065a3.742,3.742,0,0,0-.456,3.236,3.286,3.286,0,0,0,.9,1.4,1.949,1.949,0,0,0,1.393.539,2.611,2.611,0,0,0,.366-.027c.488-.127,1.06-.242,1.8-.367.4-.066.762-.118,1.085-.159a30.113,30.113,0,0,0-2.079,3.46,19,19,0,0,0-1.636,4.137,4.718,4.718,0,0,0-.034,2.486c.608,1.884,3.721,2.278,6.224,2.278h0a26.092,26.092,0,0,0,2.928-.163,90.935,90.935,0,0,0,11.386-1.28,4.208,4.208,0,0,0,1.95-.783,2.321,2.321,0,0,0,.782-1.669l0-.047Z" transform="translate(-227.279 -46.812)" fill="#fff"/>
  </g>
</svg>
