<svg xmlns="http://www.w3.org/2000/svg" width="220" height="46" viewBox="0 0 220 46">
  <g id="그룹_180" data-name="그룹 180" transform="translate(-660 -2568)">
    <rect id="사각형_39" data-name="사각형 39" width="220" height="46" transform="translate(660 2568)" fill="none"/>
    <g id="Vector_Smart_Object" data-name="Vector Smart Object" transform="translate(605.463 2404.029)">
      <g id="그룹_49" data-name="그룹 49">
        <g id="그룹_47" data-name="그룹 47">
          <g id="그룹_45" data-name="그룹 45">
            <path id="패스_166" data-name="패스 166" d="M141.338,192.7V191.55h5.284V192.7Zm2.741,3.592c-1.212,0-2.135-.61-2.135-1.691s.923-1.741,2.135-1.741c1.192,0,2.065.661,2.065,1.741S145.261,196.292,144.079,196.292Zm-1.311-5.023V190.1H145.3v1.171Zm.476,8.055v-2.651h1.42v1.441h4.181v1.211Zm.834-5.333c-.516,0-.755.28-.755.63,0,.32.248.57.755.57s.745-.251.745-.57C144.823,194.271,144.575,193.992,144.079,193.992Zm4.518-.12v3.082h-1.429v-6.964H148.6v2.7h1.44v1.181Z" fill="#00235c"/>
            <path id="패스_167" data-name="패스 167" d="M157.111,199.494v-2.281H152.7v-1.18h2.244v-1.321H151.47v-1.231h5.542a8.765,8.765,0,0,0,.149-2.011h-4.449v-1.211h5.85a13.542,13.542,0,0,1-.229,3.222h1.5v1.231h-3.446v1.321h2.165v3.462Z" fill="#00235c"/>
            <path id="패스_168" data-name="패스 168" d="M166.519,195.092v1.29h3.446v1.171H161.6v-1.171h3.486v-1.29h-2.2v-4.8h1.43v1.231h2.939v-1.231h1.42v4.8Zm.735-2.392h-2.939v1.211h2.939Z" fill="#00235c"/>
            <path id="패스_169" data-name="패스 169" d="M176.622,190.459a5.558,5.558,0,0,1-4.072,5.214l-.655-1.141a4.155,4.155,0,0,0,3.128-2.891H172.3v-1.181ZM174.1,199.2v-3.362h1.42V198H179.8v1.2Zm4.1-2.732v-3.042h-1.42v-1.18h1.42v-2.262h1.42v6.484Z" fill="#00235c"/>
            <path id="패스_170" data-name="패스 170" d="M186.218,196.193a5.607,5.607,0,0,1-1.837-2.1,4.908,4.908,0,0,1-1.857,2.291l-.884-1.041a3.98,3.98,0,0,0,1.976-3.7v-1.321h1.51v1.271a3.968,3.968,0,0,0,1.986,3.582Zm2.91-2.411v4.552H187.7V190h1.43v2.6h1.45v1.181Z" fill="#00235c"/>
            <path id="패스_171" data-name="패스 171" d="M197.851,196.843c-.476.07-1.738.24-2.721.29-.824.039-2.105.09-2.989.08l-.14-1.281c.547.03,1.49.03,2.294.02v-.431a1.711,1.711,0,0,1-1.509-1.741,1.55,1.55,0,0,1,.516-1.171h-1.162V191.5h5.591v1.111h-1.013a1.623,1.623,0,0,1,.506,1.191,1.669,1.669,0,0,1-1.509,1.731v.371c.844-.04,1.708-.12,2.046-.17ZM193.7,191.16V190h2.493v1.161Zm.427,2.622c0,.38.278.711.874.711s.844-.33.844-.711c0-.421-.258-.751-.844-.751S194.127,193.361,194.127,193.781ZM198.318,190h1.42v8.335h-1.42Z" fill="#00235c"/>
            <path id="패스_172" data-name="패스 172" d="M208.609,189.989h1.41v6.434h-1.41v-1.911h-2.056a2.517,2.517,0,0,1-1.817.7,2.38,2.38,0,1,1,0-4.753,2.613,2.613,0,0,1,1.708.61h2.165Zm-3.873,1.7a1.1,1.1,0,0,0-1.112,1.131,1.112,1.112,0,1,0,2.224,0A1.11,1.11,0,0,0,204.736,191.69Zm-.278,7.5v-3.352h1.43V198h4.251v1.191Zm2.741-5.9h1.41v-1h-1.43a2.549,2.549,0,0,1,.069.55A2.143,2.143,0,0,1,207.2,193.291Z" fill="#00235c"/>
            <path id="패스_173" data-name="패스 173" d="M215.742,198.965v-3.422h-3.476v-1.211h5.462a11.464,11.464,0,0,0,.228-2.841h-4.488v-1.211h5.9a18.893,18.893,0,0,1-.3,4.053h1.559v1.211h-3.446v3.422Z" fill="#00235c"/>
            <path id="패스_174" data-name="패스 174" d="M224.624,196.333v-1.091c-.715.04-1.519.07-2.125.06l-.179-1.331c.675.04,2.065.04,2.919.01,1.053-.03,2.344-.1,2.89-.18l.089,1.131c-.467.07-1.35.15-2.155.21v1.191Zm.715-2.5a1.929,1.929,0,1,1,0-3.8c1.42,0,2.264.81,2.264,1.921S226.759,193.831,225.339,193.831Zm-.894-1.881c0,.38.357.7.894.7.565,0,.894-.321.894-.7,0-.41-.328-.721-.894-.721C224.8,191.23,224.445,191.54,224.445,191.95Zm.3,7.324v-2.551h1.4v1.341h4.3v1.21Zm4.131-2.852h-1.728v-1.131h1.728v-5.3h1.42v7.195h-1.42Z" fill="#00235c"/>
          </g>
          <g id="그룹_46" data-name="그룹 46">
            <path id="패스_175" data-name="패스 175" d="M144.373,179.917l3.2-4.2h3.241l-4,4.818,4.38,5.358h-3.4l-3.415-4.413V185.9h-2.625V175.721h2.625Z" fill="#00235c"/>
            <path id="패스_176" data-name="패스 176" d="M161.678,175.721V185.9h-2.625V175.721Z" fill="#00235c"/>
            <path id="패스_177" data-name="패스 177" d="M173.116,179.648h3.791v-3.927h2.625V185.9h-2.625v-4.2h-3.791v4.2h-2.625V175.721h2.625Z" fill="#00235c"/>
            <path id="패스_178" data-name="패스 178" d="M194.533,184.128h-3.75l-.6,1.768h-2.8l3.845-10.175h2.866l3.844,10.175h-2.8Zm-.7-2.011-1.178-3.387-1.179,3.387Z" fill="#00235c"/>
            <path id="패스_179" data-name="패스 179" d="M211.33,178.325a3.247,3.247,0,0,0-.857-.52,2.27,2.27,0,0,0-.83-.169,1.339,1.339,0,0,0-.83.243.76.76,0,0,0-.322.635.633.633,0,0,0,.161.445,1.4,1.4,0,0,0,.422.3,3.585,3.585,0,0,0,.589.223q.328.1.65.2a4.046,4.046,0,0,1,1.882,1.154,2.86,2.86,0,0,1,.6,1.883,3.7,3.7,0,0,1-.261,1.417,2.953,2.953,0,0,1-.764,1.086,3.517,3.517,0,0,1-1.232.7,5.111,5.111,0,0,1-1.654.249,6.049,6.049,0,0,1-3.549-1.147l1.125-2.132a4.575,4.575,0,0,0,1.165.783,2.78,2.78,0,0,0,1.138.256,1.349,1.349,0,0,0,.958-.3.9.9,0,0,0,.315-.675.92.92,0,0,0-.081-.4.856.856,0,0,0-.268-.31,2.147,2.147,0,0,0-.489-.264q-.3-.121-.73-.27-.509-.162-1-.357a3.135,3.135,0,0,1-.87-.52,2.4,2.4,0,0,1-.616-.816,2.9,2.9,0,0,1-.235-1.248,3.632,3.632,0,0,1,.248-1.37,3.059,3.059,0,0,1,.7-1.053,3.105,3.105,0,0,1,1.1-.681,4.123,4.123,0,0,1,1.454-.243,6.315,6.315,0,0,1,1.567.209,6.932,6.932,0,0,1,1.567.613Z" fill="#00235c"/>
            <path id="패스_180" data-name="패스 180" d="M227.134,184.128h-3.75l-.6,1.768h-2.8l3.844-10.175h2.866l3.844,10.175h-2.8Zm-.7-2.011-1.179-3.387-1.179,3.387Z" fill="#00235c"/>
          </g>
        </g>
        <g id="그룹_48" data-name="그룹 48">
          <path id="패스_181" data-name="패스 181" d="M116.419,206.971h-.1c-4.122-.031-6.625-2.564-8.233-5.963a12.039,12.039,0,0,1-7.489-2.765c-5.961-5.315-6.13-14.776-3.229-21.386a16.659,16.659,0,0,1,10.707-9.186,15.58,15.58,0,0,1,13.133,1.769c3.909,2.636,4.981,6.021,6.018,9.294l.173.542a18.069,18.069,0,0,0,3.565,5.589,11.04,11.04,0,0,1,1.152,1.506,3.814,3.814,0,0,1,.324,3.392,3.71,3.71,0,0,1-2.777,2.014c-1.558.365-2.052,2.274-2.535,4.732l-.082.417C125.747,203.408,121.975,206.971,116.419,206.971Zm-6.077-6.12c1.308,2.379,3.182,3.99,5.995,4.011h.084c4.578,0,7.462-2.81,8.575-8.352l.081-.411c.471-2.394,1.116-5.673,4.114-6.376a1.91,1.91,0,0,0,1.34-.821,1.818,1.818,0,0,0-.248-1.517,12.3,12.3,0,0,0-.914-1.158,19.76,19.76,0,0,1-3.96-6.306l-.174-.547c-1.012-3.2-1.887-5.957-5.188-8.183a13.506,13.506,0,0,0-11.386-1.5,14.568,14.568,0,0,0-9.376,8.014c-3.426,7.807-1.247,15.433,2.675,18.932a9.847,9.847,0,0,0,5.253,2.2,41.158,41.158,0,0,1-1.5-6.04h0a.666.666,0,0,0-.259-.432,4.155,4.155,0,0,0-1.163-.467,4.042,4.042,0,0,1-2.538-1.583c-1.261-2.105.364-4.19,1.439-5.569.129-.165.254-.326.37-.48a8.789,8.789,0,0,0,1.5-3.328,13.738,13.738,0,0,1,1.185-3.121,7.225,7.225,0,0,1,7.561-4.062c3.908.33,6.681,4.2,7.6,7.662a16.676,16.676,0,0,1-1.726,13.057,13.3,13.3,0,0,1-9.167,6.344Zm-2.573-8.43a36.917,36.917,0,0,0,1.656,6.424q.367-.038.735-.1a11.214,11.214,0,0,0,7.726-5.349,14.6,14.6,0,0,0,1.5-11.427c-.617-2.312-2.659-5.847-5.757-6.109a5.193,5.193,0,0,0-5.552,2.977,11.641,11.641,0,0,0-1,2.675,10.791,10.791,0,0,1-1.843,4.029c-.123.164-.257.335-.394.512-1.024,1.313-1.769,2.381-1.293,3.176.179.3.774.479,1.349.653a5.707,5.707,0,0,1,1.806.791,2.791,2.791,0,0,1,1.073,1.748Z" fill="#ee635c"/>
        </g>
      </g>
    </g>
  </g>
</svg>
