<svg xmlns="http://www.w3.org/2000/svg" width="220" height="46" viewBox="0 0 220 46">
  <g id="그룹_182" data-name="그룹 182" transform="translate(-1075 -2568)">
    <rect id="사각형_41" data-name="사각형 41" width="220" height="46" transform="translate(1075 2568)" fill="none"/>
    <g id="Vector_Smart_Object" data-name="Vector Smart Object" transform="translate(1037.655 2556.938)">
      <g id="그룹_60" data-name="그룹 60">
        <path id="패스_197" data-name="패스 197" d="M119.221,34.562a18.438,18.438,0,1,1-18.437-18.5,18.47,18.47,0,0,1,18.437,18.5" fill="#fff"/>
        <path id="패스_198" data-name="패스 198" d="M109.431,33.273a6.074,6.074,0,0,0-8.655,1.82,6.072,6.072,0,0,1-11-1.677h0c-.008-.025-.012-.046-.018-.066s-.011-.05-.019-.077a7.836,7.836,0,0,1-.314-2.426c0-5.47,5.6-11.564,13.654-11.564a15.388,15.388,0,0,1,14.2,9.808c-.024-.065-.045-.124-.064-.186a17.372,17.372,0,0,0-33.82,5.657c0,8.608,6.187,15.975,14.772,15.975a13.948,13.948,0,0,0,13.551-9.158,6.731,6.731,0,0,0-2.287-8.1" fill="#002b51"/>
        <path id="패스_199" data-name="패스 199" d="M117.384,29.43a15.333,15.333,0,0,0-14.3-10.148c-8.056,0-13.654,6.094-13.654,11.564a7.854,7.854,0,0,0,.313,2.426,5.13,5.13,0,0,1-.158-1.244c0-5.7,5.685-9.646,11.53-9.646a14.351,14.351,0,0,1,14.329,14.375,15.858,15.858,0,0,1-8.753,14.2v0a17.5,17.5,0,0,0,10.7-21.531" fill="#da0021"/>
      </g>
      <g id="그룹_61" data-name="그룹 61">
        <path id="패스_200" data-name="패스 200" d="M131.114,27.175V25.786h2.179v1.388h3.032v1.711h-8.584V27.175Zm4.851,5.609a3.061,3.061,0,0,1-.3,1.35,3.676,3.676,0,0,1-.815,1.1,3.882,3.882,0,0,1-1.184.752,3.959,3.959,0,0,1-2.9,0,3.878,3.878,0,0,1-1.184-.752,3.665,3.665,0,0,1-.815-1.1,3.06,3.06,0,0,1-.3-1.35,3.122,3.122,0,0,1,.3-1.36,3.617,3.617,0,0,1,.815-1.112,3.888,3.888,0,0,1,1.184-.751,3.951,3.951,0,0,1,2.9,0,3.892,3.892,0,0,1,1.184.751,3.628,3.628,0,0,1,.815,1.112A3.123,3.123,0,0,1,135.965,32.784Zm-1.914-.019a1.847,1.847,0,0,0-1.838-1.826,1.735,1.735,0,0,0-1.288.542,1.772,1.772,0,0,0-.531,1.284,1.816,1.816,0,0,0,1.819,1.806,1.782,1.782,0,0,0,1.3-.533A1.727,1.727,0,0,0,134.051,32.764Zm7.239,6.712a3.291,3.291,0,0,1-.322,1.435,4.092,4.092,0,0,1-.853,1.188,4.284,4.284,0,0,1-1.269.817,3.9,3.9,0,0,1-1.535.305,3.966,3.966,0,0,1-1.544-.305,4.247,4.247,0,0,1-1.279-.817,4.08,4.08,0,0,1-.853-1.188,3.283,3.283,0,0,1-.322-1.435,3.348,3.348,0,0,1,.322-1.445,4.042,4.042,0,0,1,.853-1.2,4.247,4.247,0,0,1,1.279-.817,3.966,3.966,0,0,1,1.544-.3,3.9,3.9,0,0,1,1.535.3,4.284,4.284,0,0,1,1.269.817,4.053,4.053,0,0,1,.853,1.2A3.357,3.357,0,0,1,141.29,39.476Zm-2.009-.02a2.01,2.01,0,0,0-1.99-1.977,1.878,1.878,0,0,0-1.393.589,1.916,1.916,0,0,0-.578,1.388,1.976,1.976,0,0,0,1.971,1.958,1.927,1.927,0,0,0,1.4-.579A1.871,1.871,0,0,0,139.281,39.456Zm-.038-4.259h-1.9v-9.05h1.9v3.593h1.686V26.128H142.9v9.3h-1.971V31.6h-1.686Z" fill="#464545"/>
        <path id="패스_201" data-name="패스 201" d="M145.288,28.372V26.6h9.474v1.768h-4.036l4.207,5.152L153.492,34.7l-3.373-4.221-3.354,4.505-1.5-1.217,4.187-5.4Zm13.112,10.8a3.668,3.668,0,0,1-.341,1.569,4.314,4.314,0,0,1-.91,1.284,4.466,4.466,0,0,1-1.374.875,4.323,4.323,0,0,1-1.658.324,4.5,4.5,0,0,1-3.05-1.2,4.314,4.314,0,0,1-.91-1.284,3.669,3.669,0,0,1-.341-1.569,3.731,3.731,0,0,1,.341-1.578,4.261,4.261,0,0,1,.91-1.292,4.427,4.427,0,0,1,1.383-.875,4.382,4.382,0,0,1,1.667-.324,4.311,4.311,0,0,1,1.658.324,4.454,4.454,0,0,1,1.374.875,4.26,4.26,0,0,1,.91,1.292A3.731,3.731,0,0,1,158.4,39.171Zm-2.008-.018a2.183,2.183,0,0,0-.682-1.607,2.214,2.214,0,0,0-1.61-.675,2.272,2.272,0,0,0,0,4.544,2.23,2.23,0,0,0,1.61-.665A2.153,2.153,0,0,0,156.391,39.153Zm1.364-4.24V31.319h-3.069V29.551h3.069V26.128H159.8v8.785Z" fill="#464545"/>
        <path id="패스_202" data-name="패스 202" d="M171.588,30.767a4.2,4.2,0,0,1-.37,1.75,4.7,4.7,0,0,1-1.014,1.445,5.036,5.036,0,0,1-1.488.97,4.715,4.715,0,0,1-3.619,0,5.025,5.025,0,0,1-1.487-.97,4.7,4.7,0,0,1-1.014-1.445,4.324,4.324,0,0,1,0-3.5,4.7,4.7,0,0,1,1.014-1.445,5.025,5.025,0,0,1,1.487-.97,4.708,4.708,0,0,1,3.619,0,5.036,5.036,0,0,1,1.488.97,4.7,4.7,0,0,1,1.014,1.445A4.2,4.2,0,0,1,171.588,30.767Zm-6.272,6.066V40.54h11.1v1.826h-13.15V36.833Zm4.3-6.046a2.579,2.579,0,0,0-.218-1.047,3.073,3.073,0,0,0-.578-.874,3.108,3.108,0,0,0-.862-.581,2.484,2.484,0,0,0-1.033-.218,2.544,2.544,0,0,0-1.041.218,2.639,2.639,0,0,0-1.45,1.455,2.569,2.569,0,0,0-.218,1.047,2.5,2.5,0,0,0,.218,1.035,3.081,3.081,0,0,0,.577.865,3.038,3.038,0,0,0,.872.58,2.534,2.534,0,0,0,1.041.218,2.474,2.474,0,0,0,1.033-.218,2.685,2.685,0,0,0,1.441-1.445A2.505,2.505,0,0,0,169.617,30.788ZM176,36.738h-2.047V26.128H176v3.612h2.368v2.035H176Z" fill="#464545"/>
        <path id="패스_203" data-name="패스 203" d="M179.849,28.372V26.6h9.474v1.768h-4.017l4.187,6.2-1.554,1.045-3.259-4.981-3.259,5.114-1.592-1.065L184,28.372Zm1.137,13.994V36.833h2.046V40.54h11.483v1.826Zm11.331-5.628V31.851h-3.07V30.026h3.07v-3.9h2.047V36.738Z" fill="#464545"/>
        <path id="패스_204" data-name="패스 204" d="M197.187,36.6h15.159v1.824h-6.556v4.259h-2.065V38.429h-6.537Zm3.24-8.1H209.1V26.414h2.028v7.967H198.4V26.414h2.027Zm8.678,1.787h-8.678v2.281H209.1Z" fill="#464545"/>
      </g>
    </g>
  </g>
</svg>
