<svg xmlns="http://www.w3.org/2000/svg" width="48" height="48" viewBox="0 0 48 48">
  <g id="그룹_328" data-name="그룹 328" transform="translate(-1802 -2248)">
    <rect id="사각형_101" data-name="사각형 101" width="48" height="48" transform="translate(1802 2248)" fill="none"/>
    <g id="그룹_315" data-name="그룹 315" transform="translate(689.719 1357.777)">
      <g id="그룹_314" data-name="그룹 314" transform="translate(1125.796 898.223)">
        <path id="패스_538" data-name="패스 538" d="M1146.87,930.224h-13.061a1.173,1.173,0,0,1-1.17-1.178v-26.17a1.176,1.176,0,0,1,.871-1.138l13.061-3.475a1.165,1.165,0,0,1,1.013.206,1.181,1.181,0,0,1,.456.933v29.645A1.174,1.174,0,0,1,1146.87,930.224Zm-11.892-2.355H1145.7V900.93l-10.722,2.853Z" transform="translate(-1132.639 -898.224)" fill="#284a72"/>
        <path id="패스_539" data-name="패스 539" d="M1173.952,930.223h-6.57a1.214,1.214,0,0,1-1.248-1.177V899.4a1.166,1.166,0,0,1,.617-1.016,1.313,1.313,0,0,1,1.242-.011l6.57,3.475a1.168,1.168,0,0,1,.638,1.027v26.17A1.214,1.214,0,0,1,1173.952,930.223Zm-5.322-2.355h4.074v-24.3l-4.074-2.154Z" transform="translate(-1153.228 -898.223)" fill="#284a72"/>
        <path id="패스_540" data-name="패스 540" d="M1145.849,919.867h-.511a1.248,1.248,0,0,1,0-2.5h.511a1.248,1.248,0,1,1,0,2.5Z" transform="translate(-1139.571 -909.892)" fill="#71bf45"/>
        <path id="패스_541" data-name="패스 541" d="M1145.849,930.571h-.511a1.248,1.248,0,0,1,0-2.5h.511a1.248,1.248,0,1,1,0,2.5Z" transform="translate(-1139.571 -916.415)" fill="#71bf45"/>
        <path id="패스_542" data-name="패스 542" d="M1145.849,941.275h-.511a1.248,1.248,0,0,1,0-2.5h.511a1.248,1.248,0,1,1,0,2.5Z" transform="translate(-1139.571 -922.937)" fill="#71bf45"/>
        <path id="패스_543" data-name="패스 543" d="M1145.849,951.979h-.511a1.248,1.248,0,0,1,0-2.5h.511a1.248,1.248,0,1,1,0,2.5Z" transform="translate(-1139.571 -929.46)" fill="#71bf45"/>
        <path id="패스_544" data-name="패스 544" d="M1145.849,962.682h-.511a1.248,1.248,0,0,1,0-2.5h.511a1.248,1.248,0,1,1,0,2.5Z" transform="translate(-1139.571 -935.983)" fill="#71bf45"/>
      </g>
      <path id="패스_545" data-name="패스 545" d="M1151.089,976.253h-28.616a1.25,1.25,0,0,1,0-2.5h28.616a1.25,1.25,0,0,1,0,2.5Z" transform="translate(0 -46.029)" fill="#284a72"/>
    </g>
  </g>
</svg>
