<svg xmlns="http://www.w3.org/2000/svg" xmlns:xlink="http://www.w3.org/1999/xlink" width="153.871" height="27.452" viewBox="0 0 153.871 27.452">
  <defs>
    <linearGradient id="linear-gradient" y1="0.5" x2="1" y2="0.5" gradientUnits="objectBoundingBox">
      <stop offset="0.12" stop-color="#fff"/>
      <stop offset="0.183" stop-color="#fafbfd"/>
      <stop offset="0.25" stop-color="#eef2f9"/>
      <stop offset="0.318" stop-color="#d9e3f2"/>
      <stop offset="0.386" stop-color="#bccee9"/>
      <stop offset="0.455" stop-color="#96b3dc"/>
      <stop offset="0.483" stop-color="#85a7d7"/>
      <stop offset="0.516" stop-color="#7fa5d6"/>
      <stop offset="0.556" stop-color="#70a0d4"/>
      <stop offset="0.6" stop-color="#5798d0"/>
      <stop offset="0.646" stop-color="#338dcb"/>
      <stop offset="0.695" stop-color="#077fc5"/>
      <stop offset="0.702" stop-color="#007dc4"/>
      <stop offset="0.707" stop-color="#007bc2"/>
      <stop offset="0.832" stop-color="#0357a2"/>
      <stop offset="0.934" stop-color="#06428f"/>
      <stop offset="1" stop-color="#073a88"/>
    </linearGradient>
    <linearGradient id="linear-gradient-16" x1="0.66" y1="0.5" x2="1.66" y2="0.5" xlink:href="#linear-gradient"/>
  </defs>
  <g id="Vector_Smart_Object4_copy" data-name="Vector Smart Object4 copy" transform="translate(-63.805 -250.081)">
    <g id="그룹_44" data-name="그룹 44">
      <g id="그룹_43" data-name="그룹 43">
        <path id="패스_2353" data-name="패스 2353" d="M119.787,255.111c.044-.2.122-.465.228-.787.065-.193.108-.333.129-.424a1.485,1.485,0,0,0,.065-.382l-.082-.461c-.033-.144-.054-.258-.065-.349-.009-.14-.015-.261-.015-.367a.685.685,0,0,1,.276-.575,1.479,1.479,0,0,1,1.051-.349,2.573,2.573,0,0,0,1.2-.25,2.477,2.477,0,0,0,.678-.5,3.446,3.446,0,0,1,.4-.329,1.109,1.109,0,0,1,.552-.133,1.258,1.258,0,0,1,.566.133,5.225,5.225,0,0,1,.5.329,5.132,5.132,0,0,0,.777.515,2.966,2.966,0,0,0,1.262.254,1.286,1.286,0,0,1,.921.307.675.675,0,0,1,.259.5,2.566,2.566,0,0,1-.033.367,2.476,2.476,0,0,0-.063.345,2.316,2.316,0,0,0-.082.348c-.012.14-.015.269-.015.382a1.155,1.155,0,0,0,.047.31,2.639,2.639,0,0,0,.145.326,6.27,6.27,0,0,1,.261.674,3.518,3.518,0,0,1,.143,1.022,3.882,3.882,0,0,1-1.472,2.986,4.729,4.729,0,0,1-6.3.132,3.712,3.712,0,0,1-1.455-2.963A4.846,4.846,0,0,1,119.787,255.111Zm2.692-1.491a3.792,3.792,0,0,0-.583,2.153,3.317,3.317,0,0,0,.583,2.017,2.1,2.1,0,0,0,1.794.885,2.131,2.131,0,0,0,1.792-.885,3.247,3.247,0,0,0,.615-2.017,3.707,3.707,0,0,0-.6-2.153,2.093,2.093,0,0,0-1.809-.939A2.052,2.052,0,0,0,122.479,253.62Zm0,8.061a1.04,1.04,0,0,1,.874-.424.929.929,0,0,1,.805.386,1.838,1.838,0,0,1,.293,1.094v1.881a1.225,1.225,0,0,0,.451,1.041,1.8,1.8,0,0,0,1.133.307h5.937a1.23,1.23,0,0,1,.647.152.615.615,0,0,1,.293.571.726.726,0,0,1-.244.6,1.021,1.021,0,0,1-.647.17H123.7a1.445,1.445,0,0,1-1.116-.42,1.705,1.705,0,0,1-.4-1.223v-3.039A1.828,1.828,0,0,1,122.483,261.682Zm8-9.549a1.491,1.491,0,0,1,.261-.943.959.959,0,0,1,.813-.363,1.06,1.06,0,0,1,.826.363,1.171,1.171,0,0,1,.324.825,1.453,1.453,0,0,0,.227.772,1.255,1.255,0,0,0,.649.552l.1.023a3.022,3.022,0,0,1,.7.307.7.7,0,0,1,.339.594.751.751,0,0,1-.339.617,2.777,2.777,0,0,1-.632.288l-.1.038a1.227,1.227,0,0,0-.667.5,1.407,1.407,0,0,0-.274.829v4.647a1.473,1.473,0,0,1-.274.943,1,1,0,0,1-.846.382.98.98,0,0,1-.826-.382,1.54,1.54,0,0,1-.278-.943Z" fill="#fff"/>
        <path id="패스_2354" data-name="패스 2354" d="M137.594,262.613a.687.687,0,0,1-.209-.515.777.777,0,0,1,.194-.553.724.724,0,0,1,.535-.193h2.732a1.408,1.408,0,0,0,1-.345.968.968,0,0,0,.343-.749v-.48a.789.789,0,0,0-.358-.632,1.919,1.919,0,0,0-1.162-.307h-3.448a.959.959,0,0,1-.695-.231.629.629,0,0,1-.21-.5.647.647,0,0,1,.257-.553,1.1,1.1,0,0,1,.71-.212h7.864a1.559,1.559,0,0,0,1.15-.424,1.277,1.277,0,0,0,.418-.98v-1.889a1.722,1.722,0,0,0-.356-1.1,1.313,1.313,0,0,0-1.083-.477l-6.99.038a1.06,1.06,0,0,1-.695-.193.705.705,0,0,1-.244-.572.643.643,0,0,1,.244-.515,1.087,1.087,0,0,1,.695-.212h8.818a1.939,1.939,0,0,1,1.406.48,1.832,1.832,0,0,1,.487,1.362V256a1.7,1.7,0,0,0,.178.844,1.617,1.617,0,0,0,.417.42l.05.038a1.8,1.8,0,0,1,.421.325.715.715,0,0,1,.194.443.662.662,0,0,1-.259.537.991.991,0,0,1-.68.231h-3.441a1.837,1.837,0,0,0-1.144.307.809.809,0,0,0-.326.632v.518a.92.92,0,0,0,.341.73,1.528,1.528,0,0,0,1.034.326h1.564a1.846,1.846,0,0,1,1.211.344,1.451,1.451,0,0,1,.438,1.147v3.327a1.941,1.941,0,0,1-.259,1.132,1.052,1.052,0,0,1-.874.325,1,1,0,0,1-.84-.31,1.722,1.722,0,0,1-.229-1.014v-2.1a1.394,1.394,0,0,0-.309-.958,1.347,1.347,0,0,0-1.067-.405h-7.231A.769.769,0,0,1,137.594,262.613Z" fill="#fff"/>
        <path id="패스_2355" data-name="패스 2355" d="M160.685,262.337a4.1,4.1,0,0,1-7.112,0,8.658,8.658,0,0,1-1.181-4.72,8.861,8.861,0,0,1,1.181-4.761,4.1,4.1,0,0,1,7.112,0,8.679,8.679,0,0,1,1.213,4.761A8.534,8.534,0,0,1,160.685,262.337Zm-1.626-8.421q-.694-1.652-1.925-1.65t-1.908,1.65a10.216,10.216,0,0,0-.583,3.721,10.005,10.005,0,0,0,.583,3.678c.453,1.112,1.09,1.665,1.908,1.665s1.462-.553,1.925-1.665a9.62,9.62,0,0,0,.615-3.678A9.728,9.728,0,0,0,159.059,253.915Zm7.1,13.243a1.01,1.01,0,0,1-.957.481.857.857,0,0,1-.811-.481,2.122,2.122,0,0,1-.212-1.029V252.371a1.985,1.985,0,0,1,.229-1.018.926.926,0,0,1,.861-.48.952.952,0,0,1,.826.424,1.984,1.984,0,0,1,.308,1.189v13.443A2.421,2.421,0,0,1,166.156,267.158Z" fill="#fff"/>
        <path id="패스_2356" data-name="패스 2356" d="M169.885,251.508a1.6,1.6,0,0,1,1.15-.4H176.5a1.42,1.42,0,0,1,1.037.4,1.589,1.589,0,0,1,.423,1.17V258.4a1.526,1.526,0,0,1-.44,1.151,1.574,1.574,0,0,1-1.166.42h-5.373a1.486,1.486,0,0,1-1.1-.42,1.375,1.375,0,0,1-.425-1.037v-5.851A1.563,1.563,0,0,1,169.885,251.508ZM172.113,258a1.315,1.315,0,0,0,1.085.484h1a1.3,1.3,0,0,0,1.1-.484,1.9,1.9,0,0,0,.358-1.23V254.29a1.861,1.861,0,0,0-.358-1.211,1.3,1.3,0,0,0-1.1-.485h-.971a1.357,1.357,0,0,0-1.1.485,1.81,1.81,0,0,0-.389,1.211v2.5A1.823,1.823,0,0,0,172.113,258Zm.323,4a1.043,1.043,0,0,1,.872-.42.952.952,0,0,1,.824.405,1.844,1.844,0,0,1,.275,1.093v1.571a1.223,1.223,0,0,0,.453,1.041,1.831,1.831,0,0,0,1.148.306h6.505a1.215,1.215,0,0,1,.632.152.66.66,0,0,1,.306.575.69.69,0,0,1-.324.594,1.52,1.52,0,0,1-.794.171H173.6a1.419,1.419,0,0,1-1.1-.42,1.792,1.792,0,0,1-.372-1.222v-2.729A1.86,1.86,0,0,1,172.436,262Zm10.221-10.719a2.026,2.026,0,0,1,.309,1.208v8.2a2.41,2.41,0,0,1-.244,1.23.992.992,0,0,1-.956.5.86.86,0,0,1-.811-.477,2.18,2.18,0,0,1-.213-1.041v-8.546a2.011,2.011,0,0,1,.229-1.018.956.956,0,0,1,.876-.48A.935.935,0,0,1,182.657,251.277Z" fill="#fff"/>
        <path id="패스_2357" data-name="패스 2357" d="M193.665,263.668a1.794,1.794,0,0,1-.776.133,1.3,1.3,0,0,1-.81-.212.957.957,0,0,1-.371-.73l-.258-2.3q-.292-2.765-.423-3.766c-.129-1.037-.24-1.824-.339-2.362a4.135,4.135,0,0,0-.388-1.211.573.573,0,0,0-.5-.344.641.641,0,0,0-.564.344,3.758,3.758,0,0,0-.422,1.23c-.118.538-.243,1.336-.373,2.4q-.143,1.022-.467,3.8l-.241,2.153a1.052,1.052,0,0,1-.438.746,1.324,1.324,0,0,1-.809.25,1.608,1.608,0,0,1-.745-.114.572.572,0,0,1-.226-.538c0-.155.054-.6.163-1.347.063-.461.189-1.291.372-2.494.259-1.688.442-2.91.55-3.648a22.144,22.144,0,0,0,.277-2.346.423.423,0,0,0-.147-.322,1.7,1.7,0,0,0-.307-.212,1.362,1.362,0,0,1-.342-.253.542.542,0,0,1-.145-.382.951.951,0,0,1,.162-.617.664.664,0,0,1,.5-.17h6.358a.529.529,0,0,1,.453.189,1.1,1.1,0,0,1,.145.617.489.489,0,0,1-.161.363,2.347,2.347,0,0,1-.337.253,1.427,1.427,0,0,0-.308.212.437.437,0,0,0-.13.322q0,.368.245,2.115.156,1.016.548,3.474.306,2,.419,2.748c.131.848.2,1.344.2,1.5A.53.53,0,0,1,193.665,263.668Zm6.17,3.543a.876.876,0,0,1-.807.423.9.9,0,0,1-.821-.4,1.8,1.8,0,0,1-.243-1.037v-9.677a1.022,1.022,0,0,0-.244-.712.683.683,0,0,0-.521-.254.7.7,0,0,0-.537.254,1.025,1.025,0,0,0-.225.689v9.625a2.116,2.116,0,0,1-.228,1.094.827.827,0,0,1-.777.423.9.9,0,0,1-.841-.4,1.96,1.96,0,0,1-.21-1.037V252.322a2.009,2.009,0,0,1,.225-1.014,1.035,1.035,0,0,1,1.6-.117,1.442,1.442,0,0,1,.228.863v.617a.9.9,0,0,0,.275.712.657.657,0,0,0,.472.212.7.7,0,0,0,.472-.193.914.914,0,0,0,.307-.75v-.5a1.558,1.558,0,0,1,.243-.942.956.956,0,0,1,.821-.345.882.882,0,0,1,.792.4,1.973,1.973,0,0,1,.255,1.1v13.754A2.013,2.013,0,0,1,199.835,267.211Z" fill="#fff"/>
        <path id="패스_2358" data-name="패스 2358" d="M213.723,251.228a.88.88,0,0,1,.762-.382,1.153,1.153,0,0,1,.831.325,1.17,1.17,0,0,1,.353.882,1.461,1.461,0,0,0,.243.81,1.3,1.3,0,0,0,.615.5l.162.057a2.884,2.884,0,0,1,.68.307.629.629,0,0,1,.306.56.692.692,0,0,1-.324.579,2.272,2.272,0,0,1-.628.3l-.114.057a1.531,1.531,0,0,0-.665.461,1.576,1.576,0,0,0-.276.943v4.95a1.493,1.493,0,0,1-.339,1.037.98.98,0,0,1-.78.363,1,1,0,0,1-.808-.344,1.5,1.5,0,0,1-.3-1v-.519a.941.941,0,0,0-.578-.848,3.18,3.18,0,0,0-1.36-.265h-6.8a1.989,1.989,0,0,1-1.344-.386,1.605,1.605,0,0,1-.452-1.264v-5.385a2.233,2.233,0,0,1,.339-1.283,1.268,1.268,0,0,1,1.116-.576H210.9a1.027,1.027,0,0,1,.584.189.622.622,0,0,1,.275.5.79.79,0,0,1-.21.553.686.686,0,0,1-.553.246h-4.191a1.691,1.691,0,0,0-1.228.428,1.428,1.428,0,0,0-.389,1.033v3.069a1.25,1.25,0,0,0,.438.98,1.754,1.754,0,0,0,1.215.405h4.836a2.11,2.11,0,0,0,1.232-.33,1.249,1.249,0,0,0,.531-1.074v-4.822A1.78,1.78,0,0,1,213.723,251.228ZM205.446,261.9a1.046,1.046,0,0,1,.874-.424.929.929,0,0,1,.805.424,1.707,1.707,0,0,1,.291,1.018v1.726a1.216,1.216,0,0,0,.454,1.041,1.8,1.8,0,0,0,1.131.306h5.941a1.227,1.227,0,0,1,.643.152.607.607,0,0,1,.293.575.707.707,0,0,1-.244.594,1.019,1.019,0,0,1-.647.171h-8.331a1.433,1.433,0,0,1-1.114-.42,1.694,1.694,0,0,1-.4-1.222V262.9A1.539,1.539,0,0,1,205.446,261.9Z" fill="#fff"/>
      </g>
    </g>
    <g id="그룹_45" data-name="그룹 45">
      <path id="패스_2359" data-name="패스 2359" d="M102.8,277.33V273.4h.525v1.955L105.3,273.4l.669-.009-1.643,1.583,1.716,2.358h-.659l-1.412-1.993-.643.612v1.381Z" fill="#fff"/>
      <path id="패스_2360" data-name="패스 2360" d="M106.176,275.36a2.2,2.2,0,0,1,.469-1.437,1.861,1.861,0,0,1,2.8,0,2.439,2.439,0,0,1,0,2.878,1.872,1.872,0,0,1-2.8,0A2.213,2.213,0,0,1,106.176,275.36Zm.524,0a1.85,1.85,0,0,0,.315,1.112,1.288,1.288,0,0,0,2.059,0,2.114,2.114,0,0,0,0-2.226,1.292,1.292,0,0,0-2.059,0A1.869,1.869,0,0,0,106.7,275.36Z" fill="#fff"/>
      <path id="패스_2361" data-name="패스 2361" d="M110.493,277.332V273.4h1.84a1.28,1.28,0,0,1,.87.275.943.943,0,0,1,.318.752,1.163,1.163,0,0,1-.158.629.886.886,0,0,1-.52.367.642.642,0,0,1,.448.3,1.212,1.212,0,0,1,.133.494c.018.21.033.415.049.609a1.029,1.029,0,0,0,.181.5h-.578a.832.832,0,0,1-.1-.469,3.894,3.894,0,0,0-.042-.5.923.923,0,0,0-.221-.577.649.649,0,0,0-.427-.132h-1.267v1.68Zm.526-2.123H112.1a1.2,1.2,0,0,0,.632-.132.612.612,0,0,0,.268-.566.664.664,0,0,0-.165-.475.684.684,0,0,0-.528-.195h-1.286Z" fill="#fff"/>
      <path id="패스_2362" data-name="패스 2362" d="M114.187,277.332V273.4h2.7v.442H114.71v1.238h2.026v.443H114.71v1.367h2.19v.442Z" fill="#fff"/>
      <path id="패스_2363" data-name="패스 2363" d="M117.007,277.332l1.528-3.932h.573l1.528,3.932-.582,0-.421-1.192h-1.653l-.439,1.187Zm1.145-1.631h1.308l-.643-1.826Z" fill="#fff"/>
      <path id="패스_2364" data-name="패스 2364" d="M122.447,277.332V273.4h.525v3.932Z" fill="#fff"/>
      <path id="패스_2365" data-name="패스 2365" d="M123.8,277.332V273.4h.711l1.231,3.3,1.234-3.3h.711v3.932h-.494v-3.269l-1.232,3.266-.44,0-1.217-3.272-.011,3.272Z" fill="#fff"/>
      <path id="패스_2366" data-name="패스 2366" d="M128.51,277.332V273.4h.711l1.231,3.3,1.236-3.3h.71v3.932H131.9v-3.269l-1.232,3.266-.437,0-1.218-3.272-.01,3.272Z" fill="#fff"/>
      <path id="패스_2367" data-name="패스 2367" d="M133.229,277.332V273.4h.524v3.932Z" fill="#fff"/>
      <path id="패스_2368" data-name="패스 2368" d="M137.636,277.332l-.137-.49a1.3,1.3,0,0,1-.546.445,1.793,1.793,0,0,1-.709.143,1.723,1.723,0,0,1-1.368-.607,2.046,2.046,0,0,1-.493-1.384,2.354,2.354,0,0,1,.464-1.5,1.68,1.68,0,0,1,1.394-.645,1.855,1.855,0,0,1,1.106.307,1.484,1.484,0,0,1,.573,1.014H137.4a.982.982,0,0,0-.389-.658,1.306,1.306,0,0,0-.77-.218,1.168,1.168,0,0,0-1.021.52,1.988,1.988,0,0,0-.318,1.158,1.71,1.71,0,0,0,.346,1.092,1.307,1.307,0,0,0,1.916.121,1.325,1.325,0,0,0,.331-.925h-1.252v-.446h1.717v2.077Z" fill="#fff"/>
      <path id="패스_2369" data-name="패스 2369" d="M138.668,277.332V273.4h1.839a1.28,1.28,0,0,1,.87.275.942.942,0,0,1,.317.752,1.147,1.147,0,0,1-.159.629.89.89,0,0,1-.519.367.646.646,0,0,1,.448.3,1.159,1.159,0,0,1,.132.494c.018.21.035.415.048.609a1.036,1.036,0,0,0,.184.5h-.578a.834.834,0,0,1-.1-.469,3.312,3.312,0,0,0-.041-.5.922.922,0,0,0-.22-.577.653.653,0,0,0-.429-.132h-1.266v1.68Zm.524-2.123h1.08a1.208,1.208,0,0,0,.632-.132.614.614,0,0,0,.266-.566.66.66,0,0,0-.163-.475.684.684,0,0,0-.529-.195h-1.286Z" fill="#fff"/>
      <path id="패스_2370" data-name="패스 2370" d="M141.895,277.332l1.524-3.932h.575l1.525,3.932-.58,0-.421-1.192h-1.652l-.44,1.187Zm1.143-1.631h1.307l-.643-1.826Z" fill="#fff"/>
      <path id="패스_2371" data-name="패스 2371" d="M146.74,277.332v-3.49h-1.306V273.4h3.137v.442h-1.307v3.49Z" fill="#fff"/>
      <path id="패스_2372" data-name="패스 2372" d="M148.955,277.332V273.4h.525v3.932Z" fill="#fff"/>
      <path id="패스_2373" data-name="패스 2373" d="M150.078,275.36a2.19,2.19,0,0,1,.471-1.437,1.861,1.861,0,0,1,2.8,0,2.43,2.43,0,0,1,0,2.878,1.872,1.872,0,0,1-2.8,0A2.2,2.2,0,0,1,150.078,275.36Zm.525,0a1.868,1.868,0,0,0,.315,1.112,1.289,1.289,0,0,0,2.061,0,2.119,2.119,0,0,0,0-2.226,1.293,1.293,0,0,0-2.061,0A1.886,1.886,0,0,0,150.6,275.36Z" fill="#fff"/>
      <path id="패스_2374" data-name="패스 2374" d="M154.389,277.332V273.4h.554L157,276.582l.011-3.183h.495v3.932l-.576,0-2.035-3.155-.011,3.153Z" fill="#fff"/>
      <path id="패스_2375" data-name="패스 2375" d="M162.506,274.544h-.491a.858.858,0,0,0-.3-.609,1.048,1.048,0,0,0-.67-.2,1.09,1.09,0,0,0-.6.143.58.58,0,0,0-.271.531.513.513,0,0,0,.388.48,7.545,7.545,0,0,0,.865.227,1.92,1.92,0,0,1,1.01.466.969.969,0,0,1,.229.669,1.015,1.015,0,0,1-.493.9,1.85,1.85,0,0,1-1.03.276,1.791,1.791,0,0,1-1.133-.332,1.263,1.263,0,0,1-.479-1.062h.494a.851.851,0,0,0,.342.725,1.292,1.292,0,0,0,.79.227,1.329,1.329,0,0,0,.67-.143.618.618,0,0,0,.316-.575c0-.28-.192-.485-.574-.609-.108-.038-.331-.092-.671-.167a2.084,2.084,0,0,1-1.014-.432.822.822,0,0,1-.236-.612,1.009,1.009,0,0,1,.438-.879,1.639,1.639,0,0,1,.981-.281,1.6,1.6,0,0,1,1.018.3A1.139,1.139,0,0,1,162.506,274.544Z" fill="#fff"/>
      <path id="패스_2376" data-name="패스 2376" d="M163.248,277.332V273.4h2.7v.442h-2.174v1.238H165.8v.443h-2.025v1.367h2.19v.442Z" fill="#fff"/>
      <path id="패스_2377" data-name="패스 2377" d="M166.536,277.332V273.4h1.838a1.288,1.288,0,0,1,.872.275.945.945,0,0,1,.317.752,1.156,1.156,0,0,1-.159.629.882.882,0,0,1-.521.367.647.647,0,0,1,.451.3,1.226,1.226,0,0,1,.13.494c.019.21.034.415.049.609a1.018,1.018,0,0,0,.184.5h-.58a.814.814,0,0,1-.1-.469,3.4,3.4,0,0,0-.042-.5.93.93,0,0,0-.22-.577.653.653,0,0,0-.429-.132H167.06v1.68Zm.524-2.123h1.079a1.217,1.217,0,0,0,.633-.132.615.615,0,0,0,.266-.566.665.665,0,0,0-.164-.475.685.685,0,0,0-.529-.195H167.06Z" fill="#fff"/>
      <path id="패스_2378" data-name="패스 2378" d="M173.157,273.4l-1.386,3.932h-.592L169.8,273.4h.565l1.111,3.4,1.137-3.4Z" fill="#fff"/>
      <path id="패스_2379" data-name="패스 2379" d="M173.534,277.332V273.4h.524v3.932Z" fill="#fff"/>
      <path id="패스_2380" data-name="패스 2380" d="M178.146,274.576h-.52a.976.976,0,0,0-.373-.626,1.186,1.186,0,0,0-.719-.215,1.168,1.168,0,0,0-1.01.485,1.86,1.86,0,0,0-.31,1.114,2,2,0,0,0,.309,1.168,1.172,1.172,0,0,0,1.013.485,1.084,1.084,0,0,0,.816-.318,1.132,1.132,0,0,0,.306-.82h.524a1.8,1.8,0,0,1-.515,1.162,1.617,1.617,0,0,1-1.175.419,1.64,1.64,0,0,1-1.355-.6,2.572,2.572,0,0,1,.022-2.935,1.7,1.7,0,0,1,1.378-.609,1.742,1.742,0,0,1,1.078.337A1.386,1.386,0,0,1,178.146,274.576Z" fill="#fff"/>
      <path id="패스_2381" data-name="패스 2381" d="M178.769,277.332V273.4h2.7v.442H179.3v1.238h2.027v.443H179.3v1.367h2.19v.442Z" fill="#fff"/>
      <path id="패스_2382" data-name="패스 2382" d="M183.525,277.332V273.4h2.567v.442h-2.044v1.238h1.79v.443h-1.79v1.809Z" fill="#fff"/>
      <path id="패스_2383" data-name="패스 2383" d="M186.39,275.36a2.2,2.2,0,0,1,.469-1.437,1.865,1.865,0,0,1,2.8,0,2.438,2.438,0,0,1,0,2.878,1.875,1.875,0,0,1-2.8,0A2.217,2.217,0,0,1,186.39,275.36Zm.524,0a1.851,1.851,0,0,0,.318,1.112,1.286,1.286,0,0,0,2.058,0,2.118,2.118,0,0,0,0-2.226,1.291,1.291,0,0,0-2.058,0A1.869,1.869,0,0,0,186.914,275.36Z" fill="#fff"/>
      <path id="패스_2384" data-name="패스 2384" d="M193.828,273.4v2.514a1.5,1.5,0,0,1-.4,1.13,1.564,1.564,0,0,1-1.137.386,1.681,1.681,0,0,1-1.174-.364,1.469,1.469,0,0,1-.427-1.152V273.4h.524v2.514a1.078,1.078,0,0,0,.277.8,1.09,1.09,0,0,0,.8.275.984.984,0,0,0,.749-.275,1.12,1.12,0,0,0,.261-.8V273.4Z" fill="#fff"/>
      <path id="패스_2385" data-name="패스 2385" d="M194.6,277.332V273.4h.551l2.056,3.183.014-3.183h.494v3.932l-.578,0-2.032-3.155-.011,3.153Z" fill="#fff"/>
      <path id="패스_2386" data-name="패스 2386" d="M198.5,277.332V273.4h1.341a1.907,1.907,0,0,1,1.394.467,1.872,1.872,0,0,1,.481,1.4,2.241,2.241,0,0,1-.449,1.524,1.784,1.784,0,0,1-1.425.537Zm.527-3.49v3.048h.857a1.308,1.308,0,0,0,.783-.224,1.522,1.522,0,0,0,.524-1.321,1.747,1.747,0,0,0-.288-1.1,1.2,1.2,0,0,0-1.008-.4Z" fill="#fff"/>
      <path id="패스_2387" data-name="패스 2387" d="M201.831,277.332l1.526-3.932h.576l1.524,3.932-.584,0-.42-1.192H202.8l-.439,1.187Zm1.14-1.631h1.312l-.644-1.826Z" fill="#fff"/>
      <path id="패스_2388" data-name="패스 2388" d="M206.674,277.332v-3.49h-1.3V273.4H208.5v.442H207.2v3.49Z" fill="#fff"/>
      <path id="패스_2389" data-name="패스 2389" d="M208.89,277.332V273.4h.523v3.932Z" fill="#fff"/>
      <path id="패스_2390" data-name="패스 2390" d="M210.015,275.36a2.186,2.186,0,0,1,.472-1.437,1.861,1.861,0,0,1,2.8,0,2.438,2.438,0,0,1,0,2.878,1.871,1.871,0,0,1-2.8,0A2.2,2.2,0,0,1,210.015,275.36Zm.524,0a1.851,1.851,0,0,0,.316,1.112,1.286,1.286,0,0,0,2.058,0,2.11,2.11,0,0,0,0-2.226,1.291,1.291,0,0,0-2.058,0A1.869,1.869,0,0,0,210.539,275.36Z" fill="#fff"/>
      <path id="패스_2391" data-name="패스 2391" d="M214.325,277.332V273.4h.553l2.056,3.183.01-3.183h.5v3.932l-.576,0-2.037-3.155-.009,3.153Z" fill="#fff"/>
    </g>
    <g id="그룹_48" data-name="그룹 48">
      <g id="그룹_46" data-name="그룹 46">
        <path id="패스_2392" data-name="패스 2392" d="M94.684,250.929l-15.489,3.658v-.547l15.489-3.959Z" fill="url(#linear-gradient)"/>
        <path id="패스_2393" data-name="패스 2393" d="M94.684,252.391l-15.489,3.134v-.545l15.489-3.438Z" fill="url(#linear-gradient)"/>
        <path id="패스_2394" data-name="패스 2394" d="M94.684,253.852l-15.489,2.614v-.547l15.489-2.913Z" fill="url(#linear-gradient)"/>
        <path id="패스_2395" data-name="패스 2395" d="M94.684,255.315l-15.489,2.092v-.547l15.489-2.394Z" fill="url(#linear-gradient)"/>
        <path id="패스_2396" data-name="패스 2396" d="M94.684,256.78l-15.489,1.566V257.8l15.489-1.869Z" fill="url(#linear-gradient)"/>
        <path id="패스_2397" data-name="패스 2397" d="M94.684,258.241l-15.489,1.046v-.547l15.489-1.347Z" fill="url(#linear-gradient)"/>
        <path id="패스_2398" data-name="패스 2398" d="M94.684,259.7l-15.489.524v-.545l15.489-.825Z" fill="url(#linear-gradient)"/>
        <path id="패스_2399" data-name="패스 2399" d="M94.684,261.165l-15.489,0v-.545l15.489-.3Z" fill="url(#linear-gradient)"/>
        <path id="패스_2400" data-name="패스 2400" d="M94.684,262.627l-15.489-.52v-.547l15.489.219Z" fill="url(#linear-gradient)"/>
        <path id="패스_2401" data-name="패스 2401" d="M94.684,264.09l-15.489-1.042V262.5l15.489.743Z" fill="url(#linear-gradient)"/>
        <path id="패스_2402" data-name="패스 2402" d="M94.684,265.553l-15.489-1.566v-.545l15.489,1.263Z" fill="url(#linear-gradient)"/>
        <path id="패스_2403" data-name="패스 2403" d="M94.684,267.016l-15.489-2.088v-.545l15.489,1.785Z" fill="url(#linear-gradient)"/>
        <path id="패스_2404" data-name="패스 2404" d="M94.684,268.477l-15.489-2.61v-.545l15.489,2.309Z" fill="url(#linear-gradient)"/>
        <path id="패스_2405" data-name="패스 2405" d="M94.684,269.942l-15.489-3.134v-.545l15.489,2.831Z" fill="url(#linear-gradient)"/>
        <path id="패스_2406" data-name="패스 2406" d="M94.684,271.4l-15.489-3.656V267.2l15.489,3.353Z" fill="url(#linear-gradient)"/>
      </g>
      <g id="그룹_47" data-name="그룹 47">
        <path id="패스_2407" data-name="패스 2407" d="M63.8,250.929l15.489,3.658v-.547L63.8,250.081Z" fill="url(#linear-gradient-16)"/>
        <path id="패스_2408" data-name="패스 2408" d="M63.8,252.391l15.489,3.134v-.545L63.8,251.544Z" fill="url(#linear-gradient-16)"/>
        <path id="패스_2409" data-name="패스 2409" d="M63.8,253.852l15.489,2.614v-.547L63.8,253.007Z" fill="url(#linear-gradient-16)"/>
        <path id="패스_2410" data-name="패스 2410" d="M63.8,255.315l15.489,2.092v-.547L63.8,254.467Z" fill="url(#linear-gradient-16)"/>
        <path id="패스_2411" data-name="패스 2411" d="M63.8,256.78l15.489,1.566V257.8L63.8,255.932Z" fill="url(#linear-gradient-16)"/>
        <path id="패스_2412" data-name="패스 2412" d="M63.8,258.241l15.489,1.046v-.547L63.8,257.393Z" fill="url(#linear-gradient-16)"/>
        <path id="패스_2413" data-name="패스 2413" d="M63.8,259.7l15.489.524v-.545L63.8,258.856Z" fill="url(#linear-gradient-16)"/>
        <path id="패스_2414" data-name="패스 2414" d="M63.8,261.165l15.489,0v-.545l-15.489-.3Z" fill="url(#linear-gradient-16)"/>
        <path id="패스_2415" data-name="패스 2415" d="M63.8,262.627l15.489-.52v-.547l-15.489.219Z" fill="url(#linear-gradient-16)"/>
        <path id="패스_2416" data-name="패스 2416" d="M63.8,264.09l15.489-1.042V262.5l-15.489.743Z" fill="url(#linear-gradient-16)"/>
        <path id="패스_2417" data-name="패스 2417" d="M63.8,265.553l15.489-1.566v-.545L63.8,264.705Z" fill="url(#linear-gradient-16)"/>
        <path id="패스_2418" data-name="패스 2418" d="M63.8,267.016l15.489-2.088v-.545L63.8,266.168Z" fill="url(#linear-gradient-16)"/>
        <path id="패스_2419" data-name="패스 2419" d="M63.8,268.477l15.489-2.61v-.545L63.8,267.631Z" fill="url(#linear-gradient-16)"/>
        <path id="패스_2420" data-name="패스 2420" d="M63.8,269.942l15.489-3.134v-.545L63.8,269.094Z" fill="url(#linear-gradient-16)"/>
        <path id="패스_2421" data-name="패스 2421" d="M63.8,271.4l15.489-3.656V267.2L63.8,270.557Z" fill="url(#linear-gradient-16)"/>
      </g>
    </g>
    <g id="그룹_49" data-name="그룹 49">
      <path id="패스_2422" data-name="패스 2422" d="M64.354,277.256V273.47h.522v1.883l1.962-1.883.666-.008-1.635,1.525,1.706,2.27H66.92l-1.4-1.919-.64.589v1.33Z" fill="#fff" stroke="#fff" stroke-width="0.36"/>
      <path id="패스_2423" data-name="패스 2423" d="M74.3,277.259v-3.786h.522v3.786Z" fill="#fff" stroke="#fff" stroke-width="0.36"/>
      <path id="패스_2424" data-name="패스 2424" d="M85.163,274.574h-.489a.813.813,0,0,0-.294-.587,1.067,1.067,0,0,0-.667-.192,1.119,1.119,0,0,0-.6.138.557.557,0,0,0-.268.511c0,.208.126.361.385.461a7.52,7.52,0,0,0,.861.219,1.937,1.937,0,0,1,1,.449.913.913,0,0,1,.228.644.973.973,0,0,1-.49.87,1.886,1.886,0,0,1-1.024.265,1.824,1.824,0,0,1-1.126-.319,1.2,1.2,0,0,1-.478-1.024H82.7a.81.81,0,0,0,.34.7,1.315,1.315,0,0,0,.785.218,1.364,1.364,0,0,0,.666-.138.593.593,0,0,0,.315-.553c0-.27-.19-.467-.571-.587-.108-.036-.33-.088-.667-.161a2.1,2.1,0,0,1-1.009-.416.777.777,0,0,1-.234-.589.965.965,0,0,1,.436-.847,1.672,1.672,0,0,1,.975-.27,1.624,1.624,0,0,1,1.012.291A1.081,1.081,0,0,1,85.163,274.574Z" fill="#fff" stroke="#fff" stroke-width="0.36"/>
      <path id="패스_2425" data-name="패스 2425" d="M91.938,277.259v-3.786h2.552v.426H92.459v1.192h1.781v.426H92.459v1.743Z" fill="#fff" stroke="#fff" stroke-width="0.36"/>
    </g>
    <g id="그룹_50" data-name="그룹 50">
      <path id="패스_2426" data-name="패스 2426" d="M104.9,253.183q-.289.022-.618.025t-.654,0H103.2v-.525h1.572q.379,0,.813-.014a6.882,6.882,0,0,1-.181,1.124,7.837,7.837,0,0,1-.354,1.088,4.815,4.815,0,0,0,.567.926,4.733,4.733,0,0,0,.741.761l-.491.417a5.312,5.312,0,0,1-1.113-1.486,6.656,6.656,0,0,1-.647.973,5.707,5.707,0,0,1-.806.822l-.5-.367a5.615,5.615,0,0,0,1.456-1.691A5.474,5.474,0,0,0,104.9,253.183Zm3.591,5.48h-.621v-3.57h-.831v3.4h-.607v-6.32h.607v2.385h.831v-2.456h.621Z" fill="#fff"/>
      <path id="패스_2427" data-name="패스 2427" d="M109.3,252.45h3.064v.531h-2.428v2.162h.867a10.314,10.314,0,0,0,1.337-.079q.607-.079.99-.151v.5q-.21.05-.491.1t-.6.079q-.318.032-.658.053t-.665.022H109.3Zm5,6.082H110.14v-1.917h.636v1.379H114.3Zm.9-4.108h-1.041v2.492h-.621v-4.8h.621v1.76H115.2Z" fill="#fff"/>
      <path id="패스_2428" data-name="패스 2428" d="M103.29,262.533v-3.052h.636v.962h1.835v-.962h.621v1.214h1.38V259.28h.621v3.512h-.621v-1.544h-1.38v1.285Zm2.471-1.573h-1.835V262h1.835Zm2.623,4.783h-4.133V263.2h.614v.661h2.9v-.7h.614Zm-.614-.539v-.833h-2.9v.833Z" fill="#fff"/>
      <path id="패스_2429" data-name="패스 2429" d="M109.208,261.24a1.708,1.708,0,0,1,.13-.668,1.581,1.581,0,0,1,.361-.532,1.678,1.678,0,0,1,.541-.348,1.783,1.783,0,0,1,.678-.126,1.84,1.84,0,0,1,.685.126,1.661,1.661,0,0,1,.548.348,1.591,1.591,0,0,1,.361.532,1.708,1.708,0,0,1,.13.668,1.641,1.641,0,0,1-.13.654,1.57,1.57,0,0,1-.361.521,1.7,1.7,0,0,1-.548.345,1.847,1.847,0,0,1-.685.125,1.789,1.789,0,0,1-.678-.125,1.72,1.72,0,0,1-.541-.345,1.56,1.56,0,0,1-.361-.521A1.641,1.641,0,0,1,109.208,261.24Zm.665,0a1.253,1.253,0,0,0,.076.44.969.969,0,0,0,.217.347,1.031,1.031,0,0,0,.336.226,1.189,1.189,0,0,0,.867,0,1.031,1.031,0,0,0,.336-.226,1.013,1.013,0,0,0,.22-.347,1.207,1.207,0,0,0,.079-.44,1.278,1.278,0,0,0-.079-.458,1.085,1.085,0,0,0-.22-.358.975.975,0,0,0-.336-.233,1.179,1.179,0,0,0-.867,0,.975.975,0,0,0-.336.233,1.037,1.037,0,0,0-.217.358A1.327,1.327,0,0,0,109.873,261.237Zm4.74,4.478h-4.271v-2.032h.636v1.494h3.635Zm-.152-1.688h-.614v-4.74h.614Z" fill="#fff"/>
    </g>
  </g>
</svg>
