<svg xmlns="http://www.w3.org/2000/svg" xmlns:xlink="http://www.w3.org/1999/xlink" width="206" height="41" viewBox="0 0 206 41">
  <defs>
    <linearGradient id="linear-gradient" y1="0.5" x2="1" y2="0.5" gradientUnits="objectBoundingBox">
      <stop offset="0.12" stop-color="#fff"/>
      <stop offset="0.183" stop-color="#fafbfd"/>
      <stop offset="0.25" stop-color="#eef2f9"/>
      <stop offset="0.318" stop-color="#d9e3f2"/>
      <stop offset="0.386" stop-color="#bccee9"/>
      <stop offset="0.455" stop-color="#96b3dc"/>
      <stop offset="0.483" stop-color="#85a7d7"/>
      <stop offset="0.516" stop-color="#7fa5d6"/>
      <stop offset="0.556" stop-color="#70a0d4"/>
      <stop offset="0.6" stop-color="#5798d0"/>
      <stop offset="0.646" stop-color="#338dcb"/>
      <stop offset="0.695" stop-color="#077fc5"/>
      <stop offset="0.702" stop-color="#007dc4"/>
      <stop offset="0.707" stop-color="#007bc2"/>
      <stop offset="0.832" stop-color="#0357a2"/>
      <stop offset="0.934" stop-color="#06428f"/>
      <stop offset="1" stop-color="#073a88"/>
    </linearGradient>
    <linearGradient id="linear-gradient-16" x1="1" y1="0.5" x2="0" y2="0.5" xlink:href="#linear-gradient"/>
  </defs>
  <g id="Vector_Smart_Object" data-name="Vector Smart Object" transform="translate(-189.296 -78.012)">
    <g id="그룹_2879" data-name="그룹 2879" transform="translate(188.99 78.012)">
      <g id="그룹_2877" data-name="그룹 2877" transform="translate(22.307)">
        <path id="패스_12726" data-name="패스 12726" d="M232.6,79.248l-22,5.342v-.8l22-5.773Z" transform="translate(-210.602 -78.012)" fill="url(#linear-gradient)"/>
        <path id="패스_12727" data-name="패스 12727" d="M232.6,81.38l-22,4.574v-.8l22-5.015Z" transform="translate(-210.602 -78.012)" fill="url(#linear-gradient)"/>
        <path id="패스_12728" data-name="패스 12728" d="M232.6,83.512l-22,3.812v-.8l22-4.245Z" transform="translate(-210.602 -78.012)" fill="url(#linear-gradient)"/>
        <path id="패스_12729" data-name="패스 12729" d="M232.6,85.645l-22,3.055v-.8l22-3.491Z" transform="translate(-210.602 -78.036)" fill="url(#linear-gradient)"/>
        <path id="패스_12730" data-name="패스 12730" d="M232.6,87.783l-22,2.285v-.794l22-2.728Z" transform="translate(-210.602 -78.043)" fill="url(#linear-gradient)"/>
        <path id="패스_12731" data-name="패스 12731" d="M232.6,89.91l-22,1.527v-.8l22-1.962Z" transform="translate(-210.602 -78.049)" fill="url(#linear-gradient)"/>
        <path id="패스_12732" data-name="패스 12732" d="M232.6,92.042l-22,.768v-.8l22-1.2Z" transform="translate(-210.602 -78.055)" fill="url(#linear-gradient)"/>
        <path id="패스_12733" data-name="패스 12733" d="M232.6,94.174l-22,0v-.789l22-.447Z" transform="translate(-210.602 -78.061)" fill="url(#linear-gradient)"/>
        <path id="패스_12734" data-name="패스 12734" d="M232.6,96.312l-22-.758v-.8l22,.317Z" transform="translate(-210.602 -78.068)" fill="url(#linear-gradient)"/>
        <path id="패스_12735" data-name="패스 12735" d="M232.6,98.448l-22-1.523v-.8l22,1.087Z" transform="translate(-210.602 -78.074)" fill="url(#linear-gradient)"/>
        <path id="패스_12736" data-name="패스 12736" d="M232.6,100.577l-22-2.285V97.5l22,1.841Z" transform="translate(-210.602 -78.08)" fill="url(#linear-gradient)"/>
        <path id="패스_12737" data-name="패스 12737" d="M232.6,102.713l-22-3.047v-.793l22,2.6Z" transform="translate(-210.602 -78.087)" fill="url(#linear-gradient)"/>
        <path id="패스_12738" data-name="패스 12738" d="M232.6,104.846l-22-3.812v-.793l22,3.368Z" transform="translate(-210.602 -78.11)" fill="url(#linear-gradient)"/>
        <path id="패스_12739" data-name="패스 12739" d="M232.6,106.978l-22-4.568v-.8l22,4.131Z" transform="translate(-210.602 -78.11)" fill="url(#linear-gradient)"/>
        <path id="패스_12740" data-name="패스 12740" d="M232.6,109.11l-22-5.332v-.793l22,4.887Z" transform="translate(-210.602 -78.11)" fill="url(#linear-gradient)"/>
      </g>
      <g id="그룹_31187" data-name="그룹 31187" transform="translate(0.307)">
        <path id="패스_12726-2" data-name="패스 12726" d="M210.6,79.248l22,5.342v-.8l-22-5.772Z" transform="translate(-210.602 -78.012)" fill="url(#linear-gradient-16)"/>
        <path id="패스_12727-2" data-name="패스 12727" d="M210.6,81.38l22,4.574v-.8l-22-5.015Z" transform="translate(-210.602 -78.012)" fill="url(#linear-gradient-16)"/>
        <path id="패스_12728-2" data-name="패스 12728" d="M210.6,83.512l22,3.812v-.8l-22-4.245Z" transform="translate(-210.602 -78.012)" fill="url(#linear-gradient-16)"/>
        <path id="패스_12729-2" data-name="패스 12729" d="M210.6,85.645l22,3.055v-.8l-22-3.491Z" transform="translate(-210.602 -78.036)" fill="url(#linear-gradient-16)"/>
        <path id="패스_12730-2" data-name="패스 12730" d="M210.6,87.783l22,2.285v-.794l-22-2.728Z" transform="translate(-210.602 -78.043)" fill="url(#linear-gradient-16)"/>
        <path id="패스_12731-2" data-name="패스 12731" d="M210.6,89.91l22,1.527v-.8l-22-1.962Z" transform="translate(-210.602 -78.049)" fill="url(#linear-gradient-16)"/>
        <path id="패스_12732-2" data-name="패스 12732" d="M210.6,92.042l22,.768v-.8l-22-1.2Z" transform="translate(-210.602 -78.055)" fill="url(#linear-gradient-16)"/>
        <path id="패스_12733-2" data-name="패스 12733" d="M210.6,94.174l22,0v-.789l-22-.447Z" transform="translate(-210.602 -78.061)" fill="url(#linear-gradient-16)"/>
        <path id="패스_12734-2" data-name="패스 12734" d="M210.6,96.312l22-.758v-.8l-22,.317Z" transform="translate(-210.602 -78.068)" fill="url(#linear-gradient-16)"/>
        <path id="패스_12735-2" data-name="패스 12735" d="M210.6,98.448l22-1.523v-.8l-22,1.087Z" transform="translate(-210.602 -78.074)" fill="url(#linear-gradient-16)"/>
        <path id="패스_12736-2" data-name="패스 12736" d="M210.6,100.577l22-2.285V97.5l-22,1.841Z" transform="translate(-210.602 -78.08)" fill="url(#linear-gradient-16)"/>
        <path id="패스_12737-2" data-name="패스 12737" d="M210.6,102.713l22-3.047v-.793l-22,2.6Z" transform="translate(-210.602 -78.087)" fill="url(#linear-gradient-16)"/>
        <path id="패스_12738-2" data-name="패스 12738" d="M210.6,104.846l22-3.812v-.793l-22,3.368Z" transform="translate(-210.602 -78.11)" fill="url(#linear-gradient-16)"/>
        <path id="패스_12739-2" data-name="패스 12739" d="M210.6,106.978l22-4.568v-.8l-22,4.131Z" transform="translate(-210.602 -78.11)" fill="url(#linear-gradient-16)"/>
        <path id="패스_12740-2" data-name="패스 12740" d="M210.6,109.11l22-5.332v-.793l-22,4.887Z" transform="translate(-210.602 -78.11)" fill="url(#linear-gradient-16)"/>
      </g>
    </g>
    <g id="그룹_2880" data-name="그룹 2880" transform="translate(274.101 80.56)">
      <path id="패스_12756" data-name="패스 12756" d="M274.539,86.608c.054-.246.148-.573.28-.971.079-.239.133-.414.159-.522a1.9,1.9,0,0,0,.079-.473l-.1-.571c-.039-.178-.066-.317-.079-.429-.013-.174-.019-.321-.019-.453a.845.845,0,0,1,.338-.708,1.805,1.805,0,0,1,1.289-.429,3.148,3.148,0,0,0,1.471-.31,3.013,3.013,0,0,0,.832-.614,3.849,3.849,0,0,1,.495-.4,1.311,1.311,0,0,1,.678-.166,1.488,1.488,0,0,1,.694.166c.147.081.349.215.616.4a6.1,6.1,0,0,0,.953.637,3.629,3.629,0,0,0,1.547.314,1.58,1.58,0,0,1,1.131.375.842.842,0,0,1,.317.619,2.976,2.976,0,0,1-.04.453,3.3,3.3,0,0,0-.077.425,2.968,2.968,0,0,0-.1.429c-.014.17-.018.332-.018.472a1.5,1.5,0,0,0,.057.387,3.337,3.337,0,0,0,.178.4,7.625,7.625,0,0,1,.32.832,4.356,4.356,0,0,1,.176,1.264,4.8,4.8,0,0,1-1.805,3.682,5.769,5.769,0,0,1-7.721.161,4.58,4.58,0,0,1-1.785-3.654A6.047,6.047,0,0,1,274.539,86.608Zm3.3-1.841a4.712,4.712,0,0,0-.715,2.66,4.093,4.093,0,0,0,.715,2.486,2.568,2.568,0,0,0,2.2,1.094,2.6,2.6,0,0,0,2.2-1.094,4,4,0,0,0,.755-2.486,4.6,4.6,0,0,0-.734-2.66,2.559,2.559,0,0,0-2.218-1.156A2.51,2.51,0,0,0,277.841,84.767Zm0,9.949a1.278,1.278,0,0,1,1.073-.522,1.135,1.135,0,0,1,.987.48,2.255,2.255,0,0,1,.359,1.348v2.321a1.52,1.52,0,0,0,.554,1.284,2.2,2.2,0,0,0,1.389.377h7.283a1.51,1.51,0,0,1,.792.188.759.759,0,0,1,.36.7.9.9,0,0,1-.3.739,1.253,1.253,0,0,1-.795.213H279.334a1.764,1.764,0,0,1-1.369-.522,2.108,2.108,0,0,1-.495-1.508V96.068A2.285,2.285,0,0,1,277.845,94.715Zm9.812-11.781a1.846,1.846,0,0,1,.32-1.164,1.166,1.166,0,0,1,1-.448,1.29,1.29,0,0,1,1.014.448,1.45,1.45,0,0,1,.4,1.017,1.8,1.8,0,0,0,.277.955,1.556,1.556,0,0,0,.8.68l.116.031a3.631,3.631,0,0,1,.855.375.866.866,0,0,1,.415.735.916.916,0,0,1-.415.758,3.242,3.242,0,0,1-.774.359l-.118.043a1.513,1.513,0,0,0-.817.615,1.731,1.731,0,0,0-.336,1.021V94.1a1.8,1.8,0,0,1-.338,1.16,1.216,1.216,0,0,1-1.036.47,1.192,1.192,0,0,1-1.013-.47,1.915,1.915,0,0,1-.342-1.16Z" transform="translate(-274.404 -80.56)" fill="#1a1818"/>
      <path id="패스_12757" data-name="패스 12757" d="M296.376,95.864a.85.85,0,0,1-.256-.635.946.946,0,0,1,.239-.677.873.873,0,0,1,.656-.238h3.35a1.732,1.732,0,0,0,1.228-.425,1.21,1.21,0,0,0,.421-.928v-.592a.986.986,0,0,0-.439-.783,2.364,2.364,0,0,0-1.425-.377h-4.229a1.166,1.166,0,0,1-.853-.286.777.777,0,0,1-.255-.61.8.8,0,0,1,.314-.681,1.339,1.339,0,0,1,.871-.263h9.643a1.9,1.9,0,0,0,1.41-.52,1.589,1.589,0,0,0,.514-1.214V85.3a2.128,2.128,0,0,0-.436-1.357,1.6,1.6,0,0,0-1.329-.588l-8.572.046a1.3,1.3,0,0,1-.854-.24.879.879,0,0,1-.3-.708.789.789,0,0,1,.3-.63,1.326,1.326,0,0,1,.854-.265h10.814a2.352,2.352,0,0,1,1.723.6,2.256,2.256,0,0,1,.6,1.678v3.866a2.106,2.106,0,0,0,.219,1.044,2.013,2.013,0,0,0,.511.52l.061.045a2.143,2.143,0,0,1,.515.4.881.881,0,0,1,.238.543.816.816,0,0,1-.316.663,1.215,1.215,0,0,1-.834.286h-4.221a2.258,2.258,0,0,0-1.4.377,1.01,1.01,0,0,0-.4.783v.642a1.117,1.117,0,0,0,.417.9,1.853,1.853,0,0,0,1.268.408h1.92a2.267,2.267,0,0,1,1.486.421,1.8,1.8,0,0,1,.537,1.415v4.1a2.418,2.418,0,0,1-.318,1.4,1.283,1.283,0,0,1-1.072.4,1.211,1.211,0,0,1-1.031-.384,2.138,2.138,0,0,1-.279-1.251V97.829a1.715,1.715,0,0,0-.379-1.177,1.63,1.63,0,0,0-1.307-.5h-8.869A.94.94,0,0,1,296.376,95.864Z" transform="translate(-274.404 -80.56)" fill="#1a1818"/>
      <path id="패스_12758" data-name="패스 12758" d="M324.7,95.523a5.019,5.019,0,0,1-8.724,0,10.723,10.723,0,0,1-1.447-5.823,10.972,10.972,0,0,1,1.447-5.873,5.019,5.019,0,0,1,8.724,0,10.772,10.772,0,0,1,1.485,5.873A10.6,10.6,0,0,1,324.7,95.523Zm-2-10.389c-.568-1.361-1.358-2.038-2.362-2.038s-1.783.676-2.339,2.038a12.653,12.653,0,0,0-.714,4.591A12.384,12.384,0,0,0,318,94.263c.556,1.377,1.336,2.053,2.339,2.053s1.794-.676,2.362-2.053a11.963,11.963,0,0,0,.754-4.537A12.1,12.1,0,0,0,322.7,85.135Zm8.7,16.343a1.246,1.246,0,0,1-1.176.591,1.052,1.052,0,0,1-.993-.591,2.636,2.636,0,0,1-.262-1.272V83.226a2.446,2.446,0,0,1,.281-1.254,1.129,1.129,0,0,1,1.056-.592,1.154,1.154,0,0,1,1.013.524,2.457,2.457,0,0,1,.379,1.466V99.959A3.04,3.04,0,0,1,331.406,101.478Z" transform="translate(-274.404 -80.56)" fill="#1a1818"/>
      <path id="패스_12759" data-name="패스 12759" d="M335.976,82.165a1.956,1.956,0,0,1,1.41-.5h6.707a1.73,1.73,0,0,1,1.272.5,1.954,1.954,0,0,1,.518,1.443v7.06a1.88,1.88,0,0,1-.538,1.419,1.923,1.923,0,0,1-1.431.52h-6.588a1.817,1.817,0,0,1-1.351-.52,1.7,1.7,0,0,1-.521-1.276V83.588A1.931,1.931,0,0,1,335.976,82.165Zm2.733,8.01a1.613,1.613,0,0,0,1.33.6h1.227a1.6,1.6,0,0,0,1.351-.6,2.351,2.351,0,0,0,.439-1.517V85.595a2.317,2.317,0,0,0-.439-1.5,1.6,1.6,0,0,0-1.351-.6h-1.19a1.661,1.661,0,0,0-1.346.6,2.241,2.241,0,0,0-.48,1.5v3.09A2.267,2.267,0,0,0,338.709,90.174Zm.4,4.931a1.279,1.279,0,0,1,1.069-.518,1.179,1.179,0,0,1,1.013.495,2.335,2.335,0,0,1,.334,1.354v1.937a1.517,1.517,0,0,0,.555,1.284,2.246,2.246,0,0,0,1.41.379h7.976a1.491,1.491,0,0,1,.776.185.822.822,0,0,1,.377.708.845.845,0,0,1-.4.735,1.862,1.862,0,0,1-.974.213h-10.71a1.722,1.722,0,0,1-1.348-.521,2.214,2.214,0,0,1-.454-1.506V96.483A2.3,2.3,0,0,1,339.106,95.106Zm12.536-13.227a2.522,2.522,0,0,1,.379,1.491V93.49a2.993,2.993,0,0,1-.3,1.513,1.22,1.22,0,0,1-1.176.617,1.059,1.059,0,0,1-.994-.586,2.706,2.706,0,0,1-.26-1.286V83.2a2.488,2.488,0,0,1,.28-1.254,1.17,1.17,0,0,1,1.073-.6A1.149,1.149,0,0,1,351.641,81.879Z" transform="translate(-274.404 -80.56)" fill="#1a1818"/>
      <path id="패스_12760" data-name="패스 12760" d="M366.151,97.167a2.193,2.193,0,0,1-.953.166,1.563,1.563,0,0,1-.992-.264,1.167,1.167,0,0,1-.456-.9l-.317-2.842q-.36-3.4-.518-4.643c-.159-1.284-.294-2.251-.416-2.914a5.064,5.064,0,0,0-.478-1.5.7.7,0,0,0-.614-.425.782.782,0,0,0-.692.425,4.646,4.646,0,0,0-.518,1.518q-.217,1-.46,2.961-.173,1.258-.572,4.7l-.293,2.65a1.317,1.317,0,0,1-.538.924,1.623,1.623,0,0,1-.993.309,1.979,1.979,0,0,1-.912-.143.7.7,0,0,1-.279-.663c0-.187.069-.74.2-1.662.077-.569.231-1.591.456-3.078.317-2.078.541-3.588.674-4.5a27.659,27.659,0,0,0,.338-2.892.531.531,0,0,0-.179-.4,2.247,2.247,0,0,0-.376-.261,1.611,1.611,0,0,1-.421-.313.666.666,0,0,1-.178-.47,1.182,1.182,0,0,1,.2-.762.822.822,0,0,1,.616-.211h7.8a.664.664,0,0,1,.557.233,1.394,1.394,0,0,1,.176.762.6.6,0,0,1-.2.449,2.45,2.45,0,0,1-.414.313,1.85,1.85,0,0,0-.375.261.545.545,0,0,0-.161.4c0,.3.1,1.171.3,2.61.128.834.352,2.267.673,4.287q.374,2.465.514,3.391c.159,1.044.24,1.659.24,1.846A.654.654,0,0,1,366.151,97.167Zm7.567,4.373a1.078,1.078,0,0,1-.992.524,1.109,1.109,0,0,1-1.005-.5,2.225,2.225,0,0,1-.3-1.278V88.342a1.274,1.274,0,0,0-.3-.878.838.838,0,0,0-.638-.315.867.867,0,0,0-.661.315,1.277,1.277,0,0,0-.275.852V100.19a2.63,2.63,0,0,1-.278,1.35,1.02,1.02,0,0,1-.955.524,1.107,1.107,0,0,1-1.031-.5,2.443,2.443,0,0,1-.256-1.278V83.166a2.49,2.49,0,0,1,.274-1.252,1.273,1.273,0,0,1,1.968-.143,1.8,1.8,0,0,1,.278,1.066V83.6a1.127,1.127,0,0,0,.337.879.814.814,0,0,0,.58.26.871.871,0,0,0,.58-.238,1.137,1.137,0,0,0,.379-.922v-.619a1.93,1.93,0,0,1,.3-1.164,1.173,1.173,0,0,1,1.005-.421,1.076,1.076,0,0,1,.972.491,2.448,2.448,0,0,1,.314,1.353V100.19A2.506,2.506,0,0,1,373.719,101.54Z" transform="translate(-274.404 -80.56)" fill="#1a1818"/>
      <path id="패스_12761" data-name="패스 12761" d="M390.75,81.819a1.077,1.077,0,0,1,.936-.474,1.4,1.4,0,0,1,1.017.4,1.461,1.461,0,0,1,.433,1.089,1.819,1.819,0,0,0,.3,1,1.636,1.636,0,0,0,.754.614l.2.066a3.46,3.46,0,0,1,.833.381.775.775,0,0,1,.377.69.859.859,0,0,1-.4.711,2.628,2.628,0,0,1-.77.377l-.141.067a1.9,1.9,0,0,0-.815.572,1.936,1.936,0,0,0-.339,1.16v6.113a1.834,1.834,0,0,1-.416,1.276,1.194,1.194,0,0,1-.957.449,1.22,1.22,0,0,1-.99-.426,1.836,1.836,0,0,1-.363-1.233v-.635a1.168,1.168,0,0,0-.711-1.048,3.88,3.88,0,0,0-1.666-.326H379.7a2.433,2.433,0,0,1-1.649-.476,1.99,1.99,0,0,1-.553-1.558V83.961a2.753,2.753,0,0,1,.416-1.581,1.554,1.554,0,0,1,1.367-.713h8.01a1.235,1.235,0,0,1,.719.237.763.763,0,0,1,.336.613.979.979,0,0,1-.257.682.831.831,0,0,1-.678.3h-5.138a2.051,2.051,0,0,0-1.506.53,1.753,1.753,0,0,0-.478,1.272v3.789a1.545,1.545,0,0,0,.539,1.21,2.143,2.143,0,0,0,1.491.5h5.93a2.583,2.583,0,0,0,1.511-.41,1.542,1.542,0,0,0,.651-1.324V83.118A2.186,2.186,0,0,1,390.75,81.819ZM380.6,94.986a1.279,1.279,0,0,1,1.073-.52,1.136,1.136,0,0,1,.986.52,2.117,2.117,0,0,1,.357,1.258v2.128a1.515,1.515,0,0,0,.555,1.284,2.2,2.2,0,0,0,1.388.379h7.286a1.52,1.52,0,0,1,.791.185.764.764,0,0,1,.36.708.867.867,0,0,1-.3.735,1.242,1.242,0,0,1-.793.213H382.086a1.739,1.739,0,0,1-1.367-.521,2.1,2.1,0,0,1-.5-1.506V96.224A1.921,1.921,0,0,1,380.6,94.986Z" transform="translate(-274.404 -80.56)" fill="#1a1818"/>
    </g>
    <g id="그룹_2881" data-name="그룹 2881" transform="translate(248.37 110.436)">
      <path id="패스_12762" data-name="패스 12762" d="M248.673,116.327v-5.036h.669v2.5l2.51-2.5.852-.008-2.091,2.026,2.182,3.018h-.837l-1.8-2.554-.818.789v1.765Z" transform="translate(-248.673 -111.152)" fill="#1a1818"/>
      <path id="패스_12763" data-name="패스 12763" d="M252.971,113.81a2.827,2.827,0,0,1,.6-1.842,2.35,2.35,0,0,1,3.561,0,3.138,3.138,0,0,1,0,3.685,2.372,2.372,0,0,1-3.561,0A2.838,2.838,0,0,1,252.971,113.81Zm.667,0a2.374,2.374,0,0,0,.4,1.421,1.637,1.637,0,0,0,2.622,0,2.392,2.392,0,0,0,.4-1.421,2.43,2.43,0,0,0-.4-1.429,1.642,1.642,0,0,0-2.622,0A2.412,2.412,0,0,0,253.638,113.81Z" transform="translate(-248.673 -111.152)" fill="#1a1818"/>
      <path id="패스_12764" data-name="패스 12764" d="M258.467,116.333V111.3h2.342a1.609,1.609,0,0,1,1.107.353,1.21,1.21,0,0,1,.4.962,1.5,1.5,0,0,1-.2.8,1.149,1.149,0,0,1-.663.474.8.8,0,0,1,.571.39,1.543,1.543,0,0,1,.168.626c.023.271.042.534.063.785a1.336,1.336,0,0,0,.231.642h-.735a1.053,1.053,0,0,1-.128-.6,4.888,4.888,0,0,0-.054-.644,1.168,1.168,0,0,0-.283-.735.794.794,0,0,0-.541-.176h-1.615v2.156Zm.668-2.714h1.373a1.537,1.537,0,0,0,.8-.172.8.8,0,0,0,.343-.729.846.846,0,0,0-.211-.606.872.872,0,0,0-.671-.246h-1.638Z" transform="translate(-248.673 -111.152)" fill="#1a1818"/>
      <path id="패스_12765" data-name="패스 12765" d="M263.168,116.333V111.3H266.6v.568h-2.767v1.587h2.578v.565h-2.578v1.752h2.784v.564Z" transform="translate(-248.673 -111.152)" fill="#1a1818"/>
      <path id="패스_12766" data-name="패스 12766" d="M266.757,116.333,268.7,111.3h.729l1.945,5.036-.741,0-.536-1.527h-2.1l-.559,1.517Zm1.458-2.088h1.664l-.818-2.339Z" transform="translate(-248.673 -111.152)" fill="#1a1818"/>
      <path id="패스_12767" data-name="패스 12767" d="M273.68,116.333V111.3h.669v5.036Z" transform="translate(-248.673 -111.152)" fill="#1a1818"/>
      <path id="패스_12768" data-name="패스 12768" d="M275.4,116.333V111.3h.9l1.566,4.228,1.573-4.228h.9v5.036h-.628v-4.186l-1.568,4.18-.558.006-1.55-4.19-.014,4.19Z" transform="translate(-248.673 -111.152)" fill="#1a1818"/>
      <path id="패스_12769" data-name="패스 12769" d="M281.4,116.333V111.3h.9l1.567,4.228,1.573-4.228h.9v5.036h-.63v-4.186l-1.568,4.18-.556.006-1.552-4.19-.011,4.19Z" transform="translate(-248.673 -111.152)" fill="#1a1818"/>
      <path id="패스_12770" data-name="패스 12770" d="M287.4,116.333V111.3h.669v5.036Z" transform="translate(-248.673 -111.152)" fill="#1a1818"/>
      <path id="패스_12771" data-name="패스 12771" d="M293.01,116.333l-.172-.628a1.691,1.691,0,0,1-.7.57,2.281,2.281,0,0,1-.9.182,2.2,2.2,0,0,1-1.743-.774,2.655,2.655,0,0,1-.626-1.775,3,3,0,0,1,.592-1.926,2.125,2.125,0,0,1,1.774-.831,2.34,2.34,0,0,1,1.407.4,1.883,1.883,0,0,1,.73,1.293h-.659a1.252,1.252,0,0,0-.5-.841,1.669,1.669,0,0,0-.978-.276,1.488,1.488,0,0,0-1.3.665,2.579,2.579,0,0,0-.4,1.48,2.2,2.2,0,0,0,.44,1.4,1.659,1.659,0,0,0,2.438.158,1.7,1.7,0,0,0,.423-1.183h-1.595v-.568h2.185v2.656Z" transform="translate(-248.673 -111.152)" fill="#1a1818"/>
      <path id="패스_12772" data-name="패스 12772" d="M294.322,116.333V111.3h2.342a1.617,1.617,0,0,1,1.109.353,1.211,1.211,0,0,1,.4.962,1.479,1.479,0,0,1-.2.8,1.152,1.152,0,0,1-.661.474.813.813,0,0,1,.571.39,1.486,1.486,0,0,1,.165.626c.025.271.046.534.061.785a1.364,1.364,0,0,0,.235.642h-.737a1.085,1.085,0,0,1-.129-.6,4.346,4.346,0,0,0-.052-.644,1.184,1.184,0,0,0-.279-.735.806.806,0,0,0-.546-.176h-1.612v2.156Zm.669-2.714h1.374a1.556,1.556,0,0,0,.806-.172.8.8,0,0,0,.338-.729.851.851,0,0,0-.207-.606.872.872,0,0,0-.674-.246h-1.636Z" transform="translate(-248.673 -111.152)" fill="#1a1818"/>
      <path id="패스_12773" data-name="패스 12773" d="M298.431,116.333l1.941-5.036h.732l1.941,5.036-.739,0-.536-1.527h-2.1l-.56,1.517Zm1.454-2.088h1.665l-.82-2.339Z" transform="translate(-248.673 -111.152)" fill="#1a1818"/>
      <path id="패스_12774" data-name="패스 12774" d="M304.6,116.333v-4.468h-1.664V111.3h3.993v.568h-1.663v4.468Z" transform="translate(-248.673 -111.152)" fill="#1a1818"/>
      <path id="패스_12775" data-name="패스 12775" d="M307.415,116.333V111.3h.669v5.036Z" transform="translate(-248.673 -111.152)" fill="#1a1818"/>
      <path id="패스_12776" data-name="패스 12776" d="M308.844,113.81a2.825,2.825,0,0,1,.6-1.842,2.352,2.352,0,0,1,3.562,0,3.129,3.129,0,0,1,0,3.685,2.373,2.373,0,0,1-3.562,0A2.836,2.836,0,0,1,308.844,113.81Zm.671,0a2.4,2.4,0,0,0,.4,1.421,1.635,1.635,0,0,0,2.62,0,2.37,2.37,0,0,0,.4-1.421,2.407,2.407,0,0,0-.4-1.429,1.64,1.64,0,0,0-2.62,0A2.435,2.435,0,0,0,309.514,113.81Z" transform="translate(-248.673 -111.152)" fill="#1a1818"/>
      <path id="패스_12777" data-name="패스 12777" d="M314.333,116.333V111.3h.7l2.618,4.077.013-4.077h.629v5.036l-.731,0-2.59-4.041-.016,4.037Z" transform="translate(-248.673 -111.152)" fill="#1a1818"/>
      <path id="패스_12778" data-name="패스 12778" d="M324.663,112.76h-.626a1.09,1.09,0,0,0-.376-.778,1.316,1.316,0,0,0-.854-.255,1.405,1.405,0,0,0-.768.182.743.743,0,0,0-.344.68.66.66,0,0,0,.495.615,9.154,9.154,0,0,0,1.1.29,2.417,2.417,0,0,1,1.286.6,1.236,1.236,0,0,1,.291.855,1.3,1.3,0,0,1-.626,1.156,2.351,2.351,0,0,1-1.315.353,2.266,2.266,0,0,1-1.439-.426,1.611,1.611,0,0,1-.611-1.357h.628a1.094,1.094,0,0,0,.435.928,1.98,1.98,0,0,0,1.856.1.785.785,0,0,0,.4-.735q0-.536-.729-.78c-.137-.046-.421-.116-.853-.216a2.624,2.624,0,0,1-1.293-.55,1.056,1.056,0,0,1-.3-.785,1.289,1.289,0,0,1,.557-1.125,2.089,2.089,0,0,1,1.249-.363,2.013,2.013,0,0,1,1.292.39A1.454,1.454,0,0,1,324.663,112.76Z" transform="translate(-248.673 -111.152)" fill="#1a1818"/>
      <path id="패스_12779" data-name="패스 12779" d="M325.606,116.333V111.3h3.436v.568h-2.769v1.587h2.578v.565h-2.578v1.752h2.788v.564Z" transform="translate(-248.673 -111.152)" fill="#1a1818"/>
      <path id="패스_12780" data-name="패스 12780" d="M329.789,116.333V111.3h2.341a1.618,1.618,0,0,1,1.108.353,1.2,1.2,0,0,1,.4.962,1.462,1.462,0,0,1-.2.8,1.132,1.132,0,0,1-.663.474.8.8,0,0,1,.574.39,1.525,1.525,0,0,1,.166.626c.023.271.043.534.062.785a1.336,1.336,0,0,0,.233.642h-.737a1.056,1.056,0,0,1-.127-.6,4.544,4.544,0,0,0-.054-.644,1.18,1.18,0,0,0-.281-.735.8.8,0,0,0-.543-.176h-1.615v2.156Zm.667-2.714h1.375a1.553,1.553,0,0,0,.8-.172.8.8,0,0,0,.341-.729.855.855,0,0,0-.209-.606.869.869,0,0,0-.672-.246h-1.638Z" transform="translate(-248.673 -111.152)" fill="#1a1818"/>
      <path id="패스_12781" data-name="패스 12781" d="M338.219,111.3l-1.765,5.036H335.7l-1.754-5.036h.717l1.413,4.359,1.448-4.359Z" transform="translate(-248.673 -111.152)" fill="#1a1818"/>
      <path id="패스_12782" data-name="패스 12782" d="M338.7,116.333V111.3h.665v5.036Z" transform="translate(-248.673 -111.152)" fill="#1a1818"/>
      <path id="패스_12783" data-name="패스 12783" d="M344.566,112.8H343.9a1.273,1.273,0,0,0-.476-.8,1.527,1.527,0,0,0-.915-.271,1.468,1.468,0,0,0-1.283.622,2.357,2.357,0,0,0-.4,1.423,2.558,2.558,0,0,0,.4,1.493,1.468,1.468,0,0,0,1.287.622,1.377,1.377,0,0,0,1.04-.406,1.451,1.451,0,0,0,.388-1.05h.669a2.32,2.32,0,0,1-.655,1.486,2.042,2.042,0,0,1-1.5.538,2.071,2.071,0,0,1-1.722-.766,3.308,3.308,0,0,1,.027-3.754,2.157,2.157,0,0,1,1.753-.785,2.224,2.224,0,0,1,1.373.431A1.788,1.788,0,0,1,344.566,112.8Z" transform="translate(-248.673 -111.152)" fill="#1a1818"/>
      <path id="패스_12784" data-name="패스 12784" d="M345.36,116.333V111.3H348.8v.568h-2.769v1.587h2.583v.565h-2.583v1.752h2.788v.564Z" transform="translate(-248.673 -111.152)" fill="#1a1818"/>
      <path id="패스_12785" data-name="패스 12785" d="M351.411,116.333V111.3h3.267v.568h-2.6v1.587h2.279v.565h-2.279v2.316Z" transform="translate(-248.673 -111.152)" fill="#1a1818"/>
      <path id="패스_12786" data-name="패스 12786" d="M355.059,113.81a2.852,2.852,0,0,1,.6-1.842,2.355,2.355,0,0,1,3.565,0,3.129,3.129,0,0,1,0,3.685,2.376,2.376,0,0,1-3.565,0A2.863,2.863,0,0,1,355.059,113.81Zm.665,0a2.366,2.366,0,0,0,.406,1.421,1.632,1.632,0,0,0,2.617,0,2.351,2.351,0,0,0,.4-1.421,2.388,2.388,0,0,0-.4-1.429,1.637,1.637,0,0,0-2.617,0A2.4,2.4,0,0,0,355.724,113.81Z" transform="translate(-248.673 -111.152)" fill="#1a1818"/>
      <path id="패스_12787" data-name="패스 12787" d="M364.524,111.3v3.214a1.914,1.914,0,0,1-.507,1.448,1.97,1.97,0,0,1-1.446.5,2.138,2.138,0,0,1-1.5-.464,1.9,1.9,0,0,1-.541-1.481V111.3h.665v3.214a1.228,1.228,0,0,0,1.373,1.376,1.25,1.25,0,0,0,.951-.347,1.463,1.463,0,0,0,.332-1.029V111.3Z" transform="translate(-248.673 -111.152)" fill="#1a1818"/>
      <path id="패스_12788" data-name="패스 12788" d="M365.5,116.333V111.3h.7l2.617,4.077.02-4.077h.63v5.036l-.738,0-2.587-4.041-.014,4.037Z" transform="translate(-248.673 -111.152)" fill="#1a1818"/>
      <path id="패스_12789" data-name="패스 12789" d="M370.471,116.333V111.3h1.705a2.125,2.125,0,0,1,2.385,2.395,2.883,2.883,0,0,1-.572,1.955,2.264,2.264,0,0,1-1.813.686Zm.667-4.468v3.9h1.093a1.645,1.645,0,0,0,1-.293,1.937,1.937,0,0,0,.669-1.687,2.251,2.251,0,0,0-.369-1.412,1.532,1.532,0,0,0-1.282-.512Z" transform="translate(-248.673 -111.152)" fill="#1a1818"/>
      <path id="패스_12790" data-name="패스 12790" d="M374.709,116.333l1.94-5.036h.735l1.942,5.036-.745,0-.532-1.527h-2.107l-.561,1.517Zm1.453-2.088h1.666l-.817-2.339Z" transform="translate(-248.673 -111.152)" fill="#1a1818"/>
      <path id="패스_12791" data-name="패스 12791" d="M380.873,116.333v-4.468h-1.661V111.3h3.99v.568H381.54v4.468Z" transform="translate(-248.673 -111.152)" fill="#1a1818"/>
      <path id="패스_12792" data-name="패스 12792" d="M383.694,116.333V111.3h.665v5.036Z" transform="translate(-248.673 -111.152)" fill="#1a1818"/>
      <path id="패스_12793" data-name="패스 12793" d="M385.124,113.81a2.832,2.832,0,0,1,.6-1.842,2.351,2.351,0,0,1,3.561,0,3.149,3.149,0,0,1,0,3.685,2.373,2.373,0,0,1-3.561,0A2.843,2.843,0,0,1,385.124,113.81Zm.667,0a2.392,2.392,0,0,0,.4,1.421,1.637,1.637,0,0,0,2.622,0,2.383,2.383,0,0,0,.4-1.421,2.421,2.421,0,0,0-.4-1.429,1.642,1.642,0,0,0-2.622,0A2.43,2.43,0,0,0,385.792,113.81Z" transform="translate(-248.673 -111.152)" fill="#1a1818"/>
      <path id="패스_12794" data-name="패스 12794" d="M390.611,116.333V111.3h.7l2.618,4.077.014-4.077h.63v5.036l-.733,0-2.588-4.041-.016,4.037Z" transform="translate(-248.673 -111.152)" fill="#1a1818"/>
    </g>
    <g id="그룹_2882" data-name="그룹 2882" transform="translate(246.888 81.307)">
      <path id="패스_12795" data-name="패스 12795" d="M247.648,83.4v-.942H252.2V83.4h-1.684v.343a7.58,7.58,0,0,0,.444,2.5,4.845,4.845,0,0,0,1.717,2.249l-.787.7a5.512,5.512,0,0,1-1.141-1.185,4.628,4.628,0,0,1-.819-1.507,4.854,4.854,0,0,1-.8,1.568,8.235,8.235,0,0,1-1.247,1.379l-.9-.665a5.335,5.335,0,0,0,1.928-2.465,8.1,8.1,0,0,0,.444-2.576V83.4Zm7.646,7.656V86.148h-1.142v4.465h-1.075V81.528h1.075v3.534h1.142V81.307h1.074v9.75Z" transform="translate(-246.983 -81.307)" fill="#1a1818"/>
      <path id="패스_12796" data-name="패스 12796" d="M262.357,86.486q-.98.072-1.988.1L257.9,86.6V81.96h4.931v.931h-3.823v2.77l1.817-.011q.686-.022,1.607-.089t1.4-.144v.92Q263.338,86.413,262.357,86.486Zm-3.44,4.349V87.566h1.1V89.9h5.961v.931Zm6.759-9.528v2.869h1.4v.931h-1.4v3.257h-1.108V81.307Z" transform="translate(-246.983 -81.307)" fill="#1a1818"/>
      <path id="패스_12797" data-name="패스 12797" d="M254.795,94.536V92.387H255.9v5.229h-1.108V95.5h-2.239v1.872h-4.742V92.808h1.107v1.418h2.537V92.808h1.1v1.728Zm-5.883,7.49V98.159h1.108V99.2h4.742V98.159h1.108v3.866Zm2.547-6.9h-2.537v1.351h2.537Zm3.3,4.986h-4.742v1h4.742Z" transform="translate(-246.983 -81.307)" fill="#1a1818"/>
      <path id="패스_12798" data-name="패스 12798" d="M262.368,96.957a2.953,2.953,0,0,1-3.878,0,2.418,2.418,0,0,1,0-3.518,2.939,2.939,0,0,1,3.878,0,2.419,2.419,0,0,1,0,3.518Zm-.787-2.837a1.482,1.482,0,0,0-1.158-.449,1.466,1.466,0,0,0-1.147.449,1.559,1.559,0,0,0-.4,1.081,1.542,1.542,0,0,0,.4,1.069,1.462,1.462,0,0,0,1.147.449,1.477,1.477,0,0,0,1.158-.449,1.541,1.541,0,0,0,.4-1.069A1.558,1.558,0,0,0,261.582,94.12Zm-2.333,7.8V98.824h1.13v2.161h6.105v.931Zm5.906-2.472V92.387h1.107v7.057Z" transform="translate(-246.983 -81.307)" fill="#1a1818"/>
    </g>
    <g id="그룹_2883" data-name="그룹 2883" transform="translate(189.296 111.632)">
      <path id="패스_12799" data-name="패스 12799" d="M188.84,119.511H188.5l.019-1.12v-5.817h.324Zm6.791-.108c0,.039-.028.077-.083.113a.394.394,0,0,1-.212.054q-.138,0-.785-1.366-.335-.679-.659-1.366l-.669-1.356q-.157-.314-.688-1.346a11.143,11.143,0,0,0-.953.59v3.665l.029,1.12h-2.368v-6.938h2.368l-.029,1.12v.609q.765-.4,1.67-.929.52-.312,1.042-.624a1.42,1.42,0,0,1,.471-.225q.383,0,.383.147,0,.119-.609.413a18.849,18.849,0,0,0-1.7.9q.757,1.562,1.474,2.924c.085.156.41.752.973,1.785A3.86,3.86,0,0,1,195.631,119.4Z" transform="translate(-188.497 -112.347)" fill="#0060a6"/>
      <path id="패스_12800" data-name="패스 12800" d="M203.168,119.52h-.344l.02-1.121v-5.826h.324Zm2.771,0h-2.368v-6.947h2.368l-.03,1.122v4.7Z" transform="translate(-188.497 -112.347)" fill="#0060a6"/>
      <path id="패스_12801" data-name="패스 12801" d="M217.034,118.911q0,.816-1.033.816a2.6,2.6,0,0,1-.923-.2,4.36,4.36,0,0,1-1.042-.59c-.282-.208-.422-.363-.422-.46a.148.148,0,0,1,.167-.168.43.43,0,0,1,.236.118l.3.246a4.783,4.783,0,0,0,.889.54,1.949,1.949,0,0,0,.8.178q.7,0,.7-.463a.748.748,0,0,0-.145-.4,5.142,5.142,0,0,0-.458-.567l-1.025-1.128a8.255,8.255,0,0,1-.984-1.248,2.268,2.268,0,0,1-.345-1.148,1.905,1.905,0,0,1,.589-1.375,1.677,1.677,0,0,0-.344,1.042,2.368,2.368,0,0,0,.256,1.086,5.307,5.307,0,0,0,.805,1.115l1.268,1.375A2.147,2.147,0,0,1,217.034,118.911Zm2.279-1.26a1.871,1.871,0,0,1-.648,1.455,2.641,2.641,0,0,1-1.838.621.851.851,0,0,0,.57-.89,1.359,1.359,0,0,0-.205-.686,5.2,5.2,0,0,0-.626-.815l-1.152-1.237a5.518,5.518,0,0,1-.8-1.06,1.972,1.972,0,0,1-.271-.953,1.561,1.561,0,0,1,.565-1.271,2.425,2.425,0,0,1,1.587-.467,3.856,3.856,0,0,1,1.71.373c.433.209.649.393.649.551,0,.092-.05.137-.147.137a.436.436,0,0,1-.24-.132c-.1-.089-.176-.149-.221-.182a2.184,2.184,0,0,0-.639-.324,2.348,2.348,0,0,0-.708-.108.864.864,0,0,0-.482.118.357.357,0,0,0-.177.306q0,.345.688,1.062l1.317,1.388A3.218,3.218,0,0,1,219.313,117.651Z" transform="translate(-188.497 -112.347)" fill="#0060a6"/>
      <path id="패스_12802" data-name="패스 12802" d="M227.38,119.52h-.343l.019-1.121v-5.826h.324Zm5.838-4.873c0,.118-.075.177-.227.177q-.323,0-1-.007l-1.326-.013h-.541V118.4l.029,1.122h-2.368v-6.947h4.894c.19,0,.285.059.285.177s-.1.187-.285.187q-.059,0-.855-.024t-1.367-.025h-.334v1.6h.433q2.151-.05,2.319-.049a.7.7,0,0,1,.275.035C233.2,114.5,233.218,114.555,233.218,114.647Z" transform="translate(-188.497 -112.347)" fill="#0060a6"/>
    </g>
  </g>
</svg>
