<svg xmlns="http://www.w3.org/2000/svg" xmlns:xlink="http://www.w3.org/1999/xlink" width="250" height="160" viewBox="0 0 250 160">
  <defs>
    <clipPath id="clip-path">
      <rect id="Rectangle_16_copy" data-name="Rectangle 16 copy" width="250" height="160" rx="12" transform="translate(2839 2116)" fill="#fff" stroke="#e6e6e6" stroke-width="1"/>
    </clipPath>
  </defs>
  <g id="Clip" transform="translate(-2839 -2116)" clip-path="url(#clip-path)">
    <g id="Vector_Smart_Object" data-name="Vector Smart Object" transform="translate(2829.689 838.494)">
      <g id="그룹_915" data-name="그룹 915">
        <path id="패스_4834" data-name="패스 4834" d="M256.006,1364.136H199.614a7.726,7.726,0,0,0-7.689,7.765v74.036l19.293-23.815h44.787a7.729,7.729,0,0,0,7.69-7.765V1371.9A7.727,7.727,0,0,0,256.006,1364.136Z" fill="#fff" stroke="#222" stroke-width="3.245"/>
        <g id="그룹_914" data-name="그룹 914">
          <line id="선_31" data-name="선 31" x2="39.987" transform="translate(207.816 1383.293)" fill="#fff" stroke="#222" stroke-width="3.229"/>
          <line id="선_32" data-name="선 32" x2="39.987" transform="translate(207.816 1394.3)" fill="#fff" stroke="#222" stroke-width="3.229"/>
          <line id="선_33" data-name="선 33" x2="20.965" transform="translate(207.816 1405.309)" fill="#fff" stroke="#222" stroke-width="3.229"/>
        </g>
      </g>
      <g id="그룹_917" data-name="그룹 917">
        <path id="패스_4835" data-name="패스 4835" d="M248.1,1412.058a7.206,7.206,0,1,1-7.2-7.277A7.24,7.24,0,0,1,248.1,1412.058Z" fill="#caeaff" stroke="#222" stroke-width="3.245"/>
        <g id="그룹_916" data-name="그룹 916">
          <path id="패스_4836" data-name="패스 4836" d="M254.971,1442.683c0-11.775-6.3-21.319-14.074-21.319s-14.074,9.544-14.074,21.319c0,.114.011.227.011.337h28.125C254.96,1442.909,254.971,1442.8,254.971,1442.683Z" fill="#caeaff" stroke="#222" stroke-width="3.245"/>
        </g>
      </g>
    </g>
  </g>
</svg>
