<svg xmlns="http://www.w3.org/2000/svg" width="78" height="61" viewBox="0 0 78 61">
  <g id="Vector_Smart_Object" data-name="Vector Smart Object" transform="translate(-305.294 -788.938)">
    <g id="그룹_923" data-name="그룹 923">
      <g id="그룹_922" data-name="그룹 922">
        <g id="그룹_920" data-name="그룹 920">
          <path id="패스_4839" data-name="패스 4839" d="M369.566,814.748a11.152,11.152,0,1,1,0,22.3Z" fill="#ff6c61"/>
          <path id="패스_4840" data-name="패스 4840" d="M369.566,839.61a2.56,2.56,0,0,1-2.561-2.558v-22.3a2.56,2.56,0,0,1,2.561-2.558,13.71,13.71,0,1,1,0,27.419Zm2.561-21.915v16.411a8.592,8.592,0,0,0,0-16.411Z" fill="#ff6c61"/>
        </g>
        <g id="그룹_921" data-name="그룹 921">
          <path id="패스_4841" data-name="패스 4841" d="M319.023,814.748a11.152,11.152,0,1,0,0,22.3Z" fill="#ff6c61"/>
          <path id="패스_4842" data-name="패스 4842" d="M319.023,839.61a13.71,13.71,0,1,1,0-27.419,2.56,2.56,0,0,1,2.561,2.558v22.3A2.56,2.56,0,0,1,319.023,839.61Zm-2.561-21.916a8.592,8.592,0,0,0,0,16.412Z" fill="#ff6c61"/>
        </g>
        <path id="패스_4843" data-name="패스 4843" d="M369.452,839.39a2.56,2.56,0,0,1-2.561-2.558V816.618a22.6,22.6,0,0,0-45.191,0v20.214a2.561,2.561,0,0,1-5.122,0V816.618a27.718,27.718,0,0,1,55.436,0v20.214A2.56,2.56,0,0,1,369.452,839.39Z" fill="#ff6c61"/>
      </g>
      <path id="패스_4844" data-name="패스 4844" d="M344.295,849.939a15.166,15.166,0,0,1-10.789-4.463,3.2,3.2,0,1,1,4.528-4.521,8.861,8.861,0,0,0,12.521,0,3.2,3.2,0,0,1,4.528,4.522A15.171,15.171,0,0,1,344.295,849.939Z" fill="#ffb8b6"/>
    </g>
  </g>
</svg>
