<svg xmlns="http://www.w3.org/2000/svg" xmlns:xlink="http://www.w3.org/1999/xlink" width="250" height="160" viewBox="0 0 250 160">
  <defs>
    <clipPath id="clip-path">
      <rect id="Rectangle_16_copy_2" data-name="Rectangle 16 copy 2" width="250" height="160" rx="12" transform="translate(3109 2116)" fill="#fff" stroke="#e6e6e6" stroke-width="1"/>
    </clipPath>
  </defs>
  <g id="Clip" transform="translate(-3109 -2116)" clip-path="url(#clip-path)">
    <g id="Vector_Smart_Object" data-name="Vector Smart Object" transform="translate(2625.417 1835.85)">
      <g id="그룹_919" data-name="그룹 919">
        <g id="그룹_918" data-name="그룹 918">
          <path id="패스_4837" data-name="패스 4837" d="M655.935,389.2h26.435v-6.617a8.615,8.615,0,0,1,3.214-6.724,8.514,8.514,0,0,0-5.385-1.91H655.935a8.616,8.616,0,0,0-8.593,8.635v15.248A8.614,8.614,0,0,1,655.935,389.2Z" fill="#fff" stroke="#222" stroke-linecap="round" stroke-linejoin="round" stroke-width="3.526"/>
          <rect id="사각형_871" data-name="사각형 871" width="53.663" height="41.055" transform="translate(659.238 362.917)" fill="#caeaff" stroke="#222" stroke-linecap="round" stroke-linejoin="round" stroke-width="3.526"/>
          <path id="패스_4838" data-name="패스 4838" d="M715.23,373.948H690.965a8.507,8.507,0,0,0-5.381,1.91,8.615,8.615,0,0,0-3.214,6.724V389.2H655.935a8.614,8.614,0,0,0-8.593,8.631v39.92a8.615,8.615,0,0,0,8.593,8.631h59.3a8.614,8.614,0,0,0,8.593-8.631V382.583A8.615,8.615,0,0,0,715.23,373.948Z" fill="#fff" stroke="#222" stroke-linecap="round" stroke-linejoin="round" stroke-width="3.526"/>
        </g>
        <line id="선_34" data-name="선 34" x1="17.016" transform="translate(693.112 428.883)" fill="none" stroke="#222" stroke-width="3.518"/>
        <line id="선_35" data-name="선 35" x1="17.016" transform="translate(693.112 417.209)" fill="none" stroke="#222" stroke-width="3.518"/>
      </g>
    </g>
  </g>
</svg>
