<svg xmlns="http://www.w3.org/2000/svg" xmlns:xlink="http://www.w3.org/1999/xlink" width="380" height="152" viewBox="0 0 380 152">
  <defs>
    <clipPath id="clip-path">
      <rect id="Rectangle_15" data-name="Rectangle 15" width="380" height="152" rx="18" transform="translate(3387 1926)" fill="#5ca6fa"/>
    </clipPath>
  </defs>
  <g id="마스크_그룹_3" data-name="마스크 그룹 3" transform="translate(-3387 -1926)" clip-path="url(#clip-path)">
    <g id="그룹_6815" data-name="그룹 6815" transform="translate(3621.978 1945.224)">
      <g id="그룹_6768" data-name="그룹 6768" transform="translate(0 5.225)">
        <g id="그룹_6766" data-name="그룹 6766">
          <g id="Layer11_1_MEMBER_0_MEMBER_0_MEMBER_0_MEMBER_0_FILL" data-name="Layer11 1 MEMBER 0 MEMBER 0 MEMBER 0 MEMBER 0 FILL">
            <path id="패스_17408" data-name="패스 17408" d="M445.016,488.494q-2,1.44-4.311,2.915-1.644,1.05-4.687,3.2-4.037,2.848-7.715,5.686l-.1.075q-2.783,2.15-5.084,4.078,7.881-2.063,15.82-4.152l.612-.161q16.489-4.343,16.785-4.487l-1.432,20.144A69.151,69.151,0,0,1,440.741,521a159.3,159.3,0,0,1-16.571,3.365q-3.555.528-6.875.792a35.051,35.051,0,0,1-10.486-.258,12.882,12.882,0,0,1-2.985-.924,14.916,14.916,0,0,1-7.884-8.014,13.611,13.611,0,0,1,.034-11.09,22.145,22.145,0,0,1,2.388-4.251q.234-.33.484-.652a57.763,57.763,0,0,1,9.93-10.1q3.7-2.939,7.484-5.753,1.069-.794,2.142-1.579.715-.518,1.435-1.028,2.939-2.078,5.849-3.9a70.515,70.515,0,0,1,10.847-5.736l7.53,14.747Z" transform="translate(-394.776 -470.859)" fill="#182235"/>
            <path id="패스_17409" data-name="패스 17409" d="M429.233,469.008q.52,1.028,1.2,2.371,1.454,2.848,3.661,7.114l1.218,2.359q.635,1.23,1.194,2.306l-2.251,1.5-7.53-14.746Q428.039,469.383,429.233,469.008Z" transform="translate(-384.972 -468.89)" fill="#fcfbff"/>
            <path id="패스_17410" data-name="패스 17410" d="M390.2,473.482q-.359.068-.7.145.118.582.258,1.423.106.65.2,1.348c.069-.011.141-.021.216-.029q.185-.019.8-.019a4.727,4.727,0,0,1,2.718.662,1.661,1.661,0,0,1,.811,1.394,1.369,1.369,0,0,1-1.1,1.324,9.159,9.159,0,0,1-2.72.294q-1.543,0-3.965-.111l-1.266-.058a10.03,10.03,0,0,1-3.546.739l-1.218-2.359q-2.207-4.266-3.661-7.114a24.005,24.005,0,0,1,4.747-1.784,27.421,27.421,0,0,1,6.6-.705,25.731,25.731,0,0,1,7.751.883q2.573.869,2.573,2.532,0,.669-1.211,1a13.823,13.823,0,0,1-4.229.214A12.6,12.6,0,0,0,390.2,473.482Z" transform="translate(-331.567 -468.632)" fill="#ffbab1"/>
          </g>
        </g>
        <g id="그룹_6767" data-name="그룹 6767" transform="translate(76.628 130.335)">
          <path id="Layer11_1_MEMBER_0_MEMBER_0_MEMBER_0_MEMBER_0_1_STROKES" data-name="Layer11 1 MEMBER 0 MEMBER 0 MEMBER 0 MEMBER 0 1 STROKES" d="M345.971,884.007a30.377,30.377,0,0,0-.364,3.43" transform="translate(-345.607 -884.007)" fill="none" stroke="#ff7272" stroke-linecap="round" stroke-linejoin="round" stroke-width="1"/>
        </g>
      </g>
      <g id="그룹_6770" data-name="그룹 6770" transform="translate(70.29 98.097)">
        <g id="그룹_6769" data-name="그룹 6769">
          <g id="Layer11_1_MEMBER_0_MEMBER_0_MEMBER_0_MEMBER_0_MEMBER_0_MEMBER_0_FILL" data-name="Layer11 1 MEMBER 0 MEMBER 0 MEMBER 0 MEMBER 0 MEMBER 0 MEMBER 0 FILL">
            <path id="패스_17411" data-name="패스 17411" d="M272.924,1183.4l-.462-1.6-.241,3.108,20.339,7.736q12.509,5.986,2.2-9.538Z" transform="translate(-269.691 -1050.899)" fill="#ffebe4"/>
            <path id="패스_17412" data-name="패스 17412" d="M305.312,767.134q0-1.255.008-2.521l-28.187,2.947q3.17,89.156,3.233,129.558l21.841-.294q1.085-12.485,1.8-35.066Q305.1,826.681,305.312,767.134Z" transform="translate(-277.132 -764.613)" fill="#141923"/>
          </g>
        </g>
      </g>
      <g id="그룹_6772" data-name="그룹 6772" transform="translate(41.676 98.097)">
        <g id="그룹_6771" data-name="그룹 6771">
          <g id="Layer11_1_MEMBER_0_MEMBER_0_MEMBER_0_MEMBER_0_MEMBER_0_MEMBER_1_FILL" data-name="Layer11 1 MEMBER 0 MEMBER 0 MEMBER 0 MEMBER 0 MEMBER 0 MEMBER 1 FILL">
            <path id="패스_17413" data-name="패스 17413" d="M397.588,1183.4l.506-1.6.156,3.108-20.552,7.736q-12.629,5.986-1.942-9.538Z" transform="translate(-370.856 -1050.899)" fill="#ffebe4"/>
            <path id="패스_17414" data-name="패스 17414" d="M365.756,764.613l23.977,2.521q-1.424,59.547-1.284,94.624-.995,20.831-1.414,35.36l-21.833-.294Q363.287,864.51,365.756,764.613Z" transform="translate(-360.304 -764.613)" fill="#141923"/>
          </g>
        </g>
      </g>
      <g id="그룹_6774" data-name="그룹 6774" transform="translate(41.421 27.373)">
        <g id="그룹_6773" data-name="그룹 6773">
          <g id="Layer11_1_MEMBER_0_MEMBER_0_MEMBER_0_MEMBER_0_MEMBER_1_FILL" data-name="Layer11 1 MEMBER 0 MEMBER 0 MEMBER 0 MEMBER 0 MEMBER 1 FILL">
            <path id="패스_17415" data-name="패스 17415" d="M354.272,560.059l-2.617-1.047-.732-3.471,3.827-2.872,1.129,3.531Z" transform="translate(-321.978 -548.448)" fill="#236ec9"/>
            <path id="패스_17416" data-name="패스 17416" d="M362.8,572.884l2.617,1.047-2.32,18.013-6.572,9.333-.477-10.717Z" transform="translate(-333.124 -562.32)" fill="#2465b4"/>
            <path id="패스_17417" data-name="패스 17417" d="M285.519,545.883q.662.262,1.295.558a30.9,30.9,0,0,1,14.222,15.426,60.074,60.074,0,0,1,4.961,20.6,78.213,78.213,0,0,1-.525,14.884q-.3,2.987-.645,5.977-.775,6.663-1.613,13.312-.113.886-.224,1.769-.1.777-.195,1.553-.1.715-.19,1.435-.363,2.776-.746,5.549-2.118,1.464-4.292,2.711a55.631,55.631,0,0,1-27.382,7.373q-1.281.012-2.547-.024l-3.346-5.517-1.712,5.142a55.09,55.09,0,0,1-24.7-9.342q-.056-3.664-.152-7.325-.171-6.748-.505-13.474-.122-2.487-.267-4.976a115.617,115.617,0,0,1,1.247-33.831,26.244,26.244,0,0,1,8.683-15.447,33.856,33.856,0,0,1,11.133-6.536l1.163,26.208.477,10.717,6.572-9.333Z" transform="translate(-236.256 -543.662)" fill="#1f2d47"/>
            <path id="패스_17418" data-name="패스 17418" d="M301.97,541.249a36.082,36.082,0,0,1,11.706-1.974q1.688-.014,3.385-.055a32.971,32.971,0,0,1,11.268,1.8q.578.2,1.141.419l-19.289,27.4,2.32-18.013,1.608-3.859-1.129-3.531-3.827,2.872.732,3.471-6.752,17.676Z" transform="translate(-280.208 -539.216)" fill="#f8f7ff"/>
          </g>
        </g>
      </g>
      <g id="그룹_6776" data-name="그룹 6776" transform="translate(55.615 31.733)">
        <g id="그룹_6775" data-name="그룹 6775">
          <g id="Layer11_1_MEMBER_0_MEMBER_0_MEMBER_0_MEMBER_0_MEMBER_1_MEMBER_0_FILL" data-name="Layer11 1 MEMBER 0 MEMBER 0 MEMBER 0 MEMBER 0 MEMBER 1 MEMBER 0 FILL">
            <path id="패스_17419" data-name="패스 17419" d="M333.979,557.744a.23.23,0,0,1,.065-.171.241.241,0,0,1,.416.154l.356,9.961a.241.241,0,0,1-.139.226l-7.2,3.341.5,4.636a.258.258,0,0,1-.017.118.238.238,0,0,1-.072.094l-16.528,13.382a.237.237,0,0,1-.337-.036.222.222,0,0,1-.053-.176.231.231,0,0,1,.087-.161l16.427-13.3-.462-4.343-3,1.389a.235.235,0,0,1-.318-.116.231.231,0,0,1-.01-.185.239.239,0,0,1,.125-.135l10.512-4.877-.351-9.8m-30.654-4.513a.234.234,0,0,1,.147-.111.243.243,0,0,1,.294.171.24.24,0,0,1-.024.183l-4.489,7.674,2.951,5.18,1.777-3.016a.241.241,0,0,1,.441.063.236.236,0,0,1-.027.183l-1.979,3.361-.022.036-2.311,3.921,6.088,14.6a.24.24,0,0,1,0,.185.236.236,0,0,1-.13.13.23.23,0,0,1-.185,0,.226.226,0,0,1-.13-.13l-6.134-14.716a.225.225,0,0,1-.019-.108.247.247,0,0,1,.034-.106l2.316-3.928-3.158-5.542a.232.232,0,0,1-.031-.12.239.239,0,0,1,.034-.121Z" transform="translate(-298.732 -553.112)" fill="#182235"/>
          </g>
        </g>
      </g>
      <g id="그룹_6778" data-name="그룹 6778" transform="translate(81.406 29.727)">
        <g id="그룹_6777" data-name="그룹 6777">
          <g id="Layer11_1_MEMBER_0_MEMBER_0_MEMBER_0_MEMBER_0_MEMBER_1_MEMBER_1_FILL" data-name="Layer11 1 MEMBER 0 MEMBER 0 MEMBER 0 MEMBER 0 MEMBER 1 MEMBER 1 FILL">
            <path id="패스_17420" data-name="패스 17420" d="M190.782,546.72q4.43,2.223,8.267,4.494a54.182,54.182,0,0,1,23.678,25.247,62.185,62.185,0,0,1,5.686,21.527q.1,1.132.158,2.271.854,15.684-12.649,19.8a6.027,6.027,0,0,1-4.049-.179,51.556,51.556,0,0,1-22.916-17.487,75.845,75.845,0,0,1-7.394-12.089l13.216-13.842,4.269,4.379v-.381l-8.267-33.734M215,597.027q-.122-.305-.248-.606a25.836,25.836,0,0,0-14.589-14.437Z" transform="translate(-181.564 -546.72)" fill="#1f2d47"/>
            <path id="패스_17421" data-name="패스 17421" d="M239.553,673.542q.127.3.248.606l-14.837-15.044A25.836,25.836,0,0,1,239.553,673.542Z" transform="translate(-206.361 -623.841)" fill="#172238"/>
          </g>
        </g>
      </g>
      <g id="그룹_6780" data-name="그룹 6780" transform="translate(79.655 43.065)">
        <g id="그룹_6779" data-name="그룹 6779">
          <path id="Layer11_1_MEMBER_0_MEMBER_0_MEMBER_0_MEMBER_0_MEMBER_1_MEMBER_1_MEMBER_0_1_STROKES" data-name="Layer11 1 MEMBER 0 MEMBER 0 MEMBER 0 MEMBER 0 MEMBER 1 MEMBER 1 MEMBER 0 1 STROKES" d="M328.766,589.228l-3.821,26.01" transform="translate(-324.945 -589.228)" fill="none" stroke="#ff7272" stroke-linecap="round" stroke-linejoin="round" stroke-width="11"/>
        </g>
      </g>
      <g id="그룹_6782" data-name="그룹 6782" transform="translate(75.16 28.295)">
        <g id="그룹_6781" data-name="그룹 6781">
          <g id="Layer11_1_MEMBER_0_MEMBER_0_MEMBER_0_MEMBER_0_MEMBER_1_MEMBER_1_MEMBER_1_MEMBER_0_FILL" data-name="Layer11 1 MEMBER 0 MEMBER 0 MEMBER 0 MEMBER 0 MEMBER 1 MEMBER 1 MEMBER 1 MEMBER 0 FILL">
            <path id="패스_17422" data-name="패스 17422" d="M296.888,542.285a10.871,10.871,0,0,1,3.327,0,9.615,9.615,0,0,1,1.15.255,9.218,9.218,0,0,1,2.81,1.364,10.453,10.453,0,0,1,1.336,1.134,9.844,9.844,0,0,1,0,13.919,10,10,0,0,1-2.528,1.861,9.707,9.707,0,0,1-9.928-.635,10.222,10.222,0,0,1-1.12-.9q-.174-.16-.342-.328a9.839,9.839,0,0,1,0-13.919,10.506,10.506,0,0,1,1.462-1.224,9.181,9.181,0,0,1,2.68-1.274,9.7,9.7,0,0,1,1.152-.255m-2.121,4.082a7.2,7.2,0,0,0-1.007.843,6.772,6.772,0,0,0,0,9.581q.116.116.236.226a7.06,7.06,0,0,0,.771.617,6.317,6.317,0,0,0,.733.437,6.953,6.953,0,0,0,6.1,0,6.869,6.869,0,0,0,1.74-1.28,6.777,6.777,0,0,0,0-9.581,7.245,7.245,0,0,0-.919-.781,6.377,6.377,0,0,0-2.726-1.114,7.518,7.518,0,0,0-2.291,0,6.474,6.474,0,0,0-.793.176A6.277,6.277,0,0,0,294.767,546.367Z" transform="translate(-288.709 -542.157)" fill="#8c919a"/>
            <path id="패스_17423" data-name="패스 17423" d="M300.477,553.924a7.2,7.2,0,0,1,1.007-.843,6.279,6.279,0,0,1,1.845-.877,6.433,6.433,0,0,1,.793-.176,7.5,7.5,0,0,1,2.291,0,6.373,6.373,0,0,1,2.726,1.114,7.25,7.25,0,0,1,.919.781,6.777,6.777,0,0,1,0,9.581,6.865,6.865,0,0,1-1.74,1.28,6.952,6.952,0,0,1-6.1,0,6.313,6.313,0,0,1-.733-.437,7.06,7.06,0,0,1-.771-.617q-.12-.11-.236-.226a6.772,6.772,0,0,1,0-9.581Z" transform="translate(-295.426 -548.871)" fill="#fff"/>
          </g>
        </g>
      </g>
      <g id="그룹_6784" data-name="그룹 6784" transform="translate(75.286 53.091)">
        <g id="그룹_6783" data-name="그룹 6783">
          <g id="Layer11_1_MEMBER_0_MEMBER_0_MEMBER_0_MEMBER_0_MEMBER_1_MEMBER_1_MEMBER_2_FILL" data-name="Layer11 1 MEMBER 0 MEMBER 0 MEMBER 0 MEMBER 0 MEMBER 1 MEMBER 1 MEMBER 2 FILL">
            <path id="패스_17424" data-name="패스 17424" d="M298.049,624.89l-1.63-1.249q-1.575-1.382,2.149-2.363t13.806,7.99l-9.715,10.179-3.047-.735a7.906,7.906,0,0,1-4.071-4.147Q293,628.77,298.049,624.89Z" transform="translate(-294.693 -621.181)" fill="#ffbab1"/>
          </g>
        </g>
      </g>
      <g id="그룹_6786" data-name="그룹 6786" transform="translate(74.625 17.769)">
        <g id="그룹_6785" data-name="그룹 6785">
          <g id="Layer11_1_MEMBER_0_MEMBER_0_MEMBER_0_MEMBER_0_MEMBER_2_FILL" data-name="Layer11 1 MEMBER 0 MEMBER 0 MEMBER 0 MEMBER 0 MEMBER 2 FILL">
            <path id="패스_17425" data-name="패스 17425" d="M333.921,509.286v2.494a11.562,11.562,0,0,1-2.516.662,11.369,11.369,0,0,1-5.6-.6l1.271-3.23Z" transform="translate(-325.341 -508.61)" fill="#ee9887"/>
            <path id="패스_17426" data-name="패스 17426" d="M325.806,520.1l.465-1.329a11.368,11.368,0,0,0,5.6.6,11.552,11.552,0,0,0,2.516-.662v2.152l-6.254,3.5Z" transform="translate(-325.806 -515.543)" fill="#ffd9cd"/>
          </g>
        </g>
      </g>
      <g id="그룹_6788" data-name="그룹 6788" transform="translate(69.676 17.557)">
        <g id="그룹_6787" data-name="그룹 6787">
          <g id="Layer11_1_MEMBER_0_MEMBER_0_MEMBER_0_MEMBER_0_MEMBER_2_MEMBER_0_FILL" data-name="Layer11 1 MEMBER 0 MEMBER 0 MEMBER 0 MEMBER 0 MEMBER 2 MEMBER 0 FILL">
            <path id="패스_17427" data-name="패스 17427" d="M330.006,507.934l-1.785,8.963a22.387,22.387,0,0,0,8.086,1.553,15.3,15.3,0,0,0,4.179-.537l.076-9.365Z" transform="translate(-327.791 -507.934)" fill="#bf7b72"/>
            <path id="패스_17428" data-name="패스 17428" d="M328.823,536.5l-.43,1.835,4.43,2.989,8.287-2.958-.022-.85a15.3,15.3,0,0,1-4.179.537A22.39,22.39,0,0,1,328.823,536.5Z" transform="translate(-328.393 -527.535)" fill="#ffbab1"/>
          </g>
        </g>
      </g>
      <g id="그룹_6790" data-name="그룹 6790" transform="translate(58.967)">
        <g id="그룹_6789" data-name="그룹 6789">
          <g id="Layer11_1_MEMBER_0_MEMBER_0_MEMBER_0_MEMBER_0_MEMBER_2_MEMBER_1_MEMBER_0_MEMBER_0_MEMBER_0_FILL" data-name="Layer11 1 MEMBER 0 MEMBER 0 MEMBER 0 MEMBER 0 MEMBER 2 MEMBER 1 MEMBER 0 MEMBER 0 MEMBER 0 FILL">
            <path id="패스_17429" data-name="패스 17429" d="M288.355,479.323l.063.031,1.709-.517a21.306,21.306,0,0,0,5.96.8,16.13,16.13,0,0,0,5.987-1.189,21.486,21.486,0,0,0,4.672,2.785,27.373,27.373,0,0,0,7.811,2.109q.635.084,1.273.152,0,.3-.012.612a4.609,4.609,0,0,1,2.708-.176,2.631,2.631,0,0,1,2,1.745,5.2,5.2,0,0,1,.166,3.026,4.451,4.451,0,0,1-2.159,3.012,6.477,6.477,0,0,1-4.737.542q-.118-.017-.27-.048a3.627,3.627,0,0,1-.652-.209.376.376,0,0,1-.053-.017A14.147,14.147,0,0,1,290.7,490.6a14.31,14.31,0,0,1-1.278-2.253l-.267.024a7.383,7.383,0,0,1-1.382.026,6.6,6.6,0,0,1-2.2-.855,5.093,5.093,0,0,1-1.5-1.449,4.952,4.952,0,0,1-.749-1.885,6.23,6.23,0,0,1,.072-2.212,3.821,3.821,0,0,1,.573-1.327,4.524,4.524,0,0,1,.989-1.04,3.833,3.833,0,0,1,1.192-.616,2.408,2.408,0,0,1,1.187-.089.063.063,0,0,1,.017.01l.323.087A3.142,3.142,0,0,1,288.355,479.323Z" transform="translate(-283.243 -470.14)" fill="#ffbab1"/>
            <path id="패스_17430" data-name="패스 17430" d="M303.377,455.26a11.418,11.418,0,0,1,6.2-3.086,14.393,14.393,0,0,1,7.145.626,17.822,17.822,0,0,1,6,3.532,11.053,11.053,0,0,1,3.51,5.919,14.848,14.848,0,0,1,.376,3.079q-.638-.067-1.273-.152a27.373,27.373,0,0,1-7.811-2.109,21.483,21.483,0,0,1-4.672-2.785,16.129,16.129,0,0,1-5.987,1.189,21.31,21.31,0,0,1-5.96-.8l-1.709.517A18.52,18.52,0,0,1,303.377,455.26Z" transform="translate(-294.018 -451.981)" fill="#192631"/>
          </g>
        </g>
      </g>
      <g id="그룹_6792" data-name="그룹 6792" transform="translate(69.351 1.57)">
        <g id="그룹_6791" data-name="그룹 6791">
          <g id="Layer11_1_MEMBER_0_MEMBER_0_MEMBER_0_MEMBER_0_MEMBER_2_MEMBER_1_MEMBER_0_MEMBER_0_MEMBER_0_MEMBER_0_FILL" data-name="Layer11 1 MEMBER 0 MEMBER 0 MEMBER 0 MEMBER 0 MEMBER 2 MEMBER 1 MEMBER 0 MEMBER 0 MEMBER 0 MEMBER 0 FILL">
            <path id="패스_17431" data-name="패스 17431" d="M342.212,461.433a.162.162,0,0,1-.13.008.16.16,0,0,1-.094-.089.155.155,0,0,1-.007-.128.167.167,0,0,1,.087-.1l5.255-2.474a.169.169,0,0,1,.13-.005.166.166,0,0,1,.1.217.161.161,0,0,1-.087.094l-5.255,2.474m-4.646-.392a.159.159,0,0,1-.13,0,.152.152,0,0,1-.094-.087.151.151,0,0,1,0-.127.162.162,0,0,1,.087-.1L345.5,457a.166.166,0,0,1,.127,0,.173.173,0,0,1,.1.087.171.171,0,0,1,0,.13.162.162,0,0,1-.087.094Z" transform="translate(-337.326 -456.984)" fill="#1c0c0d"/>
          </g>
        </g>
      </g>
      <g id="그룹_6794" data-name="그룹 6794" transform="translate(60.882 12.136)">
        <g id="그룹_6793" data-name="그룹 6793">
          <g id="Layer11_1_MEMBER_0_MEMBER_0_MEMBER_0_MEMBER_0_MEMBER_2_MEMBER_1_MEMBER_0_MEMBER_0_MEMBER_0_MEMBER_1_FILL" data-name="Layer11 1 MEMBER 0 MEMBER 0 MEMBER 0 MEMBER 0 MEMBER 2 MEMBER 1 MEMBER 0 MEMBER 0 MEMBER 0 MEMBER 1 FILL">
            <path id="패스_17432" data-name="패스 17432" d="M323.9,495.325a.236.236,0,0,1,.183-.012.239.239,0,0,1,.152.306.232.232,0,0,1-.121.137l-3.5,1.741a.229.229,0,0,1-.185.012.24.24,0,0,1-.149-.3.231.231,0,0,1,.121-.14l3.5-1.74m-32.816-4.251a.241.241,0,0,1,.154-.416.236.236,0,0,1,.174.062l3.074,2.836a.237.237,0,0,1,.077.168.228.228,0,0,1-.062.171.236.236,0,0,1-.168.079.231.231,0,0,1-.174-.065Z" transform="translate(-291.012 -490.657)" fill="#d4650f"/>
          </g>
        </g>
      </g>
      <g id="그룹_6796" data-name="그룹 6796" transform="translate(72.48 19.981)">
        <g id="그룹_6795" data-name="그룹 6795">
          <g id="Layer11_1_MEMBER_0_MEMBER_0_MEMBER_0_MEMBER_0_MEMBER_2_MEMBER_1_MEMBER_0_MEMBER_0_MEMBER_1_FILL" data-name="Layer11 1 MEMBER 0 MEMBER 0 MEMBER 0 MEMBER 0 MEMBER 2 MEMBER 1 MEMBER 0 MEMBER 0 MEMBER 1 FILL">
            <path id="패스_17433" data-name="패스 17433" d="M339.984,516.681a.23.23,0,0,1-.185,0,.242.242,0,0,1-.137-.31.237.237,0,0,1,.128-.135,4.856,4.856,0,0,1,6.18,1.285.244.244,0,0,1,.058.176.235.235,0,0,1-.082.164.228.228,0,0,1-.176.058.223.223,0,0,1-.164-.082A4.422,4.422,0,0,0,339.984,516.681Z" transform="translate(-339.645 -515.661)" fill="#bf5a49"/>
          </g>
        </g>
      </g>
      <g id="그룹_6798" data-name="그룹 6798" transform="translate(73.232 12.554)">
        <g id="그룹_6797" data-name="그룹 6797">
          <g id="Layer11_1_MEMBER_0_MEMBER_0_MEMBER_0_MEMBER_0_MEMBER_2_MEMBER_1_MEMBER_0_MEMBER_0_MEMBER_1_MEMBER_0_MEMBER_0_FILL" data-name="Layer11 1 MEMBER 0 MEMBER 0 MEMBER 0 MEMBER 0 MEMBER 2 MEMBER 1 MEMBER 0 MEMBER 0 MEMBER 1 MEMBER 0 MEMBER 0 FILL">
            <path id="패스_17434" data-name="패스 17434" d="M351.46,493.549a.985.985,0,1,1,.639.406A.953.953,0,0,1,351.46,493.549Z" transform="translate(-351.277 -491.99)" fill="#331c2e"/>
          </g>
        </g>
      </g>
      <g id="그룹_6800" data-name="그룹 6800" transform="translate(80.336 14.17)">
        <g id="그룹_6799" data-name="그룹 6799">
          <g id="Layer11_1_MEMBER_0_MEMBER_0_MEMBER_0_MEMBER_0_MEMBER_2_MEMBER_1_MEMBER_0_MEMBER_0_MEMBER_1_MEMBER_1_FILL" data-name="Layer11 1 MEMBER 0 MEMBER 0 MEMBER 0 MEMBER 0 MEMBER 2 MEMBER 1 MEMBER 0 MEMBER 0 MEMBER 1 MEMBER 1 FILL">
            <path id="패스_17435" data-name="패스 17435" d="M328.813,498.7a.986.986,0,1,1,.639.406A.952.952,0,0,1,328.813,498.7Z" transform="translate(-328.63 -497.14)" fill="#331c2e"/>
          </g>
        </g>
      </g>
      <g id="그룹_6802" data-name="그룹 6802" transform="translate(75.174 15.941)">
        <g id="그룹_6801" data-name="그룹 6801">
          <g id="Layer11_1_MEMBER_0_MEMBER_0_MEMBER_0_MEMBER_0_MEMBER_2_MEMBER_1_MEMBER_0_MEMBER_0_MEMBER_1_MEMBER_2_FILL" data-name="Layer11 1 MEMBER 0 MEMBER 0 MEMBER 0 MEMBER 0 MEMBER 2 MEMBER 1 MEMBER 0 MEMBER 0 MEMBER 1 MEMBER 2 FILL">
            <path id="패스_17436" data-name="패스 17436" d="M345.319,503.521l1.468-.713a.234.234,0,0,1,.183-.012.241.241,0,0,1,.026.445l-1.208.585.727.987a.242.242,0,0,1,.043.18.246.246,0,0,1-.275.2.227.227,0,0,1-.156-.1l-.9-1.221a.228.228,0,0,1-.048-.13.24.24,0,0,1,.137-.229Z" transform="translate(-345.182 -502.783)" fill="#bf5a49"/>
          </g>
        </g>
      </g>
      <g id="그룹_6804" data-name="그룹 6804" transform="translate(69.356 9.522)">
        <g id="그룹_6803" data-name="그룹 6803">
          <g id="Layer11_1_MEMBER_0_MEMBER_0_MEMBER_0_MEMBER_0_MEMBER_2_MEMBER_1_MEMBER_0_MEMBER_0_MEMBER_1_MEMBER_3_FILL" data-name="Layer11 1 MEMBER 0 MEMBER 0 MEMBER 0 MEMBER 0 MEMBER 2 MEMBER 1 MEMBER 0 MEMBER 0 MEMBER 1 MEMBER 3 FILL">
            <path id="패스_17437" data-name="패스 17437" d="M319.341,483.448a3.832,3.832,0,0,1,6.543,2.71,4.3,4.3,0,0,1-.027.484l1.107.216a3.895,3.895,0,1,1-.18,1.2,4.2,4.2,0,0,1,.041-.585l-1.093-.217a3.836,3.836,0,1,1-6.391-3.806m2.71-.5a3.2,3.2,0,1,0,3.139,3.885l0-.007v-.01a3.3,3.3,0,0,0,.065-.662,3.205,3.205,0,0,0-3.206-3.206m5.469,4.234a.338.338,0,0,1-.01.113.328.328,0,0,1-.039.094,3.389,3.389,0,0,0-.062.662,3.085,3.085,0,1,0,.111-.869Z" transform="translate(-318.219 -482.326)" fill="#46627b"/>
            <path id="패스_17438" data-name="패스 17438" d="M328.88,488.668a.338.338,0,0,0,.01-.113,3.269,3.269,0,1,1-.111.869,3.387,3.387,0,0,1,.062-.662.327.327,0,0,0,.039-.094m-7.727-3.409a3.206,3.206,0,0,1,5.474,2.267,3.3,3.3,0,0,1-.065.662v.01l0,.007a3.209,3.209,0,1,1-5.407-2.946Z" transform="translate(-319.588 -483.695)" fill="rgba(255,255,255,0.42)"/>
          </g>
        </g>
      </g>
      <g id="그룹_6806" data-name="그룹 6806" transform="translate(73.077 8.712)">
        <g id="그룹_6805" data-name="그룹 6805">
          <g id="Layer11_1_MEMBER_0_MEMBER_0_MEMBER_0_MEMBER_0_MEMBER_2_MEMBER_1_MEMBER_0_MEMBER_0_MEMBER_2_FILL" data-name="Layer11 1 MEMBER 0 MEMBER 0 MEMBER 0 MEMBER 0 MEMBER 2 MEMBER 1 MEMBER 0 MEMBER 0 MEMBER 2 FILL">
            <path id="패스_17439" data-name="패스 17439" d="M326.815,481.652a1.94,1.94,0,0,0-.64-1.23,2.31,2.31,0,0,0-2.38-.555l3.02,1.785m7.739.041a2.278,2.278,0,0,0-2.426-.268,1.887,1.887,0,0,0-1.013.92Z" transform="translate(-323.795 -479.744)" fill="#6b3333"/>
          </g>
        </g>
      </g>
      <g id="그룹_6809" data-name="그룹 6809" transform="translate(81.392 18.662)">
        <g id="그룹_6808" data-name="그룹 6808">
          <g id="그룹_6807" data-name="그룹 6807">
            <g id="wgeawgewegwge_0_Layer0_0_FILL" data-name="wgeawgewegwge 0 Layer0 0 FILL">
              <path id="패스_17440" data-name="패스 17440" d="M312.434,514.351a2.736,2.736,0,0,1,.881-2.047,3.086,3.086,0,0,1,4.248,0,2.822,2.822,0,0,1,0,4.094,3.086,3.086,0,0,1-4.248,0A2.735,2.735,0,0,1,312.434,514.351Z" transform="translate(-312.434 -511.456)" fill="rgba(235,85,70,0.5)"/>
            </g>
          </g>
        </g>
      </g>
      <g id="그룹_6812" data-name="그룹 6812" transform="translate(65.215 15.427)">
        <g id="그룹_6811" data-name="그룹 6811">
          <g id="그룹_6810" data-name="그룹 6810">
            <g id="wgeawgewegwge_0_Layer0_0_FILL-2" data-name="wgeawgewegwge 0 Layer0 0 FILL">
              <path id="패스_17441" data-name="패스 17441" d="M363.989,504.04a2.736,2.736,0,0,1,.882-2.047,3.086,3.086,0,0,1,4.248,0,2.823,2.823,0,0,1,0,4.094,3.086,3.086,0,0,1-4.248,0A2.736,2.736,0,0,1,363.989,504.04Z" transform="translate(-363.989 -501.145)" fill="rgba(235,85,70,0.5)"/>
            </g>
          </g>
        </g>
      </g>
      <g id="그룹_6814" data-name="그룹 6814" transform="translate(103.096 2.343)">
        <g id="그룹_6813" data-name="그룹 6813">
          <g id="Layer10_1_FILL" data-name="Layer10 1 FILL">
            <path id="패스_17442" data-name="패스 17442" d="M232.191,459.863c.006-.136.016-.274.029-.414a26.533,26.533,0,0,0,.806,7.486,21.761,21.761,0,0,0,4.022,4.222q.154.123.306.248a12.31,12.31,0,0,0-6.223,9.025q-.056.3-.1.616a18.074,18.074,0,0,0-5.132-11.6Q231.916,466.776,232.191,459.863Z" transform="translate(-225.896 -459.449)" fill="#f2ef90"/>
          </g>
        </g>
      </g>
    </g>
  </g>
</svg>
