<svg xmlns="http://www.w3.org/2000/svg" xmlns:xlink="http://www.w3.org/1999/xlink" width="250" height="160" viewBox="0 0 250 160">
  <defs>
    <clipPath id="clip-path">
      <rect id="Rectangle_16" data-name="Rectangle 16" width="250" height="160" rx="12" transform="translate(2568 2116)" fill="#fff" stroke="#e6e6e6" stroke-width="1"/>
    </clipPath>
  </defs>
  <g id="Clip" transform="translate(-2568 -2116)" clip-path="url(#clip-path)">
    <g id="Vector_Smart_Object" data-name="Vector Smart Object" transform="translate(1925.525 998.839)">
      <g id="그룹_913" data-name="그룹 913">
        <g id="그룹_911" data-name="그룹 911">
          <path id="패스_4830" data-name="패스 4830" d="M844.8,1266.758v-1.172h37.432V1200.7H818.157v66.056a17.036,17.036,0,0,0,10.46,15.72h5.724A17.036,17.036,0,0,0,844.8,1266.758Z" fill="#caeaff" stroke="#222" stroke-linecap="round" stroke-linejoin="round" stroke-width="3.365"/>
          <path id="패스_4831" data-name="패스 4831" d="M882.232,1282.477h1.141a17.031,17.031,0,0,0,10.46-15.72v-1.172h-11.6" fill="#fff" stroke="#222" stroke-width="3.365"/>
          <path id="패스_4832" data-name="패스 4832" d="M882.232,1265.585H844.8v1.172a17.036,17.036,0,0,1-10.46,15.72h47.891" fill="#fff" stroke="#222" stroke-width="3.365"/>
        </g>
        <g id="그룹_912" data-name="그룹 912">
          <path id="패스_4833" data-name="패스 4833" d="M897.714,1189.846H855.273a7.087,7.087,0,0,0-7.081,7.093v23.282a7.088,7.088,0,0,0,7.081,7.094h10.374l-6,15.526,25.015-15.526h13.052a7.088,7.088,0,0,0,7.081-7.094v-23.282A7.087,7.087,0,0,0,897.714,1189.846Z" fill="#fff" stroke="#222" stroke-width="3.365"/>
          <line id="선_29" data-name="선 29" x2="24.837" transform="translate(864.059 1203.035)" fill="#fff" stroke="#222" stroke-width="3.362"/>
          <line id="선_30" data-name="선 30" x2="24.837" transform="translate(864.059 1215.491)" fill="#fff" stroke="#222" stroke-width="3.362"/>
        </g>
      </g>
    </g>
  </g>
</svg>
