<svg xmlns="http://www.w3.org/2000/svg" xmlns:xlink="http://www.w3.org/1999/xlink" width="1920" height="190" viewBox="0 0 1920 190">
  <defs>
    <linearGradient id="linear-gradient" x1="0.465" y1="-0.655" x2="0.541" y2="1.694" gradientUnits="objectBoundingBox">
      <stop offset="0" stop-color="#0062b7"/>
      <stop offset="1" stop-color="#3295dc"/>
    </linearGradient>
    <clipPath id="clip-path">
      <rect id="사각형_4837" data-name="사각형 4837" width="1920" height="190" transform="translate(0 85)" fill="url(#linear-gradient)"/>
    </clipPath>
    <linearGradient id="linear-gradient-3" x1="0.183" y1="0.994" x2="0.183" y2="-0.042" gradientUnits="objectBoundingBox">
      <stop offset="0"/>
      <stop offset="1" stop-color="#fff"/>
    </linearGradient>
    <linearGradient id="linear-gradient-5" x1="0.115" y1="0.994" x2="0.115" y2="-0.042" xlink:href="#linear-gradient-3"/>
    <clipPath id="clip-path-2">
      <path id="패스_18576" data-name="패스 18576" d="M1112.667,224.19,1079.392,264.3l-1.341-2.718-2.986-2.477-2.884-.787,33.275-40.111,2.884.787,2.986,2.477Z" transform="translate(-1072.181 -218.208)" fill="none"/>
    </clipPath>
    <clipPath id="clip-path-3">
      <path id="패스_18588" data-name="패스 18588" d="M1279.662,324.049a5.31,5.31,0,0,0-5.2.761c-3.431,2.337-8.868,8.323-12.27,13.6-3.183-2.32-7.576-4.95-10.948-7.081l-3.481,3.873c4.185,5.287,8.772,9.943,12.479,11.941a4.909,4.909,0,0,0,3.953.154l.006.019c1.915-.693,4.748-3.17,7.467-5.936l.6,1.675h9.36s.7-3.291,1.413-7.727C1283.622,331.7,1283.651,325.843,1279.662,324.049Z" transform="translate(-1247.766 -323.661)" fill="none"/>
    </clipPath>
    <clipPath id="clip-path-4">
      <path id="패스_18615" data-name="패스 18615" d="M410.667,1067.931l1.46-1.283c-.459-1.42-1.191-3.423-1.988-5.489-1.508-10.848-4.106-15.161-7.707-15.464-4.33-.365-5.559,5.8-5.334,10.23.144,2.835.736,6.951-.48,9.843s1.972,2.892,3.877,2.432a9.422,9.422,0,0,1,1.846-.3,43.306,43.306,0,0,0,3.338,4.408l4.1-3.6A1.485,1.485,0,0,0,410.667,1067.931Z" transform="translate(-396.349 -1045.68)" fill="none"/>
    </clipPath>
  </defs>
  <g id="상단img" transform="translate(0 -85)">
    <rect id="사각형_4864" data-name="사각형 4864" width="1920" height="190" transform="translate(0 85)" fill="url(#linear-gradient)"/>
    <g id="마스크_그룹_31" data-name="마스크 그룹 31" clip-path="url(#clip-path)">
      <g id="그룹_18959" data-name="그룹 18959" transform="translate(1208.178 53.299)" opacity="0.2">
        <path id="패스_18546" data-name="패스 18546" d="M71.421,276.4H-83.14L67.347-3h154.56Z" transform="translate(-21.938)" opacity="0.6" fill="url(#linear-gradient-3)" style="mix-blend-mode: screen;isolation: isolate"/>
        <path id="패스_18547" data-name="패스 18547" d="M225.735,276.4H71.174L221.661-3h154.56Z" transform="translate(-53.262)" opacity="0.6" fill="url(#linear-gradient-3)" style="mix-blend-mode: screen;isolation: isolate"/>
        <path id="패스_18548" data-name="패스 18548" d="M133.621,276.4H33.29L183.777-3H284.108Z" transform="translate(-45.572)" opacity="0.6" fill="url(#linear-gradient-5)" style="mix-blend-mode: screen;isolation: isolate"/>
        <path id="패스_18549" data-name="패스 18549" d="M416.418,276.4H316.087L466.574-3H566.9Z" transform="translate(-102.977)" opacity="0.6" fill="url(#linear-gradient-5)" style="mix-blend-mode: screen;isolation: isolate"/>
        <path id="패스_18550" data-name="패스 18550" d="M-90.881,276.4H-191.212L-40.725-3H59.606Z" opacity="0.6" fill="url(#linear-gradient-5)" style="mix-blend-mode: screen;isolation: isolate"/>
        <path id="패스_18551" data-name="패스 18551" d="M311.978,276.4H211.647L362.134-3H462.465Z" transform="translate(-81.777)" opacity="0.6" fill="url(#linear-gradient-5)" style="mix-blend-mode: screen;isolation: isolate"/>
      </g>
      <g id="Layer_1" data-name="Layer 1" transform="translate(1458.547 103.639)" opacity="0.96">
        <g id="그룹_18991" data-name="그룹 18991" transform="translate(49.754 49.531)">
          <g id="그룹_19037" data-name="그룹 19037" transform="translate(0 0)">
            <rect id="사각형_4858" data-name="사각형 4858" width="149.144" height="93.343" transform="translate(1.446 1.487)" fill="#fff"/>
            <g id="그룹_19024" data-name="그룹 19024" transform="translate(16.943 41.048)">
              <path id="패스_18671" data-name="패스 18671" d="M426.906,325.938h-11.2V297.486H399.617v28.451h-3.725v-4.823H379.8v4.823H375.13V301.1H359.037v24.834h-2.781V311.173H340.163v14.765h-2.738v-21.1H321.331v21.1h-9.964V287.845c0-.737-2.465-.738-2.465,0v38.666c0,.309.564.573,1.233.573H426.906C428.493,327.083,428.5,325.938,426.906,325.938Z" transform="translate(-308.902 -287.292)" fill="#d7eefd"/>
            </g>
            <g id="그룹_19025" data-name="그룹 19025" transform="translate(55.288 13.09)">
              <path id="패스_18672" data-name="패스 18672" d="M371.82,245.444h40.5c3.173,0,3.178-2.29,0-2.29h-40.5c-3.173,0-3.178,2.29,0,2.29Z" transform="translate(-369.438 -243.154)" fill="#d7eefd"/>
            </g>
            <g id="그룹_19026" data-name="그룹 19026" transform="translate(16.984 19.132)">
              <path id="패스_18673" data-name="패스 18673" d="M310.159,253.838H426.1c1.586,0,1.589-1.145,0-1.145H310.159c-1.587,0-1.589,1.145,0,1.145Z" transform="translate(-308.968 -252.693)" fill="#d7eefd"/>
            </g>
            <g id="그룹_19027" data-name="그룹 19027" transform="translate(16.984 23.316)">
              <path id="패스_18674" data-name="패스 18674" d="M310.159,260.443H426.1c1.586,0,1.589-1.146,0-1.146H310.159c-1.587,0-1.589,1.146,0,1.146Z" transform="translate(-308.968 -259.297)" fill="#d7eefd"/>
            </g>
            <g id="그룹_19028" data-name="그룹 19028" transform="translate(16.984 27.499)">
              <path id="패스_18675" data-name="패스 18675" d="M310.159,267.048h62.929c1.586,0,1.589-1.146,0-1.146H310.159c-1.587,0-1.589,1.146,0,1.146Z" transform="translate(-308.968 -265.902)" fill="#d7eefd"/>
            </g>
            <g id="그룹_19029" data-name="그룹 19029" transform="translate(91.298 27.499)">
              <path id="패스_18676" data-name="패스 18676" d="M427.479,267.048h42.459c1.587,0,1.589-1.146,0-1.146H427.479c-1.586,0-1.589,1.146,0,1.146Z" transform="translate(-426.289 -265.902)" fill="#d7eefd"/>
            </g>
            <g id="그룹_19030" data-name="그룹 19030" transform="translate(16.984 31.829)">
              <path id="패스_18677" data-name="패스 18677" d="M310.159,273.883h24.713c1.586,0,1.589-1.145,0-1.145H310.159c-1.587,0-1.589,1.145,0,1.145Z" transform="translate(-308.968 -272.738)" fill="#d7eefd"/>
            </g>
            <g id="그룹_19031" data-name="그룹 19031" transform="translate(52.024 31.829)">
              <path id="패스_18678" data-name="패스 18678" d="M365.476,273.883h24.713c1.587,0,1.589-1.145,0-1.145H365.476c-1.586,0-1.589,1.145,0,1.145Z" transform="translate(-364.285 -272.738)" fill="#d7eefd"/>
            </g>
            <g id="그룹_19032" data-name="그룹 19032" transform="translate(37.986 35.539)">
              <path id="패스_18679" data-name="패스 18679" d="M343.315,279.74h47.243c1.586,0,1.589-1.145,0-1.145H343.315c-1.587,0-1.589,1.145,0,1.145Z" transform="translate(-342.124 -278.595)" fill="#d7eefd"/>
            </g>
            <g id="그룹_19033" data-name="그룹 19033" transform="translate(16.984 35.539)">
              <path id="패스_18680" data-name="패스 18680" d="M310.159,279.74h12.356c1.587,0,1.589-1.145,0-1.145H310.159c-1.587,0-1.589,1.145,0,1.145Z" transform="translate(-308.968 -278.595)" fill="#d7eefd"/>
            </g>
            <g id="그룹_19034" data-name="그룹 19034" transform="translate(90.805 35.539)">
              <path id="패스_18681" data-name="패스 18681" d="M426.7,279.74h17.555c1.586,0,1.589-1.145,0-1.145H426.7c-1.586,0-1.589,1.145,0,1.145Z" transform="translate(-425.51 -278.595)" fill="#d7eefd"/>
            </g>
            <g id="그룹_19035" data-name="그룹 19035" transform="translate(116.202 35.539)">
              <path id="패스_18682" data-name="패스 18682" d="M466.8,279.74h17.554c1.587,0,1.589-1.145,0-1.145H466.8c-1.586,0-1.589,1.145,0,1.145Z" transform="translate(-465.606 -278.595)" fill="#d7eefd"/>
            </g>
            <g id="그룹_19036" data-name="그룹 19036" transform="translate(86.792 31.829)">
              <path id="패스_18683" data-name="패스 18683" d="M420.366,273.883H467.33c1.587,0,1.589-1.145,0-1.145H420.366c-1.586,0-1.589,1.145,0,1.145Z" transform="translate(-419.176 -272.738)" fill="#d7eefd"/>
            </g>
            <path id="패스_18684" data-name="패스 18684" d="M434.351,225.463H283.641a1.492,1.492,0,0,1-1.487-1.487h0a1.492,1.492,0,0,1,1.487-1.487h150.71a1.492,1.492,0,0,1,1.487,1.487h0A1.492,1.492,0,0,1,434.351,225.463Z" transform="translate(-282.154 -222.488)" fill="#d7eefd"/>
            <path id="패스_18685" data-name="패스 18685" d="M434.351,372.826H283.641a1.492,1.492,0,0,1-1.487-1.488h0a1.492,1.492,0,0,1,1.487-1.487h150.71a1.492,1.492,0,0,1,1.487,1.487h0A1.492,1.492,0,0,1,434.351,372.826Z" transform="translate(-282.154 -276.508)" fill="#d7eefd"/>
          </g>
          <path id="패스_18616" data-name="패스 18616" d="M1793.628,1460.457l-.941,7.525H1780.7l5.971-3.762.491-4.335Z" transform="translate(-1624.488 -1346.152)" fill="#293258"/>
          <path id="패스_18617" data-name="패스 18617" d="M1830.548,1018.245c4.915,7.143-1.647,19.195-1.647,19.195s-1.66,7.229-2.368,13.512-2.765,26.2-2.765,26.2l-11.077-.734s1-11.594,1.6-19.735c.29-3.935.787-8.168,1.148-11.517.932-8.646,3.046-27.187,3.046-27.187Z" transform="translate(-1652.369 -960.983)" fill="#495ca5"/>
          <line id="선_1141" data-name="선 1141" x1="11.111" y1="0.756" transform="translate(160.472 113.642)" fill="none" stroke="#1e2a58" stroke-width="0.5"/>
          <path id="패스_18618" data-name="패스 18618" d="M1869.611,1117.157s-1.957,13.391-2.506,18.841-2.643,27.307-2.643,27.307" transform="translate(-1697.492 -1047.426)" fill="none" stroke="#1e2a58" stroke-width="0.5"/>
          <path id="패스_18619" data-name="패스 18619" d="M1829.4,1474.282l6.458.428-.15,1.2Z" transform="translate(-1666.936 -1358.702)" fill="#293258"/>
          <path id="패스_18620" data-name="패스 18620" d="M2020.517,1438.458l2.7,6.187-6.049,4.662h-4.556l2.473-1.853.928-3.223-1.522-3.376Z" transform="translate(-1826.625 -1327.477)" fill="#293258"/>
          <path id="패스_18621" data-name="패스 18621" d="M1869.9,1020.036c5.646,7.428,7.223,25.256,8.563,28.616s10.278,25.846,10.278,25.846l-10.618,3.742s-9.952-23.2-11.085-27.351c-1.477-5.409-6.26-23.853-6.26-23.853l-2.939-7Z" transform="translate(-1691.718 -962.774)" fill="#5677bb"/>
          <line id="선_1142" data-name="선 1142" x1="10.649" y2="3.602" transform="translate(185.717 110.13)" fill="none" stroke="#2d3966" stroke-width="0.5"/>
          <path id="패스_18622" data-name="패스 18622" d="M1938.364,1076.27s-9.261-25.023-10.262-27.626c-.429-1.115-1.856-6.388-3.348-12.055-1.993-7.569-4.248-16.552-4.248-16.552" transform="translate(-1746.341 -962.774)" fill="none" stroke="#2d3966" stroke-width="0.5"/>
          <path id="패스_18623" data-name="패스 18623" d="M2029.758,1453.145l6.406-2.132.423.97Z" transform="translate(-1841.567 -1338.42)" fill="#293258"/>
          <path id="패스_18624" data-name="패스 18624" d="M1500.713,885.156c.78-.019,1.831-.068,1.831-.068l-1.489-.32c-.561-.12-.493-.32.083-.366l2.6-.205s-.525-.116-1-.241-.7-.285-.208-.367c.631-.105,17.892.011,23.021,1.021a73.522,73.522,0,0,1,6.707-3.337l2.8,9.065c-.49.17-.99.338-1.495.5a40.881,40.881,0,0,1-5.49,1.425,10.735,10.735,0,0,1-4.82.108c-.574-.106-3.589-.711-4.158-.843a157.179,157.179,0,0,1-17.9-5.083c-1.054-.342-.764-.529-.177-.5.477.027,1.413.076,1.413.076s-1.373-.335-1.864-.452C1499.987,885.433,1500.062,885.171,1500.713,885.156Z" transform="translate(-1379.974 -841.825)" fill="#fcc8b6"/>
          <path id="패스_18625" data-name="패스 18625" d="M1970.775,957.03c-.946,4.772-.628,22.678-.505,23.319.094.492.249.262.362-.218s.216-1.008.216-1.008.2,1.952.269,2.6c.06.575.262.637.368.073.083-.442.283-1.5.283-1.5s.076,1.05.114,1.83c.031.651.3.719.419.135.1-.494.405-1.875.405-1.875s-.025.936-.041,1.415c-.018.588.177.873.493-.19.393-1.326,6.225-19.573,5.776-24.209a4.4,4.4,0,0,0-.117-.67A37.182,37.182,0,0,0,1976,946.5q-.34-.765-.713-1.5l-8.208,4.96Z" transform="translate(-1786.935 -897.379)" fill="#fcc8b6"/>
          <g id="그룹_18990" data-name="그룹 18990" transform="translate(163.514 20.082)">
            <path id="패스_18629" data-name="패스 18629" d="M1885.479,822.421c-.329-1.84-1.85-10.238-1.85-10.238l-3.6,2.946s-.361,5.773-.472,7.639c-.125,2.081,1.575,2.819,3.13,2.728S1885.846,824.473,1885.479,822.421Z" transform="translate(-1875.614 -805.293)" fill="#fcc8b6"/>
            <path id="패스_18630" data-name="패스 18630" d="M1882.405,828.643l-2.069,2.752.178-2.864A4.213,4.213,0,0,0,1882.405,828.643Z" transform="translate(-1876.187 -817.249)" fill="#fda18a" opacity="0.4" style="mix-blend-mode: multiply;isolation: isolate"/>
            <path id="패스_18631" data-name="패스 18631" d="M1874.392,799.91c.154,2.722-.2,7.652,3.666,6.482l2.267-1.878,1.206-4.385-2.243-2.025Z" transform="translate(-1871.84 -794.997)" fill="#fcc8b6"/>
            <path id="패스_18632" data-name="패스 18632" d="M1871.959,793.122c-.35-.137-.262-1.321-.242-1.579.038-.5-.154-.859-.6-.6a8.29,8.29,0,0,1-3.329.769,2.943,2.943,0,0,1-2.738-2.582c-.188-.836-.54-2.266,1.406-1.767a7.915,7.915,0,0,0,3.956-.478c1.562-.507,2.458-.477,3.234.325.385.4.279.775.528,1.055.149.167.456.251.862.632.573.537.832,1.941-.125,4.735a6.164,6.164,0,0,1-1.527,2.433c-.2-.124-.3-.929-.307-1.041-.013-.2.212-.365.33-.507a1.249,1.249,0,0,0,.022-1.8c-.395-.28-.934.015-1.22.316C1872.134,793.1,1872.039,793.154,1871.959,793.122Z" transform="translate(-1864.894 -786.543)" fill="#293258"/>
          </g>
          <path id="패스_18626" data-name="패스 18626" d="M1768.18,845.215c7.734.457,14.131,5.253,17.974,12.786l-8.208,4.96,1.966,11.672h-17.326l-2.268-18.714s-3.386,1.559-7.432,2.964l-2.8-9.065C1755.9,847.1,1762.878,844.9,1768.18,845.215Z" transform="translate(-1597.802 -810.371)" fill="#ffe9b2"/>
          <path id="패스_18627" data-name="패스 18627" d="M1967.079,949.968,1976,946.5q-.34-.765-.713-1.5Z" transform="translate(-1786.935 -897.379)" fill="#fda18a" opacity="0.35" style="mix-blend-mode: multiply;isolation: isolate"/>
          <path id="패스_18628" data-name="패스 18628" d="M1750.086,881.272l1.3,9.565c.5-.162,1-.33,1.495-.5Z" transform="translate(-1597.801 -841.825)" fill="#fda18a" opacity="0.35" style="mix-blend-mode: multiply;isolation: isolate"/>
          <line id="선_1143" data-name="선 1143" x1="2.957" y1="5.367" transform="translate(177.241 47.189)" fill="none" stroke="#c98558" stroke-width="0.5"/>
        </g>
        <g id="그룹_18970" data-name="그룹 18970" transform="translate(228.439 64.589)">
          <path id="패스_18565" data-name="패스 18565" d="M1978.723,690.191l-19.325-.039a3.673,3.673,0,0,0-3.68,3.665l-.007,3.31a3.673,3.673,0,0,0,3.144,3.642l.614,4.34,3.684-4.294,15.548.031a3.673,3.673,0,0,0,3.68-3.665l.006-3.31A3.672,3.672,0,0,0,1978.723,690.191Z" transform="translate(-1955.711 -690.152)" fill="#ff8f71"/>
          <g id="그룹_18969" data-name="그룹 18969" transform="translate(3.439 4.212)">
            <line id="선_1129" data-name="선 1129" x2="19.451" y2="0.039" transform="translate(0.005)" fill="none" stroke="#fff" stroke-width="2"/>
            <line id="선_1130" data-name="선 1130" x2="14.258" y2="0.039" transform="translate(0 2.554)" fill="none" stroke="#fff" stroke-width="2"/>
          </g>
        </g>
        <g id="그룹_18978" data-name="그룹 18978" transform="translate(98.816 0)">
          <g id="그룹_18971" data-name="그룹 18971" transform="translate(47.288 13.187)">
            <path id="패스_18566" data-name="패스 18566" d="M1318.216,295.075c-1.074-2.326-1.694-3.65-2.093-4.439-.211-.417-.4-.418-.355.038a9.776,9.776,0,0,0,.183,1.031s-.776-1.657-1.033-2.2c-.229-.487-.426-.481-.347.049.062.414.209,1.4.209,1.4s-.388-.9-.661-1.576c-.227-.563-.48-.542-.41.01.059.467.218,1.775.218,1.775s-.26-.834-.4-1.258c-.149-.458-.352-.429-.347.136.018,2.311.118,4.687.3,7.027l5.05-1.272Q1318.37,295.428,1318.216,295.075Z" transform="translate(-1313.182 -288.963)" fill="#f0beaa"/>
            <path id="패스_18567" data-name="패스 18567" d="M1326.6,356.765a10.353,10.353,0,0,0-.61-1.8c-.231-.545-.4-1.09-.609-1.644-.727-1.9-1.536-3.772-2.359-5.634-.813-1.839-1.649-3.669-2.46-5.51l-5.05,1.272c.523,6.722,1.732,13.146,3.693,16.872a3.936,3.936,0,0,0,.507.737,4.594,4.594,0,0,0,2.458,1.519,3.6,3.6,0,0,0,2.54-.5,4.354,4.354,0,0,0,1.768-2.294,5.608,5.608,0,0,0,.144-2.915Z" transform="translate(-1315.216 -335.341)" fill="#e8795b"/>
          </g>
          <path id="패스_18568" data-name="패스 18568" d="M952.881,506.8v5.851h-8.03V501.185l3.5,5.613Z" transform="translate(-944.851 -460.752)" fill="#ff8f71"/>
          <path id="패스_18569" data-name="패스 18569" d="M997.577,551.261h-.946l.773-5.776Z" transform="translate(-989.983 -499.365)" fill="#e8795b" opacity="0.4" style="mix-blend-mode: multiply;isolation: isolate"/>
          <path id="패스_18570" data-name="패스 18570" d="M1282.337,801.948l2.107-8.069-.616-2.826-.2-.9,5.521-1.125.216.891.238.974.652,2.69Z" transform="translate(-1239.009 -711.64)" fill="#ff8f71"/>
          <path id="패스_18571" data-name="패스 18571" d="M1299.724,796.943l-5.777.159,5.54-1.134Z" transform="translate(-1249.128 -717.689)" fill="#e8795b" opacity="0.4" style="mix-blend-mode: multiply;isolation: isolate"/>
          <path id="패스_18572" data-name="패스 18572" d="M1041.954,516.635h-40.109l-.318-10.6,44.481-.279Z" transform="translate(-994.251 -464.738)" fill="#7ca2e8"/>
          <line id="선_1131" data-name="선 1131" x2="29.528" transform="translate(7.442 46.824)" fill="none" stroke="#495ca5" stroke-width="0.5"/>
          <line id="선_1132" data-name="선 1132" x2="0.159" y2="10.614" transform="translate(9.819 41.283)" fill="none" stroke="#495ca5" stroke-width="0.5"/>
          <g id="그룹_18974" data-name="그룹 18974" transform="translate(14.094 4.103)">
            <path id="패스_18573" data-name="패스 18573" d="M1112.667,224.19,1079.392,264.3l-1.341-2.718-2.986-2.477-2.884-.787,33.275-40.111,2.884.787,2.986,2.477Z" transform="translate(-1069.928 -218.208)" fill="#7d71b5"/>
            <path id="패스_18574" data-name="패스 18574" d="M1056.882,530.637l2.884.787,2.986,2.477,1.341,2.718-7.6,3.27-1.863.8.444-1.978Z" transform="translate(-1054.629 -490.526)" fill="#fcc8b6"/>
            <line id="선_1133" data-name="선 1133" x1="7.9" y2="6.603" transform="translate(0.223 43.375)" fill="none" stroke="#ff8f71" stroke-width="0.2"/>
            <line id="선_1134" data-name="선 1134" x1="5" y2="9.061" transform="translate(0.137 40.898)" fill="none" stroke="#ff8f71" stroke-width="0.2" stroke-dasharray="40 18"/>
            <path id="패스_18575" data-name="패스 18575" d="M1055.837,594.055a4.86,4.86,0,0,1,.654.656l-1.863.8.444-1.978A4.84,4.84,0,0,1,1055.837,594.055Z" transform="translate(-1054.629 -545.347)" fill="#293258"/>
            <g id="그룹_18973" data-name="그룹 18973" transform="translate(2.253)">
              <g id="그룹_18972" data-name="그룹 18972" clip-path="url(#clip-path-2)">
                <line id="선_1135" data-name="선 1135" y1="40.143" x2="33.301" transform="translate(2.858 0.787)" fill="none" stroke="#1e2a58" stroke-width="0.2"/>
                <line id="선_1136" data-name="선 1136" y1="40.149" x2="33.307" transform="translate(5.838 3.264)" fill="none" stroke="#1e2a58" stroke-width="0.2"/>
              </g>
            </g>
          </g>
          <g id="그룹_18975" data-name="그룹 18975" transform="translate(62.33)">
            <path id="패스_18577" data-name="패스 18577" d="M1474.94,302.619c-.571-1.7-3.193-9.436-3.193-9.436l-2.993,3.3s.472,5.518.628,7.3c.175,1.989,1.889,2.448,3.349,2.143S1475.577,304.512,1474.94,302.619Z" transform="translate(-1465.724 -281.746)" fill="#fcc8b6"/>
            <path id="패스_18578" data-name="패스 18578" d="M1471,309.825l-1.572,2.9-.235-2.737A4.037,4.037,0,0,0,1471,309.825Z" transform="translate(-1466.041 -293.869)" fill="#fda18a" opacity="0.4" style="mix-blend-mode: multiply;isolation: isolate"/>
            <path id="패스_18579" data-name="패스 18579" d="M1459.7,282.681c.529,2.557,1,7.209,4.385,5.624l1.882-2.1.526-4.323-2.41-1.6-3.776.372Z" transform="translate(-1459.125 -272.348)" fill="#fcc8b6"/>
            <path id="패스_18580" data-name="패스 18580" d="M1458.883,275.095a5.867,5.867,0,0,0,3.928,1.85c1.114-1.364,2.335.35,1.038,1.6.318,1.176.646,1.31.646,1.31,1.975-2.043,2.031-7.057-1.217-8.261-2.836-1.051-7.345,1.244-5.055,4.858A5.7,5.7,0,0,0,1458.883,275.095Z" transform="translate(-1457.597 -265.834)" fill="#293258"/>
            <path id="패스_18581" data-name="패스 18581" d="M1472.791,257.2c-2.6-2.087-2.253-4.675-.692-5.685s4.253-.24,4.706,1.705S1476.01,257.054,1472.791,257.2Z" transform="translate(-1467.275 -251.07)" fill="#293258"/>
          </g>
          <path id="패스_18582" data-name="패스 18582" d="M1249.005,474.745l-.985,2.08s-14.064,1.96-19.471,3.144c-6.225,1.363-7.914,5.021-7.377,9.51.691,5.779,6.3,28.537,6.341,28.238l10.239-2.1-4.566-26.018h18.544c6.651,0,12.708-4.321,6.636-14.859Z" transform="translate(-1185.615 -437.706)" fill="#aacffd"/>
          <path id="패스_18583" data-name="패스 18583" d="M1294.609,473.98c1.063,3.473,3.071,8.23-3.06,8.557s-17.242.765-20.635,1.133-3.919,2.611-3.429,4.982,5.617,27.319,5.617,27.319" transform="translate(-1225.927 -437.04)" fill="none" stroke="#5677bb" stroke-width="0.5"/>
          <line id="선_1137" data-name="선 1137" y1="2.088" x2="10.47" transform="translate(41.288 75.724)" fill="none" stroke="#5677bb" stroke-width="0.5"/>
          <path id="패스_18584" data-name="패스 18584" d="M1221.1,360.184c-2.189-1.33-3.443-2.084-4.214-2.516-.407-.228-.567-.123-.273.23a9.752,9.752,0,0,0,.727.754l-2.088-1.253c-.462-.277-.622-.161-.26.234l.957,1.049s-.825-.531-1.428-.939c-.5-.341-.7-.182-.335.237.31.355,1.171,1.352,1.171,1.352s-.681-.547-1.032-.822c-.38-.3-.531-.16-.212.306,1.3,1.908,2.713,3.824,4.17,5.664l3.481-3.873Z" transform="translate(-1179.394 -335.293)" fill="#fcc8b6"/>
          <path id="패스_18585" data-name="패스 18585" d="M1279.662,324.007a5.278,5.278,0,0,0-5.2.761c-3.431,2.337-8.868,8.323-12.27,13.6-3.183-2.32-7.576-4.95-10.948-7.081l-3.481,3.873c4.185,5.287,8.772,9.943,12.479,11.941a4.909,4.909,0,0,0,3.953.154l.006.019c1.915-.693,4.748-3.17,7.467-5.936l.6,1.675h9.36s.509-3.392,1.04-7.853C1283.323,329.641,1282.733,325.418,1279.662,324.007Z" transform="translate(-1208.876 -305.978)" fill="#ff8f71"/>
          <g id="그룹_18977" data-name="그룹 18977" transform="translate(38.89 17.642)">
            <g id="그룹_18976" data-name="그룹 18976" clip-path="url(#clip-path-3)">
              <path id="패스_18586" data-name="패스 18586" d="M1360.155,437.994a13.57,13.57,0,0,1,1.567,1.324" transform="translate(-1345.726 -423.315)" fill="none" stroke="#b0553e" stroke-width="0.5"/>
              <path id="패스_18587" data-name="패스 18587" d="M1433.685,408.207a101.564,101.564,0,0,0,7.063-8.023" transform="translate(-1409.816 -390.36)" fill="none" stroke="#b0553e" stroke-width="0.5"/>
            </g>
          </g>
        </g>
        <g id="그룹_18989" data-name="그룹 18989" transform="translate(0 95.696)">
          <g id="그룹_19023" data-name="그룹 19023" transform="translate(0 17.906)">
            <g id="그룹_19017" data-name="그룹 19017" transform="translate(21.518 38.621)">
              <g id="그룹_19001" data-name="그룹 19001">
                <path id="패스_18650" data-name="패스 18650" d="M196.9,588.832v14.349a.594.594,0,0,0,1.186,0V588.832A.594.594,0,0,0,196.9,588.832Z" transform="translate(-196.903 -588.259)" fill="#468799"/>
              </g>
            </g>
            <g id="그룹_19018" data-name="그룹 19018" transform="translate(20.089 35.634)">
              <path id="패스_18651" data-name="패스 18651" d="M191.961,585.234H196v-6.8l-4.043-.513Z" transform="translate(-191.961 -577.921)" fill="#468799"/>
            </g>
            <g id="그룹_19019" data-name="그룹 19019">
              <path id="패스_18652" data-name="패스 18652" d="M152.534,484.746c-6.212,2.1-13.076,3.024-17.486-2.832-3.319-4.408-4.235-10.35-5.049-15.661-.262-1.705.9-9.287-.8-11.008a2.118,2.118,0,0,0-2.6-.341c-5.822,2.606-4.213,16.658-2.9,21.123a19.829,19.829,0,0,0,13.658,13.7c15.838,4.877,26.84-4.745,25.851-7.118C162.475,480.854,153.715,484.347,152.534,484.746Z" transform="translate(-122.451 -454.623)" fill="#042c37"/>
            </g>
            <g id="그룹_19020" data-name="그룹 19020" transform="translate(12.897 52.95)">
              <g id="그룹_19005" data-name="그룹 19005">
                <path id="패스_18653" data-name="패스 18653" d="M183.91,637.841H167.648a.594.594,0,0,0,0,1.186H183.91A.594.594,0,0,0,183.91,637.841Z" transform="translate(-167.075 -637.841)" fill="#468799"/>
              </g>
            </g>
            <g id="그룹_19021" data-name="그룹 19021" transform="translate(11.485 52.704)">
              <path id="패스_18654" data-name="패스 18654" d="M164.538,636.988a2.348,2.348,0,1,0,2.348,2.348A2.349,2.349,0,0,0,164.538,636.988Z" transform="translate(-162.189 -636.988)" fill="#468799"/>
            </g>
            <g id="그룹_19022" data-name="그룹 19022" transform="translate(28.394 52.704)">
              <path id="패스_18655" data-name="패스 18655" d="M223.045,636.988a2.348,2.348,0,1,0,2.348,2.348A2.348,2.348,0,0,0,223.045,636.988Z" transform="translate(-220.697 -636.988)" fill="#468799"/>
            </g>
          </g>
          <g id="그룹_18984" data-name="그룹 18984" transform="translate(38.496 18.047)">
            <rect id="사각형_4855" data-name="사각형 4855" width="2.003" height="43.838" transform="translate(22.488 57.618) rotate(180)" fill="#495ca5"/>
            <g id="그룹_18982" data-name="그룹 18982" transform="translate(24.787 2.251)">
              <rect id="사각형_4856" data-name="사각형 4856" width="3.073" height="4.782" transform="translate(1.756 5.013)" fill="#ff8f71"/>
              <path id="패스_18595" data-name="패스 18595" d="M804.315,1137.194h-1.473a1.019,1.019,0,0,0-1.019,1.019v1.051a1.019,1.019,0,0,0,1.019,1.019h1.473a1.02,1.02,0,0,0,1.019-1.019v-1.051A1.019,1.019,0,0,0,804.315,1137.194Zm.515,2.07a.516.516,0,0,1-.515.515h-1.472a.516.516,0,0,1-.515-.515v-1.05a.516.516,0,0,1,.515-.515h1.472a.516.516,0,0,1,.515.515Z" transform="translate(-801.823 -1131.353)" fill="#ff8f71"/>
              <path id="패스_18596" data-name="패스 18596" d="M826.2,1091.7c.043.4-.366.725-.418,1.129-.068.526.48.98.425,1.508-.041.394-.415.726-.353,1.117a1.783,1.783,0,0,0,.12.339.483.483,0,0,1,.023.351" transform="translate(-822.698 -1091.697)" fill="none" stroke="#aacffd" stroke-linecap="round" stroke-linejoin="round" stroke-width="1"/>
            </g>
            <g id="그룹_18983" data-name="그룹 18983" transform="translate(6.232)">
              <path id="패스_18597" data-name="패스 18597" d="M670.04,1162.2H658.146a.853.853,0,0,1-.853-.853H670.04Z" transform="translate(-657.293 -1150.151)" fill="#7ca2e8"/>
              <path id="패스_18598" data-name="패스 18598" d="M750.327,1086.152l4.843-10.864a.853.853,0,0,0-.432-1.127l-5.345,11.991Z" transform="translate(-737.569 -1074.162)" fill="#7ca2e8"/>
            </g>
            <rect id="사각형_4857" data-name="사각형 4857" width="42.973" height="1.734" transform="translate(42.973 13.78) rotate(180)" fill="#293258"/>
          </g>
          <g id="그룹_18988" data-name="그룹 18988" transform="translate(9.722)">
            <path id="패스_18599" data-name="패스 18599" d="M586.69,1456.137l-5.546-3.671.57-1.277,1.353-3.035-5.714-1.859c-.392.923-.8,1.927-1.166,2.963q-.235.651-.447,1.315a19.25,19.25,0,0,0-1.054,5.564Z" transform="translate(-550.286 -1380.472)" fill="#ff8f71"/>
            <path id="패스_18600" data-name="패스 18600" d="M773.826,1433.375l1.84,2.859.773,1.2,2.937,4.565,11.464-.017-6.256-3.645-3.388-5.286-1.908-2.977Z" transform="translate(-723.859 -1366.335)" fill="#ff8f71"/>
            <path id="패스_18601" data-name="패스 18601" d="M581.7,1303.728l-7.012,20.743,10.518,3.673,6.928-22.579Z" transform="translate(-550.288 -1256.209)" fill="#995f6a"/>
            <line id="선_1138" data-name="선 1138" y1="21.639" x2="6.849" transform="translate(29.408 48.372)" fill="none" stroke="#492b48" stroke-width="0.5"/>
            <line id="선_1139" data-name="선 1139" x1="10.475" y1="3.621" transform="translate(25.033 66.39)" fill="none" stroke="#492b48" stroke-width="0.5"/>
            <path id="패스_18602" data-name="패스 18602" d="M582.9,1470.689l5.974.616-5.527-1.931Q583.108,1470.026,582.9,1470.689Z" transform="translate(-557.442 -1400.589)" fill="#e8795b" opacity="0.4" style="mix-blend-mode: multiply;isolation: isolate"/>
            <path id="패스_18603" data-name="패스 18603" d="M410.625,1202.332c-1.769,5.624-4.536,14.922,7.711,14.922h20.728c1.86,0,3.107-.165,4.52,2.1,1.323,2.119,11.569,19.853,11.569,19.853l9.653-5.553s-12.075-20.728-14.3-24.266-3.553-4.379-7.726-4.606-23.993-.771-23.993-.771l-.544-1.678Z" transform="translate(-405.914 -1167.83)" fill="#b17f88"/>
            <path id="패스_18604" data-name="패스 18604" d="M491.6,1236.374s-10.86-18.475-12.72-21.486-2.487-3.584-5.039-3.695c-4-.173-21.078-.278-24.133-.411s-5.563-.859-4.029-8.45" transform="translate(-437.436 -1167.83)" fill="none" stroke="#633e45" stroke-width="0.5"/>
            <line id="선_1140" data-name="선 1140" x1="9.802" y2="5.281" transform="translate(48.144 64.2)" fill="none" stroke="#633e45" stroke-width="0.5"/>
            <path id="패스_18605" data-name="패스 18605" d="M788.156,1456.447l.773,1.2,4.757-4.382Z" transform="translate(-736.35 -1386.547)" fill="#e8795b" opacity="0.4" style="mix-blend-mode: multiply;isolation: isolate"/>
            <g id="그룹_18985" data-name="그룹 18985">
              <path id="패스_18606" data-name="패스 18606" d="M440.614,1004.033s1.763.25,1.763.25l6.885.962c.128-4.621-.129-10.458-2.716-11.965C443.471,991.487,440.666,1003.943,440.614,1004.033Z" transform="translate(-433.733 -992.188)" fill="#e4b600"/>
              <path id="패스_18607" data-name="패스 18607" d="M433.273,1022.632c.507-1.779,2.838-9.895,2.838-9.895l3.249,3.258s-.219,5.718-.294,7.567c-.084,2.061-1.831,2.619-3.352,2.375S432.707,1024.616,433.273,1022.632Z" transform="translate(-428.347 -1006.353)" fill="#fcc8b6"/>
              <path id="패스_18608" data-name="패스 18608" d="M448.525,1029.3l1.763,2.915.11-2.837A4.167,4.167,0,0,1,448.525,1029.3Z" transform="translate(-439.44 -1018.303)" fill="#fda18a" opacity="0.4" style="mix-blend-mode: multiply;isolation: isolate"/>
              <path id="패스_18609" data-name="패스 18609" d="M445.533,1001.831c-.422,2.665-.685,7.49-4.253,6.017l-2.045-2.074-.752-4.437,2.41-1.771,4.9.587Z" transform="translate(-432.195 -996.851)" fill="#fcc8b6"/>
              <path id="패스_18610" data-name="패스 18610" d="M415.907,1000.674l8.181,1.166a18.6,18.6,0,0,1-.444-4.315c-.87-.714-.769-1.648-.34-2a.753.753,0,0,1,1.1.269c1.6.058,4.134-.39,5.012-1.571a2.3,2.3,0,0,0-.49-3.182c-3.208-2.28-6.167-1.031-8.44.974C419.121,993.217,417.066,996.2,415.907,1000.674Z" transform="translate(-415.907 -989.817)" fill="#e4b600"/>
            </g>
            <path id="패스_18611" data-name="패스 18611" d="M410.667,1067.931l1.46-1.283c-.459-1.42-1.191-3.423-1.988-5.489-1.508-10.848-4.106-15.161-7.707-15.464-4.33-.365-5.559,5.8-5.334,10.23.144,2.835.736,6.951-.48,9.843s1.972,2.892,3.877,2.432a9.422,9.422,0,0,1,1.846-.3,43.306,43.306,0,0,0,3.338,4.408l4.1-3.6A1.485,1.485,0,0,0,410.667,1067.931Z" transform="translate(-394.845 -1031.29)" fill="#ed9f7d"/>
            <path id="패스_18612" data-name="패스 18612" d="M463.6,1159.672c.741,2.015,3.119,3.722,7.611,1.787,3.164-1.364,14-10.075,16.672-12.4.322-.28,1.982-.093,3.81-.093,1.069,0-.833-1.34-2.989-1.754a16.9,16.9,0,0,0-6.351.5c-6.445,1.619-13.579,4.788-16.527,7.13C464.015,1156.272,463.016,1158.08,463.6,1159.672Z" transform="translate(-453.317 -1119.673)" fill="#fcc8b6"/>
            <g id="그룹_18987" data-name="그룹 18987" transform="translate(1.504 14.39)">
              <g id="그룹_18986" data-name="그룹 18986" clip-path="url(#clip-path-4)">
                <path id="패스_18613" data-name="패스 18613" d="M478.415,1107.477a73.555,73.555,0,0,0-4.06-9.337" transform="translate(-464.34 -1091.405)" fill="none" stroke="#703c3c" stroke-width="0.5"/>
                <path id="패스_18614" data-name="패스 18614" d="M405.707,1106.212a34.83,34.83,0,0,1-5.088-11.63,29.774,29.774,0,0,1-.6-5.386" transform="translate(-399.544 -1083.609)" fill="none" stroke="#703c3c" stroke-width="0.5"/>
              </g>
            </g>
          </g>
        </g>
      </g>
      <g id="그룹_19016" data-name="그룹 19016" transform="translate(1292 193.171)" opacity="0.96">
        <g id="_迹_2" data-name="卵迹_2" transform="translate(0 0)">
          <g id="그룹_19000" data-name="그룹 19000" transform="translate(89.684)">
            <g id="그룹_18993" data-name="그룹 18993" transform="translate(42.607 62.691)">
              <g id="그룹_18992" data-name="그룹 18992">
                <path id="패스_18633" data-name="패스 18633" d="M575.782,588.832v14.349a.594.594,0,0,0,1.186,0V588.832A.594.594,0,0,0,575.782,588.832Z" transform="translate(-575.782 -588.259)" fill="#468799"/>
              </g>
            </g>
            <g id="그룹_18994" data-name="그룹 18994" transform="translate(41.179 59.716)">
              <path id="패스_18634" data-name="패스 18634" d="M570.84,585.234h4.043v-7.313l-4.043.513Z" transform="translate(-570.84 -577.921)" fill="#468799"/>
            </g>
            <g id="그룹_18995" data-name="그룹 18995" transform="translate(24.493 24.101)">
              <path id="패스_18635" data-name="패스 18635" d="M549.772,454.905a2.118,2.118,0,0,0-2.6.341c-1.7,1.721-.54,9.3-.8,11.008-.814,5.311-1.73,11.254-5.049,15.661-4.41,5.856-11.274,4.931-17.486,2.832-1.181-.4-9.941-3.893-10.672-2.138-.988,2.373,10.014,12,25.851,7.118a19.83,19.83,0,0,0,13.658-13.7C553.986,471.564,555.594,457.511,549.772,454.905Z" transform="translate(-513.104 -454.623)" fill="#042c37"/>
            </g>
            <g id="그룹_18997" data-name="그룹 18997" transform="translate(35.006 77.02)">
              <g id="그룹_18996" data-name="그룹 18996">
                <path id="패스_18636" data-name="패스 18636" d="M566.315,637.841H550.053a.594.594,0,0,0,0,1.186h16.262A.594.594,0,0,0,566.315,637.841Z" transform="translate(-549.48 -637.841)" fill="#468799"/>
              </g>
            </g>
            <g id="그룹_18998" data-name="그룹 18998" transform="translate(49.129 76.774)">
              <path id="패스_18637" data-name="패스 18637" d="M600.7,636.988a2.348,2.348,0,1,0,2.349,2.348A2.348,2.348,0,0,0,600.7,636.988Z" transform="translate(-598.349 -636.988)" fill="#468799"/>
            </g>
            <g id="그룹_18999" data-name="그룹 18999" transform="translate(32.22 76.774)">
              <path id="패스_18638" data-name="패스 18638" d="M542.189,636.988a2.348,2.348,0,1,0,2.348,2.348A2.348,2.348,0,0,0,542.189,636.988Z" transform="translate(-539.841 -636.988)" fill="#468799"/>
            </g>
            <path id="패스_18639" data-name="패스 18639" d="M501.776,541.1s.771,15.58,0,27.637h2.89s8.537-21.516,5.714-26.709S501.776,541.1,501.776,541.1Z" transform="translate(-480.557 -490.868)" fill="#32606d"/>
            <path id="패스_18640" data-name="패스 18640" d="M550.192,377.891c-3.657,0-3.272,2.887-3.08,4.042s2.31,5.775,5,5.39a5.09,5.09,0,0,0,3.61-2.172,3.126,3.126,0,0,0,.433-.908c.193-.77-.577-3.272-1.347-4.619C554.812,379.624,553.85,377.891,550.192,377.891Z" transform="translate(-512.709 -375.929)" fill="#fcc8b6"/>
            <path id="패스_18641" data-name="패스 18641" d="M562.9,394.681s3.162,3.266,3.741,4.133,2.277-1.158,2.277-1.158l-3.468-5.78Z" transform="translate(-524.015 -385.872)" fill="#fcc8b6"/>
            <path id="패스_18642" data-name="패스 18642" d="M572.022,421.812c-1.156-8.381-7.482-9.936-7.482-9.936l-3.757,1.156c-7.915,6.249-1.911,18.461-1.044,21.062a61.178,61.178,0,0,1,1.622,7.225c8.565,3.54,10.661-1.59,10.661-1.59C569.71,436.117,573.178,430.193,572.022,421.812Z" transform="translate(-519.638 -400.092)" fill="#042c37"/>
            <path id="패스_18643" data-name="패스 18643" d="M491.7,508.255c-2.167,3.988-10.661,1.53-10.661,1.53s-8.751.417-16.072,1.229-10.4,1.6-12.011,9.019-9.183,26.524-9.183,26.524h3.276c10.982-11.5,10.982-23.185,14.643-24.877s10.6,1.507,14.73,2.117,13.978,2.914,17.061-4.134S491.7,508.255,491.7,508.255Z" transform="translate(-439.319 -468.685)" fill="#468799"/>
            <path id="패스_18644" data-name="패스 18644" d="M509.035,423.716a3.687,3.687,0,0,0-3.225-.8,7.854,7.854,0,0,0-3.076,1.5,22.094,22.094,0,0,0-5.787,6.5c-1.379,2.3-2.493,4.887-4.643,6.486a14.982,14.982,0,0,1-5.411,2.145l-11.344,2.855.018,1.061a144.15,144.15,0,0,0,15.8-.147c4.079-.262,6.158-2.2,9.228-4.7a51.689,51.689,0,0,0,6.526-6.34,11.184,11.184,0,0,0,2.817-4.9,4.341,4.341,0,0,0-.448-3.1A2.92,2.92,0,0,0,509.035,423.716Z" transform="translate(-461.91 -407.903)" fill="#042c37"/>
            <path id="패스_18645" data-name="패스 18645" d="M432.811,640.787c-2.071,1.437-3.8,2.118-4.405,2.916a.255.255,0,0,0,.2.407c1.645.1,7.115.368,7.483-.518a5.676,5.676,0,0,0,0-2.806Z" transform="translate(-428.353 -562.916)" fill="#090b3c"/>
            <path id="패스_18646" data-name="패스 18646" d="M490.811,640.787c-2.071,1.437-3.8,2.118-4.405,2.916a.255.255,0,0,0,.2.407c1.645.1,6.646.688,7.014-.2a7.6,7.6,0,0,0,.083-3.126Z" transform="translate(-469.591 -562.916)" fill="#090b3c"/>
            <path id="패스_18647" data-name="패스 18647" d="M462.494,489.848c-.819.638-1.638,2.228-.241,1.505a6.411,6.411,0,0,1,3.324-.445l-.018-1.061S463.313,489.209,462.494,489.848Z" transform="translate(-451.919 -455.357)" fill="#fcc8b6"/>
            <path id="패스_18648" data-name="패스 18648" d="M546.307,375.481a8.531,8.531,0,0,0-4.265-3.923c-2.422-1.12-3.863.072-4.923.9a15.544,15.544,0,0,0-2.683,2.062c-.734.884.911.118,0,1s-2.737,4.183-1.618,3.358,1.822-2.651,1.618-1.473-.086,2.062.385,1.768a13.027,13.027,0,0,0,1.582-1.625c.141-.192.377-.44.377-.44s-.154.183-.377.44c-.148.2-.193.338.244.066.854-.532.5-1.475,1.591-1.622s1.526.53,2.442,1.237.975,1.3,1.682.622.766-1.488,1.237-.79a2.454,2.454,0,0,1,.054,2.168c-.2.386.708,1.235.945,1.6s.526.849.526.849a6.53,6.53,0,0,0,.74-1.388c.268-.736,1.3-.747.74-1.994C545.6,376.07,546.76,376.537,546.307,375.481Z" transform="translate(-502.377 -371.101)" fill="#32606d"/>
            <path id="패스_18649" data-name="패스 18649" d="M546.091,392.318c.223-.257.377-.44.377-.44S546.232,392.126,546.091,392.318Z" transform="translate(-512.065 -385.873)" fill="#32606d"/>
          </g>
          <g id="그룹_19011" data-name="그룹 19011" transform="translate(0 3.779)">
            <g id="그룹_19002" data-name="그룹 19002" transform="translate(22.813 58.911)">
              <g id="그룹_19001-2" data-name="그룹 19001">
                <path id="패스_18650-2" data-name="패스 18650" d="M196.9,588.832v14.349a.594.594,0,0,0,1.186,0V588.832A.594.594,0,0,0,196.9,588.832Z" transform="translate(-196.903 -588.259)" fill="#468799"/>
              </g>
            </g>
            <g id="그룹_19003" data-name="그룹 19003" transform="translate(21.385 55.938)">
              <path id="패스_18651-2" data-name="패스 18651" d="M191.961,585.234H196v-6.8l-4.043-.513Z" transform="translate(-191.961 -577.921)" fill="#468799"/>
            </g>
            <g id="그룹_19004" data-name="그룹 19004" transform="translate(1.297 20.325)">
              <path id="패스_18652-2" data-name="패스 18652" d="M152.534,484.746c-6.212,2.1-13.076,3.024-17.486-2.832-3.319-4.408-4.235-10.35-5.049-15.661-.262-1.705.9-9.287-.8-11.008a2.118,2.118,0,0,0-2.6-.341c-5.822,2.606-4.213,16.658-2.9,21.123a19.829,19.829,0,0,0,13.658,13.7c15.838,4.877,26.84-4.745,25.851-7.118C162.475,480.854,153.715,484.347,152.534,484.746Z" transform="translate(-122.451 -454.623)" fill="#042c37"/>
            </g>
            <g id="그룹_19006" data-name="그룹 19006" transform="translate(14.193 73.241)">
              <g id="그룹_19005-2" data-name="그룹 19005">
                <path id="패스_18653-2" data-name="패스 18653" d="M183.91,637.841H167.648a.594.594,0,0,0,0,1.186H183.91A.594.594,0,0,0,183.91,637.841Z" transform="translate(-167.075 -637.841)" fill="#468799"/>
              </g>
            </g>
            <g id="그룹_19007" data-name="그룹 19007" transform="translate(12.781 72.994)">
              <path id="패스_18654-2" data-name="패스 18654" d="M164.538,636.988a2.348,2.348,0,1,0,2.348,2.348A2.349,2.349,0,0,0,164.538,636.988Z" transform="translate(-162.189 -636.988)" fill="#468799"/>
            </g>
            <g id="그룹_19008" data-name="그룹 19008" transform="translate(29.69 72.994)">
              <path id="패스_18655-2" data-name="패스 18655" d="M223.045,636.988a2.348,2.348,0,1,0,2.348,2.348A2.348,2.348,0,0,0,223.045,636.988Z" transform="translate(-220.697 -636.988)" fill="#468799"/>
            </g>
            <g id="그룹_19010" data-name="그룹 19010" transform="translate(16.969 10.831)">
              <path id="패스_18656" data-name="패스 18656" d="M219.556,438.719c-3.5-.469-7.052-.241-10.575-.462s-7.153-.953-9.977-3.072c-2.569-1.928-4.229-4.816-6.507-7.081a12.616,12.616,0,0,0-1.581-1.333,21.732,21.732,0,0,0-1.667-3.694l-3.757-1.156a9.525,9.525,0,0,0-4.913,4.335c-2.023,3.468-3.468,17.918-3.468,17.918s3.943,4.319,8.381,1.445c0,0,.289-8.092,2.312-8.67a11.724,11.724,0,0,0,1.995-.665,23.724,23.724,0,0,0,9.9,5.782c6.481,1.625,13.2-.833,19.863-1.372Q219.56,439.708,219.556,438.719Z" transform="translate(-176.986 -421.846)" fill="#fff"/>
              <g id="그룹_19009" data-name="그룹 19009">
                <path id="패스_18657" data-name="패스 18657" d="M219.251,438.423c-6.3-.78-13.3.614-19.091-2.611-2.541-1.414-4.241-3.717-6.054-5.915a36.747,36.747,0,0,0-2.794-2.913,10.4,10.4,0,0,1-1.719-3.107c-.567-1.146-.634-1.1-1.841-1.468a7.535,7.535,0,0,0-2.722-.737c-1.2.182-2.574,1.5-3.351,2.326a9.99,9.99,0,0,0-2.276,3.922,63.712,63.712,0,0,0-2.039,10.55q-.287,2.1-.525,4.2a3.655,3.655,0,0,0-.11,1.389c.3.784,2.025,1.587,2.69,1.882a5.976,5.976,0,0,0,4.825.11c1.259-.538,1.036-.682,1.129-1.9a25.376,25.376,0,0,1,.781-5.036,3.5,3.5,0,0,1,1.255-2.2,3.793,3.793,0,0,1,2.022-.476c.723.111,1.471,1.007,2.046,1.454a21.828,21.828,0,0,0,7.424,3.958c6.719,1.882,13.646-.65,20.36-1.243a.111.111,0,0,0,.108-.108q0-.988-.008-1.976a.108.108,0,0,0-.217,0c0,.629.255,1.542-.409,1.914a6.171,6.171,0,0,1-1.608.184c-1.41.185-2.812.427-4.214.668a54.424,54.424,0,0,1-8.354,1.016c-5.885.091-10.676-2.468-14.988-6.295a.114.114,0,0,0-.131-.017c-1.145.5-2.278.446-2.924,1.579a9.855,9.855,0,0,0-.94,3.131c-.192,1.068-.314,2.149-.4,3.23a6,6,0,0,1-.077,1.138c-.168.557-.5.6-1.143.85a6.072,6.072,0,0,1-5.466-.73c-.42-.263-1.484-.972-1.566-1.262a5.564,5.564,0,0,1,.179-1.636q.185-1.61.4-3.215c.39-2.923.829-5.851,1.486-8.728.681-2.985,1.7-5.629,4.312-7.494a4.646,4.646,0,0,1,1.959-1,12.311,12.311,0,0,1,3.02.929c.944.29,1.109,1.087,1.537,2.053.371.836.449,1.572,1.148,2.14a19.33,19.33,0,0,1,2.551,2.531,40.7,40.7,0,0,0,4.577,5.125,14.24,14.24,0,0,0,5.543,2.766c5.094,1.357,10.438.587,15.622,1.228C219.389,438.657,219.388,438.44,219.251,438.423Z" transform="translate(-176.682 -421.658)" fill="#bacedb"/>
              </g>
            </g>
            <path id="패스_18658" data-name="패스 18658" d="M178.693,502.048c-.825.206-1.659.427-2.491.666a6.646,6.646,0,0,1-1.22-2.233s-3.9,2.338-8.381-1.559c0,0-9.539,13.783-.108,17.515l.071.029.205.076q.165.061.333.115l.08.026q.228.072.46.134l.037.01c.181.048.363.092.544.132h0c12.248,2.693,24.713-2.779,24.713-2.779l-.005,0a17.056,17.056,0,0,0,3-1.22l4.03-2.174c-.284.155-4.527,2.561-6.342,9.188-1.879,6.859-4.769,19.017-4.769,19.017h2.685s18.267-26.031,17.111-30.707S189.919,499.242,178.693,502.048Zm21.286,8.729h0Z" transform="translate(-149.507 -465.829)" fill="#32606d"/>
            <path id="패스_18659" data-name="패스 18659" d="M328.738,476.509c-1.06-.675-4.758.9-4.758.9l.008,1.976c.934.856,2.438-1.337,3.883-.47s2.89.385,2.986,0S329.8,477.183,328.738,476.509Z" transform="translate(-264.441 -449.731)" fill="#fcc8b6"/>
            <path id="패스_18660" data-name="패스 18660" d="M258.774,639.82c-1.252-.238-2.6-.446-2.7-.862a14.53,14.53,0,0,0-.495-1.394H252.9a18.392,18.392,0,0,0-.481,4.512h8.959S260.027,640.058,258.774,639.82Z" transform="translate(-213.552 -564.403)" fill="#090b3c"/>
            <path id="패스_18661" data-name="패스 18661" d="M217.848,396.384c-2.893,0-3.654,1.37-3.654,1.37a8,8,0,0,0-1.066,3.654,2.466,2.466,0,0,0,.342.718,4.025,4.025,0,0,0,2.855,1.718c2.131.3,3.806-3.35,3.958-4.263S220.74,396.384,217.848,396.384Z" transform="translate(-185.609 -392.857)" fill="#fcc8b6"/>
            <path id="패스_18662" data-name="패스 18662" d="M208.658,412.035s2.413,1.535,2.852.877,1.974-2.852,1.974-2.852l-2.194-2.413Z" transform="translate(-182.447 -400.865)" fill="#fcc8b6"/>
            <path id="패스_18663" data-name="패스 18663" d="M152.386,386.4c-2.05-.932-2.05-2.8-4.287-2.05s-5.778,2.8-8.947,1.3-6.524-1.864-8.574-.559-4.287,3.169-7.27,2.61-4.287-1.3-5.033.932-.746,7.829,7.083,8.388,10.625-2.982,13.048-4.287,4.786,1.5,7.42.71c0,0,.222-2.76.968-3.319s.559.746,1.491.932,2.423-1.118,2.983-1.491.932,0,1.118.932a4.19,4.19,0,0,1-.5,2.22s1.989-1.66,1.8-3.711S154.436,387.333,152.386,386.4Z" transform="translate(-117.965 -384.179)" fill="#ec5446"/>
          </g>
        </g>
        <g id="_迹_3" data-name="卵迹_3" transform="translate(35.99 18.996)">
          <g id="그룹_19015" data-name="그룹 19015">
            <g id="그룹_19012" data-name="그룹 19012" transform="translate(0 17.117)">
              <path id="패스_18664" data-name="패스 18664" d="M244.035,501.558h.433v-.434Z" transform="translate(-243.602 -500.691)" fill="#042c37"/>
              <path id="패스_18665" data-name="패스 18665" d="M561.4,501.125v.434h.434Z" transform="translate(-469.247 -500.691)" fill="#042c37"/>
              <path id="패스_18666" data-name="패스 18666" d="M335.121,499.625H242.969a.44.44,0,0,0-.434.433v43.2a.434.434,0,0,0,.867,0v-42.77h-.434l.434-.434v.434h91.285v-.434l.433.434h-.433V543.96a.434.434,0,0,0,.867,0v-43.9A.44.44,0,0,0,335.121,499.625Z" transform="translate(-242.535 -499.625)" fill="#042c37"/>
            </g>
            <g id="그룹_19013" data-name="그룹 19013" transform="translate(9.381)">
              <path id="패스_18667" data-name="패스 18667" d="M308.177,440.605l-9.3,15.594c-.127.212-.3.444-.424.677l.041,0c.134-.086.264.026,0,0a.265.265,0,0,0-.086.092c-.009.02-.021.04-.029.061a.414.414,0,0,1,.029-.061c.014-.032.029-.064.045-.1l-.088-.014a18.438,18.438,0,0,0-3.174,0H275.413a.434.434,0,0,0,0,.867h22.681c.548,0,.751.035,1.108-.385a21.927,21.927,0,0,0,1.778-2.98l3.033-5.085,4.913-8.236A.434.434,0,0,0,308.177,440.605Z" transform="translate(-274.994 -440.397)" fill="#042c37"/>
              <path id="패스_18668" data-name="패스 18668" d="M356.09,497.421l-.041,0c-.016.032-.031.064-.045.1A.263.263,0,0,1,356.09,497.421Z" transform="translate(-332.592 -480.938)" fill="#042c37"/>
            </g>
            <g id="그룹_19014" data-name="그룹 19014" transform="translate(48.312 0)">
              <path id="패스_18669" data-name="패스 18669" d="M445.65,497.369c-.008-.02-.018-.042-.027-.068a.893.893,0,0,0-.147.019A.179.179,0,0,1,445.65,497.369Z" transform="translate(-435.138 -480.856)" fill="#042c37"/>
              <path id="패스_18670" data-name="패스 18670" d="M443.281,456.862H420.819c-.188,0-.425-.034-.63-.019.01.026.019.048.027.068.089.085.092.215,0,0a.179.179,0,0,0-.174-.048.893.893,0,0,1,.147-.019c-.008-.021-.016-.04-.025-.065a21.237,21.237,0,0,0-1.944-3.259l-2.938-4.925-4.766-7.989a.434.434,0,0,0-.749.438L419.2,456.86c.293.491.371.758.928.869a16.142,16.142,0,0,0,2.957,0h20.193A.434.434,0,0,0,443.281,456.862Z" transform="translate(-409.704 -440.397)" fill="#042c37"/>
            </g>
          </g>
        </g>
      </g>
      <g id="그룹_19039" data-name="그룹 19039" transform="translate(1340.019 134.864)" opacity="0.96">
        <g id="그룹_19038" data-name="그룹 19038" transform="translate(0 0)" opacity="0.85">
          <rect id="사각형_4859" data-name="사각형 4859" width="7.951" height="9.869" rx="1.47" transform="translate(36.867 10.216) rotate(-18.572)" fill="#fff"/>
          <rect id="사각형_4860" data-name="사각형 4860" width="21.972" height="27.271" rx="1.47" transform="translate(0 24.568)" fill="#fff"/>
          <rect id="사각형_4861" data-name="사각형 4861" width="1.684" height="2.666" rx="0.735" transform="translate(39.346 7.755) rotate(-18.57)" fill="#fa7e7e"/>
          <rect id="사각형_4862" data-name="사각형 4862" width="9.868" height="7.951" rx="1.47" transform="translate(63.411 9.824) rotate(-84.533)" fill="#fff"/>
          <rect id="사각형_4863" data-name="사각형 4863" width="7.951" height="9.869" rx="1.47" transform="translate(53.835 24.27) rotate(-14.005)" fill="#fff"/>
          <path id="패스_18686" data-name="패스 18686" d="M978.212,414.612h-13.37a.54.54,0,0,0,0,1.079h13.37A.54.54,0,0,0,978.212,414.612Z" transform="translate(-960.662 -383.165)" fill="#c4dae8"/>
          <path id="패스_18687" data-name="패스 18687" d="M978.212,419.8h-13.37a.54.54,0,0,0,0,1.08h13.37A.54.54,0,0,0,978.212,419.8Z" transform="translate(-960.662 -385.954)" fill="#c4dae8"/>
          <path id="패스_18688" data-name="패스 18688" d="M978.212,424.989h-13.37a.54.54,0,0,0,0,1.079h13.37A.54.54,0,0,0,978.212,424.989Z" transform="translate(-960.662 -388.744)" fill="#c4dae8"/>
          <path id="패스_18689" data-name="패스 18689" d="M978.212,430.177h-13.37a.54.54,0,0,0,0,1.08h13.37A.54.54,0,0,0,978.212,430.177Z" transform="translate(-960.662 -391.534)" fill="#c4dae8"/>
          <path id="패스_18690" data-name="패스 18690" d="M978.212,435.366h-13.37a.54.54,0,0,0,0,1.079h13.37A.54.54,0,0,0,978.212,435.366Z" transform="translate(-960.662 -394.324)" fill="#c4dae8"/>
          <path id="패스_18691" data-name="패스 18691" d="M978.212,440.554h-13.37a.54.54,0,0,0,0,1.08h13.37A.54.54,0,0,0,978.212,440.554Z" transform="translate(-960.662 -397.113)" fill="#c4dae8"/>
        </g>
      </g>
      <g id="그룹_19040" data-name="그룹 19040" transform="translate(174.732 -160.852)" opacity="0.36">
        <path id="패스_18692" data-name="패스 18692" d="M99.1,296.618a8.835,8.835,0,1,1-17.669,0c.092-11.433,17.186-11.356,17.669,0,.113,2.67,4.279,2.685,4.165,0-.3-7.084-5.706-12.97-13-13a13,13,0,1,0,0,26c7.295,0,12.7-5.939,13-13C103.38,293.938,99.215,293.943,99.1,296.618Z" transform="translate(0 0)" fill="#ffd500"/>
      </g>
      <g id="그룹_19041" data-name="그룹 19041" transform="translate(600.23 -108.775)" opacity="0.36">
        <path id="패스_18692-2" data-name="패스 18692" d="M94.838,294.079a7.109,7.109,0,1,1-14.219,0c.074-9.2,13.83-9.138,14.219,0,.091,2.148,3.443,2.16,3.352,0A10.461,10.461,0,1,0,87.728,304.54a10.627,10.627,0,0,0,10.461-10.461C98.281,291.922,94.929,291.927,94.838,294.079Z" fill="#fff"/>
      </g>
      <path id="패스_18693" data-name="패스 18693" d="M190.056,136.162q-2.406-2.4-4.811-4.811l4.811-4.811a1.057,1.057,0,0,0-1.494-1.494q-2.406,2.4-4.811,4.811l-4.577-4.577a1.057,1.057,0,0,0-1.494,1.494l4.575,4.577-4.575,4.577a1.057,1.057,0,0,0,1.494,1.494l4.577-4.577,4.811,4.812A1.058,1.058,0,0,0,190.056,136.162Z" transform="translate(24.633 63.032)" fill="#f5f9fc" opacity="0.36"/>
      <path id="패스_18694" data-name="패스 18694" d="M190.056,136.162q-2.406-2.4-4.811-4.811l4.811-4.811a1.057,1.057,0,0,0-1.494-1.494q-2.406,2.4-4.811,4.811l-4.577-4.577a1.057,1.057,0,0,0-1.494,1.494l4.575,4.577-4.575,4.577a1.057,1.057,0,0,0,1.494,1.494l4.577-4.577,4.811,4.812A1.058,1.058,0,0,0,190.056,136.162Z" transform="translate(399.359 85.57)" fill="#ffd500" opacity="0.36"/>
      <path id="패스_18695" data-name="패스 18695" d="M192.5,138.361q-2.869-2.867-5.737-5.737l5.737-5.737a1.261,1.261,0,0,0-1.782-1.782q-2.869,2.867-5.737,5.737l-5.458-5.458a1.261,1.261,0,0,0-1.782,1.782l5.456,5.458-5.456,5.458a1.261,1.261,0,0,0,1.782,1.782l5.458-5.458q2.867,2.869,5.737,5.739A1.261,1.261,0,0,0,192.5,138.361Z" transform="translate(435.881 10.375)" fill="#fff" opacity="0.36"/>
      <g id="그룹_19042" data-name="그룹 19042" transform="translate(221.23 -67.235)" opacity="0.36">
        <path id="패스_18692-3" data-name="패스 18692" d="M88.381,290.235a4.5,4.5,0,0,1-8.994,0c.047-5.82,8.748-5.78,8.994,0,.058,1.359,2.178,1.367,2.12,0a6.617,6.617,0,1,0-6.617,6.617,6.722,6.722,0,0,0,6.617-6.617C90.559,288.871,88.439,288.873,88.381,290.235Z" fill="#fff"/>
      </g>
    </g>
  </g>
</svg>
