<svg xmlns="http://www.w3.org/2000/svg" xmlns:xlink="http://www.w3.org/1999/xlink" width="360" height="160" viewBox="0 0 360 160">
  <defs>
    <linearGradient id="linear-gradient" x1="0.465" y1="-0.655" x2="0.541" y2="1.694" gradientUnits="objectBoundingBox">
      <stop offset="0" stop-color="#0062b7"/>
      <stop offset="1" stop-color="#3295dc"/>
    </linearGradient>
    <linearGradient id="linear-gradient-2" x1="0.193" y1="-0.079" x2="0.841" y2="1.357" xlink:href="#linear-gradient"/>
    <clipPath id="clip-path">
      <rect id="사각형_4837" data-name="사각형 4837" width="360" height="160" transform="translate(0 85)" fill="url(#linear-gradient)"/>
    </clipPath>
    <linearGradient id="linear-gradient-3" x1="0.183" y1="0.994" x2="0.183" y2="-0.042" gradientUnits="objectBoundingBox">
      <stop offset="0"/>
      <stop offset="1" stop-color="#fff"/>
    </linearGradient>
    <linearGradient id="linear-gradient-5" x1="0.115" y1="0.994" x2="0.115" y2="-0.042" xlink:href="#linear-gradient-3"/>
  </defs>
  <g id="상단img" transform="translate(0 -85)">
    <rect id="사각형_4864" data-name="사각형 4864" width="360" height="160" transform="translate(0 85)" fill="url(#linear-gradient-2)"/>
    <g id="마스크_그룹_31" data-name="마스크 그룹 31" clip-path="url(#clip-path)">
      <g id="그룹_18959" data-name="그룹 18959" transform="translate(317.178 39.42)" opacity="0.2">
        <path id="패스_18546" data-name="패스 18546" d="M36.479,213.238H-83.14L33.327-3H152.946Z" transform="translate(-41.41)" opacity="0.6" fill="url(#linear-gradient-3)" style="mix-blend-mode: screen;isolation: isolate"/>
        <path id="패스_18547" data-name="패스 18547" d="M190.793,213.238H71.174L187.64-3H307.259Z" transform="translate(-100.539)" opacity="0.6" fill="url(#linear-gradient-3)" style="mix-blend-mode: screen;isolation: isolate"/>
        <path id="패스_18548" data-name="패스 18548" d="M110.939,213.238H33.29L149.756-3h77.649Z" transform="translate(-86.023)" opacity="0.6" fill="url(#linear-gradient-5)" style="mix-blend-mode: screen;isolation: isolate"/>
        <path id="패스_18549" data-name="패스 18549" d="M393.736,213.238H316.087L432.553-3H510.2Z" transform="translate(-194.382)" opacity="0.6" fill="url(#linear-gradient-5)" style="mix-blend-mode: screen;isolation: isolate"/>
        <path id="패스_18550" data-name="패스 18550" d="M-113.563,213.238h-77.649L-74.746-3H2.9Z" opacity="0.6" fill="url(#linear-gradient-5)" style="mix-blend-mode: screen;isolation: isolate"/>
        <path id="패스_18551" data-name="패스 18551" d="M289.3,213.238H211.647L328.114-3h77.649Z" transform="translate(-154.364)" opacity="0.6" fill="url(#linear-gradient-5)" style="mix-blend-mode: screen;isolation: isolate"/>
      </g>
    </g>
  </g>
</svg>
