<svg xmlns="http://www.w3.org/2000/svg" width="68" height="46" viewBox="0 0 68 46">
  <g id="그룹_18869" data-name="그룹 18869" transform="translate(-32.543 -149.322)">
    <g id="그룹_18844" data-name="그룹 18844" transform="translate(36.595 177.383)">
      <g id="그룹_18842" data-name="그룹 18842" transform="translate(0 10.954)">
        <path id="패스_17665" data-name="패스 17665" d="M37.266,191.491a.727.727,0,0,1-.138-.014.671.671,0,0,1-.519-.794l.375-1.779a.67.67,0,1,1,1.311.278l-.374,1.777A.671.671,0,0,1,37.266,191.491Z" transform="translate(-36.595 -188.373)" fill="#222"/>
      </g>
      <g id="그룹_18843" data-name="그룹 18843" transform="translate(0.959)">
        <path id="패스_17666" data-name="패스 17666" d="M38.225,186.939a.654.654,0,0,1-.139-.013.671.671,0,0,1-.518-.795l1.722-8.18a.67.67,0,0,1,1.312.276l-1.723,8.18A.668.668,0,0,1,38.225,186.939Z" transform="translate(-37.554 -177.419)" fill="#222"/>
      </g>
    </g>
    <g id="그룹_18845" data-name="그룹 18845" transform="translate(32.543 154.527)">
      <path id="패스_17667" data-name="패스 17667" d="M45.1,195.322H33.6a1.052,1.052,0,0,1-1.031-1.269l8.217-38.995a.67.67,0,0,1,1.312.276l-8.144,38.648H45.1a.67.67,0,1,1,0,1.34Z" transform="translate(-32.543 -154.527)" fill="#222"/>
    </g>
    <g id="그룹_18846" data-name="그룹 18846" transform="translate(40.75 153.42)">
      <path id="패스_17668" data-name="패스 17668" d="M99.507,195.322H49.486a1.042,1.042,0,0,1-1.017-.845l-7.689-39.15A1.61,1.61,0,0,1,41.107,154a1.556,1.556,0,0,1,1.215-.583h48.93a1.58,1.58,0,0,1,1.54,1.282l7.731,39.363a1.057,1.057,0,0,1-.216.872A1.024,1.024,0,0,1,99.507,195.322Zm-49.789-1.34H99.162L91.5,154.965a.255.255,0,0,0-.247-.206H42.322a.246.246,0,0,0-.195.094.252.252,0,0,0-.052.212Z" transform="translate(-40.75 -153.42)" fill="#222"/>
    </g>
    <g id="그룹_18847" data-name="그룹 18847" transform="translate(93.149 179.848)">
      <path id="패스_17669" data-name="패스 17669" d="M96.466,189.713a.67.67,0,0,1-.656-.539l-1.693-8.49a.67.67,0,0,1,1.315-.262l1.692,8.49a.67.67,0,0,1-.526.788A.656.656,0,0,1,96.466,189.713Z" transform="translate(-94.104 -179.884)" fill="#222"/>
    </g>
    <g id="그룹_18850" data-name="그룹 18850" transform="translate(42.188 161.635)">
      <g id="그룹_18848" data-name="그룹 18848">
        <path id="패스_17670" data-name="패스 17670" d="M79.167,162.984H42.84a.67.67,0,0,1,0-1.339H79.167a.67.67,0,0,1,0,1.339Z" transform="translate(-42.188 -161.645)" fill="#222"/>
      </g>
      <g id="그룹_18849" data-name="그룹 18849" transform="translate(41.129)">
        <path id="패스_17671" data-name="패스 17671" d="M94.458,162.984H84.942a.669.669,0,1,1,0-1.339h9.516a.669.669,0,1,1,0,1.339Z" transform="translate(-84.272 -161.645)" fill="#222"/>
      </g>
    </g>
    <g id="그룹_18864" data-name="그룹 18864" transform="translate(53.127 171.637)">
      <g id="그룹_18855" data-name="그룹 18855">
        <g id="그룹_18851" data-name="그룹 18851">
          <path id="패스_17672" data-name="패스 17672" d="M56.333,173H54.392a.67.67,0,1,1,0-1.34h1.941a.67.67,0,1,1,0,1.34Z" transform="translate(-53.722 -171.664)" fill="#222"/>
        </g>
        <g id="그룹_18852" data-name="그룹 18852" transform="translate(30.162)">
          <path id="패스_17673" data-name="패스 17673" d="M86.5,173h-1.94a.67.67,0,1,1,0-1.34H86.5a.67.67,0,0,1,0,1.34Z" transform="translate(-83.884 -171.664)" fill="#222"/>
        </g>
        <g id="그룹_18853" data-name="그룹 18853" transform="translate(10.054)">
          <path id="패스_17674" data-name="패스 17674" d="M66.387,173H64.446a.67.67,0,1,1,0-1.34h1.941a.67.67,0,1,1,0,1.34Z" transform="translate(-63.776 -171.664)" fill="#222"/>
        </g>
        <g id="그룹_18854" data-name="그룹 18854" transform="translate(20.108)">
          <path id="패스_17675" data-name="패스 17675" d="M76.441,173H74.5a.67.67,0,1,1,0-1.34h1.941a.67.67,0,1,1,0,1.34Z" transform="translate(-73.83 -171.664)" fill="#222"/>
        </g>
      </g>
      <g id="그룹_18860" data-name="그룹 18860" transform="translate(1.506 7.556)">
        <g id="그룹_18856" data-name="그룹 18856">
          <path id="패스_17676" data-name="패스 17676" d="M57.839,180.561H55.9a.671.671,0,1,1,0-1.341h1.94a.671.671,0,0,1,0,1.341Z" transform="translate(-55.228 -179.22)" fill="#222"/>
        </g>
        <g id="그룹_18857" data-name="그룹 18857" transform="translate(30.163)">
          <path id="패스_17677" data-name="패스 17677" d="M88,180.561H86.061a.671.671,0,0,1,0-1.341H88a.671.671,0,0,1,0,1.341Z" transform="translate(-85.391 -179.22)" fill="#222"/>
        </g>
        <g id="그룹_18858" data-name="그룹 18858" transform="translate(10.054)">
          <path id="패스_17678" data-name="패스 17678" d="M67.893,180.561H65.952a.671.671,0,0,1,0-1.341h1.941a.671.671,0,1,1,0,1.341Z" transform="translate(-65.282 -179.22)" fill="#222"/>
        </g>
        <g id="그룹_18859" data-name="그룹 18859" transform="translate(20.108)">
          <path id="패스_17679" data-name="패스 17679" d="M77.947,180.561h-1.94a.671.671,0,1,1,0-1.341h1.94a.671.671,0,0,1,0,1.341Z" transform="translate(-75.336 -179.22)" fill="#222"/>
        </g>
      </g>
      <g id="그룹_18863" data-name="그룹 18863" transform="translate(3.009 15.098)">
        <g id="그룹_18861" data-name="그룹 18861">
          <path id="패스_17680" data-name="패스 17680" d="M59.343,188.1H57.4a.671.671,0,1,1,0-1.341h1.941a.671.671,0,0,1,0,1.341Z" transform="translate(-56.731 -186.762)" fill="#222"/>
        </g>
        <g id="그룹_18862" data-name="그룹 18862" transform="translate(10.055)">
          <path id="패스_17681" data-name="패스 17681" d="M69.4,188.1H67.456a.671.671,0,0,1,0-1.341H69.4a.671.671,0,0,1,0,1.341Z" transform="translate(-66.786 -186.762)" fill="#222"/>
        </g>
      </g>
    </g>
    <g id="그룹_18868" data-name="그룹 18868" transform="translate(47.512 149.322)">
      <g id="그룹_18865" data-name="그룹 18865">
        <path id="패스_17682" data-name="패스 17682" d="M51.513,158.857a.67.67,0,1,1,0-1.34c1.18,0,2.178-1.57,2.178-3.427s-1-3.427-2.178-3.427-2.178,1.569-2.178,3.427a.67.67,0,0,1-1.34,0c0-2.674,1.545-4.768,3.518-4.768s3.518,2.094,3.518,4.768S53.486,158.857,51.513,158.857Z" transform="translate(-47.995 -149.322)" fill="#222"/>
      </g>
      <g id="그룹_18866" data-name="그룹 18866" transform="translate(31.379)">
        <path id="패스_17683" data-name="패스 17683" d="M82.893,158.857a.67.67,0,1,1,0-1.34c1.18,0,2.178-1.57,2.178-3.427s-1-3.427-2.178-3.427-2.178,1.569-2.178,3.427a.67.67,0,0,1-1.341,0c0-2.674,1.546-4.768,3.519-4.768s3.518,2.094,3.518,4.768S84.866,158.857,82.893,158.857Z" transform="translate(-79.374 -149.322)" fill="#222"/>
      </g>
      <g id="그룹_18867" data-name="그룹 18867" transform="translate(15.69)">
        <path id="패스_17684" data-name="패스 17684" d="M67.2,158.857a.67.67,0,1,1,0-1.34c1.18,0,2.178-1.57,2.178-3.427s-1-3.427-2.178-3.427-2.178,1.569-2.178,3.427a.67.67,0,0,1-1.34,0c0-2.674,1.545-4.768,3.518-4.768s3.518,2.094,3.518,4.768S69.176,158.857,67.2,158.857Z" transform="translate(-63.685 -149.322)" fill="#222"/>
      </g>
    </g>
  </g>
</svg>
