<svg xmlns="http://www.w3.org/2000/svg" width="26" height="26" viewBox="0 0 26 26">
  <g id="그룹_18896" data-name="그룹 18896" transform="translate(-460 -748)">
    <g id="사각형_4708" data-name="사각형 4708" transform="translate(460 748)" fill="#fff" stroke="#e50019" stroke-width="1">
      <rect width="26" height="26" rx="1" stroke="none"/>
      <rect x="0.5" y="0.5" width="25" height="25" rx="0.5" fill="none"/>
    </g>
    <path id="패스_13704" data-name="패스 13704" d="M221.871,229.285s.67-1.5-4.163-.815c0,0-1.892-.6-3.144-3.8a21.907,21.907,0,0,0,.277-2.635s-.408,1.543-.51,1.82c0,0-.815-3-.116-3.669,0,0,.476.1.689,1.587,0,0,.315-1.713-.733-1.776a.9.9,0,0,0-.859.8,12.135,12.135,0,0,0,.6,4.178s-3.508,8.254-5.5,8.531c0,0-.189-.786,2.358-2.941,0,0-3.9,2.184-2.591,3.013,0,0,.641.611,1.645-.262a9.452,9.452,0,0,0,2.154-3.057,34.886,34.886,0,0,1,5.372-1.281s3.916,2.213,4.527.67v-.175s-.32.99-3.45-.626C218.421,228.848,221.39,228.5,221.871,229.285Zm-9.724.6a25.65,25.65,0,0,0,2.082-4.163,7.86,7.86,0,0,0,2.5,2.9A34.207,34.207,0,0,0,212.146,229.882Z" transform="translate(259.098 534.003)" fill="#e50019"/>
  </g>
</svg>
