<svg xmlns="http://www.w3.org/2000/svg" width="26" height="26" viewBox="0 0 26 26">
  <g id="그룹_18895" data-name="그룹 18895" transform="translate(-460 -712)">
    <g id="사각형_4707" data-name="사각형 4707" transform="translate(460 712)" fill="#fff" stroke="#285595" stroke-width="1">
      <rect width="26" height="26" rx="1" stroke="none"/>
      <rect x="0.5" y="0.5" width="25" height="25" rx="0.5" fill="none"/>
    </g>
    <g id="그룹_17226" data-name="그룹 17226" transform="translate(466 720)">
      <path id="패스_13702" data-name="패스 13702" d="M216.78,863.178a11.474,11.474,0,0,0,.513-1.07,1.952,1.952,0,0,0,.166-.693,1.019,1.019,0,0,0-.055-.369.483.483,0,0,0-.205-.231,1.093,1.093,0,0,0-.411-.131l.118-.508h3.356l-.118.508a1.163,1.163,0,0,0-.462.185,1.772,1.772,0,0,0-.383.369,4.659,4.659,0,0,0-.355.527q-.174.3-.466.827l-4.524,8.141h-1.9l-.016-4.955V864.47q0-.5.008-1.046h-.1q-.261.546-.442.916l-3.3,6.394h-1.9l-.158-8.187a5.119,5.119,0,0,0-.115-1.108,1.189,1.189,0,0,0-.265-.542.815.815,0,0,0-.466-.212l.118-.508h4.043l-.118.508a1.409,1.409,0,0,0-.391.1.68.68,0,0,0-.268.215.883.883,0,0,0-.15.365,2.756,2.756,0,0,0-.051.408l-.008.9-.032,2.893q-.008.639-.039,1.539l-.04.916h.1q.182-.392.391-.816t.762-1.5l2.85-5.532h1.729l.008,5.04.008.685q0,1.077-.055,2.124h.1q.371-.754,1.334-2.608Z" transform="translate(-205.307 -860.177)" fill="#285595"/>
    </g>
  </g>
</svg>
