<svg xmlns="http://www.w3.org/2000/svg" width="24" height="24" viewBox="0 0 24 24">
  <g id="그룹_318" data-name="그룹 318" transform="translate(-3155 -39)">
    <rect id="사각형_54" data-name="사각형 54" width="24" height="24" transform="translate(3155 39)" fill="none"/>
    <g id="Vector_Smart_Object" data-name="Vector Smart Object">
      <g id="Vector_Smart_Object-2" data-name="Vector Smart Object" transform="translate(3041.218 -134.955)">
        <rect id="사각형_4" data-name="사각형 4" width="19.782" height="1.818" rx="0.891" transform="translate(115.782 177.955)" fill="#222"/>
        <rect id="사각형_5" data-name="사각형 5" width="19.782" height="1.818" rx="0.891" transform="translate(115.927 184.545)" fill="#222"/>
        <rect id="사각형_6" data-name="사각형 6" width="19.782" height="1.818" rx="0.891" transform="translate(116 191.136)" fill="#222"/>
      </g>
      <path id="Color_Overlay" data-name="Color Overlay" d="M3158.109,58a.891.891,0,0,1-.891-.891v-.037a.891.891,0,0,1,.891-.89h18a.89.89,0,0,1,.891.89v.037a.891.891,0,0,1-.891.891Zm-.073-6.591a.891.891,0,0,1-.891-.891v-.037a.891.891,0,0,1,.891-.891h18a.891.891,0,0,1,.891.891v.037a.891.891,0,0,1-.891.891Zm-.146-6.592a.891.891,0,0,1-.891-.89v-.037a.891.891,0,0,1,.891-.891h18a.891.891,0,0,1,.89.891v.037a.89.89,0,0,1-.89.89Z" fill="#222"/>
    </g>
  </g>
</svg>
