<svg xmlns="http://www.w3.org/2000/svg" width="42" height="42" viewBox="0 0 42 42">
  <g id="그룹_6831" data-name="그룹 6831" transform="translate(-1467 -21)">
    <rect id="사각형_3572" data-name="사각형 3572" width="42" height="42" transform="translate(1467 21)" fill="none"/>
    <g id="그룹_31191" data-name="그룹 31191" transform="translate(1366.338 -611.058)">
      <g id="그룹_31191-2" data-name="그룹 31191" transform="translate(108.662 642.678)">
        <path id="패스_28114" data-name="패스 28114" d="M129.368,666.935H109.956a1.259,1.259,0,0,1-1.294-1.219V646.154a1.26,1.26,0,0,1,1.294-1.219h19.413a1.259,1.259,0,0,1,1.294,1.219V658.7a.441.441,0,0,1-.881,0V646.154a.4.4,0,0,0-.413-.389H109.956a.407.407,0,0,0-.413.389v19.563a.407.407,0,0,0,.413.389h19.413a.4.4,0,0,0,.413-.389v-7.384a.441.441,0,0,1,.881,0v7.384A1.259,1.259,0,0,1,129.368,666.935Z" transform="translate(-108.662 -644.935)" fill="#231f20" stroke="#231f20" stroke-width="0.25"/>
      </g>
      <g id="그룹_31192" data-name="그룹 31192" transform="translate(124.663 639.058)">
        <path id="패스_28115" data-name="패스 28115" d="M155.773,643.491c-.443,0-.8-.268-.8-.6v-2.8c0-.33.36-.6.8-.6s.8.268.8.6v2.8C156.577,643.223,156.217,643.491,155.773,643.491Z" transform="translate(-154.97 -639.491)" fill="#231f20"/>
      </g>
      <g id="그룹_31193" data-name="그룹 31193" transform="translate(113.004 639.954)">
        <path id="패스_28116" data-name="패스 28116" d="M121.912,643.491c-.444,0-.8-.268-.8-.6v-2.8c0-.33.36-.6.8-.6s.8.268.8.6v2.8C122.716,643.223,122.356,643.491,121.912,643.491Z" transform="translate(-121.451 -640.388)" fill="#231f20"/>
      </g>
      <g id="그룹_31195" data-name="그룹 31195" transform="translate(108.662 646.032)">
        <path id="패스_28118" data-name="패스 28118" d="M130.222,659.266H109.1a.506.506,0,0,1,0-1h21.119a.506.506,0,0,1,0,1Z" transform="translate(-108.662 -658.262)" fill="#231f20" stroke="#231f20" stroke-width="0.25"/>
      </g>
      <g id="그룹_31196" data-name="그룹 31196" transform="translate(112.663 651.058)">
        <path id="패스_28119" data-name="패스 28119" d="M136.041,671.126H123.995a.509.509,0,1,1,0-1h12.047a.509.509,0,1,1,0,1Z" transform="translate(-123.392 -670.126)" fill="#231f20"/>
      </g>
      <g id="그룹_31197" data-name="그룹 31197" transform="translate(112.663 657.058)">
        <path id="패스_28120" data-name="패스 28120" d="M136.041,683.038H123.995a.509.509,0,1,1,0-1h12.047a.509.509,0,1,1,0,1Z" transform="translate(-123.392 -682.038)" fill="#231f20"/>
      </g>
      <g id="그룹_31198" data-name="그룹 31198" transform="translate(112.662 657.35)">
        <path id="패스_28121" data-name="패스 28121" d="M132.5,694.948h-8.538a.5.5,0,1,1,0-1H132.5a.5.5,0,1,1,0,1Z" transform="translate(-123.392 -697.24)" fill="#231f20"/>
      </g>
    </g>
    <circle id="타원_347" data-name="타원 347" cx="6.5" cy="6.5" r="6.5" transform="translate(1490 42)" fill="#024fc4" stroke="#fff" stroke-width="1.25"/>
    <path id="패스_27891" data-name="패스 27891" d="M-13215.082-9114.042l1.873,1.862,3.043-3.124" transform="translate(14709.274 9162.369)" fill="none" stroke="#fff" stroke-linecap="round" stroke-linejoin="round" stroke-width="1.25"/>
  </g>
</svg>
