<svg xmlns="http://www.w3.org/2000/svg" width="43" height="42" viewBox="0 0 43 42">
  <g id="그룹_6829" data-name="그룹 6829" transform="translate(-1510 -21)">
    <rect id="사각형_3570" data-name="사각형 3570" width="42" height="42" transform="translate(1511 21)" fill="none"/>
    <g id="그룹_6832" data-name="그룹 6832" transform="translate(-1)">
      <rect id="사각형_3570-2" data-name="사각형 3570" width="42" height="42" transform="translate(1511 21)" fill="none"/>
      <g id="그룹_6828" data-name="그룹 6828">
        <g id="그룹_6647" data-name="그룹 6647" transform="matrix(0.809, 0.588, -0.588, 0.809, 1526.021, -181.482)">
          <path id="패스_7387" data-name="패스 7387" d="M139.241,177.731c0,6.718-3.739,12.164-8.355,12.164s-8.352-5.446-8.352-12.164,3.742-12.162,8.352-12.162S139.241,171.015,139.241,177.731Z" transform="translate(2.5 0.173)" fill="none" stroke="#121212" stroke-linecap="round" stroke-linejoin="round" stroke-width="1.2"/>
          <line id="선_495" data-name="선 495" x2="24.54" transform="translate(120.981 178.201)" fill="none" stroke="#121212" stroke-linecap="round" stroke-linejoin="round" stroke-width="1.2"/>
          <line id="선_496" data-name="선 496" y2="24.713" transform="translate(133.387 165.46)" fill="none" stroke="#121212" stroke-linecap="round" stroke-linejoin="round" stroke-width="1.2"/>
          <g id="그룹_6646" data-name="그룹 6646" transform="translate(120.942 165.459)">
            <path id="패스_7388" data-name="패스 7388" d="M142.4,183.844a12.178,12.178,0,0,0,.184-16.763c-2.038,1.6-5.434,2.649-9.285,2.649a15.606,15.606,0,0,1-9.174-2.572,12.173,12.173,0,0,0,.184,16.6,15.88,15.88,0,0,1,8.991-2.435A15.719,15.719,0,0,1,142.4,183.844Z" transform="translate(-120.942 -162.912)" fill="none" stroke="#121212" stroke-linecap="round" stroke-linejoin="round" stroke-width="1.2"/>
            <path id="패스_7389" data-name="패스 7389" d="M140.525,169.628a12.07,12.07,0,0,0-18.319.08,15.055,15.055,0,0,0,9.1,2.655C135.132,172.363,138.5,171.279,140.525,169.628Z" transform="translate(-118.957 -165.459)" fill="none" stroke="#121212" stroke-linecap="round" stroke-linejoin="round" stroke-width="1.2"/>
            <path id="패스_7390" data-name="패스 7390" d="M131.286,179.36a12.144,12.144,0,0,0,8.937-3.959,17.022,17.022,0,0,0-17.943-.085A12.132,12.132,0,0,0,131.286,179.36Z" transform="translate(-118.842 -154.469)" fill="none" stroke="#121212" stroke-linecap="round" stroke-linejoin="round" stroke-width="1.2"/>
          </g>
          <rect id="사각형_3062" data-name="사각형 3062" width="16" height="10" transform="matrix(0.809, -0.588, 0.588, 0.809, 133.914, 182.652)" fill="#fff"/>
        </g>
      </g>
    </g>
  </g>
</svg>
