<svg xmlns="http://www.w3.org/2000/svg" width="18" height="18" viewBox="0 0 18 18">
  <g id="그룹_6836" data-name="그룹 6836" transform="translate(-836.33 -582.473)">
    <g id="그룹_6834" data-name="그룹 6834" transform="translate(836.83 582.973)">
      <path id="패스_17446" data-name="패스 17446" d="M874.326,583v3.356a3.344,3.344,0,0,1-1.864,2.969l-1.118.568a.656.656,0,0,0,.023,1.084l.933.417a3.355,3.355,0,0,1,2.025,3.046v3.348" transform="translate(-863.002 -582.984)" fill="none" stroke="#222" stroke-linecap="round" stroke-linejoin="round" stroke-width="1"/>
      <path id="패스_17447" data-name="패스 17447" d="M843,597.788v-3.343a3.355,3.355,0,0,1,2.031-3.049l.95-.422A.656.656,0,0,0,846,589.9l-1.181-.62A3.342,3.342,0,0,1,843,586.33V583" transform="translate(-841.495 -582.984)" fill="none" stroke="#222" stroke-linecap="round" stroke-linejoin="round" stroke-width="1"/>
      <line id="선_497" data-name="선 497" x2="12.618" transform="translate(0 0)" fill="none" stroke="#222" stroke-linecap="round" stroke-linejoin="round" stroke-width="1"/>
      <line id="선_498" data-name="선 498" x1="12.618" transform="translate(0 14.979)" fill="none" stroke="#222" stroke-linecap="round" stroke-linejoin="round" stroke-width="1"/>
    </g>
    <g id="그룹_6835" data-name="그룹 6835" transform="translate(844.478 590.621)">
      <path id="패스_17448" data-name="패스 17448" d="M874.259,627.743a4.676,4.676,0,1,1,4.676-4.676A4.681,4.681,0,0,1,874.259,627.743Z" transform="translate(-869.583 -618.391)" fill="#fff" stroke="#222" stroke-linecap="round" stroke-linejoin="round" stroke-width="1"/>
      <path id="패스_17449" data-name="패스 17449" d="M890,629.058v2.182h0l1.484.935" transform="translate(-885.226 -626.564)" fill="#fff" stroke="#222" stroke-linecap="round" stroke-linejoin="round" stroke-width="1"/>
    </g>
  </g>
</svg>
