<svg xmlns="http://www.w3.org/2000/svg" width="16" height="16" viewBox="0 0 16 16">
  <g id="Vector_Smart_Object" data-name="Vector Smart Object" transform="translate(-40 -128.151)">
    <path id="패스_12803" data-name="패스 12803" d="M47.176,128.434l-6.667,5.213A1.325,1.325,0,0,0,40,134.69v8.8a.665.665,0,0,0,.667.663H45.2a.665.665,0,0,0,.667-.663v-5.4a.665.665,0,0,1,.667-.663h2.943a.665.665,0,0,1,.667.663v5.4a.665.665,0,0,0,.667.663h4.528a.665.665,0,0,0,.667-.663v-8.8a1.325,1.325,0,0,0-.509-1.043l-6.667-5.213A1.339,1.339,0,0,0,47.176,128.434Z" fill="#222"/>
  </g>
</svg>
