<svg xmlns="http://www.w3.org/2000/svg" width="18" height="18" viewBox="0 0 18 18">
  <g id="그룹_19078" data-name="그룹 19078" transform="translate(-1485 -267)">
    <rect id="사각형_4873" data-name="사각형 4873" width="18" height="18" rx="4" transform="translate(1485 267)" fill="#555"/>
    <g id="그룹_19077" data-name="그룹 19077" transform="translate(1492.698 270.794)">
      <g id="그룹_19076" data-name="그룹 19076" transform="translate(0 0)">
        <path id="패스_18734" data-name="패스 18734" d="M1686.749,569.979h-.628a.929.929,0,0,0-.677.287.965.965,0,0,0-.286.669v.573a.945.945,0,0,0,.948.948h.659a.945.945,0,0,0,.947-.948v-.581a.921.921,0,0,0-.287-.669A.937.937,0,0,0,1686.749,569.979Z" transform="translate(-1685.158 -562.12)" fill="#fff"/>
        <path id="패스_18735" data-name="패스 18735" d="M1687.827,365.95a.93.93,0,0,0-.683-.3h-.659a.938.938,0,0,0-.677.279.866.866,0,0,0-.27.687l.322,5.122a1,1,0,0,0,.278.643.914.914,0,0,0,.685.287.9.9,0,0,0,.651-.273,1.014,1.014,0,0,0,.3-.651l.322-5.113h0A.893.893,0,0,0,1687.827,365.95Z" transform="translate(-1685.522 -365.654)" fill="#fff"/>
      </g>
    </g>
  </g>
</svg>
