<svg xmlns="http://www.w3.org/2000/svg" width="64" height="64" viewBox="0 0 64 64">
  <g id="그룹_31177" data-name="그룹 31177" transform="translate(-239.621 -736.585)">
    <rect id="사각형_5198" data-name="사각형 5198" width="64" height="64" transform="translate(239.621 736.585)" fill="none"/>
    <rect id="사각형_5180" data-name="사각형 5180" width="48" height="30.617" transform="translate(247.622 761.221)" fill="#0086ff"/>
    <path id="패스_28103" data-name="패스 28103" d="M292.31,756.141V761.6H250.935v-5.457H292.31m3.313-3.313h-48v12.084h48V752.828Z" transform="translate(0 -3.691)" fill="#fff"/>
    <path id="패스_28104" data-name="패스 28104" d="M263.322,755.179h0a2.141,2.141,0,0,1-2.141-2.141v-6.311a2.141,2.141,0,0,1,2.141-2.141h0a2.141,2.141,0,0,1,2.141,2.141v6.311A2.141,2.141,0,0,1,263.322,755.179Z" transform="translate(-6.072)" fill="#fff"/>
    <path id="패스_28105" data-name="패스 28105" d="M289.349,755.179h0a2.141,2.141,0,0,1-2.141-2.141v-6.311a2.141,2.141,0,0,1,2.141-2.141h0a2.142,2.142,0,0,1,2.141,2.141v6.311A2.142,2.142,0,0,1,289.349,755.179Z" transform="translate(-17.727)" fill="#fff"/>
    <path id="패스_28106" data-name="패스 28106" d="M315.376,755.179h0a2.141,2.141,0,0,1-2.141-2.141v-6.311a2.141,2.141,0,0,1,2.141-2.141h0a2.141,2.141,0,0,1,2.141,2.141v6.311A2.141,2.141,0,0,1,315.376,755.179Z" transform="translate(-29.382)" fill="#fff"/>
    <g id="그룹_31176" data-name="그룹 31176" transform="translate(252.296 767.673)">
      <g id="그룹_31174" data-name="그룹 31174">
        <rect id="사각형_5181" data-name="사각형 5181" width="6.707" height="6.707" rx="1.843" fill="#fff"/>
        <rect id="사각형_5182" data-name="사각형 5182" width="6.707" height="6.707" rx="1.843" transform="translate(10.648)" fill="#fff"/>
        <rect id="사각형_5183" data-name="사각형 5183" width="6.707" height="6.707" rx="1.843" transform="translate(21.297)" fill="#fff"/>
        <rect id="사각형_5184" data-name="사각형 5184" width="6.707" height="6.707" rx="1.843" transform="translate(31.945)" fill="#fff"/>
      </g>
      <g id="그룹_31175" data-name="그룹 31175" transform="translate(0 11.14)">
        <rect id="사각형_5185" data-name="사각형 5185" width="6.707" height="6.707" rx="1.843" fill="#fff"/>
        <rect id="사각형_5186" data-name="사각형 5186" width="6.707" height="6.707" rx="1.843" transform="translate(10.648)" fill="#fff"/>
        <rect id="사각형_5187" data-name="사각형 5187" width="6.707" height="6.707" rx="1.843" transform="translate(21.297)" fill="#fff"/>
        <rect id="사각형_5188" data-name="사각형 5188" width="6.707" height="6.707" rx="1.843" transform="translate(31.945)" fill="#fff"/>
      </g>
    </g>
  </g>
</svg>
