<svg xmlns="http://www.w3.org/2000/svg" width="54" height="54" viewBox="0 0 54 54">
  <g id="Vector_Smart_Object" data-name="Vector Smart Object" transform="translate(-640.342 -357.917)">
    <rect id="사각형_5204" data-name="사각형 5204" width="54" height="54" transform="translate(640.342 357.917)" fill="none"/>
    <g id="그룹_919" data-name="그룹 919" transform="translate(647.341 362.917)">
      <g id="그룹_918" data-name="그룹 918">
        <path id="패스_4837" data-name="패스 4837" d="M651.947,382.122h14.167v-3.546a4.617,4.617,0,0,1,1.722-3.6,4.563,4.563,0,0,0-2.886-1.024h-13a4.617,4.617,0,0,0-4.605,4.628v8.172A4.616,4.616,0,0,1,651.947,382.122Z" transform="translate(-647.341 -368.036)" fill="#fff" stroke="#222" stroke-linecap="round" stroke-linejoin="round" stroke-width="2"/>
        <rect id="사각형_871" data-name="사각형 871" width="27.77" height="22.002" transform="translate(6.376)" fill="#caeaff" stroke="#222" stroke-linecap="round" stroke-linejoin="round" stroke-width="2"/>
        <path id="패스_4838" data-name="패스 4838" d="M682.847,373.948H670.156a4.435,4.435,0,0,0-2.814,1,4.539,4.539,0,0,0-1.681,3.536v3.479H651.836a4.517,4.517,0,0,0-4.494,4.539V407.5a4.518,4.518,0,0,0,4.494,4.539h31.011a4.517,4.517,0,0,0,4.494-4.539V378.489A4.518,4.518,0,0,0,682.847,373.948Z" transform="translate(-647.341 -368.036)" fill="#fff" stroke="#222" stroke-linecap="round" stroke-linejoin="round" stroke-width="2"/>
      </g>
      <line id="선_34" data-name="선 34" x1="9.119" transform="translate(23.769 34.775)" fill="none" stroke="#222" stroke-width="2"/>
      <line id="선_35" data-name="선 35" x1="9.119" transform="translate(23.769 28.621)" fill="none" stroke="#222" stroke-width="2"/>
    </g>
  </g>
</svg>
