<svg xmlns="http://www.w3.org/2000/svg" width="64" height="64" viewBox="0 0 64 64">
  <g id="그룹_31183" data-name="그룹 31183" transform="translate(-736.496 -525.145)">
    <rect id="사각형_5200" data-name="사각형 5200" width="64" height="64" transform="translate(736.496 525.145)" fill="none"/>
    <path id="패스_28109" data-name="패스 28109" d="M795.929,538.053v24.205H741.317V538.053h54.612m1.327-3.821H739.991a2.494,2.494,0,0,0-2.495,2.494V566.08H799.75V536.726a2.494,2.494,0,0,0-2.494-2.494Z" fill="#fff"/>
    <path id="패스_28110" data-name="패스 28110" d="M737.5,584.237V589.2a2.494,2.494,0,0,0,2.495,2.494h57.265a2.494,2.494,0,0,0,2.494-2.494v-4.965Z" transform="translate(0 -18.157)" fill="#0086ff"/>
    <g id="그룹_31179" data-name="그룹 31179" transform="translate(763.924 544.186)">
      <path id="패스_28111" data-name="패스 28111" d="M788.39,554.561a4.7,4.7,0,1,0-6.99,4.1l-2.409,4.416h9.4l-2.409-4.416A4.7,4.7,0,0,0,788.39,554.561Z" transform="translate(-778.991 -549.861)" fill="#0086ff"/>
    </g>
    <g id="그룹_31182" data-name="그룹 31182" transform="translate(744.934 543.626)">
      <g id="그룹_31180" data-name="그룹 31180" transform="translate(38 0)">
        <rect id="사각형_5189" data-name="사각형 5189" width="9.378" height="1.571" fill="#fff"/>
        <rect id="사각형_5190" data-name="사각형 5190" width="9.378" height="1.571" transform="translate(0 3.056)" fill="#fff"/>
        <rect id="사각형_5191" data-name="사각형 5191" width="9.378" height="1.571" transform="translate(0 6.111)" fill="#fff"/>
      </g>
      <g id="그룹_31181" data-name="그룹 31181" transform="translate(0 5.473)">
        <rect id="사각형_5192" data-name="사각형 5192" width="9.378" height="1.571" fill="#fff"/>
        <rect id="사각형_5193" data-name="사각형 5193" width="9.378" height="1.571" transform="translate(0 3.056)" fill="#fff"/>
        <rect id="사각형_5194" data-name="사각형 5194" width="9.378" height="1.571" transform="translate(0 6.111)" fill="#fff"/>
      </g>
    </g>
    <path id="패스_28112" data-name="패스 28112" d="M790.366,602.554H771.774l3.611-6.606h11.37Z" transform="translate(-12.447 -22.41)" fill="#fff"/>
  </g>
</svg>
