<svg xmlns="http://www.w3.org/2000/svg" width="54" height="54" viewBox="0 0 54 54">
  <g id="Vector_Smart_Object" data-name="Vector Smart Object" transform="translate(-813.156 -1186.846)">
    <rect id="사각형_5202" data-name="사각형 5202" width="54" height="54" transform="translate(813.156 1186.846)" fill="none"/>
    <g id="그룹_913" data-name="그룹 913" transform="translate(818.157 1189.846)">
      <g id="그룹_911" data-name="그룹 911" transform="translate(0 5.785)">
        <path id="패스_4830" data-name="패스 4830" d="M831.454,1234.8v-.6h18.68V1200.7H818.157v34.1a8.8,8.8,0,0,0,5.22,8.115h2.857A8.8,8.8,0,0,0,831.454,1234.8Z" transform="translate(-818.157 -1200.701)" fill="#caeaff" stroke="#222" stroke-linecap="round" stroke-linejoin="round" stroke-width="2"/>
        <path id="패스_4831" data-name="패스 4831" d="M882.232,1274.587h.608a9.076,9.076,0,0,0,5.574-8.377v-.625h-6.182" transform="translate(-850.256 -1232.372)" fill="#fff" stroke="#222" stroke-width="2"/>
        <path id="패스_4832" data-name="패스 4832" d="M859.863,1265.585H839.915v.625a9.079,9.079,0,0,1-5.574,8.377h25.522" transform="translate(-827.35 -1232.372)" fill="#fff" stroke="#222" stroke-width="2"/>
      </g>
      <g id="그룹_912" data-name="그룹 912" transform="translate(13.836)">
        <path id="패스_4833" data-name="패스 4833" d="M874.582,1189.846H851.965a3.776,3.776,0,0,0-3.773,3.78v12.407a3.777,3.777,0,0,0,3.773,3.781h5.528l-3.2,8.274,13.33-8.274h6.956a3.777,3.777,0,0,0,3.773-3.781v-12.407A3.776,3.776,0,0,0,874.582,1189.846Z" transform="translate(-848.192 -1189.846)" fill="#fff" stroke="#222" stroke-width="2"/>
        <line id="선_29" data-name="선 29" x2="13.236" transform="translate(8.456 7.029)" fill="#fff" stroke="#222" stroke-width="2"/>
        <line id="선_30" data-name="선 30" x2="13.236" transform="translate(8.456 13.667)" fill="#fff" stroke="#222" stroke-width="2"/>
      </g>
    </g>
  </g>
</svg>
