<svg xmlns="http://www.w3.org/2000/svg" width="64" height="64" viewBox="0 0 64 64">
  <g id="그룹_31178" data-name="그룹 31178" transform="translate(-483.254 -512.351)">
    <rect id="사각형_5199" data-name="사각형 5199" width="64" height="64" transform="translate(483.254 512.351)" fill="none"/>
    <path id="패스_28107" data-name="패스 28107" d="M519.564,523.28a19.778,19.778,0,1,1-13.985,5.793,19.649,19.649,0,0,1,13.985-5.793m0-2.929A22.707,22.707,0,1,0,535.619,527a22.636,22.636,0,0,0-16.056-6.651Z" transform="translate(-2.868)" fill="#0086ff"/>
    <path id="패스_28108" data-name="패스 28108" d="M492.912,597.651h0a5.657,5.657,0,0,1,0-8l7.455-7.455a5.657,5.657,0,0,1,8,0h0a5.657,5.657,0,0,1,0,8l-7.455,7.455A5.656,5.656,0,0,1,492.912,597.651Z" transform="translate(0 -30.81)" fill="#fff"/>
    <g id="그룹_31184" data-name="그룹 31184" transform="translate(511.904 535.519)">
      <path id="패스_28111" data-name="패스 28111" d="M788.39,554.561a4.7,4.7,0,1,0-6.99,4.1l-2.409,4.416h9.4l-2.409-4.416A4.7,4.7,0,0,0,788.39,554.561Z" transform="translate(-778.991 -549.861)" fill="#fff"/>
    </g>
  </g>
</svg>
