<svg xmlns="http://www.w3.org/2000/svg" width="63" height="64" viewBox="0 0 63 64">
  <g id="그룹_31186" data-name="그룹 31186" transform="translate(-488.193 -739.028)">
    <rect id="사각형_5201" data-name="사각형 5201" width="63" height="64" transform="translate(488.193 739.028)" fill="none"/>
    <rect id="사각형_5195" data-name="사각형 5195" width="52.201" height="35.814" rx="7.597" transform="translate(493.903 757.424)" fill="#0086ff"/>
    <path id="패스_28113" data-name="패스 28113" d="M544.818,763.41h-3.146V752.676a1.6,1.6,0,0,0-1.575-1.621H514.921a1.6,1.6,0,0,0-1.575,1.621V763.41H510.2V752.676a4.8,4.8,0,0,1,4.721-4.857H540.1a4.8,4.8,0,0,1,4.721,4.857Z" transform="translate(-7.506 1)" fill="#fff"/>
    <g id="그룹_31185" data-name="그룹 31185" transform="translate(516.683 765.829)">
      <rect id="사각형_5196" data-name="사각형 5196" width="6.363" height="10.975" fill="#fff"/>
      <rect id="사각형_5197" data-name="사각형 5197" width="6.63" height="6.63" transform="translate(0 14.075)" fill="#fff"/>
    </g>
  </g>
</svg>
