<svg xmlns="http://www.w3.org/2000/svg" width="54" height="54" viewBox="0 0 54 54">
  <g id="Vector_Smart_Object" data-name="Vector Smart Object" transform="translate(-184.926 -1360.137)">
    <rect id="사각형_5203" data-name="사각형 5203" width="54" height="54" transform="translate(184.926 1360.137)" fill="none"/>
    <g id="그룹_915" data-name="그룹 915" transform="translate(191.926 1364.136)">
      <path id="패스_4834" data-name="패스 4834" d="M227.64,1364.136H196.211a4.326,4.326,0,0,0-4.285,4.366v41.634l10.753-13.392H227.64a4.328,4.328,0,0,0,4.286-4.366V1368.5A4.326,4.326,0,0,0,227.64,1364.136Z" transform="translate(-191.926 -1364.136)" fill="#fff" stroke="#222" stroke-width="2"/>
      <g id="그룹_914" data-name="그룹 914" transform="translate(8.177 10.568)">
        <line id="선_31" data-name="선 31" x2="23.645" fill="#fff" stroke="#222" stroke-width="2"/>
        <line id="선_32" data-name="선 32" x2="23.645" transform="translate(0 6.508)" fill="#fff" stroke="#222" stroke-width="2"/>
        <line id="선_33" data-name="선 33" x2="12.397" transform="translate(0 13.019)" fill="#fff" stroke="#222" stroke-width="2"/>
      </g>
    </g>
    <g id="그룹_917" data-name="그룹 917" transform="translate(210.121 1385.8)">
      <path id="패스_4835" data-name="패스 4835" d="M242.211,1409.084a4.261,4.261,0,1,1-4.26-4.3A4.281,4.281,0,0,1,242.211,1409.084Z" transform="translate(-229.629 -1404.781)" fill="#caeaff" stroke="#222" stroke-width="2"/>
      <g id="그룹_916" data-name="그룹 916" transform="translate(0 9.806)">
        <path id="패스_4836" data-name="패스 4836" d="M243.467,1433.97c0-6.963-3.726-12.606-8.322-12.606s-8.322,5.643-8.322,12.606c0,.068.007.134.007.2h16.631C243.46,1434.1,243.467,1434.038,243.467,1433.97Z" transform="translate(-226.822 -1421.364)" fill="#caeaff" stroke="#222" stroke-width="2"/>
      </g>
    </g>
  </g>
</svg>
