<svg xmlns="http://www.w3.org/2000/svg" width="28" height="28" viewBox="0 0 28 28">
  <g id="그룹_8369" data-name="그룹 8369" transform="translate(-51 -676)">
    <rect id="사각형_3586" data-name="사각형 3586" width="28" height="28" transform="translate(51 676)" fill="none"/>
    <g id="그룹_8368" data-name="그룹 8368" transform="translate(-93.43 -8.103)">
      <path id="사각형_3585" data-name="사각형 3585" d="M1,0H19a1,1,0,0,1,1,1V12a0,0,0,0,1,0,0H0a0,0,0,0,1,0,0V1A1,1,0,0,1,1,0Z" transform="translate(148.43 690.103)" fill="none" stroke="#024fc4" stroke-linecap="round" stroke-linejoin="round" stroke-width="1"/>
      <path id="패스_13891" data-name="패스 13891" d="M168.3,728.355l2.2,3.581c.111.2-.072.419-.346.419H146.81c-.275,0-.458-.222-.346-.419l2.2-3.581" transform="translate(-0.052 -26.252)" fill="none" stroke="#024fc4" stroke-linecap="round" stroke-linejoin="round" stroke-width="1"/>
      <line id="선_848" data-name="선 848" x2="8" transform="translate(151.43 694.103)" fill="none" stroke="#024fc4" stroke-linecap="round" stroke-linejoin="round" stroke-width="1"/>
      <line id="선_849" data-name="선 849" x2="4" transform="translate(151.43 697.103)" fill="none" stroke="#024fc4" stroke-linecap="round" stroke-linejoin="round" stroke-width="1"/>
    </g>
  </g>
</svg>
