<svg xmlns="http://www.w3.org/2000/svg" width="49" height="47" viewBox="0 0 49 47">
  <g id="그룹_30973" data-name="그룹 30973" transform="translate(-914.506 -523)">
    <g id="그룹_30954" data-name="그룹 30954" transform="translate(936.448 526.02)">
      <path id="패스_27876" data-name="패스 27876" d="M981.5,536.471H976.57a.647.647,0,0,1-.538-.288l-.671-1.006H973.9l-.671,1.006a.647.647,0,0,1-.538.288h-4.932A1.757,1.757,0,0,1,966,534.716v-2.961A1.757,1.757,0,0,1,967.755,530H981.5a1.757,1.757,0,0,1,1.755,1.755v2.961A1.757,1.757,0,0,1,981.5,536.471Zm-4.586-1.294H981.5a.461.461,0,0,0,.461-.461v-2.961a.461.461,0,0,0-.461-.461H967.755a.461.461,0,0,0-.461.461v2.961a.461.461,0,0,0,.461.461h4.586l.671-1.006a.647.647,0,0,1,.538-.288h2.157a.647.647,0,0,1,.538.288Z" transform="translate(-966 -530)" fill="#0b0e11"/>
    </g>
    <g id="그룹_30955" data-name="그룹 30955" transform="translate(931.365 527.314)">
      <path id="패스_27877" data-name="패스 27877" d="M984.888,574.112H954.5v-1.259h30.388a.454.454,0,0,0,.459-.446V534.7a.454.454,0,0,0-.459-.446H978.66V533h6.228a1.731,1.731,0,0,1,1.753,1.7v37.7A1.732,1.732,0,0,1,984.888,574.112Z" transform="translate(-954.5 -533)" fill="#0b0e11"/>
    </g>
    <g id="그룹_30956" data-name="그룹 30956" transform="translate(926.682 527.314)">
      <path id="패스_27878" data-name="패스 27878" d="M944.294,556.944H943V534.753A1.755,1.755,0,0,1,944.753,533h6.229v1.294h-6.229a.46.46,0,0,0-.459.459Z" transform="translate(-943 -533)" fill="#0b0e11"/>
    </g>
    <g id="그룹_30957" data-name="그룹 30957" transform="translate(939.047 523)">
      <path id="패스_27879" data-name="패스 27879" d="M984.08,526.667h-1.294v-1.728a.646.646,0,0,0-.645-.645h-8.2a.646.646,0,0,0-.645.645v1.728H972v-1.728A1.942,1.942,0,0,1,973.939,523h8.2a1.942,1.942,0,0,1,1.939,1.939Z" transform="translate(-972 -523)" fill="#0b0e11"/>
    </g>
    <g id="그룹_30958" data-name="그룹 30958" transform="translate(949.373 528.609)">
      <path id="패스_27880" data-name="패스 27880" d="M997.079,537.294h-.431a.647.647,0,1,1,0-1.294h.431a.647.647,0,0,1,0,1.294Z" transform="translate(-996 -536)" fill="#0b0e11"/>
    </g>
    <g id="그룹_30959" data-name="그룹 30959" transform="translate(939.104 528.609)">
      <path id="패스_27881" data-name="패스 27881" d="M973.079,537.294h-.431a.647.647,0,1,1,0-1.294h.431a.647.647,0,0,1,0,1.294Z" transform="translate(-972 -536)" fill="#0b0e11"/>
    </g>
    <g id="그룹_30960" data-name="그룹 30960" transform="translate(935.438 537.303)">
      <rect id="사각형_4921" data-name="사각형 4921" width="8.629" height="1.294" fill="#0b0e11"/>
    </g>
    <g id="그룹_30961" data-name="그룹 30961" transform="translate(938.445 541.931)">
      <rect id="사각형_4922" data-name="사각형 4922" width="5.609" height="1.294" transform="translate(0 0)" fill="#0b0e11"/>
    </g>
    <g id="그룹_30962" data-name="그룹 30962" transform="translate(938.015 549.924)">
      <rect id="사각형_4923" data-name="사각형 4923" width="6.04" height="1.294" transform="translate(0 0)" fill="#0b0e11"/>
    </g>
    <g id="그룹_30963" data-name="그룹 30963" transform="translate(938.015 554.551)">
      <rect id="사각형_4924" data-name="사각형 4924" width="6.04" height="1.294" transform="translate(0 0)" fill="#0b0e11"/>
    </g>
    <g id="그룹_30964" data-name="그룹 30964" transform="translate(914.506 560.354)">
      <path id="패스_27882" data-name="패스 27882" d="M928.382,621.934a.658.658,0,0,1-.219-.038l-13.229-4.747a.648.648,0,0,1-.375-.868l1.573-3.6a.646.646,0,0,1,.827-.345l13.015,5.056a.647.647,0,0,1,.364.85l-1.358,3.295A.647.647,0,0,1,928.382,621.934Zm-12.359-5.77,12,4.3.871-2.113-11.82-4.592Z" transform="translate(-914.506 -612.288)" fill="#0b0e11"/>
    </g>
    <g id="그룹_30965" data-name="그룹 30965" transform="translate(917.127 536.514)">
      <path id="패스_27883" data-name="패스 27883" d="M921.852,581.219l-1.27-.25.418-2.121a18.411,18.411,0,0,0,.328-4.411l-.276-5.977a4.928,4.928,0,0,1,.984-3.187L928.424,556l1.066.735-6.4,9.293a3.654,3.654,0,0,0-.742,2.37l.277,5.977a19.743,19.743,0,0,1-.351,4.721Z" transform="translate(-920.582 -556.002)" fill="#0b0e11"/>
    </g>
    <g id="그룹_30966" data-name="그룹 30966" transform="translate(926.717 542.555)">
      <path id="패스_27884" data-name="패스 27884" d="M945.924,593.973l-1.127-.635.848-1.506a.714.714,0,0,1,.062-.091,10.534,10.534,0,0,1,1.163-1.172,8.249,8.249,0,0,0,2.616-3.885,23.051,23.051,0,0,0,.733-4.543,24.2,24.2,0,0,1,.324-2.5c.317-1.378,1.132-5.21,1.141-5.249a1.611,1.611,0,0,0-1.009-1.979,1.6,1.6,0,0,0-2.062,1.092,36.984,36.984,0,0,1-2.961,7.446,3.079,3.079,0,0,1-2.554,1.027l.164-1.284a1.843,1.843,0,0,0,1.343-.5,36.941,36.941,0,0,0,2.762-7.036,2.891,2.891,0,1,1,5.573,1.544s-.817,3.842-1.135,5.23c-.113.492-.2,1.39-.3,2.34a23.342,23.342,0,0,1-.8,4.854,9.478,9.478,0,0,1-2.966,4.405,9.583,9.583,0,0,0-.992.987Z" transform="translate(-943.098 -571.033)" fill="#0b0e11"/>
    </g>
    <g id="그룹_30967" data-name="그룹 30967" transform="translate(947.112 536.812)">
      <path id="패스_27885" data-name="패스 27885" d="M999.413,565.06h-7.766a.647.647,0,0,1-.647-.647v-7.766a.647.647,0,0,1,.647-.647h5.609v1.294h-4.961v6.471h6.471v-1.941h1.294v2.589A.647.647,0,0,1,999.413,565.06Z" transform="translate(-991 -556)" fill="#0b0e11"/>
    </g>
    <g id="그룹_30968" data-name="그룹 30968" transform="translate(950.055 538.044)">
      <path id="패스_27886" data-name="패스 27886" d="M1000.054,564.244a.656.656,0,0,1-.505-.242l-1.726-2.157,1.01-.809,1.25,1.562,3.373-3.747.962.866-3.883,4.314A.646.646,0,0,1,1000.054,564.244Z" transform="translate(-997.823 -558.85)" fill="#0b0e11"/>
    </g>
    <g id="그룹_30969" data-name="그룹 30969" transform="translate(947.112 549.787)">
      <path id="패스_27887" data-name="패스 27887" d="M999.413,596.06h-7.766a.647.647,0,0,1-.647-.647v-7.766a.647.647,0,0,1,.647-.647h5.609v1.294h-4.961v6.471h6.471v-1.941h1.294v2.589A.647.647,0,0,1,999.413,596.06Z" transform="translate(-991 -587)" fill="#0b0e11"/>
    </g>
    <g id="그룹_30970" data-name="그룹 30970" transform="translate(950.055 551.054)">
      <path id="패스_27888" data-name="패스 27888" d="M1000.054,595.244a.656.656,0,0,1-.505-.242l-1.726-2.157,1.01-.809,1.25,1.562,3.373-3.747.962.866-3.883,4.314A.646.646,0,0,1,1000.054,595.244Z" transform="translate(-997.823 -589.85)" fill="#0b0e11"/>
    </g>
    <g id="그룹_30971" data-name="그룹 30971" transform="translate(930.121 528.393)">
      <rect id="사각형_4925" data-name="사각형 4925" width="1.294" height="12.943" fill="#0b0e11"/>
    </g>
    <g id="그룹_30972" data-name="그룹 30972" transform="translate(932.659 528.393)">
      <path id="패스_27889" data-name="패스 27889" d="M984.68,572.514H957.5v-1.255h26.533V535.5h1.294v36.386A.638.638,0,0,1,984.68,572.514Z" transform="translate(-957.5 -535.5)" fill="#0b0e11"/>
    </g>
  </g>
</svg>
