<svg xmlns="http://www.w3.org/2000/svg" width="54" height="54" viewBox="0 0 54 54">
  <g id="그룹_19043" data-name="그룹 19043" transform="translate(-646.5 -830)">
    <rect id="사각형_5206" data-name="사각형 5206" width="54" height="54" transform="translate(646.5 830)" fill="none"/>
    <path id="패스_18696" data-name="패스 18696" d="M693.5,888.466l-4.837.9.907-4.807" transform="translate(-14.37 -19.7)" fill="none" stroke="#fff" stroke-linecap="round" stroke-linejoin="round" stroke-width="1.5"/>
    <path id="패스_18697" data-name="패스 18697" d="M694.08,880.073l11.257-11.211a.583.583,0,0,0,0-.822l-3.091-3.092a.584.584,0,0,0-.822,0L690.167,876.16Z" transform="translate(-15.007 -11.278)" fill="none" stroke="#fff" stroke-linecap="round" stroke-linejoin="round" stroke-width="1.5"/>
    <path id="패스_18698" data-name="패스 18698" d="M664.013,840v30.13a3.225,3.225,0,0,1-3.462,3.44" transform="translate(-2.111)" fill="none" stroke="#fff" stroke-linecap="round" stroke-linejoin="round" stroke-width="1.5"/>
    <line id="선_1145" data-name="선 1145" x2="15" transform="translate(666.464 849.211)" fill="none" stroke="#fff" stroke-linecap="round" stroke-linejoin="round" stroke-width="1.5"/>
    <line id="선_1146" data-name="선 1146" x2="15" transform="translate(666.464 854.079)" fill="none" stroke="#fff" stroke-linecap="round" stroke-linejoin="round" stroke-width="1.5"/>
    <line id="선_1147" data-name="선 1147" x2="7" transform="translate(666.543 857.974)" fill="none" stroke="#fff" stroke-linecap="round" stroke-linejoin="round" stroke-width="1.5"/>
    <line id="선_1148" data-name="선 1148" x2="7" transform="translate(666.543 862.842)" fill="none" stroke="#fff" stroke-linecap="round" stroke-linejoin="round" stroke-width="1.5"/>
    <path id="패스_18699" data-name="패스 18699" d="M685.249,854.8V840H661.793l-.105,23.233H655.5v6.512c0,3.175,2.65,4.255,5.888,4.255h17.973c3.238,0,5.888-2.213,5.888-5.388v-5.379" transform="translate(0)" fill="none" stroke="#fff" stroke-linecap="round" stroke-linejoin="round" stroke-width="1.5"/>
  </g>
</svg>
