<svg xmlns="http://www.w3.org/2000/svg" width="43.545" height="42.224" viewBox="0 0 43.545 42.224">
  <g id="그룹_19044" data-name="그룹 19044" transform="translate(-481.82 -991.887)">
    <path id="패스_18700" data-name="패스 18700" d="M491.072,1009.081l-2.962-1.991c.836.506,2.542-.513,3.812-2.276,1.586-2.2,2.024-4.5.978-5.136-1.307-.791-3.973.8-5.956,3.557-.231.321-.447.643-.646.964-1.94,3.127-2.365,6.165-.884,7.061,1.327.8,3.55.034,5.794-1.784a19.666,19.666,0,0,0,3.512-3.773c3.872-5.381,4.942-11,2.389-12.539-3.191-1.931-9.7,1.957-14.54,8.683l3.531,2.335" fill="none" stroke="#fff" stroke-linecap="round" stroke-linejoin="round" stroke-width="1.5"/>
    <path id="패스_18701" data-name="패스 18701" d="M505.35,1024.429" transform="translate(-8.013 -11.172)" fill="none" stroke="#fff" stroke-linecap="round" stroke-linejoin="round" stroke-width="1.5"/>
    <path id="패스_18702" data-name="패스 18702" d="M513.018,1031.987" transform="translate(-10.71 -13.83)" fill="none" stroke="#fff" stroke-linecap="round" stroke-linejoin="round" stroke-width="1.5"/>
    <path id="패스_18703" data-name="패스 18703" d="M499.287,994.144l9.4,13.4a19.458,19.458,0,0,0,3.527,3.643l13.436,10.943s1.457,2.631-1.3,6.374a7.9,7.9,0,0,1-6.591,3.349l-12.1-11.655a19.434,19.434,0,0,0-5.891-3.907l-12.814-4.51" transform="translate(-1.544 -0.519)" fill="none" stroke="#fff" stroke-linecap="round" stroke-linejoin="round" stroke-width="1.5"/>
    <line id="선_1149" data-name="선 1149" x2="3.331" y2="3.455" transform="translate(492.9 999.678)" fill="none" stroke="#fff" stroke-linecap="round" stroke-linejoin="round" stroke-width="1.5"/>
    <path id="패스_18704" data-name="패스 18704" d="M507.313,1023.431s-1.014,1.875.681,2.666c1.037.484,2.629.18,4.4-1.074a15.045,15.045,0,0,0,2.817-2.653c3.175-3.834,4.287-7.964,2.483-9.224a1.849,1.849,0,0,0-2.057.129" transform="translate(-8.597 -7.117)" fill="none" stroke="#fff" stroke-linecap="round" stroke-linejoin="round" stroke-width="1.5"/>
    <path id="패스_18705" data-name="패스 18705" d="M509.416,1027.769c.912.69,2.533.727,4.523-.128a15.039,15.039,0,0,0,3.311-2c3.908-3.082,5.862-6.887,4.363-8.5a1.849,1.849,0,0,0-2.039-.3" transform="translate(-9.443 -8.444)" fill="none" stroke="#fff" stroke-linecap="round" stroke-linejoin="round" stroke-width="1.5"/>
    <path id="패스_18706" data-name="패스 18706" d="M506.222,1033.869l-.534-.068a4.4,4.4,0,0,0-4.936,4.6h0a4.4,4.4,0,0,0,4.811,4.135l3.152-.3a4.4,4.4,0,0,1,4.607,3.033l.755,2.354" transform="translate(-6.393 -14.456)" fill="none" stroke="#fff" stroke-linecap="round" stroke-linejoin="round" stroke-width="1.5"/>
  </g>
</svg>
