<svg xmlns="http://www.w3.org/2000/svg" width="35.241" height="35.589" viewBox="0 0 35.241 35.589">
  <g id="그룹_19050" data-name="그룹 19050" transform="translate(-822.262 -686.391)">
    <g id="그룹_19049" data-name="그룹 19049" transform="translate(823.012 687.141)">
      <path id="패스_18709" data-name="패스 18709" d="M841.314,707.382H823.966a.961.961,0,0,1-.953-.964V688.105a.962.962,0,0,1,.953-.964H849.7a.962.962,0,0,1,.954.964v18.313a.961.961,0,0,1-.954.964h-2.351" transform="translate(-823.012 -687.141)" fill="none" stroke="#fff" stroke-linecap="round" stroke-linejoin="round" stroke-width="1.5"/>
      <line id="선_1153" data-name="선 1153" x2="2.272" transform="translate(21.918 16.292)" fill="none" stroke="#fff" stroke-linecap="round" stroke-linejoin="round" stroke-width="1.5"/>
      <line id="선_1154" data-name="선 1154" x2="4.757" transform="translate(11.848 16.292)" fill="none" stroke="#fff" stroke-linecap="round" stroke-linejoin="round" stroke-width="1.5"/>
      <line id="선_1155" data-name="선 1155" x2="4.937" transform="translate(3.456 16.292)" fill="none" stroke="#fff" stroke-linecap="round" stroke-linejoin="round" stroke-width="1.5"/>
      <line id="선_1156" data-name="선 1156" x2="4.937" transform="translate(3.456 13.823)" fill="none" stroke="#fff" stroke-linecap="round" stroke-linejoin="round" stroke-width="1.5"/>
      <g id="그룹_19047" data-name="그룹 19047" transform="translate(16.372 4.352)">
        <path id="패스_18710" data-name="패스 18710" d="M856.408,696.07a2.34,2.34,0,1,1-3.174-.934A2.339,2.339,0,0,1,856.408,696.07Z" transform="translate(-852.014 -694.85)" fill="none" stroke="#fff" stroke-linecap="round" stroke-linejoin="round" stroke-width="1.5"/>
      </g>
      <g id="그룹_19048" data-name="그룹 19048" transform="translate(20.857 4.352)">
        <path id="패스_18711" data-name="패스 18711" d="M860,695.142l.609-.238a2.34,2.34,0,1,1-.05,4.559,2.252,2.252,0,0,1-.6-.24" transform="translate(-859.957 -694.849)" fill="none" stroke="#fff" stroke-linecap="round" stroke-linejoin="round" stroke-width="1.5"/>
      </g>
    </g>
    <path id="패스_18712" data-name="패스 18712" d="M860.805,719.936l-3.785-6.506a2.361,2.361,0,0,0-3.17-1.051h0a2.361,2.361,0,0,0-1.051,3.17l4.759,8.322c.393,5.707,3.935,7.478,6.1,8.068" transform="translate(-12.862 -10.881)" fill="none" stroke="#fff" stroke-linecap="round" stroke-linejoin="round" stroke-width="1.5"/>
    <path id="패스_18713" data-name="패스 18713" d="M872.223,702.608l4.2,4.315c1.476,1.612,1.808,3.529,1.759,5.971V727.5" transform="translate(-21.43 -6.735)" fill="none" stroke="#fff" stroke-linecap="round" stroke-linejoin="round" stroke-width="1.5"/>
  </g>
</svg>
