<svg id="Vector_Smart_Object" data-name="Vector Smart Object" xmlns="http://www.w3.org/2000/svg" width="59" height="54" viewBox="0 0 59 54">
  <g id="그룹_714" data-name="그룹 714">
    <path id="패스_2571" data-name="패스 2571" d="M200.116,212.951l-1.16-5.266,16.926-3.834,1.011,5.7Z" transform="translate(-168.866 -159.26)" fill="#ffc960"/>
    <g id="그룹_698" data-name="그룹 698" transform="translate(28.753 19.467)">
      <path id="패스_2572" data-name="패스 2572" d="M204.156,185.141a.75.75,0,0,1-.732-.589l-.786-3.567a1.322,1.322,0,0,0-.817-.823,2.557,2.557,0,0,0-1.52-.18,1.632,1.632,0,0,0-1.014.689,1.453,1.453,0,0,0-.221,1.126l.5,2.283a.75.75,0,1,1-1.465.324l-.5-2.283a2.946,2.946,0,0,1,.439-2.284,3.126,3.126,0,0,1,1.938-1.322,4.021,4.021,0,0,1,2.457.276,2.747,2.747,0,0,1,1.669,1.87l.786,3.567a.75.75,0,0,1-.733.913Z" transform="translate(-197.531 -178.432)" fill="#252d32"/>
    </g>
    <g id="그룹_699" data-name="그룹 699" transform="translate(33.97 19.455)">
      <path id="패스_2573" data-name="패스 2573" d="M208.568,184.166a.751.751,0,0,1-.732-.59l-.564-2.557a1.469,1.469,0,0,0-1.78-1.062,1.546,1.546,0,0,0-.958.651,1.373,1.373,0,0,0-.209,1.063.75.75,0,1,1-1.465.324,2.862,2.862,0,0,1,.426-2.221,3.038,3.038,0,0,1,1.883-1.285,2.971,2.971,0,0,1,3.568,2.206l.563,2.558a.752.752,0,0,1-.732.913Z" transform="translate(-202.794 -178.416)" fill="#252d32"/>
    </g>
    <g id="그룹_700" data-name="그룹 700" transform="translate(15.96 10.445)">
      <path id="패스_2574" data-name="패스 2574" d="M199.98,207.368a.751.751,0,0,1-.717-.531c-.407-1.33-2.068-2.564-2.867-3.157-.979-.728-1.878-1.325-2.67-1.851-1.911-1.271-3.421-2.273-4.357-4.01-.184-.342-.482-.864-.84-1.491-3.419-5.992-4.229-7.873-3.764-8.752a2.124,2.124,0,0,1,1.578-1.013,5.54,5.54,0,0,1,4.4,1.432.748.748,0,0,1,.074.076c1.608,1.923,4.273,5.082,4.574,5.377a.048.048,0,0,0,.062-.011l-4.408-20.051a3.034,3.034,0,0,1,.565-2.515,3,3,0,0,1,2.273-1.164,3.088,3.088,0,0,1,3.065,2.5l2.338,10.609a.75.75,0,1,1-1.465.324l-2.337-10.609a1.625,1.625,0,0,0-1.5-1.325h-.045a1.484,1.484,0,0,0-1.14.582,1.534,1.534,0,0,0-.287,1.271l4.412,20.019a1.542,1.542,0,0,1-2.581,1.44c-.442-.433-4.07-4.763-4.639-5.443a4.026,4.026,0,0,0-3.1-1.036,1,1,0,0,0-.465.18c.115,1.094,2.7,5.624,3.691,7.36.365.641.67,1.174.858,1.523.757,1.406,1.993,2.228,3.865,3.472.808.537,1.724,1.145,2.734,1.9.927.689,2.856,2.121,3.408,3.923a.752.752,0,0,1-.717.972Z" transform="translate(-184.646 -169.705)" fill="#252d32"/>
    </g>
    <g id="그룹_701" data-name="그룹 701" transform="translate(38.485 19.089)">
      <path id="패스_2575" data-name="패스 2575" d="M214.514,204.372a.75.75,0,0,1-.74-.634l-.043-.273a6.633,6.633,0,0,1,.5-3.729,10.717,10.717,0,0,0,.5-5.717l-.038-.322c-.135-1.21-2.1-9.725-2.848-12.9a1.361,1.361,0,0,0-.635-.877,1.574,1.574,0,0,0-2.1.461,1.671,1.671,0,0,0-.181.371,1.3,1.3,0,0,0-.03.686l.122.554a.75.75,0,1,1-1.465.324l-.122-.554a2.842,2.842,0,0,1,.078-1.5,3.166,3.166,0,0,1,.351-.714,3.072,3.072,0,0,1,4.128-.91,2.844,2.844,0,0,1,1.32,1.827c.108.46,2.7,11.523,2.876,13.07l.036.315a11.994,11.994,0,0,1-.618,6.5,5.138,5.138,0,0,0-.393,2.884l.043.272a.752.752,0,0,1-.624.859A.79.79,0,0,1,214.514,204.372Z" transform="translate(-207.37 -178.192)" fill="#252d32"/>
    </g>
    <g id="그룹_702" data-name="그룹 702" transform="translate(29.334 43.84)">
      <path id="패스_2576" data-name="패스 2576" d="M200.018,213.26a.751.751,0,0,1-.732-.589l-1.064-4.83a.752.752,0,0,1,.568-.895l16.928-3.827a.749.749,0,0,1,.9.6l.909,5.232a.75.75,0,1,1-1.478.257l-.773-4.453-15.431,3.488.9,4.1a.752.752,0,0,1-.733.913Z" transform="translate(-198.204 -203.099)" fill="#252d32"/>
    </g>
    <path id="패스_2577" data-name="패스 2577" d="M187.1,199.326H172.383a.383.383,0,0,1-.383-.384v-38.68h-1.75a1.751,1.751,0,0,0-1.75,1.753v38.212c0,1.715,1,2.6,2.9,2.6h17.777a.391.391,0,0,0,.3-.642Z" transform="translate(-168.5 -158.76)" fill="#79c651"/>
    <path id="패스_2578" data-name="패스 2578" d="M218.5,199.326h5.617a.383.383,0,0,0,.383-.384v-38.68h1.75a1.751,1.751,0,0,1,1.75,1.753v38.212c0,1.715-1,2.6-2.9,2.6h-6.783a.615.615,0,0,1-.591-.785Z" transform="translate(-169 -158.76)" fill="#79c651"/>
    <g id="그룹_703" data-name="그룹 703" transform="translate(28.5)">
      <path id="패스_2579" data-name="패스 2579" d="M223.626,200.328H218.75a.751.751,0,0,1,0-1.5h4.75V160.262H203.38c-2.229,0-3.957,1.153-4.4,2.937a.75.75,0,1,1-1.455-.365c.617-2.475,2.917-4.075,5.858-4.075h20.246A1.376,1.376,0,0,1,225,160.135v38.816A1.376,1.376,0,0,1,223.626,200.328Z" transform="translate(-197.5 -158.76)" fill="#252d32"/>
    </g>
    <g id="그룹_704" data-name="그룹 704" transform="translate(3)">
      <path id="패스_2580" data-name="패스 2580" d="M187.25,200.328H172.874a1.376,1.376,0,0,1-1.374-1.376V160.135a1.376,1.376,0,0,1,1.374-1.376H193.12c2.941,0,5.24,1.6,5.858,4.075a.75.75,0,1,1-1.455.365c-.446-1.784-2.174-2.937-4.4-2.937H173v38.563h14.25a.751.751,0,0,1,0,1.5Z" transform="translate(-171.5 -158.76)" fill="#252d32"/>
    </g>
    <g id="그룹_705" data-name="그룹 705" transform="translate(20.314 7.512)">
      <path id="패스_2581" data-name="패스 2581" d="M192.75,167.774h-3a.751.751,0,0,1,0-1.5h3a.751.751,0,0,1,0,1.5Z" transform="translate(-189 -166.272)" fill="#252d32"/>
    </g>
    <g id="그룹_706" data-name="그룹 706" transform="translate(7.5 7.512)">
      <path id="패스_2582" data-name="패스 2582" d="M186.25,167.774h-9.5a.751.751,0,0,1,0-1.5h9.5a.751.751,0,0,1,0,1.5Z" transform="translate(-176 -166.272)" fill="#252d32"/>
    </g>
    <g id="그룹_707" data-name="그룹 707" transform="translate(7.5 12.898)">
      <path id="패스_2583" data-name="패스 2583" d="M188.25,173.283h-11.5a.751.751,0,0,1,0-1.5h11.5a.751.751,0,0,1,0,1.5Z" transform="translate(-176 -171.781)" fill="#252d32"/>
    </g>
    <g id="그룹_708" data-name="그룹 708" transform="translate(34 7.512)">
      <path id="패스_2584" data-name="패스 2584" d="M219.75,167.774h-16a.751.751,0,0,1,0-1.5h16a.751.751,0,0,1,0,1.5Z" transform="translate(-203 -166.272)" fill="#252d32"/>
    </g>
    <g id="그룹_709" data-name="그룹 709" transform="translate(34.152 12.898)">
      <path id="패스_2585" data-name="패스 2585" d="M212.25,173.283h-8.5a.751.751,0,0,1,0-1.5h8.5a.751.751,0,0,1,0,1.5Z" transform="translate(-203 -171.781)" fill="#252d32"/>
    </g>
    <g id="그룹_710" data-name="그룹 710" transform="translate(46.5 12.898)">
      <path id="패스_2586" data-name="패스 2586" d="M219.75,173.283h-3.5a.751.751,0,0,1,0-1.5h3.5a.751.751,0,0,1,0,1.5Z" transform="translate(-215.5 -171.781)" fill="#252d32"/>
    </g>
    <g id="그룹_711" data-name="그룹 711" transform="translate(46 18.355)">
      <path id="패스_2587" data-name="패스 2587" d="M219.75,178.792h-4a.751.751,0,0,1,0-1.5h4a.751.751,0,0,1,0,1.5Z" transform="translate(-215 -177.29)" fill="#252d32"/>
    </g>
    <g id="그룹_712" data-name="그룹 712" transform="translate(7.5 18.355)">
      <path id="패스_2588" data-name="패스 2588" d="M186.75,178.792h-10a.751.751,0,0,1,0-1.5h10a.751.751,0,0,1,0,1.5Z" transform="translate(-176 -177.29)" fill="#252d32"/>
    </g>
    <g id="그룹_713" data-name="그룹 713" transform="translate(7.5 23.812)">
      <path id="패스_2589" data-name="패스 2589" d="M186.75,184.3h-10a.751.751,0,0,1,0-1.5h10a.751.751,0,0,1,0,1.5Z" transform="translate(-176 -182.799)" fill="#252d32"/>
    </g>
  </g>
</svg>
