<svg xmlns="http://www.w3.org/2000/svg" width="60.5" height="49.002" viewBox="0 0 60.5 49.002">
  <g id="Vector_Smart_Object" data-name="Vector Smart Object" transform="translate(0.529)">
    <g id="그룹_697" data-name="그룹 697">
      <path id="패스_2563" data-name="패스 2563" d="M173.03,389.861a3.55,3.55,0,0,1-.262-2.3,3.591,3.591,0,0,1,6.987-.092,2.476,2.476,0,0,1,1.138-.485,2.349,2.349,0,0,1,1.928.647,2.287,2.287,0,0,1,.89,2.23Z" transform="translate(-168.279 -384.754)" fill="#79c651"/>
      <rect id="사각형_15" data-name="사각형 15" width="4" height="4.487" transform="translate(17.721 12.087)" fill="#ffc960"/>
      <rect id="사각형_16" data-name="사각형 16" width="4" height="3.49" transform="translate(36.221 3.113)" fill="#ffc960"/>
      <path id="패스_2564" data-name="패스 2564" d="M168.368,425.181a3.41,3.41,0,0,1,1.93-3.9,2.272,2.272,0,0,1,1.887-3.547c.056,0,.112,0,.167.008a2.928,2.928,0,0,1,2.763-1.956h.326a2.929,2.929,0,0,1,2.763,1.956c.055,0,.111-.008.167-.008a2.272,2.272,0,0,1,1.887,3.547,3.378,3.378,0,0,1-1.456,6.47h-7.072A3.41,3.41,0,0,1,168.368,425.181Z" transform="translate(-168.279 -384.754)" fill="#79c651"/>
      <path id="패스_2565" data-name="패스 2565" d="M190.25,400.581V387.618h18.5v2.991" transform="translate(-168.279 -384.754)" fill="none" stroke="#252d32" stroke-linecap="round" stroke-linejoin="round" stroke-width="1.498"/>
      <path id="패스_2566" data-name="패스 2566" d="M171.75,415.039V396.592h18" transform="translate(-168.279 -384.754)" fill="none" stroke="#252d32" stroke-linecap="round" stroke-linejoin="round" stroke-width="1.498"/>
      <line id="선_11" data-name="선 11" y2="12.464" transform="translate(8.971 16.823)" fill="none" stroke="#252d32" stroke-linecap="round" stroke-linejoin="round" stroke-width="1.496" stroke-dasharray="4 6"/>
      <line id="선_12" data-name="선 12" y2="13.461" transform="translate(14.471 16.823)" fill="none" stroke="#252d32" stroke-linecap="round" stroke-linejoin="round" stroke-width="1.496" stroke-dasharray="4 6"/>
      <line id="선_13" data-name="선 13" x1="2.788" y2="1.589" transform="translate(7 37.818)" fill="none" stroke="#252d32" stroke-linecap="round" stroke-linejoin="round" stroke-width="1.498"/>
      <line id="선_14" data-name="선 14" y2="11.966" transform="translate(6.971 35.27)" fill="none" stroke="#252d32" stroke-linecap="round" stroke-linejoin="round" stroke-width="1.496"/>
      <line id="선_15" data-name="선 15" x2="3.187" y2="2.383" transform="translate(3.415 39.009)" fill="none" stroke="#252d32" stroke-linecap="round" stroke-linejoin="round" stroke-width="1.498"/>
      <ellipse id="타원_9" data-name="타원 9" cx="19.25" cy="19.195" rx="19.25" ry="19.195" transform="translate(20.471 9.843)" fill="none" stroke="#252d32" stroke-linecap="round" stroke-linejoin="round" stroke-width="1.498"/>
      <line id="선_16" data-name="선 16" x1="59" transform="translate(0.221 48.252)" fill="none" stroke="#252d32" stroke-linecap="round" stroke-linejoin="round" stroke-width="1.5"/>
      <path id="패스_2567" data-name="패스 2567" d="M219.589,414.62l-9,1.923v1.538h-4.714v-1.538L198.589,415V410.39h21Z" transform="translate(-168.279 -384.754)" fill="#79c651"/>
      <path id="패스_2568" data-name="패스 2568" d="M218.947,415.3v8.024a.952.952,0,0,1-.954.95H198.471a.952.952,0,0,1-.953-.95V415.3" transform="translate(-168.279 -384.754)" fill="none" stroke="#252d32" stroke-linecap="round" stroke-linejoin="round" stroke-width="1.498"/>
      <path id="패스_2569" data-name="패스 2569" d="M210.035,416.727l8.494-1.8a1.047,1.047,0,0,0,.846-1.03v-4.379a1.05,1.05,0,0,0-1.052-1.048H197.712a1.05,1.05,0,0,0-1.052,1.048v4.379a1.047,1.047,0,0,0,.846,1.03l8.52,1.808" transform="translate(-168.279 -384.754)" fill="none" stroke="#252d32" stroke-linecap="round" stroke-linejoin="round" stroke-width="1.498"/>
      <path id="패스_2570" data-name="패스 2570" d="M212.518,408.467v-3.432a1.7,1.7,0,0,0-1.7-1.7h-5.6a1.7,1.7,0,0,0-1.7,1.7v3.432" transform="translate(-168.279 -384.754)" fill="none" stroke="#252d32" stroke-linecap="round" stroke-linejoin="round" stroke-width="1.498"/>
      <rect id="사각형_17" data-name="사각형 17" width="3.857" height="2.564" transform="translate(37.81 30.977)" fill="none" stroke="#252d32" stroke-linecap="round" stroke-linejoin="round" stroke-width="1.498"/>
    </g>
  </g>
</svg>
