<svg xmlns="http://www.w3.org/2000/svg" width="63" height="50.5" viewBox="0 0 63 50.5">
  <g id="Vector_Smart_Object" data-name="Vector Smart Object" transform="translate(0.75 0.5)">
    <g id="그룹_696" data-name="그룹 696">
      <rect id="사각형_11" data-name="사각형 11" width="39.5" height="11.996" transform="translate(6.75)" fill="#79c651"/>
      <rect id="사각형_12" data-name="사각형 12" width="6" height="3.499" transform="matrix(-1, 0, 0, -1, 38.25, 35.489)" fill="#ffc960"/>
      <rect id="사각형_13" data-name="사각형 13" width="6" height="6.998" transform="matrix(-1, 0, 0, -1, 28.75, 35.489)" fill="#ffc960"/>
      <rect id="사각형_14" data-name="사각형 14" width="6" height="12.996" transform="translate(13.25 22.493)" fill="#ffc960"/>
      <g id="그룹_695" data-name="그룹 695" transform="translate(16.694 3.781)">
        <path id="패스_2555" data-name="패스 2555" d="M394.944,276.277h1.132l1.613,2.962.555,1.2h.038c-.053-.577-.143-1.312-.143-1.941v-2.219h1.05v5.555h-1.125l-1.605-2.969-.562-1.192h-.037c.052.6.134,1.3.134,1.934v2.227h-1.049Z" transform="translate(-394.944 -276.18)" fill="#fff"/>
        <path id="패스_2556" data-name="패스 2556" d="M400.561,276.277h3.4v.93h-2.295v1.282h1.949v.929h-1.949V280.9h2.378v.93h-3.488Z" transform="translate(-394.944 -276.18)" fill="#fff"/>
        <path id="패스_2557" data-name="패스 2557" d="M404.634,276.277h1.125l.442,2.714c.083.585.173,1.17.255,1.769h.031c.112-.6.232-1.193.352-1.769l.645-2.714h.953l.637,2.714c.12.57.233,1.17.353,1.769h.038c.082-.6.165-1.193.247-1.769l.443-2.714h1.05l-1.027,5.555H408.8l-.622-2.744c-.09-.434-.172-.862-.24-1.289h-.03c-.076.427-.15.855-.24,1.289l-.608,2.744H405.7Z" transform="translate(-394.944 -276.18)" fill="#fff"/>
        <path id="패스_2558" data-name="패스 2558" d="M411.646,281.128l.638-.764a2.186,2.186,0,0,0,1.41.614c.577,0,.885-.247.885-.637,0-.412-.338-.539-.832-.749l-.742-.315a1.607,1.607,0,0,1-1.125-1.492,1.73,1.73,0,0,1,1.92-1.6,2.463,2.463,0,0,1,1.74.712l-.562.7a1.771,1.771,0,0,0-1.178-.457c-.487,0-.795.217-.795.585,0,.4.39.54.862.727l.727.307a1.534,1.534,0,0,1,1.118,1.508,1.805,1.805,0,0,1-2.04,1.679A2.958,2.958,0,0,1,411.646,281.128Z" transform="translate(-394.944 -276.18)" fill="#fff"/>
      </g>
      <line id="선_9" data-name="선 9" x1="55.5" transform="translate(0 49.235)" fill="none" stroke="#252d32" stroke-linecap="round" stroke-linejoin="round" stroke-width="1.5"/>
      <path id="패스_2559" data-name="패스 2559" d="M381.75,280.146h-2v38.769a2.557,2.557,0,0,0,1.98,2.537,2.5,2.5,0,0,0,3.02-2.442V272.649h40v20.993" transform="translate(-378.25 -272.399)" fill="none" stroke="#252d32" stroke-linecap="round" stroke-linejoin="round" stroke-width="1.5"/>
      <line id="선_10" data-name="선 10" x2="20.5" y2="7.498" transform="translate(17 18.244)" fill="none" stroke="#252d32" stroke-linecap="round" stroke-linejoin="round" stroke-width="1.5"/>
      <path id="패스_2560" data-name="패스 2560" d="M412.75,298.641l3-.5-2-2.5" transform="translate(-378.25 -272.399)" fill="none" stroke="#252d32" stroke-linecap="round" stroke-linejoin="round" stroke-width="1.5"/>
      <path id="패스_2561" data-name="패스 2561" d="M421.955,303.751c.2.933-.457,1.332-.955,1.837a3.048,3.048,0,0,0-.324,2.224c.431.861,1.569.049,2.316.554s.5,1.515,1.245,1.515,1.178.514,1.608,1.376a1.369,1.369,0,0,1-1.11,2.16c-1.493.253-1.656,1.641-1.9,2.146s-.363,3.089-.862,2.583-.928-1.246-.431-3.014-1.212-2.775-1.292-3.014c-.431-1.292.506-3.247-.987-3.247a7.038,7.038,0,0,1-3.32-.628,1.9,1.9,0,0,1-.9-1.07c-.573-2.619,3.647-7.871,4.743-7.913.749-.029,2.839.216,2.013,2.395C421.521,302.384,421.741,302.732,421.955,303.751Z" transform="translate(-378.25 -272.399)" fill="#79c651"/>
      <path id="패스_2562" data-name="패스 2562" d="M438.469,304.234a14.737,14.737,0,0,0-3.316-.636,5.264,5.264,0,0,0-3.311,1.335c-.226.272.12.668.037,1.2a2.383,2.383,0,0,1-.94,1.682c-.348.349-1.293.709-1.316,1.564-.013.465,1.246,1.3,1.167,1.552-.225.72-.94,1.682-1.279,2.762s-1.656,2.644-.9,2.88,2.22-.49,3.311-1.335,2.859.105,3.8-1.576,3.511-1.555,3.511-1.555A11.04,11.04,0,0,0,438.469,304.234Z" transform="translate(-378.25 -272.399)" fill="#79c651"/>
      <ellipse id="타원_8" data-name="타원 8" cx="12.5" cy="12.496" rx="12.5" ry="12.496" transform="translate(36.5 24.258)" fill="none" stroke="#252d32" stroke-linecap="round" stroke-linejoin="round" stroke-width="1.5"/>
    </g>
  </g>
</svg>
