<svg xmlns="http://www.w3.org/2000/svg" width="55.5" height="52.5" viewBox="0 0 55.5 52.5">
  <g id="Vector_Smart_Object" data-name="Vector Smart Object" transform="translate(0.75 0.75)">
    <g id="그룹_715" data-name="그룹 715">
      <rect id="사각형_18" data-name="사각형 18" width="4.5" height="13.5" transform="translate(16.75 9.128)" fill="#79c651"/>
      <rect id="사각형_19" data-name="사각형 19" width="8.5" height="4.5" transform="translate(28.75 14.084) rotate(90)" fill="#79c651"/>
      <path id="패스_2590" data-name="패스 2590" d="M196,196.984v4H175.745A1.882,1.882,0,0,1,174,198.99v-2.006Z" transform="translate(-171.25 -160.126)" fill="#79c651"/>
      <rect id="사각형_20" data-name="사각형 20" width="4.5" height="4.5" transform="translate(36.25 18.056) rotate(90)" fill="#79c651"/>
      <path id="패스_2591" data-name="패스 2591" d="M211.586,184.271a13.25,13.25,0,1,0,13.25,13.25A13.25,13.25,0,0,0,211.586,184.271Zm3.792,12.713-6.294,9.473-.262-6.893-2.833-.1,3.611-8.977h6.6l-4.54,6.5Z" transform="translate(-171.25 -160.234)" fill="#ffc960"/>
      <path id="패스_2592" data-name="패스 2592" d="M221.25,184.234V168.809a2.075,2.075,0,0,0-2.075-2.075H217.25" transform="translate(-171.25 -159.734)" fill="none" stroke="#252d32" stroke-linecap="round" stroke-linejoin="round" stroke-width="1.5"/>
      <path id="패스_2593" data-name="패스 2593" d="M177.75,166.734h-1.925a2.075,2.075,0,0,0-2.075,2.075v30.35a2.075,2.075,0,0,0,2.075,2.075H195.25" transform="translate(-171.25 -159.734)" fill="none" stroke="#252d32" stroke-linecap="round" stroke-linejoin="round" stroke-width="1.5"/>
      <path id="패스_2594" data-name="패스 2594" d="M193.77,207.273a8.771,8.771,0,0,0,.98-4.027v-1.512" transform="translate(-171.25 -160.234)" fill="none" stroke="#252d32" stroke-linecap="round" stroke-linejoin="round" stroke-width="1.5"/>
      <path id="패스_2595" data-name="패스 2595" d="M198.75,207.734h-9.5v3" transform="translate(-171.25 -160.234)" fill="none" stroke="#252d32" stroke-linecap="round" stroke-linejoin="round" stroke-width="1.5"/>
      <line id="선_17" data-name="선 17" x1="52" transform="translate(0 51)" fill="none" stroke="#252d32" stroke-linecap="round" stroke-linejoin="round" stroke-width="1.5"/>
      <line id="선_18" data-name="선 18" x1="21" transform="translate(3 36.641)" fill="none" stroke="#252d32" stroke-linecap="round" stroke-linejoin="round" stroke-width="1.5"/>
      <path id="패스_2596" data-name="패스 2596" d="M181.25,193.734v-34h32.5v11.5" transform="translate(-171.25 -159.734)" fill="none" stroke="#252d32" stroke-linecap="round" stroke-linejoin="round" stroke-width="1.5"/>
      <path id="패스_2597" data-name="패스 2597" d="M209.084,206.206l6.294-9.472h-3.714l4.54-6.5h-6.6l-3.611,8.976,3.333.1" transform="translate(-171.25 -160.234)" fill="none" stroke="#252d32" stroke-linecap="round" stroke-linejoin="round" stroke-width="1.5"/>
      <circle id="타원_10" data-name="타원 10" cx="13.5" cy="13.5" r="13.5" transform="translate(27 24)" fill="none" stroke="#252d32" stroke-linecap="round" stroke-linejoin="round" stroke-width="1.5"/>
      <line id="선_19" data-name="선 19" y2="1" transform="translate(34 5.5)" fill="none" stroke="#252d32" stroke-linecap="round" stroke-linejoin="round" stroke-width="1.5"/>
      <line id="선_20" data-name="선 20" y2="1.5" transform="translate(34 12.87)" fill="none" stroke="#252d32" stroke-linecap="round" stroke-linejoin="round" stroke-width="1.5"/>
      <path id="패스_2598" data-name="패스 2598" d="M206.949,167.48a2.1,2.1,0,0,0-1.412-.831,1.762,1.762,0,0,0-1.771.833,1.494,1.494,0,0,0,.131,1.408c.673.988,2.19.356,2.99,1.381a1.64,1.64,0,0,1,.283,1.518,1.955,1.955,0,0,1-1.777,1.014,2.531,2.531,0,0,1-1.917-.887" transform="translate(-171.25 -159.734)" fill="none" stroke="#252d32" stroke-linecap="round" stroke-linejoin="round" stroke-width="1.5"/>
    </g>
  </g>
</svg>
