<svg id="Vector_Smart_Object" data-name="Vector Smart Object" xmlns="http://www.w3.org/2000/svg" width="57.5" height="55.5" viewBox="0 0 57.5 55.5">
  <g id="그룹_733" data-name="그룹 733">
    <path id="패스_2599" data-name="패스 2599" d="M396.039,406.424V383.983h-3.5v29.153C394.039,413.405,395.539,407.92,396.039,406.424Z" transform="translate(-377.043 -377.999)" fill="#ffc960"/>
    <path id="패스_2600" data-name="패스 2600" d="M430.042,383.983v43.385h-32l-1.5,3.989h37V383.983Z" transform="translate(-377.043 -377.999)" fill="#ffc960"/>
    <g id="그룹_716" data-name="그룹 716" transform="translate(25.997 3.491)">
      <path id="패스_2601" data-name="패스 2601" d="M421.007,388.97h-5.717a.75.75,0,0,1-.624-.333l-.778-1.163h-1.7l-.778,1.163a.75.75,0,0,1-.624.333h-5.717a2.034,2.034,0,0,1-2.034-2.029v-3.423a2.034,2.034,0,0,1,2.034-2.029h15.934a2.034,2.034,0,0,1,2.034,2.029v3.423A2.034,2.034,0,0,1,421.007,388.97Zm-5.315-1.5h5.315a.534.534,0,0,0,.534-.533v-3.423a.534.534,0,0,0-.534-.533H405.074a.534.534,0,0,0-.534.533v3.423a.534.534,0,0,0,.534.533h5.315l.778-1.163a.75.75,0,0,1,.624-.333h2.5a.75.75,0,0,1,.624.333Z" transform="translate(-403.039 -381.49)" fill="#252d32"/>
    </g>
    <g id="그룹_717" data-name="그룹 717" transform="translate(19.496 4.987)">
      <path id="패스_2602" data-name="패스 2602" d="M432.51,431.857H397.289a.748.748,0,1,1,0-1.5H432.51a.532.532,0,0,0,.532-.531V385.013a.532.532,0,0,0-.532-.531h-7.219a.748.748,0,1,1,0-1.5h7.219a2.032,2.032,0,0,1,2.032,2.027V429.83A2.032,2.032,0,0,1,432.51,431.857Z" transform="translate(-396.539 -382.986)" fill="#252d32"/>
    </g>
    <g id="그룹_718" data-name="그룹 718" transform="translate(14.496 4.987)">
      <path id="패스_2603" data-name="패스 2603" d="M392.288,411.411a.749.749,0,0,1-.75-.748v-25.65a2.032,2.032,0,0,1,2.032-2.027h7.219a.748.748,0,1,1,0,1.5H393.57a.532.532,0,0,0-.532.531v25.65A.749.749,0,0,1,392.288,411.411Z" transform="translate(-391.538 -382.986)" fill="#252d32"/>
    </g>
    <g id="그룹_719" data-name="그룹 719" transform="translate(28.997)">
      <path id="패스_2604" data-name="패스 2604" d="M419.291,381.989a.749.749,0,0,1-.75-.748v-1a.748.748,0,0,0-.748-.746h-9.506a.748.748,0,0,0-.748.746v1a.75.75,0,0,1-1.5,0v-1A2.248,2.248,0,0,1,408.287,378h9.506a2.248,2.248,0,0,1,2.248,2.242v1A.749.749,0,0,1,419.291,381.989Z" transform="translate(-406.04 -377.999)" fill="#252d32"/>
    </g>
    <g id="그룹_720" data-name="그룹 720" transform="translate(40.998 6.483)">
      <path id="패스_2605" data-name="패스 2605" d="M419.291,385.978h-.5a.748.748,0,1,1,0-1.5h.5a.748.748,0,1,1,0,1.5Z" transform="translate(-418.041 -384.482)" fill="#252d32"/>
    </g>
    <g id="그룹_721" data-name="그룹 721" transform="translate(28.997 6.483)">
      <path id="패스_2606" data-name="패스 2606" d="M407.29,385.978h-.5a.748.748,0,1,1,0-1.5h.5a.748.748,0,1,1,0,1.5Z" transform="translate(-406.04 -384.482)" fill="#252d32"/>
    </g>
    <g id="그룹_722" data-name="그룹 722" transform="translate(23.997 16.955)">
      <path id="패스_2607" data-name="패스 2607" d="M411.79,396.45h-10a.748.748,0,1,1,0-1.5h10a.748.748,0,1,1,0,1.5Z" transform="translate(-401.039 -394.954)" fill="#252d32"/>
    </g>
    <g id="그룹_723" data-name="그룹 723" transform="translate(27.497 22.441)">
      <path id="패스_2608" data-name="패스 2608" d="M411.79,401.936h-6.5a.748.748,0,1,1,0-1.5h6.5a.748.748,0,1,1,0,1.5Z" transform="translate(-404.54 -400.44)" fill="#252d32"/>
    </g>
    <g id="그룹_724" data-name="그룹 724" transform="translate(26.997 31.915)">
      <path id="패스_2609" data-name="패스 2609" d="M411.79,411.411h-7a.748.748,0,1,1,0-1.5h7a.748.748,0,1,1,0,1.5Z" transform="translate(-404.04 -409.915)" fill="#252d32"/>
    </g>
    <g id="그룹_725" data-name="그룹 725" transform="translate(26.997 37.401)">
      <path id="패스_2610" data-name="패스 2610" d="M411.79,416.9h-7a.748.748,0,1,1,0-1.5h7a.748.748,0,1,1,0,1.5Z" transform="translate(-404.04 -415.4)" fill="#252d32"/>
    </g>
    <path id="패스_2611" data-name="패스 2611" d="M393.051,433.028l1.649-4.085L379.616,423.1l-1.809,4.3Z" transform="translate(-377.043 -377.999)" fill="#79c651"/>
    <g id="그룹_726" data-name="그룹 726" transform="translate(0 44.35)">
      <path id="패스_2612" data-name="패스 2612" d="M393.126,433.5a.749.749,0,0,1-.693-1.033l1.282-3.1-13.7-5.309-1.535,3.509a.75.75,0,0,1-1.375-.6l1.823-4.166a.751.751,0,0,1,.959-.4l15.085,5.845a.747.747,0,0,1,.422.982l-1.574,3.808A.75.75,0,0,1,393.126,433.5Z" transform="translate(-377.043 -422.349)" fill="#252d32"/>
    </g>
    <g id="그룹_727" data-name="그룹 727" transform="translate(3.024 15.958)">
      <path id="패스_2613" data-name="패스 2613" d="M380.818,424.032a.734.734,0,0,1-.146-.014.748.748,0,0,1-.591-.878l.485-2.451a21.244,21.244,0,0,0,.38-5.1l-.321-6.909A5.682,5.682,0,0,1,381.766,405l7.4-10.717a.75.75,0,0,1,1.235.85l-7.422,10.743a4.212,4.212,0,0,0-.86,2.739l.321,6.908a22.726,22.726,0,0,1-.406,5.458l-.485,2.452A.749.749,0,0,1,380.818,424.032Z" transform="translate(-380.067 -393.957)" fill="#252d32"/>
    </g>
    <g id="그룹_728" data-name="그룹 728" transform="translate(13.642 23.777)">
      <path id="패스_2614" data-name="패스 2614" d="M393.962,428.673a.748.748,0,0,1-.653-1.115l.983-1.741a.761.761,0,0,1,.072-.105,12.09,12.09,0,0,1,1.348-1.354,9.547,9.547,0,0,0,3.032-4.491,26.578,26.578,0,0,0,.85-5.25,27.848,27.848,0,0,1,.376-2.892c.367-1.592,1.313-6.022,1.323-6.066a1.861,1.861,0,0,0-1.169-2.287,1.851,1.851,0,0,0-2.39,1.262,42.712,42.712,0,0,1-3.432,8.608,3.568,3.568,0,0,1-2.961,1.187.748.748,0,1,1,.19-1.485,2.151,2.151,0,0,0,1.557-.581,42.664,42.664,0,0,0,3.2-8.132,3.351,3.351,0,0,1,6.459,1.785s-.947,4.441-1.316,6.045c-.131.568-.235,1.606-.345,2.705a26.9,26.9,0,0,1-.932,5.61,10.955,10.955,0,0,1-3.438,5.092,11.072,11.072,0,0,0-1.15,1.141l-.951,1.683A.748.748,0,0,1,393.962,428.673Z" transform="translate(-390.685 -401.776)" fill="#252d32"/>
    </g>
    <g id="그룹_729" data-name="그룹 729" transform="translate(38.498 16.456)">
      <path id="패스_2615" data-name="패스 2615" d="M425.292,404.928h-9a.749.749,0,0,1-.75-.748V395.2a.749.749,0,0,1,.75-.748h6.5a.748.748,0,1,1,0,1.5h-5.751v7.48h7.5v-2.244a.75.75,0,0,1,1.5,0v2.992A.749.749,0,0,1,425.292,404.928Z" transform="translate(-415.541 -394.456)" fill="#79c651"/>
    </g>
    <g id="그룹_730" data-name="그룹 730" transform="translate(41.498 17.454)">
      <path id="패스_2616" data-name="패스 2616" d="M421.291,401.936a.763.763,0,0,1-.586-.28l-2-2.493a.749.749,0,0,1,1.171-.935l1.448,1.805,3.909-4.332a.749.749,0,0,1,1.115,1l-4.5,4.987A.752.752,0,0,1,421.291,401.936Z" transform="translate(-418.541 -395.453)" fill="#252d32"/>
    </g>
    <g id="그룹_731" data-name="그룹 731" transform="translate(38.498 31.915)">
      <path id="패스_2617" data-name="패스 2617" d="M425.292,420.387h-9a.749.749,0,0,1-.75-.748v-8.976a.749.749,0,0,1,.75-.748h6.5a.748.748,0,1,1,0,1.5h-5.751v7.48h7.5v-2.244a.75.75,0,0,1,1.5,0v2.992A.749.749,0,0,1,425.292,420.387Z" transform="translate(-415.541 -409.915)" fill="#79c651"/>
    </g>
    <g id="그룹_732" data-name="그룹 732" transform="translate(41.498 32.913)">
      <path id="패스_2618" data-name="패스 2618" d="M421.291,417.395a.763.763,0,0,1-.586-.28l-2-2.493a.749.749,0,0,1,1.171-.935l1.448,1.805,3.909-4.332a.749.749,0,0,1,1.115,1l-4.5,4.987A.752.752,0,0,1,421.291,417.395Z" transform="translate(-418.541 -410.912)" fill="#252d32"/>
    </g>
  </g>
</svg>
