<svg xmlns="http://www.w3.org/2000/svg" width="59" height="50.5" viewBox="0 0 59 50.5">
  <g id="Vector_Smart_Object" data-name="Vector Smart Object" transform="translate(0.75 0.75)">
    <g id="그룹_734" data-name="그룹 734">
      <path id="패스_2619" data-name="패스 2619" d="M87.14,188.858c0-.618-.76-.38-1.853-.475s-1.046-.475-1.758-1.141a4.727,4.727,0,0,0-2-1.377,10.99,10.99,0,0,0-2.549.237c-.678.094-1.581,1.495-2.129.4s.786-3.908,0-5.48c-1.1-2.192,0-1.644.548-2.192s-.548-1.644,1.1-1.644,2.192-1.644,2.74-2.192a10.464,10.464,0,0,0,1.007-2.049c.187-.53-.666-1.343-1.151-1.516s-1.99-.294-1.246-1.281a2.817,2.817,0,0,0,.842-2.279c0-1.1-.548-1.1-1.1-2.192a4.124,4.124,0,0,0-2.337-1.4c-6.432,1.482-11.912,12.443-10.816,15.645.548,1.1,2.192,2.193,2.74,3.288s3.836.548,5.48,2.192c1.073,1.073,1.1,1.644,1.1,2.193s.395.715.525,1.171a14.28,14.28,0,0,0,.736,2.893c.57,1.283.76.047,1.378.713s-.523,4.845-.666,5.083a14.593,14.593,0,0,0-.341,3.357c0,1.282,2.051,2.438,2.289,2.248s-.148-.6-.385-1.452-.327-1.4.195-1.682a12.016,12.016,0,0,0,2.138-2.518,3.68,3.68,0,0,1,1.045-.855c.76-.475,1.092-1.805,1.567-2.661s.333-.048,1.378-.237.522-1.331.522-2.281S87.14,189.475,87.14,188.858Z" transform="translate(-65.25 -160.219)" fill="#79c651"/>
      <path id="패스_2620" data-name="패스 2620" d="M110.167,171.469a16.438,16.438,0,0,0-4.649-4.767c-.26.2-3,.069-4.644,1.165a5.476,5.476,0,0,0-1.551,1.592c0,.332-1.189.6-2.285,1.148a3.618,3.618,0,0,0-1.057.861Z" transform="translate(-65.25 -160.219)" fill="#79c651"/>
      <path id="패스_2621" data-name="패스 2621" d="M95.5,173.968v3.5H111l7.5,4v24.5h4v-32Z" transform="translate(-65.25 -160.219)" fill="#ffc960"/>
      <path id="패스_2622" data-name="패스 2622" d="M88.287,209.176a24.5,24.5,0,1,1,21.623-38.383" transform="translate(-65.25 -160.219)" fill="none" stroke="#252d32" stroke-linecap="round" stroke-linejoin="round" stroke-width="1.5"/>
      <path id="패스_2623" data-name="패스 2623" d="M91.25,209.218v-31.5h20.084l6.916,3.759v27.741Z" transform="translate(-65.25 -160.219)" fill="none" stroke="#252d32" stroke-linecap="round" stroke-linejoin="round" stroke-width="1.5"/>
      <path id="패스_2624" data-name="패스 2624" d="M110.817,180.352l1.6,3.6,5.6-2" transform="translate(-65.25 -160.219)" fill="none" stroke="#252d32" stroke-linecap="round" stroke-linejoin="round" stroke-width="1.5"/>
      <path id="패스_2625" data-name="패스 2625" d="M96.25,173.718h26.5v31.5" transform="translate(-65.25 -160.219)" fill="none" stroke="#252d32" stroke-linecap="round" stroke-linejoin="round" stroke-width="1.5"/>
      <path id="패스_2626" data-name="패스 2626" d="M96.25,184.218v19h18.5" transform="translate(-65.25 -160.219)" fill="none" stroke="#79c651" stroke-linecap="round" stroke-linejoin="round" stroke-width="1.5"/>
      <path id="패스_2627" data-name="패스 2627" d="M99.362,189.679l6.388,6.54,1.5-3.5,5.5,5.5" transform="translate(-65.25 -160.219)" fill="none" stroke="#252d32" stroke-linecap="round" stroke-linejoin="round" stroke-width="1.5"/>
      <path id="패스_2628" data-name="패스 2628" d="M111.25,198.218l2,.5-.5-2" transform="translate(-65.25 -160.219)" fill="none" stroke="#252d32" stroke-linecap="round" stroke-linejoin="round" stroke-width="1.5"/>
    </g>
  </g>
</svg>
