<svg xmlns="http://www.w3.org/2000/svg" width="28" height="28" viewBox="0 0 28 28">
  <g id="그룹_4602" data-name="그룹 4602" transform="translate(-66.856 -340.856)">
    <rect id="사각형_85" data-name="사각형 85" width="28" height="28" transform="translate(66.856 340.856)" fill="none"/>
    <g id="그룹_9391" data-name="그룹 9391" transform="translate(13.959 220.667)">
      <path id="패스_10947" data-name="패스 10947" d="M70.018,126.189h-7.24a.88.88,0,0,0-.88.88v7.215a.88.88,0,0,0,.88.879h3.338a5.45,5.45,0,0,1-.9,2.621,10.53,10.53,0,0,1-1.831,1.974.481.481,0,0,0-.17.353.5.5,0,0,0,.124.3l2.328,2.622a.574.574,0,0,0,.207.142.368.368,0,0,0,.307-.036A11.774,11.774,0,0,0,70.9,134c0-.012,0-6.934,0-6.934a.88.88,0,0,0-.88-.88" transform="translate(0 0)" fill="#ffba00"/>
    </g>
  </g>
</svg>
