<svg xmlns="http://www.w3.org/2000/svg" width="28" height="28" viewBox="0 0 28 28">
  <g id="그룹_9392" data-name="그룹 9392" transform="translate(-66.856 -340.856)">
    <rect id="사각형_85" data-name="사각형 85" width="28" height="28" transform="translate(66.856 340.856)" fill="none"/>
    <g id="그룹_9393" data-name="그룹 9393" transform="translate(74.353 347.734)">
      <path id="패스_10011" data-name="패스 10011" d="M689.933,1103.62l-.368-.24a3.626,3.626,0,0,1-.629-.519,3.844,3.844,0,0,1,0-5.308l3.168-3.27a3.561,3.561,0,0,1,5.142,0,3.849,3.849,0,0,1,0,5.308l-2.013,2.078-.615-.635,2.013-2.078a2.93,2.93,0,0,0,0-4.037,2.708,2.708,0,0,0-3.911,0l-3.168,3.27a2.924,2.924,0,0,0,0,4.037,2.768,2.768,0,0,0,.478.394l.368.239Z" transform="translate(-684.299 -1094.186)" fill="#262626" stroke="#222" stroke-width="0.5"/>
      <path id="패스_10012" data-name="패스 10012" d="M667.452,1129.325a3.555,3.555,0,0,1-2.571-1.095,3.848,3.848,0,0,1,0-5.306l2.013-2.078.615.635-2.013,2.078a2.929,2.929,0,0,0,0,4.036,2.715,2.715,0,0,0,3.911,0l3.168-3.269a2.923,2.923,0,0,0,0-4.036,2.774,2.774,0,0,0-.486-.4l-.369-.238.462-.762.369.238a3.639,3.639,0,0,1,.64.526,3.842,3.842,0,0,1,0,5.306l-3.168,3.269A3.555,3.555,0,0,1,667.452,1129.325Z" transform="translate(-664.82 -1113.174)" fill="#262626" stroke="#222" stroke-width="0.5"/>
    </g>
  </g>
</svg>
