<svg xmlns="http://www.w3.org/2000/svg" xmlns:xlink="http://www.w3.org/1999/xlink" width="80" height="80" viewBox="0 0 80 80">
  <defs>
    <clipPath id="clip-path">
      <circle id="타원_245" data-name="타원 245" cx="40" cy="40" r="40" transform="translate(546 302)" fill="#98c6ff"/>
    </clipPath>
  </defs>
  <g id="그룹_9396" data-name="그룹 9396" transform="translate(-546 -302)">
    <g id="그룹_9813" data-name="그룹 9813">
      <g id="마스크_그룹_145" data-name="마스크 그룹 145" clip-path="url(#clip-path)">
        <circle id="타원_221" data-name="타원 221" cx="40" cy="40" r="40" transform="translate(546 302)" fill="#98c6ff"/>
        <path id="패스_12931" data-name="패스 12931" d="M364.549,558.939c-1.276-.179-2.576-.369-3.889-.565.39-.725.765-1.454,1.11-2.193.207-.444.409-1,.409-1,0-.086-4.62-3.573-6.506-5.4l.272-4.273a60.04,60.04,0,0,0-.406-17.95c-.567-2.972-1.517-6.126-3.936-7.944-1.783-1.341-4.1-1.663-6.308-1.977a91.035,91.035,0,0,0-11.053-.839,30.665,30.665,0,0,0-9.85,1.658,31.526,31.526,0,0,0-5.2,2.516c-.27.172-.528.36-.778.556l-.009-.014-.14.138a13.544,13.544,0,0,0-1.938,1.968c-6.567,6.925-11.893,15.285-13.214,24.682a16.486,16.486,0,0,0,.138,6.327,11.648,11.648,0,0,0,1.492,3.4L303.181,586.9H353.31l1.364-21.435c4.318-.569,7.206-1.057,7.224-1.109A49.933,49.933,0,0,0,364.549,558.939Z" transform="translate(228.099 -181.249)" fill="#4f4d6b"/>
        <g id="그룹_9772" data-name="그룹 9772" transform="translate(11 140.956)">
          <g id="그룹_9769" data-name="그룹 9769" transform="translate(524.848 140.294)">
            <g id="그룹_9812" data-name="그룹 9812" transform="translate(0 0)">
              <g id="그룹_9767" data-name="그룹 9767" transform="translate(19.47 56.031)">
                <path id="패스_12864" data-name="패스 12864" d="M651.907,453.2l.471,7.014-15.471,3.753L626.437,453.92l12.667-6.189Z" transform="translate(-617.061 -415.748)" fill="#f2da00"/>
                <path id="패스_12865" data-name="패스 12865" d="M703.985,377.945l-37.742-2.175-.682-12.561-.066-1.25-.159-16.646c.053-.03.1-.061.154-.091a59.741,59.741,0,0,1,10.326-4.8c3.176.283,9.35,1.541,9.35,1.541s10.2,2.177,13.992,10.562S703.985,377.945,703.985,377.945Z" transform="translate(-644.846 -339.096)" fill="#f2da00"/>
                <path id="패스_12866" data-name="패스 12866" d="M732.426,338.622s4.188,1.488,6.639,8.394c0,0-2.945-1.416-5.235-.3Z" transform="translate(-692.766 -337.81)" fill="#f2da00"/>
                <path id="패스_12867" data-name="패스 12867" d="M794.909,378.149s-1.9,23.74-8.014,29.384-11.046-5.581-9.322-9.9,9.229-21.561,9.229-21.561Z" transform="translate(-724.765 -364.561)" fill="#f2da00"/>
                <path id="패스_12868" data-name="패스 12868" d="M695.26,335.779s-2.254,2.6.035,9.226c0,0-1.954-1.626-5.145,1.217C690.15,346.222,690.477,338.441,695.26,335.779Z" transform="translate(-662.569 -335.779)" fill="#f2da00"/>
                <path id="패스_12869" data-name="패스 12869" d="M799.388,359.642l1.255-1.72a.581.581,0,0,0-.565-.915l-5.45.913s-1.783.33-3.743,3.293l-7.654,9.265s-1.068,1.727,1.311,1.634l4.995-.923a3.649,3.649,0,0,0,2.2-1.479Z" transform="translate(-728.885 -350.937)" fill="#361c1a"/>
                <path id="패스_12870" data-name="패스 12870" d="M811.614,371.683s-3.14-1.122-3.583-.189c0,0-.047.766,1.585,1.41,0,0,.8.253.644.543a4.9,4.9,0,0,1-1.448-.158s-2.541-.413-2.358.577c0,0,.152.54,1.025.78,0,0,1.148.071,1.172.327,0,0-.164.267-1.15.047,0,0-2.242-.484-2.025.3,0,0,.146.919,1.543,1.181,0,0,.548.277-.109.3,0,0-3.078-.4-2.521.182,0,0,.354.762,2.06,1.038,0,0,3.909.673,5.123-.947,0,0,3.352-4,3-6.419l-.423-2.288Z" transform="translate(-744.119 -359.063)" fill="#f8c4b5"/>
                <path id="패스_12871" data-name="패스 12871" d="M712.5,336.591l1.4,8.093,1.543,28.991.29,6.493a28.381,28.381,0,0,1-7.579.073l-.471-7.014L705.567,345s-2.308-5.922-.035-9.226Z" transform="translate(-672.841 -335.779)" fill="#fff"/>
                <path id="패스_12872" data-name="패스 12872" d="M742.739,468.43l.52,11.661,16.668-4.405-.655-6.3Z" transform="translate(-700.132 -430.533)" fill="#f2da00"/>
                <path id="패스_12873" data-name="패스 12873" d="M747.812,484.763" transform="translate(-703.756 -442.2)" fill="none" stroke="#6c84dc" stroke-width="1"/>
                <g id="그룹_9766" data-name="그룹 9766" transform="translate(0 6.126)">
                  <path id="패스_12874" data-name="패스 12874" d="M618.949,371.967,616.5,375.21l-6.7,8.872-13.147,2.065c1.951-6.1,7.16-16.171,13.066-23.432.078-.1.158-.2.24-.291a25.883,25.883,0,0,1,6.32-5.11c.053-.03.1-.061.154-.091Z" transform="translate(-595.782 -357.223)" fill="#f2da00"/>
                  <path id="패스_12875" data-name="패스 12875" d="M594.175,428.907c3.821,6.143,31.581-15.068,31.581-15.068l-3.974-9.077L606.1,412.776l-4.5,4.182-7.937,7.372A10.789,10.789,0,0,0,594.175,428.907Z" transform="translate(-593.619 -391.181)" fill="#f2da00"/>
                  <path id="패스_12876" data-name="패스 12876" d="M594.175,458.732l9.863-8.252-1-3.614-6.082-.35-2.318,2.949a19.908,19.908,0,0,0-.971,4.691A10.789,10.789,0,0,0,594.175,458.732Z" transform="translate(-593.619 -421.006)" fill="#f2da00"/>
                </g>
                <path id="패스_12877" data-name="패스 12877" d="M782.727,416.079s-3.938,7.868-4.284,10.132" transform="translate(-725.635 -393.138)" fill="none" stroke="#361c1a" stroke-linecap="round" stroke-linejoin="round" stroke-width="0.5"/>
                <path id="패스_12878" data-name="패스 12878" d="M692.2,391.149s13.894-7.265,12.8-4.948-4.74,4.181-4.74,4.181,2.176.628,1.525,1.835c0,0,1.348.742.375,1.78,0,0,1.342,1.646.494,2.293s-7.082,3.31-7.082,3.31Z" transform="translate(-664.031 -371.47)" fill="#f8c4b5"/>
                <path id="패스_12879" data-name="패스 12879" d="M635.88,404.762a67.977,67.977,0,0,0-22.524,10.647" transform="translate(-607.717 -385.054)" fill="none" stroke="#361c1a" stroke-linecap="round" stroke-linejoin="round" stroke-width="0.5"/>
                <path id="패스_12880" data-name="패스 12880" d="M665.273,434.245l.442,1.191-15.937,10.556" transform="translate(-633.733 -406.115)" fill="none" stroke="#361c1a" stroke-linecap="round" stroke-linejoin="round" stroke-width="0.5"/>
              </g>
            </g>
          </g>
          <g id="그룹_9771" data-name="그룹 9771" transform="translate(572.154 175.258)">
            <path id="패스_12881" data-name="패스 12881" d="M712.709,290.536s3.53-9.5-4.9-8.778c-11.561.991-4.037,10.893-4.037,10.893Z" transform="translate(-698.352 -276.001)" fill="#361c1a"/>
            <path id="패스_12882" data-name="패스 12882" d="M707.776,306.392l-.736,12.773a3.767,3.767,0,0,0,3.544,3.977h0a3.767,3.767,0,0,0,3.977-3.544l.736-12.774Z" transform="translate(-702.425 -293.732)" fill="#f8c4b5"/>
            <path id="패스_12883" data-name="패스 12883" d="M717.066,306.484c-.028,1.949-1.2,7.92,4.656,12.608l.7-12.2Z" transform="translate(-709.553 -293.798)" fill="#f3927d"/>
            <path id="패스_12884" data-name="패스 12884" d="M718.9,293.446c-.007.121-.017.244-.023.362-.026.276-.054.547-.095.81-.437,2.995-1.92,5.2-4.937,5.023-3.4-.2-4.567-3.166-4.361-6.737s1.709-6.388,5.106-6.192S719.1,289.878,718.9,293.446Z" transform="translate(-704.168 -279.581)" fill="#f8c4b5"/>
            <path id="패스_12885" data-name="패스 12885" d="M719.44,289.394s-.321.883-1.567-.974c-1.765-2.631-.3,3.489-7.51.9l.335-2.949,3.393-1.651,2.548-.15,2.616,1.536.541,1.482Z" transform="translate(-704.818 -278.046)" fill="#361c1a"/>
            <path id="패스_12886" data-name="패스 12886" d="M704.3,302.961a1.613,1.613,0,1,0,1.7-1.518A1.613,1.613,0,0,0,704.3,302.961Z" transform="translate(-700.46 -290.173)" fill="#f8c4b5"/>
            <g id="그룹_9770" data-name="그룹 9770" transform="translate(4.944 12.538)">
              <path id="패스_12887" data-name="패스 12887" d="M736.62,308.206c-.017.3.138.56.346.573s.392-.225.41-.529-.138-.56-.346-.572S736.637,307.9,736.62,308.206Z" transform="translate(-728.631 -307.193)" fill="#361c1a"/>
              <path id="패스_12888" data-name="패스 12888" d="M727.1,307.657c-.017.3.138.56.346.572s.392-.225.41-.529-.137-.56-.346-.573S727.115,307.353,727.1,307.657Z" transform="translate(-721.788 -306.798)" fill="#361c1a"/>
              <path id="패스_12889" data-name="패스 12889" d="M734.367,307.785q-.029.515-.06,1.03a.664.664,0,0,0,.041.343.906.906,0,0,0,.226.236.372.372,0,0,1,.151.279.293.293,0,0,1-.211.239.858.858,0,0,1-.336.019" transform="translate(-726.877 -307.271)" fill="none" stroke="#361c1a" stroke-linecap="round" stroke-linejoin="round" stroke-width="0.5"/>
              <path id="패스_12890" data-name="패스 12890" d="M708.228,305.958a1.206,1.206,0,0,1,.811.81" transform="translate(-708.228 -305.958)" fill="none" stroke="#361c1a" stroke-linecap="round" stroke-linejoin="round" stroke-width="0.5"/>
              <path id="패스_12891" data-name="패스 12891" d="M726.109,316.062s.382.911,2.207.909" transform="translate(-721.078 -313.219)" fill="none" stroke="#361c1a" stroke-linecap="round" stroke-linejoin="round" stroke-width="0.5"/>
              <path id="패스_12892" data-name="패스 12892" d="M722.878,310.979a.506.506,0,1,1-.476-.534A.505.505,0,0,1,722.878,310.979Z" transform="translate(-718.03 -309.182)" fill="#f5a897"/>
              <path id="패스_12893" data-name="패스 12893" d="M740.752,311.617c-.026.276-.054.547-.095.81a.505.505,0,1,1,.095-.81Z" transform="translate(-730.99 -309.928)" fill="#f5a897"/>
            </g>
            <circle id="타원_241" data-name="타원 241" cx="4.358" cy="4.358" r="4.358" transform="translate(0 8.656) rotate(-83.218)" fill="#361c1a"/>
          </g>
          <path id="패스_12894" data-name="패스 12894" d="M695.209,343.375s-3.479,10.665-.536,8.807,2.628.218,2.628.218" transform="translate(-120.612 -144.804)" fill="none" stroke="#361c1a" stroke-linecap="round" stroke-linejoin="round" stroke-width="0.5"/>
          <path id="패스_12895" data-name="패스 12895" d="M742.659,351.3s1.346,3.884,1.267,4.755-1.936-1.03-2.513.792" transform="translate(-154.847 -150.494)" fill="none" stroke="#361c1a" stroke-linecap="round" stroke-linejoin="round" stroke-width="0.5"/>
        </g>
        <g id="그룹_9811" data-name="그룹 9811" transform="translate(274.425 -156.208)">
          <g id="그룹_9799" data-name="그룹 9799" transform="translate(289.607 484.269)">
            <path id="패스_12920" data-name="패스 12920" d="M376.919,500.7a59.165,59.165,0,0,1-2.677,8.192,1.55,1.55,0,0,0-.125,1.31,1.523,1.523,0,0,0,1.069.582,11.013,11.013,0,0,0,5.589.269,1.971,1.971,0,0,0,.8-.414,2.344,2.344,0,0,0,.541-1.507,40,40,0,0,0,.078-7.381" transform="translate(-374.013 -500.701)" fill="#e2bdb3"/>
          </g>
          <g id="그룹_9800" data-name="그룹 9800" transform="translate(289.047 473.045)">
            <ellipse id="타원_244" data-name="타원 244" cx="6.551" cy="7.37" rx="6.551" ry="7.37" transform="translate(0 0)" fill="#e2bdb3"/>
          </g>
          <g id="그룹_9801" data-name="그룹 9801" transform="translate(286.461 478.08)">
            <path id="패스_12921" data-name="패스 12921" d="M370.731,488.463a1.369,1.369,0,0,0-.921-.925,1.811,1.811,0,0,0-2.551,2.079,1.763,1.763,0,0,0,.258.786,2.041,2.041,0,0,0,.547.528,3.069,3.069,0,0,0,2.356.6" transform="translate(-367.243 -487.383)" fill="#e2bdb3"/>
          </g>
          <g id="그룹_9802" data-name="그룹 9802" transform="translate(299.97 477.615)">
            <path id="패스_12922" data-name="패스 12922" d="M396.31,487.779a1.369,1.369,0,0,1,.749-1.069,1.811,1.811,0,0,1,2.869,1.611,1.766,1.766,0,0,1-.12.819,2.053,2.053,0,0,1-.448.614,3.071,3.071,0,0,1-2.218.992" transform="translate(-396.31 -486.383)" fill="#e2bdb3"/>
          </g>
          <g id="그룹_9803" data-name="그룹 9803" transform="translate(288.65 470.002)">
            <path id="패스_12923" data-name="패스 12923" d="M382.45,470.051a4.19,4.19,0,0,1,1.42.25c.344.145.649.374,1,.5a3.852,3.852,0,0,0,2.142-.054,3.022,3.022,0,0,1-1.421,4.155,5.717,5.717,0,0,1-3.709-.016,7.7,7.7,0,0,0-3.725-.34,5.63,5.63,0,0,0-2.388,1.5c-.686.656-1.307,1.385-2.053,1.972a1.966,1.966,0,0,1-.7.392.812.812,0,0,1-.759-.16,1.055,1.055,0,0,1-.26-.617,6.148,6.148,0,0,1,1.42-4.26,10.3,10.3,0,0,1,1.975-2.215,4.322,4.322,0,0,1,3.577-1.067,2.388,2.388,0,0,0,1.477.1A6.748,6.748,0,0,1,382.45,470.051Z" transform="translate(-371.953 -470.002)" fill="#231815"/>
          </g>
          <g id="그룹_9804" data-name="그룹 9804" transform="translate(296.038 477.656)">
            <path id="패스_12924" data-name="패스 12924" d="M388.728,487.07c-.018.316-.229.561-.47.547a.519.519,0,0,1-.4-.6c.018-.316.228-.561.47-.547A.52.52,0,0,1,388.728,487.07Z" transform="translate(-387.851 -486.472)" fill="#231815"/>
          </g>
          <g id="그룹_9805" data-name="그룹 9805" transform="translate(299.444 477.747)">
            <path id="패스_12925" data-name="패스 12925" d="M396.055,487.265c-.018.316-.229.561-.47.547a.52.52,0,0,1-.405-.6c.018-.316.229-.561.47-.547A.519.519,0,0,1,396.055,487.265Z" transform="translate(-395.178 -486.667)" fill="#231815"/>
          </g>
          <g id="그룹_9806" data-name="그룹 9806" transform="translate(297.992 478.388)">
            <path id="패스_12926" data-name="패스 12926" d="M393.1,490.457a.232.232,0,0,1-.224-.293.887.887,0,0,1,.319-.426c.083-.071.161-.138.172-.2a.212.212,0,0,0-.072-.159,1.177,1.177,0,0,0-.231-.167l-.049-.03a4.146,4.146,0,0,1-.894-.751.232.232,0,0,1,.346-.31,3.658,3.658,0,0,0,.794.666l.046.028a1.573,1.573,0,0,1,.324.241.659.659,0,0,1,.194.566.821.821,0,0,1-.325.465.54.54,0,0,0-.174.2A.233.233,0,0,1,393.1,490.457Z" transform="translate(-392.056 -488.046)" fill="#231815"/>
          </g>
          <path id="패스_12932" data-name="패스 12932" d="M726.109,316.062s.382.911,2.207.909" transform="translate(-429.405 165.741)" fill="none" stroke="#361c1a" stroke-linecap="round" stroke-linejoin="round" stroke-width="0.5"/>
        </g>
      </g>
    </g>
  </g>
</svg>
