<svg xmlns="http://www.w3.org/2000/svg" xmlns:xlink="http://www.w3.org/1999/xlink" width="80" height="80" viewBox="0 0 80 80">
  <defs>
    <clipPath id="clip-path">
      <path id="패스_12861" data-name="패스 12861" d="M40,0A40,40,0,1,1,0,40,40,40,0,0,1,40,0Z" transform="translate(260 310)" fill="#fff7e2"/>
    </clipPath>
  </defs>
  <g id="그룹_9814" data-name="그룹 9814" transform="translate(-260 -310)">
    <path id="패스_12831" data-name="패스 12831" d="M40,0A40,40,0,1,1,0,40,40,40,0,0,1,40,0Z" transform="translate(260 310)" fill="#fff7e2"/>
    <path id="패스_12863" data-name="패스 12863" d="M444.932,711.766c-8,4.521-8.635,12.922-1.409,18.764s19.573,6.912,27.578,2.391,8.635-12.923,1.408-18.764S452.936,707.245,444.932,711.766Z" transform="translate(-171.508 -354.091)" fill="#fff" stroke="#d3d3d3" stroke-width="1"/>
    <g id="그룹_9750" data-name="그룹 9750" transform="translate(-186.977 14.34)">
      <g id="Layer_1" data-name="Layer 1" transform="translate(463.118 300.66)">
        <path id="패스_12815" data-name="패스 12815" d="M472.448,762.759c.929.26.83.717.085,1.118-1.092.587-2.071,1.121-2.971,1.68-.554.344-2.906.762-3.41,1.145-.422.322,1,.6.6.974a9.054,9.054,0,0,0-2.784,4.776c-.023.115-.224.2-.473.21-.2,0-.382-.081-.378-.249.1-3.877,2.134-6.766,7.408-9.431a2.5,2.5,0,0,1,1.922-.223" transform="translate(-464 -716)" fill="#dc8857"/>
        <path id="패스_12816" data-name="패스 12816" d="M552.046,733.635l1.932.493a1.34,1.34,0,0,0,.563.012l2.08-.415c.163-.033.343.03.3.106l-.5.979c-.039.075.011.154.133.211l1.61.747c.113.052.038.138-.127.145l-2.357.1a.771.771,0,0,0-.415.117l-1.126.874a.4.4,0,0,1-.4-.009l-.932-.924a.632.632,0,0,0-.371-.129l-2.337-.2c-.162-.014-.218-.1-.094-.149l1.762-.67c.139-.053.209-.132.186-.212l-.275-.969c-.025-.086.191-.147.365-.1" transform="translate(-542.235 -690.204)" fill="#dc8857"/>
        <path id="패스_12817" data-name="패스 12817" d="M515.177,771.843c.487.282.187.564-.562.745a40.018,40.018,0,0,0-6.195,1.857,15.961,15.961,0,0,0-4.623,2.832.628.628,0,0,1-.451.085c-.141-.025-.225-.1-.128-.206a13.533,13.533,0,0,1,1.843-1.747c.375-.294,2.463-.637,2.886-.9s-.819-.453-.341-.691a26.64,26.64,0,0,1,6.089-2.039,2.7,2.7,0,0,1,1.481.066" transform="translate(-500.16 -724.464)" fill="#dc8857"/>
        <path id="패스_12818" data-name="패스 12818" d="M610.623,853a6.186,6.186,0,0,1-3.205-.379l-2.709-1.244,4.991-1.668,2.85,1.309c.221.1.293.233.176.331a1.917,1.917,0,0,1-.673.322c-1.124.344.527.964-1.431,1.328" transform="translate(-592.863 -794)" fill="#d27ea0"/>
        <path id="패스_12819" data-name="패스 12819" d="M495.159,783.881l-3.014-.43.26-.347,3.014.43Zm1.044.5-.072-.01.041-.015Zm-3.557.993-1.891-.682.51-.286,1.891.682Zm-5.362-.846a7.8,7.8,0,0,1-4.521.217c-.23-.075-.277-.222-.105-.329a.991.991,0,0,1,.729-.057,5.732,5.732,0,0,0,3.251-.192c.954-.355,1.148-.952.846-1.358-.091-.122.057-.258.33-.3a.77.77,0,0,1,.658.141c.4.543.2,1.364-1.188,1.881m3.218,1.719-.633.23-1.663-.95.633-.23Zm-3.1,1.239-.766.116-.809-1.191.766-.116Zm-3.385.448-.8.051-.349-1.4.8-.051Zm-3.389-5.074a1.923,1.923,0,0,1,1.385.191c.419.234.479.528.134.657a1.923,1.923,0,0,1-1.385-.191c-.419-.234-.479-.528-.134-.657m-2.155-1.833.716-.047.21.817-.716.047Zm1.173-.43.585-.2,1.106.682-.585.2Zm1.736-.6,1.617.287-.279.3L481.1,780.3Zm4.837,1.491c.419.234.479.528.134.657a1.923,1.923,0,0,1-1.385-.191c-.419-.234-.479-.528-.134-.657a1.923,1.923,0,0,1,1.384.191m14.416,1.736-5.86-.781c-.174-.023-.2-.13-.037-.172l.682-.18c.16-.042.137-.149-.037-.172l-6.038-.8c-.166-.022-.2-.122-.053-.168l.242-.077c.148-.047.111-.15-.061-.169l-4.957-.561c-.165-.019-.208-.115-.074-.165l.255-.1c.135-.05.09-.147-.077-.165l-4.325-.462c-.166-.018-.211-.115-.076-.165s.091-.146-.073-.164c0,0-2.665-.32-3.158-.376s-.764.04-.723.269.2,1.477.2,1.477c.008.077.205.115.339.066s.334-.011.339.067l.127,2.024c.005.078.2.117.339.067l.255-.095c.134-.05.332-.011.339.066l.213,2.326c.007.081.22.118.351.061l.214-.092c.128-.055.336-.021.351.057l.52,2.857c.015.082.241.114.363.051l.523-.269c.123-.063.349-.031.364.051l.5,2.773c.015.082.241.114.363.051l3-1.539.086.473c.015.083.24.114.363.051l3.165-1.624,3.07-.224a1.191,1.191,0,0,0,.859-.339l.842-1.24,4.387-1.157c.16-.042.137-.149-.037-.172l-1.016-.135,3.983-1.051c.16-.042.137-.149-.037-.172" transform="translate(-475.941 -730.388)" fill="#518f75"/>
      </g>
    </g>
    <g id="그룹_9754" data-name="그룹 9754" transform="translate(250.604 -80.049)">
      <path id="패스_12834" data-name="패스 12834" d="M80.365,453.125s-3.635-6.374,1.372-10.022C81.737,443.1,84.808,447.771,80.365,453.125Z" transform="translate(-16.07)" fill="#92bf76"/>
      <g id="그룹_9753" data-name="그룹 9753" transform="translate(58.279 444.49)">
        <g id="그룹_9751" data-name="그룹 9751" transform="translate(11.613 0)">
          <path id="패스_12835" data-name="패스 12835" d="M114.343,451.124c.289-3.124-2.667-2.028-2.626.207-2.545-2.54-3.461,3.334-1.114,2.184-3.061,2.22,3.27,3.735,2.293.635.872,3.146,4.223,1.3,2.28-1.123C118.406,453.5,115.685,448.144,114.343,451.124Z" transform="translate(-109.248 -449.189)" fill="#ff8693"/>
          <path id="패스_12836" data-name="패스 12836" d="M120.522,459.492a.475.475,0,0,0-.294.528l-.466.432-.336-.363a.518.518,0,1,0-.343.392l.349.378a2.482,2.482,0,0,1-.2.367.509.509,0,0,0-.251.043.519.519,0,0,0,.416.952.491.491,0,0,0,.249-.683c.07-.111.138-.223.2-.34a5.8,5.8,0,0,0,.5.367.519.519,0,1,0,.308-.417,5.037,5.037,0,0,1-.491-.357l.372-.344a.478.478,0,0,0,.408,0A.52.52,0,0,0,120.522,459.492Z" transform="translate(-116.325 -457.108)" fill="#fff"/>
        </g>
        <path id="패스_12837" data-name="패스 12837" d="M94.6,490.185a6.036,6.036,0,0,0,5.246,5.017S100.906,489.683,94.6,490.185Z" transform="translate(-86.327 -480.82)" fill="#64ac5e"/>
        <g id="그룹_9752" data-name="그룹 9752" transform="translate(0 4.586)">
          <path id="패스_12838" data-name="패스 12838" d="M66.832,473.209a1.466,1.466,0,1,0-2.093-1.7c-.191-1.338-1.255-2.61-2.685-2.068a2.663,2.663,0,0,0-1.591,3.147c-3.641-.438-2.062,3.941-.06,2.944a1.975,1.975,0,0,0-.512,2.79,1.455,1.455,0,0,0,2.525-.852c-.828,3.007,3.819,2.109,2.4-1.427C69.919,478.458,69.245,472.813,66.832,473.209Z" transform="translate(-58.279 -469.314)" fill="#ff8693"/>
          <path id="패스_12839" data-name="패스 12839" d="M74.462,480.077a.473.473,0,0,0-.3.509c-.48.329-.96.658-1.413,1.023q.06-.594.1-1.19a.519.519,0,1,0-.528.1q-.046.614-.111,1.227a6.324,6.324,0,0,1-.671-.781.519.519,0,1,0-.382.354,9.254,9.254,0,0,0,.8.915.288.288,0,0,0,.07.048c-.262.4-.478.822-.709,1.239a.527.527,0,0,0-.205.046.52.52,0,0,0,.416.952.5.5,0,0,0,.227-.725c.227-.413.443-.833.7-1.226.548.231,1.1.445,1.651.672a.5.5,0,0,0,.685.323.52.52,0,0,0-.416-.952.526.526,0,0,0-.164.111c-.447-.183-.895-.364-1.342-.546.5-.42,1.03-.789,1.565-1.158a.473.473,0,0,0,.429.009A.52.52,0,0,0,74.462,480.077Z" transform="translate(-67.748 -477.188)" fill="#fff"/>
        </g>
      </g>
    </g>
    <g id="마스크_그룹_143" data-name="마스크 그룹 143" clip-path="url(#clip-path)">
      <g id="그룹_9764" data-name="그룹 9764" transform="translate(260 297.785)">
        <path id="패스_12854" data-name="패스 12854" d="M0,249.154l8.841-27.431-4.108-3.17H0Z" transform="translate(0 -190.94)" fill="#ccb97c"/>
        <g id="그룹_9762" data-name="그룹 9762" transform="translate(0 0.445)">
          <path id="패스_12855" data-name="패스 12855" d="M9.384,27.614s9.218,3.668,12.623-7.128c0,0,6.652,2.871,9.1-3.588S25.686,8.03,25.686,8.03s7.075-.318,7.545-7.585H0v32.8C3.5,33.321,9.044,32.641,9.384,27.614Z" transform="translate(0 -0.445)" fill="#80b15f"/>
          <path id="패스_12856" data-name="패스 12856" d="M41.388,4.445c.015-3-1.742-4-1.742-4H33.231c-.47,7.266-7.545,7.585-7.545,7.585S33.55,10.438,31.1,16.9s-9.1,3.588-9.1,3.588c-3.4,10.8-12.623,7.128-12.623,7.128C9.044,32.641,3.5,33.321,0,33.245v8.964a7.653,7.653,0,0,0,4.469,1.47c3.221,0,5.745-4.442,5.745-7.508C17,42.3,28.158,33.773,25.686,26.424c4.21,3.114,12.217-2.412,12.892-7.979.286-2.36-.558-5.972-2.446-7.218A6.55,6.55,0,0,0,41.388,4.445Z" transform="translate(0 -0.445)" fill="#8ccc62"/>
        </g>
        <g id="그룹_9763" data-name="그룹 9763" transform="translate(6.859 3.791)">
          <path id="패스_12857" data-name="패스 12857" d="M90.087,108.055s.122,3.046,2.985,3.107C93.072,111.162,93.316,108.421,90.087,108.055Z" transform="translate(-85.724 -97.997)" fill="#92bf76"/>
          <path id="패스_12858" data-name="패스 12858" d="M56.49,167.687s-2.461,1.8-.916,4.211C55.574,171.9,57.986,170.572,56.49,167.687Z" transform="translate(-55.064 -150.201)" fill="#92bf76"/>
          <path id="패스_12859" data-name="패스 12859" d="M108.584,28.91s2.75,1.316,4.142-1.187C112.726,27.723,110.416,26.226,108.584,28.91Z" transform="translate(-101.917 -27.307)" fill="#92bf76"/>
          <path id="패스_12860" data-name="패스 12860" d="M148.882,100.542s1.789,2.469,4.207.934C153.089,101.476,151.773,99.058,148.882,100.542Z" transform="translate(-137.196 -90.997)" fill="#92bf76"/>
        </g>
      </g>
    </g>
    <g id="그룹_9760" data-name="그룹 9760" transform="translate(274.966 330)">
      <path id="패스_12840" data-name="패스 12840" d="M640.032,231.564s5.277-.87,4.936,2.427-5.829-1.288-5.829-1.288Z" transform="translate(-632.804 -225.048)" fill="#ead7a7"/>
      <path id="패스_12841" data-name="패스 12841" d="M663.23,244.973s4.826,2.3,2.661,4.814-4.045-4.391-4.045-4.391Z" transform="translate(-656.558 -237.199)" fill="#ead7a7"/>
      <path id="패스_12842" data-name="패스 12842" d="M695.634,176.353s1.612-5.1-1.7-5.231.446,5.953.446,5.953Z" transform="translate(-689.231 -170.79)" fill="#ead7a7"/>
      <path id="패스_12843" data-name="패스 12843" d="M714.678,193.742s-1.6-5.1-4.387-3.318,3.771,4.628,3.771,4.628Z" transform="translate(-709.6 -187.807)" fill="#ead7a7"/>
      <g id="그룹_9755" data-name="그룹 9755" transform="translate(1.706 4.287)">
        <path id="패스_12844" data-name="패스 12844" d="M726.808,257.022l1.59,1.835C727.1,259.026,726.574,258.254,726.808,257.022Z" transform="translate(-726.754 -252.321)" fill="#e5b221"/>
        <path id="패스_12845" data-name="패스 12845" d="M711.547,242.1c-.083.037-.164.071-.243.1l-2.353-2.715q.057-.121.121-.245c.066-.128.138-.25.214-.369l2.636,3.042C711.8,241.977,711.676,242.039,711.547,242.1Z" transform="translate(-708.482 -236)" fill="#e5b221"/>
        <path id="패스_12846" data-name="패스 12846" d="M697.426,229.519l-2.88-3.323a6.21,6.21,0,0,1,.484-.441l2.9,3.346C697.774,229.244,697.605,229.384,697.426,229.519Z" transform="translate(-693.04 -224.205)" fill="#e5b221"/>
        <path id="패스_12847" data-name="패스 12847" d="M677.827,210.376l1.723,1.988a6.682,6.682,0,0,1-1.145,2.09l-2.743-3.165A8.621,8.621,0,0,1,677.827,210.376Z" transform="translate(-672.756 -210.376)" fill="#e5b221"/>
        <path id="패스_12848" data-name="패스 12848" d="M690.678,222.6a7.037,7.037,0,0,1-.759.817l-2.9-3.346a7.343,7.343,0,0,1,.915-.637Z" transform="translate(-685.029 -218.521)" fill="#7f5e0a"/>
        <path id="패스_12849" data-name="패스 12849" d="M702.184,234.056l-2.636-3.042a5.313,5.313,0,0,1,.7-.881l2.88,3.323A6.823,6.823,0,0,1,702.184,234.056Z" transform="translate(-698.746 -228.143)" fill="#7f5e0a"/>
        <path id="패스_12850" data-name="패스 12850" d="M716.669,248.014l-1.59-1.835a5.153,5.153,0,0,1,.414-1.215l2.353,2.715A4.8,4.8,0,0,1,716.669,248.014Z" transform="translate(-715.025 -241.478)" fill="#7f5e0a"/>
      </g>
      <ellipse id="타원_236" data-name="타원 236" cx="2.184" cy="1.7" rx="2.184" ry="1.7" transform="translate(8.133 7.837) rotate(-130.913)" fill="#e5b221"/>
      <ellipse id="타원_237" data-name="타원 237" cx="1.597" cy="1.7" rx="1.597" ry="1.7" transform="translate(9.019 6.264) rotate(-130.913)" fill="#7f5e0a"/>
      <g id="그룹_9759" data-name="그룹 9759" transform="translate(9.215)">
        <g id="그룹_9758" data-name="그룹 9758" transform="translate(0 0.269)">
          <g id="그룹_9756" data-name="그룹 9756" transform="translate(0.65 1.923)">
            <path id="패스_12851" data-name="패스 12851" d="M636.283,189.811l-2.673,1.538c-.126.073-.224-.132-.1-.2l2.673-1.538c.126-.073.224.132.1.2Z" transform="translate(-633.454 -189.591)" fill="#7f5e0a"/>
          </g>
          <g id="그룹_9757" data-name="그룹 9757">
            <path id="패스_12852" data-name="패스 12852" d="M650.69,170.69q-.854,1.477-1.776,2.911c-.079.123-.268,0-.189-.126q.923-1.435,1.776-2.911c.073-.127.261,0,.189.126Z" transform="translate(-648.706 -170.512)" fill="#7f5e0a"/>
          </g>
        </g>
        <ellipse id="타원_238" data-name="타원 238" cx="0.267" cy="0.267" rx="0.267" ry="0.267" transform="translate(3.403 1.961)" fill="#7f5e0a"/>
        <ellipse id="타원_239" data-name="타원 239" cx="0.267" cy="0.267" rx="0.267" ry="0.267" transform="translate(1.704 0)" fill="#7f5e0a"/>
      </g>
    </g>
    <g id="그룹_9761" data-name="그룹 9761" transform="translate(267.479 341)">
      <path id="패스_12853" data-name="패스 12853" d="M752.1,347.524a.113.113,0,0,0,.095-.176c-.169-.258-.324-.517-.461-.77a.113.113,0,1,0-.2.108c.14.259.3.524.471.787A.113.113,0,0,0,752.1,347.524Zm-.855-1.6a.114.114,0,0,0,.1-.156,6.713,6.713,0,0,1-.284-.845.113.113,0,0,0-.22.057,6.959,6.959,0,0,0,.293.874A.114.114,0,0,0,751.249,345.927Zm-.445-1.752h.01a.113.113,0,0,0,.1-.123c-.011-.132-.017-.263-.017-.391a4.091,4.091,0,0,1,.029-.491.113.113,0,0,0-.225-.027,4.34,4.34,0,0,0-.031.518c0,.134.006.272.018.411A.114.114,0,0,0,750.8,344.174Zm2.672-.863h0a1.773,1.773,0,0,0,.182-.009.113.113,0,1,0-.023-.226,1.542,1.542,0,0,1-.158.008h0a2.113,2.113,0,0,1-.685-.124.113.113,0,1,0-.074.215A2.342,2.342,0,0,0,753.476,343.312Zm.956-.41a.113.113,0,0,0,.089-.043,1.465,1.465,0,0,0,.284-.921.114.114,0,0,0-.112-.114h0a.113.113,0,0,0-.113.113,1.246,1.246,0,0,1-.235.782.113.113,0,0,0,.089.184Zm-2.48-.137a.113.113,0,0,0,.066-.206,3.666,3.666,0,0,1-.65-.591.112.112,0,0,0-.052-.034,3.068,3.068,0,0,1,.245-.38.113.113,0,1,0-.181-.137,3.372,3.372,0,0,0-.453.819.113.113,0,0,0,.212.082q.035-.092.076-.18a3.875,3.875,0,0,0,.672.606A.113.113,0,0,0,751.951,342.764Zm-1.181-1.356a.113.113,0,0,0,.1-.166,4,4,0,0,1-.321-.82.114.114,0,0,0-.219.059,4.228,4.228,0,0,0,.34.866A.113.113,0,0,0,750.771,341.408Zm3.733-.236a.113.113,0,0,0,.1-.167,1.278,1.278,0,0,0-.739-.627.113.113,0,1,0-.071.215,1.055,1.055,0,0,1,.609.518A.113.113,0,0,0,754.5,341.172Zm-2.387-.2a.113.113,0,0,0,.065-.021,2.343,2.343,0,0,1,.779-.365.113.113,0,0,0-.054-.22,2.569,2.569,0,0,0-.856.4.114.114,0,0,0,.066.206Zm-1.82-1.3h.007a.114.114,0,0,0,.107-.12c0-.086-.008-.175-.008-.263a4.987,4.987,0,0,1,.04-.622.113.113,0,0,0-.225-.028,5.251,5.251,0,0,0-.041.65c0,.093,0,.186.008.276A.114.114,0,0,0,750.3,339.671Zm.216-1.793a.114.114,0,0,0,.109-.083,6.909,6.909,0,0,1,.3-.841.113.113,0,0,0-.208-.089,7.124,7.124,0,0,0-.308.869.113.113,0,0,0,.078.14A.115.115,0,0,0,750.513,337.878Zm.711-1.665a.114.114,0,0,0,.1-.056,7.641,7.641,0,0,1,.5-.744.114.114,0,0,0-.181-.137,7.9,7.9,0,0,0-.51.766.113.113,0,0,0,.041.155A.112.112,0,0,0,751.225,336.213Zm1.09-1.448a.113.113,0,0,0,.082-.035,8.117,8.117,0,0,1,.651-.614.113.113,0,1,0-.146-.173,8.38,8.38,0,0,0-.67.631.113.113,0,0,0,.082.191ZM753.7,333.6a.112.112,0,0,0,.063-.019,8.316,8.316,0,0,1,.769-.458.113.113,0,1,0-.105-.2,8.476,8.476,0,0,0-.79.471.113.113,0,0,0,.063.208Zm1.605-.841a.116.116,0,0,0,.041-.008,8.161,8.161,0,0,1,.85-.281.113.113,0,1,0-.059-.219,8.37,8.37,0,0,0-.874.288.113.113,0,0,0,.041.219Zm1.749-.472h.017a8.14,8.14,0,0,1,.89-.087.114.114,0,0,0,.108-.118.116.116,0,0,0-.118-.108,8.385,8.385,0,0,0-.915.09.113.113,0,0,0,.017.226Z" transform="translate(-750.176 -331.968)" fill="#ccb97c"/>
    </g>
    <g id="마스크_그룹_144" data-name="마스크 그룹 144" clip-path="url(#clip-path)">
      <g id="그룹_9765" data-name="그룹 9765" transform="translate(289.981 316.732)">
        <g id="그룹_9743" data-name="그룹 9743">
          <path id="패스_12820" data-name="패스 12820" d="M889.867,317.547a9.76,9.76,0,1,1,.461-13.794A9.76,9.76,0,0,1,889.867,317.547Z" transform="translate(-847.151 -300.66)" fill="#a95c28"/>
          <path id="패스_12821" data-name="패스 12821" d="M684.383,382.537c.269-.212.531-.435.785-.672s.493-.484.722-.738l.007-.007h0c5.156-5.735,4.135-15.708-2.524-22.827-6.957-7.438-17.434-8.944-23.4-3.364l-5.479,5.124,1.653,2.362c-.789,5.214,1.139,11.3,5.619,16.087,4.3,4.6,9.942,6.926,15.034,6.72l2.465,2.1Z" transform="translate(-649.344 -346.645)" fill="#ea9052"/>
          <path id="패스_12822" data-name="패스 12822" d="M654.216,423.774c-5.966,5.581-16.443,4.075-23.4-3.364s-7.76-17.992-1.794-23.573,16.443-4.075,23.4,3.363S660.182,418.194,654.216,423.774Z" transform="translate(-622.717 -384.508)"/>
          <path id="패스_12823" data-name="패스 12823" d="M646.1,431.363c-5.966,5.58-16.443,4.075-23.4-3.363s-7.761-17.992-1.794-23.573,16.443-4.075,23.4,3.364S652.068,425.783,646.1,431.363Z" transform="translate(-615.386 -391.364)" fill="#242424"/>
          <path id="패스_12824" data-name="패스 12824" d="M630.328,446.117c-5.966,5.581-16.443,4.075-23.4-3.364s-7.761-17.992-1.794-23.573,16.443-4.075,23.4,3.364S636.294,440.537,630.328,446.117Z" transform="translate(-601.135 -404.694)" fill="#4c4c4c"/>
          <g id="그룹_9742" data-name="그룹 9742" transform="translate(7.174 13.306)">
            <path id="패스_12825" data-name="패스 12825" d="M693.712,521.6a1.63,1.63,0,0,1,.372,2.379c-.725,1.18-1.337,2.192-1.851,3.2-.3.6-1.833,1.243-2.048,1.856-.175.5.869,1,.717,1.562a15.705,15.705,0,0,0-.333,6.231.174.174,0,0,1-.212.2.393.393,0,0,1-.284-.323,18.417,18.417,0,0,1,2.11-14.562s.5-1.191,1.529-.548Z" transform="translate(-688.09 -514.242)" fill="#222"/>
            <path id="패스_12826" data-name="패스 12826" d="M720.408,443.234l1.868,1.131a.447.447,0,0,0,.515-.027l1.88-1.417c.154-.116.34.043.314.268l-.326,2.767a.707.707,0,0,0,.157.545l1.586,1.8a.229.229,0,0,1-.105.37l-2.11.364a.46.46,0,0,0-.342.3l-.784,2.041a.174.174,0,0,1-.328-.008l-.977-2.049a.484.484,0,0,0-.339-.281l-1.943-.338a.23.23,0,0,1-.124-.34l1.223-1.734a.706.706,0,0,0,.093-.548l-.544-2.521c-.05-.233.119-.426.286-.324Z" transform="translate(-715.534 -442.882)" fill="#222"/>
            <path id="패스_12827" data-name="패스 12827" d="M716.715,540.593a1.024,1.024,0,0,1-.39,1.581,17.684,17.684,0,0,0-4.366,3.4,10.939,10.939,0,0,0-2.27,4.22.172.172,0,0,1-.247.094.262.262,0,0,1-.134-.3,16.109,16.109,0,0,1,.651-2.536c.161-.457,1.462-.951,1.686-1.387s-.682-.806-.413-1.217a13.277,13.277,0,0,1,4.221-3.978s.811-.49,1.261.12Z" transform="translate(-706.398 -531.227)" fill="#222"/>
            <path id="패스_12828" data-name="패스 12828" d="M785.863,687.617a2.783,2.783,0,0,1-2.093-.88l-1.823-1.986,3.3-2,2.031,2.326a.428.428,0,0,1,.106.509,1.168,1.168,0,0,1-.5.387c-.8.352.315,1.4-1.023,1.641Z" transform="translate(-772.649 -660.268)" fill="#222"/>
            <path id="패스_12829" data-name="패스 12829" d="M689.794,565.962l-2.306-.93.191-.532,2.34.935Zm.787.875-.056-.021.033-.02Zm-2.7,1.106-1.363-1.155.351-.373,1.38,1.171Zm-3.762-1.695a2.465,2.465,0,0,1-2.87-.068.366.366,0,0,1-.128-.462.3.3,0,0,1,.445-.024,1.783,1.783,0,0,0,2.077-.019,1.726,1.726,0,0,0,.409-1.995.334.334,0,0,1,.2-.462.421.421,0,0,1,.488.269,2.352,2.352,0,0,1-.617,2.761Zm2.3,2.664-.41.236-1.172-1.428.4-.255Zm-1.913,1.238-.46.057-.638-1.555.466-.073Zm-1.98.171-.453-.024-.429-1.713.465.012Zm-3.01-6.988c.186-.173.6-.007.917.37s.417.811.226.974-.591,0-.9-.37-.423-.8-.24-.974Zm-1.857-2.972.44-.052.369,1.327-.433.041Zm.62-.678.326-.322.918,1.194-.332.306Zm.983-1,1.189.552-.12.528-1.174-.548Zm3.7,2.763c.336.416.422.908.2,1.1s-.666.016-1-.387-.431-.9-.215-1.1.675-.031,1.013.387Zm11.484,3.935-4.893-1.806a.162.162,0,0,1-.022-.3l.574-.269a.166.166,0,0,0-.02-.309l-4.858-1.759a.178.178,0,0,1-.057-.3l.179-.129a.181.181,0,0,0-.063-.311l-3.8-1.181a.2.2,0,0,1-.088-.3l.165-.17a.2.2,0,0,0-.091-.309l-3.175-.92a.211.211,0,0,1-.1-.308.213.213,0,0,0-.1-.31s-1.9-.6-2.248-.71-.48.077-.364.5.675,2.6.675,2.6c.032.13.168.2.233.119s.2-.01.234.121l.726,3.212c.026.116.157.185.222.118l.125-.129c.066-.068.2,0,.224.117l.749,3.3c.024.107.156.172.217.107l.1-.107c.061-.064.19,0,.217.1l.916,3.585c.025.1.155.155.21.095l.24-.261c.057-.062.19,0,.214.1l.747,3.09c.021.086.146.144.2.094l1.455-1.306.107.533c.018.092.151.152.215.1l1.745-1.5,1.97.075a.558.558,0,0,0,.57-.327l.585-1.543,3.378-1.2a.138.138,0,0,0-.01-.266l-.8-.309,3.488-1.308a.154.154,0,0,0,0-.3Z" transform="translate(-675.444 -545.71)" fill="#222"/>
          </g>
        </g>
      </g>
    </g>
  </g>
</svg>
